<?xml version="1.0" encoding="UTF-8" standalone="no"?><svg xmlns="http://www.w3.org/2000/svg" xmlns:xlink="http://www.w3.org/1999/xlink" contentScriptType="application/ecmascript" contentStyleType="text/css" height="229px" preserveAspectRatio="none" style="width:700px;height:229px;" version="1.1" viewBox="0 0 700 229" width="700px" zoomAndPan="magnify"><defs><filter height="300%" id="f108ap0t0wmi56" width="300%" x="-1" y="-1"><feGaussianBlur result="blurOut" stdDeviation="2.0"/><feColorMatrix in="blurOut" result="blurOut2" type="matrix" values="0 0 0 0 0 0 0 0 0 0 0 0 0 0 0 0 0 0 .4 0"/><feOffset dx="4.0" dy="4.0" in="blurOut2" result="blurOut3"/><feBlend in="SourceGraphic" in2="blurOut3" mode="normal"/></filter></defs><g><!--MD5=[fcd7b9b58b982891a4c065296d4ac5c8]
entity http--><ellipse cx="250.5" cy="38.5" fill="#FEFECE" filter="url(#f108ap0t0wmi56)" rx="8" ry="8" style="stroke: #A80036; stroke-width: 1.5;"/><text fill="#000000" font-family="sans-serif" font-size="14" lengthAdjust="spacingAndGlyphs" textLength="23" x="239" y="68.4951">API</text><!--MD5=[e2307af040e3f87d22824e7603ca28ec]
entity api--><ellipse cx="478.5" cy="38.5" fill="#FEFECE" filter="url(#f108ap0t0wmi56)" rx="8" ry="8" style="stroke: #A80036; stroke-width: 1.5;"/><text fill="#000000" font-family="sans-serif" font-size="14" lengthAdjust="spacingAndGlyphs" textLength="82" x="437.5" y="68.4951">Websocket</text><!--MD5=[bf1b4add2ee2e1b53e65912b20fb7ef4]
entity ui--><ellipse cx="106.5" cy="175" fill="#FEFECE" filter="url(#f108ap0t0wmi56)" rx="8" ry="8" style="stroke: #A80036; stroke-width: 1.5;"/><text fill="#000000" font-family="sans-serif" font-size="14" lengthAdjust="spacingAndGlyphs" textLength="31" x="73.5" y="204.9951">User</text><text fill="#000000" font-family="sans-serif" font-size="14" lengthAdjust="spacingAndGlyphs" textLength="66" x="73.5" y="221.292">Interface</text><!--MD5=[aea270b37b0ac7a05558ae0e40970a01]
entity mi--><ellipse cx="604.5" cy="175" fill="#FEFECE" filter="url(#f108ap0t0wmi56)" rx="8" ry="8" style="stroke: #A80036; stroke-width: 1.5;"/><text fill="#000000" font-family="sans-serif" font-size="14" lengthAdjust="spacingAndGlyphs" textLength="75" x="567" y="204.9951">Moderator</text><text fill="#000000" font-family="sans-serif" font-size="14" lengthAdjust="spacingAndGlyphs" textLength="66" x="567" y="221.292">Interface</text><!--MD5=[e4ba77276e035bf05038a19723c401e1]
entity AuCl--><rect fill="#FEFECE" filter="url(#f108ap0t0wmi56)" height="62.5938" style="stroke: #A80036; stroke-width: 1.5;" width="199" x="7" y="7"/><rect fill="#FEFECE" height="10" style="stroke: #A80036; stroke-width: 1.5;" width="15" x="186" y="12"/><rect fill="#FEFECE" height="2" style="stroke: #A80036; stroke-width: 1.5;" width="4" x="184" y="14"/><rect fill="#FEFECE" height="2" style="stroke: #A80036; stroke-width: 1.5;" width="4" x="184" y="18"/><text fill="#000000" font-family="sans-serif" font-size="14" font-style="italic" lengthAdjust="spacingAndGlyphs" textLength="99" x="52" y="39.9951">«component»</text><text fill="#000000" font-family="sans-serif" font-size="14" lengthAdjust="spacingAndGlyphs" textLength="159" x="22" y="56.292">PlayerAudience-Client</text><!--MD5=[ec7964eb55135f015f60afe86413f913]
entity SeCl--><rect fill="#FEFECE" filter="url(#f108ap0t0wmi56)" height="62.5938" style="stroke: #A80036; stroke-width: 1.5;" width="139" x="295" y="7"/><rect fill="#FEFECE" height="10" style="stroke: #A80036; stroke-width: 1.5;" width="15" x="414" y="12"/><rect fill="#FEFECE" height="2" style="stroke: #A80036; stroke-width: 1.5;" width="4" x="412" y="14"/><rect fill="#FEFECE" height="2" style="stroke: #A80036; stroke-width: 1.5;" width="4" x="412" y="18"/><text fill="#000000" font-family="sans-serif" font-size="14" font-style="italic" lengthAdjust="spacingAndGlyphs" textLength="99" x="310" y="39.9951">«component»</text><text fill="#000000" font-family="sans-serif" font-size="14" lengthAdjust="spacingAndGlyphs" textLength="47" x="336" y="56.292">Server</text><!--MD5=[cbc5676bddfb99180e2a59914762c990]
entity StPlCl--><rect fill="#FEFECE" filter="url(#f108ap0t0wmi56)" height="62.5938" style="stroke: #A80036; stroke-width: 1.5;" width="164" x="522.5" y="7"/><rect fill="#FEFECE" height="10" style="stroke: #A80036; stroke-width: 1.5;" width="15" x="666.5" y="12"/><rect fill="#FEFECE" height="2" style="stroke: #A80036; stroke-width: 1.5;" width="4" x="664.5" y="14"/><rect fill="#FEFECE" height="2" style="stroke: #A80036; stroke-width: 1.5;" width="4" x="664.5" y="18"/><text fill="#000000" font-family="sans-serif" font-size="14" font-style="italic" lengthAdjust="spacingAndGlyphs" textLength="99" x="550" y="39.9951">«component»</text><text fill="#000000" font-family="sans-serif" font-size="14" lengthAdjust="spacingAndGlyphs" textLength="124" x="537.5" y="56.292">Moderator-Client</text><!--MD5=[0eaae2622d5bf66c8f0e2ceea51b24b6]
link AuCl to ui--><path d="M106.5,70.02 C106.5,96.431 106.5,133.7443 106.5,155.7494 " fill="none" id="AuCl-to-ui" style="stroke: #A80036; stroke-width: 1.0;"/><path d="M114.9572,162.9001 A9,9 0 0 0 98.0428 162.9001" fill="none" style="stroke: #A80036; stroke-width: 1.5;"/><!--MD5=[ed53575de36c0e57172c53b2e2e7d0e4]
link http to SeCl--><path d="M259.852,38.5 C271.434,38.5 283.016,38.5 294.598,38.5 " fill="none" id="http-SeCl" style="stroke: #A80036; stroke-width: 1.0;"/><!--MD5=[d07c8e3850fa30a1a4684094428901b9]
link AuCl to http--><path d="M206.062,38.5 C214.454,38.5 222.846,38.5 231.238,38.5 " fill="none" id="AuCl-to-http" style="stroke: #A80036; stroke-width: 1.0;"/><path d="M238.3958,30.0428 A9,9 0 0 0 238.3958 46.9572" fill="none" style="stroke: #A80036; stroke-width: 1.5;"/><!--MD5=[a13e9515ae782dc274e9a0366ed7c26b]
reverse link api to StPlCl--><path d="M497.862,38.5 C506.068,38.5 514.275,38.5 522.482,38.5 " fill="none" id="api-backto-StPlCl" style="stroke: #A80036; stroke-width: 1.0;"/><path d="M490.9302,46.9572 A9,9 0 0 0 490.9302 30.0428" fill="none" style="stroke: #A80036; stroke-width: 1.5;"/><!--MD5=[01b5f08e280d593d91d55e3a89d7bb09]
link SeCl to api--><path d="M434.414,38.5 C442.658,38.5 450.901,38.5 459.145,38.5 " fill="none" id="SeCl-to-api" style="stroke: #A80036; stroke-width: 1.0;"/><path d="M466.1228,30.0428 A9,9 0 0 0 466.1228 46.9572" fill="none" style="stroke: #A80036; stroke-width: 1.5;"/><!--MD5=[c91074eddac44bdeddd1a4fb6c527926]
link StPlCl to mi--><path d="M604.5,70.02 C604.5,96.431 604.5,133.7443 604.5,155.7494 " fill="none" id="StPlCl-to-mi" style="stroke: #A80036; stroke-width: 1.0;"/><path d="M612.9572,162.9001 A9,9 0 0 0 596.0428 162.9001" fill="none" style="stroke: #A80036; stroke-width: 1.5;"/><!--MD5=[63a3af304ebf4747fda48eb1792e4ab1]
@startuml
() "API" as http
() "Websocket" as api
() "User\nInterface" as ui
() "Moderator\nInterface" as mi
[PlayerAudience-Client] <<component>> as AuCl
[Server] <<component>> as SeCl
[Moderator-Client] <<component>> as StPlCl

ui )-up- AuCl
http - SeCl
AuCl -( http
api )- StPlCl
SeCl -( api
mi )-up- StPlCl
@enduml

PlantUML version 1.2020.20beta4(Unknown compile time)
(GPL source distribution)
Java Runtime: Java(TM) SE Runtime Environment
JVM: Java HotSpot(TM) 64-Bit Server VM
Default Encoding: UTF-8
Language: en
Country: US
--></g></svg>