<?xml version="1.0" encoding="UTF-8" standalone="no"?><svg xmlns="http://www.w3.org/2000/svg" xmlns:xlink="http://www.w3.org/1999/xlink" contentScriptType="application/ecmascript" contentStyleType="text/css" height="378px" preserveAspectRatio="none" style="width:502px;height:378px;" version="1.1" viewBox="0 0 502 378" width="502px" zoomAndPan="magnify"><defs><filter height="300%" id="f11iqqxokooamp" width="300%" x="-1" y="-1"><feGaussianBlur result="blurOut" stdDeviation="2.0"/><feColorMatrix in="blurOut" result="blurOut2" type="matrix" values="0 0 0 0 0 0 0 0 0 0 0 0 0 0 0 0 0 0 .4 0"/><feOffset dx="4.0" dy="4.0" in="blurOut2" result="blurOut3"/><feBlend in="SourceGraphic" in2="blurOut3" mode="normal"/></filter></defs><g><!--MD5=[4ef80439e1ef409f8f3a0ec422262701]
cluster server--><rect fill="#FFFFFF" filter="url(#f11iqqxokooamp)" height="284" style="stroke: #000000; stroke-width: 1.5;" width="439" x="49.5" y="7"/><rect fill="#FFFFFF" height="10" style="stroke: #000000; stroke-width: 1.5;" width="15" x="468.5" y="12"/><rect fill="#FFFFFF" height="2" style="stroke: #000000; stroke-width: 1.5;" width="4" x="466.5" y="14"/><rect fill="#FFFFFF" height="2" style="stroke: #000000; stroke-width: 1.5;" width="4" x="466.5" y="18"/><text fill="#000000" font-family="sans-serif" font-size="14" font-style="italic" lengthAdjust="spacingAndGlyphs" textLength="99" x="219.5" y="32.9951">«component»</text><text fill="#000000" font-family="sans-serif" font-size="14" font-weight="bold" lengthAdjust="spacingAndGlyphs" textLength="51" x="243.5" y="49.292">Server</text><!--MD5=[cbbcdfd2ff286cf453505908e439d9c0]
cluster logic--><rect fill="#FFFFFF" filter="url(#f11iqqxokooamp)" height="130" style="stroke: #000000; stroke-width: 1.5;" width="391" x="73.5" y="137"/><rect fill="#FFFFFF" height="10" style="stroke: #000000; stroke-width: 1.5;" width="15" x="444.5" y="142"/><rect fill="#FFFFFF" height="2" style="stroke: #000000; stroke-width: 1.5;" width="4" x="442.5" y="144"/><rect fill="#FFFFFF" height="2" style="stroke: #000000; stroke-width: 1.5;" width="4" x="442.5" y="148"/><text fill="#000000" font-family="sans-serif" font-size="14" font-style="italic" lengthAdjust="spacingAndGlyphs" textLength="99" x="219.5" y="162.9951">«component»</text><text fill="#000000" font-family="sans-serif" font-size="14" font-weight="bold" lengthAdjust="spacingAndGlyphs" textLength="43" x="247.5" y="179.292">Logic</text><!--MD5=[f9eb522a468f53158c0e9836a3a121f1]
entity pe--><rect fill="#FEFECE" filter="url(#f11iqqxokooamp)" height="62.5938" style="stroke: #A80036; stroke-width: 1.5;" width="144" x="281.5" y="58"/><rect fill="#FEFECE" height="10" style="stroke: #A80036; stroke-width: 1.5;" width="15" x="405.5" y="63"/><rect fill="#FEFECE" height="2" style="stroke: #A80036; stroke-width: 1.5;" width="4" x="403.5" y="65"/><rect fill="#FEFECE" height="2" style="stroke: #A80036; stroke-width: 1.5;" width="4" x="403.5" y="69"/><text fill="#000000" font-family="sans-serif" font-size="14" font-style="italic" lengthAdjust="spacingAndGlyphs" textLength="93" x="302" y="90.9951">«subsystem»</text><text fill="#000000" font-family="sans-serif" font-size="14" lengthAdjust="spacingAndGlyphs" textLength="104" x="296.5" y="107.292">Poll Evaluation</text><!--MD5=[57220784cd10fd02b95ed95124c16164]
entity network--><rect fill="#FEFECE" filter="url(#f11iqqxokooamp)" height="62.5938" style="stroke: #A80036; stroke-width: 1.5;" width="133" x="90" y="188"/><rect fill="#FEFECE" height="10" style="stroke: #A80036; stroke-width: 1.5;" width="15" x="203" y="193"/><rect fill="#FEFECE" height="2" style="stroke: #A80036; stroke-width: 1.5;" width="4" x="201" y="195"/><rect fill="#FEFECE" height="2" style="stroke: #A80036; stroke-width: 1.5;" width="4" x="201" y="199"/><text fill="#000000" font-family="sans-serif" font-size="14" font-style="italic" lengthAdjust="spacingAndGlyphs" textLength="93" x="105" y="220.9951">«subsystem»</text><text fill="#000000" font-family="sans-serif" font-size="14" lengthAdjust="spacingAndGlyphs" textLength="83" x="110" y="237.292">Networking</text><!--MD5=[62712c3e8a606f7e5116ef99ea9b5d12]
entity message--><rect fill="#FEFECE" filter="url(#f11iqqxokooamp)" height="62.5938" style="stroke: #A80036; stroke-width: 1.5;" width="190" x="258.5" y="188"/><rect fill="#FEFECE" height="10" style="stroke: #A80036; stroke-width: 1.5;" width="15" x="428.5" y="193"/><rect fill="#FEFECE" height="2" style="stroke: #A80036; stroke-width: 1.5;" width="4" x="426.5" y="195"/><rect fill="#FEFECE" height="2" style="stroke: #A80036; stroke-width: 1.5;" width="4" x="426.5" y="199"/><text fill="#000000" font-family="sans-serif" font-size="14" font-style="italic" lengthAdjust="spacingAndGlyphs" textLength="93" x="302" y="220.9951">«subsystem»</text><text fill="#000000" font-family="sans-serif" font-size="14" lengthAdjust="spacingAndGlyphs" textLength="150" x="273.5" y="237.292">Message Managment</text><!--MD5=[fcd7b9b58b982891a4c065296d4ac5c8]
entity http--><ellipse cx="24.5" cy="219.5" fill="#FEFECE" filter="url(#f11iqqxokooamp)" rx="8" ry="8" style="stroke: #A80036; stroke-width: 1.5;"/><text fill="#000000" font-family="sans-serif" font-size="14" lengthAdjust="spacingAndGlyphs" textLength="37" x="6" y="249.4951">HTTP</text><!--MD5=[e2307af040e3f87d22824e7603ca28ec]
entity api--><ellipse cx="156.5" cy="340" fill="#FEFECE" filter="url(#f11iqqxokooamp)" rx="8" ry="8" style="stroke: #A80036; stroke-width: 1.5;"/><text fill="#000000" font-family="sans-serif" font-size="14" lengthAdjust="spacingAndGlyphs" textLength="23" x="145" y="369.9951">API</text><!--MD5=[7ce63ca5420afeacd465465a76439b58]
reverse link http to network--><path d="M43.6226,219.5 C58.9909,219.5 74.3593,219.5 89.7276,219.5 " fill="none" id="http-backto-network" style="stroke: #A80036; stroke-width: 1.0;"/><path d="M36.6017,227.9572 A9,9 0 0 0 36.6015 211.0427" fill="none" style="stroke: #A80036; stroke-width: 1.5;"/><!--MD5=[7ed9a3d86797bbd0864a55d3cf0b470d]
link pe to message--><path d="M353.5,126.473 C353.5,143.931 353.5,164.857 353.5,182.34 " fill="none" id="pe-message" style="stroke: #A80036; stroke-width: 1.0;"/><polygon fill="#A80036" points="353.5,187.647,357.5,178.647,353.5,182.647,349.5,178.647,353.5,187.647" style="stroke: #A80036; stroke-width: 1.0;"/><polygon fill="#A80036" points="353.5,121.159,349.5,130.159,353.5,126.159,357.5,130.159,353.5,121.159" style="stroke: #A80036; stroke-width: 1.0;"/><!--MD5=[552a6ea2d7d8997684070bb10202536c]
link network to message--><path d="M228.321,219.5 C236.645,219.5 244.969,219.5 253.293,219.5 " fill="none" id="network-message" style="stroke: #A80036; stroke-width: 1.0;"/><polygon fill="#A80036" points="258.476,219.5,249.476,215.5,253.476,219.5,249.476,223.5,258.476,219.5" style="stroke: #A80036; stroke-width: 1.0;"/><polygon fill="#A80036" points="223.064,219.5,232.064,223.5,228.064,219.5,232.064,215.5,223.064,219.5" style="stroke: #A80036; stroke-width: 1.0;"/><!--MD5=[b86181faf7d4a1a813a882ee34dba91c]
link network to api--><path d="M156.5,251.017 C156.5,273.0509 156.5,302.0804 156.5,320.6473 " fill="none" id="network-to-api" style="stroke: #A80036; stroke-width: 1.0;"/><path d="M164.9572,327.6215 A9,9 0 0 0 148.0428 327.6215" fill="none" style="stroke: #A80036; stroke-width: 1.5;"/><!--MD5=[ead7a69224492f9a4850e0c643e17bcf]
@startuml
() "HTTP" as http
() "API" as api

component "Server" <<component>> as server{
component "Logic" <<component>> as logic{
    [Networking] <<subsystem>> as network
    [Message Managment] <<subsystem>> as message
}
    [Poll Evaluation] <<subsystem>> as pe
}
http )-right- network


pe <-down-> message
network <-> message

api )-up- network
@enduml

PlantUML version 1.2020.20beta4(Unknown compile time)
(GPL source distribution)
Java Runtime: Java(TM) SE Runtime Environment
JVM: Java HotSpot(TM) 64-Bit Server VM
Default Encoding: UTF-8
Language: en
Country: US
--></g></svg>