<?xml version="1.0" encoding="UTF-8" standalone="no"?><svg xmlns="http://www.w3.org/2000/svg" xmlns:xlink="http://www.w3.org/1999/xlink" contentScriptType="application/ecmascript" contentStyleType="text/css" height="794px" preserveAspectRatio="none" style="width:624px;height:794px;" version="1.1" viewBox="0 0 624 794" width="624px" zoomAndPan="magnify"><defs><filter height="300%" id="f19qwq3axvgycy" width="300%" x="-1" y="-1"><feGaussianBlur result="blurOut" stdDeviation="2.0"/><feColorMatrix in="blurOut" result="blurOut2" type="matrix" values="0 0 0 0 0 0 0 0 0 0 0 0 0 0 0 0 0 0 .4 0"/><feOffset dx="4.0" dy="4.0" in="blurOut2" result="blurOut3"/><feBlend in="SourceGraphic" in2="blurOut3" mode="normal"/></filter></defs><g><!--MD5=[4544bf05af30223886112ffd96a1865f]
cluster Moderator-Client--><polygon fill="#FFFFFF" filter="url(#f19qwq3axvgycy)" points="16,6,160,6,167,28.2969,607,28.2969,607,787,16,787,16,6" style="stroke: #000000; stroke-width: 1.5;"/><line style="stroke: #000000; stroke-width: 1.5;" x1="16" x2="167" y1="28.2969" y2="28.2969"/><text fill="#000000" font-family="sans-serif" font-size="14" font-weight="bold" lengthAdjust="spacingAndGlyphs" textLength="138" x="20" y="20.9951">Moderator-Client</text><!--MD5=[3eaf92687768346c8d614b6fd2c22fb9]
class StoryEvent--><rect codeLine="5" fill="#FEFECE" filter="url(#f19qwq3axvgycy)" height="124.8281" id="StoryEvent" style="stroke: #A80036; stroke-width: 1.5;" width="237" x="154.5" y="41"/><ellipse cx="236.25" cy="57" fill="#ADD1B2" rx="11" ry="11" style="stroke: #A80036; stroke-width: 1.0;"/><path d="M238.5938,52.6719 C237.6563,52.2344 237.0625,52.0938 236.1875,52.0938 C233.5625,52.0938 231.5625,54.1719 231.5625,56.8906 L231.5625,58.0156 C231.5625,60.5938 233.6719,62.4844 236.5625,62.4844 C237.7813,62.4844 238.9375,62.1875 239.6875,61.6406 C240.2656,61.2344 240.5938,60.7813 240.5938,60.3906 C240.5938,59.9375 240.2031,59.5469 239.7344,59.5469 C239.5156,59.5469 239.3125,59.625 239.125,59.8125 C238.6719,60.2969 238.6719,60.2969 238.4844,60.3906 C238.0625,60.6563 237.375,60.7813 236.6094,60.7813 C234.5625,60.7813 233.2656,59.6875 233.2656,57.9844 L233.2656,56.8906 C233.2656,55.1094 234.5156,53.7969 236.25,53.7969 C236.8281,53.7969 237.4375,53.9531 237.9063,54.2031 C238.3906,54.4844 238.5625,54.7031 238.6563,55.1094 C238.7188,55.5156 238.75,55.6406 238.8906,55.7656 C239.0313,55.9063 239.2656,56.0156 239.4844,56.0156 C239.75,56.0156 240.0156,55.875 240.1875,55.6563 C240.2969,55.5 240.3281,55.3125 240.3281,54.8906 L240.3281,53.4688 C240.3281,53.0313 240.3125,52.9063 240.2188,52.75 C240.0625,52.4844 239.7813,52.3438 239.4844,52.3438 C239.1875,52.3438 238.9844,52.4375 238.7656,52.75 L238.5938,52.6719 Z " fill="#000000"/><text fill="#000000" font-family="sans-serif" font-size="12" lengthAdjust="spacingAndGlyphs" textLength="65" x="256.75" y="61.1543">StoryEvent</text><line style="stroke: #A80036; stroke-width: 1.5;" x1="155.5" x2="390.5" y1="73" y2="73"/><text fill="#000000" font-family="sans-serif" font-size="11" lengthAdjust="spacingAndGlyphs" textLength="69" x="160.5" y="87.2104">-eventId: int</text><text fill="#000000" font-family="sans-serif" font-size="11" lengthAdjust="spacingAndGlyphs" textLength="104" x="160.5" y="100.0151">-description: string</text><text fill="#000000" font-family="sans-serif" font-size="11" lengthAdjust="spacingAndGlyphs" textLength="111" x="160.5" y="112.8198">-parent: StoryEvent</text><text fill="#000000" font-family="sans-serif" font-size="11" lengthAdjust="spacingAndGlyphs" textLength="127" x="160.5" y="125.6245">-children: StoryEvent[]</text><line style="stroke: #A80036; stroke-width: 1.5;" x1="155.5" x2="390.5" y1="132.2188" y2="132.2188"/><text fill="#000000" font-family="sans-serif" font-size="11" lengthAdjust="spacingAndGlyphs" textLength="225" x="160.5" y="146.4292">+StoryEvent(parent: StoryEvent, id: int)</text><text fill="#000000" font-family="sans-serif" font-size="11" lengthAdjust="spacingAndGlyphs" textLength="97" x="160.5" y="159.2339">+addChild(): void</text><!--MD5=[efd5ebcc74ce0165d13c1df9fdb2b1d2]
class StoryGraph--><rect codeLine="14" fill="#FEFECE" filter="url(#f19qwq3axvgycy)" height="163.2422" id="StoryGraph" style="stroke: #A80036; stroke-width: 1.5;" width="322" x="112" y="226"/><ellipse cx="234.75" cy="242" fill="#ADD1B2" rx="11" ry="11" style="stroke: #A80036; stroke-width: 1.0;"/><path d="M237.0938,237.6719 C236.1563,237.2344 235.5625,237.0938 234.6875,237.0938 C232.0625,237.0938 230.0625,239.1719 230.0625,241.8906 L230.0625,243.0156 C230.0625,245.5938 232.1719,247.4844 235.0625,247.4844 C236.2813,247.4844 237.4375,247.1875 238.1875,246.6406 C238.7656,246.2344 239.0938,245.7813 239.0938,245.3906 C239.0938,244.9375 238.7031,244.5469 238.2344,244.5469 C238.0156,244.5469 237.8125,244.625 237.625,244.8125 C237.1719,245.2969 237.1719,245.2969 236.9844,245.3906 C236.5625,245.6563 235.875,245.7813 235.1094,245.7813 C233.0625,245.7813 231.7656,244.6875 231.7656,242.9844 L231.7656,241.8906 C231.7656,240.1094 233.0156,238.7969 234.75,238.7969 C235.3281,238.7969 235.9375,238.9531 236.4063,239.2031 C236.8906,239.4844 237.0625,239.7031 237.1563,240.1094 C237.2188,240.5156 237.25,240.6406 237.3906,240.7656 C237.5313,240.9063 237.7656,241.0156 237.9844,241.0156 C238.25,241.0156 238.5156,240.875 238.6875,240.6563 C238.7969,240.5 238.8281,240.3125 238.8281,239.8906 L238.8281,238.4688 C238.8281,238.0313 238.8125,237.9063 238.7188,237.75 C238.5625,237.4844 238.2813,237.3438 237.9844,237.3438 C237.6875,237.3438 237.4844,237.4375 237.2656,237.75 L237.0938,237.6719 Z " fill="#000000"/><text fill="#000000" font-family="sans-serif" font-size="12" lengthAdjust="spacingAndGlyphs" textLength="68" x="255.25" y="246.1543">StoryGraph</text><line style="stroke: #A80036; stroke-width: 1.5;" x1="113" x2="433" y1="258" y2="258"/><text fill="#000000" font-family="sans-serif" font-size="11" lengthAdjust="spacingAndGlyphs" textLength="119" x="118" y="272.2104">-character: Character</text><text fill="#000000" font-family="sans-serif" font-size="11" lengthAdjust="spacingAndGlyphs" textLength="96" x="118" y="285.0151">-root: StoryEvent</text><text fill="#000000" font-family="sans-serif" font-size="11" lengthAdjust="spacingAndGlyphs" textLength="147" x="118" y="297.8198">-currentEvent: StoryEvent</text><line style="stroke: #A80036; stroke-width: 1.5;" x1="113" x2="433" y1="304.4141" y2="304.4141"/><text fill="#000000" font-family="sans-serif" font-size="11" lengthAdjust="spacingAndGlyphs" textLength="112" x="118" y="318.6245">+StoryGraph(id: int)</text><text fill="#000000" font-family="sans-serif" font-size="11" lengthAdjust="spacingAndGlyphs" textLength="245" x="118" y="331.4292">+loadGraphFromFile(filepath: string): Graph</text><text fill="#000000" font-family="sans-serif" font-size="11" lengthAdjust="spacingAndGlyphs" textLength="225" x="118" y="344.2339">+saveGraphToFile(filepath: string): void</text><text fill="#000000" font-family="sans-serif" font-size="11" lengthAdjust="spacingAndGlyphs" textLength="220" x="118" y="357.0386">+getNextPossibleEvent(): StoryEvent[]</text><text fill="#000000" font-family="sans-serif" font-size="11" lengthAdjust="spacingAndGlyphs" textLength="310" x="118" y="369.8433">+setCurrentEvent(newCurrentEvent: StoryEvent): void</text><text fill="#000000" font-family="sans-serif" font-size="11" lengthAdjust="spacingAndGlyphs" textLength="252" x="118" y="382.6479">+getNextStoryEventById(id: int): StoryEvent</text><!--MD5=[bb849c1528464e2c6bbfb2687d0866b0]
class mf--><rect codeLine="26" fill="#FEFECE" filter="url(#f19qwq3axvgycy)" height="99.2188" id="mf" style="stroke: #A80036; stroke-width: 1.5;" width="179" x="57.5" y="449"/><ellipse cx="97.25" cy="465" fill="#ADD1B2" rx="11" ry="11" style="stroke: #A80036; stroke-width: 1.0;"/><path d="M99.5938,460.6719 C98.6563,460.2344 98.0625,460.0938 97.1875,460.0938 C94.5625,460.0938 92.5625,462.1719 92.5625,464.8906 L92.5625,466.0156 C92.5625,468.5938 94.6719,470.4844 97.5625,470.4844 C98.7813,470.4844 99.9375,470.1875 100.6875,469.6406 C101.2656,469.2344 101.5938,468.7813 101.5938,468.3906 C101.5938,467.9375 101.2031,467.5469 100.7344,467.5469 C100.5156,467.5469 100.3125,467.625 100.125,467.8125 C99.6719,468.2969 99.6719,468.2969 99.4844,468.3906 C99.0625,468.6563 98.375,468.7813 97.6094,468.7813 C95.5625,468.7813 94.2656,467.6875 94.2656,465.9844 L94.2656,464.8906 C94.2656,463.1094 95.5156,461.7969 97.25,461.7969 C97.8281,461.7969 98.4375,461.9531 98.9063,462.2031 C99.3906,462.4844 99.5625,462.7031 99.6563,463.1094 C99.7188,463.5156 99.75,463.6406 99.8906,463.7656 C100.0313,463.9063 100.2656,464.0156 100.4844,464.0156 C100.75,464.0156 101.0156,463.875 101.1875,463.6563 C101.2969,463.5 101.3281,463.3125 101.3281,462.8906 L101.3281,461.4688 C101.3281,461.0313 101.3125,460.9063 101.2188,460.75 C101.0625,460.4844 100.7813,460.3438 100.4844,460.3438 C100.1875,460.3438 99.9844,460.4375 99.7656,460.75 L99.5938,460.6719 Z " fill="#000000"/><text fill="#000000" font-family="sans-serif" font-size="12" lengthAdjust="spacingAndGlyphs" textLength="92" x="116.75" y="469.1543">ModeratorView</text><line style="stroke: #A80036; stroke-width: 1.5;" x1="58.5" x2="235.5" y1="481" y2="481"/><text fill="#000000" font-family="sans-serif" font-size="11" lengthAdjust="spacingAndGlyphs" textLength="112" x="63.5" y="495.2104">-startedOnline: bool</text><line style="stroke: #A80036; stroke-width: 1.5;" x1="58.5" x2="235.5" y1="501.8047" y2="501.8047"/><text fill="#000000" font-family="sans-serif" font-size="11" lengthAdjust="spacingAndGlyphs" textLength="102" x="63.5" y="516.0151">+ModeratorView()</text><text fill="#000000" font-family="sans-serif" font-size="11" lengthAdjust="spacingAndGlyphs" textLength="167" x="63.5" y="528.8198">+pausePolling(val: bool): void</text><text fill="#000000" font-family="sans-serif" font-size="11" lengthAdjust="spacingAndGlyphs" textLength="163" x="63.5" y="541.6245">+offlineMode(val: bool): void</text><!--MD5=[aef0d3d3c8a893455b9107cd4a3b357c]
class mcei--><rect codeLine="33" fill="#FEFECE" filter="url(#f19qwq3axvgycy)" height="163.2422" id="mcei" style="stroke: #A80036; stroke-width: 1.5;" width="230" x="32" y="608"/><ellipse cx="66.8" cy="624" fill="#ADD1B2" rx="11" ry="11" style="stroke: #A80036; stroke-width: 1.0;"/><path d="M69.1438,619.6719 C68.2063,619.2344 67.6125,619.0938 66.7375,619.0938 C64.1125,619.0938 62.1125,621.1719 62.1125,623.8906 L62.1125,625.0156 C62.1125,627.5938 64.2219,629.4844 67.1125,629.4844 C68.3313,629.4844 69.4875,629.1875 70.2375,628.6406 C70.8156,628.2344 71.1438,627.7813 71.1438,627.3906 C71.1438,626.9375 70.7531,626.5469 70.2844,626.5469 C70.0656,626.5469 69.8625,626.625 69.675,626.8125 C69.2219,627.2969 69.2219,627.2969 69.0344,627.3906 C68.6125,627.6563 67.925,627.7813 67.1594,627.7813 C65.1125,627.7813 63.8156,626.6875 63.8156,624.9844 L63.8156,623.8906 C63.8156,622.1094 65.0656,620.7969 66.8,620.7969 C67.3781,620.7969 67.9875,620.9531 68.4563,621.2031 C68.9406,621.4844 69.1125,621.7031 69.2063,622.1094 C69.2688,622.5156 69.3,622.6406 69.4406,622.7656 C69.5813,622.9063 69.8156,623.0156 70.0344,623.0156 C70.3,623.0156 70.5656,622.875 70.7375,622.6563 C70.8469,622.5 70.8781,622.3125 70.8781,621.8906 L70.8781,620.4688 C70.8781,620.0313 70.8625,619.9063 70.7688,619.75 C70.6125,619.4844 70.3313,619.3438 70.0344,619.3438 C69.7375,619.3438 69.5344,619.4375 69.3156,619.75 L69.1438,619.6719 Z " fill="#000000"/><text fill="#000000" font-family="sans-serif" font-size="12" lengthAdjust="spacingAndGlyphs" textLength="154" x="85.2" y="628.1543">ModeratorClientExchange</text><line style="stroke: #A80036; stroke-width: 1.5;" x1="33" x2="261" y1="640" y2="640"/><text fill="#000000" font-family="sans-serif" font-size="11" lengthAdjust="spacingAndGlyphs" textLength="137" x="38" y="654.2104">-websocket: WebSocket</text><text fill="#000000" font-family="sans-serif" font-size="11" lengthAdjust="spacingAndGlyphs" textLength="151" x="38" y="667.0151">-authentificationGuid: Guid</text><text fill="#000000" font-family="sans-serif" font-size="11" lengthAdjust="spacingAndGlyphs" textLength="117" x="38" y="679.8198">-timeoutDuration: int</text><line style="stroke: #A80036; stroke-width: 1.5;" x1="33" x2="261" y1="686.4141" y2="686.4141"/><text fill="#000000" font-family="sans-serif" font-size="11" lengthAdjust="spacingAndGlyphs" textLength="163" x="38" y="700.6245">+ModeratorClientExchange()</text><text fill="#000000" font-family="sans-serif" font-size="11" lengthAdjust="spacingAndGlyphs" textLength="218" x="38" y="713.4292">+sendMessage(message: string): void</text><text fill="#000000" font-family="sans-serif" font-size="11" lengthAdjust="spacingAndGlyphs" textLength="162" x="38" y="726.2339">+evalJSON(json: string): bool</text><text fill="#000000" font-family="sans-serif" font-size="11" lengthAdjust="spacingAndGlyphs" textLength="134" x="38" y="739.0386">+getVotingResults(): int</text><text fill="#000000" font-family="sans-serif" font-size="11" lengthAdjust="spacingAndGlyphs" textLength="115" x="38" y="751.8433">+makeJSON(): string</text><text fill="#000000" font-family="sans-serif" font-size="11" lengthAdjust="spacingAndGlyphs" textLength="185" x="38" y="764.6479">+enterPassword(pw: string): void</text><!--MD5=[5df65fb9e2c7a32924ba06dbc5719e6e]
class Skills--><rect codeLine="45" fill="#FEFECE" filter="url(#f19qwq3axvgycy)" height="163.2422" id="Skills" style="stroke: #A80036; stroke-width: 1.5;" width="294" x="297" y="608"/><ellipse cx="424.25" cy="624" fill="#ADD1B2" rx="11" ry="11" style="stroke: #A80036; stroke-width: 1.0;"/><path d="M426.5938,619.6719 C425.6563,619.2344 425.0625,619.0938 424.1875,619.0938 C421.5625,619.0938 419.5625,621.1719 419.5625,623.8906 L419.5625,625.0156 C419.5625,627.5938 421.6719,629.4844 424.5625,629.4844 C425.7813,629.4844 426.9375,629.1875 427.6875,628.6406 C428.2656,628.2344 428.5938,627.7813 428.5938,627.3906 C428.5938,626.9375 428.2031,626.5469 427.7344,626.5469 C427.5156,626.5469 427.3125,626.625 427.125,626.8125 C426.6719,627.2969 426.6719,627.2969 426.4844,627.3906 C426.0625,627.6563 425.375,627.7813 424.6094,627.7813 C422.5625,627.7813 421.2656,626.6875 421.2656,624.9844 L421.2656,623.8906 C421.2656,622.1094 422.5156,620.7969 424.25,620.7969 C424.8281,620.7969 425.4375,620.9531 425.9063,621.2031 C426.3906,621.4844 426.5625,621.7031 426.6563,622.1094 C426.7188,622.5156 426.75,622.6406 426.8906,622.7656 C427.0313,622.9063 427.2656,623.0156 427.4844,623.0156 C427.75,623.0156 428.0156,622.875 428.1875,622.6563 C428.2969,622.5 428.3281,622.3125 428.3281,621.8906 L428.3281,620.4688 C428.3281,620.0313 428.3125,619.9063 428.2188,619.75 C428.0625,619.4844 427.7813,619.3438 427.4844,619.3438 C427.1875,619.3438 426.9844,619.4375 426.7656,619.75 L426.5938,619.6719 Z " fill="#000000"/><text fill="#000000" font-family="sans-serif" font-size="12" lengthAdjust="spacingAndGlyphs" textLength="31" x="444.75" y="628.1543">Skills</text><line style="stroke: #A80036; stroke-width: 1.5;" x1="298" x2="590" y1="640" y2="640"/><text fill="#000000" font-family="sans-serif" font-size="11" lengthAdjust="spacingAndGlyphs" textLength="111" x="303" y="654.2104">-communication: int</text><text fill="#000000" font-family="sans-serif" font-size="11" lengthAdjust="spacingAndGlyphs" textLength="75" x="303" y="667.0151">-analytics: int</text><text fill="#000000" font-family="sans-serif" font-size="11" lengthAdjust="spacingAndGlyphs" textLength="71" x="303" y="679.8198">-partying: int</text><text fill="#000000" font-family="sans-serif" font-size="11" lengthAdjust="spacingAndGlyphs" textLength="100" x="303" y="692.6245">-programming: int</text><line style="stroke: #A80036; stroke-width: 1.5;" x1="298" x2="590" y1="699.2188" y2="699.2188"/><text fill="#000000" font-family="sans-serif" font-size="11" lengthAdjust="spacingAndGlyphs" textLength="282" x="303" y="713.4292">+Skills(commu: int, analy: int, party: int, progr: int)</text><text fill="#000000" font-family="sans-serif" font-size="11" lengthAdjust="spacingAndGlyphs" textLength="252" x="303" y="726.2339">+updateCommunicationSkill(value: int): void</text><text fill="#000000" font-family="sans-serif" font-size="11" lengthAdjust="spacingAndGlyphs" textLength="215" x="303" y="739.0386">+updateAnalyticsSkill(value: int): void</text><text fill="#000000" font-family="sans-serif" font-size="11" lengthAdjust="spacingAndGlyphs" textLength="209" x="303" y="751.8433">+updatePartyingSkill(value: int): void</text><text fill="#000000" font-family="sans-serif" font-size="11" lengthAdjust="spacingAndGlyphs" textLength="238" x="303" y="764.6479">+updateProgrammingSkill(value: int): void</text><!--MD5=[3eff9d4279c887ef9286477750bdaaff]
class Character--><rect codeLine="57" fill="#FEFECE" filter="url(#f19qwq3axvgycy)" height="86.4141" id="Character" style="stroke: #A80036; stroke-width: 1.5;" width="96" x="352" y="455.5"/><ellipse cx="369.7" cy="471.5" fill="#ADD1B2" rx="11" ry="11" style="stroke: #A80036; stroke-width: 1.0;"/><path d="M372.0438,467.1719 C371.1063,466.7344 370.5125,466.5938 369.6375,466.5938 C367.0125,466.5938 365.0125,468.6719 365.0125,471.3906 L365.0125,472.5156 C365.0125,475.0938 367.1219,476.9844 370.0125,476.9844 C371.2313,476.9844 372.3875,476.6875 373.1375,476.1406 C373.7156,475.7344 374.0438,475.2813 374.0438,474.8906 C374.0438,474.4375 373.6531,474.0469 373.1844,474.0469 C372.9656,474.0469 372.7625,474.125 372.575,474.3125 C372.1219,474.7969 372.1219,474.7969 371.9344,474.8906 C371.5125,475.1563 370.825,475.2813 370.0594,475.2813 C368.0125,475.2813 366.7156,474.1875 366.7156,472.4844 L366.7156,471.3906 C366.7156,469.6094 367.9656,468.2969 369.7,468.2969 C370.2781,468.2969 370.8875,468.4531 371.3563,468.7031 C371.8406,468.9844 372.0125,469.2031 372.1063,469.6094 C372.1688,470.0156 372.2,470.1406 372.3406,470.2656 C372.4813,470.4063 372.7156,470.5156 372.9344,470.5156 C373.2,470.5156 373.4656,470.375 373.6375,470.1563 C373.7469,470 373.7781,469.8125 373.7781,469.3906 L373.7781,467.9688 C373.7781,467.5313 373.7625,467.4063 373.6688,467.25 C373.5125,466.9844 373.2313,466.8438 372.9344,466.8438 C372.6375,466.8438 372.4344,466.9375 372.2156,467.25 L372.0438,467.1719 Z " fill="#000000"/><text fill="#000000" font-family="sans-serif" font-size="12" lengthAdjust="spacingAndGlyphs" textLength="58" x="384.3" y="475.6543">Character</text><line style="stroke: #A80036; stroke-width: 1.5;" x1="353" x2="447" y1="487.5" y2="487.5"/><text fill="#000000" font-family="sans-serif" font-size="11" lengthAdjust="spacingAndGlyphs" textLength="84" x="358" y="501.7104">-abilities: Skills</text><text fill="#000000" font-family="sans-serif" font-size="11" lengthAdjust="spacingAndGlyphs" textLength="75" x="358" y="514.5151">-name: string</text><line style="stroke: #A80036; stroke-width: 1.5;" x1="353" x2="447" y1="521.1094" y2="521.1094"/><text fill="#000000" font-family="sans-serif" font-size="11" lengthAdjust="spacingAndGlyphs" textLength="72" x="358" y="535.3198">+Character()</text><!--MD5=[513d28559cb9b2f986fa50a4c3eda83f]
link StoryEvent to StoryGraph--><path codeLine="63" d="M273,166.204 C273,180.889 273,196.886 273,212.65 " fill="none" id="StoryEvent-to-StoryGraph" style="stroke: #A80036; stroke-width: 1.0;"/><polygon fill="#A80036" points="273,225.802,277,219.802,273,213.802,269,219.802,273,225.802" style="stroke: #A80036; stroke-width: 1.0;"/><text fill="#000000" font-family="sans-serif" font-size="13" lengthAdjust="spacingAndGlyphs" textLength="8" x="264.5625" y="185.9661">n</text><text fill="#000000" font-family="sans-serif" font-size="13" lengthAdjust="spacingAndGlyphs" textLength="8" x="264.6438" y="214.9198">1</text><!--MD5=[c53e1f9c02f78d6f6c6c47087547b478]
link StoryGraph to mf--><path codeLine="64" d="M219.199,389.201 C205.688,409.468 191.6,430.6 179.493,448.761 " fill="none" id="StoryGraph-mf" style="stroke: #A80036; stroke-width: 1.0;"/><!--MD5=[f80b4c689c2fbad67007e34e43864d26]
link StoryGraph to Character--><path codeLine="65" d="M327.228,389.201 C342.532,411.976 358.57,435.844 371.683,455.359 " fill="none" id="StoryGraph-Character" style="stroke: #A80036; stroke-width: 1.0;"/><!--MD5=[d7db87ef639825ac303fec40d74a2b35]
link Character to Skills--><path codeLine="66" d="M409.874,541.915 C414.41,561.397 419.945,585.173 425.227,607.86 " fill="none" id="Character-Skills" style="stroke: #A80036; stroke-width: 1.0;"/><!--MD5=[2d3469a9cdf6af823ac71c279ee21e31]
link mf to mcei--><path codeLine="67" d="M147,548.172 C147,566.328 147,587.462 147,607.734 " fill="none" id="mf-mcei" style="stroke: #A80036; stroke-width: 1.0;"/><!--MD5=[63724e4bd5e0b29029b3598b772a27b3]
link StoryGraph to mcei--><path codeLine="68" d="M277.791,389.184 C277.917,436.848 273.281,497.543 254,548 C246.01,568.908 233.877,589.316 220.612,607.81 " fill="none" id="StoryGraph-mcei" style="stroke: #A80036; stroke-width: 1.0;"/><!--MD5=[b2f50a687eb0f7c33446d7b1cad85bf7]
@startuml
skinparam classAttributeIconSize 0

package "Moderator-Client" {

  class StoryEvent {
    {field} -eventId: int
    {field} -description: string
    {field} -parent: StoryEvent
    {field} -children: StoryEvent[]
    {method} +StoryEvent(parent: StoryEvent, id: int)
    {method} +addChild(): void
  }

  class StoryGraph {
    {field} -character: Character
    {field} -root: StoryEvent
    {field} -currentEvent: StoryEvent
    {method} +StoryGraph(id: int)
    {method} +loadGraphFromFile(filepath: string): Graph
    {method} +saveGraphToFile(filepath: string): void
    {method} +getNextPossibleEvent(): StoryEvent[]
    {method} +setCurrentEvent(newCurrentEvent: StoryEvent): void
    {method} +getNextStoryEventById(id: int): StoryEvent
  }

  class "ModeratorView" as mf {
    {field} -startedOnline: bool
    {method} +ModeratorView()
    {method} +pausePolling(val: bool): void
    {method} +offlineMode(val: bool): void
  }

  class "ModeratorClientExchange" as mcei{
    {field} -websocket: WebSocket
    {field} -authentificationGuid: Guid
    {field} -timeoutDuration: int
    {method} +ModeratorClientExchange()
    {method} +sendMessage(message: string): void
    {method} +evalJSON(json: string): bool
    {method} +getVotingResults(): int
    {method} +makeJSON(): string
    {method} +enterPassword(pw: string): void
  }

  class Skills {
    {field} -communication: int
    {field} -analytics: int
    {field} -partying: int
    {field} -programming: int
    {method} + Skills(commu: int, analy: int, party: int, progr: int)
    {method} + updateCommunicationSkill(value: int): void
    {method} + updateAnalyticsSkill(value: int): void
    {method} + updatePartyingSkill(value: int): void
    {method} + updateProgrammingSkill(value: int): void
  }

  class Character {
    {field} -abilities: Skills
    {field} -name: string
    {method} +Character()
  }
  
  StoryEvent "n" - -* "1" StoryGraph
  StoryGraph - - mf
  StoryGraph - - Character
  Character - - Skills
  mf - - mcei
  StoryGraph - - - mcei
}
@enduml

PlantUML version 1.2020.20beta13(Unknown compile time)
(GPL source distribution)
Java Runtime: Java(TM) SE Runtime Environment
JVM: Java HotSpot(TM) 64-Bit Server VM
Default Encoding: UTF-8
Language: en
Country: US
--></g></svg>