<?xml version="1.0" encoding="UTF-8" standalone="no"?><svg xmlns="http://www.w3.org/2000/svg" xmlns:xlink="http://www.w3.org/1999/xlink" contentScriptType="application/ecmascript" contentStyleType="text/css" height="104px" preserveAspectRatio="none" style="width:724px;height:104px;" version="1.1" viewBox="0 0 724 104" width="724px" zoomAndPan="magnify"><defs><filter height="300%" id="fcibomafsb1sk" width="300%" x="-1" y="-1"><feGaussianBlur result="blurOut" stdDeviation="2.0"/><feColorMatrix in="blurOut" result="blurOut2" type="matrix" values="0 0 0 0 0 0 0 0 0 0 0 0 0 0 0 0 0 0 .4 0"/><feOffset dx="4.0" dy="4.0" in="blurOut2" result="blurOut3"/><feBlend in="SourceGraphic" in2="blurOut3" mode="normal"/></filter></defs><g><!--MD5=[4544bf05af30223886112ffd96a1865f]
cluster Moderator-Client--><rect fill="#FFFFFF" filter="url(#fcibomafsb1sk)" height="85" style="stroke:#000000;stroke-width:1.5;" width="178" x="100.5" y="7"/><text fill="#000000" font-family="sans-serif" font-size="14" font-weight="bold" lengthAdjust="spacingAndGlyphs" textLength="138" x="120.5" y="21.9951">Moderator-Client</text><!--MD5=[a8973b51fb403d164ccd98ec50a39132]
cluster PlayerAudience-Client--><rect fill="#FFFFFF" filter="url(#fcibomafsb1sk)" height="81" style="stroke:#000000;stroke-width:1.5;" width="192" x="399.5" y="9"/><text fill="#000000" font-family="sans-serif" font-size="14" font-weight="bold" lengthAdjust="spacingAndGlyphs" textLength="176" x="407.5" y="23.9951">PlayerAudience-Client</text><ellipse cx="189.5637" cy="59.0127" fill="#FEFECE" filter="url(#fcibomafsb1sk)" rx="73.0637" ry="17.0127" style="stroke:#A80036;stroke-width:1.5;"/><text fill="#000000" font-family="sans-serif" font-size="14" lengthAdjust="spacingAndGlyphs" textLength="114" x="132.5637" y="63.6612">End Application</text><ellipse cx="495.3742" cy="58.7748" fill="#FEFECE" filter="url(#fcibomafsb1sk)" rx="61.8742" ry="14.7748" style="stroke:#A80036;stroke-width:1.5;"/><text fill="#000000" font-family="sans-serif" font-size="14" lengthAdjust="spacingAndGlyphs" textLength="85" x="452.8742" y="63.4233">End Session</text><!--MD5=[5d12e840fb55afd9ed7b3559a638e8f7]
entity b--><ellipse cx="43.5" cy="28" fill="#FEFECE" filter="url(#fcibomafsb1sk)" rx="8" ry="8" style="stroke:#A80036;stroke-width:1.5;"/><path d="M43.5,36 L43.5,63 M30.5,44 L56.5,44 M43.5,63 L30.5,78 M43.5,63 L56.5,78 " fill="none" filter="url(#fcibomafsb1sk)" style="stroke:#A80036;stroke-width:1.5;"/><text fill="#000000" font-family="sans-serif" font-size="14" lengthAdjust="spacingAndGlyphs" textLength="75" x="6" y="96.4951">Moderator</text><!--MD5=[d8322213e5f4465576b8bf70cd9bce59]
entity s--><ellipse cx="340.5" cy="28" fill="#FEFECE" filter="url(#fcibomafsb1sk)" rx="8" ry="8" style="stroke:#A80036;stroke-width:1.5;"/><path d="M340.5,36 L340.5,63 M327.5,44 L353.5,44 M340.5,63 L327.5,78 M340.5,63 L353.5,78 " fill="none" filter="url(#fcibomafsb1sk)" style="stroke:#A80036;stroke-width:1.5;"/><text fill="#000000" font-family="sans-serif" font-size="14" lengthAdjust="spacingAndGlyphs" textLength="85" x="298" y="96.4951">ServerLogic</text><!--MD5=[a5d792beb5c449bf1b5d88645a6c8ced]
entity pa--><ellipse cx="662.5" cy="28" fill="#FEFECE" filter="url(#fcibomafsb1sk)" rx="8" ry="8" style="stroke:#A80036;stroke-width:1.5;"/><path d="M662.5,36 L662.5,63 M649.5,44 L675.5,44 M662.5,63 L649.5,78 M662.5,63 L675.5,78 " fill="none" filter="url(#fcibomafsb1sk)" style="stroke:#A80036;stroke-width:1.5;"/><text fill="#000000" font-family="sans-serif" font-size="14" lengthAdjust="spacingAndGlyphs" textLength="110" x="607.5" y="96.4951">PlayerAudience</text><!--MD5=[dec8d1ee999d6178ab6997de8c289e64]
link b to endA--><path d="M81.1406,59 C91.113,59 101.0854,59 111.058,59 " fill="none" id="b-to-endA" style="stroke:#A80036;stroke-width:1.0;"/><polygon fill="#A80036" points="116.273,59,107.273,55,111.273,59,107.273,63,116.273,59" style="stroke:#A80036;stroke-width:1.0;"/><!--MD5=[f94e60efa8ebda40a3aeab8a9b107f59]
link endA to s--><path d="M262.641,59 C272.655,59 282.669,59 292.684,59 " fill="none" id="endA-to-s" style="stroke:#A80036;stroke-width:1.0;"/><polygon fill="#A80036" points="297.921,59,288.921,55,292.921,59,288.921,63,297.921,59" style="stroke:#A80036;stroke-width:1.0;"/><!--MD5=[267179ddd3eb24b1c167778d11d42199]
link s to endS--><path d="M383.186,59 C398.164,59 413.142,59 428.121,59 " fill="none" id="s-to-endS" style="stroke:#A80036;stroke-width:1.0;"/><polygon fill="#A80036" points="433.201,59,424.201,55,428.201,59,424.201,63,433.201,59" style="stroke:#A80036;stroke-width:1.0;"/><!--MD5=[045095719390845c64d5864877594ea4]
link endS to pa--><path d="M557.799,59 C572.619,59 587.44,59 602.26,59 " fill="none" id="endS-to-pa" style="stroke:#A80036;stroke-width:1.0;"/><polygon fill="#A80036" points="607.286,59,598.286,55,602.286,59,598.286,63,607.286,59" style="stroke:#A80036;stroke-width:1.0;"/><!--MD5=[8215fc957faaea7fcbc8e25872afb59c]
@startuml
rectangle "Moderator-Client" {
    usecase "End Application" as endA    
}

rectangle "PlayerAudience-Client" {
    usecase "End Session" as endS
}

actor "Moderator" as b
actor "ServerLogic" as s
actor "PlayerAudience" as pa

b -right-> endA
endA -> s
s -> endS
endS -> pa
@enduml

PlantUML version 1.2020.21beta3(Unknown compile time)
(GPL source distribution)
Java Runtime: Java(TM) SE Runtime Environment
JVM: Java HotSpot(TM) 64-Bit Server VM
Default Encoding: UTF-8
Language: en
Country: US
--></g></svg>