<?xml version="1.0" encoding="UTF-8" standalone="no"?><svg xmlns="http://www.w3.org/2000/svg" xmlns:xlink="http://www.w3.org/1999/xlink" contentScriptType="application/ecmascript" contentStyleType="text/css" height="218px" preserveAspectRatio="none" style="width:610px;height:218px;" version="1.1" viewBox="0 0 610 218" width="610px" zoomAndPan="magnify"><defs><filter height="300%" id="ftylthp9bl10u" width="300%" x="-1" y="-1"><feGaussianBlur result="blurOut" stdDeviation="2.0"/><feColorMatrix in="blurOut" result="blurOut2" type="matrix" values="0 0 0 0 0 0 0 0 0 0 0 0 0 0 0 0 0 0 .4 0"/><feOffset dx="4.0" dy="4.0" in="blurOut2" result="blurOut3"/><feBlend in="SourceGraphic" in2="blurOut3" mode="normal"/></filter></defs><g><!--MD5=[04b1759fa898116091f17bc421716fca]
cluster Moderator-Client Online Mode--><rect fill="#FFFFFF" filter="url(#ftylthp9bl10u)" height="81" style="stroke:#000000;stroke-width:1.5;" width="305" x="293" y="7"/><text fill="#000000" font-family="sans-serif" font-size="14" font-weight="bold" lengthAdjust="spacingAndGlyphs" textLength="242" x="324.5" y="21.9951">Moderator-Client Online Mode</text><!--MD5=[38a8dc48bb399ab53c882a2c6550d17d]
cluster Moderator-Client Offline Mode--><rect fill="#FFFFFF" filter="url(#ftylthp9bl10u)" height="80" style="stroke:#000000;stroke-width:1.5;" width="262" x="7" y="7.5"/><text fill="#000000" font-family="sans-serif" font-size="14" font-weight="bold" lengthAdjust="spacingAndGlyphs" textLength="246" x="15" y="22.4951">Moderator-Client Offline Mode</text><ellipse cx="526.033" cy="57.0236" fill="#FEFECE" filter="url(#ftylthp9bl10u)" rx="56.033" ry="14.5236" style="stroke:#A80036;stroke-width:1.5;"/><text fill="#000000" font-family="sans-serif" font-size="14" lengthAdjust="spacingAndGlyphs" textLength="75" x="488.533" y="61.6721">Play Game</text><ellipse cx="372.1001" cy="56.92" fill="#FEFECE" filter="url(#ftylthp9bl10u)" rx="62.6001" ry="14.92" style="stroke:#A80036;stroke-width:1.5;"/><text fill="#000000" font-family="sans-serif" font-size="14" lengthAdjust="spacingAndGlyphs" textLength="87" x="328.6001" y="61.5685">Pause Game</text><ellipse cx="197.033" cy="57.0236" fill="#FEFECE" filter="url(#ftylthp9bl10u)" rx="56.033" ry="14.5236" style="stroke:#A80036;stroke-width:1.5;"/><text fill="#000000" font-family="sans-serif" font-size="14" lengthAdjust="spacingAndGlyphs" textLength="75" x="159.533" y="61.6721">Play Game</text><!--MD5=[8b944653c655024075d894af29a33c78]
entity SC--><ellipse cx="526" cy="141.5" fill="#FEFECE" filter="url(#ftylthp9bl10u)" rx="8" ry="8" style="stroke:#A80036;stroke-width:1.5;"/><path d="M526,149.5 L526,176.5 M513,157.5 L539,157.5 M526,176.5 L513,191.5 M526,176.5 L539,191.5 " fill="none" filter="url(#ftylthp9bl10u)" style="stroke:#A80036;stroke-width:1.5;"/><text fill="#000000" font-family="sans-serif" font-size="14" lengthAdjust="spacingAndGlyphs" textLength="85" x="483.5" y="209.9951">ServerLogic</text><!--MD5=[626ad08abde0879284d52f51a0eb42aa]
entity P--><ellipse cx="285" cy="141.5" fill="#FEFECE" filter="url(#ftylthp9bl10u)" rx="8" ry="8" style="stroke:#A80036;stroke-width:1.5;"/><path d="M285,149.5 L285,176.5 M272,157.5 L298,157.5 M285,176.5 L272,191.5 M285,176.5 L298,191.5 " fill="none" filter="url(#ftylthp9bl10u)" style="stroke:#A80036;stroke-width:1.5;"/><text fill="#000000" font-family="sans-serif" font-size="14" lengthAdjust="spacingAndGlyphs" textLength="75" x="247.5" y="209.9951">Moderator</text><!--MD5=[08a270da83c41d4c4fd89129cbe67956]
reverse link md to SC--><path d="M526,77.09 C526,91.946 526,113.0779 526,131.5839 " fill="none" id="md-backto-SC" style="stroke:#A80036;stroke-width:1.0;"/><polygon fill="#A80036" points="526,71.917,522,80.917,526,76.917,530,80.917,526,71.917" style="stroke:#A80036;stroke-width:1.0;"/><!--MD5=[d82a94c5a667db5081a765ff77e69d6d]
reverse link cp to P--><path d="M358.256,75.93 C346.834,90.832 330.155,112.591 315.596,131.5839 " fill="none" id="cp-backto-P" style="stroke:#A80036;stroke-width:1.0;"/><polygon fill="#A80036" points="361.332,71.917,352.6825,76.6273,358.2906,75.8856,359.0323,81.4936,361.332,71.917" style="stroke:#A80036;stroke-width:1.0;"/><!--MD5=[050efc78cd2a1b664d9d293c796b31b5]
reverse link md2 to P--><path d="M210.558,75.487 C222.154,90.443 239.283,112.535 254.187,131.7584 " fill="none" id="md2-backto-P" style="stroke:#A80036;stroke-width:1.0;"/><polygon fill="#A80036" points="207.44,71.466,209.7922,81.0298,210.5032,75.4178,216.1152,76.1288,207.44,71.466" style="stroke:#A80036;stroke-width:1.0;"/><!--MD5=[be5f8eb0f53a116d0529f3f540d3804c]
@startuml
actor "ServerLogic" as SC
actor "Moderator" as P

rectangle "Moderator-Client Online Mode" {
    usecase "Play Game" as md
    usecase "Pause Game" as cp
} 

rectangle "Moderator-Client Offline Mode" {
    usecase "Play Game" as md2
}

SC -up-> md
P -up-> cp

P -up-> md2
@enduml

PlantUML version 1.2020.21beta3(Unknown compile time)
(GPL source distribution)
Java Runtime: Java(TM) SE Runtime Environment
JVM: Java HotSpot(TM) 64-Bit Server VM
Default Encoding: UTF-8
Language: en
Country: US
--></g></svg>