<?xml version="1.0" encoding="UTF-8" standalone="no"?><svg xmlns="http://www.w3.org/2000/svg" xmlns:xlink="http://www.w3.org/1999/xlink" contentScriptType="application/ecmascript" contentStyleType="text/css" height="104px" preserveAspectRatio="none" style="width:488px;height:104px;" version="1.1" viewBox="0 0 488 104" width="488px" zoomAndPan="magnify"><defs><filter height="300%" id="f1gnvvtpnieuz5" width="300%" x="-1" y="-1"><feGaussianBlur result="blurOut" stdDeviation="2.0"/><feColorMatrix in="blurOut" result="blurOut2" type="matrix" values="0 0 0 0 0 0 0 0 0 0 0 0 0 0 0 0 0 0 .4 0"/><feOffset dx="4.0" dy="4.0" in="blurOut2" result="blurOut3"/><feBlend in="SourceGraphic" in2="blurOut3" mode="normal"/></filter></defs><g><!--MD5=[a8973b51fb403d164ccd98ec50a39132]
cluster PlayerAudience-Client--><rect fill="#FFFFFF" filter="url(#f1gnvvtpnieuz5)" height="85" style="stroke:#000000;stroke-width:1.5;" width="192" x="160" y="7"/><text fill="#000000" font-family="sans-serif" font-size="14" font-weight="bold" lengthAdjust="spacingAndGlyphs" textLength="176" x="168" y="21.9951">PlayerAudience-Client</text><ellipse cx="255.6576" cy="58.9315" fill="#FEFECE" filter="url(#f1gnvvtpnieuz5)" rx="72.6576" ry="16.9315" style="stroke:#A80036;stroke-width:1.5;"/><text fill="#000000" font-family="sans-serif" font-size="14" lengthAdjust="spacingAndGlyphs" textLength="113" x="199.1576" y="63.5799">Decision Voting</text><!--MD5=[e34806be013694a7d80e05a3c2669587]
entity AUDC--><ellipse cx="61" cy="28" fill="#FEFECE" filter="url(#f1gnvvtpnieuz5)" rx="8" ry="8" style="stroke:#A80036;stroke-width:1.5;"/><path d="M61,36 L61,63 M48,44 L74,44 M61,63 L48,78 M61,63 L74,78 " fill="none" filter="url(#f1gnvvtpnieuz5)" style="stroke:#A80036;stroke-width:1.5;"/><text fill="#000000" font-family="sans-serif" font-size="14" lengthAdjust="spacingAndGlyphs" textLength="110" x="6" y="96.4951">PlayerAudience</text><!--MD5=[051be2fd78f954f5152ae04633b10bc0]
entity se--><ellipse cx="438.5" cy="28" fill="#FEFECE" filter="url(#f1gnvvtpnieuz5)" rx="8" ry="8" style="stroke:#A80036;stroke-width:1.5;"/><path d="M438.5,36 L438.5,63 M425.5,44 L451.5,44 M438.5,63 L425.5,78 M438.5,63 L451.5,78 " fill="none" filter="url(#f1gnvvtpnieuz5)" style="stroke:#A80036;stroke-width:1.5;"/><text fill="#000000" font-family="sans-serif" font-size="14" lengthAdjust="spacingAndGlyphs" textLength="85" x="396" y="96.4951">ServerLogic</text><!--MD5=[95bef12108480bc60d8863f86591e1ae]
link AUDC to PE--><path d="M116.134,59 C135.202,59 157.017,59 177.601,59 " fill="none" id="AUDC-to-PE" style="stroke:#A80036;stroke-width:1.0;"/><polygon fill="#A80036" points="182.805,59,173.805,55,177.805,59,173.805,63,182.805,59" style="stroke:#A80036;stroke-width:1.0;"/><!--MD5=[60b5514a5f206b51c22af44ec67cee15]
link PE to se--><path d="M328.036,59 C349.081,59 371.558,59 390.635,59 " fill="none" id="PE-to-se" style="stroke:#A80036;stroke-width:1.0;"/><polygon fill="#A80036" points="395.922,59,386.922,55,390.922,59,386.922,63,395.922,59" style="stroke:#A80036;stroke-width:1.0;"/><!--MD5=[86b9909634ac7816d5d8b06b0d527163]
@startuml
left to right direction
actor "PlayerAudience" as AUDC
actor "ServerLogic" as se
rectangle "PlayerAudience-Client" {
usecase "Decision Voting" as PE
}

AUDC - -> PE
PE - -> se
@enduml

PlantUML version 1.2020.21beta3(Unknown compile time)
(GPL source distribution)
Java Runtime: Java(TM) SE Runtime Environment
JVM: Java HotSpot(TM) 64-Bit Server VM
Default Encoding: UTF-8
Language: en
Country: US
--></g></svg>