<?xml version="1.0" encoding="UTF-8" standalone="no"?><svg xmlns="http://www.w3.org/2000/svg" xmlns:xlink="http://www.w3.org/1999/xlink" contentScriptType="application/ecmascript" contentStyleType="text/css" height="701px" preserveAspectRatio="none" style="width:1202px;height:701px;" version="1.1" viewBox="0 0 1202 701" width="1202px" zoomAndPan="magnify"><defs><filter height="300%" id="f1bf4xlp0c6q9o" width="300%" x="-1" y="-1"><feGaussianBlur result="blurOut" stdDeviation="2.0"/><feColorMatrix in="blurOut" result="blurOut2" type="matrix" values="0 0 0 0 0 0 0 0 0 0 0 0 0 0 0 0 0 0 .4 0"/><feOffset dx="4.0" dy="4.0" in="blurOut2" result="blurOut3"/><feBlend in="SourceGraphic" in2="blurOut3" mode="normal"/></filter></defs><g><ellipse cx="369" cy="16" fill="#000000" filter="url(#f1bf4xlp0c6q9o)" rx="10" ry="10" style="stroke:none;stroke-width:1.0;"/><rect fill="#FEFECE" filter="url(#f1bf4xlp0c6q9o)" height="33.9688" rx="12.5" ry="12.5" style="stroke:#A80036;stroke-width:1.5;" width="140" x="299" y="67"/><text fill="#000000" font-family="sans-serif" font-size="12" lengthAdjust="spacing" textLength="120" x="309" y="88.1387">A bug has surfaced.</text><rect fill="#FEFECE" filter="url(#f1bf4xlp0c6q9o)" height="33.9688" rx="12.5" ry="12.5" style="stroke:#A80036;stroke-width:1.5;" width="248" x="245" y="142"/><text fill="#000000" font-family="sans-serif" font-size="12" lengthAdjust="spacing" textLength="228" x="255" y="163.1387">So far no one else has found the bug.</text><polygon fill="#FEFECE" filter="url(#f1bf4xlp0c6q9o)" points="369,217,381,229,369,241,357,229,369,217" style="stroke:#A80036;stroke-width:1.5;"/><rect fill="#FEFECE" filter="url(#f1bf4xlp0c6q9o)" height="75.875" rx="12.5" ry="12.5" style="stroke:#A80036;stroke-width:1.5;" width="282" x="7" y="352"/><text fill="#000000" font-family="sans-serif" font-size="12" lengthAdjust="spacing" textLength="145" x="73.5" y="373.1387">Yaggaya sees the ticket</text><text fill="#000000" font-family="sans-serif" font-size="12" lengthAdjust="spacing" textLength="254" x="21" y="387.1074">and passes it on to the appropriate place.</text><text fill="#000000" font-family="sans-serif" font-size="12" lengthAdjust="spacing" textLength="112" x="92" y="401.0762">Your stats change:</text><text fill="#000000" font-family="sans-serif" font-size="12" lengthAdjust="spacing" textLength="74" x="113" y="415.0449">+2 analytics</text><polygon fill="#FEFECE" filter="url(#f1bf4xlp0c6q9o)" points="555,308,567,320,555,332,543,320,555,308" style="stroke:#A80036;stroke-width:1.5;"/><rect fill="#FEFECE" filter="url(#f1bf4xlp0c6q9o)" height="33.9688" rx="12.5" ry="12.5" style="stroke:#A80036;stroke-width:1.5;" width="214" x="448" y="448"/><text fill="#000000" font-family="sans-serif" font-size="12" lengthAdjust="spacing" textLength="194" x="458" y="469.1387">The bug leads to a critical error.</text><rect fill="#FEFECE" filter="url(#f1bf4xlp0c6q9o)" height="75.875" rx="12.5" ry="12.5" style="stroke:#A80036;stroke-width:1.5;" width="824" x="143" y="523"/><text fill="#000000" font-family="sans-serif" font-size="12" lengthAdjust="spacing" textLength="800" x="153" y="544.1387">The bug was found and Yaggaya is pretty mad at you because you should have noticed the bug, since you worked on the code last.</text><text fill="#000000" font-family="sans-serif" font-size="12" lengthAdjust="spacing" textLength="112" x="499" y="558.1074">Your stats change:</text><text fill="#000000" font-family="sans-serif" font-size="12" lengthAdjust="spacing" textLength="107" x="501.5" y="572.0762">-3 communication</text><text fill="#000000" font-family="sans-serif" font-size="12" lengthAdjust="spacing" textLength="69" x="522.5" y="586.0449">-3 analytics</text><rect fill="#FEFECE" filter="url(#f1bf4xlp0c6q9o)" height="33.9688" rx="12.5" ry="12.5" style="stroke:#A80036;stroke-width:1.5;" width="279" x="815.5" y="448"/><text fill="#000000" font-family="sans-serif" font-size="12" lengthAdjust="spacing" textLength="259" x="825.5" y="469.1387">The bug does not lead to any critical error.</text><rect fill="#FEFECE" filter="url(#f1bf4xlp0c6q9o)" height="61.9063" rx="12.5" ry="12.5" style="stroke:#A80036;stroke-width:1.5;" width="201" x="987.5" y="530"/><text fill="#000000" font-family="sans-serif" font-size="12" lengthAdjust="spacing" textLength="177" x="997.5" y="551.1387">The bug remains undetected.</text><text fill="#000000" font-family="sans-serif" font-size="12" lengthAdjust="spacing" textLength="112" x="1032" y="565.1074">Your stats change:</text><text fill="#000000" font-family="sans-serif" font-size="12" lengthAdjust="spacing" textLength="69" x="1055.5" y="579.0762">-3 analytics</text><rect fill="#FEFECE" filter="url(#f1bf4xlp0c6q9o)" height="47.9375" rx="12.5" ry="12.5" style="stroke:#A80036;stroke-width:1.5;" width="378" x="366" y="640"/><text fill="#000000" font-family="sans-serif" font-size="12" lengthAdjust="spacing" textLength="197" x="454.5" y="661.1387">The project customer calls again</text><text fill="#000000" font-family="sans-serif" font-size="12" lengthAdjust="spacing" textLength="354" x="380" y="675.1074">and wants to have a completely new feature implemented.</text><!--MD5=[4d8aace394fa76d11717b17b4965f20f]
link start to A bug has surfaced.--><path d="M369,26.177 C369,35.269 369,49.527 369,61.485 " fill="none" id="start-to-A bug has surfaced." style="stroke:#A80036;stroke-width:1.0;"/><polygon fill="#A80036" points="369,66.791,373,57.791,369,61.791,365,57.791,369,66.791" style="stroke:#A80036;stroke-width:1.0;"/><!--MD5=[7b77bc043a010d2aacf7a11a2213b8f4]
link A bug has surfaced. to So far no one else has found the bug.--><path d="M369,101.201 C369,111.692 369,125.463 369,136.818 " fill="none" id="A bug has surfaced.-to-So far no one else has found the bug." style="stroke:#A80036;stroke-width:1.0;"/><polygon fill="#A80036" points="369,141.844,373,132.844,369,136.844,365,132.844,369,141.844" style="stroke:#A80036;stroke-width:1.0;"/><!--MD5=[39717e5617f7a87678af2dee54181373]
link So far no one else has found the bug. to #719274--><path d="M369,176.115 C369,186.916 369,201.082 369,211.883 " fill="none" id="So far no one else has found the bug.-to-#719274" style="stroke:#A80036;stroke-width:1.0;"/><polygon fill="#A80036" points="369,216.885,373,207.885,369,211.885,365,207.885,369,216.885" style="stroke:#A80036;stroke-width:1.0;"/><text fill="#000000" font-family="sans-serif" font-size="11" lengthAdjust="spacing" textLength="124" x="225.2375" y="209.4495">How do you proceed?</text><!--MD5=[fbcbb2b9abb04e8b1a66ed1e653e5ce9]
link #719274 to bugTicket--><path d="M360.682,232.957 C347.491,237.827 321.199,248.275 301,261 C260.759,286.353 219.661,321.341 190.207,348.331 " fill="none" id="#719274-to-bugTicket" style="stroke:#A80036;stroke-width:1.0;"/><polygon fill="#A80036" points="186.312,351.916,195.6436,348.7661,189.9916,348.5307,190.227,342.8787,186.312,351.916" style="stroke:#A80036;stroke-width:1.0;"/><text fill="#000000" font-family="sans-serif" font-size="11" lengthAdjust="spacing" textLength="127" x="302" y="278.7104">You write a bug ticket.</text><!--MD5=[92621822d622e8830b99473cff83cdbe]
link #719274 to #719279--><path d="M376.522,233.599 C405.024,247.237 506.578,295.83 542.388,312.965 " fill="none" id="#719274-to-#719279" style="stroke:#A80036;stroke-width:1.0;"/><polygon fill="#A80036" points="547.178,315.257,540.7849,307.7651,542.6674,313.0996,537.333,314.9821,547.178,315.257" style="stroke:#A80036;stroke-width:1.0;"/><text fill="#000000" font-family="sans-serif" font-size="11" lengthAdjust="spacing" textLength="74" x="530" y="272.2104">Just ignore it,</text><text fill="#000000" font-family="sans-serif" font-size="11" lengthAdjust="spacing" textLength="152" x="495" y="285.0151">no one will notice anyway.</text><text fill="#000000" font-family="sans-serif" font-size="11" lengthAdjust="spacing" textLength="69" x="465.7459" y="310.4299">dice roll &gt; 3</text><!--MD5=[c2b99be3566a4aa35ee8370fa41ea0c5]
link #719279 to The bug leads to a critical error.--><path d="M555,332.221 C555,355.997 555,411.787 555,442.605 " fill="none" id="#719279-to-The bug leads to a critical error." style="stroke:#A80036;stroke-width:1.0;"/><polygon fill="#A80036" points="555,447.692,559,438.692,555,442.692,551,438.692,555,447.692" style="stroke:#A80036;stroke-width:1.0;"/><text fill="#000000" font-family="sans-serif" font-size="11" lengthAdjust="spacing" textLength="23" x="556" y="394.2104">true</text><!--MD5=[17e801e1c3a28e54d6d48da4824c3d82]
link The bug leads to a critical error. to badEnd--><path d="M555,482.374 C555,492.131 555,505.008 555,517.463 " fill="none" id="The bug leads to a critical error.-to-badEnd" style="stroke:#A80036;stroke-width:1.0;"/><polygon fill="#A80036" points="555,522.764,559,513.764,555,517.764,551,513.764,555,522.764" style="stroke:#A80036;stroke-width:1.0;"/><!--MD5=[c3151027d135ebecf57d75af0089d1d5]
link #719279 to The bug does not lead to any critical error.--><path d="M563.355,323.987 C606.934,339.566 809.815,412.096 905.197,446.196 " fill="none" id="#719279-to-The bug does not lead to any critical error." style="stroke:#A80036;stroke-width:1.0;"/><polygon fill="#A80036" points="909.935,447.889,902.8062,441.0934,905.2267,446.2062,900.1138,448.6267,909.935,447.889" style="stroke:#A80036;stroke-width:1.0;"/><text fill="#000000" font-family="sans-serif" font-size="11" lengthAdjust="spacing" textLength="28" x="848" y="394.2104">false</text><!--MD5=[ef7cfbb383f04511e9862008245fc8bd]
link The bug does not lead to any critical error. to The bug remains undetected. \n Your stats change: \n -3 analytics--><path d="M977.864,482.159 C995.201,494.413 1019.62,511.674 1041.07,526.829 " fill="none" id="The bug does not lead to any critical error.-to-The bug remains undetected. \n Your stats change: \n -3 analytics" style="stroke:#A80036;stroke-width:1.0;"/><polygon fill="#A80036" points="1045.31,529.83,1040.2691,521.3689,1041.2269,526.9441,1035.6517,527.9019,1045.31,529.83" style="stroke:#A80036;stroke-width:1.0;"/><!--MD5=[0369c903bff81be58b58d1c61ed2f5e1]
link The bug remains undetected. \n Your stats change: \n -3 analytics to nextDecision--><path d="M1002.676,592.0651 C994.059,594.6115 985.394,596.9803 977,599 C903.389,616.7122 821.316,630.4807 749.26,640.6321 " fill="none" id="The bug remains undetected. \n Your stats change: \n -3 analytics-to-nextDecision" style="stroke:#0000FF;stroke-width:1.0;stroke-dasharray:1.0,3.0;"/><polygon fill="#0000FF" points="744.09,641.3567,753.5582,644.0682,749.0416,640.6624,752.4474,636.1457,744.09,641.3567" style="stroke:#0000FF;stroke-width:1.0;"/><!--MD5=[0487601e9f6b8b8f7038741caec9348b]
link badEnd to nextDecision--><path d="M555,599.0352 C555,610.7437 555,623.494 555,634.508 " fill="none" id="badEnd-to-nextDecision" style="stroke:#0000FF;stroke-width:1.0;stroke-dasharray:1.0,3.0;"/><polygon fill="#0000FF" points="555,639.7632,559,630.7632,555,634.7632,551,630.7632,555,639.7632" style="stroke:#0000FF;stroke-width:1.0;"/><!--MD5=[6150290290010fc8361f25acc3a17f9e]
link bugTicket to nextDecision--><path d="M131.102,428.235 C113.129,474.118 92.402,551.781 133,599 C163.227,634.1563 264.735,650.235 360.615,657.4866 " fill="none" id="bugTicket-to-nextDecision" style="stroke:#0000FF;stroke-width:1.0;stroke-dasharray:1.0,3.0;"/><polygon fill="#0000FF" points="365.756,657.8674,357.0767,653.2124,360.7697,657.4974,356.4847,661.1904,365.756,657.8674" style="stroke:#0000FF;stroke-width:1.0;"/><!--MD5=[4288b3286e2bf88a9aded80a4a9715c1]
@startuml
(*) - -> "A bug has surfaced."
- -> "So far no one else has found the bug."
if "How do you proceed?" then 
- -> [You write a bug ticket.] "Yaggaya sees the ticket \n and passes it on to the appropriate place. \n Your stats change: \n +2 analytics" as bugTicket
else
- -> [Just ignore it, \n no one will notice anyway.] if "dice roll > 3" then
- -> [true] "The bug leads to a critical error."
- -> "The bug was found and Yaggaya is pretty mad at you because you should have noticed the bug, since you worked on the code last. \n Your stats change: \n -3 communication \n -3 analytics" as badEnd

else
- -> [false] "The bug does not lead to any critical error."
- -> "The bug remains undetected. \n Your stats change: \n -3 analytics" 
-[#blue,dotted]-> "The project customer calls again \n and wants to have a completely new feature implemented." as nextDecision 
endif
badEnd -[#blue,dotted]-> nextDecision
bugTicket -[#blue,dotted]-> nextDecision
@enduml

PlantUML version 1.2021.6beta4(Unknown compile time)
(GPL source distribution)
Java Runtime: Java(TM) SE Runtime Environment
JVM: Java HotSpot(TM) 64-Bit Server VM
Default Encoding: UTF-8
Language: en
Country: US
--></g></svg>