<?xml version="1.0" encoding="UTF-8" standalone="no"?><svg xmlns="http://www.w3.org/2000/svg" xmlns:xlink="http://www.w3.org/1999/xlink" contentScriptType="application/ecmascript" contentStyleType="text/css" height="479px" preserveAspectRatio="none" style="width:623px;height:479px;" version="1.1" viewBox="0 0 623 479" width="623px" zoomAndPan="magnify"><defs><filter height="300%" id="f1bdb4fp3ysjtr" width="300%" x="-1" y="-1"><feGaussianBlur result="blurOut" stdDeviation="2.0"/><feColorMatrix in="blurOut" result="blurOut2" type="matrix" values="0 0 0 0 0 0 0 0 0 0 0 0 0 0 0 0 0 0 .4 0"/><feOffset dx="4.0" dy="4.0" in="blurOut2" result="blurOut3"/><feBlend in="SourceGraphic" in2="blurOut3" mode="normal"/></filter></defs><g><rect fill="#B0C4DE" height="467.0313" style="stroke: #A80036; stroke-width: 1.0;" width="469" x="1" y="6"/><text fill="#000000" font-family="sans-serif" font-size="13" font-weight="bold" lengthAdjust="spacingAndGlyphs" textLength="175" x="148" y="19.4951">Network protocol relevance</text><rect fill="#FFFFFF" filter="url(#f1bdb4fp3ysjtr)" height="255.4609" style="stroke: #A80036; stroke-width: 1.0;" width="10" x="71.5" y="120.9609"/><rect fill="#FFFFFF" filter="url(#f1bdb4fp3ysjtr)" height="255.4609" style="stroke: #A80036; stroke-width: 1.0;" width="10" x="231.5" y="120.9609"/><rect fill="#FFFFFF" filter="url(#f1bdb4fp3ysjtr)" height="76.7031" style="stroke: #A80036; stroke-width: 1.0;" width="10" x="236.5" y="143.3125"/><rect fill="#FFFFFF" filter="url(#f1bdb4fp3ysjtr)" height="73.7031" style="stroke: #A80036; stroke-width: 1.0;" width="10" x="236.5" y="293.7188"/><rect fill="#FFFFFF" filter="url(#f1bdb4fp3ysjtr)" height="73.7031" style="stroke: #A80036; stroke-width: 1.0;" width="10" x="391.5" y="293.7188"/><rect fill="#FFFFFF" filter="url(#f1bdb4fp3ysjtr)" height="30" style="stroke: #A80036; stroke-width: 1.0;" width="10" x="544" y="190.0156"/><line style="stroke: #A80036; stroke-width: 1.0; stroke-dasharray: 5.0,5.0;" x1="76" x2="76" y1="110.9609" y2="385.4219"/><line style="stroke: #A80036; stroke-width: 1.0; stroke-dasharray: 5.0,5.0;" x1="236.5" x2="236.5" y1="110.9609" y2="385.4219"/><line style="stroke: #A80036; stroke-width: 1.0; stroke-dasharray: 5.0,5.0;" x1="396" x2="396" y1="110.9609" y2="385.4219"/><line style="stroke: #A80036; stroke-width: 1.0; stroke-dasharray: 5.0,5.0;" x1="549" x2="549" y1="110.9609" y2="385.4219"/><text fill="#000000" font-family="sans-serif" font-size="14" lengthAdjust="spacingAndGlyphs" textLength="137" x="5" y="107.8848">New-Moderator-Client</text><ellipse cx="76.5" cy="36.3516" fill="#FEFECE" filter="url(#f1bdb4fp3ysjtr)" rx="8" ry="8" style="stroke: #A80036; stroke-width: 2.0;"/><path d="M76.5,44.3516 L76.5,71.3516 M63.5,52.3516 L89.5,52.3516 M76.5,71.3516 L63.5,86.3516 M76.5,71.3516 L89.5,86.3516 " fill="none" filter="url(#f1bdb4fp3ysjtr)" style="stroke: #A80036; stroke-width: 2.0;"/><text fill="#000000" font-family="sans-serif" font-size="14" lengthAdjust="spacingAndGlyphs" textLength="137" x="5" y="398.9551">New-Moderator-Client</text><ellipse cx="76.5" cy="412.0313" fill="#FEFECE" filter="url(#f1bdb4fp3ysjtr)" rx="8" ry="8" style="stroke: #A80036; stroke-width: 2.0;"/><path d="M76.5,420.0313 L76.5,447.0313 M63.5,428.0313 L89.5,428.0313 M76.5,447.0313 L63.5,462.0313 M76.5,447.0313 L89.5,462.0313 " fill="none" filter="url(#f1bdb4fp3ysjtr)" style="stroke: #A80036; stroke-width: 2.0;"/><text fill="#000000" font-family="sans-serif" font-size="14" lengthAdjust="spacingAndGlyphs" textLength="76" x="195.5" y="107.8848">ServerLogic</text><path d="M218.5,57.3516 C218.5,47.3516 236.5,47.3516 236.5,47.3516 C236.5,47.3516 254.5,47.3516 254.5,57.3516 L254.5,83.3516 C254.5,93.3516 236.5,93.3516 236.5,93.3516 C236.5,93.3516 218.5,93.3516 218.5,83.3516 L218.5,57.3516 " fill="#FEFECE" filter="url(#f1bdb4fp3ysjtr)" style="stroke: #000000; stroke-width: 1.5;"/><path d="M218.5,57.3516 C218.5,67.3516 236.5,67.3516 236.5,67.3516 C236.5,67.3516 254.5,67.3516 254.5,57.3516 " fill="none" style="stroke: #000000; stroke-width: 1.5;"/><text fill="#000000" font-family="sans-serif" font-size="14" lengthAdjust="spacingAndGlyphs" textLength="76" x="195.5" y="398.9551">ServerLogic</text><path d="M218.5,412.0313 C218.5,402.0313 236.5,402.0313 236.5,402.0313 C236.5,402.0313 254.5,402.0313 254.5,412.0313 L254.5,438.0313 C254.5,448.0313 236.5,448.0313 236.5,448.0313 C236.5,448.0313 218.5,448.0313 218.5,438.0313 L218.5,412.0313 " fill="#FEFECE" filter="url(#f1bdb4fp3ysjtr)" style="stroke: #000000; stroke-width: 1.5;"/><path d="M218.5,412.0313 C218.5,422.0313 236.5,422.0313 236.5,422.0313 C236.5,422.0313 254.5,422.0313 254.5,412.0313 " fill="none" style="stroke: #000000; stroke-width: 1.5;"/><text fill="#000000" font-family="sans-serif" font-size="14" lengthAdjust="spacingAndGlyphs" textLength="133" x="327" y="107.8848">Old-Moderator-Client</text><ellipse cx="396.5" cy="36.3516" fill="#FEFECE" filter="url(#f1bdb4fp3ysjtr)" rx="8" ry="8" style="stroke: #A80036; stroke-width: 2.0;"/><path d="M396.5,44.3516 L396.5,71.3516 M383.5,52.3516 L409.5,52.3516 M396.5,71.3516 L383.5,86.3516 M396.5,71.3516 L409.5,86.3516 " fill="none" filter="url(#f1bdb4fp3ysjtr)" style="stroke: #A80036; stroke-width: 2.0;"/><text fill="#000000" font-family="sans-serif" font-size="14" lengthAdjust="spacingAndGlyphs" textLength="133" x="327" y="398.9551">Old-Moderator-Client</text><ellipse cx="396.5" cy="412.0313" fill="#FEFECE" filter="url(#f1bdb4fp3ysjtr)" rx="8" ry="8" style="stroke: #A80036; stroke-width: 2.0;"/><path d="M396.5,420.0313 L396.5,447.0313 M383.5,428.0313 L409.5,428.0313 M396.5,447.0313 L383.5,462.0313 M396.5,447.0313 L409.5,462.0313 " fill="none" filter="url(#f1bdb4fp3ysjtr)" style="stroke: #A80036; stroke-width: 2.0;"/><text fill="#000000" font-family="sans-serif" font-size="14" lengthAdjust="spacingAndGlyphs" textLength="140" x="476" y="107.8848">PlayerAudience-Client</text><ellipse cx="549" cy="36.3516" fill="#FEFECE" filter="url(#f1bdb4fp3ysjtr)" rx="8" ry="8" style="stroke: #A80036; stroke-width: 2.0;"/><path d="M549,44.3516 L549,71.3516 M536,52.3516 L562,52.3516 M549,71.3516 L536,86.3516 M549,71.3516 L562,86.3516 " fill="none" filter="url(#f1bdb4fp3ysjtr)" style="stroke: #A80036; stroke-width: 2.0;"/><text fill="#000000" font-family="sans-serif" font-size="14" lengthAdjust="spacingAndGlyphs" textLength="140" x="476" y="398.9551">PlayerAudience-Client</text><ellipse cx="549" cy="412.0313" fill="#FEFECE" filter="url(#f1bdb4fp3ysjtr)" rx="8" ry="8" style="stroke: #A80036; stroke-width: 2.0;"/><path d="M549,420.0313 L549,447.0313 M536,428.0313 L562,428.0313 M549,447.0313 L536,462.0313 M549,447.0313 L562,462.0313 " fill="none" filter="url(#f1bdb4fp3ysjtr)" style="stroke: #A80036; stroke-width: 2.0;"/><rect fill="#FFFFFF" filter="url(#f1bdb4fp3ysjtr)" height="255.4609" style="stroke: #A80036; stroke-width: 1.0;" width="10" x="71.5" y="120.9609"/><rect fill="#FFFFFF" filter="url(#f1bdb4fp3ysjtr)" height="255.4609" style="stroke: #A80036; stroke-width: 1.0;" width="10" x="231.5" y="120.9609"/><rect fill="#FFFFFF" filter="url(#f1bdb4fp3ysjtr)" height="76.7031" style="stroke: #A80036; stroke-width: 1.0;" width="10" x="236.5" y="143.3125"/><rect fill="#FFFFFF" filter="url(#f1bdb4fp3ysjtr)" height="73.7031" style="stroke: #A80036; stroke-width: 1.0;" width="10" x="236.5" y="293.7188"/><rect fill="#FFFFFF" filter="url(#f1bdb4fp3ysjtr)" height="73.7031" style="stroke: #A80036; stroke-width: 1.0;" width="10" x="391.5" y="293.7188"/><rect fill="#FFFFFF" filter="url(#f1bdb4fp3ysjtr)" height="30" style="stroke: #A80036; stroke-width: 1.0;" width="10" x="544" y="190.0156"/><polygon fill="#A80036" points="224.5,139.3125,234.5,143.3125,224.5,147.3125,228.5,143.3125" style="stroke: #A80036; stroke-width: 1.0;"/><line style="stroke: #A80036; stroke-width: 1.0;" x1="81.5" x2="230.5" y1="143.3125" y2="143.3125"/><text fill="#000000" font-family="sans-serif" font-size="13" lengthAdjust="spacingAndGlyphs" textLength="126" x="88.5" y="138.4561">RequestOpenSession</text><polygon fill="#A80036" points="532,186.0156,542,190.0156,532,194.0156,536,190.0156" style="stroke: #A80036; stroke-width: 1.0;"/><line style="stroke: #A80036; stroke-width: 1.0;" x1="246.5" x2="538" y1="190.0156" y2="190.0156"/><text fill="#000000" font-family="sans-serif" font-size="13" lengthAdjust="spacingAndGlyphs" textLength="69" x="253.5" y="168.8076">Notify about</text><text fill="#000000" font-family="sans-serif" font-size="13" lengthAdjust="spacingAndGlyphs" textLength="87" x="253.5" y="185.1592">ending session</text><line style="stroke: #A80036; stroke-width: 1.0;" x1="241.5" x2="283.5" y1="250.3672" y2="250.3672"/><line style="stroke: #A80036; stroke-width: 1.0;" x1="283.5" x2="283.5" y1="250.3672" y2="263.3672"/><line style="stroke: #A80036; stroke-width: 1.0;" x1="242.5" x2="283.5" y1="263.3672" y2="263.3672"/><polygon fill="#A80036" points="252.5,259.3672,242.5,263.3672,252.5,267.3672,248.5,263.3672" style="stroke: #A80036; stroke-width: 1.0;"/><text fill="#000000" font-family="sans-serif" font-size="13" lengthAdjust="spacingAndGlyphs" textLength="58" x="248.5" y="245.5107">Clear logs</text><polygon fill="#A80036" points="379.5,289.7188,389.5,293.7188,379.5,297.7188,383.5,293.7188" style="stroke: #A80036; stroke-width: 1.0;"/><line style="stroke: #A80036; stroke-width: 1.0;" x1="246.5" x2="385.5" y1="293.7188" y2="293.7188"/><text fill="#000000" font-family="sans-serif" font-size="13" lengthAdjust="spacingAndGlyphs" textLength="131" x="253.5" y="288.8623">Error &lt;NewModerator&gt;</text><line style="stroke: #A80036; stroke-width: 1.0;" x1="401.5" x2="443.5" y1="324.0703" y2="324.0703"/><line style="stroke: #A80036; stroke-width: 1.0;" x1="443.5" x2="443.5" y1="324.0703" y2="337.0703"/><line style="stroke: #A80036; stroke-width: 1.0;" x1="402.5" x2="443.5" y1="337.0703" y2="337.0703"/><polygon fill="#A80036" points="412.5,333.0703,402.5,337.0703,412.5,341.0703,408.5,337.0703" style="stroke: #A80036; stroke-width: 1.0;"/><text fill="#000000" font-family="sans-serif" font-size="13" lengthAdjust="spacingAndGlyphs" textLength="99" x="408.5" y="319.2139">Notify about error</text><polygon fill="#A80036" points="92.5,363.4219,82.5,367.4219,92.5,371.4219,88.5,367.4219" style="stroke: #A80036; stroke-width: 1.0;"/><line style="stroke: #A80036; stroke-width: 1.0; stroke-dasharray: 2.0,2.0;" x1="86.5" x2="230.5" y1="367.4219" y2="367.4219"/><text fill="#000000" font-family="sans-serif" font-size="13" lengthAdjust="spacingAndGlyphs" textLength="92" x="98.5" y="362.5654">SessionOpened</text><!--MD5=[1441311a388223dbad94f06a30508adc]
@startuml

box "Network protocol relevance" #LightSteelBlue
actor "New-Moderator-Client" as nm order 1
database "ServerLogic" as s order 2
actor "Old-Moderator-Client" as om order 3
end box
actor "PlayerAudience-Client" as p order 4



activate nm
activate s

nm -> s: RequestOpenSession
activate s
s -> p: Notify about \nending session
activate p
deactivate s
deactivate p
s -> s: Clear logs
s -> om: Error <NewModerator>
activate s
activate om
om -> om: Notify about error
s - -> nm: SessionOpened
deactivate s
deactivate om


@enduml

PlantUML version 1.2020.18(Wed Sep 30 21:40:44 CEST 2020)
(GPL source distribution)
Java Runtime: OpenJDK Runtime Environment
JVM: OpenJDK 64-Bit Server VM
Default Encoding: Cp1252
Language: de
Country: DE
--></g></svg>