<?xml version="1.0" encoding="UTF-8" standalone="no"?><svg xmlns="http://www.w3.org/2000/svg" xmlns:xlink="http://www.w3.org/1999/xlink" contentScriptType="application/ecmascript" contentStyleType="text/css" height="1111px" preserveAspectRatio="none" style="width:877px;height:1111px;" version="1.1" viewBox="0 0 877 1111" width="877px" zoomAndPan="magnify"><defs><filter height="300%" id="fth3xwt7o2scf" width="300%" x="-1" y="-1"><feGaussianBlur result="blurOut" stdDeviation="2.0"/><feColorMatrix in="blurOut" result="blurOut2" type="matrix" values="0 0 0 0 0 0 0 0 0 0 0 0 0 0 0 0 0 0 .4 0"/><feOffset dx="4.0" dy="4.0" in="blurOut2" result="blurOut3"/><feBlend in="SourceGraphic" in2="blurOut3" mode="normal"/></filter></defs><g><!--MD5=[979da56a7f83e2393dc758167ae295d0]
cluster Server--><polygon fill="#FFFFFF" filter="url(#fth3xwt7o2scf)" points="16,6,73,6,80,28.2969,860,28.2969,860,1104,16,1104,16,6" style="stroke: #000000; stroke-width: 1.5;"/><line style="stroke: #000000; stroke-width: 1.5;" x1="16" x2="80" y1="28.2969" y2="28.2969"/><text fill="#000000" font-family="sans-serif" font-size="14" font-weight="bold" lengthAdjust="spacingAndGlyphs" textLength="51" x="20" y="20.9951">Server</text><!--MD5=[6bfcf15cc25972516e1f43cee16dbcb3]
class ss--><rect codeLine="4" fill="#FEFECE" filter="url(#fth3xwt7o2scf)" height="252.875" id="ss" style="stroke: #A80036; stroke-width: 1.5;" width="209" x="364.5" y="312"/><ellipse cx="429.75" cy="328" fill="#ADD1B2" rx="11" ry="11" style="stroke: #A80036; stroke-width: 1.0;"/><path d="M432.0938,323.6719 C431.1563,323.2344 430.5625,323.0938 429.6875,323.0938 C427.0625,323.0938 425.0625,325.1719 425.0625,327.8906 L425.0625,329.0156 C425.0625,331.5938 427.1719,333.4844 430.0625,333.4844 C431.2813,333.4844 432.4375,333.1875 433.1875,332.6406 C433.7656,332.2344 434.0938,331.7813 434.0938,331.3906 C434.0938,330.9375 433.7031,330.5469 433.2344,330.5469 C433.0156,330.5469 432.8125,330.625 432.625,330.8125 C432.1719,331.2969 432.1719,331.2969 431.9844,331.3906 C431.5625,331.6563 430.875,331.7813 430.1094,331.7813 C428.0625,331.7813 426.7656,330.6875 426.7656,328.9844 L426.7656,327.8906 C426.7656,326.1094 428.0156,324.7969 429.75,324.7969 C430.3281,324.7969 430.9375,324.9531 431.4063,325.2031 C431.8906,325.4844 432.0625,325.7031 432.1563,326.1094 C432.2188,326.5156 432.25,326.6406 432.3906,326.7656 C432.5313,326.9063 432.7656,327.0156 432.9844,327.0156 C433.25,327.0156 433.5156,326.875 433.6875,326.6563 C433.7969,326.5 433.8281,326.3125 433.8281,325.8906 L433.8281,324.4688 C433.8281,324.0313 433.8125,323.9063 433.7188,323.75 C433.5625,323.4844 433.2813,323.3438 432.9844,323.3438 C432.6875,323.3438 432.4844,323.4375 432.2656,323.75 L432.0938,323.6719 Z "/><text fill="#000000" font-family="sans-serif" font-size="12" lengthAdjust="spacingAndGlyphs" textLength="70" x="450.25" y="332.1543">ServerShell</text><line style="stroke: #A80036; stroke-width: 1.5;" x1="365.5" x2="572.5" y1="344" y2="344"/><text fill="#000000" font-family="sans-serif" font-size="11" lengthAdjust="spacingAndGlyphs" textLength="94" x="370.5" y="358.2104">+Logger: Logger</text><text fill="#000000" font-family="sans-serif" font-size="11" lengthAdjust="spacingAndGlyphs" textLength="52" x="370.5" y="371.0151">+port: int</text><text fill="#000000" font-family="sans-serif" font-size="11" lengthAdjust="spacingAndGlyphs" textLength="109" x="370.5" y="383.8198">+runShell: boolean</text><text fill="#000000" font-family="sans-serif" font-size="11" lengthAdjust="spacingAndGlyphs" textLength="150" x="370.5" y="396.6245">+serverShell: ServerShell</text><text fill="#000000" font-family="sans-serif" font-size="11" lengthAdjust="spacingAndGlyphs" textLength="77" x="370.5" y="409.4292">+capacity: int</text><text fill="#000000" font-family="sans-serif" font-size="11" lengthAdjust="spacingAndGlyphs" textLength="197" x="370.5" y="422.2339">+bufferedReader: BufferedReader</text><line style="stroke: #A80036; stroke-width: 1.5;" x1="365.5" x2="572.5" y1="428.8281" y2="428.8281"/><text fill="#000000" font-family="sans-serif" font-size="11" lengthAdjust="spacingAndGlyphs" textLength="85" x="370.5" y="443.0386">+ServerShell()</text><text fill="#000000" font-family="sans-serif" font-size="11" lengthAdjust="spacingAndGlyphs" textLength="102" x="370.5" y="455.8433">+startShell(): void</text><text fill="#000000" font-family="sans-serif" font-size="11" lengthAdjust="spacingAndGlyphs" textLength="101" x="370.5" y="468.6479">+stopShell(): void</text><text fill="#000000" font-family="sans-serif" font-size="11" lengthAdjust="spacingAndGlyphs" textLength="171" x="370.5" y="481.4526">+parseCommand(String): void</text><text fill="#000000" font-family="sans-serif" font-size="11" lengthAdjust="spacingAndGlyphs" textLength="103" x="370.5" y="494.2573">+showHelp(): void</text><text fill="#000000" font-family="sans-serif" font-size="11" lengthAdjust="spacingAndGlyphs" textLength="103" x="370.5" y="507.062">+configPort(): void</text><text fill="#000000" font-family="sans-serif" font-size="11" lengthAdjust="spacingAndGlyphs" textLength="131" x="370.5" y="519.8667">+configCapacity(): void</text><text fill="#000000" font-family="sans-serif" font-size="11" lengthAdjust="spacingAndGlyphs" textLength="112" x="370.5" y="532.6714">+startServer(): void</text><text fill="#000000" font-family="sans-serif" font-size="11" lengthAdjust="spacingAndGlyphs" textLength="111" x="370.5" y="545.4761">+stopServer(): void</text><text fill="#000000" font-family="sans-serif" font-size="11" lengthAdjust="spacingAndGlyphs" textLength="117" x="370.5" y="558.2808">+main(String[]): void</text><!--MD5=[cdde92398a52d7db504911c0fce5207a]
class ws--><rect codeLine="23" fill="#FEFECE" filter="url(#fth3xwt7o2scf)" height="163.2422" id="ws" style="stroke: #A80036; stroke-width: 1.5;" width="539" x="32.5" y="899.5"/><ellipse cx="262.75" cy="915.5" fill="#ADD1B2" rx="11" ry="11" style="stroke: #A80036; stroke-width: 1.0;"/><path d="M265.0938,911.1719 C264.1563,910.7344 263.5625,910.5938 262.6875,910.5938 C260.0625,910.5938 258.0625,912.6719 258.0625,915.3906 L258.0625,916.5156 C258.0625,919.0938 260.1719,920.9844 263.0625,920.9844 C264.2813,920.9844 265.4375,920.6875 266.1875,920.1406 C266.7656,919.7344 267.0938,919.2813 267.0938,918.8906 C267.0938,918.4375 266.7031,918.0469 266.2344,918.0469 C266.0156,918.0469 265.8125,918.125 265.625,918.3125 C265.1719,918.7969 265.1719,918.7969 264.9844,918.8906 C264.5625,919.1563 263.875,919.2813 263.1094,919.2813 C261.0625,919.2813 259.7656,918.1875 259.7656,916.4844 L259.7656,915.3906 C259.7656,913.6094 261.0156,912.2969 262.75,912.2969 C263.3281,912.2969 263.9375,912.4531 264.4063,912.7031 C264.8906,912.9844 265.0625,913.2031 265.1563,913.6094 C265.2188,914.0156 265.25,914.1406 265.3906,914.2656 C265.5313,914.4063 265.7656,914.5156 265.9844,914.5156 C266.25,914.5156 266.5156,914.375 266.6875,914.1563 C266.7969,914 266.8281,913.8125 266.8281,913.3906 L266.8281,911.9688 C266.8281,911.5313 266.8125,911.4063 266.7188,911.25 C266.5625,910.9844 266.2813,910.8438 265.9844,910.8438 C265.6875,910.8438 265.4844,910.9375 265.2656,911.25 L265.0938,911.1719 Z "/><text fill="#000000" font-family="sans-serif" font-size="12" lengthAdjust="spacingAndGlyphs" textLength="70" x="283.25" y="919.6543">WebSocket</text><line style="stroke: #A80036; stroke-width: 1.5;" x1="33.5" x2="570.5" y1="931.5" y2="931.5"/><text fill="#000000" font-family="sans-serif" font-size="11" lengthAdjust="spacingAndGlyphs" textLength="77" x="38.5" y="945.7104">+CloseStatus</text><text fill="#000000" font-family="sans-serif" font-size="11" lengthAdjust="spacingAndGlyphs" textLength="141" x="38.5" y="958.5151">+CloseStatusDescription</text><text fill="#000000" font-family="sans-serif" font-size="11" lengthAdjust="spacingAndGlyphs" textLength="153" x="38.5" y="971.3198">+DefaultKeepAliveInterval</text><text fill="#000000" font-family="sans-serif" font-size="11" lengthAdjust="spacingAndGlyphs" textLength="40" x="38.5" y="984.1245">+State</text><text fill="#000000" font-family="sans-serif" font-size="11" lengthAdjust="spacingAndGlyphs" textLength="75" x="38.5" y="996.9292">+SupProtocol</text><line style="stroke: #A80036; stroke-width: 1.5;" x1="33.5" x2="570.5" y1="1003.5234" y2="1003.5234"/><text fill="#000000" font-family="sans-serif" font-size="11" lengthAdjust="spacingAndGlyphs" textLength="47" x="38.5" y="1017.7339">+Abort()</text><text fill="#000000" font-family="sans-serif" font-size="11" lengthAdjust="spacingAndGlyphs" textLength="187" x="38.5" y="1030.5386">+CreateClientBuffer(Int32, Int32)</text><text fill="#000000" font-family="sans-serif" font-size="11" lengthAdjust="spacingAndGlyphs" textLength="305" x="38.5" y="1043.3433">+ReceiveAsync(Memory&lt;Byte&gt;, Cancellation Token)</text><text fill="#000000" font-family="sans-serif" font-size="11" lengthAdjust="spacingAndGlyphs" textLength="527" x="38.5" y="1056.1479">+SendAsync(ArraySegment&lt;Byte&gt;, WebSocketMessageType, Boolean, CancellationToken)</text><!--MD5=[380687b934d22663c3818bb6fe2c579f]
class msl--><rect codeLine="36" fill="#FEFECE" filter="url(#fth3xwt7o2scf)" height="188.8516" id="msl" style="stroke: #A80036; stroke-width: 1.5;" width="282" x="381" y="625"/><ellipse cx="467.75" cy="641" fill="#ADD1B2" rx="11" ry="11" style="stroke: #A80036; stroke-width: 1.0;"/><path d="M470.0938,636.6719 C469.1563,636.2344 468.5625,636.0938 467.6875,636.0938 C465.0625,636.0938 463.0625,638.1719 463.0625,640.8906 L463.0625,642.0156 C463.0625,644.5938 465.1719,646.4844 468.0625,646.4844 C469.2813,646.4844 470.4375,646.1875 471.1875,645.6406 C471.7656,645.2344 472.0938,644.7813 472.0938,644.3906 C472.0938,643.9375 471.7031,643.5469 471.2344,643.5469 C471.0156,643.5469 470.8125,643.625 470.625,643.8125 C470.1719,644.2969 470.1719,644.2969 469.9844,644.3906 C469.5625,644.6563 468.875,644.7813 468.1094,644.7813 C466.0625,644.7813 464.7656,643.6875 464.7656,641.9844 L464.7656,640.8906 C464.7656,639.1094 466.0156,637.7969 467.75,637.7969 C468.3281,637.7969 468.9375,637.9531 469.4063,638.2031 C469.8906,638.4844 470.0625,638.7031 470.1563,639.1094 C470.2188,639.5156 470.25,639.6406 470.3906,639.7656 C470.5313,639.9063 470.7656,640.0156 470.9844,640.0156 C471.25,640.0156 471.5156,639.875 471.6875,639.6563 C471.7969,639.5 471.8281,639.3125 471.8281,638.8906 L471.8281,637.4688 C471.8281,637.0313 471.8125,636.9063 471.7188,636.75 C471.5625,636.4844 471.2813,636.3438 470.9844,636.3438 C470.6875,636.3438 470.4844,636.4375 470.2656,636.75 L470.0938,636.6719 Z "/><text fill="#000000" font-family="sans-serif" font-size="12" lengthAdjust="spacingAndGlyphs" textLength="100" x="488.25" y="645.1543">MainServerLogic</text><line style="stroke: #A80036; stroke-width: 1.5;" x1="382" x2="662" y1="657" y2="657"/><text fill="#000000" font-family="sans-serif" font-size="11" lengthAdjust="spacingAndGlyphs" textLength="103" x="387" y="671.2104">+moderator: UUID</text><text fill="#000000" font-family="sans-serif" font-size="11" lengthAdjust="spacingAndGlyphs" textLength="108" x="387" y="684.0151">output: WebSocket</text><text fill="#000000" font-family="sans-serif" font-size="11" lengthAdjust="spacingAndGlyphs" textLength="158" x="387" y="696.8198">+moderatorSessionId: UUID</text><text fill="#000000" font-family="sans-serif" font-size="11" lengthAdjust="spacingAndGlyphs" textLength="201" x="387" y="709.6245">+playerAudience: ArrayList&lt;UUID&gt;</text><text fill="#000000" font-family="sans-serif" font-size="11" lengthAdjust="spacingAndGlyphs" textLength="256" x="387" y="722.4292">+playerAudienceSessionId: ArrayList&lt;UUID&gt;</text><text fill="#000000" font-family="sans-serif" font-size="11" lengthAdjust="spacingAndGlyphs" textLength="157" x="387" y="735.2339">+moderator: ClientManager</text><text fill="#000000" font-family="sans-serif" font-size="11" lengthAdjust="spacingAndGlyphs" textLength="270" x="387" y="748.0386">+playerAudienceClientManager: ClientManager</text><text fill="#000000" font-family="sans-serif" font-size="11" lengthAdjust="spacingAndGlyphs" textLength="94" x="387" y="760.8433">+Logger: Logger</text><line style="stroke: #A80036; stroke-width: 1.5;" x1="382" x2="662" y1="767.4375" y2="767.4375"/><text fill="#000000" font-family="sans-serif" font-size="11" lengthAdjust="spacingAndGlyphs" textLength="220" x="387" y="781.6479">MainServerLogic(capacity: int, port: int)</text><text fill="#000000" font-family="sans-serif" font-size="11" lengthAdjust="spacingAndGlyphs" textLength="176" x="387" y="794.4526">+onFalseMessage(String): void</text><text fill="#000000" font-family="sans-serif" font-size="11" lengthAdjust="spacingAndGlyphs" textLength="182" x="387" y="807.2573">+onVotingMessage(String): void</text><!--MD5=[952aa88079c2ad50e6f0d17205c717c0]
class cm--><rect codeLine="51" fill="#FEFECE" filter="url(#fth3xwt7o2scf)" height="214.4609" id="cm" style="stroke: #A80036; stroke-width: 1.5;" width="237" x="606.5" y="874"/><ellipse cx="678.25" cy="890" fill="#ADD1B2" rx="11" ry="11" style="stroke: #A80036; stroke-width: 1.0;"/><path d="M680.5938,885.6719 C679.6563,885.2344 679.0625,885.0938 678.1875,885.0938 C675.5625,885.0938 673.5625,887.1719 673.5625,889.8906 L673.5625,891.0156 C673.5625,893.5938 675.6719,895.4844 678.5625,895.4844 C679.7813,895.4844 680.9375,895.1875 681.6875,894.6406 C682.2656,894.2344 682.5938,893.7813 682.5938,893.3906 C682.5938,892.9375 682.2031,892.5469 681.7344,892.5469 C681.5156,892.5469 681.3125,892.625 681.125,892.8125 C680.6719,893.2969 680.6719,893.2969 680.4844,893.3906 C680.0625,893.6563 679.375,893.7813 678.6094,893.7813 C676.5625,893.7813 675.2656,892.6875 675.2656,890.9844 L675.2656,889.8906 C675.2656,888.1094 676.5156,886.7969 678.25,886.7969 C678.8281,886.7969 679.4375,886.9531 679.9063,887.2031 C680.3906,887.4844 680.5625,887.7031 680.6563,888.1094 C680.7188,888.5156 680.75,888.6406 680.8906,888.7656 C681.0313,888.9063 681.2656,889.0156 681.4844,889.0156 C681.75,889.0156 682.0156,888.875 682.1875,888.6563 C682.2969,888.5 682.3281,888.3125 682.3281,887.8906 L682.3281,886.4688 C682.3281,886.0313 682.3125,885.9063 682.2188,885.75 C682.0625,885.4844 681.7813,885.3438 681.4844,885.3438 C681.1875,885.3438 680.9844,885.4375 680.7656,885.75 L680.5938,885.6719 Z "/><text fill="#000000" font-family="sans-serif" font-size="12" lengthAdjust="spacingAndGlyphs" textLength="85" x="698.75" y="894.1543">ClientManager</text><line style="stroke: #A80036; stroke-width: 1.5;" x1="607.5" x2="842.5" y1="906" y2="906"/><text fill="#000000" font-family="sans-serif" font-size="11" lengthAdjust="spacingAndGlyphs" textLength="106" x="612.5" y="920.2104">+client: WebClient</text><text fill="#000000" font-family="sans-serif" font-size="11" lengthAdjust="spacingAndGlyphs" textLength="104" x="612.5" y="933.0151">+session: Session</text><text fill="#000000" font-family="sans-serif" font-size="11" lengthAdjust="spacingAndGlyphs" textLength="72" x="612.5" y="945.8198">+gson: Gson</text><text fill="#000000" font-family="sans-serif" font-size="11" lengthAdjust="spacingAndGlyphs" textLength="156" x="612.5" y="958.6245">+sessionInformation: String</text><text fill="#000000" font-family="sans-serif" font-size="11" lengthAdjust="spacingAndGlyphs" textLength="94" x="612.5" y="971.4292">+Logger: Logger</text><line style="stroke: #A80036; stroke-width: 1.5;" x1="607.5" x2="842.5" y1="978.0234" y2="978.0234"/><text fill="#000000" font-family="sans-serif" font-size="11" lengthAdjust="spacingAndGlyphs" textLength="225" x="612.5" y="992.2339">+ClientManager(session: Session): void</text><text fill="#000000" font-family="sans-serif" font-size="11" lengthAdjust="spacingAndGlyphs" textLength="109" x="612.5" y="1005.0386">+disconnect(): void</text><text fill="#000000" font-family="sans-serif" font-size="11" lengthAdjust="spacingAndGlyphs" textLength="125" x="612.5" y="1017.8433">+onDisconnect(): void</text><text fill="#000000" font-family="sans-serif" font-size="11" lengthAdjust="spacingAndGlyphs" textLength="125" x="612.5" y="1030.6479">+recieve(String): void</text><text fill="#000000" font-family="sans-serif" font-size="11" lengthAdjust="spacingAndGlyphs" textLength="142" x="612.5" y="1043.4526">+checkJSON(String): void</text><text fill="#000000" font-family="sans-serif" font-size="11" lengthAdjust="spacingAndGlyphs" textLength="160" x="612.5" y="1056.2573">+sendMessage(String): void</text><text fill="#000000" font-family="sans-serif" font-size="11" lengthAdjust="spacingAndGlyphs" textLength="109" x="612.5" y="1069.062">+send(String): void</text><text fill="#000000" font-family="sans-serif" font-size="11" lengthAdjust="spacingAndGlyphs" textLength="125" x="612.5" y="1081.8667">+recieve(String): void</text><!--MD5=[e5ed2fcbff96bd03a55f8cf01186b818]
class sl--><rect codeLine="67" fill="#FEFECE" filter="url(#fth3xwt7o2scf)" height="150.4375" id="sl" style="stroke: #A80036; stroke-width: 1.5;" width="208" x="436" y="41"/><ellipse cx="493.75" cy="57" fill="#ADD1B2" rx="11" ry="11" style="stroke: #A80036; stroke-width: 1.0;"/><path d="M496.0938,52.6719 C495.1563,52.2344 494.5625,52.0938 493.6875,52.0938 C491.0625,52.0938 489.0625,54.1719 489.0625,56.8906 L489.0625,58.0156 C489.0625,60.5938 491.1719,62.4844 494.0625,62.4844 C495.2813,62.4844 496.4375,62.1875 497.1875,61.6406 C497.7656,61.2344 498.0938,60.7813 498.0938,60.3906 C498.0938,59.9375 497.7031,59.5469 497.2344,59.5469 C497.0156,59.5469 496.8125,59.625 496.625,59.8125 C496.1719,60.2969 496.1719,60.2969 495.9844,60.3906 C495.5625,60.6563 494.875,60.7813 494.1094,60.7813 C492.0625,60.7813 490.7656,59.6875 490.7656,57.9844 L490.7656,56.8906 C490.7656,55.1094 492.0156,53.7969 493.75,53.7969 C494.3281,53.7969 494.9375,53.9531 495.4063,54.2031 C495.8906,54.4844 496.0625,54.7031 496.1563,55.1094 C496.2188,55.5156 496.25,55.6406 496.3906,55.7656 C496.5313,55.9063 496.7656,56.0156 496.9844,56.0156 C497.25,56.0156 497.5156,55.875 497.6875,55.6563 C497.7969,55.5 497.8281,55.3125 497.8281,54.8906 L497.8281,53.4688 C497.8281,53.0313 497.8125,52.9063 497.7188,52.75 C497.5625,52.4844 497.2813,52.3438 496.9844,52.3438 C496.6875,52.3438 496.4844,52.4375 496.2656,52.75 L496.0938,52.6719 Z "/><text fill="#000000" font-family="sans-serif" font-size="12" lengthAdjust="spacingAndGlyphs" textLength="84" x="514.25" y="61.1543">ServerLogger</text><line style="stroke: #A80036; stroke-width: 1.5;" x1="437" x2="643" y1="73" y2="73"/><text fill="#000000" font-family="sans-serif" font-size="11" lengthAdjust="spacingAndGlyphs" textLength="130" x="442" y="87.2104">+GlobalLogger: Logger</text><text fill="#000000" font-family="sans-serif" font-size="11" lengthAdjust="spacingAndGlyphs" textLength="117" x="442" y="100.0151">+logFile: FileHandler</text><text fill="#000000" font-family="sans-serif" font-size="11" lengthAdjust="spacingAndGlyphs" textLength="106" x="442" y="112.8198">+isSetup: Boolean</text><text fill="#000000" font-family="sans-serif" font-size="11" lengthAdjust="spacingAndGlyphs" textLength="148" x="442" y="125.6245">+consoleHandler: Handler</text><line style="stroke: #A80036; stroke-width: 1.5;" x1="437" x2="643" y1="132.2188" y2="132.2188"/><text fill="#000000" font-family="sans-serif" font-size="11" lengthAdjust="spacingAndGlyphs" textLength="80" x="442" y="146.4292">+setup(): void</text><text fill="#000000" font-family="sans-serif" font-size="11" lengthAdjust="spacingAndGlyphs" textLength="152" x="442" y="159.2339">+addHandler(Logger): void</text><text fill="#000000" font-family="sans-serif" font-size="11" lengthAdjust="spacingAndGlyphs" textLength="130" x="442" y="172.0386">+setLevel(Level): void</text><text fill="#000000" font-family="sans-serif" font-size="11" lengthAdjust="spacingAndGlyphs" textLength="196" x="442" y="184.8433">+setConsoleOutput(boolean): void</text><!--MD5=[a0d3bbc68f741b6e52f50e6f2273a72d]
link ss to msl--><path codeLine="78" d="M492.864,565.125 C496.683,585.229 500.576,605.722 504.221,624.91 " fill="none" id="ss-msl" style="stroke: #A80036; stroke-width: 1.0;"/><!--MD5=[37b6ed35d464f726c2c9b2ceb8215c40]
link msl to ws--><path codeLine="79" d="M442.575,814.185 C418.944,842.059 393.268,872.346 370.403,899.315 " fill="none" id="msl-ws" style="stroke: #A80036; stroke-width: 1.0;"/><!--MD5=[7d06e1ba490a93264d4a8b472a43ae41]
link msl to cm--><path codeLine="80" d="M595.288,814.185 C610.392,833.494 626.402,853.96 641.828,873.679 " fill="none" id="msl-cm" style="stroke: #A80036; stroke-width: 1.0;"/><!--MD5=[a5942343fc64a8361275d61bf78cabe0]
link sl to msl--><path codeLine="81" d="M564.16,191.123 C574.676,227.172 585.778,271.393 591,312 C605.343,423.526 614.575,455.055 591,565 C586.712,584.998 579.61,605.536 571.554,624.825 " fill="none" id="sl-msl" style="stroke: #A80036; stroke-width: 1.0; stroke-dasharray: 7.0,7.0;"/><!--MD5=[bc2afab5e43e20c32a047fab762a89ff]
link sl to ws--><path codeLine="82" d="M441.263,191.064 C405.111,223.853 367.957,265.541 347,312 C258.641,507.883 274.433,769.225 290.029,899.323 " fill="none" id="sl-ws" style="stroke: #A80036; stroke-width: 1.0; stroke-dasharray: 7.0,7.0;"/><!--MD5=[671dab341200759546ed8586cdbf8a87]
link sl to cm--><path codeLine="83" d="M568.06,191.128 C575.141,210.527 582.557,231.476 589,251 C597.858,277.843 599.745,284.68 607,312 C643.686,450.158 655.727,484.306 681,625 C695.933,708.13 707.418,803.125 714.903,873.917 " fill="none" id="sl-cm" style="stroke: #A80036; stroke-width: 1.0; stroke-dasharray: 7.0,7.0;"/><!--MD5=[ce7bcfb77770f94a81831b8f23590dae]
link sl to ss--><path codeLine="84" d="M523.533,191.335 C515.606,227.117 505.882,271.013 496.851,311.779 " fill="none" id="sl-ss" style="stroke: #A80036; stroke-width: 1.0; stroke-dasharray: 7.0,7.0;"/><!--MD5=[e3c98a4ce6be1fd93fa5120d7e3014a1]
@startuml
skinparam classAttributeIconSize 0

package "Server" {
  class "ServerShell" as ss {
    {field} +Logger: Logger
    {field} +port: int
    {field} +runShell: boolean
    {field} +serverShell: ServerShell
    {field} +capacity: int
    {field} +bufferedReader: BufferedReader
    {method} +ServerShell()
    {method} +startShell(): void
    {method} +stopShell(): void
    {method} +parseCommand(String): void
    {method} +showHelp(): void
    {method} +configPort(): void
    {method} +configCapacity(): void
    {method} +startServer(): void
    {method} +stopServer(): void
    {method} +main(String[]): void
  }

  class "WebSocket" as ws {
    {field} +CloseStatus
    {field} +CloseStatusDescription
    {field} +DefaultKeepAliveInterval
    {field} +State
    {field} +SupProtocol
    {method} +Abort()
    {method} +CreateClientBuffer(Int32, Int32)
    {method} +ReceiveAsync(Memory<Byte>, Cancellation Token)
    {method} +SendAsync(ArraySegment<Byte>, WebSocketMessageType, Boolean, CancellationToken)
  }


  class "MainServerLogic" as msl {
    {field} +moderator: UUID
    {field} output: WebSocket
    {field} +moderatorSessionId: UUID
    {field} +playerAudience: ArrayList<UUID>
    {field} +playerAudienceSessionId: ArrayList<UUID>
    {field} +moderator: ClientManager
    {field} +playerAudienceClientManager: ClientManager
    {field} +Logger: Logger
    {method} MainServerLogic(capacity: int, port: int)
    {method} +onFalseMessage(String): void
    {method} +onVotingMessage(String): void

  }

  class "ClientManager" as cm {
    {field} +client: WebClient
    {field} +session: Session
    {field} +gson: Gson
    {field} +sessionInformation: String
    {field} +Logger: Logger
    {method} +ClientManager(session: Session): void
    {method} +disconnect(): void
    {method} +onDisconnect(): void
    {method} +recieve(String): void
    {method} +checkJSON(String): void
    {method} +sendMessage(String): void
    {method} +send(String): void
    {method} +recieve(String): void
  }

  class "ServerLogger" as sl {
    {field} +GlobalLogger: Logger
    {field} +logFile: FileHandler
    {field} +isSetup: Boolean
    {field} +consoleHandler: Handler
    {method} +setup(): void
    {method} +addHandler(Logger): void
    {method} +setLevel(Level): void
    {method} +setConsoleOutput(boolean): void
  }
}
ss - - msl
msl - - ws
msl - - cm
sl ... msl
sl ... ws
sl ... cm
sl ... ss
@enduml

PlantUML version 1.2020.20beta1(Unknown compile time)
(GPL source distribution)
Java Runtime: Java(TM) SE Runtime Environment
JVM: Java HotSpot(TM) 64-Bit Server VM
Default Encoding: UTF-8
Language: en
Country: US
--></g></svg>