<?xml version="1.0" encoding="UTF-8" standalone="no"?><svg xmlns="http://www.w3.org/2000/svg" xmlns:xlink="http://www.w3.org/1999/xlink" contentScriptType="application/ecmascript" contentStyleType="text/css" height="1111px" preserveAspectRatio="none" style="width:570px;height:1111px;" version="1.1" viewBox="0 0 570 1111" width="570px" zoomAndPan="magnify"><defs><filter height="300%" id="f1byp4ws6bp7yf" width="300%" x="-1" y="-1"><feGaussianBlur result="blurOut" stdDeviation="2.0"/><feColorMatrix in="blurOut" result="blurOut2" type="matrix" values="0 0 0 0 0 0 0 0 0 0 0 0 0 0 0 0 0 0 .4 0"/><feOffset dx="4.0" dy="4.0" in="blurOut2" result="blurOut3"/><feBlend in="SourceGraphic" in2="blurOut3" mode="normal"/></filter></defs><g><!--MD5=[979da56a7f83e2393dc758167ae295d0]
cluster Server--><polygon fill="#FFFFFF" filter="url(#f1byp4ws6bp7yf)" points="16,6,73,6,80,28.2969,553,28.2969,553,1104,16,1104,16,6" style="stroke: #000000; stroke-width: 1.5;"/><line style="stroke: #000000; stroke-width: 1.5;" x1="16" x2="80" y1="28.2969" y2="28.2969"/><text fill="#000000" font-family="sans-serif" font-size="14" font-weight="bold" lengthAdjust="spacingAndGlyphs" textLength="51" x="20" y="20.9951">Server</text><!--MD5=[6bfcf15cc25972516e1f43cee16dbcb3]
class ss--><rect codeLine="4" fill="#FEFECE" filter="url(#f1byp4ws6bp7yf)" height="252.875" id="ss" style="stroke: #A80036; stroke-width: 1.5;" width="209" x="159.5" y="312"/><ellipse cx="224.75" cy="328" fill="#ADD1B2" rx="11" ry="11" style="stroke: #A80036; stroke-width: 1.0;"/><path d="M227.0938,323.6719 C226.1563,323.2344 225.5625,323.0938 224.6875,323.0938 C222.0625,323.0938 220.0625,325.1719 220.0625,327.8906 L220.0625,329.0156 C220.0625,331.5938 222.1719,333.4844 225.0625,333.4844 C226.2813,333.4844 227.4375,333.1875 228.1875,332.6406 C228.7656,332.2344 229.0938,331.7813 229.0938,331.3906 C229.0938,330.9375 228.7031,330.5469 228.2344,330.5469 C228.0156,330.5469 227.8125,330.625 227.625,330.8125 C227.1719,331.2969 227.1719,331.2969 226.9844,331.3906 C226.5625,331.6563 225.875,331.7813 225.1094,331.7813 C223.0625,331.7813 221.7656,330.6875 221.7656,328.9844 L221.7656,327.8906 C221.7656,326.1094 223.0156,324.7969 224.75,324.7969 C225.3281,324.7969 225.9375,324.9531 226.4063,325.2031 C226.8906,325.4844 227.0625,325.7031 227.1563,326.1094 C227.2188,326.5156 227.25,326.6406 227.3906,326.7656 C227.5313,326.9063 227.7656,327.0156 227.9844,327.0156 C228.25,327.0156 228.5156,326.875 228.6875,326.6563 C228.7969,326.5 228.8281,326.3125 228.8281,325.8906 L228.8281,324.4688 C228.8281,324.0313 228.8125,323.9063 228.7188,323.75 C228.5625,323.4844 228.2813,323.3438 227.9844,323.3438 C227.6875,323.3438 227.4844,323.4375 227.2656,323.75 L227.0938,323.6719 Z "/><text fill="#000000" font-family="sans-serif" font-size="12" lengthAdjust="spacingAndGlyphs" textLength="70" x="245.25" y="332.1543">ServerShell</text><line style="stroke: #A80036; stroke-width: 1.5;" x1="160.5" x2="367.5" y1="344" y2="344"/><text fill="#000000" font-family="sans-serif" font-size="11" lengthAdjust="spacingAndGlyphs" textLength="94" x="165.5" y="358.2104">+Logger: Logger</text><text fill="#000000" font-family="sans-serif" font-size="11" lengthAdjust="spacingAndGlyphs" textLength="52" x="165.5" y="371.0151">+port: int</text><text fill="#000000" font-family="sans-serif" font-size="11" lengthAdjust="spacingAndGlyphs" textLength="109" x="165.5" y="383.8198">+runShell: boolean</text><text fill="#000000" font-family="sans-serif" font-size="11" lengthAdjust="spacingAndGlyphs" textLength="150" x="165.5" y="396.6245">+serverShell: ServerShell</text><text fill="#000000" font-family="sans-serif" font-size="11" lengthAdjust="spacingAndGlyphs" textLength="77" x="165.5" y="409.4292">+capacity: int</text><text fill="#000000" font-family="sans-serif" font-size="11" lengthAdjust="spacingAndGlyphs" textLength="197" x="165.5" y="422.2339">+bufferedReader: BufferedReader</text><line style="stroke: #A80036; stroke-width: 1.5;" x1="160.5" x2="367.5" y1="428.8281" y2="428.8281"/><text fill="#000000" font-family="sans-serif" font-size="11" lengthAdjust="spacingAndGlyphs" textLength="85" x="165.5" y="443.0386">+ServerShell()</text><text fill="#000000" font-family="sans-serif" font-size="11" lengthAdjust="spacingAndGlyphs" textLength="102" x="165.5" y="455.8433">+startShell(): void</text><text fill="#000000" font-family="sans-serif" font-size="11" lengthAdjust="spacingAndGlyphs" textLength="101" x="165.5" y="468.6479">+stopShell(): void</text><text fill="#000000" font-family="sans-serif" font-size="11" lengthAdjust="spacingAndGlyphs" textLength="171" x="165.5" y="481.4526">+parseCommand(String): void</text><text fill="#000000" font-family="sans-serif" font-size="11" lengthAdjust="spacingAndGlyphs" textLength="103" x="165.5" y="494.2573">+showHelp(): void</text><text fill="#000000" font-family="sans-serif" font-size="11" lengthAdjust="spacingAndGlyphs" textLength="103" x="165.5" y="507.062">+configPort(): void</text><text fill="#000000" font-family="sans-serif" font-size="11" lengthAdjust="spacingAndGlyphs" textLength="131" x="165.5" y="519.8667">+configCapacity(): void</text><text fill="#000000" font-family="sans-serif" font-size="11" lengthAdjust="spacingAndGlyphs" textLength="112" x="165.5" y="532.6714">+startServer(): void</text><text fill="#000000" font-family="sans-serif" font-size="11" lengthAdjust="spacingAndGlyphs" textLength="111" x="165.5" y="545.4761">+stopServer(): void</text><text fill="#000000" font-family="sans-serif" font-size="11" lengthAdjust="spacingAndGlyphs" textLength="117" x="165.5" y="558.2808">+main(String[]): void</text><!--MD5=[cdde92398a52d7db504911c0fce5207a]
class ws--><rect codeLine="22" fill="#FEFECE" filter="url(#f1byp4ws6bp7yf)" height="112.0234" id="ws" style="stroke: #A80036; stroke-width: 1.5;" width="232" x="32" y="925"/><ellipse cx="108.75" cy="941" fill="#ADD1B2" rx="11" ry="11" style="stroke: #A80036; stroke-width: 1.0;"/><path d="M111.0938,936.6719 C110.1563,936.2344 109.5625,936.0938 108.6875,936.0938 C106.0625,936.0938 104.0625,938.1719 104.0625,940.8906 L104.0625,942.0156 C104.0625,944.5938 106.1719,946.4844 109.0625,946.4844 C110.2813,946.4844 111.4375,946.1875 112.1875,945.6406 C112.7656,945.2344 113.0938,944.7813 113.0938,944.3906 C113.0938,943.9375 112.7031,943.5469 112.2344,943.5469 C112.0156,943.5469 111.8125,943.625 111.625,943.8125 C111.1719,944.2969 111.1719,944.2969 110.9844,944.3906 C110.5625,944.6563 109.875,944.7813 109.1094,944.7813 C107.0625,944.7813 105.7656,943.6875 105.7656,941.9844 L105.7656,940.8906 C105.7656,939.1094 107.0156,937.7969 108.75,937.7969 C109.3281,937.7969 109.9375,937.9531 110.4063,938.2031 C110.8906,938.4844 111.0625,938.7031 111.1563,939.1094 C111.2188,939.5156 111.25,939.6406 111.3906,939.7656 C111.5313,939.9063 111.7656,940.0156 111.9844,940.0156 C112.25,940.0156 112.5156,939.875 112.6875,939.6563 C112.7969,939.5 112.8281,939.3125 112.8281,938.8906 L112.8281,937.4688 C112.8281,937.0313 112.8125,936.9063 112.7188,936.75 C112.5625,936.4844 112.2813,936.3438 111.9844,936.3438 C111.6875,936.3438 111.4844,936.4375 111.2656,936.75 L111.0938,936.6719 Z "/><text fill="#000000" font-family="sans-serif" font-size="12" lengthAdjust="spacingAndGlyphs" textLength="70" x="129.25" y="945.1543">WebSocket</text><line style="stroke: #A80036; stroke-width: 1.5;" x1="33" x2="263" y1="957" y2="957"/><text fill="#000000" font-family="sans-serif" font-size="11" lengthAdjust="spacingAndGlyphs" textLength="202" x="38" y="971.2104">+clients: ArrayList&lt;ClientManager&gt;</text><text fill="#000000" font-family="sans-serif" font-size="11" lengthAdjust="spacingAndGlyphs" textLength="94" x="38" y="984.0151">+Logger: Logger</text><line style="stroke: #A80036; stroke-width: 1.5;" x1="33" x2="263" y1="990.6094" y2="990.6094"/><text fill="#000000" font-family="sans-serif" font-size="11" lengthAdjust="spacingAndGlyphs" textLength="138" x="38" y="1004.8198">+onOpen(Session): void</text><text fill="#000000" font-family="sans-serif" font-size="11" lengthAdjust="spacingAndGlyphs" textLength="198" x="38" y="1017.6245">+onMessage(String, Session): void</text><text fill="#000000" font-family="sans-serif" font-size="11" lengthAdjust="spacingAndGlyphs" textLength="220" x="38" y="1030.4292">+onClose(Session, CloseReason): void</text><!--MD5=[380687b934d22663c3818bb6fe2c579f]
class msl--><rect codeLine="31" fill="#FEFECE" filter="url(#f1byp4ws6bp7yf)" height="188.8516" id="msl" style="stroke: #A80036; stroke-width: 1.5;" width="282" x="142" y="625"/><ellipse cx="228.75" cy="641" fill="#ADD1B2" rx="11" ry="11" style="stroke: #A80036; stroke-width: 1.0;"/><path d="M231.0938,636.6719 C230.1563,636.2344 229.5625,636.0938 228.6875,636.0938 C226.0625,636.0938 224.0625,638.1719 224.0625,640.8906 L224.0625,642.0156 C224.0625,644.5938 226.1719,646.4844 229.0625,646.4844 C230.2813,646.4844 231.4375,646.1875 232.1875,645.6406 C232.7656,645.2344 233.0938,644.7813 233.0938,644.3906 C233.0938,643.9375 232.7031,643.5469 232.2344,643.5469 C232.0156,643.5469 231.8125,643.625 231.625,643.8125 C231.1719,644.2969 231.1719,644.2969 230.9844,644.3906 C230.5625,644.6563 229.875,644.7813 229.1094,644.7813 C227.0625,644.7813 225.7656,643.6875 225.7656,641.9844 L225.7656,640.8906 C225.7656,639.1094 227.0156,637.7969 228.75,637.7969 C229.3281,637.7969 229.9375,637.9531 230.4063,638.2031 C230.8906,638.4844 231.0625,638.7031 231.1563,639.1094 C231.2188,639.5156 231.25,639.6406 231.3906,639.7656 C231.5313,639.9063 231.7656,640.0156 231.9844,640.0156 C232.25,640.0156 232.5156,639.875 232.6875,639.6563 C232.7969,639.5 232.8281,639.3125 232.8281,638.8906 L232.8281,637.4688 C232.8281,637.0313 232.8125,636.9063 232.7188,636.75 C232.5625,636.4844 232.2813,636.3438 231.9844,636.3438 C231.6875,636.3438 231.4844,636.4375 231.2656,636.75 L231.0938,636.6719 Z "/><text fill="#000000" font-family="sans-serif" font-size="12" lengthAdjust="spacingAndGlyphs" textLength="100" x="249.25" y="645.1543">MainServerLogic</text><line style="stroke: #A80036; stroke-width: 1.5;" x1="143" x2="423" y1="657" y2="657"/><text fill="#000000" font-family="sans-serif" font-size="11" lengthAdjust="spacingAndGlyphs" textLength="103" x="148" y="671.2104">+moderator: UUID</text><text fill="#000000" font-family="sans-serif" font-size="11" lengthAdjust="spacingAndGlyphs" textLength="108" x="148" y="684.0151">output: WebSocket</text><text fill="#000000" font-family="sans-serif" font-size="11" lengthAdjust="spacingAndGlyphs" textLength="158" x="148" y="696.8198">+moderatorSessionId: UUID</text><text fill="#000000" font-family="sans-serif" font-size="11" lengthAdjust="spacingAndGlyphs" textLength="201" x="148" y="709.6245">+playerAudience: ArrayList&lt;UUID&gt;</text><text fill="#000000" font-family="sans-serif" font-size="11" lengthAdjust="spacingAndGlyphs" textLength="256" x="148" y="722.4292">+playerAudienceSessionId: ArrayList&lt;UUID&gt;</text><text fill="#000000" font-family="sans-serif" font-size="11" lengthAdjust="spacingAndGlyphs" textLength="157" x="148" y="735.2339">+moderator: ClientManager</text><text fill="#000000" font-family="sans-serif" font-size="11" lengthAdjust="spacingAndGlyphs" textLength="270" x="148" y="748.0386">+playerAudienceClientManager: ClientManager</text><text fill="#000000" font-family="sans-serif" font-size="11" lengthAdjust="spacingAndGlyphs" textLength="94" x="148" y="760.8433">+Logger: Logger</text><line style="stroke: #A80036; stroke-width: 1.5;" x1="143" x2="423" y1="767.4375" y2="767.4375"/><text fill="#000000" font-family="sans-serif" font-size="11" lengthAdjust="spacingAndGlyphs" textLength="220" x="148" y="781.6479">MainServerLogic(capacity: int, port: int)</text><text fill="#000000" font-family="sans-serif" font-size="11" lengthAdjust="spacingAndGlyphs" textLength="176" x="148" y="794.4526">+onFalseMessage(String): void</text><text fill="#000000" font-family="sans-serif" font-size="11" lengthAdjust="spacingAndGlyphs" textLength="182" x="148" y="807.2573">+onVotingMessage(String): void</text><!--MD5=[952aa88079c2ad50e6f0d17205c717c0]
class cm--><rect codeLine="45" fill="#FEFECE" filter="url(#f1byp4ws6bp7yf)" height="214.4609" id="cm" style="stroke: #A80036; stroke-width: 1.5;" width="237" x="299.5" y="874"/><ellipse cx="371.25" cy="890" fill="#ADD1B2" rx="11" ry="11" style="stroke: #A80036; stroke-width: 1.0;"/><path d="M373.5938,885.6719 C372.6563,885.2344 372.0625,885.0938 371.1875,885.0938 C368.5625,885.0938 366.5625,887.1719 366.5625,889.8906 L366.5625,891.0156 C366.5625,893.5938 368.6719,895.4844 371.5625,895.4844 C372.7813,895.4844 373.9375,895.1875 374.6875,894.6406 C375.2656,894.2344 375.5938,893.7813 375.5938,893.3906 C375.5938,892.9375 375.2031,892.5469 374.7344,892.5469 C374.5156,892.5469 374.3125,892.625 374.125,892.8125 C373.6719,893.2969 373.6719,893.2969 373.4844,893.3906 C373.0625,893.6563 372.375,893.7813 371.6094,893.7813 C369.5625,893.7813 368.2656,892.6875 368.2656,890.9844 L368.2656,889.8906 C368.2656,888.1094 369.5156,886.7969 371.25,886.7969 C371.8281,886.7969 372.4375,886.9531 372.9063,887.2031 C373.3906,887.4844 373.5625,887.7031 373.6563,888.1094 C373.7188,888.5156 373.75,888.6406 373.8906,888.7656 C374.0313,888.9063 374.2656,889.0156 374.4844,889.0156 C374.75,889.0156 375.0156,888.875 375.1875,888.6563 C375.2969,888.5 375.3281,888.3125 375.3281,887.8906 L375.3281,886.4688 C375.3281,886.0313 375.3125,885.9063 375.2188,885.75 C375.0625,885.4844 374.7813,885.3438 374.4844,885.3438 C374.1875,885.3438 373.9844,885.4375 373.7656,885.75 L373.5938,885.6719 Z "/><text fill="#000000" font-family="sans-serif" font-size="12" lengthAdjust="spacingAndGlyphs" textLength="85" x="391.75" y="894.1543">ClientManager</text><line style="stroke: #A80036; stroke-width: 1.5;" x1="300.5" x2="535.5" y1="906" y2="906"/><text fill="#000000" font-family="sans-serif" font-size="11" lengthAdjust="spacingAndGlyphs" textLength="106" x="305.5" y="920.2104">+client: WebClient</text><text fill="#000000" font-family="sans-serif" font-size="11" lengthAdjust="spacingAndGlyphs" textLength="104" x="305.5" y="933.0151">+session: Session</text><text fill="#000000" font-family="sans-serif" font-size="11" lengthAdjust="spacingAndGlyphs" textLength="72" x="305.5" y="945.8198">+gson: Gson</text><text fill="#000000" font-family="sans-serif" font-size="11" lengthAdjust="spacingAndGlyphs" textLength="156" x="305.5" y="958.6245">+sessionInformation: String</text><text fill="#000000" font-family="sans-serif" font-size="11" lengthAdjust="spacingAndGlyphs" textLength="94" x="305.5" y="971.4292">+Logger: Logger</text><line style="stroke: #A80036; stroke-width: 1.5;" x1="300.5" x2="535.5" y1="978.0234" y2="978.0234"/><text fill="#000000" font-family="sans-serif" font-size="11" lengthAdjust="spacingAndGlyphs" textLength="225" x="305.5" y="992.2339">+ClientManager(session: Session): void</text><text fill="#000000" font-family="sans-serif" font-size="11" lengthAdjust="spacingAndGlyphs" textLength="109" x="305.5" y="1005.0386">+disconnect(): void</text><text fill="#000000" font-family="sans-serif" font-size="11" lengthAdjust="spacingAndGlyphs" textLength="125" x="305.5" y="1017.8433">+onDisconnect(): void</text><text fill="#000000" font-family="sans-serif" font-size="11" lengthAdjust="spacingAndGlyphs" textLength="125" x="305.5" y="1030.6479">+recieve(String): void</text><text fill="#000000" font-family="sans-serif" font-size="11" lengthAdjust="spacingAndGlyphs" textLength="142" x="305.5" y="1043.4526">+checkJSON(String): void</text><text fill="#000000" font-family="sans-serif" font-size="11" lengthAdjust="spacingAndGlyphs" textLength="160" x="305.5" y="1056.2573">+sendMessage(String): void</text><text fill="#000000" font-family="sans-serif" font-size="11" lengthAdjust="spacingAndGlyphs" textLength="109" x="305.5" y="1069.062">+send(String): void</text><text fill="#000000" font-family="sans-serif" font-size="11" lengthAdjust="spacingAndGlyphs" textLength="125" x="305.5" y="1081.8667">+recieve(String): void</text><!--MD5=[e5ed2fcbff96bd03a55f8cf01186b818]
class sl--><rect codeLine="61" fill="#FEFECE" filter="url(#f1byp4ws6bp7yf)" height="150.4375" id="sl" style="stroke: #A80036; stroke-width: 1.5;" width="208" x="231" y="41"/><ellipse cx="288.75" cy="57" fill="#ADD1B2" rx="11" ry="11" style="stroke: #A80036; stroke-width: 1.0;"/><path d="M291.0938,52.6719 C290.1563,52.2344 289.5625,52.0938 288.6875,52.0938 C286.0625,52.0938 284.0625,54.1719 284.0625,56.8906 L284.0625,58.0156 C284.0625,60.5938 286.1719,62.4844 289.0625,62.4844 C290.2813,62.4844 291.4375,62.1875 292.1875,61.6406 C292.7656,61.2344 293.0938,60.7813 293.0938,60.3906 C293.0938,59.9375 292.7031,59.5469 292.2344,59.5469 C292.0156,59.5469 291.8125,59.625 291.625,59.8125 C291.1719,60.2969 291.1719,60.2969 290.9844,60.3906 C290.5625,60.6563 289.875,60.7813 289.1094,60.7813 C287.0625,60.7813 285.7656,59.6875 285.7656,57.9844 L285.7656,56.8906 C285.7656,55.1094 287.0156,53.7969 288.75,53.7969 C289.3281,53.7969 289.9375,53.9531 290.4063,54.2031 C290.8906,54.4844 291.0625,54.7031 291.1563,55.1094 C291.2188,55.5156 291.25,55.6406 291.3906,55.7656 C291.5313,55.9063 291.7656,56.0156 291.9844,56.0156 C292.25,56.0156 292.5156,55.875 292.6875,55.6563 C292.7969,55.5 292.8281,55.3125 292.8281,54.8906 L292.8281,53.4688 C292.8281,53.0313 292.8125,52.9063 292.7188,52.75 C292.5625,52.4844 292.2813,52.3438 291.9844,52.3438 C291.6875,52.3438 291.4844,52.4375 291.2656,52.75 L291.0938,52.6719 Z "/><text fill="#000000" font-family="sans-serif" font-size="12" lengthAdjust="spacingAndGlyphs" textLength="84" x="309.25" y="61.1543">ServerLogger</text><line style="stroke: #A80036; stroke-width: 1.5;" x1="232" x2="438" y1="73" y2="73"/><text fill="#000000" font-family="sans-serif" font-size="11" lengthAdjust="spacingAndGlyphs" textLength="130" x="237" y="87.2104">+GlobalLogger: Logger</text><text fill="#000000" font-family="sans-serif" font-size="11" lengthAdjust="spacingAndGlyphs" textLength="117" x="237" y="100.0151">+logFile: FileHandler</text><text fill="#000000" font-family="sans-serif" font-size="11" lengthAdjust="spacingAndGlyphs" textLength="106" x="237" y="112.8198">+isSetup: Boolean</text><text fill="#000000" font-family="sans-serif" font-size="11" lengthAdjust="spacingAndGlyphs" textLength="148" x="237" y="125.6245">+consoleHandler: Handler</text><line style="stroke: #A80036; stroke-width: 1.5;" x1="232" x2="438" y1="132.2188" y2="132.2188"/><text fill="#000000" font-family="sans-serif" font-size="11" lengthAdjust="spacingAndGlyphs" textLength="80" x="237" y="146.4292">+setup(): void</text><text fill="#000000" font-family="sans-serif" font-size="11" lengthAdjust="spacingAndGlyphs" textLength="152" x="237" y="159.2339">+addHandler(Logger): void</text><text fill="#000000" font-family="sans-serif" font-size="11" lengthAdjust="spacingAndGlyphs" textLength="130" x="237" y="172.0386">+setLevel(Level): void</text><text fill="#000000" font-family="sans-serif" font-size="11" lengthAdjust="spacingAndGlyphs" textLength="196" x="237" y="184.8433">+setConsoleOutput(boolean): void</text><!--MD5=[a0d3bbc68f741b6e52f50e6f2273a72d]
link ss to msl--><path codeLine="72" d="M272.555,565.125 C273.924,585.229 275.32,605.722 276.627,624.91 " fill="none" id="ss-msl" style="stroke: #A80036; stroke-width: 1.0;"/><!--MD5=[37b6ed35d464f726c2c9b2ceb8215c40]
link msl to ws--><path codeLine="73" d="M234.262,814.185 C214.927,851.351 193.362,892.804 176.63,924.967 " fill="none" id="msl-ws" style="stroke: #A80036; stroke-width: 1.0;"/><!--MD5=[7d06e1ba490a93264d4a8b472a43ae41]
link msl to cm--><path codeLine="74" d="M331.738,814.185 C341.783,833.494 352.43,853.96 362.689,873.679 " fill="none" id="msl-cm" style="stroke: #A80036; stroke-width: 1.0;"/><!--MD5=[a5942343fc64a8361275d61bf78cabe0]
link sl to msl--><path codeLine="75" d="M361.397,191.207 C389.444,281.448 424.811,437.505 386,565 C379.738,585.57 369.699,605.887 358.288,624.675 " fill="none" id="sl-msl" style="stroke: #A80036; stroke-width: 1.0; stroke-dasharray: 7.0,7.0;"/><!--MD5=[bc2afab5e43e20c32a047fab762a89ff]
link sl to ws--><path codeLine="76" d="M235.777,191.19 C199.672,223.929 162.68,265.548 142,312 C48.6066,521.785 103.27,806.66 132.834,924.976 " fill="none" id="sl-ws" style="stroke: #A80036; stroke-width: 1.0; stroke-dasharray: 7.0,7.0;"/><!--MD5=[671dab341200759546ed8586cdbf8a87]
link sl to cm--><path codeLine="77" d="M366.389,191.125 C373.991,210.431 381.726,231.337 388,251 C396.487,277.597 397.932,284.545 403,312 C443.623,532.065 458.052,590.793 442,814 C440.601,833.46 438.29,854.104 435.64,873.979 " fill="none" id="sl-cm" style="stroke: #A80036; stroke-width: 1.0; stroke-dasharray: 7.0,7.0;"/><!--MD5=[ce7bcfb77770f94a81831b8f23590dae]
link sl to ss--><path codeLine="78" d="M318.533,191.335 C310.606,227.117 300.882,271.013 291.851,311.779 " fill="none" id="sl-ss" style="stroke: #A80036; stroke-width: 1.0; stroke-dasharray: 7.0,7.0;"/><!--MD5=[5e5f4227314e681868d5cd1e6e91fa28]
@startuml
skinparam classAttributeIconSize 0

package "Server" {
class "ServerShell" as ss {
    {field} +Logger: Logger
    {field} +port: int
    {field} +runShell: boolean
    {field} +serverShell: ServerShell
    {field} +capacity: int
    {field} +bufferedReader: BufferedReader
    {method} +ServerShell()
    {method} +startShell(): void
    {method} +stopShell(): void
    {method} +parseCommand(String): void
    {method} +showHelp(): void
    {method} +configPort(): void
    {method} +configCapacity(): void
    {method} +startServer(): void
    {method} +stopServer(): void
    {method} +main(String[]): void
  }
class "WebSocket" as ws {
    {field} +clients: ArrayList<ClientManager>
    {field} +Logger: Logger
    {method} +onOpen(Session): void
    {method} +onMessage(String, Session): void
    {method} +onClose(Session, CloseReason): void

}

class "MainServerLogic" as msl {
    {field} +moderator: UUID
    {field} output: WebSocket
    {field} +moderatorSessionId: UUID
    {field} +playerAudience: ArrayList<UUID>
    {field} +playerAudienceSessionId: ArrayList<UUID>
    {field} +moderator: ClientManager
    {field} +playerAudienceClientManager: ClientManager
    {field} +Logger: Logger
    {method} MainServerLogic(capacity: int, port: int)
    {method} +onFalseMessage(String): void
    {method} +onVotingMessage(String): void

}
class "ClientManager" as cm {
    {field} +client: WebClient
    {field} +session: Session
    {field} +gson: Gson
    {field} +sessionInformation: String
    {field} +Logger: Logger
    {method} +ClientManager(session: Session): void
    {method} +disconnect(): void
    {method} +onDisconnect(): void
    {method} +recieve(String): void
    {method} +checkJSON(String): void
    {method} +sendMessage(String): void
    {method} +send(String): void
    {method} +recieve(String): void
}

class "ServerLogger" as sl {
    {field} +GlobalLogger: Logger
    {field} +logFile: FileHandler
    {field} +isSetup: Boolean
    {field} +consoleHandler: Handler
    {method} +setup(): void
    {method} +addHandler(Logger): void
    {method} +setLevel(Level): void
    {method} +setConsoleOutput(boolean): void
}
}
ss - - msl
msl - - ws
msl - - cm
sl ... msl
sl ... ws
sl ... cm
sl ... ss
@enduml

PlantUML version 1.2020.19(Mon Oct 12 15:10:01 UTC 2020)
(GPL source distribution)
Java Runtime: Java(TM) SE Runtime Environment
JVM: Java HotSpot(TM) 64-Bit Server VM
Default Encoding: UTF-8
Language: en
Country: US
--></g></svg>