<?xml version="1.0" encoding="UTF-8" standalone="no"?><svg xmlns="http://www.w3.org/2000/svg" xmlns:xlink="http://www.w3.org/1999/xlink" contentScriptType="application/ecmascript" contentStyleType="text/css" height="990px" preserveAspectRatio="none" style="width:461px;height:990px;" version="1.1" viewBox="0 0 461 990" width="461px" zoomAndPan="magnify"><defs><filter height="300%" id="f1ev3e5hdtsj0h" width="300%" x="-1" y="-1"><feGaussianBlur result="blurOut" stdDeviation="2.0"/><feColorMatrix in="blurOut" result="blurOut2" type="matrix" values="0 0 0 0 0 0 0 0 0 0 0 0 0 0 0 0 0 0 .4 0"/><feOffset dx="4.0" dy="4.0" in="blurOut2" result="blurOut3"/><feBlend in="SourceGraphic" in2="blurOut3" mode="normal"/></filter></defs><g><rect fill="#FEFECE" filter="url(#f1ev3e5hdtsj0h)" height="33.9688" rx="12.5" ry="12.5" style="stroke: #A80036; stroke-width: 1.5;" width="32" x="70" y="7"/><text fill="#000000" font-family="sans-serif" font-size="12" lengthAdjust="spacingAndGlyphs" textLength="0" x="92" y="28.1387"/><rect fill="#FEFECE" filter="url(#f1ev3e5hdtsj0h)" height="33.9688" rx="12.5" ry="12.5" style="stroke: #A80036; stroke-width: 1.5;" width="86" x="43" y="82"/><text fill="#000000" font-family="sans-serif" font-size="12" lengthAdjust="spacingAndGlyphs" textLength="66" x="53" y="103.1387">Write tests</text><polygon fill="#FEFECE" filter="url(#f1ev3e5hdtsj0h)" points="86,157,98,169,86,181,74,169,86,157" style="stroke: #A80036; stroke-width: 1.5;"/><rect fill="#FEFECE" filter="url(#f1ev3e5hdtsj0h)" height="47.9375" rx="12.5" ry="12.5" style="stroke: #A80036; stroke-width: 1.5;" width="110" x="31" y="248"/><text fill="#000000" font-family="sans-serif" font-size="12" lengthAdjust="spacingAndGlyphs" textLength="39" x="66.5" y="269.1387">Attend</text><text fill="#000000" font-family="sans-serif" font-size="12" lengthAdjust="spacingAndGlyphs" textLength="90" x="41" y="283.1074">company party</text><polygon fill="#FEFECE" filter="url(#f1ev3e5hdtsj0h)" points="86,342,98,354,86,366,74,354,86,342" style="stroke: #A80036; stroke-width: 1.5;"/><rect fill="#FEFECE" filter="url(#f1ev3e5hdtsj0h)" height="33.9688" rx="12.5" ry="12.5" style="stroke: #A80036; stroke-width: 1.5;" width="111" x="159.5" y="337"/><text fill="#000000" font-family="sans-serif" font-size="12" lengthAdjust="spacingAndGlyphs" textLength="91" x="169.5" y="358.1387">Company party</text><rect fill="#FEFECE" filter="url(#f1ev3e5hdtsj0h)" height="47.9375" rx="12.5" ry="12.5" style="stroke: #A80036; stroke-width: 1.5;" width="124" x="7" y="469"/><text fill="#000000" font-family="sans-serif" font-size="12" lengthAdjust="spacingAndGlyphs" textLength="104" x="17" y="490.1387">Continue working</text><text fill="#000000" font-family="sans-serif" font-size="12" lengthAdjust="spacingAndGlyphs" textLength="64" x="37" y="504.1074">/Fix issues</text><polygon fill="#FEFECE" filter="url(#f1ev3e5hdtsj0h)" points="241,425,253,437,241,449,229,437,241,425" style="stroke: #A80036; stroke-width: 1.5;"/><rect fill="#FEFECE" filter="url(#f1ev3e5hdtsj0h)" height="33.9688" rx="12.5" ry="12.5" style="stroke: #A80036; stroke-width: 1.5;" width="118" x="191" y="626"/><text fill="#000000" font-family="sans-serif" font-size="12" lengthAdjust="spacingAndGlyphs" textLength="98" x="201" y="647.1387">Drink something</text><rect fill="#FEFECE" filter="url(#f1ev3e5hdtsj0h)" height="47.9375" rx="12.5" ry="12.5" style="stroke: #A80036; stroke-width: 1.5;" width="101" x="97.5" y="537"/><text fill="#000000" font-family="sans-serif" font-size="12" lengthAdjust="spacingAndGlyphs" textLength="51" x="122.5" y="558.1387">Level up</text><text fill="#000000" font-family="sans-serif" font-size="12" lengthAdjust="spacingAndGlyphs" textLength="81" x="107.5" y="572.1074">programming</text><rect fill="#FEFECE" filter="url(#f1ev3e5hdtsj0h)" height="33.9688" rx="12.5" ry="12.5" style="stroke: #A80036; stroke-width: 1.5;" width="166" x="219" y="544"/><text fill="#000000" font-family="sans-serif" font-size="12" lengthAdjust="spacingAndGlyphs" textLength="146" x="229" y="565.1387">Unlock dialouge options</text><polygon fill="#FEFECE" filter="url(#f1ev3e5hdtsj0h)" points="214,701,226,713,214,725,202,713,214,701" style="stroke: #A80036; stroke-width: 1.5;"/><rect fill="#FEFECE" filter="url(#f1ev3e5hdtsj0h)" height="33.9688" rx="12.5" ry="12.5" style="stroke: #A80036; stroke-width: 1.5;" width="112" x="237" y="786"/><text fill="#000000" font-family="sans-serif" font-size="12" lengthAdjust="spacingAndGlyphs" textLength="92" x="247" y="807.1387">Negative effect</text><rect fill="#FEFECE" filter="url(#f1ev3e5hdtsj0h)" height="47.9375" rx="12.5" ry="12.5" style="stroke: #A80036; stroke-width: 1.5;" width="92" x="116" y="779"/><text fill="#000000" font-family="sans-serif" font-size="12" lengthAdjust="spacingAndGlyphs" textLength="72" x="126" y="800.1387">No negative</text><text fill="#000000" font-family="sans-serif" font-size="12" lengthAdjust="spacingAndGlyphs" textLength="42" x="141" y="814.1074">effects</text><rect fill="#FEFECE" filter="url(#f1ev3e5hdtsj0h)" height="33.9688" rx="12.5" ry="12.5" style="stroke: #A80036; stroke-width: 1.5;" width="124" x="100" y="868"/><text fill="#000000" font-family="sans-serif" font-size="12" lengthAdjust="spacingAndGlyphs" textLength="104" x="110" y="889.1387">Voluntary training</text><rect fill="#FEFECE" filter="url(#f1ev3e5hdtsj0h)" height="33.9688" rx="12.5" ry="12.5" style="stroke: #A80036; stroke-width: 1.5;" width="32" x="146" y="943"/><text fill="#000000" font-family="sans-serif" font-size="12" lengthAdjust="spacingAndGlyphs" textLength="0" x="168" y="964.1387"/><!--MD5=[7956a5aaf50bf963416429e9ca6a5bf9]
link x to Write tests--><path d="M86,41.201 C86,51.692 86,65.463 86,76.818 " fill="none" id="x-to-Write tests" style="stroke: #0000FF; stroke-width: 1.0; stroke-dasharray: 1.0,3.0;"/><polygon fill="#0000FF" points="86,81.844,90,72.844,86,76.844,82,72.844,86,81.844" style="stroke: #0000FF; stroke-width: 1.0;"/><!--MD5=[29870fb01846385c1961f9147eb65381]
link Write tests to #254686--><path d="M86,116.115 C86,126.916 86,141.082 86,151.883 " fill="none" id="Write tests-to-#254686" style="stroke: #A80036; stroke-width: 1.0;"/><polygon fill="#A80036" points="86,156.885,90,147.885,86,151.885,82,147.885,86,156.885" style="stroke: #A80036; stroke-width: 1.0;"/><text fill="#000000" font-family="sans-serif" font-size="11" lengthAdjust="spacingAndGlyphs" textLength="0" x="85.025" y="146.4605"/><!--MD5=[63ab250b79f59fc768fc253c3c057613]
link #254686 to fd--><path d="M77.8367,173.117 C67.539,177.547 50.2961,186.745 43,201 C37.5324,211.682 38.4078,216.913 43,228 C45.3357,233.639 48.8095,238.924 52.7881,243.727 " fill="none" id="#254686-to-fd" style="stroke: #A80036; stroke-width: 1.0;"/><polygon fill="#A80036" points="56.235,247.646,53.2935,238.2467,52.9324,243.892,47.2871,243.5309,56.235,247.646" style="stroke: #A80036; stroke-width: 1.0;"/><text fill="#000000" font-family="sans-serif" font-size="11" lengthAdjust="spacingAndGlyphs" textLength="60" x="44" y="218.7104">thoroughly</text><!--MD5=[63ab250b79f59fc768fc253c3c057613]
link #254686 to fd--><path d="M91.4786,176.108 C96.3675,182.001 103.1766,191.416 106,201 C110.103,214.929 106.4954,230.455 101.2711,243.338 " fill="none" id="#254686-to-fd-1" style="stroke: #A80036; stroke-width: 1.0;"/><polygon fill="#A80036" points="99.2845,247.958,106.5152,241.271,101.2602,243.3649,99.1663,238.1099,99.2845,247.958" style="stroke: #A80036; stroke-width: 1.0;"/><text fill="#000000" font-family="sans-serif" font-size="11" lengthAdjust="spacingAndGlyphs" textLength="41" x="113.5" y="212.2104">only till</text><text fill="#000000" font-family="sans-serif" font-size="11" lengthAdjust="spacingAndGlyphs" textLength="50" x="109" y="225.0151">deadline</text><!--MD5=[3a67617530c054274374b3d7eeb14720]
link fd to #254692--><path d="M86,296.139 C86,309.105 86,324.964 86,336.636 " fill="none" id="fd-to-#254692" style="stroke: #A80036; stroke-width: 1.0;"/><polygon fill="#A80036" points="86,341.679,90,332.679,86,336.679,82,332.679,86,341.679" style="stroke: #A80036; stroke-width: 1.0;"/><text fill="#000000" font-family="sans-serif" font-size="11" lengthAdjust="spacingAndGlyphs" textLength="0" x="85.075" y="331.6021"/><!--MD5=[9d97e8a1ab2fd5bdb543ef14d8a3a502]
link #254692 to cp--><path d="M98.3691,354 C111.447,354 133.064,354 154.157,354 " fill="none" id="#254692-to-cp" style="stroke: #A80036; stroke-width: 1.0;"/><polygon fill="#A80036" points="159.216,354,150.216,350,154.216,354,150.216,358,159.216,354" style="stroke: #A80036; stroke-width: 1.0;"/><text fill="#000000" font-family="sans-serif" font-size="11" lengthAdjust="spacingAndGlyphs" textLength="37" x="110.25" y="348.2104">attend</text><!--MD5=[1b25a9864ccfc01db7c7de4288569eec]
link #254692 to cw--><path d="M84.7774,364.853 C82.2441,385.268 76.3397,432.851 72.5159,463.666 " fill="none" id="#254692-to-cw" style="stroke: #A80036; stroke-width: 1.0;"/><polygon fill="#A80036" points="71.8742,468.837,76.952,460.3981,72.4899,463.8751,69.0129,459.4129,71.8742,468.837" style="stroke: #A80036; stroke-width: 1.0;"/><text fill="#000000" font-family="sans-serif" font-size="11" lengthAdjust="spacingAndGlyphs" textLength="77" x="83" y="402.2104">do not attend</text><!--MD5=[6291c01246a7b11045b982d6a7d2553d]
link cp to #254699--><path d="M220.137,371.003 C224.987,386.114 232.177,408.513 236.724,422.677 " fill="none" id="cp-to-#254699" style="stroke: #A80036; stroke-width: 1.0;"/><polygon fill="#A80036" points="238.27,427.494,239.3302,417.7024,236.743,422.7329,231.7124,420.1456,238.27,427.494" style="stroke: #A80036; stroke-width: 1.0;"/><text fill="#000000" font-family="sans-serif" font-size="11" lengthAdjust="spacingAndGlyphs" textLength="0" x="234.7816" y="414.5655"/><!--MD5=[eeabcc016d45a103843ab18df9af2bb9]
link #254699 to dri--><path d="M252.164,438 C274.933,438.569 327.336,442.847 360,469 C386.534,490.245 386.997,503.965 395,537 C400.023,557.734 407.013,567.37 395,585 C376.858,611.624 344.209,625.813 314.479,633.374 " fill="none" id="#254699-to-dri" style="stroke: #A80036; stroke-width: 1.0;"/><polygon fill="#A80036" points="309.352,634.621,319.0423,636.3812,314.2104,633.4396,317.1521,628.6078,309.352,634.621" style="stroke: #A80036; stroke-width: 1.0;"/><text fill="#000000" font-family="sans-serif" font-size="11" lengthAdjust="spacingAndGlyphs" textLength="51" x="402" y="565.2104">Sit alone</text><!--MD5=[9c2282840b06f8435a85f88591343e13]
link #254699 to lvl--><path d="M233.669,441.76 C224.238,446.886 207.788,456.835 197,469 C180.427,487.688 167.39,512.959 158.943,532.128 " fill="none" id="#254699-to-lvl" style="stroke: #A80036; stroke-width: 1.0;"/><polygon fill="#A80036" points="156.895,536.862,164.1387,530.189,158.8796,532.2727,156.7958,527.0136,156.895,536.862" style="stroke: #A80036; stroke-width: 1.0;"/><text fill="#000000" font-family="sans-serif" font-size="11" lengthAdjust="spacingAndGlyphs" textLength="53" x="202.5" y="490.7104">Chat with</text><text fill="#000000" font-family="sans-serif" font-size="11" lengthAdjust="spacingAndGlyphs" textLength="62" x="198" y="503.5151">colleagues</text><!--MD5=[6d8000fa6039c3155e6e686a93a6e753]
link lvl to dri--><path d="M177.503,585.139 C192.669,597.034 210.939,611.364 225.345,622.662 " fill="none" id="lvl-to-dri" style="stroke: #A80036; stroke-width: 1.0;"/><polygon fill="#A80036" points="229.299,625.764,224.6859,617.0623,225.3647,622.6783,219.7488,623.3572,229.299,625.764" style="stroke: #A80036; stroke-width: 1.0;"/><!--MD5=[f88284dc0161d21f78450ebbd85fb444]
link #254699 to sup--><path d="M246.56,443.776 C252.057,449.722 260.43,459.442 266,469 C279.137,491.541 289.467,519.784 295.631,538.777 " fill="none" id="#254699-to-sup" style="stroke: #A80036; stroke-width: 1.0;"/><polygon fill="#A80036" points="297.258,543.876,298.3324,534.0859,295.7379,539.1127,290.7111,536.5182,297.258,543.876" style="stroke: #A80036; stroke-width: 1.0;"/><text fill="#000000" font-family="sans-serif" font-size="11" lengthAdjust="spacingAndGlyphs" textLength="53" x="295" y="490.7104">Chat with</text><text fill="#000000" font-family="sans-serif" font-size="11" lengthAdjust="spacingAndGlyphs" textLength="65" x="289" y="503.5151">supervisors</text><!--MD5=[4e99e192db221952114ec8b5056863ca]
link sup to dri--><path d="M291.477,578.189 C283.372,590.659 272.111,607.983 263.368,621.434 " fill="none" id="sup-to-dri" style="stroke: #A80036; stroke-width: 1.0;"/><polygon fill="#A80036" points="260.507,625.835,268.7647,620.4675,263.2312,621.6423,262.0564,616.1088,260.507,625.835" style="stroke: #A80036; stroke-width: 1.0;"/><!--MD5=[51c6939e2881fb7cf9917bb18241192a]
link dri to #254710--><path d="M241.469,660.115 C234.977,672.376 226.19,688.975 220.319,700.063 " fill="none" id="dri-to-#254710" style="stroke: #A80036; stroke-width: 1.0;"/><polygon fill="#A80036" points="217.846,704.735,225.593,698.6535,220.186,700.3164,218.5232,694.9094,217.846,704.735" style="stroke: #A80036; stroke-width: 1.0;"/><text fill="#000000" font-family="sans-serif" font-size="11" lengthAdjust="spacingAndGlyphs" textLength="0" x="219.5536" y="690.1225"/><!--MD5=[b7bb41317683464effe15017325dfc8d]
link #254710 to bad--><path d="M222.778,716.754 C234.939,720.986 256.892,730.186 270,745 C279.034,755.209 284.779,769.424 288.268,781.104 " fill="none" id="#254710-to-bad" style="stroke: #A80036; stroke-width: 1.0;"/><polygon fill="#A80036" points="289.628,785.935,291.0406,776.188,288.2737,781.1219,283.3397,778.3549,289.628,785.935" style="stroke: #A80036; stroke-width: 1.0;"/><text fill="#000000" font-family="sans-serif" font-size="11" lengthAdjust="spacingAndGlyphs" textLength="81" x="281" y="756.2104">Strong alcohol</text><!--MD5=[ec777bf6ad7e5bb329390c18d051ac61]
link #254710 to non--><path d="M201.964,713.215 C178.739,712.445 128.003,714.543 105,745 C96.8872,755.742 102.9178,766.459 113.609,775.653 " fill="none" id="#254710-to-non" style="stroke: #A80036; stroke-width: 1.0;"/><polygon fill="#A80036" points="117.741,778.968,113.2237,770.2162,113.8408,775.8393,108.2178,776.4565,117.741,778.968" style="stroke: #A80036; stroke-width: 1.0;"/><text fill="#000000" font-family="sans-serif" font-size="11" lengthAdjust="spacingAndGlyphs" textLength="76" x="106" y="756.2104">Weak alcohol</text><!--MD5=[ec777bf6ad7e5bb329390c18d051ac61]
link #254710 to non--><path d="M209.745,721.201 C202.992,732.63 189.466,755.52 178.529,774.028 " fill="none" id="#254710-to-non-1" style="stroke: #A80036; stroke-width: 1.0;"/><polygon fill="#A80036" points="175.81,778.629,183.8309,772.9136,178.3526,774.3237,176.9425,768.8455,175.81,778.629" style="stroke: #A80036; stroke-width: 1.0;"/><text fill="#000000" font-family="sans-serif" font-size="11" lengthAdjust="spacingAndGlyphs" textLength="68" x="196" y="756.2104">Non-alcholic</text><!--MD5=[b25b09b1b1525abc33d26f3c6510f000]
link bad to vt--><path d="M266.49,820.189 C245.183,833.201 215.22,851.499 192.84,865.166 " fill="none" id="bad-to-vt" style="stroke: #A80036; stroke-width: 1.0;"/><polygon fill="#A80036" points="188.47,867.835,198.2358,866.5584,192.7373,865.2292,194.0665,859.7307,188.47,867.835" style="stroke: #A80036; stroke-width: 1.0;"/><!--MD5=[0b96a4fa43f685a02d61142e87421cbc]
link non to vt--><path d="M162,827.139 C162,838.243 162,851.469 162,862.37 " fill="none" id="non-to-vt" style="stroke: #A80036; stroke-width: 1.0;"/><polygon fill="#A80036" points="162,867.515,166,858.515,162,862.515,158,858.515,162,867.515" style="stroke: #A80036; stroke-width: 1.0;"/><!--MD5=[f9e12c0d193ddf3e173b138a5f09055c]
link cw to vt--><path d="M68.001,517.382 C67.1283,539.842 66,574.734 66,605 C66,605 66,605 66,804 C66,832.287 90.9026,852.512 115.341,865.55 " fill="none" id="cw-to-vt" style="stroke: #A80036; stroke-width: 1.0;"/><polygon fill="#A80036" points="119.893,867.901,113.7346,860.215,115.4513,865.6051,110.0612,867.3218,119.893,867.901" style="stroke: #A80036; stroke-width: 1.0;"/><!--MD5=[c56447f991f444652ebab25bb65bfbed]
link vt to y--><path d="M162,902.2011 C162,912.6917 162,926.4627 162,937.8176 " fill="none" id="vt-to-y" style="stroke: #0000FF; stroke-width: 1.0; stroke-dasharray: 1.0,3.0;"/><polygon fill="#0000FF" points="162,942.8442,166,933.8442,162,937.8442,158,933.8442,162,942.8442" style="stroke: #0000FF; stroke-width: 1.0;"/><!--MD5=[8b262d3dde0979b01c5e2123452827a8]
@startuml
"   " as x-[#blue,dotted]-> "Write tests"
if "" then
- -> [thoroughly] "Attend\ncompany party" as fd
else
- -> [only till\ndeadline] fd
if "" then
-> [attend] "Company party" as cp
else
- -> [do not attend] "Continue working\n/Fix issues" as cw
cp - -> if "" then
- -> [Sit alone] "Drink something" as dri
else
- -> [Chat with\ncolleagues] "Level up\nprogramming" as lvl
lvl - -> dri
else
- -> [Chat with\nsupervisors] "Unlock dialouge options" as sup
sup - -> dri
if "" then
- -> [Strong alcohol] "Negative effect" as bad
else
- -> [Weak alcohol] "No negative\neffects" as non
else 
- -> [Non-alcholic] non
bad - -> "Voluntary training" as vt
non - -> vt
cw - -> vt
-[#blue,dotted]-> "   " as y
@enduml

PlantUML version 1.2020.19beta4(Unknown compile time)
(GPL source distribution)
Java Runtime: Java(TM) SE Runtime Environment
JVM: Java HotSpot(TM) 64-Bit Server VM
Default Encoding: UTF-8
Language: en
Country: US
--></g></svg>