<?xml version="1.0" encoding="UTF-8" standalone="no"?><svg xmlns="http://www.w3.org/2000/svg" xmlns:xlink="http://www.w3.org/1999/xlink" contentScriptType="application/ecmascript" contentStyleType="text/css" height="304px" preserveAspectRatio="none" style="width:571px;height:304px;" version="1.1" viewBox="0 0 571 304" width="571px" zoomAndPan="magnify"><defs><filter height="300%" id="f1kcx7p0ley7mz" width="300%" x="-1" y="-1"><feGaussianBlur result="blurOut" stdDeviation="2.0"/><feColorMatrix in="blurOut" result="blurOut2" type="matrix" values="0 0 0 0 0 0 0 0 0 0 0 0 0 0 0 0 0 0 .4 0"/><feOffset dx="4.0" dy="4.0" in="blurOut2" result="blurOut3"/><feBlend in="SourceGraphic" in2="blurOut3" mode="normal"/></filter></defs><g><!--MD5=[57cfc2015c9d3964671bcbff5cacbb7f]
cluster s--><rect fill="#FFFFFF" filter="url(#f1kcx7p0ley7mz)" height="283" style="stroke: #000000; stroke-width: 1.5;" width="231" x="215" y="7"/><rect fill="#FFFFFF" height="10" style="stroke: #000000; stroke-width: 1.5;" width="15" x="426" y="12"/><rect fill="#FFFFFF" height="2" style="stroke: #000000; stroke-width: 1.5;" width="4" x="424" y="14"/><rect fill="#FFFFFF" height="2" style="stroke: #000000; stroke-width: 1.5;" width="4" x="424" y="18"/><text fill="#000000" font-family="sans-serif" font-size="14" font-style="italic" lengthAdjust="spacingAndGlyphs" textLength="65" x="298" y="32.9951">«device»</text><text fill="#000000" font-family="sans-serif" font-size="14" font-weight="bold" lengthAdjust="spacingAndGlyphs" textLength="51" x="305" y="49.292">Server</text><!--MD5=[e2307af040e3f87d22824e7603ca28ec]
entity api--><ellipse cx="330.5" cy="166" fill="#FEFECE" filter="url(#f1kcx7p0ley7mz)" rx="8" ry="8" style="stroke: #A80036; stroke-width: 1.5;"/><!--MD5=[e4ba77276e035bf05038a19723c401e1]
entity AuCl--><rect fill="#FEFECE" filter="url(#f1kcx7p0ley7mz)" height="62.5938" style="stroke: #A80036; stroke-width: 1.5;" width="199" x="231" y="210.5"/><rect fill="#FEFECE" height="10" style="stroke: #A80036; stroke-width: 1.5;" width="15" x="410" y="215.5"/><rect fill="#FEFECE" height="2" style="stroke: #A80036; stroke-width: 1.5;" width="4" x="408" y="217.5"/><rect fill="#FEFECE" height="2" style="stroke: #A80036; stroke-width: 1.5;" width="4" x="408" y="221.5"/><text fill="#000000" font-family="sans-serif" font-size="14" font-style="italic" lengthAdjust="spacingAndGlyphs" textLength="99" x="276" y="243.4951">«component»</text><text fill="#000000" font-family="sans-serif" font-size="14" lengthAdjust="spacingAndGlyphs" textLength="159" x="246" y="259.792">PlayerAudience-Client</text><!--MD5=[ec7964eb55135f015f60afe86413f913]
entity SeCl--><rect fill="#FEFECE" filter="url(#f1kcx7p0ley7mz)" height="62.5938" style="stroke: #A80036; stroke-width: 1.5;" width="139" x="261" y="58.5"/><rect fill="#FEFECE" height="10" style="stroke: #A80036; stroke-width: 1.5;" width="15" x="380" y="63.5"/><rect fill="#FEFECE" height="2" style="stroke: #A80036; stroke-width: 1.5;" width="4" x="378" y="65.5"/><rect fill="#FEFECE" height="2" style="stroke: #A80036; stroke-width: 1.5;" width="4" x="378" y="69.5"/><text fill="#000000" font-family="sans-serif" font-size="14" font-style="italic" lengthAdjust="spacingAndGlyphs" textLength="99" x="276" y="91.4951">«component»</text><text fill="#000000" font-family="sans-serif" font-size="14" lengthAdjust="spacingAndGlyphs" textLength="85" x="283" y="107.792">ServerLogic</text><!--MD5=[c9750dafa4ae4a01f4cdbdcf14d4b946]
entity ws--><ellipse cx="89" cy="90" fill="#FEFECE" filter="url(#f1kcx7p0ley7mz)" rx="8" ry="8" style="stroke: #A80036; stroke-width: 1.5;"/><text fill="#000000" font-family="sans-serif" font-size="14" lengthAdjust="spacingAndGlyphs" textLength="82" x="48" y="119.9951">Websocket</text><!--MD5=[bf1b4add2ee2e1b53e65912b20fb7ef4]
entity ui--><ellipse cx="531" cy="242" fill="#FEFECE" filter="url(#f1kcx7p0ley7mz)" rx="8" ry="8" style="stroke: #A80036; stroke-width: 1.5;"/><text fill="#000000" font-family="sans-serif" font-size="14" lengthAdjust="spacingAndGlyphs" textLength="31" x="498" y="271.9951">User</text><text fill="#000000" font-family="sans-serif" font-size="14" lengthAdjust="spacingAndGlyphs" textLength="66" x="498" y="288.292">Interface</text><!--MD5=[aea270b37b0ac7a05558ae0e40970a01]
entity mi--><ellipse cx="89" cy="242" fill="#FEFECE" filter="url(#f1kcx7p0ley7mz)" rx="8" ry="8" style="stroke: #A80036; stroke-width: 1.5;"/><text fill="#000000" font-family="sans-serif" font-size="14" lengthAdjust="spacingAndGlyphs" textLength="75" x="51.5" y="271.9951">Moderator</text><text fill="#000000" font-family="sans-serif" font-size="14" lengthAdjust="spacingAndGlyphs" textLength="66" x="51.5" y="288.292">Interface</text><!--MD5=[cbc5676bddfb99180e2a59914762c990]
entity StPlCl--><rect fill="#FEFECE" filter="url(#f1kcx7p0ley7mz)" height="62.5938" style="stroke: #A80036; stroke-width: 1.5;" width="164" x="7" y="134.5"/><rect fill="#FEFECE" height="10" style="stroke: #A80036; stroke-width: 1.5;" width="15" x="151" y="139.5"/><rect fill="#FEFECE" height="2" style="stroke: #A80036; stroke-width: 1.5;" width="4" x="149" y="141.5"/><rect fill="#FEFECE" height="2" style="stroke: #A80036; stroke-width: 1.5;" width="4" x="149" y="145.5"/><text fill="#000000" font-family="sans-serif" font-size="14" font-style="italic" lengthAdjust="spacingAndGlyphs" textLength="99" x="34.5" y="167.4951">«component»</text><text fill="#000000" font-family="sans-serif" font-size="14" lengthAdjust="spacingAndGlyphs" textLength="124" x="22" y="183.792">Moderator-Client</text><!--MD5=[3d436790f42bd89a3486ff829cb7ecb4]
reverse link ws to StPlCl--><path d="M89,109.42 C89,117.691 89,125.963 89,134.234 " fill="none" id="ws-backto-StPlCl" style="stroke: #A80036; stroke-width: 1.0;"/><path d="M80.5428,102.4092 A9,9 0 0 0 97.4572 102.4092" fill="none" style="stroke: #A80036; stroke-width: 1.5;"/><!--MD5=[3b9683e80ed7f2d41c0b4778542959b3]
reverse link ws to SeCl--><path d="M108.39,90 C140.606,90 208.782,90 260.968,90 " fill="none" id="ws-backto-SeCl" style="stroke: #A80036; stroke-width: 1.0;"/><path d="M101.3223,98.4572 A9,9 0 0 0 101.3223 81.5428" fill="none" style="stroke: #A80036; stroke-width: 1.5;"/><!--MD5=[c91074eddac44bdeddd1a4fb6c527926]
link StPlCl to mi--><path d="M89,197.572 C89,205.92 89,214.2671 89,222.6147 " fill="none" id="StPlCl-to-mi" style="stroke: #A80036; stroke-width: 1.0;"/><path d="M97.4573,229.7188 A9,9 0 0 0 80.5428 229.7186" fill="none" style="stroke: #A80036; stroke-width: 1.5;"/><!--MD5=[0eaae2622d5bf66c8f0e2ceea51b24b6]
link AuCl to ui--><path d="M430.168,242 C461.432,242 492.773,242 511.782,242 " fill="none" id="AuCl-to-ui" style="stroke: #A80036; stroke-width: 1.0;"/><path d="M518.8348,233.5428 A9,9 0 0 0 518.8348 250.4572" fill="none" style="stroke: #A80036; stroke-width: 1.5;"/><!--MD5=[fe8aec6e816421508c0ac7ea0ce6985b]
link api to SeCl--><path d="M330.5,156.797 C330.5,145.055 330.5,133.314 330.5,121.572 " fill="none" id="api-SeCl" style="stroke: #A80036; stroke-width: 1.0;"/><!--MD5=[2ecd9ed341db607d7ade196a8a56cf66]
link AuCl to api--><path d="M330.5,210.2344 C330.5,201.963 330.5,193.691 330.5,185.42 " fill="none" id="AuCl-to-api" style="stroke: #A80036; stroke-width: 1.0;"/><path d="M322.0428,178.4092 A9,9 0 0 0 338.9572 178.4092" fill="none" style="stroke: #A80036; stroke-width: 1.5;"/><!--MD5=[77a15dd2371b771c262d73fef526685e]
@startuml
left to right direction
() "Websocket" as ws
() "User\nInterface" as ui
() "Moderator\nInterface" as mi


component "Server" <<device>> as s{
    () " " as api
    [PlayerAudience-Client] <<component>> as AuCl
    [ServerLogic] <<component>> as SeCl
}
[Moderator-Client] <<component>> as StPlCl

ws )- StPlCl
ws )-down- SeCl
mi )-left- StPlCl
ui )-up- AuCl
api - SeCl
AuCl -( api
@enduml

PlantUML version 1.2020.20beta13(Unknown compile time)
(GPL source distribution)
Java Runtime: Java(TM) SE Runtime Environment
JVM: Java HotSpot(TM) 64-Bit Server VM
Default Encoding: UTF-8
Language: en
Country: US
--></g></svg>