<?xml version="1.0" encoding="UTF-8" standalone="no"?><svg xmlns="http://www.w3.org/2000/svg" xmlns:xlink="http://www.w3.org/1999/xlink" contentScriptType="application/ecmascript" contentStyleType="text/css" height="1564px" preserveAspectRatio="none" style="width:1358px;height:1564px;" version="1.1" viewBox="0 0 1358 1564" width="1358px" zoomAndPan="magnify"><defs><filter height="300%" id="f1jjujngg20kbv" width="300%" x="-1" y="-1"><feGaussianBlur result="blurOut" stdDeviation="2.0"/><feColorMatrix in="blurOut" result="blurOut2" type="matrix" values="0 0 0 0 0 0 0 0 0 0 0 0 0 0 0 0 0 0 .4 0"/><feOffset dx="4.0" dy="4.0" in="blurOut2" result="blurOut3"/><feBlend in="SourceGraphic" in2="blurOut3" mode="normal"/></filter></defs><g><!--MD5=[4544bf05af30223886112ffd96a1865f]
cluster Moderator-Client--><polygon fill="#FFFFFF" filter="url(#f1jjujngg20kbv)" points="940,6,1066,6,1073,29.6094,1341,29.6094,1341,1223,940,1223,940,6" style="stroke: #000000; stroke-width: 1.5;"/><line style="stroke: #000000; stroke-width: 1.5;" x1="940" x2="1073" y1="29.6094" y2="29.6094"/><text fill="#000000" font-family="sans-serif" font-size="14" font-weight="bold" lengthAdjust="spacingAndGlyphs" textLength="120" x="944" y="22.5332">Moderator-Client</text><!--MD5=[979da56a7f83e2393dc758167ae295d0]
cluster Server--><polygon fill="#FFFFFF" filter="url(#f1jjujngg20kbv)" points="16,220,70,220,77,243.6094,916,243.6094,916,1557.5,16,1557.5,16,220" style="stroke: #000000; stroke-width: 1.5;"/><line style="stroke: #000000; stroke-width: 1.5;" x1="16" x2="77" y1="243.6094" y2="243.6094"/><text fill="#000000" font-family="sans-serif" font-size="14" font-weight="bold" lengthAdjust="spacingAndGlyphs" textLength="48" x="20" y="236.5332">Server</text><!--MD5=[b4e09d266be9964199f2622adcc056fa]
cluster Backend--><rect fill="#FFFFFF" filter="url(#f1jjujngg20kbv)" height="1014.5" style="stroke: #000000; stroke-width: 1.5;" width="535" x="40" y="264"/><text fill="#000000" font-family="sans-serif" font-size="14" font-weight="bold" lengthAdjust="spacingAndGlyphs" textLength="61" x="277" y="280.5332">Backend</text><!--MD5=[a8973b51fb403d164ccd98ec50a39132]
cluster PlayerAudience-Client--><rect fill="#FFFFFF" filter="url(#f1jjujngg20kbv)" height="205" style="stroke: #000000; stroke-width: 1.5;" width="414" x="478" y="1328.5"/><text fill="#000000" font-family="sans-serif" font-size="14" font-weight="bold" lengthAdjust="spacingAndGlyphs" textLength="155" x="607.5" y="1345.0332">PlayerAudience-Client</text><!--MD5=[3eaf92687768346c8d614b6fd2c22fb9]
class StoryEvent--><rect codeLine="6" fill="#FEFECE" filter="url(#f1jjujngg20kbv)" height="131.0156" id="StoryEvent" style="stroke: #A80036; stroke-width: 1.5;" width="200" x="1040" y="42"/><ellipse cx="1107.25" cy="58" fill="#ADD1B2" rx="11" ry="11" style="stroke: #A80036; stroke-width: 1.0;"/><path d="M1110.0156,53.875 Q1110.1719,53.6563 1110.3594,53.5469 Q1110.5469,53.4375 1110.7656,53.4375 Q1111.1406,53.4375 1111.375,53.7031 Q1111.6094,53.9531 1111.6094,54.5625 L1111.6094,56.0156 Q1111.6094,56.625 1111.375,56.8906 Q1111.1406,57.1563 1110.7656,57.1563 Q1110.4219,57.1563 1110.2188,56.9531 Q1110.0156,56.7656 1109.9063,56.25 Q1109.8594,55.8906 1109.6719,55.7031 Q1109.3438,55.3281 1108.7344,55.1094 Q1108.125,54.8906 1107.5,54.8906 Q1106.7344,54.8906 1106.0938,55.2188 Q1105.4688,55.5469 1104.9688,56.2969 Q1104.4844,57.0469 1104.4844,58.0781 L1104.4844,59.1719 Q1104.4844,60.4063 1105.375,61.2344 Q1106.2656,62.0469 1107.8594,62.0469 Q1108.7969,62.0469 1109.4531,61.7969 Q1109.8438,61.6406 1110.2656,61.2031 Q1110.5313,60.9375 1110.6719,60.8594 Q1110.8281,60.7813 1111.0313,60.7813 Q1111.3594,60.7813 1111.6094,61.0469 Q1111.875,61.2969 1111.875,61.6406 Q1111.875,61.9844 1111.5313,62.3906 Q1111.0313,62.9688 1110.2344,63.2969 Q1109.1563,63.75 1107.8594,63.75 Q1106.3438,63.75 1105.1406,63.125 Q1104.1563,62.625 1103.4688,61.5625 Q1102.7813,60.4844 1102.7813,59.2031 L1102.7813,58.0469 Q1102.7813,56.7188 1103.3906,55.5781 Q1104.0156,54.4219 1105.1094,53.8125 Q1106.2031,53.1875 1107.4375,53.1875 Q1108.1719,53.1875 1108.8125,53.3594 Q1109.4688,53.5156 1110.0156,53.875 Z "/><text fill="#000000" font-family="sans-serif" font-size="12" lengthAdjust="spacingAndGlyphs" textLength="57" x="1127.75" y="62.9102">StoryEvent</text><line style="stroke: #A80036; stroke-width: 1.5;" x1="1041" x2="1239" y1="74" y2="74"/><text fill="#000000" font-family="sans-serif" font-size="11" lengthAdjust="spacingAndGlyphs" textLength="58" x="1046" y="89.4189">+eventId: int</text><text fill="#000000" font-family="sans-serif" font-size="11" lengthAdjust="spacingAndGlyphs" textLength="92" x="1046" y="103.2549">+description: string</text><text fill="#000000" font-family="sans-serif" font-size="11" lengthAdjust="spacingAndGlyphs" textLength="96" x="1046" y="117.0908">+parent: StoryEvent</text><text fill="#000000" font-family="sans-serif" font-size="11" lengthAdjust="spacingAndGlyphs" textLength="109" x="1046" y="130.9268">+children: StoryEvent[]</text><line style="stroke: #A80036; stroke-width: 1.5;" x1="1041" x2="1239" y1="137.3438" y2="137.3438"/><text fill="#000000" font-family="sans-serif" font-size="11" lengthAdjust="spacingAndGlyphs" textLength="188" x="1046" y="152.7627">+StoryEvent(parent: StoryEvent, id: int)</text><text fill="#000000" font-family="sans-serif" font-size="11" lengthAdjust="spacingAndGlyphs" textLength="81" x="1046" y="166.5986">+addChild(): void</text><!--MD5=[efd5ebcc74ce0165d13c1df9fdb2b1d2]
class StoryGraph--><rect codeLine="15" fill="#FEFECE" filter="url(#f1jjujngg20kbv)" height="186.3594" id="StoryGraph" style="stroke: #A80036; stroke-width: 1.5;" width="274" x="1003" y="293.5"/><ellipse cx="1105.25" cy="309.5" fill="#ADD1B2" rx="11" ry="11" style="stroke: #A80036; stroke-width: 1.0;"/><path d="M1108.0156,305.375 Q1108.1719,305.1563 1108.3594,305.0469 Q1108.5469,304.9375 1108.7656,304.9375 Q1109.1406,304.9375 1109.375,305.2031 Q1109.6094,305.4531 1109.6094,306.0625 L1109.6094,307.5156 Q1109.6094,308.125 1109.375,308.3906 Q1109.1406,308.6563 1108.7656,308.6563 Q1108.4219,308.6563 1108.2188,308.4531 Q1108.0156,308.2656 1107.9063,307.75 Q1107.8594,307.3906 1107.6719,307.2031 Q1107.3438,306.8281 1106.7344,306.6094 Q1106.125,306.3906 1105.5,306.3906 Q1104.7344,306.3906 1104.0938,306.7188 Q1103.4688,307.0469 1102.9688,307.7969 Q1102.4844,308.5469 1102.4844,309.5781 L1102.4844,310.6719 Q1102.4844,311.9063 1103.375,312.7344 Q1104.2656,313.5469 1105.8594,313.5469 Q1106.7969,313.5469 1107.4531,313.2969 Q1107.8438,313.1406 1108.2656,312.7031 Q1108.5313,312.4375 1108.6719,312.3594 Q1108.8281,312.2813 1109.0313,312.2813 Q1109.3594,312.2813 1109.6094,312.5469 Q1109.875,312.7969 1109.875,313.1406 Q1109.875,313.4844 1109.5313,313.8906 Q1109.0313,314.4688 1108.2344,314.7969 Q1107.1563,315.25 1105.8594,315.25 Q1104.3438,315.25 1103.1406,314.625 Q1102.1563,314.125 1101.4688,313.0625 Q1100.7813,311.9844 1100.7813,310.7031 L1100.7813,309.5469 Q1100.7813,308.2188 1101.3906,307.0781 Q1102.0156,305.9219 1103.1094,305.3125 Q1104.2031,304.6875 1105.4375,304.6875 Q1106.1719,304.6875 1106.8125,304.8594 Q1107.4688,305.0156 1108.0156,305.375 Z "/><text fill="#000000" font-family="sans-serif" font-size="12" lengthAdjust="spacingAndGlyphs" textLength="61" x="1125.75" y="314.4102">StoryGraph</text><line style="stroke: #A80036; stroke-width: 1.5;" x1="1004" x2="1276" y1="325.5" y2="325.5"/><text fill="#000000" font-family="sans-serif" font-size="11" lengthAdjust="spacingAndGlyphs" textLength="31" x="1009" y="340.9189">+id: int</text><text fill="#000000" font-family="sans-serif" font-size="11" lengthAdjust="spacingAndGlyphs" textLength="107" x="1009" y="354.7549">+character: Character</text><text fill="#000000" font-family="sans-serif" font-size="11" lengthAdjust="spacingAndGlyphs" textLength="84" x="1009" y="368.5908">+root: StoryEvent</text><text fill="#000000" font-family="sans-serif" font-size="11" lengthAdjust="spacingAndGlyphs" textLength="127" x="1009" y="382.4268">+currentEvent: StoryEvent</text><line style="stroke: #A80036; stroke-width: 1.5;" x1="1004" x2="1276" y1="388.8438" y2="388.8438"/><text fill="#000000" font-family="sans-serif" font-size="11" lengthAdjust="spacingAndGlyphs" textLength="95" x="1009" y="404.2627">+StoryGraph(id: int)</text><text fill="#000000" font-family="sans-serif" font-size="11" lengthAdjust="spacingAndGlyphs" textLength="140" x="1009" y="418.0986">+loadGraphFromFile(): Graph</text><text fill="#000000" font-family="sans-serif" font-size="11" lengthAdjust="spacingAndGlyphs" textLength="122" x="1009" y="431.9346">+saveGraphToFile(): void</text><text fill="#000000" font-family="sans-serif" font-size="11" lengthAdjust="spacingAndGlyphs" textLength="183" x="1009" y="445.7705">+getNextPossibleEvent(): StoryEvent[]</text><text fill="#000000" font-family="sans-serif" font-size="11" lengthAdjust="spacingAndGlyphs" textLength="262" x="1009" y="459.6064">+setCurrentEvent(newCurrentEvent: StoryEvent): void</text><text fill="#000000" font-family="sans-serif" font-size="11" lengthAdjust="spacingAndGlyphs" textLength="209" x="1009" y="473.4424">+getNextStoryEventById(id: int): StoryEvent</text><!--MD5=[42e1add689e888dd7b55d3ee3f1dd6d7]
class Skill--><rect codeLine="28" fill="#FEFECE" filter="url(#f1jjujngg20kbv)" height="131.0156" id="Skill" style="stroke: #A80036; stroke-width: 1.5;" width="169" x="956.5" y="773.5"/><ellipse cx="1025.25" cy="789.5" fill="#ADD1B2" rx="11" ry="11" style="stroke: #A80036; stroke-width: 1.0;"/><path d="M1028.0156,785.375 Q1028.1719,785.1563 1028.3594,785.0469 Q1028.5469,784.9375 1028.7656,784.9375 Q1029.1406,784.9375 1029.375,785.2031 Q1029.6094,785.4531 1029.6094,786.0625 L1029.6094,787.5156 Q1029.6094,788.125 1029.375,788.3906 Q1029.1406,788.6563 1028.7656,788.6563 Q1028.4219,788.6563 1028.2188,788.4531 Q1028.0156,788.2656 1027.9063,787.75 Q1027.8594,787.3906 1027.6719,787.2031 Q1027.3438,786.8281 1026.7344,786.6094 Q1026.125,786.3906 1025.5,786.3906 Q1024.7344,786.3906 1024.0938,786.7188 Q1023.4688,787.0469 1022.9688,787.7969 Q1022.4844,788.5469 1022.4844,789.5781 L1022.4844,790.6719 Q1022.4844,791.9063 1023.375,792.7344 Q1024.2656,793.5469 1025.8594,793.5469 Q1026.7969,793.5469 1027.4531,793.2969 Q1027.8438,793.1406 1028.2656,792.7031 Q1028.5313,792.4375 1028.6719,792.3594 Q1028.8281,792.2813 1029.0313,792.2813 Q1029.3594,792.2813 1029.6094,792.5469 Q1029.875,792.7969 1029.875,793.1406 Q1029.875,793.4844 1029.5313,793.8906 Q1029.0313,794.4688 1028.2344,794.7969 Q1027.1563,795.25 1025.8594,795.25 Q1024.3438,795.25 1023.1406,794.625 Q1022.1563,794.125 1021.4688,793.0625 Q1020.7813,791.9844 1020.7813,790.7031 L1020.7813,789.5469 Q1020.7813,788.2188 1021.3906,787.0781 Q1022.0156,785.9219 1023.1094,785.3125 Q1024.2031,784.6875 1025.4375,784.6875 Q1026.1719,784.6875 1026.8125,784.8594 Q1027.4688,785.0156 1028.0156,785.375 Z "/><text fill="#000000" font-family="sans-serif" font-size="12" lengthAdjust="spacingAndGlyphs" textLength="23" x="1045.75" y="794.4102">Skill</text><line style="stroke: #A80036; stroke-width: 1.5;" x1="957.5" x2="1124.5" y1="805.5" y2="805.5"/><text fill="#000000" font-family="sans-serif" font-size="11" lengthAdjust="spacingAndGlyphs" textLength="31" x="962.5" y="820.9189">+id: int</text><text fill="#000000" font-family="sans-serif" font-size="11" lengthAdjust="spacingAndGlyphs" textLength="49" x="962.5" y="834.7549">+value: int</text><text fill="#000000" font-family="sans-serif" font-size="11" lengthAdjust="spacingAndGlyphs" textLength="92" x="962.5" y="848.5908">+description: string</text><line style="stroke: #A80036; stroke-width: 1.5;" x1="957.5" x2="1124.5" y1="855.0078" y2="855.0078"/><text fill="#000000" font-family="sans-serif" font-size="11" lengthAdjust="spacingAndGlyphs" textLength="157" x="962.5" y="870.4268">+Skill(id: int, val: int, desc: string)</text><text fill="#000000" font-family="sans-serif" font-size="11" lengthAdjust="spacingAndGlyphs" textLength="114" x="962.5" y="884.2627">+setValue(val: int): void</text><text fill="#000000" font-family="sans-serif" font-size="11" lengthAdjust="spacingAndGlyphs" textLength="74" x="962.5" y="898.0986">+getValue(): int</text><!--MD5=[3eff9d4279c887ef9286477750bdaaff]
class Character--><rect codeLine="37" fill="#FEFECE" filter="url(#f1jjujngg20kbv)" height="103.3438" id="Character" style="stroke: #A80036; stroke-width: 1.5;" width="88" x="1009" y="540.5"/><ellipse cx="1024.9" cy="556.5" fill="#ADD1B2" rx="11" ry="11" style="stroke: #A80036; stroke-width: 1.0;"/><path d="M1027.6656,552.375 Q1027.8219,552.1563 1028.0094,552.0469 Q1028.1969,551.9375 1028.4156,551.9375 Q1028.7906,551.9375 1029.025,552.2031 Q1029.2594,552.4531 1029.2594,553.0625 L1029.2594,554.5156 Q1029.2594,555.125 1029.025,555.3906 Q1028.7906,555.6563 1028.4156,555.6563 Q1028.0719,555.6563 1027.8688,555.4531 Q1027.6656,555.2656 1027.5563,554.75 Q1027.5094,554.3906 1027.3219,554.2031 Q1026.9938,553.8281 1026.3844,553.6094 Q1025.775,553.3906 1025.15,553.3906 Q1024.3844,553.3906 1023.7438,553.7188 Q1023.1188,554.0469 1022.6188,554.7969 Q1022.1344,555.5469 1022.1344,556.5781 L1022.1344,557.6719 Q1022.1344,558.9063 1023.025,559.7344 Q1023.9156,560.5469 1025.5094,560.5469 Q1026.4469,560.5469 1027.1031,560.2969 Q1027.4938,560.1406 1027.9156,559.7031 Q1028.1813,559.4375 1028.3219,559.3594 Q1028.4781,559.2813 1028.6813,559.2813 Q1029.0094,559.2813 1029.2594,559.5469 Q1029.525,559.7969 1029.525,560.1406 Q1029.525,560.4844 1029.1813,560.8906 Q1028.6813,561.4688 1027.8844,561.7969 Q1026.8063,562.25 1025.5094,562.25 Q1023.9938,562.25 1022.7906,561.625 Q1021.8063,561.125 1021.1188,560.0625 Q1020.4313,558.9844 1020.4313,557.7031 L1020.4313,556.5469 Q1020.4313,555.2188 1021.0406,554.0781 Q1021.6656,552.9219 1022.7594,552.3125 Q1023.8531,551.6875 1025.0875,551.6875 Q1025.8219,551.6875 1026.4625,551.8594 Q1027.1188,552.0156 1027.6656,552.375 Z "/><text fill="#000000" font-family="sans-serif" font-size="12" lengthAdjust="spacingAndGlyphs" textLength="54" x="1039.1" y="561.4102">Character</text><line style="stroke: #A80036; stroke-width: 1.5;" x1="1010" x2="1096" y1="572.5" y2="572.5"/><text fill="#000000" font-family="sans-serif" font-size="11" lengthAdjust="spacingAndGlyphs" textLength="76" x="1015" y="587.9189">+sprite: Texture</text><text fill="#000000" font-family="sans-serif" font-size="11" lengthAdjust="spacingAndGlyphs" textLength="71" x="1015" y="601.7549">+abilities: Skill[]</text><text fill="#000000" font-family="sans-serif" font-size="11" lengthAdjust="spacingAndGlyphs" textLength="65" x="1015" y="615.5908">+name: string</text><line style="stroke: #A80036; stroke-width: 1.5;" x1="1010" x2="1096" y1="622.0078" y2="622.0078"/><text fill="#000000" font-family="sans-serif" font-size="11" lengthAdjust="spacingAndGlyphs" textLength="62" x="1015" y="637.4268">+Character()</text><!--MD5=[bb849c1528464e2c6bbfb2687d0866b0]
class mf--><rect codeLine="44" fill="#FEFECE" filter="url(#f1jjujngg20kbv)" height="103.3438" id="mf" style="stroke: #A80036; stroke-width: 1.5;" width="170" x="1149" y="540.5"/><ellipse cx="1189.65" cy="556.5" fill="#ADD1B2" rx="11" ry="11" style="stroke: #A80036; stroke-width: 1.0;"/><path d="M1192.4156,552.375 Q1192.5719,552.1563 1192.7594,552.0469 Q1192.9469,551.9375 1193.1656,551.9375 Q1193.5406,551.9375 1193.775,552.2031 Q1194.0094,552.4531 1194.0094,553.0625 L1194.0094,554.5156 Q1194.0094,555.125 1193.775,555.3906 Q1193.5406,555.6563 1193.1656,555.6563 Q1192.8219,555.6563 1192.6188,555.4531 Q1192.4156,555.2656 1192.3063,554.75 Q1192.2594,554.3906 1192.0719,554.2031 Q1191.7438,553.8281 1191.1344,553.6094 Q1190.525,553.3906 1189.9,553.3906 Q1189.1344,553.3906 1188.4938,553.7188 Q1187.8688,554.0469 1187.3688,554.7969 Q1186.8844,555.5469 1186.8844,556.5781 L1186.8844,557.6719 Q1186.8844,558.9063 1187.775,559.7344 Q1188.6656,560.5469 1190.2594,560.5469 Q1191.1969,560.5469 1191.8531,560.2969 Q1192.2438,560.1406 1192.6656,559.7031 Q1192.9313,559.4375 1193.0719,559.3594 Q1193.2281,559.2813 1193.4313,559.2813 Q1193.7594,559.2813 1194.0094,559.5469 Q1194.275,559.7969 1194.275,560.1406 Q1194.275,560.4844 1193.9313,560.8906 Q1193.4313,561.4688 1192.6344,561.7969 Q1191.5563,562.25 1190.2594,562.25 Q1188.7438,562.25 1187.5406,561.625 Q1186.5563,561.125 1185.8688,560.0625 Q1185.1813,558.9844 1185.1813,557.7031 L1185.1813,556.5469 Q1185.1813,555.2188 1185.7906,554.0781 Q1186.4156,552.9219 1187.5094,552.3125 Q1188.6031,551.6875 1189.8375,551.6875 Q1190.5719,551.6875 1191.2125,551.8594 Q1191.8688,552.0156 1192.4156,552.375 Z "/><text fill="#000000" font-family="sans-serif" font-size="12" lengthAdjust="spacingAndGlyphs" textLength="81" x="1209.35" y="561.4102">ModeratorView</text><line style="stroke: #A80036; stroke-width: 1.5;" x1="1150" x2="1318" y1="572.5" y2="572.5"/><text fill="#000000" font-family="sans-serif" font-size="11" lengthAdjust="spacingAndGlyphs" textLength="97" x="1155" y="587.9189">+timeoutDuration: int</text><line style="stroke: #A80036; stroke-width: 1.5;" x1="1150" x2="1318" y1="594.3359" y2="594.3359"/><text fill="#000000" font-family="sans-serif" font-size="11" lengthAdjust="spacingAndGlyphs" textLength="89" x="1155" y="609.7549">+ModeratorView()</text><text fill="#000000" font-family="sans-serif" font-size="11" lengthAdjust="spacingAndGlyphs" textLength="158" x="1155" y="623.5908">+pausePolling(val: boolean): void</text><text fill="#000000" font-family="sans-serif" font-size="11" lengthAdjust="spacingAndGlyphs" textLength="154" x="1155" y="637.4268">+offlineMode(val: boolean): void</text><!--MD5=[9105e509a9f69a1dfba1c0054edeb4e1]
class pe--><rect codeLine="51" fill="#FEFECE" filter="url(#f1jjujngg20kbv)" height="158.6875" id="pe" style="stroke: #A80036; stroke-width: 1.5;" width="164" x="1161" y="759.5"/><ellipse cx="1203" cy="775.5" fill="#ADD1B2" rx="11" ry="11" style="stroke: #A80036; stroke-width: 1.0;"/><path d="M1205.7656,771.375 Q1205.9219,771.1563 1206.1094,771.0469 Q1206.2969,770.9375 1206.5156,770.9375 Q1206.8906,770.9375 1207.125,771.2031 Q1207.3594,771.4531 1207.3594,772.0625 L1207.3594,773.5156 Q1207.3594,774.125 1207.125,774.3906 Q1206.8906,774.6563 1206.5156,774.6563 Q1206.1719,774.6563 1205.9688,774.4531 Q1205.7656,774.2656 1205.6563,773.75 Q1205.6094,773.3906 1205.4219,773.2031 Q1205.0938,772.8281 1204.4844,772.6094 Q1203.875,772.3906 1203.25,772.3906 Q1202.4844,772.3906 1201.8438,772.7188 Q1201.2188,773.0469 1200.7188,773.7969 Q1200.2344,774.5469 1200.2344,775.5781 L1200.2344,776.6719 Q1200.2344,777.9063 1201.125,778.7344 Q1202.0156,779.5469 1203.6094,779.5469 Q1204.5469,779.5469 1205.2031,779.2969 Q1205.5938,779.1406 1206.0156,778.7031 Q1206.2813,778.4375 1206.4219,778.3594 Q1206.5781,778.2813 1206.7813,778.2813 Q1207.1094,778.2813 1207.3594,778.5469 Q1207.625,778.7969 1207.625,779.1406 Q1207.625,779.4844 1207.2813,779.8906 Q1206.7813,780.4688 1205.9844,780.7969 Q1204.9063,781.25 1203.6094,781.25 Q1202.0938,781.25 1200.8906,780.625 Q1199.9063,780.125 1199.2188,779.0625 Q1198.5313,777.9844 1198.5313,776.7031 L1198.5313,775.5469 Q1198.5313,774.2188 1199.1406,773.0781 Q1199.7656,771.9219 1200.8594,771.3125 Q1201.9531,770.6875 1203.1875,770.6875 Q1203.9219,770.6875 1204.5625,770.8594 Q1205.2188,771.0156 1205.7656,771.375 Z "/><text fill="#000000" font-family="sans-serif" font-size="12" lengthAdjust="spacingAndGlyphs" textLength="72" x="1223" y="780.4102">PollEvaluator</text><line style="stroke: #A80036; stroke-width: 1.5;" x1="1162" x2="1324" y1="791.5" y2="791.5"/><text fill="#000000" font-family="sans-serif" font-size="11" lengthAdjust="spacingAndGlyphs" textLength="152" x="1167" y="806.9189">possibleDecisions: StoryEvent[]</text><text fill="#000000" font-family="sans-serif" font-size="11" lengthAdjust="spacingAndGlyphs" textLength="51" x="1167" y="820.7549">timeout: int</text><text fill="#000000" font-family="sans-serif" font-size="11" lengthAdjust="spacingAndGlyphs" textLength="82" x="1167" y="834.5908">voteCounter: int[]</text><line style="stroke: #A80036; stroke-width: 1.5;" x1="1162" x2="1324" y1="841.0078" y2="841.0078"/><text fill="#000000" font-family="sans-serif" font-size="11" lengthAdjust="spacingAndGlyphs" textLength="75" x="1167" y="856.4268">+PollEvaluator()</text><text fill="#000000" font-family="sans-serif" font-size="11" lengthAdjust="spacingAndGlyphs" textLength="133" x="1167" y="870.2627">+checkServerStatus(): void</text><text fill="#000000" font-family="sans-serif" font-size="11" lengthAdjust="spacingAndGlyphs" textLength="152" x="1167" y="884.0986">+broadcastNextDecision(): void</text><text fill="#000000" font-family="sans-serif" font-size="11" lengthAdjust="spacingAndGlyphs" textLength="101" x="1167" y="897.9346">+evaluateVotes(): int</text><text fill="#000000" font-family="sans-serif" font-size="11" lengthAdjust="spacingAndGlyphs" textLength="81" x="1167" y="911.7705">+addVote(): void</text><!--MD5=[aef0d3d3c8a893455b9107cd4a3b357c]
class mcei--><rect codeLine="63" fill="#FEFECE" filter="url(#f1jjujngg20kbv)" height="117.1797" id="mcei" style="stroke: #A80036; stroke-width: 1.5;" width="230" x="999" y="1090"/><ellipse cx="1039.65" cy="1106" fill="#ADD1B2" rx="11" ry="11" style="stroke: #A80036; stroke-width: 1.0;"/><path d="M1042.4156,1101.875 Q1042.5719,1101.6563 1042.7594,1101.5469 Q1042.9469,1101.4375 1043.1656,1101.4375 Q1043.5406,1101.4375 1043.775,1101.7031 Q1044.0094,1101.9531 1044.0094,1102.5625 L1044.0094,1104.0156 Q1044.0094,1104.625 1043.775,1104.8906 Q1043.5406,1105.1563 1043.1656,1105.1563 Q1042.8219,1105.1563 1042.6188,1104.9531 Q1042.4156,1104.7656 1042.3063,1104.25 Q1042.2594,1103.8906 1042.0719,1103.7031 Q1041.7438,1103.3281 1041.1344,1103.1094 Q1040.525,1102.8906 1039.9,1102.8906 Q1039.1344,1102.8906 1038.4938,1103.2188 Q1037.8688,1103.5469 1037.3688,1104.2969 Q1036.8844,1105.0469 1036.8844,1106.0781 L1036.8844,1107.1719 Q1036.8844,1108.4063 1037.775,1109.2344 Q1038.6656,1110.0469 1040.2594,1110.0469 Q1041.1969,1110.0469 1041.8531,1109.7969 Q1042.2438,1109.6406 1042.6656,1109.2031 Q1042.9313,1108.9375 1043.0719,1108.8594 Q1043.2281,1108.7813 1043.4313,1108.7813 Q1043.7594,1108.7813 1044.0094,1109.0469 Q1044.275,1109.2969 1044.275,1109.6406 Q1044.275,1109.9844 1043.9313,1110.3906 Q1043.4313,1110.9688 1042.6344,1111.2969 Q1041.5563,1111.75 1040.2594,1111.75 Q1038.7438,1111.75 1037.5406,1111.125 Q1036.5563,1110.625 1035.8688,1109.5625 Q1035.1813,1108.4844 1035.1813,1107.2031 L1035.1813,1106.0469 Q1035.1813,1104.7188 1035.7906,1103.5781 Q1036.4156,1102.4219 1037.5094,1101.8125 Q1038.6031,1101.1875 1039.8375,1101.1875 Q1040.5719,1101.1875 1041.2125,1101.3594 Q1041.8688,1101.5156 1042.4156,1101.875 Z "/><text fill="#000000" font-family="sans-serif" font-size="12" lengthAdjust="spacingAndGlyphs" textLength="141" x="1059.35" y="1110.9102">ModeratorClientExchange</text><line style="stroke: #A80036; stroke-width: 1.5;" x1="1000" x2="1228" y1="1122" y2="1122"/><text fill="#000000" font-family="sans-serif" font-size="11" lengthAdjust="spacingAndGlyphs" textLength="121" x="1005" y="1137.4189">+websocket: WebSocket</text><text fill="#000000" font-family="sans-serif" font-size="11" lengthAdjust="spacingAndGlyphs" textLength="218" x="1005" y="1151.2549">+authentificationTokenModeratorClient: Token</text><line style="stroke: #A80036; stroke-width: 1.5;" x1="1000" x2="1228" y1="1157.6719" y2="1157.6719"/><text fill="#000000" font-family="sans-serif" font-size="11" lengthAdjust="spacingAndGlyphs" textLength="137" x="1005" y="1173.0908">+ModeratorClientExchange()</text><text fill="#000000" font-family="sans-serif" font-size="11" lengthAdjust="spacingAndGlyphs" textLength="118" x="1005" y="1186.9268">+getCurrentPollEval(): int</text><text fill="#000000" font-family="sans-serif" font-size="11" lengthAdjust="spacingAndGlyphs" textLength="99" x="1005" y="1200.7627">+makeJSON(): string</text><!--MD5=[1e281070be324fe4119de6bf55ec0dae]
class api--><rect codeLine="80" fill="#FEFECE" filter="url(#f1jjujngg20kbv)" height="144.8516" id="api" style="stroke: #A80036; stroke-width: 1.5;" width="306" x="594" y="1076"/><ellipse cx="733.75" cy="1092" fill="#ADD1B2" rx="11" ry="11" style="stroke: #A80036; stroke-width: 1.0;"/><path d="M736.5156,1087.875 Q736.6719,1087.6563 736.8594,1087.5469 Q737.0469,1087.4375 737.2656,1087.4375 Q737.6406,1087.4375 737.875,1087.7031 Q738.1094,1087.9531 738.1094,1088.5625 L738.1094,1090.0156 Q738.1094,1090.625 737.875,1090.8906 Q737.6406,1091.1563 737.2656,1091.1563 Q736.9219,1091.1563 736.7188,1090.9531 Q736.5156,1090.7656 736.4063,1090.25 Q736.3594,1089.8906 736.1719,1089.7031 Q735.8438,1089.3281 735.2344,1089.1094 Q734.625,1088.8906 734,1088.8906 Q733.2344,1088.8906 732.5938,1089.2188 Q731.9688,1089.5469 731.4688,1090.2969 Q730.9844,1091.0469 730.9844,1092.0781 L730.9844,1093.1719 Q730.9844,1094.4063 731.875,1095.2344 Q732.7656,1096.0469 734.3594,1096.0469 Q735.2969,1096.0469 735.9531,1095.7969 Q736.3438,1095.6406 736.7656,1095.2031 Q737.0313,1094.9375 737.1719,1094.8594 Q737.3281,1094.7813 737.5313,1094.7813 Q737.8594,1094.7813 738.1094,1095.0469 Q738.375,1095.2969 738.375,1095.6406 Q738.375,1095.9844 738.0313,1096.3906 Q737.5313,1096.9688 736.7344,1097.2969 Q735.6563,1097.75 734.3594,1097.75 Q732.8438,1097.75 731.6406,1097.125 Q730.6563,1096.625 729.9688,1095.5625 Q729.2813,1094.4844 729.2813,1093.2031 L729.2813,1092.0469 Q729.2813,1090.7188 729.8906,1089.5781 Q730.5156,1088.4219 731.6094,1087.8125 Q732.7031,1087.1875 733.9375,1087.1875 Q734.6719,1087.1875 735.3125,1087.3594 Q735.9688,1087.5156 736.5156,1087.875 Z "/><text fill="#000000" font-family="sans-serif" font-size="12" lengthAdjust="spacingAndGlyphs" textLength="18" x="754.25" y="1096.9102">API</text><line style="stroke: #A80036; stroke-width: 1.5;" x1="595" x2="899" y1="1108" y2="1108"/><text fill="#000000" font-family="sans-serif" font-size="11" lengthAdjust="spacingAndGlyphs" textLength="148" x="600" y="1123.4189">+observerCollection: Observer</text><line style="stroke: #A80036; stroke-width: 1.5;" x1="595" x2="899" y1="1129.8359" y2="1129.8359"/><text fill="#000000" font-family="sans-serif" font-size="11" lengthAdjust="spacingAndGlyphs" textLength="30" x="600" y="1145.2549">+API()</text><text fill="#000000" font-family="sans-serif" font-size="11" lengthAdjust="spacingAndGlyphs" textLength="294" x="600" y="1159.0908">+registerObserver(observer: Observer, cookie: Cookie): void</text><text fill="#000000" font-family="sans-serif" font-size="11" lengthAdjust="spacingAndGlyphs" textLength="231" x="600" y="1172.9268">+unregisterObserver(observer: Observer): void</text><text fill="#000000" font-family="sans-serif" font-size="11" lengthAdjust="spacingAndGlyphs" textLength="119" x="600" y="1186.7627">+notifyObservers(): void</text><text fill="#000000" font-family="sans-serif" font-size="11" lengthAdjust="spacingAndGlyphs" textLength="160" x="600" y="1200.5986">+updatePossibleDecisions(): void</text><text fill="#000000" font-family="sans-serif" font-size="11" lengthAdjust="spacingAndGlyphs" textLength="100" x="600" y="1214.4346">+collectVotes(): void</text><!--MD5=[6bfcf15cc25972516e1f43cee16dbcb3]
class ss--><rect codeLine="91" fill="#FEFECE" filter="url(#f1jjujngg20kbv)" height="269.375" id="ss" style="stroke: #A80036; stroke-width: 1.5;" width="206" x="192" y="704.5"/><ellipse cx="259.25" cy="720.5" fill="#ADD1B2" rx="11" ry="11" style="stroke: #A80036; stroke-width: 1.0;"/><path d="M262.0156,716.375 Q262.1719,716.1563 262.3594,716.0469 Q262.5469,715.9375 262.7656,715.9375 Q263.1406,715.9375 263.375,716.2031 Q263.6094,716.4531 263.6094,717.0625 L263.6094,718.5156 Q263.6094,719.125 263.375,719.3906 Q263.1406,719.6563 262.7656,719.6563 Q262.4219,719.6563 262.2188,719.4531 Q262.0156,719.2656 261.9063,718.75 Q261.8594,718.3906 261.6719,718.2031 Q261.3438,717.8281 260.7344,717.6094 Q260.125,717.3906 259.5,717.3906 Q258.7344,717.3906 258.0938,717.7188 Q257.4688,718.0469 256.9688,718.7969 Q256.4844,719.5469 256.4844,720.5781 L256.4844,721.6719 Q256.4844,722.9063 257.375,723.7344 Q258.2656,724.5469 259.8594,724.5469 Q260.7969,724.5469 261.4531,724.2969 Q261.8438,724.1406 262.2656,723.7031 Q262.5313,723.4375 262.6719,723.3594 Q262.8281,723.2813 263.0313,723.2813 Q263.3594,723.2813 263.6094,723.5469 Q263.875,723.7969 263.875,724.1406 Q263.875,724.4844 263.5313,724.8906 Q263.0313,725.4688 262.2344,725.7969 Q261.1563,726.25 259.8594,726.25 Q258.3438,726.25 257.1406,725.625 Q256.1563,725.125 255.4688,724.0625 Q254.7813,722.9844 254.7813,721.7031 L254.7813,720.5469 Q254.7813,719.2188 255.3906,718.0781 Q256.0156,716.9219 257.1094,716.3125 Q258.2031,715.6875 259.4375,715.6875 Q260.1719,715.6875 260.8125,715.8594 Q261.4688,716.0156 262.0156,716.375 Z "/><text fill="#000000" font-family="sans-serif" font-size="12" lengthAdjust="spacingAndGlyphs" textLength="63" x="279.75" y="725.4102">ServerShell</text><line style="stroke: #A80036; stroke-width: 1.5;" x1="193" x2="397" y1="736.5" y2="736.5"/><text fill="#000000" font-family="sans-serif" font-size="11" lengthAdjust="spacingAndGlyphs" textLength="80" x="198" y="751.9189">+Logger: Logger</text><text fill="#000000" font-family="sans-serif" font-size="11" lengthAdjust="spacingAndGlyphs" textLength="42" x="198" y="765.7549">+port: int</text><text fill="#000000" font-family="sans-serif" font-size="11" lengthAdjust="spacingAndGlyphs" textLength="89" x="198" y="779.5908">+runShell: boolean</text><text fill="#000000" font-family="sans-serif" font-size="11" lengthAdjust="spacingAndGlyphs" textLength="123" x="198" y="793.4268">+serverShell: ServerShell</text><text fill="#000000" font-family="sans-serif" font-size="11" lengthAdjust="spacingAndGlyphs" textLength="64" x="198" y="807.2627">+capacity: int</text><text fill="#000000" font-family="sans-serif" font-size="11" lengthAdjust="spacingAndGlyphs" textLength="167" x="198" y="821.0986">+bufferedReader: BufferedReader</text><line style="stroke: #A80036; stroke-width: 1.5;" x1="193" x2="397" y1="827.5156" y2="827.5156"/><text fill="#000000" font-family="sans-serif" font-size="11" lengthAdjust="spacingAndGlyphs" textLength="70" x="198" y="842.9346">+ServerShell()</text><text fill="#000000" font-family="sans-serif" font-size="11" lengthAdjust="spacingAndGlyphs" textLength="85" x="198" y="856.7705">+startShell(): void</text><text fill="#000000" font-family="sans-serif" font-size="11" lengthAdjust="spacingAndGlyphs" textLength="84" x="198" y="870.6064">+stopShell(): void</text><text fill="#000000" font-family="sans-serif" font-size="11" lengthAdjust="spacingAndGlyphs" textLength="194" x="198" y="884.4424">+parseCommand(command: string): void</text><text fill="#000000" font-family="sans-serif" font-size="11" lengthAdjust="spacingAndGlyphs" textLength="89" x="198" y="898.2783">+showHelp(): void</text><text fill="#000000" font-family="sans-serif" font-size="11" lengthAdjust="spacingAndGlyphs" textLength="89" x="198" y="912.1143">+configPort(): void</text><text fill="#000000" font-family="sans-serif" font-size="11" lengthAdjust="spacingAndGlyphs" textLength="112" x="198" y="925.9502">+configCapacity(): void</text><text fill="#000000" font-family="sans-serif" font-size="11" lengthAdjust="spacingAndGlyphs" textLength="95" x="198" y="939.7861">+startServer(): void</text><text fill="#000000" font-family="sans-serif" font-size="11" lengthAdjust="spacingAndGlyphs" textLength="94" x="198" y="953.6221">+stopServer(): void</text><text fill="#000000" font-family="sans-serif" font-size="11" lengthAdjust="spacingAndGlyphs" textLength="123" x="198" y="967.458">+main(args: string[]): void</text><!--MD5=[952aa88079c2ad50e6f0d17205c717c0]
class cm--><rect codeLine="110" fill="#FEFECE" filter="url(#f1jjujngg20kbv)" height="227.8672" id="cm" style="stroke: #A80036; stroke-width: 1.5;" width="252" x="307" y="1034.5"/><ellipse cx="361.25" cy="1050.5" fill="#ADD1B2" rx="11" ry="11" style="stroke: #A80036; stroke-width: 1.0;"/><path d="M364.0156,1046.375 Q364.1719,1046.1563 364.3594,1046.0469 Q364.5469,1045.9375 364.7656,1045.9375 Q365.1406,1045.9375 365.375,1046.2031 Q365.6094,1046.4531 365.6094,1047.0625 L365.6094,1048.5156 Q365.6094,1049.125 365.375,1049.3906 Q365.1406,1049.6563 364.7656,1049.6563 Q364.4219,1049.6563 364.2188,1049.4531 Q364.0156,1049.2656 363.9063,1048.75 Q363.8594,1048.3906 363.6719,1048.2031 Q363.3438,1047.8281 362.7344,1047.6094 Q362.125,1047.3906 361.5,1047.3906 Q360.7344,1047.3906 360.0938,1047.7188 Q359.4688,1048.0469 358.9688,1048.7969 Q358.4844,1049.5469 358.4844,1050.5781 L358.4844,1051.6719 Q358.4844,1052.9063 359.375,1053.7344 Q360.2656,1054.5469 361.8594,1054.5469 Q362.7969,1054.5469 363.4531,1054.2969 Q363.8438,1054.1406 364.2656,1053.7031 Q364.5313,1053.4375 364.6719,1053.3594 Q364.8281,1053.2813 365.0313,1053.2813 Q365.3594,1053.2813 365.6094,1053.5469 Q365.875,1053.7969 365.875,1054.1406 Q365.875,1054.4844 365.5313,1054.8906 Q365.0313,1055.4688 364.2344,1055.7969 Q363.1563,1056.25 361.8594,1056.25 Q360.3438,1056.25 359.1406,1055.625 Q358.1563,1055.125 357.4688,1054.0625 Q356.7813,1052.9844 356.7813,1051.7031 L356.7813,1050.5469 Q356.7813,1049.2188 357.3906,1048.0781 Q358.0156,1046.9219 359.1094,1046.3125 Q360.2031,1045.6875 361.4375,1045.6875 Q362.1719,1045.6875 362.8125,1045.8594 Q363.4688,1046.0156 364.0156,1046.375 Z "/><text fill="#000000" font-family="sans-serif" font-size="12" lengthAdjust="spacingAndGlyphs" textLength="135" x="381.75" y="1055.4102">ModeratorClientManager</text><line style="stroke: #A80036; stroke-width: 1.5;" x1="308" x2="558" y1="1066.5" y2="1066.5"/><text fill="#000000" font-family="sans-serif" font-size="11" lengthAdjust="spacingAndGlyphs" textLength="122" x="313" y="1081.9189">+webSocket: WebSocket</text><text fill="#000000" font-family="sans-serif" font-size="11" lengthAdjust="spacingAndGlyphs" textLength="31" x="313" y="1095.7549">+ip: int</text><text fill="#000000" font-family="sans-serif" font-size="11" lengthAdjust="spacingAndGlyphs" textLength="42" x="313" y="1109.5908">+port: int</text><text fill="#000000" font-family="sans-serif" font-size="11" lengthAdjust="spacingAndGlyphs" textLength="76" x="313" y="1123.4268">+logger: Logger</text><text fill="#000000" font-family="sans-serif" font-size="11" lengthAdjust="spacingAndGlyphs" textLength="218" x="313" y="1137.2627">+authentificationTokenModeratorClient: Token</text><line style="stroke: #A80036; stroke-width: 1.5;" x1="308" x2="558" y1="1143.6797" y2="1143.6797"/><text fill="#000000" font-family="sans-serif" font-size="11" lengthAdjust="spacingAndGlyphs" textLength="240" x="313" y="1159.0986">+ModeratorClientManager(session: Session): void</text><text fill="#000000" font-family="sans-serif" font-size="11" lengthAdjust="spacingAndGlyphs" textLength="93" x="313" y="1172.9346">+disconnect(): void</text><text fill="#000000" font-family="sans-serif" font-size="11" lengthAdjust="spacingAndGlyphs" textLength="106" x="313" y="1186.7705">+onDisconnect(): void</text><text fill="#000000" font-family="sans-serif" font-size="11" lengthAdjust="spacingAndGlyphs" textLength="153" x="313" y="1200.6064">+recieve(message: string): void</text><text fill="#000000" font-family="sans-serif" font-size="11" lengthAdjust="spacingAndGlyphs" textLength="173" x="313" y="1214.4424">+checkJSON(message: string): void</text><text fill="#000000" font-family="sans-serif" font-size="11" lengthAdjust="spacingAndGlyphs" textLength="185" x="313" y="1228.2783">+sendMessage(message: string): void</text><text fill="#000000" font-family="sans-serif" font-size="11" lengthAdjust="spacingAndGlyphs" textLength="141" x="313" y="1242.1143">+send(message: string): void</text><text fill="#000000" font-family="sans-serif" font-size="11" lengthAdjust="spacingAndGlyphs" textLength="153" x="313" y="1255.9502">+recieve(message: string): void</text><!--MD5=[380687b934d22663c3818bb6fe2c579f]
class msl--><rect codeLine="126" fill="#FEFECE" filter="url(#f1jjujngg20kbv)" height="117.1797" id="msl" style="stroke: #A80036; stroke-width: 1.5;" width="216" x="56" y="1090"/><ellipse cx="114.25" cy="1106" fill="#ADD1B2" rx="11" ry="11" style="stroke: #A80036; stroke-width: 1.0;"/><path d="M117.0156,1101.875 Q117.1719,1101.6563 117.3594,1101.5469 Q117.5469,1101.4375 117.7656,1101.4375 Q118.1406,1101.4375 118.375,1101.7031 Q118.6094,1101.9531 118.6094,1102.5625 L118.6094,1104.0156 Q118.6094,1104.625 118.375,1104.8906 Q118.1406,1105.1563 117.7656,1105.1563 Q117.4219,1105.1563 117.2188,1104.9531 Q117.0156,1104.7656 116.9063,1104.25 Q116.8594,1103.8906 116.6719,1103.7031 Q116.3438,1103.3281 115.7344,1103.1094 Q115.125,1102.8906 114.5,1102.8906 Q113.7344,1102.8906 113.0938,1103.2188 Q112.4688,1103.5469 111.9688,1104.2969 Q111.4844,1105.0469 111.4844,1106.0781 L111.4844,1107.1719 Q111.4844,1108.4063 112.375,1109.2344 Q113.2656,1110.0469 114.8594,1110.0469 Q115.7969,1110.0469 116.4531,1109.7969 Q116.8438,1109.6406 117.2656,1109.2031 Q117.5313,1108.9375 117.6719,1108.8594 Q117.8281,1108.7813 118.0313,1108.7813 Q118.3594,1108.7813 118.6094,1109.0469 Q118.875,1109.2969 118.875,1109.6406 Q118.875,1109.9844 118.5313,1110.3906 Q118.0313,1110.9688 117.2344,1111.2969 Q116.1563,1111.75 114.8594,1111.75 Q113.3438,1111.75 112.1406,1111.125 Q111.1563,1110.625 110.4688,1109.5625 Q109.7813,1108.4844 109.7813,1107.2031 L109.7813,1106.0469 Q109.7813,1104.7188 110.3906,1103.5781 Q111.0156,1102.4219 112.1094,1101.8125 Q113.2031,1101.1875 114.4375,1101.1875 Q115.1719,1101.1875 115.8125,1101.3594 Q116.4688,1101.5156 117.0156,1101.875 Z "/><text fill="#000000" font-family="sans-serif" font-size="12" lengthAdjust="spacingAndGlyphs" textLength="91" x="134.75" y="1110.9102">MainServerLogic</text><line style="stroke: #A80036; stroke-width: 1.5;" x1="57" x2="271" y1="1122" y2="1122"/><text fill="#000000" font-family="sans-serif" font-size="11" lengthAdjust="spacingAndGlyphs" textLength="109" x="62" y="1137.4189">+moderator: WebClient</text><text fill="#000000" font-family="sans-serif" font-size="11" lengthAdjust="spacingAndGlyphs" textLength="76" x="62" y="1151.2549">+logger: Logger</text><line style="stroke: #A80036; stroke-width: 1.5;" x1="57" x2="271" y1="1157.6719" y2="1157.6719"/><text fill="#000000" font-family="sans-serif" font-size="11" lengthAdjust="spacingAndGlyphs" textLength="189" x="62" y="1173.0908">MainServerLogic(capacity: int, port: int)</text><text fill="#000000" font-family="sans-serif" font-size="11" lengthAdjust="spacingAndGlyphs" textLength="199" x="62" y="1186.9268">+onFalseMessage(message: string): void</text><text fill="#000000" font-family="sans-serif" font-size="11" lengthAdjust="spacingAndGlyphs" textLength="204" x="62" y="1200.7627">+onVotingMessage(message: string): void</text><!--MD5=[e5ed2fcbff96bd03a55f8cf01186b818]
class sl--><rect codeLine="135" fill="#FEFECE" filter="url(#f1jjujngg20kbv)" height="172.5234" id="sl" style="stroke: #A80036; stroke-width: 1.5;" width="196" x="267" y="300"/><ellipse cx="323.75" cy="316" fill="#ADD1B2" rx="11" ry="11" style="stroke: #A80036; stroke-width: 1.0;"/><path d="M326.5156,311.875 Q326.6719,311.6563 326.8594,311.5469 Q327.0469,311.4375 327.2656,311.4375 Q327.6406,311.4375 327.875,311.7031 Q328.1094,311.9531 328.1094,312.5625 L328.1094,314.0156 Q328.1094,314.625 327.875,314.8906 Q327.6406,315.1563 327.2656,315.1563 Q326.9219,315.1563 326.7188,314.9531 Q326.5156,314.7656 326.4063,314.25 Q326.3594,313.8906 326.1719,313.7031 Q325.8438,313.3281 325.2344,313.1094 Q324.625,312.8906 324,312.8906 Q323.2344,312.8906 322.5938,313.2188 Q321.9688,313.5469 321.4688,314.2969 Q320.9844,315.0469 320.9844,316.0781 L320.9844,317.1719 Q320.9844,318.4063 321.875,319.2344 Q322.7656,320.0469 324.3594,320.0469 Q325.2969,320.0469 325.9531,319.7969 Q326.3438,319.6406 326.7656,319.2031 Q327.0313,318.9375 327.1719,318.8594 Q327.3281,318.7813 327.5313,318.7813 Q327.8594,318.7813 328.1094,319.0469 Q328.375,319.2969 328.375,319.6406 Q328.375,319.9844 328.0313,320.3906 Q327.5313,320.9688 326.7344,321.2969 Q325.6563,321.75 324.3594,321.75 Q322.8438,321.75 321.6406,321.125 Q320.6563,320.625 319.9688,319.5625 Q319.2813,318.4844 319.2813,317.2031 L319.2813,316.0469 Q319.2813,314.7188 319.8906,313.5781 Q320.5156,312.4219 321.6094,311.8125 Q322.7031,311.1875 323.9375,311.1875 Q324.6719,311.1875 325.3125,311.3594 Q325.9688,311.5156 326.5156,311.875 Z "/><text fill="#000000" font-family="sans-serif" font-size="12" lengthAdjust="spacingAndGlyphs" textLength="74" x="344.25" y="320.9102">ServerLogger</text><line style="stroke: #A80036; stroke-width: 1.5;" x1="268" x2="462" y1="332" y2="332"/><text fill="#000000" font-family="sans-serif" font-size="11" lengthAdjust="spacingAndGlyphs" textLength="108" x="273" y="347.4189">+globalLogger: Logger</text><text fill="#000000" font-family="sans-serif" font-size="11" lengthAdjust="spacingAndGlyphs" textLength="95" x="273" y="361.2549">+logFile: FileHandler</text><text fill="#000000" font-family="sans-serif" font-size="11" lengthAdjust="spacingAndGlyphs" textLength="87" x="273" y="375.0908">+isSetup: Boolean</text><text fill="#000000" font-family="sans-serif" font-size="11" lengthAdjust="spacingAndGlyphs" textLength="124" x="273" y="388.9268">+consoleHandler: Handler</text><line style="stroke: #A80036; stroke-width: 1.5;" x1="268" x2="462" y1="395.3438" y2="395.3438"/><text fill="#000000" font-family="sans-serif" font-size="11" lengthAdjust="spacingAndGlyphs" textLength="48" x="273" y="410.7627">+Logger()</text><text fill="#000000" font-family="sans-serif" font-size="11" lengthAdjust="spacingAndGlyphs" textLength="67" x="273" y="424.5986">+setup(): void</text><text fill="#000000" font-family="sans-serif" font-size="11" lengthAdjust="spacingAndGlyphs" textLength="165" x="273" y="438.4346">+addHandler(logger: Logger): void</text><text fill="#000000" font-family="sans-serif" font-size="11" lengthAdjust="spacingAndGlyphs" textLength="120" x="273" y="452.2705">+setLevel(level: int): void</text><text fill="#000000" font-family="sans-serif" font-size="11" lengthAdjust="spacingAndGlyphs" textLength="184" x="273" y="466.1064">+setConsoleOutput(val: boolean): void</text><!--MD5=[e590bdab9987379c47d474280840512e]
class pace--><rect codeLine="148" fill="#FEFECE" filter="url(#f1jjujngg20kbv)" height="153.0391" id="pace" style="stroke: #A80036; stroke-width: 1.5;" width="203" x="494.5" y="1364.5"/><ellipse cx="509.5" cy="1384.5938" fill="#ADD1B2" rx="11" ry="11" style="stroke: #A80036; stroke-width: 1.0;"/><path d="M512.2656,1380.4688 Q512.4219,1380.25 512.6094,1380.1406 Q512.7969,1380.0313 513.0156,1380.0313 Q513.3906,1380.0313 513.625,1380.2969 Q513.8594,1380.5469 513.8594,1381.1563 L513.8594,1382.6094 Q513.8594,1383.2188 513.625,1383.4844 Q513.3906,1383.75 513.0156,1383.75 Q512.6719,1383.75 512.4688,1383.5469 Q512.2656,1383.3594 512.1563,1382.8438 Q512.1094,1382.4844 511.9219,1382.2969 Q511.5938,1381.9219 510.9844,1381.7031 Q510.375,1381.4844 509.75,1381.4844 Q508.9844,1381.4844 508.3438,1381.8125 Q507.7188,1382.1406 507.2188,1382.8906 Q506.7344,1383.6406 506.7344,1384.6719 L506.7344,1385.7656 Q506.7344,1387 507.625,1387.8281 Q508.5156,1388.6406 510.1094,1388.6406 Q511.0469,1388.6406 511.7031,1388.3906 Q512.0938,1388.2344 512.5156,1387.7969 Q512.7813,1387.5313 512.9219,1387.4531 Q513.0781,1387.375 513.2813,1387.375 Q513.6094,1387.375 513.8594,1387.6406 Q514.125,1387.8906 514.125,1388.2344 Q514.125,1388.5781 513.7813,1388.9844 Q513.2813,1389.5625 512.4844,1389.8906 Q511.4063,1390.3438 510.1094,1390.3438 Q508.5938,1390.3438 507.3906,1389.7188 Q506.4063,1389.2188 505.7188,1388.1563 Q505.0313,1387.0781 505.0313,1385.7969 L505.0313,1384.6406 Q505.0313,1383.3125 505.6406,1382.1719 Q506.2656,1381.0156 507.3594,1380.4063 Q508.4531,1379.7813 509.6875,1379.7813 Q510.4219,1379.7813 511.0625,1379.9531 Q511.7188,1380.1094 512.2656,1380.4688 Z "/><text fill="#000000" font-family="sans-serif" font-size="12" font-style="italic" lengthAdjust="spacingAndGlyphs" textLength="65" x="576.5" y="1381.957">«Observer»</text><text fill="#000000" font-family="sans-serif" font-size="12" lengthAdjust="spacingAndGlyphs" textLength="171" x="523.5" y="1397.0508">PlayerAudienceClientExchange</text><line style="stroke: #A80036; stroke-width: 1.5;" x1="495.5" x2="696.5" y1="1404.6875" y2="1404.6875"/><text fill="#000000" font-family="sans-serif" font-size="11" lengthAdjust="spacingAndGlyphs" textLength="114" x="500.5" y="1420.1064">+sessionCookie: Cookie</text><text fill="#000000" font-family="sans-serif" font-size="11" lengthAdjust="spacingAndGlyphs" textLength="97" x="500.5" y="1433.9424">+hasVoted: boolean</text><text fill="#000000" font-family="sans-serif" font-size="11" lengthAdjust="spacingAndGlyphs" textLength="147" x="500.5" y="1447.7783">+selectedDecision: StoryEvent</text><text fill="#000000" font-family="sans-serif" font-size="11" lengthAdjust="spacingAndGlyphs" textLength="158" x="500.5" y="1461.6143">+possibleDecisions: StoryEvent[]</text><line style="stroke: #A80036; stroke-width: 1.5;" x1="495.5" x2="696.5" y1="1468.0313" y2="1468.0313"/><text fill="#000000" font-family="sans-serif" font-size="11" lengthAdjust="spacingAndGlyphs" textLength="164" x="500.5" y="1483.4502">+PlayerAudienceClientExchange()</text><text fill="#000000" font-family="sans-serif" font-size="11" lengthAdjust="spacingAndGlyphs" textLength="73" x="500.5" y="1497.2861">+update(): void</text><text fill="#000000" font-family="sans-serif" font-size="11" lengthAdjust="spacingAndGlyphs" textLength="180" x="500.5" y="1511.1221">+sendSelectedDecision(): StoryEvent</text><!--MD5=[046b75ba0a1981da758680c895f9ffd8]
class pav--><rect codeLine="158" fill="#FEFECE" filter="url(#f1jjujngg20kbv)" height="61.8359" id="pav" style="stroke: #A80036; stroke-width: 1.5;" width="143" x="732.5" y="1410"/><ellipse cx="747.5" cy="1426" fill="#ADD1B2" rx="11" ry="11" style="stroke: #A80036; stroke-width: 1.0;"/><path d="M750.2656,1421.875 Q750.4219,1421.6563 750.6094,1421.5469 Q750.7969,1421.4375 751.0156,1421.4375 Q751.3906,1421.4375 751.625,1421.7031 Q751.8594,1421.9531 751.8594,1422.5625 L751.8594,1424.0156 Q751.8594,1424.625 751.625,1424.8906 Q751.3906,1425.1563 751.0156,1425.1563 Q750.6719,1425.1563 750.4688,1424.9531 Q750.2656,1424.7656 750.1563,1424.25 Q750.1094,1423.8906 749.9219,1423.7031 Q749.5938,1423.3281 748.9844,1423.1094 Q748.375,1422.8906 747.75,1422.8906 Q746.9844,1422.8906 746.3438,1423.2188 Q745.7188,1423.5469 745.2188,1424.2969 Q744.7344,1425.0469 744.7344,1426.0781 L744.7344,1427.1719 Q744.7344,1428.4063 745.625,1429.2344 Q746.5156,1430.0469 748.1094,1430.0469 Q749.0469,1430.0469 749.7031,1429.7969 Q750.0938,1429.6406 750.5156,1429.2031 Q750.7813,1428.9375 750.9219,1428.8594 Q751.0781,1428.7813 751.2813,1428.7813 Q751.6094,1428.7813 751.8594,1429.0469 Q752.125,1429.2969 752.125,1429.6406 Q752.125,1429.9844 751.7813,1430.3906 Q751.2813,1430.9688 750.4844,1431.2969 Q749.4063,1431.75 748.1094,1431.75 Q746.5938,1431.75 745.3906,1431.125 Q744.4063,1430.625 743.7188,1429.5625 Q743.0313,1428.4844 743.0313,1427.2031 L743.0313,1426.0469 Q743.0313,1424.7188 743.6406,1423.5781 Q744.2656,1422.4219 745.3594,1421.8125 Q746.4531,1421.1875 747.6875,1421.1875 Q748.4219,1421.1875 749.0625,1421.3594 Q749.7188,1421.5156 750.2656,1421.875 Z "/><text fill="#000000" font-family="sans-serif" font-size="12" lengthAdjust="spacingAndGlyphs" textLength="111" x="761.5" y="1430.9102">PlayerAudienceView</text><line style="stroke: #A80036; stroke-width: 1.5;" x1="733.5" x2="874.5" y1="1442" y2="1442"/><line style="stroke: #A80036; stroke-width: 1.5;" x1="733.5" x2="874.5" y1="1450" y2="1450"/><text fill="#000000" font-family="sans-serif" font-size="11" lengthAdjust="spacingAndGlyphs" textLength="116" x="738.5" y="1465.4189">+PlayerAudienceView()</text><!--MD5=[513d28559cb9b2f986fa50a4c3eda83f]
link StoryEvent to StoryGraph--><path codeLine="71" d="M1140,173.09 C1140,204.99 1140,244.28 1140,280.35 " fill="none" id="StoryEvent-to-StoryGraph" style="stroke: #A80036; stroke-width: 1.0;"/><polygon fill="#A80036" points="1140,293.48,1144,287.48,1140,281.48,1136,287.48,1140,293.48" style="stroke: #A80036; stroke-width: 1.0;"/><text fill="#000000" font-family="sans-serif" font-size="13" lengthAdjust="spacingAndGlyphs" textLength="7" x="1132.6172" y="194.6524">n</text><text fill="#000000" font-family="sans-serif" font-size="13" lengthAdjust="spacingAndGlyphs" textLength="7" x="1132.7102" y="282.6091">1</text><!--MD5=[c53e1f9c02f78d6f6c6c47087547b478]
link StoryGraph to mf--><path codeLine="72" d="M1182.6,479.72 C1192.22,500.55 1202.08,521.9 1210.57,540.27 " fill="none" id="StoryGraph-mf" style="stroke: #A80036; stroke-width: 1.0;"/><!--MD5=[f80b4c689c2fbad67007e34e43864d26]
link StoryGraph to Character--><path codeLine="73" d="M1100.57,479.72 C1091.67,500.55 1082.54,521.9 1074.69,540.27 " fill="none" id="StoryGraph-Character" style="stroke: #A80036; stroke-width: 1.0;"/><!--MD5=[4b16aa1dee279ab3d1d003602504b70d]
reverse link Character to Skill--><path codeLine="74" d="M1049.86,657.028 C1048.11,692.845 1045.93,737.374 1044.17,773.299 " fill="none" id="Character-backto-Skill" style="stroke: #A80036; stroke-width: 1.0;"/><polygon fill="#A80036" points="1050.51,643.764,1046.2214,649.5612,1049.9232,655.7496,1054.2118,649.9524,1050.51,643.764" style="stroke: #A80036; stroke-width: 1.0;"/><text fill="#000000" font-family="sans-serif" font-size="13" lengthAdjust="spacingAndGlyphs" textLength="7" x="1042.7051" y="665.2904">1</text><text fill="#000000" font-family="sans-serif" font-size="13" lengthAdjust="spacingAndGlyphs" textLength="7" x="1037.1339" y="762.7514">n</text><!--MD5=[d29554897930022c58dd8210ad447ef6]
link mf to pe--><path codeLine="75" d="M1235.86,643.764 C1237.09,677.122 1238.72,721.438 1240.11,759.317 " fill="none" id="mf-pe" style="stroke: #A80036; stroke-width: 1.0;"/><!--MD5=[aec115d956d7b212d45293ef7ee64686]
link pe to mcei--><path codeLine="76" d="M1209.95,918.79 C1187.55,972.173 1158.46,1041.519 1138.21,1089.794 " fill="none" id="pe-mcei" style="stroke: #A80036; stroke-width: 1.0;"/><!--MD5=[a0d3bbc68f741b6e52f50e6f2273a72d]
link ss to msl--><path codeLine="162" d="M238.113,973.532 C220.782,1014.215 202.632,1056.819 188.631,1089.683 " fill="none" id="ss-msl" style="stroke: #A80036; stroke-width: 1.0;"/><!--MD5=[7d06e1ba490a93264d4a8b472a43ae41]
link msl to cm--><path codeLine="163" d="M272.23,1148.5 C283.744,1148.5 295.257,1148.5 306.771,1148.5 " fill="none" id="msl-cm" style="stroke: #A80036; stroke-width: 1.0;"/><!--MD5=[507f6a785ef230083e89882233c22fea]
link api to msl--><path codeLine="164" d="M674.914,1075.703 C642.041,1047.552 600.813,1018.63 557.5,1004 C451.811,968.301 409.415,960.951 306.5,1004 C264.732,1021.472 228.991,1057.811 203.751,1089.675 " fill="none" id="api-msl" style="stroke: #A80036; stroke-width: 1.0;"/><!--MD5=[671dab341200759546ed8586cdbf8a87]
link sl to cm--><path codeLine="165" d="M381.285,473.26 C392.685,536.85 407.218,625.768 415,704.5 C426.054,816.336 430.354,944.697 432.009,1034.36 " fill="none" id="sl-cm" style="stroke: #A80036; stroke-width: 1.0; stroke-dasharray: 7.0,7.0;"/><!--MD5=[a5942343fc64a8361275d61bf78cabe0]
link sl to msl--><path codeLine="166" d="M296.419,473.19 C252.282,533.88 198.71,619.344 174,704.5 C135.249,838.041 146.234,1003.849 156.04,1089.787 " fill="none" id="sl-msl" style="stroke: #A80036; stroke-width: 1.0; stroke-dasharray: 7.0,7.0;"/><!--MD5=[17eb025897342361bd851f93fa477fff]
link sl to api--><path codeLine="167" d="M408.078,473.2 C484.029,624.312 640.388,935.393 710.996,1075.868 " fill="none" id="sl-api" style="stroke: #A80036; stroke-width: 1.0; stroke-dasharray: 7.0,7.0;"/><!--MD5=[ce7bcfb77770f94a81831b8f23590dae]
link sl to ss--><path codeLine="168" d="M351.71,473.03 C341.579,538.23 327.437,629.245 315.81,704.072 " fill="none" id="sl-ss" style="stroke: #A80036; stroke-width: 1.0; stroke-dasharray: 7.0,7.0;"/><!--MD5=[da9abd1873f207cba4baaf944fa348f2]
link pace to pav--><path codeLine="169" d="M697.563,1441 C709.204,1441 720.846,1441 732.487,1441 " fill="none" id="pace-pav" style="stroke: #A80036; stroke-width: 1.0;"/><!--MD5=[174fed849d61687df396b348733ea285]
reverse link api to pace--><path codeLine="170" d="M707.266,1225.942 C685.035,1268.711 657.424,1321.831 635.269,1364.454 " fill="none" id="api-backto-pace" style="stroke: #A80036; stroke-width: 1.0;"/><polygon fill="#A80036" points="709.674,1221.309,701.9731,1227.4488,707.3674,1225.7452,709.071,1231.1394,709.674,1221.309" style="stroke: #A80036; stroke-width: 1.0;"/><text fill="#000000" font-family="sans-serif" font-size="13" lengthAdjust="spacingAndGlyphs" textLength="51" x="673" y="1308.9951">observes</text><text fill="#000000" font-family="sans-serif" font-size="13" lengthAdjust="spacingAndGlyphs" textLength="7" x="698.9104" y="1242.2767">1</text><text fill="#000000" font-family="sans-serif" font-size="13" lengthAdjust="spacingAndGlyphs" textLength="7" x="631.79" y="1353.642">n</text><!--MD5=[58a85bdb989a432d30a1624e5616c617]
link mcei to cm--><path codeLine="173" d="M1049.02,1089.957 C1008.8,1057.756 954.308,1020.979 898.5,1004 C830.893,983.432 645.926,977.293 580.5,1004 C562.578,1011.316 545.653,1021.975 530.103,1034.241 " fill="none" id="mcei-cm" style="stroke: #A80036; stroke-width: 1.0;"/><!--MD5=[bd9ecb3886157592a88aeb83dc1a8164]
@startuml

skinparam classAttributeIconSize 0

package "Moderator-Client" {

  class StoryEvent {
    {field} +eventId: int
    {field} +description: string
    {field} +parent: StoryEvent
    {field} +children: StoryEvent[]
    {method} +StoryEvent(parent: StoryEvent, id: int)
    {method} +addChild(): void
  }

  class StoryGraph {
    {field} +id: int
    {field} +character: Character
    {field} +root: StoryEvent
    {field} +currentEvent: StoryEvent
    {method} +StoryGraph(id: int)
    {method} +loadGraphFromFile(): Graph
    {method} +saveGraphToFile(): void
    {method} +getNextPossibleEvent(): StoryEvent[]
    {method} +setCurrentEvent(newCurrentEvent: StoryEvent): void
    {method} +getNextStoryEventById(id: int): StoryEvent
  }

  class Skill {
    {field} +id: int
    {field} +value: int
    {field} +description: string
    {method} + Skill(id: int, val: int, desc: string)
    {method} + setValue(val: int): void
    {method} + getValue(): int
  }

  class Character {
    {field} +sprite: Texture
    {field} +abilities: Skill[]
    {field} +name: string
    {method} +Character()
  }

  class "ModeratorView" as mf {
    {field} +timeoutDuration: int
    {method} +ModeratorView()
    {method} +pausePolling(val: boolean): void
    {method} +offlineMode(val: boolean): void
  }

  class "PollEvaluator" as pe {

    {field} possibleDecisions: StoryEvent[]
    {field} timeout: int
    {field} voteCounter: int[]
    {method} +PollEvaluator()
    {method} +checkServerStatus(): void
    {method} +broadcastNextDecision(): void
    {method} +evaluateVotes(): int
    {method} +addVote(): void
  }

  class "ModeratorClientExchange" as mcei{
    {field} +websocket: WebSocket
    {field} +authentificationTokenModeratorClient: Token
    {method} +ModeratorClientExchange()
    {method} +getCurrentPollEval(): int
    {method} +makeJSON(): string
  }
  
  StoryEvent "n" - -* "1" StoryGraph
  StoryGraph - - mf
  StoryGraph - - Character
  Character "1" *- - "n" Skill
  mf - - pe
  pe - - mcei
}

package "Server" {
   class "API" as api {
        {field} +observerCollection: Observer
        {method} +API()
        {method} +registerObserver(observer: Observer, cookie: Cookie): void
        {method} +unregisterObserver(observer: Observer): void
        {method} +notifyObservers(): void
        {method} +updatePossibleDecisions(): void
        {method} +collectVotes(): void
  }

  package "Backend" <<Rectangle>>{
    class "ServerShell" as ss {
      {field} +Logger: Logger
      {field} +port: int
      {field} +runShell: boolean
      {field} +serverShell: ServerShell
      {field} +capacity: int
      {field} +bufferedReader: BufferedReader
      {method} +ServerShell()
      {method} +startShell(): void
      {method} +stopShell(): void
      {method} +parseCommand(command: string): void
      {method} +showHelp(): void
      {method} +configPort(): void
      {method} +configCapacity(): void
      {method} +startServer(): void
      {method} +stopServer(): void
      {method} +main(args: string[]): void
    }

    class "ModeratorClientManager" as cm {
      {field} +webSocket: WebSocket
      {field} +ip: int
      {field} +port: int
      {field} +logger: Logger
      {field} +authentificationTokenModeratorClient: Token
      {method} +ModeratorClientManager(session: Session): void
      {method} +disconnect(): void
      {method} +onDisconnect(): void
      {method} +recieve(message: string): void
      {method} +checkJSON(message: string): void
      {method} +sendMessage(message: string): void
      {method} +send(message: string): void
      {method} +recieve(message: string): void
    }    

    class "MainServerLogic" as msl {
      {field} +moderator: WebClient
      {field} +logger: Logger
      {method} MainServerLogic(capacity: int, port: int)
      {method} +onFalseMessage(message: string): void
      {method} +onVotingMessage(message: string): void

    }

    class "ServerLogger" as sl {
      {field} +globalLogger: Logger
      {field} +logFile: FileHandler
      {field} +isSetup: Boolean
      {field} +consoleHandler: Handler
      {method} +Logger()
      {method} +setup(): void
      {method} +addHandler(logger: Logger): void
      {method} +setLevel(level: int): void
      {method} +setConsoleOutput(val: boolean): void
    }
  }
  package "PlayerAudience-Client" <<Rectangle>>{  
    class "PlayerAudienceClientExchange" as pace <<Observer>>{
      {field} +sessionCookie: Cookie
      {field} +hasVoted: boolean
      {field} +selectedDecision: StoryEvent
      {field} +possibleDecisions: StoryEvent[]
      {method} +PlayerAudienceClientExchange()
      {method} +update(): void
      {method} +sendSelectedDecision(): StoryEvent 
    }

    class "PlayerAudienceView" as pav {
      {method} +PlayerAudienceView()
    }
  }
  ss - - msl
  msl - cm
  msl -left- api
  sl ... cm
  sl ... msl
  sl ... api
  sl ... ss
  pace - pav
  api "1" <-up- "n" pace : observes
}

mcei - cm

@enduml

PlantUML version 1.2020.18(Wed Sep 30 21:40:44 CEST 2020)
(GPL source distribution)
Java Runtime: OpenJDK Runtime Environment
JVM: OpenJDK 64-Bit Server VM
Default Encoding: Cp1252
Language: de
Country: DE
--></g></svg>