<?xml version="1.0" encoding="UTF-8" standalone="no"?><svg xmlns="http://www.w3.org/2000/svg" xmlns:xlink="http://www.w3.org/1999/xlink" contentScriptType="application/ecmascript" contentStyleType="text/css" height="794px" preserveAspectRatio="none" style="width:648px;height:794px;" version="1.1" viewBox="0 0 648 794" width="648px" zoomAndPan="magnify"><defs><filter height="300%" id="f18a027m5lucu5" width="300%" x="-1" y="-1"><feGaussianBlur result="blurOut" stdDeviation="2.0"/><feColorMatrix in="blurOut" result="blurOut2" type="matrix" values="0 0 0 0 0 0 0 0 0 0 0 0 0 0 0 0 0 0 .4 0"/><feOffset dx="4.0" dy="4.0" in="blurOut2" result="blurOut3"/><feBlend in="SourceGraphic" in2="blurOut3" mode="normal"/></filter></defs><g><!--MD5=[4544bf05af30223886112ffd96a1865f]
cluster Moderator-Client--><polygon fill="#FFFFFF" filter="url(#f18a027m5lucu5)" points="16,6,160,6,167,28.2969,631,28.2969,631,787,16,787,16,6" style="stroke: #000000; stroke-width: 1.5;"/><line style="stroke: #000000; stroke-width: 1.5;" x1="16" x2="167" y1="28.2969" y2="28.2969"/><text fill="#000000" font-family="sans-serif" font-size="14" font-weight="bold" lengthAdjust="spacingAndGlyphs" textLength="138" x="20" y="20.9951">Moderator-Client</text><!--MD5=[3eaf92687768346c8d614b6fd2c22fb9]
class StoryEvent--><rect codeLine="5" fill="#FEFECE" filter="url(#f18a027m5lucu5)" height="124.8281" id="StoryEvent" style="stroke: #A80036; stroke-width: 1.5;" width="237" x="166.5" y="41"/><ellipse cx="248.25" cy="57" fill="#ADD1B2" rx="11" ry="11" style="stroke: #A80036; stroke-width: 1.0;"/><path d="M250.5938,52.6719 C249.6563,52.2344 249.0625,52.0938 248.1875,52.0938 C245.5625,52.0938 243.5625,54.1719 243.5625,56.8906 L243.5625,58.0156 C243.5625,60.5938 245.6719,62.4844 248.5625,62.4844 C249.7813,62.4844 250.9375,62.1875 251.6875,61.6406 C252.2656,61.2344 252.5938,60.7813 252.5938,60.3906 C252.5938,59.9375 252.2031,59.5469 251.7344,59.5469 C251.5156,59.5469 251.3125,59.625 251.125,59.8125 C250.6719,60.2969 250.6719,60.2969 250.4844,60.3906 C250.0625,60.6563 249.375,60.7813 248.6094,60.7813 C246.5625,60.7813 245.2656,59.6875 245.2656,57.9844 L245.2656,56.8906 C245.2656,55.1094 246.5156,53.7969 248.25,53.7969 C248.8281,53.7969 249.4375,53.9531 249.9063,54.2031 C250.3906,54.4844 250.5625,54.7031 250.6563,55.1094 C250.7188,55.5156 250.75,55.6406 250.8906,55.7656 C251.0313,55.9063 251.2656,56.0156 251.4844,56.0156 C251.75,56.0156 252.0156,55.875 252.1875,55.6563 C252.2969,55.5 252.3281,55.3125 252.3281,54.8906 L252.3281,53.4688 C252.3281,53.0313 252.3125,52.9063 252.2188,52.75 C252.0625,52.4844 251.7813,52.3438 251.4844,52.3438 C251.1875,52.3438 250.9844,52.4375 250.7656,52.75 L250.5938,52.6719 Z " fill="#000000"/><text fill="#000000" font-family="sans-serif" font-size="12" lengthAdjust="spacingAndGlyphs" textLength="65" x="268.75" y="61.1543">StoryEvent</text><line style="stroke: #A80036; stroke-width: 1.5;" x1="167.5" x2="402.5" y1="73" y2="73"/><text fill="#000000" font-family="sans-serif" font-size="11" lengthAdjust="spacingAndGlyphs" textLength="69" x="172.5" y="87.2104">-eventId: int</text><text fill="#000000" font-family="sans-serif" font-size="11" lengthAdjust="spacingAndGlyphs" textLength="104" x="172.5" y="100.0151">-description: string</text><text fill="#000000" font-family="sans-serif" font-size="11" lengthAdjust="spacingAndGlyphs" textLength="111" x="172.5" y="112.8198">-parent: StoryEvent</text><text fill="#000000" font-family="sans-serif" font-size="11" lengthAdjust="spacingAndGlyphs" textLength="127" x="172.5" y="125.6245">-children: StoryEvent[]</text><line style="stroke: #A80036; stroke-width: 1.5;" x1="167.5" x2="402.5" y1="132.2188" y2="132.2188"/><text fill="#000000" font-family="sans-serif" font-size="11" lengthAdjust="spacingAndGlyphs" textLength="225" x="172.5" y="146.4292">+StoryEvent(parent: StoryEvent, id: int)</text><text fill="#000000" font-family="sans-serif" font-size="11" lengthAdjust="spacingAndGlyphs" textLength="97" x="172.5" y="159.2339">+addChild(): void</text><!--MD5=[efd5ebcc74ce0165d13c1df9fdb2b1d2]
class StoryGraph--><rect codeLine="14" fill="#FEFECE" filter="url(#f18a027m5lucu5)" height="163.2422" id="StoryGraph" style="stroke: #A80036; stroke-width: 1.5;" width="322" x="124" y="226"/><ellipse cx="246.75" cy="242" fill="#ADD1B2" rx="11" ry="11" style="stroke: #A80036; stroke-width: 1.0;"/><path d="M249.0938,237.6719 C248.1563,237.2344 247.5625,237.0938 246.6875,237.0938 C244.0625,237.0938 242.0625,239.1719 242.0625,241.8906 L242.0625,243.0156 C242.0625,245.5938 244.1719,247.4844 247.0625,247.4844 C248.2813,247.4844 249.4375,247.1875 250.1875,246.6406 C250.7656,246.2344 251.0938,245.7813 251.0938,245.3906 C251.0938,244.9375 250.7031,244.5469 250.2344,244.5469 C250.0156,244.5469 249.8125,244.625 249.625,244.8125 C249.1719,245.2969 249.1719,245.2969 248.9844,245.3906 C248.5625,245.6563 247.875,245.7813 247.1094,245.7813 C245.0625,245.7813 243.7656,244.6875 243.7656,242.9844 L243.7656,241.8906 C243.7656,240.1094 245.0156,238.7969 246.75,238.7969 C247.3281,238.7969 247.9375,238.9531 248.4063,239.2031 C248.8906,239.4844 249.0625,239.7031 249.1563,240.1094 C249.2188,240.5156 249.25,240.6406 249.3906,240.7656 C249.5313,240.9063 249.7656,241.0156 249.9844,241.0156 C250.25,241.0156 250.5156,240.875 250.6875,240.6563 C250.7969,240.5 250.8281,240.3125 250.8281,239.8906 L250.8281,238.4688 C250.8281,238.0313 250.8125,237.9063 250.7188,237.75 C250.5625,237.4844 250.2813,237.3438 249.9844,237.3438 C249.6875,237.3438 249.4844,237.4375 249.2656,237.75 L249.0938,237.6719 Z " fill="#000000"/><text fill="#000000" font-family="sans-serif" font-size="12" lengthAdjust="spacingAndGlyphs" textLength="68" x="267.25" y="246.1543">StoryGraph</text><line style="stroke: #A80036; stroke-width: 1.5;" x1="125" x2="445" y1="258" y2="258"/><text fill="#000000" font-family="sans-serif" font-size="11" lengthAdjust="spacingAndGlyphs" textLength="119" x="130" y="272.2104">-character: Character</text><text fill="#000000" font-family="sans-serif" font-size="11" lengthAdjust="spacingAndGlyphs" textLength="96" x="130" y="285.0151">-root: StoryEvent</text><text fill="#000000" font-family="sans-serif" font-size="11" lengthAdjust="spacingAndGlyphs" textLength="147" x="130" y="297.8198">-currentEvent: StoryEvent</text><line style="stroke: #A80036; stroke-width: 1.5;" x1="125" x2="445" y1="304.4141" y2="304.4141"/><text fill="#000000" font-family="sans-serif" font-size="11" lengthAdjust="spacingAndGlyphs" textLength="112" x="130" y="318.6245">+StoryGraph(id: int)</text><text fill="#000000" font-family="sans-serif" font-size="11" lengthAdjust="spacingAndGlyphs" textLength="245" x="130" y="331.4292">+loadGraphFromFile(filepath: string): Graph</text><text fill="#000000" font-family="sans-serif" font-size="11" lengthAdjust="spacingAndGlyphs" textLength="225" x="130" y="344.2339">+saveGraphToFile(filepath: string): void</text><text fill="#000000" font-family="sans-serif" font-size="11" lengthAdjust="spacingAndGlyphs" textLength="220" x="130" y="357.0386">+getNextPossibleEvent(): StoryEvent[]</text><text fill="#000000" font-family="sans-serif" font-size="11" lengthAdjust="spacingAndGlyphs" textLength="310" x="130" y="369.8433">+setCurrentEvent(newCurrentEvent: StoryEvent): void</text><text fill="#000000" font-family="sans-serif" font-size="11" lengthAdjust="spacingAndGlyphs" textLength="252" x="130" y="382.6479">+getNextStoryEventById(id: int): StoryEvent</text><!--MD5=[bb849c1528464e2c6bbfb2687d0866b0]
class mf--><rect codeLine="26" fill="#FEFECE" filter="url(#f18a027m5lucu5)" height="99.2188" id="mf" style="stroke: #A80036; stroke-width: 1.5;" width="179" x="69.5" y="449"/><ellipse cx="109.25" cy="465" fill="#ADD1B2" rx="11" ry="11" style="stroke: #A80036; stroke-width: 1.0;"/><path d="M111.5938,460.6719 C110.6563,460.2344 110.0625,460.0938 109.1875,460.0938 C106.5625,460.0938 104.5625,462.1719 104.5625,464.8906 L104.5625,466.0156 C104.5625,468.5938 106.6719,470.4844 109.5625,470.4844 C110.7813,470.4844 111.9375,470.1875 112.6875,469.6406 C113.2656,469.2344 113.5938,468.7813 113.5938,468.3906 C113.5938,467.9375 113.2031,467.5469 112.7344,467.5469 C112.5156,467.5469 112.3125,467.625 112.125,467.8125 C111.6719,468.2969 111.6719,468.2969 111.4844,468.3906 C111.0625,468.6563 110.375,468.7813 109.6094,468.7813 C107.5625,468.7813 106.2656,467.6875 106.2656,465.9844 L106.2656,464.8906 C106.2656,463.1094 107.5156,461.7969 109.25,461.7969 C109.8281,461.7969 110.4375,461.9531 110.9063,462.2031 C111.3906,462.4844 111.5625,462.7031 111.6563,463.1094 C111.7188,463.5156 111.75,463.6406 111.8906,463.7656 C112.0313,463.9063 112.2656,464.0156 112.4844,464.0156 C112.75,464.0156 113.0156,463.875 113.1875,463.6563 C113.2969,463.5 113.3281,463.3125 113.3281,462.8906 L113.3281,461.4688 C113.3281,461.0313 113.3125,460.9063 113.2188,460.75 C113.0625,460.4844 112.7813,460.3438 112.4844,460.3438 C112.1875,460.3438 111.9844,460.4375 111.7656,460.75 L111.5938,460.6719 Z " fill="#000000"/><text fill="#000000" font-family="sans-serif" font-size="12" lengthAdjust="spacingAndGlyphs" textLength="92" x="128.75" y="469.1543">ModeratorView</text><line style="stroke: #A80036; stroke-width: 1.5;" x1="70.5" x2="247.5" y1="481" y2="481"/><text fill="#000000" font-family="sans-serif" font-size="11" lengthAdjust="spacingAndGlyphs" textLength="112" x="75.5" y="495.2104">-startedOnline: bool</text><line style="stroke: #A80036; stroke-width: 1.5;" x1="70.5" x2="247.5" y1="501.8047" y2="501.8047"/><text fill="#000000" font-family="sans-serif" font-size="11" lengthAdjust="spacingAndGlyphs" textLength="102" x="75.5" y="516.0151">+ModeratorView()</text><text fill="#000000" font-family="sans-serif" font-size="11" lengthAdjust="spacingAndGlyphs" textLength="167" x="75.5" y="528.8198">+pausePolling(val: bool): void</text><text fill="#000000" font-family="sans-serif" font-size="11" lengthAdjust="spacingAndGlyphs" textLength="163" x="75.5" y="541.6245">+offlineMode(val: bool): void</text><!--MD5=[aef0d3d3c8a893455b9107cd4a3b357c]
class mcei--><rect codeLine="33" fill="#FEFECE" filter="url(#f18a027m5lucu5)" height="163.2422" id="mcei" style="stroke: #A80036; stroke-width: 1.5;" width="253" x="32.5" y="608"/><ellipse cx="77.75" cy="624" fill="#ADD1B2" rx="11" ry="11" style="stroke: #A80036; stroke-width: 1.0;"/><path d="M80.0938,619.6719 C79.1563,619.2344 78.5625,619.0938 77.6875,619.0938 C75.0625,619.0938 73.0625,621.1719 73.0625,623.8906 L73.0625,625.0156 C73.0625,627.5938 75.1719,629.4844 78.0625,629.4844 C79.2813,629.4844 80.4375,629.1875 81.1875,628.6406 C81.7656,628.2344 82.0938,627.7813 82.0938,627.3906 C82.0938,626.9375 81.7031,626.5469 81.2344,626.5469 C81.0156,626.5469 80.8125,626.625 80.625,626.8125 C80.1719,627.2969 80.1719,627.2969 79.9844,627.3906 C79.5625,627.6563 78.875,627.7813 78.1094,627.7813 C76.0625,627.7813 74.7656,626.6875 74.7656,624.9844 L74.7656,623.8906 C74.7656,622.1094 76.0156,620.7969 77.75,620.7969 C78.3281,620.7969 78.9375,620.9531 79.4063,621.2031 C79.8906,621.4844 80.0625,621.7031 80.1563,622.1094 C80.2188,622.5156 80.25,622.6406 80.3906,622.7656 C80.5313,622.9063 80.7656,623.0156 80.9844,623.0156 C81.25,623.0156 81.5156,622.875 81.6875,622.6563 C81.7969,622.5 81.8281,622.3125 81.8281,621.8906 L81.8281,620.4688 C81.8281,620.0313 81.8125,619.9063 81.7188,619.75 C81.5625,619.4844 81.2813,619.3438 80.9844,619.3438 C80.6875,619.3438 80.4844,619.4375 80.2656,619.75 L80.0938,619.6719 Z " fill="#000000"/><text fill="#000000" font-family="sans-serif" font-size="12" lengthAdjust="spacingAndGlyphs" textLength="154" x="98.25" y="628.1543">ModeratorClientExchange</text><line style="stroke: #A80036; stroke-width: 1.5;" x1="33.5" x2="284.5" y1="640" y2="640"/><text fill="#000000" font-family="sans-serif" font-size="11" lengthAdjust="spacingAndGlyphs" textLength="137" x="38.5" y="654.2104">-websocket: WebSocket</text><text fill="#000000" font-family="sans-serif" font-size="11" lengthAdjust="spacingAndGlyphs" textLength="151" x="38.5" y="667.0151">-authentificationGuid: Guid</text><text fill="#000000" font-family="sans-serif" font-size="11" lengthAdjust="spacingAndGlyphs" textLength="117" x="38.5" y="679.8198">-timeoutDuration: int</text><line style="stroke: #A80036; stroke-width: 1.5;" x1="33.5" x2="284.5" y1="686.4141" y2="686.4141"/><text fill="#000000" font-family="sans-serif" font-size="11" lengthAdjust="spacingAndGlyphs" textLength="163" x="38.5" y="700.6245">+ModeratorClientExchange()</text><text fill="#000000" font-family="sans-serif" font-size="11" lengthAdjust="spacingAndGlyphs" textLength="218" x="38.5" y="713.4292">+sendMessage(message: string): void</text><text fill="#000000" font-family="sans-serif" font-size="11" lengthAdjust="spacingAndGlyphs" textLength="162" x="38.5" y="726.2339">+evalJSON(json: string): bool</text><text fill="#000000" font-family="sans-serif" font-size="11" lengthAdjust="spacingAndGlyphs" textLength="241" x="38.5" y="739.0386">+endCurrentPollAndGetVotingResults(): int</text><text fill="#000000" font-family="sans-serif" font-size="11" lengthAdjust="spacingAndGlyphs" textLength="115" x="38.5" y="751.8433">+makeJSON(): string</text><text fill="#000000" font-family="sans-serif" font-size="11" lengthAdjust="spacingAndGlyphs" textLength="185" x="38.5" y="764.6479">+enterPassword(pw: string): void</text><!--MD5=[5df65fb9e2c7a32924ba06dbc5719e6e]
class Skills--><rect codeLine="45" fill="#FEFECE" filter="url(#f18a027m5lucu5)" height="112.0234" id="Skills" style="stroke: #A80036; stroke-width: 1.5;" width="294" x="321" y="633.5"/><ellipse cx="448.25" cy="649.5" fill="#ADD1B2" rx="11" ry="11" style="stroke: #A80036; stroke-width: 1.0;"/><path d="M450.5938,645.1719 C449.6563,644.7344 449.0625,644.5938 448.1875,644.5938 C445.5625,644.5938 443.5625,646.6719 443.5625,649.3906 L443.5625,650.5156 C443.5625,653.0938 445.6719,654.9844 448.5625,654.9844 C449.7813,654.9844 450.9375,654.6875 451.6875,654.1406 C452.2656,653.7344 452.5938,653.2813 452.5938,652.8906 C452.5938,652.4375 452.2031,652.0469 451.7344,652.0469 C451.5156,652.0469 451.3125,652.125 451.125,652.3125 C450.6719,652.7969 450.6719,652.7969 450.4844,652.8906 C450.0625,653.1563 449.375,653.2813 448.6094,653.2813 C446.5625,653.2813 445.2656,652.1875 445.2656,650.4844 L445.2656,649.3906 C445.2656,647.6094 446.5156,646.2969 448.25,646.2969 C448.8281,646.2969 449.4375,646.4531 449.9063,646.7031 C450.3906,646.9844 450.5625,647.2031 450.6563,647.6094 C450.7188,648.0156 450.75,648.1406 450.8906,648.2656 C451.0313,648.4063 451.2656,648.5156 451.4844,648.5156 C451.75,648.5156 452.0156,648.375 452.1875,648.1563 C452.2969,648 452.3281,647.8125 452.3281,647.3906 L452.3281,645.9688 C452.3281,645.5313 452.3125,645.4063 452.2188,645.25 C452.0625,644.9844 451.7813,644.8438 451.4844,644.8438 C451.1875,644.8438 450.9844,644.9375 450.7656,645.25 L450.5938,645.1719 Z " fill="#000000"/><text fill="#000000" font-family="sans-serif" font-size="12" lengthAdjust="spacingAndGlyphs" textLength="31" x="468.75" y="653.6543">Skills</text><line style="stroke: #A80036; stroke-width: 1.5;" x1="322" x2="614" y1="665.5" y2="665.5"/><text fill="#000000" font-family="sans-serif" font-size="11" lengthAdjust="spacingAndGlyphs" textLength="111" x="327" y="679.7104">-communication: int</text><text fill="#000000" font-family="sans-serif" font-size="11" lengthAdjust="spacingAndGlyphs" textLength="75" x="327" y="692.5151">-analytics: int</text><text fill="#000000" font-family="sans-serif" font-size="11" lengthAdjust="spacingAndGlyphs" textLength="71" x="327" y="705.3198">-partying: int</text><text fill="#000000" font-family="sans-serif" font-size="11" lengthAdjust="spacingAndGlyphs" textLength="100" x="327" y="718.1245">-programming: int</text><line style="stroke: #A80036; stroke-width: 1.5;" x1="322" x2="614" y1="724.7188" y2="724.7188"/><text fill="#000000" font-family="sans-serif" font-size="11" lengthAdjust="spacingAndGlyphs" textLength="282" x="327" y="738.9292">+Skills(commu: int, analy: int, party: int, progr: int)</text><!--MD5=[3eff9d4279c887ef9286477750bdaaff]
class Character--><rect codeLine="53" fill="#FEFECE" filter="url(#f18a027m5lucu5)" height="86.4141" id="Character" style="stroke: #A80036; stroke-width: 1.5;" width="96" x="370" y="455.5"/><ellipse cx="387.7" cy="471.5" fill="#ADD1B2" rx="11" ry="11" style="stroke: #A80036; stroke-width: 1.0;"/><path d="M390.0438,467.1719 C389.1063,466.7344 388.5125,466.5938 387.6375,466.5938 C385.0125,466.5938 383.0125,468.6719 383.0125,471.3906 L383.0125,472.5156 C383.0125,475.0938 385.1219,476.9844 388.0125,476.9844 C389.2313,476.9844 390.3875,476.6875 391.1375,476.1406 C391.7156,475.7344 392.0438,475.2813 392.0438,474.8906 C392.0438,474.4375 391.6531,474.0469 391.1844,474.0469 C390.9656,474.0469 390.7625,474.125 390.575,474.3125 C390.1219,474.7969 390.1219,474.7969 389.9344,474.8906 C389.5125,475.1563 388.825,475.2813 388.0594,475.2813 C386.0125,475.2813 384.7156,474.1875 384.7156,472.4844 L384.7156,471.3906 C384.7156,469.6094 385.9656,468.2969 387.7,468.2969 C388.2781,468.2969 388.8875,468.4531 389.3563,468.7031 C389.8406,468.9844 390.0125,469.2031 390.1063,469.6094 C390.1688,470.0156 390.2,470.1406 390.3406,470.2656 C390.4813,470.4063 390.7156,470.5156 390.9344,470.5156 C391.2,470.5156 391.4656,470.375 391.6375,470.1563 C391.7469,470 391.7781,469.8125 391.7781,469.3906 L391.7781,467.9688 C391.7781,467.5313 391.7625,467.4063 391.6688,467.25 C391.5125,466.9844 391.2313,466.8438 390.9344,466.8438 C390.6375,466.8438 390.4344,466.9375 390.2156,467.25 L390.0438,467.1719 Z " fill="#000000"/><text fill="#000000" font-family="sans-serif" font-size="12" lengthAdjust="spacingAndGlyphs" textLength="58" x="402.3" y="475.6543">Character</text><line style="stroke: #A80036; stroke-width: 1.5;" x1="371" x2="465" y1="487.5" y2="487.5"/><text fill="#000000" font-family="sans-serif" font-size="11" lengthAdjust="spacingAndGlyphs" textLength="84" x="376" y="501.7104">-abilities: Skills</text><text fill="#000000" font-family="sans-serif" font-size="11" lengthAdjust="spacingAndGlyphs" textLength="75" x="376" y="514.5151">-name: string</text><line style="stroke: #A80036; stroke-width: 1.5;" x1="371" x2="465" y1="521.1094" y2="521.1094"/><text fill="#000000" font-family="sans-serif" font-size="11" lengthAdjust="spacingAndGlyphs" textLength="72" x="376" y="535.3198">+Character()</text><!--MD5=[513d28559cb9b2f986fa50a4c3eda83f]
link StoryEvent to StoryGraph--><path codeLine="59" d="M285,166.204 C285,180.889 285,196.886 285,212.65 " fill="none" id="StoryEvent-to-StoryGraph" style="stroke: #A80036; stroke-width: 1.0;"/><polygon fill="#A80036" points="285,225.802,289,219.802,285,213.802,281,219.802,285,225.802" style="stroke: #A80036; stroke-width: 1.0;"/><text fill="#000000" font-family="sans-serif" font-size="13" lengthAdjust="spacingAndGlyphs" textLength="8" x="276.5625" y="185.9661">n</text><text fill="#000000" font-family="sans-serif" font-size="13" lengthAdjust="spacingAndGlyphs" textLength="8" x="276.6438" y="214.9198">1</text><!--MD5=[c53e1f9c02f78d6f6c6c47087547b478]
link StoryGraph to mf--><path codeLine="60" d="M231.199,389.201 C217.688,409.468 203.6,430.6 191.493,448.761 " fill="none" id="StoryGraph-mf" style="stroke: #A80036; stroke-width: 1.0;"/><!--MD5=[f80b4c689c2fbad67007e34e43864d26]
link StoryGraph to Character--><path codeLine="61" d="M341.79,389.201 C357.817,411.976 374.613,435.844 388.346,455.359 " fill="none" id="StoryGraph-Character" style="stroke: #A80036; stroke-width: 1.0;"/><!--MD5=[d7db87ef639825ac303fec40d74a2b35]
link Character to Skills--><path codeLine="62" d="M429.221,541.915 C436.361,568.906 445.683,604.141 453.397,633.301 " fill="none" id="Character-Skills" style="stroke: #A80036; stroke-width: 1.0;"/><!--MD5=[2d3469a9cdf6af823ac71c279ee21e31]
link mf to mcei--><path codeLine="63" d="M159,548.172 C159,566.328 159,587.462 159,607.734 " fill="none" id="mf-mcei" style="stroke: #A80036; stroke-width: 1.0;"/><!--MD5=[63724e4bd5e0b29029b3598b772a27b3]
link StoryGraph to mcei--><path codeLine="64" d="M289.791,389.184 C289.917,436.848 285.281,497.543 266,548 C258.01,568.908 245.877,589.316 232.612,607.81 " fill="none" id="StoryGraph-mcei" style="stroke: #A80036; stroke-width: 1.0;"/><!--MD5=[dffba32814edd986538b19d0cd4d382c]
@startuml
skinparam classAttributeIconSize 0

package "Moderator-Client" {

  class StoryEvent {
    {field} -eventId: int
    {field} -description: string
    {field} -parent: StoryEvent
    {field} -children: StoryEvent[]
    {method} +StoryEvent(parent: StoryEvent, id: int)
    {method} +addChild(): void
  }

  class StoryGraph {
    {field} -character: Character
    {field} -root: StoryEvent
    {field} -currentEvent: StoryEvent
    {method} +StoryGraph(id: int)
    {method} +loadGraphFromFile(filepath: string): Graph
    {method} +saveGraphToFile(filepath: string): void
    {method} +getNextPossibleEvent(): StoryEvent[]
    {method} +setCurrentEvent(newCurrentEvent: StoryEvent): void
    {method} +getNextStoryEventById(id: int): StoryEvent
  }

  class "ModeratorView" as mf {
    {field} -startedOnline: bool
    {method} +ModeratorView()
    {method} +pausePolling(val: bool): void
    {method} +offlineMode(val: bool): void
  }

  class "ModeratorClientExchange" as mcei{
    {field} -websocket: WebSocket
    {field} -authentificationGuid: Guid
    {field} -timeoutDuration: int
    {method} +ModeratorClientExchange()
    {method} +sendMessage(message: string): void
    {method} +evalJSON(json: string): bool
    {method} +endCurrentPollAndGetVotingResults(): int
    {method} +makeJSON(): string
    {method} +enterPassword(pw: string): void
  }

  class Skills {
    {field} -communication: int
    {field} -analytics: int
    {field} -partying: int
    {field} -programming: int
    {method} + Skills(commu: int, analy: int, party: int, progr: int)
  }

  class Character {
    {field} -abilities: Skills
    {field} -name: string
    {method} +Character()
  }
  
  StoryEvent "n" - -* "1" StoryGraph
  StoryGraph - - mf
  StoryGraph - - Character
  Character - - Skills
  mf - - mcei
  StoryGraph - - - mcei
}
@enduml

PlantUML version 1.2020.20beta13(Unknown compile time)
(GPL source distribution)
Java Runtime: Java(TM) SE Runtime Environment
JVM: Java HotSpot(TM) 64-Bit Server VM
Default Encoding: UTF-8
Language: en
Country: US
--></g></svg>