<?xml version="1.0" encoding="UTF-8" standalone="no"?><svg xmlns="http://www.w3.org/2000/svg" xmlns:xlink="http://www.w3.org/1999/xlink" contentScriptType="application/ecmascript" contentStyleType="text/css" height="781px" preserveAspectRatio="none" style="width:642px;height:781px;" version="1.1" viewBox="0 0 642 781" width="642px" zoomAndPan="magnify"><defs><filter height="300%" id="fbt87au7a5bzs" width="300%" x="-1" y="-1"><feGaussianBlur result="blurOut" stdDeviation="2.0"/><feColorMatrix in="blurOut" result="blurOut2" type="matrix" values="0 0 0 0 0 0 0 0 0 0 0 0 0 0 0 0 0 0 .4 0"/><feOffset dx="4.0" dy="4.0" in="blurOut2" result="blurOut3"/><feBlend in="SourceGraphic" in2="blurOut3" mode="normal"/></filter></defs><g><!--MD5=[4544bf05af30223886112ffd96a1865f]
cluster Moderator-Client--><polygon fill="#FFFFFF" filter="url(#fbt87au7a5bzs)" points="16,6,160,6,167,28.2969,625,28.2969,625,774,16,774,16,6" style="stroke: #000000; stroke-width: 1.5;"/><line style="stroke: #000000; stroke-width: 1.5;" x1="16" x2="167" y1="28.2969" y2="28.2969"/><text fill="#000000" font-family="sans-serif" font-size="14" font-weight="bold" lengthAdjust="spacingAndGlyphs" textLength="138" x="20" y="20.9951">Moderator-Client</text><!--MD5=[3eaf92687768346c8d614b6fd2c22fb9]
class StoryEvent--><rect codeLine="5" fill="#FEFECE" filter="url(#fbt87au7a5bzs)" height="124.8281" id="StoryEvent" style="stroke: #A80036; stroke-width: 1.5;" width="237" x="177.5" y="41"/><ellipse cx="259.25" cy="57" fill="#ADD1B2" rx="11" ry="11" style="stroke: #A80036; stroke-width: 1.0;"/><path d="M261.5938,52.6719 C260.6563,52.2344 260.0625,52.0938 259.1875,52.0938 C256.5625,52.0938 254.5625,54.1719 254.5625,56.8906 L254.5625,58.0156 C254.5625,60.5938 256.6719,62.4844 259.5625,62.4844 C260.7813,62.4844 261.9375,62.1875 262.6875,61.6406 C263.2656,61.2344 263.5938,60.7813 263.5938,60.3906 C263.5938,59.9375 263.2031,59.5469 262.7344,59.5469 C262.5156,59.5469 262.3125,59.625 262.125,59.8125 C261.6719,60.2969 261.6719,60.2969 261.4844,60.3906 C261.0625,60.6563 260.375,60.7813 259.6094,60.7813 C257.5625,60.7813 256.2656,59.6875 256.2656,57.9844 L256.2656,56.8906 C256.2656,55.1094 257.5156,53.7969 259.25,53.7969 C259.8281,53.7969 260.4375,53.9531 260.9063,54.2031 C261.3906,54.4844 261.5625,54.7031 261.6563,55.1094 C261.7188,55.5156 261.75,55.6406 261.8906,55.7656 C262.0313,55.9063 262.2656,56.0156 262.4844,56.0156 C262.75,56.0156 263.0156,55.875 263.1875,55.6563 C263.2969,55.5 263.3281,55.3125 263.3281,54.8906 L263.3281,53.4688 C263.3281,53.0313 263.3125,52.9063 263.2188,52.75 C263.0625,52.4844 262.7813,52.3438 262.4844,52.3438 C262.1875,52.3438 261.9844,52.4375 261.7656,52.75 L261.5938,52.6719 Z " fill="#000000"/><text fill="#000000" font-family="sans-serif" font-size="12" lengthAdjust="spacingAndGlyphs" textLength="65" x="279.75" y="61.1543">StoryEvent</text><line style="stroke: #A80036; stroke-width: 1.5;" x1="178.5" x2="413.5" y1="73" y2="73"/><text fill="#000000" font-family="sans-serif" font-size="11" lengthAdjust="spacingAndGlyphs" textLength="69" x="183.5" y="87.2104">-eventId: int</text><text fill="#000000" font-family="sans-serif" font-size="11" lengthAdjust="spacingAndGlyphs" textLength="104" x="183.5" y="100.0151">-description: string</text><text fill="#000000" font-family="sans-serif" font-size="11" lengthAdjust="spacingAndGlyphs" textLength="111" x="183.5" y="112.8198">-parent: StoryEvent</text><text fill="#000000" font-family="sans-serif" font-size="11" lengthAdjust="spacingAndGlyphs" textLength="127" x="183.5" y="125.6245">-children: StoryEvent[]</text><line style="stroke: #A80036; stroke-width: 1.5;" x1="178.5" x2="413.5" y1="132.2188" y2="132.2188"/><text fill="#000000" font-family="sans-serif" font-size="11" lengthAdjust="spacingAndGlyphs" textLength="225" x="183.5" y="146.4292">+StoryEvent(parent: StoryEvent, id: int)</text><text fill="#000000" font-family="sans-serif" font-size="11" lengthAdjust="spacingAndGlyphs" textLength="97" x="183.5" y="159.2339">+addChild(): void</text><!--MD5=[efd5ebcc74ce0165d13c1df9fdb2b1d2]
class StoryGraph--><rect codeLine="14" fill="#FEFECE" filter="url(#fbt87au7a5bzs)" height="163.2422" id="StoryGraph" style="stroke: #A80036; stroke-width: 1.5;" width="322" x="135" y="226"/><ellipse cx="257.75" cy="242" fill="#ADD1B2" rx="11" ry="11" style="stroke: #A80036; stroke-width: 1.0;"/><path d="M260.0938,237.6719 C259.1563,237.2344 258.5625,237.0938 257.6875,237.0938 C255.0625,237.0938 253.0625,239.1719 253.0625,241.8906 L253.0625,243.0156 C253.0625,245.5938 255.1719,247.4844 258.0625,247.4844 C259.2813,247.4844 260.4375,247.1875 261.1875,246.6406 C261.7656,246.2344 262.0938,245.7813 262.0938,245.3906 C262.0938,244.9375 261.7031,244.5469 261.2344,244.5469 C261.0156,244.5469 260.8125,244.625 260.625,244.8125 C260.1719,245.2969 260.1719,245.2969 259.9844,245.3906 C259.5625,245.6563 258.875,245.7813 258.1094,245.7813 C256.0625,245.7813 254.7656,244.6875 254.7656,242.9844 L254.7656,241.8906 C254.7656,240.1094 256.0156,238.7969 257.75,238.7969 C258.3281,238.7969 258.9375,238.9531 259.4063,239.2031 C259.8906,239.4844 260.0625,239.7031 260.1563,240.1094 C260.2188,240.5156 260.25,240.6406 260.3906,240.7656 C260.5313,240.9063 260.7656,241.0156 260.9844,241.0156 C261.25,241.0156 261.5156,240.875 261.6875,240.6563 C261.7969,240.5 261.8281,240.3125 261.8281,239.8906 L261.8281,238.4688 C261.8281,238.0313 261.8125,237.9063 261.7188,237.75 C261.5625,237.4844 261.2813,237.3438 260.9844,237.3438 C260.6875,237.3438 260.4844,237.4375 260.2656,237.75 L260.0938,237.6719 Z " fill="#000000"/><text fill="#000000" font-family="sans-serif" font-size="12" lengthAdjust="spacingAndGlyphs" textLength="68" x="278.25" y="246.1543">StoryGraph</text><line style="stroke: #A80036; stroke-width: 1.5;" x1="136" x2="456" y1="258" y2="258"/><text fill="#000000" font-family="sans-serif" font-size="11" lengthAdjust="spacingAndGlyphs" textLength="119" x="141" y="272.2104">-character: Character</text><text fill="#000000" font-family="sans-serif" font-size="11" lengthAdjust="spacingAndGlyphs" textLength="96" x="141" y="285.0151">-root: StoryEvent</text><text fill="#000000" font-family="sans-serif" font-size="11" lengthAdjust="spacingAndGlyphs" textLength="147" x="141" y="297.8198">-currentEvent: StoryEvent</text><line style="stroke: #A80036; stroke-width: 1.5;" x1="136" x2="456" y1="304.4141" y2="304.4141"/><text fill="#000000" font-family="sans-serif" font-size="11" lengthAdjust="spacingAndGlyphs" textLength="112" x="141" y="318.6245">+StoryGraph(id: int)</text><text fill="#000000" font-family="sans-serif" font-size="11" lengthAdjust="spacingAndGlyphs" textLength="164" x="141" y="331.4292">+loadGraphFromFile(): Graph</text><text fill="#000000" font-family="sans-serif" font-size="11" lengthAdjust="spacingAndGlyphs" textLength="144" x="141" y="344.2339">+saveGraphToFile(): void</text><text fill="#000000" font-family="sans-serif" font-size="11" lengthAdjust="spacingAndGlyphs" textLength="220" x="141" y="357.0386">+getNextPossibleEvent(): StoryEvent[]</text><text fill="#000000" font-family="sans-serif" font-size="11" lengthAdjust="spacingAndGlyphs" textLength="310" x="141" y="369.8433">+setCurrentEvent(newCurrentEvent: StoryEvent): void</text><text fill="#000000" font-family="sans-serif" font-size="11" lengthAdjust="spacingAndGlyphs" textLength="252" x="141" y="382.6479">+getNextStoryEventById(id: int): StoryEvent</text><!--MD5=[bb849c1528464e2c6bbfb2687d0866b0]
class mf--><rect codeLine="26" fill="#FEFECE" filter="url(#fbt87au7a5bzs)" height="86.4141" id="mf" style="stroke: #A80036; stroke-width: 1.5;" width="201" x="58.5" y="449"/><ellipse cx="108.75" cy="465" fill="#ADD1B2" rx="11" ry="11" style="stroke: #A80036; stroke-width: 1.0;"/><path d="M111.0938,460.6719 C110.1563,460.2344 109.5625,460.0938 108.6875,460.0938 C106.0625,460.0938 104.0625,462.1719 104.0625,464.8906 L104.0625,466.0156 C104.0625,468.5938 106.1719,470.4844 109.0625,470.4844 C110.2813,470.4844 111.4375,470.1875 112.1875,469.6406 C112.7656,469.2344 113.0938,468.7813 113.0938,468.3906 C113.0938,467.9375 112.7031,467.5469 112.2344,467.5469 C112.0156,467.5469 111.8125,467.625 111.625,467.8125 C111.1719,468.2969 111.1719,468.2969 110.9844,468.3906 C110.5625,468.6563 109.875,468.7813 109.1094,468.7813 C107.0625,468.7813 105.7656,467.6875 105.7656,465.9844 L105.7656,464.8906 C105.7656,463.1094 107.0156,461.7969 108.75,461.7969 C109.3281,461.7969 109.9375,461.9531 110.4063,462.2031 C110.8906,462.4844 111.0625,462.7031 111.1563,463.1094 C111.2188,463.5156 111.25,463.6406 111.3906,463.7656 C111.5313,463.9063 111.7656,464.0156 111.9844,464.0156 C112.25,464.0156 112.5156,463.875 112.6875,463.6563 C112.7969,463.5 112.8281,463.3125 112.8281,462.8906 L112.8281,461.4688 C112.8281,461.0313 112.8125,460.9063 112.7188,460.75 C112.5625,460.4844 112.2813,460.3438 111.9844,460.3438 C111.6875,460.3438 111.4844,460.4375 111.2656,460.75 L111.0938,460.6719 Z " fill="#000000"/><text fill="#000000" font-family="sans-serif" font-size="12" lengthAdjust="spacingAndGlyphs" textLength="92" x="129.25" y="469.1543">ModeratorView</text><line style="stroke: #A80036; stroke-width: 1.5;" x1="59.5" x2="258.5" y1="481" y2="481"/><line style="stroke: #A80036; stroke-width: 1.5;" x1="59.5" x2="258.5" y1="489" y2="489"/><text fill="#000000" font-family="sans-serif" font-size="11" lengthAdjust="spacingAndGlyphs" textLength="102" x="64.5" y="503.2104">+ModeratorView()</text><text fill="#000000" font-family="sans-serif" font-size="11" lengthAdjust="spacingAndGlyphs" textLength="189" x="64.5" y="516.0151">+pausePolling(val: boolean): void</text><text fill="#000000" font-family="sans-serif" font-size="11" lengthAdjust="spacingAndGlyphs" textLength="185" x="64.5" y="528.8198">+offlineMode(val: boolean): void</text><!--MD5=[aef0d3d3c8a893455b9107cd4a3b357c]
class mcei--><rect codeLine="32" fill="#FEFECE" filter="url(#fbt87au7a5bzs)" height="163.2422" id="mcei" style="stroke: #A80036; stroke-width: 1.5;" width="253" x="32.5" y="595"/><ellipse cx="77.75" cy="611" fill="#ADD1B2" rx="11" ry="11" style="stroke: #A80036; stroke-width: 1.0;"/><path d="M80.0938,606.6719 C79.1563,606.2344 78.5625,606.0938 77.6875,606.0938 C75.0625,606.0938 73.0625,608.1719 73.0625,610.8906 L73.0625,612.0156 C73.0625,614.5938 75.1719,616.4844 78.0625,616.4844 C79.2813,616.4844 80.4375,616.1875 81.1875,615.6406 C81.7656,615.2344 82.0938,614.7813 82.0938,614.3906 C82.0938,613.9375 81.7031,613.5469 81.2344,613.5469 C81.0156,613.5469 80.8125,613.625 80.625,613.8125 C80.1719,614.2969 80.1719,614.2969 79.9844,614.3906 C79.5625,614.6563 78.875,614.7813 78.1094,614.7813 C76.0625,614.7813 74.7656,613.6875 74.7656,611.9844 L74.7656,610.8906 C74.7656,609.1094 76.0156,607.7969 77.75,607.7969 C78.3281,607.7969 78.9375,607.9531 79.4063,608.2031 C79.8906,608.4844 80.0625,608.7031 80.1563,609.1094 C80.2188,609.5156 80.25,609.6406 80.3906,609.7656 C80.5313,609.9063 80.7656,610.0156 80.9844,610.0156 C81.25,610.0156 81.5156,609.875 81.6875,609.6563 C81.7969,609.5 81.8281,609.3125 81.8281,608.8906 L81.8281,607.4688 C81.8281,607.0313 81.8125,606.9063 81.7188,606.75 C81.5625,606.4844 81.2813,606.3438 80.9844,606.3438 C80.6875,606.3438 80.4844,606.4375 80.2656,606.75 L80.0938,606.6719 Z " fill="#000000"/><text fill="#000000" font-family="sans-serif" font-size="12" lengthAdjust="spacingAndGlyphs" textLength="154" x="98.25" y="615.1543">ModeratorClientExchange</text><line style="stroke: #A80036; stroke-width: 1.5;" x1="33.5" x2="284.5" y1="627" y2="627"/><text fill="#000000" font-family="sans-serif" font-size="11" lengthAdjust="spacingAndGlyphs" textLength="137" x="38.5" y="641.2104">-websocket: WebSocket</text><text fill="#000000" font-family="sans-serif" font-size="11" lengthAdjust="spacingAndGlyphs" textLength="151" x="38.5" y="654.0151">-authentificationGuid: Guid</text><text fill="#000000" font-family="sans-serif" font-size="11" lengthAdjust="spacingAndGlyphs" textLength="117" x="38.5" y="666.8198">-timeoutDuration: int</text><line style="stroke: #A80036; stroke-width: 1.5;" x1="33.5" x2="284.5" y1="673.4141" y2="673.4141"/><text fill="#000000" font-family="sans-serif" font-size="11" lengthAdjust="spacingAndGlyphs" textLength="163" x="38.5" y="687.6245">+ModeratorClientExchange()</text><text fill="#000000" font-family="sans-serif" font-size="11" lengthAdjust="spacingAndGlyphs" textLength="218" x="38.5" y="700.4292">+sendMessage(message: string): void</text><text fill="#000000" font-family="sans-serif" font-size="11" lengthAdjust="spacingAndGlyphs" textLength="108" x="38.5" y="713.2339">+evalJSON(): string</text><text fill="#000000" font-family="sans-serif" font-size="11" lengthAdjust="spacingAndGlyphs" textLength="241" x="38.5" y="726.0386">+endCurrentPollAndGetVotingResults(): int</text><text fill="#000000" font-family="sans-serif" font-size="11" lengthAdjust="spacingAndGlyphs" textLength="115" x="38.5" y="738.8433">+makeJSON(): string</text><text fill="#000000" font-family="sans-serif" font-size="11" lengthAdjust="spacingAndGlyphs" textLength="185" x="38.5" y="751.6479">+enterPassword(pw: string): void</text><!--MD5=[5df65fb9e2c7a32924ba06dbc5719e6e]
class Skills--><rect codeLine="44" fill="#FEFECE" filter="url(#fbt87au7a5bzs)" height="112.0234" id="Skills" style="stroke: #A80036; stroke-width: 1.5;" width="288" x="321" y="620.5"/><ellipse cx="445.25" cy="636.5" fill="#ADD1B2" rx="11" ry="11" style="stroke: #A80036; stroke-width: 1.0;"/><path d="M447.5938,632.1719 C446.6563,631.7344 446.0625,631.5938 445.1875,631.5938 C442.5625,631.5938 440.5625,633.6719 440.5625,636.3906 L440.5625,637.5156 C440.5625,640.0938 442.6719,641.9844 445.5625,641.9844 C446.7813,641.9844 447.9375,641.6875 448.6875,641.1406 C449.2656,640.7344 449.5938,640.2813 449.5938,639.8906 C449.5938,639.4375 449.2031,639.0469 448.7344,639.0469 C448.5156,639.0469 448.3125,639.125 448.125,639.3125 C447.6719,639.7969 447.6719,639.7969 447.4844,639.8906 C447.0625,640.1563 446.375,640.2813 445.6094,640.2813 C443.5625,640.2813 442.2656,639.1875 442.2656,637.4844 L442.2656,636.3906 C442.2656,634.6094 443.5156,633.2969 445.25,633.2969 C445.8281,633.2969 446.4375,633.4531 446.9063,633.7031 C447.3906,633.9844 447.5625,634.2031 447.6563,634.6094 C447.7188,635.0156 447.75,635.1406 447.8906,635.2656 C448.0313,635.4063 448.2656,635.5156 448.4844,635.5156 C448.75,635.5156 449.0156,635.375 449.1875,635.1563 C449.2969,635 449.3281,634.8125 449.3281,634.3906 L449.3281,632.9688 C449.3281,632.5313 449.3125,632.4063 449.2188,632.25 C449.0625,631.9844 448.7813,631.8438 448.4844,631.8438 C448.1875,631.8438 447.9844,631.9375 447.7656,632.25 L447.5938,632.1719 Z " fill="#000000"/><text fill="#000000" font-family="sans-serif" font-size="12" lengthAdjust="spacingAndGlyphs" textLength="31" x="465.75" y="640.6543">Skills</text><line style="stroke: #A80036; stroke-width: 1.5;" x1="322" x2="608" y1="652.5" y2="652.5"/><text fill="#000000" font-family="sans-serif" font-size="11" lengthAdjust="spacingAndGlyphs" textLength="111" x="327" y="666.7104">-communication: int</text><text fill="#000000" font-family="sans-serif" font-size="11" lengthAdjust="spacingAndGlyphs" textLength="75" x="327" y="679.5151">-analytics: int</text><text fill="#000000" font-family="sans-serif" font-size="11" lengthAdjust="spacingAndGlyphs" textLength="71" x="327" y="692.3198">-partying: int</text><text fill="#000000" font-family="sans-serif" font-size="11" lengthAdjust="spacingAndGlyphs" textLength="100" x="327" y="705.1245">-programming: int</text><line style="stroke: #A80036; stroke-width: 1.5;" x1="322" x2="608" y1="711.7188" y2="711.7188"/><text fill="#000000" font-family="sans-serif" font-size="11" lengthAdjust="spacingAndGlyphs" textLength="276" x="327" y="725.9292">+Skill(commu: int, analy: int, party: int, progr: int)</text><!--MD5=[3eff9d4279c887ef9286477750bdaaff]
class Character--><rect codeLine="52" fill="#FEFECE" filter="url(#fbt87au7a5bzs)" height="86.4141" id="Character" style="stroke: #A80036; stroke-width: 1.5;" width="96" x="374" y="449"/><ellipse cx="391.7" cy="465" fill="#ADD1B2" rx="11" ry="11" style="stroke: #A80036; stroke-width: 1.0;"/><path d="M394.0438,460.6719 C393.1063,460.2344 392.5125,460.0938 391.6375,460.0938 C389.0125,460.0938 387.0125,462.1719 387.0125,464.8906 L387.0125,466.0156 C387.0125,468.5938 389.1219,470.4844 392.0125,470.4844 C393.2313,470.4844 394.3875,470.1875 395.1375,469.6406 C395.7156,469.2344 396.0438,468.7813 396.0438,468.3906 C396.0438,467.9375 395.6531,467.5469 395.1844,467.5469 C394.9656,467.5469 394.7625,467.625 394.575,467.8125 C394.1219,468.2969 394.1219,468.2969 393.9344,468.3906 C393.5125,468.6563 392.825,468.7813 392.0594,468.7813 C390.0125,468.7813 388.7156,467.6875 388.7156,465.9844 L388.7156,464.8906 C388.7156,463.1094 389.9656,461.7969 391.7,461.7969 C392.2781,461.7969 392.8875,461.9531 393.3563,462.2031 C393.8406,462.4844 394.0125,462.7031 394.1063,463.1094 C394.1688,463.5156 394.2,463.6406 394.3406,463.7656 C394.4813,463.9063 394.7156,464.0156 394.9344,464.0156 C395.2,464.0156 395.4656,463.875 395.6375,463.6563 C395.7469,463.5 395.7781,463.3125 395.7781,462.8906 L395.7781,461.4688 C395.7781,461.0313 395.7625,460.9063 395.6688,460.75 C395.5125,460.4844 395.2313,460.3438 394.9344,460.3438 C394.6375,460.3438 394.4344,460.4375 394.2156,460.75 L394.0438,460.6719 Z " fill="#000000"/><text fill="#000000" font-family="sans-serif" font-size="12" lengthAdjust="spacingAndGlyphs" textLength="58" x="406.3" y="469.1543">Character</text><line style="stroke: #A80036; stroke-width: 1.5;" x1="375" x2="469" y1="481" y2="481"/><text fill="#000000" font-family="sans-serif" font-size="11" lengthAdjust="spacingAndGlyphs" textLength="84" x="380" y="495.2104">-abilities: Skills</text><text fill="#000000" font-family="sans-serif" font-size="11" lengthAdjust="spacingAndGlyphs" textLength="75" x="380" y="508.0151">-name: string</text><line style="stroke: #A80036; stroke-width: 1.5;" x1="375" x2="469" y1="514.6094" y2="514.6094"/><text fill="#000000" font-family="sans-serif" font-size="11" lengthAdjust="spacingAndGlyphs" textLength="72" x="380" y="528.8198">+Character()</text><!--MD5=[513d28559cb9b2f986fa50a4c3eda83f]
link StoryEvent to StoryGraph--><path codeLine="58" d="M296,166.204 C296,180.889 296,196.886 296,212.65 " fill="none" id="StoryEvent-to-StoryGraph" style="stroke: #A80036; stroke-width: 1.0;"/><polygon fill="#A80036" points="296,225.802,300,219.802,296,213.802,292,219.802,296,225.802" style="stroke: #A80036; stroke-width: 1.0;"/><text fill="#000000" font-family="sans-serif" font-size="13" lengthAdjust="spacingAndGlyphs" textLength="8" x="287.5625" y="185.9661">n</text><text fill="#000000" font-family="sans-serif" font-size="13" lengthAdjust="spacingAndGlyphs" textLength="8" x="287.6438" y="214.9198">1</text><!--MD5=[c53e1f9c02f78d6f6c6c47087547b478]
link StoryGraph to mf--><path codeLine="59" d="M235.511,389.078 C220.028,409.704 203.991,431.066 190.624,448.873 " fill="none" id="StoryGraph-mf" style="stroke: #A80036; stroke-width: 1.0;"/><!--MD5=[f80b4c689c2fbad67007e34e43864d26]
link StoryGraph to Character--><path codeLine="60" d="M351.632,389.078 C365.872,409.704 380.621,431.066 392.915,448.873 " fill="none" id="StoryGraph-Character" style="stroke: #A80036; stroke-width: 1.0;"/><!--MD5=[d7db87ef639825ac303fec40d74a2b35]
link Character to Skills--><path codeLine="61" d="M431.973,535.328 C437.928,560.599 445.557,592.978 451.982,620.249 " fill="none" id="Character-Skills" style="stroke: #A80036; stroke-width: 1.0;"/><!--MD5=[2d3469a9cdf6af823ac71c279ee21e31]
link mf to mcei--><path codeLine="62" d="M159,535.328 C159,553.018 159,574.191 159,594.656 " fill="none" id="mf-mcei" style="stroke: #A80036; stroke-width: 1.0;"/><!--MD5=[63724e4bd5e0b29029b3598b772a27b3]
link StoryGraph to mcei--><path codeLine="63" d="M300.941,389.11 C300.835,433.667 295.918,489.125 277,535 C268.256,556.203 255.097,576.593 240.698,594.95 " fill="none" id="StoryGraph-mcei" style="stroke: #A80036; stroke-width: 1.0;"/><!--MD5=[bd9a8dc4102441a52d4cf1abb87f2dfc]
@startuml
skinparam classAttributeIconSize 0

package "Moderator-Client" {

  class StoryEvent {
    {field} -eventId: int
    {field} -description: string
    {field} -parent: StoryEvent
    {field} -children: StoryEvent[]
    {method} +StoryEvent(parent: StoryEvent, id: int)
    {method} +addChild(): void
  }

  class StoryGraph {
    {field} -character: Character
    {field} -root: StoryEvent
    {field} -currentEvent: StoryEvent
    {method} +StoryGraph(id: int)
    {method} +loadGraphFromFile(): Graph
    {method} +saveGraphToFile(): void
    {method} +getNextPossibleEvent(): StoryEvent[]
    {method} +setCurrentEvent(newCurrentEvent: StoryEvent): void
    {method} +getNextStoryEventById(id: int): StoryEvent
  }

  class "ModeratorView" as mf {
    {method} +ModeratorView()
    {method} +pausePolling(val: boolean): void
    {method} +offlineMode(val: boolean): void
  }

  class "ModeratorClientExchange" as mcei{
    {field} -websocket: WebSocket
    {field} -authentificationGuid: Guid
    {field} -timeoutDuration: int
    {method} +ModeratorClientExchange()
    {method} +sendMessage(message: string): void
    {method} +evalJSON(): string
    {method} +endCurrentPollAndGetVotingResults(): int
    {method} +makeJSON(): string
    {method} +enterPassword(pw: string): void
  }

  class Skills {
    {field} -communication: int
    {field} -analytics: int
    {field} -partying: int
    {field} -programming: int
    {method} + Skill(commu: int, analy: int, party: int, progr: int)
  }

  class Character {
    {field} -abilities: Skills
    {field} -name: string
    {method} +Character()
  }
  
  StoryEvent "n" - -* "1" StoryGraph
  StoryGraph - - mf
  StoryGraph - - Character
  Character - - Skills
  mf - - mcei
  StoryGraph - - - mcei
}
@enduml

PlantUML version 1.2020.20beta11(Unknown compile time)
(GPL source distribution)
Java Runtime: Java(TM) SE Runtime Environment
JVM: Java HotSpot(TM) 64-Bit Server VM
Default Encoding: UTF-8
Language: en
Country: US
--></g></svg>