<?xml version="1.0" encoding="UTF-8" standalone="no"?><svg xmlns="http://www.w3.org/2000/svg" xmlns:xlink="http://www.w3.org/1999/xlink" contentScriptType="application/ecmascript" contentStyleType="text/css" height="769px" preserveAspectRatio="none" style="width:576px;height:769px;" version="1.1" viewBox="0 0 576 769" width="576px" zoomAndPan="magnify"><defs><filter height="300%" id="f2e45q70xd7sg" width="300%" x="-1" y="-1"><feGaussianBlur result="blurOut" stdDeviation="2.0"/><feColorMatrix in="blurOut" result="blurOut2" type="matrix" values="0 0 0 0 0 0 0 0 0 0 0 0 0 0 0 0 0 0 .4 0"/><feOffset dx="4.0" dy="4.0" in="blurOut2" result="blurOut3"/><feBlend in="SourceGraphic" in2="blurOut3" mode="normal"/></filter></defs><g><!--MD5=[4544bf05af30223886112ffd96a1865f]
cluster Moderator-Client--><polygon fill="#FFFFFF" filter="url(#f2e45q70xd7sg)" points="16,6,160,6,167,28.2969,559,28.2969,559,762,16,762,16,6" style="stroke: #000000; stroke-width: 1.5;"/><line style="stroke: #000000; stroke-width: 1.5;" x1="16" x2="167" y1="28.2969" y2="28.2969"/><text fill="#000000" font-family="sans-serif" font-size="14" font-weight="bold" lengthAdjust="spacingAndGlyphs" textLength="138" x="20" y="20.9951">Moderator-Client</text><!--MD5=[3eaf92687768346c8d614b6fd2c22fb9]
class StoryEvent--><rect codeLine="5" fill="#FEFECE" filter="url(#f2e45q70xd7sg)" height="124.8281" id="StoryEvent" style="stroke: #A80036; stroke-width: 1.5;" width="237" x="156.5" y="41"/><ellipse cx="238.25" cy="57" fill="#ADD1B2" rx="11" ry="11" style="stroke: #A80036; stroke-width: 1.0;"/><path d="M240.5938,52.6719 C239.6563,52.2344 239.0625,52.0938 238.1875,52.0938 C235.5625,52.0938 233.5625,54.1719 233.5625,56.8906 L233.5625,58.0156 C233.5625,60.5938 235.6719,62.4844 238.5625,62.4844 C239.7813,62.4844 240.9375,62.1875 241.6875,61.6406 C242.2656,61.2344 242.5938,60.7813 242.5938,60.3906 C242.5938,59.9375 242.2031,59.5469 241.7344,59.5469 C241.5156,59.5469 241.3125,59.625 241.125,59.8125 C240.6719,60.2969 240.6719,60.2969 240.4844,60.3906 C240.0625,60.6563 239.375,60.7813 238.6094,60.7813 C236.5625,60.7813 235.2656,59.6875 235.2656,57.9844 L235.2656,56.8906 C235.2656,55.1094 236.5156,53.7969 238.25,53.7969 C238.8281,53.7969 239.4375,53.9531 239.9063,54.2031 C240.3906,54.4844 240.5625,54.7031 240.6563,55.1094 C240.7188,55.5156 240.75,55.6406 240.8906,55.7656 C241.0313,55.9063 241.2656,56.0156 241.4844,56.0156 C241.75,56.0156 242.0156,55.875 242.1875,55.6563 C242.2969,55.5 242.3281,55.3125 242.3281,54.8906 L242.3281,53.4688 C242.3281,53.0313 242.3125,52.9063 242.2188,52.75 C242.0625,52.4844 241.7813,52.3438 241.4844,52.3438 C241.1875,52.3438 240.9844,52.4375 240.7656,52.75 L240.5938,52.6719 Z " fill="#000000"/><text fill="#000000" font-family="sans-serif" font-size="12" lengthAdjust="spacingAndGlyphs" textLength="65" x="258.75" y="61.1543">StoryEvent</text><line style="stroke: #A80036; stroke-width: 1.5;" x1="157.5" x2="392.5" y1="73" y2="73"/><text fill="#000000" font-family="sans-serif" font-size="11" lengthAdjust="spacingAndGlyphs" textLength="74" x="162.5" y="87.2104">+eventId: int</text><text fill="#000000" font-family="sans-serif" font-size="11" lengthAdjust="spacingAndGlyphs" textLength="109" x="162.5" y="100.0151">+description: string</text><text fill="#000000" font-family="sans-serif" font-size="11" lengthAdjust="spacingAndGlyphs" textLength="116" x="162.5" y="112.8198">+parent: StoryEvent</text><text fill="#000000" font-family="sans-serif" font-size="11" lengthAdjust="spacingAndGlyphs" textLength="132" x="162.5" y="125.6245">+children: StoryEvent[]</text><line style="stroke: #A80036; stroke-width: 1.5;" x1="157.5" x2="392.5" y1="132.2188" y2="132.2188"/><text fill="#000000" font-family="sans-serif" font-size="11" lengthAdjust="spacingAndGlyphs" textLength="225" x="162.5" y="146.4292">+StoryEvent(parent: StoryEvent, id: int)</text><text fill="#000000" font-family="sans-serif" font-size="11" lengthAdjust="spacingAndGlyphs" textLength="97" x="162.5" y="159.2339">+addChild(): void</text><!--MD5=[efd5ebcc74ce0165d13c1df9fdb2b1d2]
class StoryGraph--><rect codeLine="14" fill="#FEFECE" filter="url(#f2e45q70xd7sg)" height="176.0469" id="StoryGraph" style="stroke: #A80036; stroke-width: 1.5;" width="322" x="114" y="226"/><ellipse cx="236.75" cy="242" fill="#ADD1B2" rx="11" ry="11" style="stroke: #A80036; stroke-width: 1.0;"/><path d="M239.0938,237.6719 C238.1563,237.2344 237.5625,237.0938 236.6875,237.0938 C234.0625,237.0938 232.0625,239.1719 232.0625,241.8906 L232.0625,243.0156 C232.0625,245.5938 234.1719,247.4844 237.0625,247.4844 C238.2813,247.4844 239.4375,247.1875 240.1875,246.6406 C240.7656,246.2344 241.0938,245.7813 241.0938,245.3906 C241.0938,244.9375 240.7031,244.5469 240.2344,244.5469 C240.0156,244.5469 239.8125,244.625 239.625,244.8125 C239.1719,245.2969 239.1719,245.2969 238.9844,245.3906 C238.5625,245.6563 237.875,245.7813 237.1094,245.7813 C235.0625,245.7813 233.7656,244.6875 233.7656,242.9844 L233.7656,241.8906 C233.7656,240.1094 235.0156,238.7969 236.75,238.7969 C237.3281,238.7969 237.9375,238.9531 238.4063,239.2031 C238.8906,239.4844 239.0625,239.7031 239.1563,240.1094 C239.2188,240.5156 239.25,240.6406 239.3906,240.7656 C239.5313,240.9063 239.7656,241.0156 239.9844,241.0156 C240.25,241.0156 240.5156,240.875 240.6875,240.6563 C240.7969,240.5 240.8281,240.3125 240.8281,239.8906 L240.8281,238.4688 C240.8281,238.0313 240.8125,237.9063 240.7188,237.75 C240.5625,237.4844 240.2813,237.3438 239.9844,237.3438 C239.6875,237.3438 239.4844,237.4375 239.2656,237.75 L239.0938,237.6719 Z " fill="#000000"/><text fill="#000000" font-family="sans-serif" font-size="12" lengthAdjust="spacingAndGlyphs" textLength="68" x="257.25" y="246.1543">StoryGraph</text><line style="stroke: #A80036; stroke-width: 1.5;" x1="115" x2="435" y1="258" y2="258"/><text fill="#000000" font-family="sans-serif" font-size="11" lengthAdjust="spacingAndGlyphs" textLength="40" x="120" y="272.2104">+id: int</text><text fill="#000000" font-family="sans-serif" font-size="11" lengthAdjust="spacingAndGlyphs" textLength="124" x="120" y="285.0151">+character: Character</text><text fill="#000000" font-family="sans-serif" font-size="11" lengthAdjust="spacingAndGlyphs" textLength="101" x="120" y="297.8198">+root: StoryEvent</text><text fill="#000000" font-family="sans-serif" font-size="11" lengthAdjust="spacingAndGlyphs" textLength="152" x="120" y="310.6245">+currentEvent: StoryEvent</text><line style="stroke: #A80036; stroke-width: 1.5;" x1="115" x2="435" y1="317.2188" y2="317.2188"/><text fill="#000000" font-family="sans-serif" font-size="11" lengthAdjust="spacingAndGlyphs" textLength="112" x="120" y="331.4292">+StoryGraph(id: int)</text><text fill="#000000" font-family="sans-serif" font-size="11" lengthAdjust="spacingAndGlyphs" textLength="164" x="120" y="344.2339">+loadGraphFromFile(): Graph</text><text fill="#000000" font-family="sans-serif" font-size="11" lengthAdjust="spacingAndGlyphs" textLength="144" x="120" y="357.0386">+saveGraphToFile(): void</text><text fill="#000000" font-family="sans-serif" font-size="11" lengthAdjust="spacingAndGlyphs" textLength="220" x="120" y="369.8433">+getNextPossibleEvent(): StoryEvent[]</text><text fill="#000000" font-family="sans-serif" font-size="11" lengthAdjust="spacingAndGlyphs" textLength="310" x="120" y="382.6479">+setCurrentEvent(newCurrentEvent: StoryEvent): void</text><text fill="#000000" font-family="sans-serif" font-size="11" lengthAdjust="spacingAndGlyphs" textLength="252" x="120" y="395.4526">+getNextStoryEventById(id: int): StoryEvent</text><!--MD5=[bb849c1528464e2c6bbfb2687d0866b0]
class mf--><rect codeLine="27" fill="#FEFECE" filter="url(#f2e45q70xd7sg)" height="99.2188" id="mf" style="stroke: #A80036; stroke-width: 1.5;" width="201" x="90.5" y="462"/><ellipse cx="140.75" cy="478" fill="#ADD1B2" rx="11" ry="11" style="stroke: #A80036; stroke-width: 1.0;"/><path d="M143.0938,473.6719 C142.1563,473.2344 141.5625,473.0938 140.6875,473.0938 C138.0625,473.0938 136.0625,475.1719 136.0625,477.8906 L136.0625,479.0156 C136.0625,481.5938 138.1719,483.4844 141.0625,483.4844 C142.2813,483.4844 143.4375,483.1875 144.1875,482.6406 C144.7656,482.2344 145.0938,481.7813 145.0938,481.3906 C145.0938,480.9375 144.7031,480.5469 144.2344,480.5469 C144.0156,480.5469 143.8125,480.625 143.625,480.8125 C143.1719,481.2969 143.1719,481.2969 142.9844,481.3906 C142.5625,481.6563 141.875,481.7813 141.1094,481.7813 C139.0625,481.7813 137.7656,480.6875 137.7656,478.9844 L137.7656,477.8906 C137.7656,476.1094 139.0156,474.7969 140.75,474.7969 C141.3281,474.7969 141.9375,474.9531 142.4063,475.2031 C142.8906,475.4844 143.0625,475.7031 143.1563,476.1094 C143.2188,476.5156 143.25,476.6406 143.3906,476.7656 C143.5313,476.9063 143.7656,477.0156 143.9844,477.0156 C144.25,477.0156 144.5156,476.875 144.6875,476.6563 C144.7969,476.5 144.8281,476.3125 144.8281,475.8906 L144.8281,474.4688 C144.8281,474.0313 144.8125,473.9063 144.7188,473.75 C144.5625,473.4844 144.2813,473.3438 143.9844,473.3438 C143.6875,473.3438 143.4844,473.4375 143.2656,473.75 L143.0938,473.6719 Z " fill="#000000"/><text fill="#000000" font-family="sans-serif" font-size="12" lengthAdjust="spacingAndGlyphs" textLength="92" x="161.25" y="482.1543">ModeratorView</text><line style="stroke: #A80036; stroke-width: 1.5;" x1="91.5" x2="290.5" y1="494" y2="494"/><text fill="#000000" font-family="sans-serif" font-size="11" lengthAdjust="spacingAndGlyphs" textLength="122" x="96.5" y="508.2104">+timeoutDuration: int</text><line style="stroke: #A80036; stroke-width: 1.5;" x1="91.5" x2="290.5" y1="514.8047" y2="514.8047"/><text fill="#000000" font-family="sans-serif" font-size="11" lengthAdjust="spacingAndGlyphs" textLength="102" x="96.5" y="529.0151">+ModeratorView()</text><text fill="#000000" font-family="sans-serif" font-size="11" lengthAdjust="spacingAndGlyphs" textLength="189" x="96.5" y="541.8198">+pausePolling(val: boolean): void</text><text fill="#000000" font-family="sans-serif" font-size="11" lengthAdjust="spacingAndGlyphs" textLength="185" x="96.5" y="554.6245">+offlineMode(val: boolean): void</text><!--MD5=[aef0d3d3c8a893455b9107cd4a3b357c]
class mcei--><rect codeLine="34" fill="#FEFECE" filter="url(#f2e45q70xd7sg)" height="112.0234" id="mcei" style="stroke: #A80036; stroke-width: 1.5;" width="276" x="32" y="627.5"/><ellipse cx="88.75" cy="643.5" fill="#ADD1B2" rx="11" ry="11" style="stroke: #A80036; stroke-width: 1.0;"/><path d="M91.0938,639.1719 C90.1563,638.7344 89.5625,638.5938 88.6875,638.5938 C86.0625,638.5938 84.0625,640.6719 84.0625,643.3906 L84.0625,644.5156 C84.0625,647.0938 86.1719,648.9844 89.0625,648.9844 C90.2813,648.9844 91.4375,648.6875 92.1875,648.1406 C92.7656,647.7344 93.0938,647.2813 93.0938,646.8906 C93.0938,646.4375 92.7031,646.0469 92.2344,646.0469 C92.0156,646.0469 91.8125,646.125 91.625,646.3125 C91.1719,646.7969 91.1719,646.7969 90.9844,646.8906 C90.5625,647.1563 89.875,647.2813 89.1094,647.2813 C87.0625,647.2813 85.7656,646.1875 85.7656,644.4844 L85.7656,643.3906 C85.7656,641.6094 87.0156,640.2969 88.75,640.2969 C89.3281,640.2969 89.9375,640.4531 90.4063,640.7031 C90.8906,640.9844 91.0625,641.2031 91.1563,641.6094 C91.2188,642.0156 91.25,642.1406 91.3906,642.2656 C91.5313,642.4063 91.7656,642.5156 91.9844,642.5156 C92.25,642.5156 92.5156,642.375 92.6875,642.1563 C92.7969,642 92.8281,641.8125 92.8281,641.3906 L92.8281,639.9688 C92.8281,639.5313 92.8125,639.4063 92.7188,639.25 C92.5625,638.9844 92.2813,638.8438 91.9844,638.8438 C91.6875,638.8438 91.4844,638.9375 91.2656,639.25 L91.0938,639.1719 Z " fill="#000000"/><text fill="#000000" font-family="sans-serif" font-size="12" lengthAdjust="spacingAndGlyphs" textLength="154" x="109.25" y="647.6543">ModeratorClientExchange</text><line style="stroke: #A80036; stroke-width: 1.5;" x1="33" x2="307" y1="659.5" y2="659.5"/><text fill="#000000" font-family="sans-serif" font-size="11" lengthAdjust="spacingAndGlyphs" textLength="142" x="38" y="673.7104">+websocket: WebSocket</text><text fill="#000000" font-family="sans-serif" font-size="11" lengthAdjust="spacingAndGlyphs" textLength="264" x="38" y="686.5151">+authentificationTokenModeratorClient: Token</text><line style="stroke: #A80036; stroke-width: 1.5;" x1="33" x2="307" y1="693.1094" y2="693.1094"/><text fill="#000000" font-family="sans-serif" font-size="11" lengthAdjust="spacingAndGlyphs" textLength="163" x="38" y="707.3198">+ModeratorClientExchange()</text><text fill="#000000" font-family="sans-serif" font-size="11" lengthAdjust="spacingAndGlyphs" textLength="142" x="38" y="720.1245">+getCurrentPollEval(): int</text><text fill="#000000" font-family="sans-serif" font-size="11" lengthAdjust="spacingAndGlyphs" textLength="115" x="38" y="732.9292">+makeJSON(): string</text><!--MD5=[42e1add689e888dd7b55d3ee3f1dd6d7]
class Skill--><rect codeLine="42" fill="#FEFECE" filter="url(#f2e45q70xd7sg)" height="124.8281" id="Skill" style="stroke: #A80036; stroke-width: 1.5;" width="200" x="343" y="621"/><ellipse cx="426.75" cy="637" fill="#ADD1B2" rx="11" ry="11" style="stroke: #A80036; stroke-width: 1.0;"/><path d="M429.0938,632.6719 C428.1563,632.2344 427.5625,632.0938 426.6875,632.0938 C424.0625,632.0938 422.0625,634.1719 422.0625,636.8906 L422.0625,638.0156 C422.0625,640.5938 424.1719,642.4844 427.0625,642.4844 C428.2813,642.4844 429.4375,642.1875 430.1875,641.6406 C430.7656,641.2344 431.0938,640.7813 431.0938,640.3906 C431.0938,639.9375 430.7031,639.5469 430.2344,639.5469 C430.0156,639.5469 429.8125,639.625 429.625,639.8125 C429.1719,640.2969 429.1719,640.2969 428.9844,640.3906 C428.5625,640.6563 427.875,640.7813 427.1094,640.7813 C425.0625,640.7813 423.7656,639.6875 423.7656,637.9844 L423.7656,636.8906 C423.7656,635.1094 425.0156,633.7969 426.75,633.7969 C427.3281,633.7969 427.9375,633.9531 428.4063,634.2031 C428.8906,634.4844 429.0625,634.7031 429.1563,635.1094 C429.2188,635.5156 429.25,635.6406 429.3906,635.7656 C429.5313,635.9063 429.7656,636.0156 429.9844,636.0156 C430.25,636.0156 430.5156,635.875 430.6875,635.6563 C430.7969,635.5 430.8281,635.3125 430.8281,634.8906 L430.8281,633.4688 C430.8281,633.0313 430.8125,632.9063 430.7188,632.75 C430.5625,632.4844 430.2813,632.3438 429.9844,632.3438 C429.6875,632.3438 429.4844,632.4375 429.2656,632.75 L429.0938,632.6719 Z " fill="#000000"/><text fill="#000000" font-family="sans-serif" font-size="12" lengthAdjust="spacingAndGlyphs" textLength="24" x="447.25" y="641.1543">Skill</text><line style="stroke: #A80036; stroke-width: 1.5;" x1="344" x2="542" y1="653" y2="653"/><text fill="#000000" font-family="sans-serif" font-size="11" lengthAdjust="spacingAndGlyphs" textLength="40" x="349" y="667.2104">+id: int</text><text fill="#000000" font-family="sans-serif" font-size="11" lengthAdjust="spacingAndGlyphs" textLength="62" x="349" y="680.0151">+value: int</text><text fill="#000000" font-family="sans-serif" font-size="11" lengthAdjust="spacingAndGlyphs" textLength="109" x="349" y="692.8198">+description: string</text><line style="stroke: #A80036; stroke-width: 1.5;" x1="344" x2="542" y1="699.4141" y2="699.4141"/><text fill="#000000" font-family="sans-serif" font-size="11" lengthAdjust="spacingAndGlyphs" textLength="188" x="349" y="713.6245">+Skill(id: int, val: int, desc: string)</text><text fill="#000000" font-family="sans-serif" font-size="11" lengthAdjust="spacingAndGlyphs" textLength="137" x="349" y="726.4292">+setValue(val: int): void</text><text fill="#000000" font-family="sans-serif" font-size="11" lengthAdjust="spacingAndGlyphs" textLength="90" x="349" y="739.2339">+getValue(): int</text><!--MD5=[3eff9d4279c887ef9286477750bdaaff]
class Character--><rect codeLine="51" fill="#FEFECE" filter="url(#f2e45q70xd7sg)" height="99.2188" id="Character" style="stroke: #A80036; stroke-width: 1.5;" width="105" x="368.5" y="462"/><ellipse cx="390.25" cy="478" fill="#ADD1B2" rx="11" ry="11" style="stroke: #A80036; stroke-width: 1.0;"/><path d="M392.5938,473.6719 C391.6563,473.2344 391.0625,473.0938 390.1875,473.0938 C387.5625,473.0938 385.5625,475.1719 385.5625,477.8906 L385.5625,479.0156 C385.5625,481.5938 387.6719,483.4844 390.5625,483.4844 C391.7813,483.4844 392.9375,483.1875 393.6875,482.6406 C394.2656,482.2344 394.5938,481.7813 394.5938,481.3906 C394.5938,480.9375 394.2031,480.5469 393.7344,480.5469 C393.5156,480.5469 393.3125,480.625 393.125,480.8125 C392.6719,481.2969 392.6719,481.2969 392.4844,481.3906 C392.0625,481.6563 391.375,481.7813 390.6094,481.7813 C388.5625,481.7813 387.2656,480.6875 387.2656,478.9844 L387.2656,477.8906 C387.2656,476.1094 388.5156,474.7969 390.25,474.7969 C390.8281,474.7969 391.4375,474.9531 391.9063,475.2031 C392.3906,475.4844 392.5625,475.7031 392.6563,476.1094 C392.7188,476.5156 392.75,476.6406 392.8906,476.7656 C393.0313,476.9063 393.2656,477.0156 393.4844,477.0156 C393.75,477.0156 394.0156,476.875 394.1875,476.6563 C394.2969,476.5 394.3281,476.3125 394.3281,475.8906 L394.3281,474.4688 C394.3281,474.0313 394.3125,473.9063 394.2188,473.75 C394.0625,473.4844 393.7813,473.3438 393.4844,473.3438 C393.1875,473.3438 392.9844,473.4375 392.7656,473.75 L392.5938,473.6719 Z " fill="#000000"/><text fill="#000000" font-family="sans-serif" font-size="12" lengthAdjust="spacingAndGlyphs" textLength="58" x="405.75" y="482.1543">Character</text><line style="stroke: #A80036; stroke-width: 1.5;" x1="369.5" x2="472.5" y1="494" y2="494"/><text fill="#000000" font-family="sans-serif" font-size="11" lengthAdjust="spacingAndGlyphs" textLength="93" x="374.5" y="508.2104">+sprite: Texture</text><text fill="#000000" font-family="sans-serif" font-size="11" lengthAdjust="spacingAndGlyphs" textLength="91" x="374.5" y="521.0151">+abilities: Skill[]</text><text fill="#000000" font-family="sans-serif" font-size="11" lengthAdjust="spacingAndGlyphs" textLength="80" x="374.5" y="533.8198">+name: string</text><line style="stroke: #A80036; stroke-width: 1.5;" x1="369.5" x2="472.5" y1="540.4141" y2="540.4141"/><text fill="#000000" font-family="sans-serif" font-size="11" lengthAdjust="spacingAndGlyphs" textLength="72" x="374.5" y="554.6245">+Character()</text><!--MD5=[513d28559cb9b2f986fa50a4c3eda83f]
link StoryEvent to StoryGraph--><path codeLine="58" d="M275,166.211 C275,180.846 275,196.83 275,212.693 " fill="none" id="StoryEvent-to-StoryGraph" style="stroke: #A80036; stroke-width: 1.0;"/><polygon fill="#A80036" points="275,225.957,279,219.957,275,213.957,271,219.957,275,225.957" style="stroke: #A80036; stroke-width: 1.0;"/><text fill="#000000" font-family="sans-serif" font-size="13" lengthAdjust="spacingAndGlyphs" textLength="8" x="266.5625" y="185.9739">n</text><text fill="#000000" font-family="sans-serif" font-size="13" lengthAdjust="spacingAndGlyphs" textLength="8" x="266.6563" y="214.8169">1</text><!--MD5=[c53e1f9c02f78d6f6c6c47087547b478]
link StoryGraph to mf--><path codeLine="59" d="M237.545,402.172 C228.751,422.639 219.688,443.731 211.923,461.804 " fill="none" id="StoryGraph-mf" style="stroke: #A80036; stroke-width: 1.0;"/><!--MD5=[f80b4c689c2fbad67007e34e43864d26]
link StoryGraph to Character--><path codeLine="60" d="M340.101,402.172 C355.385,422.639 371.137,443.731 384.633,461.804 " fill="none" id="StoryGraph-Character" style="stroke: #A80036; stroke-width: 1.0;"/><!--MD5=[4b16aa1dee279ab3d1d003602504b70d]
reverse link Character to Skill--><path codeLine="61" d="M428.985,574.202 C430.946,589.355 433.045,605.579 435.007,620.734 " fill="none" id="Character-backto-Skill" style="stroke: #A80036; stroke-width: 1.0;"/><polygon fill="#A80036" points="427.304,561.215,424.1072,567.6788,428.8442,573.1158,432.041,566.652,427.304,561.215" style="stroke: #A80036; stroke-width: 1.0;"/><text fill="#000000" font-family="sans-serif" font-size="13" lengthAdjust="spacingAndGlyphs" textLength="8" x="419.628" y="581.3217">1</text><text fill="#000000" font-family="sans-serif" font-size="13" lengthAdjust="spacingAndGlyphs" textLength="8" x="425.6953" y="610.1322">n</text><!--MD5=[2d3469a9cdf6af823ac71c279ee21e31]
link mf to mcei--><path codeLine="62" d="M184.982,561.215 C182.425,581.917 179.431,606.155 176.794,627.498 " fill="none" id="mf-mcei" style="stroke: #A80036; stroke-width: 1.0;"/><!--MD5=[39560b204e0997228716975f44c5aaef]
@startuml
skinparam classAttributeIconSize 0

package "Moderator-Client" {

  class StoryEvent {
    {field} +eventId: int
    {field} +description: string
    {field} +parent: StoryEvent
    {field} +children: StoryEvent[]
    {method} +StoryEvent(parent: StoryEvent, id: int)
    {method} +addChild(): void
  }

  class StoryGraph {
    {field} +id: int
    {field} +character: Character
    {field} +root: StoryEvent
    {field} +currentEvent: StoryEvent
    {method} +StoryGraph(id: int)
    {method} +loadGraphFromFile(): Graph
    {method} +saveGraphToFile(): void
    {method} +getNextPossibleEvent(): StoryEvent[]
    {method} +setCurrentEvent(newCurrentEvent: StoryEvent): void
    {method} +getNextStoryEventById(id: int): StoryEvent
  }

  class "ModeratorView" as mf {
    {field} +timeoutDuration: int
    {method} +ModeratorView()
    {method} +pausePolling(val: boolean): void
    {method} +offlineMode(val: boolean): void
  }

  class "ModeratorClientExchange" as mcei{
    {field} +websocket: WebSocket
    {field} +authentificationTokenModeratorClient: Token
    {method} +ModeratorClientExchange()
    {method} +getCurrentPollEval(): int
    {method} +makeJSON(): string
  }

  class Skill {
    {field} +id: int
    {field} +value: int
    {field} +description: string
    {method} + Skill(id: int, val: int, desc: string)
    {method} + setValue(val: int): void
    {method} + getValue(): int
  }

  class Character {
    {field} +sprite: Texture
    {field} +abilities: Skill[]
    {field} +name: string
    {method} +Character()
  }
  
  StoryEvent "n" - -* "1" StoryGraph
  StoryGraph - - mf
  StoryGraph - - Character
  Character "1" *- - "n" Skill
  mf - - mcei
}
@enduml

PlantUML version 1.2020.20beta11(Unknown compile time)
(GPL source distribution)
Java Runtime: Java(TM) SE Runtime Environment
JVM: Java HotSpot(TM) 64-Bit Server VM
Default Encoding: UTF-8
Language: en
Country: US
--></g></svg>