<?xml version="1.0" encoding="UTF-8" standalone="no"?><svg xmlns="http://www.w3.org/2000/svg" xmlns:xlink="http://www.w3.org/1999/xlink" contentScriptType="application/ecmascript" contentStyleType="text/css" height="227px" preserveAspectRatio="none" style="width:1123px;height:227px;" version="1.1" viewBox="0 0 1123 227" width="1123px" zoomAndPan="magnify"><defs><filter height="300%" id="fk3nv9y054p0l" width="300%" x="-1" y="-1"><feGaussianBlur result="blurOut" stdDeviation="2.0"/><feColorMatrix in="blurOut" result="blurOut2" type="matrix" values="0 0 0 0 0 0 0 0 0 0 0 0 0 0 0 0 0 0 .4 0"/><feOffset dx="4.0" dy="4.0" in="blurOut2" result="blurOut3"/><feBlend in="SourceGraphic" in2="blurOut3" mode="normal"/></filter></defs><g><!--MD5=[67adde4c5db0467fcf0b97b7ce37e86c]
cluster PlayerAudience Client--><polygon fill="#FFFFFF" filter="url(#fk3nv9y054p0l)" points="16,6,197,6,204,28.2969,1106,28.2969,1106,220,16,220,16,6" style="stroke: #000000; stroke-width: 1.5;"/><line style="stroke: #000000; stroke-width: 1.5;" x1="16" x2="204" y1="28.2969" y2="28.2969"/><text fill="#000000" font-family="sans-serif" font-size="14" font-weight="bold" lengthAdjust="spacingAndGlyphs" textLength="175" x="20" y="20.9951">PlayerAudience Client</text><!--MD5=[e590bdab9987379c47d474280840512e]
class pace--><rect codeLine="5" fill="#FEFECE" filter="url(#fk3nv9y054p0l)" height="130.7656" id="pace" style="stroke: #A80036; stroke-width: 1.5;" width="294" x="607" y="57"/><ellipse cx="658.25" cy="75.9688" fill="#ADD1B2" rx="11" ry="11" style="stroke: #A80036; stroke-width: 1.0;"/><path d="M660.5938,71.6406 C659.6563,71.2031 659.0625,71.0625 658.1875,71.0625 C655.5625,71.0625 653.5625,73.1406 653.5625,75.8594 L653.5625,76.9844 C653.5625,79.5625 655.6719,81.4531 658.5625,81.4531 C659.7813,81.4531 660.9375,81.1563 661.6875,80.6094 C662.2656,80.2031 662.5938,79.75 662.5938,79.3594 C662.5938,78.9063 662.2031,78.5156 661.7344,78.5156 C661.5156,78.5156 661.3125,78.5938 661.125,78.7813 C660.6719,79.2656 660.6719,79.2656 660.4844,79.3594 C660.0625,79.625 659.375,79.75 658.6094,79.75 C656.5625,79.75 655.2656,78.6563 655.2656,76.9531 L655.2656,75.8594 C655.2656,74.0781 656.5156,72.7656 658.25,72.7656 C658.8281,72.7656 659.4375,72.9219 659.9063,73.1719 C660.3906,73.4531 660.5625,73.6719 660.6563,74.0781 C660.7188,74.4844 660.75,74.6094 660.8906,74.7344 C661.0313,74.875 661.2656,74.9844 661.4844,74.9844 C661.75,74.9844 662.0156,74.8438 662.1875,74.625 C662.2969,74.4688 662.3281,74.2813 662.3281,73.8594 L662.3281,72.4375 C662.3281,72 662.3125,71.875 662.2188,71.7188 C662.0625,71.4531 661.7813,71.3125 661.4844,71.3125 C661.1875,71.3125 660.9844,71.4063 660.7656,71.7188 L660.5938,71.6406 Z "/><text fill="#000000" font-family="sans-serif" font-size="12" font-style="italic" lengthAdjust="spacingAndGlyphs" textLength="67" x="736.75" y="73.1387">«interface»</text><text fill="#000000" font-family="sans-serif" font-size="12" lengthAdjust="spacingAndGlyphs" textLength="183" x="678.75" y="87.1074">PlayerAudienceClientExchange</text><line style="stroke: #A80036; stroke-width: 1.5;" x1="608" x2="900" y1="94.9375" y2="94.9375"/><text fill="#000000" font-family="sans-serif" font-size="11" lengthAdjust="spacingAndGlyphs" textLength="142" x="613" y="109.1479">+websocket: WebSocket</text><text fill="#000000" font-family="sans-serif" font-size="11" lengthAdjust="spacingAndGlyphs" textLength="40" x="613" y="121.9526">+ip: int</text><text fill="#000000" font-family="sans-serif" font-size="11" lengthAdjust="spacingAndGlyphs" textLength="52" x="613" y="134.7573">+port: int</text><line style="stroke: #A80036; stroke-width: 1.5;" x1="608" x2="900" y1="141.3516" y2="141.3516"/><text fill="#000000" font-family="sans-serif" font-size="11" lengthAdjust="spacingAndGlyphs" textLength="276" x="613" y="155.562">+PlayerAudienceClientExchange(ip: int, port: int)</text><text fill="#000000" font-family="sans-serif" font-size="11" lengthAdjust="spacingAndGlyphs" textLength="282" x="613" y="168.3667">+requestCurrentPossibleDecisions(): StoryEvent[]</text><text fill="#000000" font-family="sans-serif" font-size="11" lengthAdjust="spacingAndGlyphs" textLength="131" x="613" y="181.1714">+checkJSON(): boolean</text><!--MD5=[046b75ba0a1981da758680c895f9ffd8]
class pav--><rect codeLine="14" fill="#FEFECE" filter="url(#fk3nv9y054p0l)" height="60.8047" id="pav" style="stroke: #A80036; stroke-width: 1.5;" width="153" x="936.5" y="92"/><ellipse cx="951.5" cy="108" fill="#ADD1B2" rx="11" ry="11" style="stroke: #A80036; stroke-width: 1.0;"/><path d="M953.8438,103.6719 C952.9063,103.2344 952.3125,103.0938 951.4375,103.0938 C948.8125,103.0938 946.8125,105.1719 946.8125,107.8906 L946.8125,109.0156 C946.8125,111.5938 948.9219,113.4844 951.8125,113.4844 C953.0313,113.4844 954.1875,113.1875 954.9375,112.6406 C955.5156,112.2344 955.8438,111.7813 955.8438,111.3906 C955.8438,110.9375 955.4531,110.5469 954.9844,110.5469 C954.7656,110.5469 954.5625,110.625 954.375,110.8125 C953.9219,111.2969 953.9219,111.2969 953.7344,111.3906 C953.3125,111.6563 952.625,111.7813 951.8594,111.7813 C949.8125,111.7813 948.5156,110.6875 948.5156,108.9844 L948.5156,107.8906 C948.5156,106.1094 949.7656,104.7969 951.5,104.7969 C952.0781,104.7969 952.6875,104.9531 953.1563,105.2031 C953.6406,105.4844 953.8125,105.7031 953.9063,106.1094 C953.9688,106.5156 954,106.6406 954.1406,106.7656 C954.2813,106.9063 954.5156,107.0156 954.7344,107.0156 C955,107.0156 955.2656,106.875 955.4375,106.6563 C955.5469,106.5 955.5781,106.3125 955.5781,105.8906 L955.5781,104.4688 C955.5781,104.0313 955.5625,103.9063 955.4688,103.75 C955.3125,103.4844 955.0313,103.3438 954.7344,103.3438 C954.4375,103.3438 954.2344,103.4375 954.0156,103.75 L953.8438,103.6719 Z "/><text fill="#000000" font-family="sans-serif" font-size="12" lengthAdjust="spacingAndGlyphs" textLength="121" x="965.5" y="112.1543">PlayerAudienceView</text><line style="stroke: #A80036; stroke-width: 1.5;" x1="937.5" x2="1088.5" y1="124" y2="124"/><line style="stroke: #A80036; stroke-width: 1.5;" x1="937.5" x2="1088.5" y1="132" y2="132"/><text fill="#000000" font-family="sans-serif" font-size="11" lengthAdjust="spacingAndGlyphs" textLength="134" x="942.5" y="146.2104">+PlayerAudienceView()</text><!--MD5=[cdde92398a52d7db504911c0fce5207a]
class ws--><rect codeLine="18" fill="#FEFECE" filter="url(#fk3nv9y054p0l)" height="163.2422" id="ws" style="stroke: #A80036; stroke-width: 1.5;" width="539" x="32.5" y="41"/><ellipse cx="262.75" cy="57" fill="#ADD1B2" rx="11" ry="11" style="stroke: #A80036; stroke-width: 1.0;"/><path d="M265.0938,52.6719 C264.1563,52.2344 263.5625,52.0938 262.6875,52.0938 C260.0625,52.0938 258.0625,54.1719 258.0625,56.8906 L258.0625,58.0156 C258.0625,60.5938 260.1719,62.4844 263.0625,62.4844 C264.2813,62.4844 265.4375,62.1875 266.1875,61.6406 C266.7656,61.2344 267.0938,60.7813 267.0938,60.3906 C267.0938,59.9375 266.7031,59.5469 266.2344,59.5469 C266.0156,59.5469 265.8125,59.625 265.625,59.8125 C265.1719,60.2969 265.1719,60.2969 264.9844,60.3906 C264.5625,60.6563 263.875,60.7813 263.1094,60.7813 C261.0625,60.7813 259.7656,59.6875 259.7656,57.9844 L259.7656,56.8906 C259.7656,55.1094 261.0156,53.7969 262.75,53.7969 C263.3281,53.7969 263.9375,53.9531 264.4063,54.2031 C264.8906,54.4844 265.0625,54.7031 265.1563,55.1094 C265.2188,55.5156 265.25,55.6406 265.3906,55.7656 C265.5313,55.9063 265.7656,56.0156 265.9844,56.0156 C266.25,56.0156 266.5156,55.875 266.6875,55.6563 C266.7969,55.5 266.8281,55.3125 266.8281,54.8906 L266.8281,53.4688 C266.8281,53.0313 266.8125,52.9063 266.7188,52.75 C266.5625,52.4844 266.2813,52.3438 265.9844,52.3438 C265.6875,52.3438 265.4844,52.4375 265.2656,52.75 L265.0938,52.6719 Z "/><text fill="#000000" font-family="sans-serif" font-size="12" lengthAdjust="spacingAndGlyphs" textLength="70" x="283.25" y="61.1543">WebSocket</text><line style="stroke: #A80036; stroke-width: 1.5;" x1="33.5" x2="570.5" y1="73" y2="73"/><text fill="#000000" font-family="sans-serif" font-size="11" lengthAdjust="spacingAndGlyphs" textLength="77" x="38.5" y="87.2104">+CloseStatus</text><text fill="#000000" font-family="sans-serif" font-size="11" lengthAdjust="spacingAndGlyphs" textLength="141" x="38.5" y="100.0151">+CloseStatusDescription</text><text fill="#000000" font-family="sans-serif" font-size="11" lengthAdjust="spacingAndGlyphs" textLength="153" x="38.5" y="112.8198">+DefaultKeepAliveInterval</text><text fill="#000000" font-family="sans-serif" font-size="11" lengthAdjust="spacingAndGlyphs" textLength="40" x="38.5" y="125.6245">+State</text><text fill="#000000" font-family="sans-serif" font-size="11" lengthAdjust="spacingAndGlyphs" textLength="75" x="38.5" y="138.4292">+SupProtocol</text><line style="stroke: #A80036; stroke-width: 1.5;" x1="33.5" x2="570.5" y1="145.0234" y2="145.0234"/><text fill="#000000" font-family="sans-serif" font-size="11" lengthAdjust="spacingAndGlyphs" textLength="47" x="38.5" y="159.2339">+Abort()</text><text fill="#000000" font-family="sans-serif" font-size="11" lengthAdjust="spacingAndGlyphs" textLength="187" x="38.5" y="172.0386">+CreateClientBuffer(Int32, Int32)</text><text fill="#000000" font-family="sans-serif" font-size="11" lengthAdjust="spacingAndGlyphs" textLength="305" x="38.5" y="184.8433">+ReceiveAsync(Memory&lt;Byte&gt;, Cancellation Token)</text><text fill="#000000" font-family="sans-serif" font-size="11" lengthAdjust="spacingAndGlyphs" textLength="527" x="38.5" y="197.6479">+SendAsync(ArraySegment&lt;Byte&gt;, WebSocketMessageType, Boolean, CancellationToken)</text><!--MD5=[da9abd1873f207cba4baaf944fa348f2]
link pace to pav--><path codeLine="32" d="M901.205,122.5 C912.85,122.5 924.496,122.5 936.141,122.5 " fill="none" id="pace-pav" style="stroke: #A80036; stroke-width: 1.0;"/><!--MD5=[b7571329c101e0914ff57c26d0e60d93]
link ws to pace--><path codeLine="33" d="M571.699,122.5 C583.449,122.5 595.199,122.5 606.949,122.5 " fill="none" id="ws-pace" style="stroke: #A80036; stroke-width: 1.0;"/><!--MD5=[1d461de36f1360055504fdc07a471390]
@startuml
skinparam classAttributeIconSize 0

package "PlayerAudience Client"{
    
  class "PlayerAudienceClientExchange" as pace <<interface>>{
    {field} +websocket: WebSocket
    {field} +ip: int
    {field} +port: int
    {method} +PlayerAudienceClientExchange(ip: int, port: int)
    {method} +requestCurrentPossibleDecisions(): StoryEvent[]
    {method} +checkJSON(): boolean
  }

  class "PlayerAudienceView" as pav {
    {method} +PlayerAudienceView()
  }

  class "WebSocket" as ws {
    {field} +CloseStatus
    {field} +CloseStatusDescription
    {field} +DefaultKeepAliveInterval
    {field} +State
    {field} +SupProtocol
    {method} +Abort()
    {method} +CreateClientBuffer(Int32, Int32)
    {method} +ReceiveAsync(Memory<Byte>, Cancellation Token)
    {method} +SendAsync(ArraySegment<Byte>, WebSocketMessageType, Boolean, CancellationToken)
  }

}

pace - pav
ws - pace
@enduml

PlantUML version 1.2020.20beta1(Unknown compile time)
(GPL source distribution)
Java Runtime: Java(TM) SE Runtime Environment
JVM: Java HotSpot(TM) 64-Bit Server VM
Default Encoding: UTF-8
Language: en
Country: US
--></g></svg>