<?xml version="1.0" encoding="UTF-8" standalone="no"?><svg xmlns="http://www.w3.org/2000/svg" xmlns:xlink="http://www.w3.org/1999/xlink" contentScriptType="application/ecmascript" contentStyleType="text/css" height="1155px" preserveAspectRatio="none" style="width:1264px;height:1155px;" version="1.1" viewBox="0 0 1264 1155" width="1264px" zoomAndPan="magnify"><defs><filter height="300%" id="f1v4n27wiy5py7" width="300%" x="-1" y="-1"><feGaussianBlur result="blurOut" stdDeviation="2.0"/><feColorMatrix in="blurOut" result="blurOut2" type="matrix" values="0 0 0 0 0 0 0 0 0 0 0 0 0 0 0 0 0 0 .4 0"/><feOffset dx="4.0" dy="4.0" in="blurOut2" result="blurOut3"/><feBlend in="SourceGraphic" in2="blurOut3" mode="normal"/></filter></defs><g><!--MD5=[979da56a7f83e2393dc758167ae295d0]
cluster Server--><polygon fill="#FFFFFF" filter="url(#f1v4n27wiy5py7)" points="16,6,73,6,80,28.2969,1247,28.2969,1247,1148.5,16,1148.5,16,6" style="stroke: #000000; stroke-width: 1.5;"/><line style="stroke: #000000; stroke-width: 1.5;" x1="16" x2="80" y1="28.2969" y2="28.2969"/><text fill="#000000" font-family="sans-serif" font-size="14" font-weight="bold" lengthAdjust="spacingAndGlyphs" textLength="51" x="20" y="20.9951">Server</text><!--MD5=[bec4376398c619d3cc65439ee33bd7ca]
cluster ServerLogic--><rect fill="#FFFFFF" filter="url(#f1v4n27wiy5py7)" height="1075.5" style="stroke: #000000; stroke-width: 1.5;" width="708" x="515" y="49"/><text fill="#000000" font-family="sans-serif" font-size="14" font-weight="bold" lengthAdjust="spacingAndGlyphs" textLength="94" x="822" y="63.9951">ServerLogic</text><!--MD5=[a8973b51fb403d164ccd98ec50a39132]
cluster PlayerAudience-Client--><rect fill="#FFFFFF" filter="url(#f1v4n27wiy5py7)" height="195" style="stroke: #000000; stroke-width: 1.5;" width="451" x="40" y="920"/><text fill="#000000" font-family="sans-serif" font-size="14" font-weight="bold" lengthAdjust="spacingAndGlyphs" textLength="176" x="177.5" y="934.9951">PlayerAudience-Client</text><!--MD5=[6bfcf15cc25972516e1f43cee16dbcb3]
class ss--><rect codeLine="7" fill="#FEFECE" filter="url(#f1v4n27wiy5py7)" height="240.0703" id="ss" style="stroke: #A80036; stroke-width: 1.5;" width="244" x="722" y="370"/><ellipse cx="804.75" cy="386" fill="#ADD1B2" rx="11" ry="11" style="stroke: #A80036; stroke-width: 1.0;"/><path d="M807.0938,381.6719 C806.1563,381.2344 805.5625,381.0938 804.6875,381.0938 C802.0625,381.0938 800.0625,383.1719 800.0625,385.8906 L800.0625,387.0156 C800.0625,389.5938 802.1719,391.4844 805.0625,391.4844 C806.2813,391.4844 807.4375,391.1875 808.1875,390.6406 C808.7656,390.2344 809.0938,389.7813 809.0938,389.3906 C809.0938,388.9375 808.7031,388.5469 808.2344,388.5469 C808.0156,388.5469 807.8125,388.625 807.625,388.8125 C807.1719,389.2969 807.1719,389.2969 806.9844,389.3906 C806.5625,389.6563 805.875,389.7813 805.1094,389.7813 C803.0625,389.7813 801.7656,388.6875 801.7656,386.9844 L801.7656,385.8906 C801.7656,384.1094 803.0156,382.7969 804.75,382.7969 C805.3281,382.7969 805.9375,382.9531 806.4063,383.2031 C806.8906,383.4844 807.0625,383.7031 807.1563,384.1094 C807.2188,384.5156 807.25,384.6406 807.3906,384.7656 C807.5313,384.9063 807.7656,385.0156 807.9844,385.0156 C808.25,385.0156 808.5156,384.875 808.6875,384.6563 C808.7969,384.5 808.8281,384.3125 808.8281,383.8906 L808.8281,382.4688 C808.8281,382.0313 808.8125,381.9063 808.7188,381.75 C808.5625,381.4844 808.2813,381.3438 807.9844,381.3438 C807.6875,381.3438 807.4844,381.4375 807.2656,381.75 L807.0938,381.6719 Z " fill="#000000"/><text fill="#000000" font-family="sans-serif" font-size="12" lengthAdjust="spacingAndGlyphs" textLength="70" x="825.25" y="390.1543">ServerShell</text><line style="stroke: #A80036; stroke-width: 1.5;" x1="723" x2="965" y1="402" y2="402"/><text fill="#000000" font-family="sans-serif" font-size="11" lengthAdjust="spacingAndGlyphs" textLength="91" x="728" y="416.2104">+logger: Logger</text><text fill="#000000" font-family="sans-serif" font-size="11" lengthAdjust="spacingAndGlyphs" textLength="47" x="728" y="429.0151">-port: int</text><text fill="#000000" font-family="sans-serif" font-size="11" lengthAdjust="spacingAndGlyphs" textLength="82" x="728" y="441.8198">-runShell: bool</text><text fill="#000000" font-family="sans-serif" font-size="11" lengthAdjust="spacingAndGlyphs" textLength="145" x="728" y="454.6245">-serverShell: ServerShell</text><text fill="#000000" font-family="sans-serif" font-size="11" lengthAdjust="spacingAndGlyphs" textLength="175" x="728" y="467.4292">-streamReader: StreamReader</text><line style="stroke: #A80036; stroke-width: 1.5;" x1="723" x2="965" y1="474.0234" y2="474.0234"/><text fill="#000000" font-family="sans-serif" font-size="11" lengthAdjust="spacingAndGlyphs" textLength="85" x="728" y="488.2339">+ServerShell()</text><text fill="#000000" font-family="sans-serif" font-size="11" lengthAdjust="spacingAndGlyphs" textLength="102" x="728" y="501.0386">+startShell(): void</text><text fill="#000000" font-family="sans-serif" font-size="11" lengthAdjust="spacingAndGlyphs" textLength="101" x="728" y="513.8433">+stopShell(): void</text><text fill="#000000" font-family="sans-serif" font-size="11" lengthAdjust="spacingAndGlyphs" textLength="232" x="728" y="526.6479">+parseCommand(command: string): void</text><text fill="#000000" font-family="sans-serif" font-size="11" lengthAdjust="spacingAndGlyphs" textLength="103" x="728" y="539.4526">+showHelp(): void</text><text fill="#000000" font-family="sans-serif" font-size="11" lengthAdjust="spacingAndGlyphs" textLength="103" x="728" y="552.2573">+configPort(): void</text><text fill="#000000" font-family="sans-serif" font-size="11" lengthAdjust="spacingAndGlyphs" textLength="131" x="728" y="565.062">+configCapacity(): void</text><text fill="#000000" font-family="sans-serif" font-size="11" lengthAdjust="spacingAndGlyphs" textLength="112" x="728" y="577.8667">+startServer(): void</text><text fill="#000000" font-family="sans-serif" font-size="11" lengthAdjust="spacingAndGlyphs" textLength="111" x="728" y="590.6714">+stopServer(): void</text><text fill="#000000" font-family="sans-serif" font-size="11" lengthAdjust="spacingAndGlyphs" textLength="146" x="728" y="603.4761">+main(args: string[]): void</text><!--MD5=[952aa88079c2ad50e6f0d17205c717c0]
class cm--><rect codeLine="25" fill="#FEFECE" filter="url(#f1v4n27wiy5py7)" height="201.6563" id="cm" style="stroke: #A80036; stroke-width: 1.5;" width="320" x="850" y="671"/><ellipse cx="931.75" cy="687" fill="#ADD1B2" rx="11" ry="11" style="stroke: #A80036; stroke-width: 1.0;"/><path d="M934.0938,682.6719 C933.1563,682.2344 932.5625,682.0938 931.6875,682.0938 C929.0625,682.0938 927.0625,684.1719 927.0625,686.8906 L927.0625,688.0156 C927.0625,690.5938 929.1719,692.4844 932.0625,692.4844 C933.2813,692.4844 934.4375,692.1875 935.1875,691.6406 C935.7656,691.2344 936.0938,690.7813 936.0938,690.3906 C936.0938,689.9375 935.7031,689.5469 935.2344,689.5469 C935.0156,689.5469 934.8125,689.625 934.625,689.8125 C934.1719,690.2969 934.1719,690.2969 933.9844,690.3906 C933.5625,690.6563 932.875,690.7813 932.1094,690.7813 C930.0625,690.7813 928.7656,689.6875 928.7656,687.9844 L928.7656,686.8906 C928.7656,685.1094 930.0156,683.7969 931.75,683.7969 C932.3281,683.7969 932.9375,683.9531 933.4063,684.2031 C933.8906,684.4844 934.0625,684.7031 934.1563,685.1094 C934.2188,685.5156 934.25,685.6406 934.3906,685.7656 C934.5313,685.9063 934.7656,686.0156 934.9844,686.0156 C935.25,686.0156 935.5156,685.875 935.6875,685.6563 C935.7969,685.5 935.8281,685.3125 935.8281,684.8906 L935.8281,683.4688 C935.8281,683.0313 935.8125,682.9063 935.7188,682.75 C935.5625,682.4844 935.2813,682.3438 934.9844,682.3438 C934.6875,682.3438 934.4844,682.4375 934.2656,682.75 L934.0938,682.6719 Z " fill="#000000"/><text fill="#000000" font-family="sans-serif" font-size="12" lengthAdjust="spacingAndGlyphs" textLength="148" x="952.25" y="691.1543">ModeratorClientManager</text><line style="stroke: #A80036; stroke-width: 1.5;" x1="851" x2="1169" y1="703" y2="703"/><text fill="#000000" font-family="sans-serif" font-size="11" lengthAdjust="spacingAndGlyphs" textLength="139" x="856" y="717.2104">-webSocket: WebSocket</text><text fill="#000000" font-family="sans-serif" font-size="11" lengthAdjust="spacingAndGlyphs" textLength="69" x="856" y="730.0151">-ip: IPAdress</text><text fill="#000000" font-family="sans-serif" font-size="11" lengthAdjust="spacingAndGlyphs" textLength="47" x="856" y="742.8198">-port: int</text><text fill="#000000" font-family="sans-serif" font-size="11" lengthAdjust="spacingAndGlyphs" textLength="91" x="856" y="755.6245">+logger: Logger</text><text fill="#000000" font-family="sans-serif" font-size="11" lengthAdjust="spacingAndGlyphs" textLength="266" x="856" y="768.4292">-authentificationTokenModeratorClientHash: int</text><line style="stroke: #A80036; stroke-width: 1.5;" x1="851" x2="1169" y1="775.0234" y2="775.0234"/><text fill="#000000" font-family="sans-serif" font-size="11" lengthAdjust="spacingAndGlyphs" textLength="187" x="856" y="789.2339">+ModeratorClientManager(): void</text><text fill="#000000" font-family="sans-serif" font-size="11" lengthAdjust="spacingAndGlyphs" textLength="109" x="856" y="802.0386">+disconnect(): void</text><text fill="#000000" font-family="sans-serif" font-size="11" lengthAdjust="spacingAndGlyphs" textLength="234" x="856" y="814.8433">+recieveMessage(message: string): void</text><text fill="#000000" font-family="sans-serif" font-size="11" lengthAdjust="spacingAndGlyphs" textLength="200" x="856" y="827.6479">+checkJSON(message: string): bool</text><text fill="#000000" font-family="sans-serif" font-size="11" lengthAdjust="spacingAndGlyphs" textLength="218" x="856" y="840.4526">+sendMessage(message: string): void</text><text fill="#000000" font-family="sans-serif" font-size="11" lengthAdjust="spacingAndGlyphs" textLength="308" x="856" y="853.2573">+sendVotingResults(results: Dictionary&lt;int, int&gt;): void</text><text fill="#000000" font-family="sans-serif" font-size="11" lengthAdjust="spacingAndGlyphs" textLength="177" x="856" y="866.062">+evalJSON(json: string): string[]</text><!--MD5=[380687b934d22663c3818bb6fe2c579f]
class msl--><rect codeLine="41" fill="#FEFECE" filter="url(#f1v4n27wiy5py7)" height="124.8281" id="msl" style="stroke: #A80036; stroke-width: 1.5;" width="284" x="531" y="709.5"/><ellipse cx="618.75" cy="725.5" fill="#ADD1B2" rx="11" ry="11" style="stroke: #A80036; stroke-width: 1.0;"/><path d="M621.0938,721.1719 C620.1563,720.7344 619.5625,720.5938 618.6875,720.5938 C616.0625,720.5938 614.0625,722.6719 614.0625,725.3906 L614.0625,726.5156 C614.0625,729.0938 616.1719,730.9844 619.0625,730.9844 C620.2813,730.9844 621.4375,730.6875 622.1875,730.1406 C622.7656,729.7344 623.0938,729.2813 623.0938,728.8906 C623.0938,728.4375 622.7031,728.0469 622.2344,728.0469 C622.0156,728.0469 621.8125,728.125 621.625,728.3125 C621.1719,728.7969 621.1719,728.7969 620.9844,728.8906 C620.5625,729.1563 619.875,729.2813 619.1094,729.2813 C617.0625,729.2813 615.7656,728.1875 615.7656,726.4844 L615.7656,725.3906 C615.7656,723.6094 617.0156,722.2969 618.75,722.2969 C619.3281,722.2969 619.9375,722.4531 620.4063,722.7031 C620.8906,722.9844 621.0625,723.2031 621.1563,723.6094 C621.2188,724.0156 621.25,724.1406 621.3906,724.2656 C621.5313,724.4063 621.7656,724.5156 621.9844,724.5156 C622.25,724.5156 622.5156,724.375 622.6875,724.1563 C622.7969,724 622.8281,723.8125 622.8281,723.3906 L622.8281,721.9688 C622.8281,721.5313 622.8125,721.4063 622.7188,721.25 C622.5625,720.9844 622.2813,720.8438 621.9844,720.8438 C621.6875,720.8438 621.4844,720.9375 621.2656,721.25 L621.0938,721.1719 Z " fill="#000000"/><text fill="#000000" font-family="sans-serif" font-size="12" lengthAdjust="spacingAndGlyphs" textLength="100" x="639.25" y="729.6543">MainServerLogic</text><line style="stroke: #A80036; stroke-width: 1.5;" x1="532" x2="814" y1="741.5" y2="741.5"/><text fill="#000000" font-family="sans-serif" font-size="11" lengthAdjust="spacingAndGlyphs" textLength="209" x="537" y="755.7104">-moderator: ModeratorClientManager</text><text fill="#000000" font-family="sans-serif" font-size="11" lengthAdjust="spacingAndGlyphs" textLength="272" x="537" y="768.5151">-playerAudience: PlayerAudienceClientManager</text><text fill="#000000" font-family="sans-serif" font-size="11" lengthAdjust="spacingAndGlyphs" textLength="91" x="537" y="781.3198">+logger: Logger</text><line style="stroke: #A80036; stroke-width: 1.5;" x1="532" x2="814" y1="787.9141" y2="787.9141"/><text fill="#000000" font-family="sans-serif" font-size="11" lengthAdjust="spacingAndGlyphs" textLength="229" x="537" y="802.1245">+MainServerLogic(capacity: int, port: int)</text><text fill="#000000" font-family="sans-serif" font-size="11" lengthAdjust="spacingAndGlyphs" textLength="234" x="537" y="814.9292">+onFalseMessage(message: string): void</text><text fill="#000000" font-family="sans-serif" font-size="11" lengthAdjust="spacingAndGlyphs" textLength="240" x="537" y="827.7339">+onVotingMessage(message: string): void</text><!--MD5=[1e281070be324fe4119de6bf55ec0dae]
class api--><rect codeLine="51" fill="#FEFECE" filter="url(#f1v4n27wiy5py7)" height="163.2422" id="api" style="stroke: #A80036; stroke-width: 1.5;" width="368" x="571" y="945.5"/><ellipse cx="662.25" cy="961.5" fill="#ADD1B2" rx="11" ry="11" style="stroke: #A80036; stroke-width: 1.0;"/><path d="M664.5938,957.1719 C663.6563,956.7344 663.0625,956.5938 662.1875,956.5938 C659.5625,956.5938 657.5625,958.6719 657.5625,961.3906 L657.5625,962.5156 C657.5625,965.0938 659.6719,966.9844 662.5625,966.9844 C663.7813,966.9844 664.9375,966.6875 665.6875,966.1406 C666.2656,965.7344 666.5938,965.2813 666.5938,964.8906 C666.5938,964.4375 666.2031,964.0469 665.7344,964.0469 C665.5156,964.0469 665.3125,964.125 665.125,964.3125 C664.6719,964.7969 664.6719,964.7969 664.4844,964.8906 C664.0625,965.1563 663.375,965.2813 662.6094,965.2813 C660.5625,965.2813 659.2656,964.1875 659.2656,962.4844 L659.2656,961.3906 C659.2656,959.6094 660.5156,958.2969 662.25,958.2969 C662.8281,958.2969 663.4375,958.4531 663.9063,958.7031 C664.3906,958.9844 664.5625,959.2031 664.6563,959.6094 C664.7188,960.0156 664.75,960.1406 664.8906,960.2656 C665.0313,960.4063 665.2656,960.5156 665.4844,960.5156 C665.75,960.5156 666.0156,960.375 666.1875,960.1563 C666.2969,960 666.3281,959.8125 666.3281,959.3906 L666.3281,957.9688 C666.3281,957.5313 666.3125,957.4063 666.2188,957.25 C666.0625,956.9844 665.7813,956.8438 665.4844,956.8438 C665.1875,956.8438 664.9844,956.9375 664.7656,957.25 L664.5938,957.1719 Z " fill="#000000"/><text fill="#000000" font-family="sans-serif" font-size="12" lengthAdjust="spacingAndGlyphs" textLength="177" x="682.75" y="965.6543">PlayerAudienceClientManager</text><line style="stroke: #A80036; stroke-width: 1.5;" x1="572" x2="938" y1="977.5" y2="977.5"/><text fill="#000000" font-family="sans-serif" font-size="11" lengthAdjust="spacingAndGlyphs" textLength="238" x="577" y="991.7104">-observerCollection: ArrayList&lt;Observer&gt;</text><text fill="#000000" font-family="sans-serif" font-size="11" lengthAdjust="spacingAndGlyphs" textLength="152" x="577" y="1004.5151">-possibleDecisions: string[]</text><text fill="#000000" font-family="sans-serif" font-size="11" lengthAdjust="spacingAndGlyphs" textLength="192" x="577" y="1017.3198">-voteCounter: Dictionary&lt;int, int&gt;</text><line style="stroke: #A80036; stroke-width: 1.5;" x1="572" x2="938" y1="1023.9141" y2="1023.9141"/><text fill="#000000" font-family="sans-serif" font-size="11" lengthAdjust="spacingAndGlyphs" textLength="188" x="577" y="1038.1245">+PlayerAudienceClientManager()</text><text fill="#000000" font-family="sans-serif" font-size="11" lengthAdjust="spacingAndGlyphs" textLength="356" x="577" y="1050.9292">+subscribeObserver(observer: Observer, cookie: Cookie): void</text><text fill="#000000" font-family="sans-serif" font-size="11" lengthAdjust="spacingAndGlyphs" textLength="280" x="577" y="1063.7339">+unsubscribeObserver(observer: Observer): void</text><text fill="#000000" font-family="sans-serif" font-size="11" lengthAdjust="spacingAndGlyphs" textLength="134" x="577" y="1076.5386">-notifyObservers(): void</text><text fill="#000000" font-family="sans-serif" font-size="11" lengthAdjust="spacingAndGlyphs" textLength="288" x="577" y="1089.3433">+updatePossibleDecisions(decisions: string[]): void</text><text fill="#000000" font-family="sans-serif" font-size="11" lengthAdjust="spacingAndGlyphs" textLength="218" x="577" y="1102.1479">+evaluateVotes(): Dictionary&lt;int, int&gt;</text><!--MD5=[e5ed2fcbff96bd03a55f8cf01186b818]
class sl--><rect codeLine="63" fill="#FEFECE" filter="url(#f1v4n27wiy5py7)" height="163.2422" id="sl" style="stroke: #A80036; stroke-width: 1.5;" width="210" x="823" y="84"/><ellipse cx="881.75" cy="100" fill="#ADD1B2" rx="11" ry="11" style="stroke: #A80036; stroke-width: 1.0;"/><path d="M884.0938,95.6719 C883.1563,95.2344 882.5625,95.0938 881.6875,95.0938 C879.0625,95.0938 877.0625,97.1719 877.0625,99.8906 L877.0625,101.0156 C877.0625,103.5938 879.1719,105.4844 882.0625,105.4844 C883.2813,105.4844 884.4375,105.1875 885.1875,104.6406 C885.7656,104.2344 886.0938,103.7813 886.0938,103.3906 C886.0938,102.9375 885.7031,102.5469 885.2344,102.5469 C885.0156,102.5469 884.8125,102.625 884.625,102.8125 C884.1719,103.2969 884.1719,103.2969 883.9844,103.3906 C883.5625,103.6563 882.875,103.7813 882.1094,103.7813 C880.0625,103.7813 878.7656,102.6875 878.7656,100.9844 L878.7656,99.8906 C878.7656,98.1094 880.0156,96.7969 881.75,96.7969 C882.3281,96.7969 882.9375,96.9531 883.4063,97.2031 C883.8906,97.4844 884.0625,97.7031 884.1563,98.1094 C884.2188,98.5156 884.25,98.6406 884.3906,98.7656 C884.5313,98.9063 884.7656,99.0156 884.9844,99.0156 C885.25,99.0156 885.5156,98.875 885.6875,98.6563 C885.7969,98.5 885.8281,98.3125 885.8281,97.8906 L885.8281,96.4688 C885.8281,96.0313 885.8125,95.9063 885.7188,95.75 C885.5625,95.4844 885.2813,95.3438 884.9844,95.3438 C884.6875,95.3438 884.4844,95.4375 884.2656,95.75 L884.0938,95.6719 Z " fill="#000000"/><text fill="#000000" font-family="sans-serif" font-size="12" lengthAdjust="spacingAndGlyphs" textLength="84" x="902.25" y="104.1543">ServerLogger</text><line style="stroke: #A80036; stroke-width: 1.5;" x1="824" x2="1032" y1="116" y2="116"/><text fill="#000000" font-family="sans-serif" font-size="11" lengthAdjust="spacingAndGlyphs" textLength="128" x="829" y="130.2104">+globalLogger: Logger</text><text fill="#000000" font-family="sans-serif" font-size="11" lengthAdjust="spacingAndGlyphs" textLength="129" x="829" y="143.0151">+logFile: StreamWriter</text><text fill="#000000" font-family="sans-serif" font-size="11" lengthAdjust="spacingAndGlyphs" textLength="83" x="829" y="155.8198">+isSetup: bool</text><text fill="#000000" font-family="sans-serif" font-size="11" lengthAdjust="spacingAndGlyphs" textLength="148" x="829" y="168.6245">+consoleHandler: Handler</text><line style="stroke: #A80036; stroke-width: 1.5;" x1="824" x2="1032" y1="175.2188" y2="175.2188"/><text fill="#000000" font-family="sans-serif" font-size="11" lengthAdjust="spacingAndGlyphs" textLength="56" x="829" y="189.4292">+Logger()</text><text fill="#000000" font-family="sans-serif" font-size="11" lengthAdjust="spacingAndGlyphs" textLength="80" x="829" y="202.2339">+setup(): void</text><text fill="#000000" font-family="sans-serif" font-size="11" lengthAdjust="spacingAndGlyphs" textLength="195" x="829" y="215.0386">+addHandler(logger: Logger): void</text><text fill="#000000" font-family="sans-serif" font-size="11" lengthAdjust="spacingAndGlyphs" textLength="148" x="829" y="227.8433">+setLevel(level: int): void</text><text fill="#000000" font-family="sans-serif" font-size="11" lengthAdjust="spacingAndGlyphs" textLength="198" x="829" y="240.6479">+setConsoleOutput(val: bool): void</text><!--MD5=[e590bdab9987379c47d474280840512e]
class pace--><rect codeLine="76" fill="#FEFECE" filter="url(#f1v4n27wiy5py7)" height="143.5703" id="pace" style="stroke: #A80036; stroke-width: 1.5;" width="230" x="245" y="955"/><ellipse cx="266.75" cy="973.9688" fill="#ADD1B2" rx="11" ry="11" style="stroke: #A80036; stroke-width: 1.0;"/><path d="M269.0938,969.6406 C268.1563,969.2031 267.5625,969.0625 266.6875,969.0625 C264.0625,969.0625 262.0625,971.1406 262.0625,973.8594 L262.0625,974.9844 C262.0625,977.5625 264.1719,979.4531 267.0625,979.4531 C268.2813,979.4531 269.4375,979.1563 270.1875,978.6094 C270.7656,978.2031 271.0938,977.75 271.0938,977.3594 C271.0938,976.9063 270.7031,976.5156 270.2344,976.5156 C270.0156,976.5156 269.8125,976.5938 269.625,976.7813 C269.1719,977.2656 269.1719,977.2656 268.9844,977.3594 C268.5625,977.625 267.875,977.75 267.1094,977.75 C265.0625,977.75 263.7656,976.6563 263.7656,974.9531 L263.7656,973.8594 C263.7656,972.0781 265.0156,970.7656 266.75,970.7656 C267.3281,970.7656 267.9375,970.9219 268.4063,971.1719 C268.8906,971.4531 269.0625,971.6719 269.1563,972.0781 C269.2188,972.4844 269.25,972.6094 269.3906,972.7344 C269.5313,972.875 269.7656,972.9844 269.9844,972.9844 C270.25,972.9844 270.5156,972.8438 270.6875,972.625 C270.7969,972.4688 270.8281,972.2813 270.8281,971.8594 L270.8281,970.4375 C270.8281,970 270.8125,969.875 270.7188,969.7188 C270.5625,969.4531 270.2813,969.3125 269.9844,969.3125 C269.6875,969.3125 269.4844,969.4063 269.2656,969.7188 L269.0938,969.6406 Z " fill="#000000"/><text fill="#000000" font-family="sans-serif" font-size="12" font-style="italic" lengthAdjust="spacingAndGlyphs" textLength="68" x="339.75" y="971.1387">«Observer»</text><text fill="#000000" font-family="sans-serif" font-size="12" lengthAdjust="spacingAndGlyphs" textLength="183" x="282.25" y="985.1074">PlayerAudienceClientExchange</text><line style="stroke: #A80036; stroke-width: 1.5;" x1="246" x2="474" y1="992.9375" y2="992.9375"/><text fill="#000000" font-family="sans-serif" font-size="11" lengthAdjust="spacingAndGlyphs" textLength="132" x="251" y="1007.1479">-sessionCookie: Cookie</text><text fill="#000000" font-family="sans-serif" font-size="11" lengthAdjust="spacingAndGlyphs" textLength="115" x="251" y="1019.9526">-votingAllowed: bool</text><text fill="#000000" font-family="sans-serif" font-size="11" lengthAdjust="spacingAndGlyphs" textLength="124" x="251" y="1032.7573">-selectedDecision: int</text><text fill="#000000" font-family="sans-serif" font-size="11" lengthAdjust="spacingAndGlyphs" textLength="152" x="251" y="1045.562">-possibleDecisions: string[]</text><line style="stroke: #A80036; stroke-width: 1.5;" x1="246" x2="474" y1="1052.1563" y2="1052.1563"/><text fill="#000000" font-family="sans-serif" font-size="11" lengthAdjust="spacingAndGlyphs" textLength="195" x="251" y="1066.3667">+PlayerAudienceClientExchange()</text><text fill="#000000" font-family="sans-serif" font-size="11" lengthAdjust="spacingAndGlyphs" textLength="88" x="251" y="1079.1714">+update(): void</text><text fill="#000000" font-family="sans-serif" font-size="11" lengthAdjust="spacingAndGlyphs" textLength="218" x="251" y="1091.9761">-hashifyStringToID(decision: string): int</text><!--MD5=[046b75ba0a1981da758680c895f9ffd8]
class pav--><rect codeLine="86" fill="#FEFECE" filter="url(#f1v4n27wiy5py7)" height="60.8047" id="pav" style="stroke: #A80036; stroke-width: 1.5;" width="153" x="56.5" y="996.5"/><ellipse cx="71.5" cy="1012.5" fill="#ADD1B2" rx="11" ry="11" style="stroke: #A80036; stroke-width: 1.0;"/><path d="M73.8438,1008.1719 C72.9063,1007.7344 72.3125,1007.5938 71.4375,1007.5938 C68.8125,1007.5938 66.8125,1009.6719 66.8125,1012.3906 L66.8125,1013.5156 C66.8125,1016.0938 68.9219,1017.9844 71.8125,1017.9844 C73.0313,1017.9844 74.1875,1017.6875 74.9375,1017.1406 C75.5156,1016.7344 75.8438,1016.2813 75.8438,1015.8906 C75.8438,1015.4375 75.4531,1015.0469 74.9844,1015.0469 C74.7656,1015.0469 74.5625,1015.125 74.375,1015.3125 C73.9219,1015.7969 73.9219,1015.7969 73.7344,1015.8906 C73.3125,1016.1563 72.625,1016.2813 71.8594,1016.2813 C69.8125,1016.2813 68.5156,1015.1875 68.5156,1013.4844 L68.5156,1012.3906 C68.5156,1010.6094 69.7656,1009.2969 71.5,1009.2969 C72.0781,1009.2969 72.6875,1009.4531 73.1563,1009.7031 C73.6406,1009.9844 73.8125,1010.2031 73.9063,1010.6094 C73.9688,1011.0156 74,1011.1406 74.1406,1011.2656 C74.2813,1011.4063 74.5156,1011.5156 74.7344,1011.5156 C75,1011.5156 75.2656,1011.375 75.4375,1011.1563 C75.5469,1011 75.5781,1010.8125 75.5781,1010.3906 L75.5781,1008.9688 C75.5781,1008.5313 75.5625,1008.4063 75.4688,1008.25 C75.3125,1007.9844 75.0313,1007.8438 74.7344,1007.8438 C74.4375,1007.8438 74.2344,1007.9375 74.0156,1008.25 L73.8438,1008.1719 Z " fill="#000000"/><text fill="#000000" font-family="sans-serif" font-size="12" lengthAdjust="spacingAndGlyphs" textLength="121" x="85.5" y="1016.6543">PlayerAudienceView</text><line style="stroke: #A80036; stroke-width: 1.5;" x1="57.5" x2="208.5" y1="1028.5" y2="1028.5"/><line style="stroke: #A80036; stroke-width: 1.5;" x1="57.5" x2="208.5" y1="1036.5" y2="1036.5"/><text fill="#000000" font-family="sans-serif" font-size="11" lengthAdjust="spacingAndGlyphs" textLength="134" x="62.5" y="1050.7104">+PlayerAudienceView()</text><!--MD5=[a0d3bbc68f741b6e52f50e6f2273a72d]
link ss to msl--><path codeLine="90" d="M771.233,610.151 C750.416,644.237 728.569,680.009 710.779,709.14 " fill="none" id="ss-msl" style="stroke: #A80036; stroke-width: 1.0;"/><!--MD5=[7d06e1ba490a93264d4a8b472a43ae41]
link msl to cm--><path codeLine="91" d="M815.172,772 C826.714,772 838.257,772 849.8,772 " fill="none" id="msl-cm" style="stroke: #A80036; stroke-width: 1.0;"/><!--MD5=[6ad5262873646cc0a067a1a0032951a6]
link msl to api--><path codeLine="92" d="M692.955,834.567 C703.763,867.916 717.249,909.525 728.885,945.425 " fill="none" id="msl-api" style="stroke: #A80036; stroke-width: 1.0;"/><!--MD5=[671dab341200759546ed8586cdbf8a87]
link sl to cm--><path codeLine="93" d="M954.325,247.341 C965.312,284.339 977.101,328.986 984,370 C1001.07,471.477 1007.1,589.139 1009.15,670.648 " fill="none" id="sl-cm" style="stroke: #A80036; stroke-width: 1.0; stroke-dasharray: 7.0,7.0;"/><!--MD5=[a5942343fc64a8361275d61bf78cabe0]
link sl to msl--><path codeLine="94" d="M822.825,235.116 C778.58,269.911 731.335,316.22 705,370 C651.173,479.922 656.046,627.269 664.476,709.287 " fill="none" id="sl-msl" style="stroke: #A80036; stroke-width: 1.0; stroke-dasharray: 7.0,7.0;"/><!--MD5=[17eb025897342361bd851f93fa477fff]
link sl to api--><path codeLine="95" d="M1033.1,177.705 C1111.82,192.611 1206,227.307 1206,308 C1206,308 1206,308 1206,773 C1206,818.159 1217.25,838.595 1188,873 C1125.96,945.966 1026.81,984.144 939.026,1004.115 " fill="none" id="sl-api" style="stroke: #A80036; stroke-width: 1.0; stroke-dasharray: 7.0,7.0;"/><!--MD5=[ce7bcfb77770f94a81831b8f23590dae]
link sl to ss--><path codeLine="96" d="M907.02,247.048 C897.35,284.175 885.676,328.992 875.018,369.913 " fill="none" id="sl-ss" style="stroke: #A80036; stroke-width: 1.0; stroke-dasharray: 7.0,7.0;"/><!--MD5=[74bdb0cfd034b788e140b4bbff816985]
link pav to pace--><path codeLine="97" d="M209.701,1027 C221.443,1027 233.185,1027 244.927,1027 " fill="none" id="pav-pace" style="stroke: #A80036; stroke-width: 1.0;"/><!--MD5=[174fed849d61687df396b348733ea285]
reverse link api to pace--><path codeLine="98" d="M565.477,1048.256 C540.925,1049.008 516.115,1048.772 492.5,1047 C486.816,1046.573 481.007,1046.045 475.148,1045.439 " fill="none" id="api-backto-pace" style="stroke: #A80036; stroke-width: 1.0;"/><polygon fill="#A80036" points="570.712,1048.081,561.5833,1044.3841,565.7148,1048.2481,561.8507,1052.3796,570.712,1048.081" style="stroke: #A80036; stroke-width: 1.0;"/><text fill="#000000" font-family="sans-serif" font-size="13" lengthAdjust="spacingAndGlyphs" textLength="59" x="493.5" y="1043.0669">observes</text><text fill="#000000" font-family="sans-serif" font-size="13" lengthAdjust="spacingAndGlyphs" textLength="8" x="554.7686" y="1045.7185">1</text><text fill="#000000" font-family="sans-serif" font-size="13" lengthAdjust="spacingAndGlyphs" textLength="8" x="483.0444" y="1023.5819">n</text><!--MD5=[ff1b15483d75aa42a34243f21160dcf1]
@startuml
skinparam classAttributeIconSize 0

package "Server" {
   

  package "ServerLogic" <<Rectangle>>{
    class "ServerShell" as ss {
      {field} +logger: Logger
      {field} -port: int
      {field} -runShell: bool
      {field} -serverShell: ServerShell
      {field} -streamReader: StreamReader
      {method} +ServerShell()
      {method} +startShell(): void
      {method} +stopShell(): void
      {method} +parseCommand(command: string): void
      {method} +showHelp(): void
      {method} +configPort(): void
      {method} +configCapacity(): void
      {method} +startServer(): void
      {method} +stopServer(): void
      {method} +main(args: string[]): void
    }

    class "ModeratorClientManager" as cm {
      {field} -webSocket: WebSocket
      {field} -ip: IPAdress
      {field} -port: int
      {field} +logger: Logger
      {field} -authentificationTokenModeratorClientHash: int
      {method} +ModeratorClientManager(): void
      {method} +disconnect(): void
      {method} +recieveMessage(message: string): void
      {method} +checkJSON(message: string): bool
      {method} +sendMessage(message: string): void
      {method} +sendVotingResults(results: Dictionary<int, int>): void
      {method} +evalJSON(json: string): string[]

    }    

    class "MainServerLogic" as msl {
      {field} -moderator: ModeratorClientManager
      {field} -playerAudience: PlayerAudienceClientManager
      {field} +logger: Logger
      {method} +MainServerLogic(capacity: int, port: int)
      {method} +onFalseMessage(message: string): void
      {method} +onVotingMessage(message: string): void

    }

    class "PlayerAudienceClientManager" as api {
        {field} -observerCollection: ArrayList<Observer>
        {field} -possibleDecisions: string[]
        {field} -voteCounter: Dictionary<int, int>
        {method} +PlayerAudienceClientManager()
        {method} +subscribeObserver(observer: Observer, cookie: Cookie): void
        {method} +unsubscribeObserver(observer: Observer): void
        {method} -notifyObservers(): void
        {method} +updatePossibleDecisions(decisions: string[]): void
        {method} +evaluateVotes(): Dictionary<int, int>
  }

    class "ServerLogger" as sl {
      {field} +globalLogger: Logger
      {field} +logFile: StreamWriter
      {field} +isSetup: bool
      {field} +consoleHandler: Handler
      {method} +Logger()
      {method} +setup(): void
      {method} +addHandler(logger: Logger): void
      {method} +setLevel(level: int): void
      {method} +setConsoleOutput(val: bool): void
    }
  }
  package "PlayerAudience-Client" <<Rectangle>>{  
    class "PlayerAudienceClientExchange" as pace <<Observer>>{
      {field} -sessionCookie: Cookie
      {field} -votingAllowed: bool
      {field} -selectedDecision: int
      {field} -possibleDecisions: string[]
      {method} +PlayerAudienceClientExchange()
      {method} +update(): void
      {method} -hashifyStringToID(decision: string): int
    }

    class "PlayerAudienceView" as pav {
      {method} +PlayerAudienceView()
    }
  }
  ss - - msl
  msl - cm
  msl -down- api
  sl ... cm
  sl ... msl
  sl ... api
  sl ... ss
  pace -left- pav
  api "1" <-right- "n" pace : observes
}
@enduml

PlantUML version 1.2020.20beta13(Unknown compile time)
(GPL source distribution)
Java Runtime: Java(TM) SE Runtime Environment
JVM: Java HotSpot(TM) 64-Bit Server VM
Default Encoding: UTF-8
Language: en
Country: US
--></g></svg>