<?xml version="1.0" encoding="UTF-8" standalone="no"?><svg xmlns="http://www.w3.org/2000/svg" xmlns:xlink="http://www.w3.org/1999/xlink" contentScriptType="application/ecmascript" contentStyleType="text/css" height="1102px" preserveAspectRatio="none" style="width:884px;height:1102px;" version="1.1" viewBox="0 0 884 1102" width="884px" zoomAndPan="magnify"><defs><filter height="300%" id="f1x4j7tpnifvoq" width="300%" x="-1" y="-1"><feGaussianBlur result="blurOut" stdDeviation="2.0"/><feColorMatrix in="blurOut" result="blurOut2" type="matrix" values="0 0 0 0 0 0 0 0 0 0 0 0 0 0 0 0 0 0 .4 0"/><feOffset dx="4.0" dy="4.0" in="blurOut2" result="blurOut3"/><feBlend in="SourceGraphic" in2="blurOut3" mode="normal"/></filter></defs><g><ellipse cx="507.5" cy="16" fill="#000000" filter="url(#f1x4j7tpnifvoq)" rx="10" ry="10" style="stroke:none;stroke-width:1.0;"/><rect fill="#FEFECE" filter="url(#f1x4j7tpnifvoq)" height="47.9375" rx="12.5" ry="12.5" style="stroke:#A80036;stroke-width:1.5;" width="316" x="349.5" y="67"/><text fill="#000000" font-family="sans-serif" font-size="12" lengthAdjust="spacing" textLength="264" x="375.5" y="88.1387">Your colleague Trummu is approaching you.</text><text fill="#000000" font-family="sans-serif" font-size="12" lengthAdjust="spacing" textLength="292" x="363.5" y="102.1074">Trummu urgently needs your support in his task.</text><polygon fill="#FEFECE" filter="url(#f1x4j7tpnifvoq)" points="507.5,175,519.5,187,507.5,199,495.5,187,507.5,175" style="stroke:#A80036;stroke-width:1.5;"/><polygon fill="#FEFECE" filter="url(#f1x4j7tpnifvoq)" points="581.5,290,593.5,302,581.5,314,569.5,302,581.5,290" style="stroke:#A80036;stroke-width:1.5;"/><rect fill="#FEFECE" filter="url(#f1x4j7tpnifvoq)" height="33.9688" rx="12.5" ry="12.5" style="stroke:#A80036;stroke-width:1.5;" width="382" x="142.5" y="285"/><text fill="#000000" font-family="sans-serif" font-size="12" lengthAdjust="spacing" textLength="362" x="152.5" y="306.1387">Trummu is satisfied and you manage to meet your deadline.</text><rect fill="#FEFECE" filter="url(#f1x4j7tpnifvoq)" height="61.9063" rx="12.5" ry="12.5" style="stroke:#A80036;stroke-width:1.5;" width="374" x="132.5" y="427"/><text fill="#000000" font-family="sans-serif" font-size="12" lengthAdjust="spacing" textLength="350" x="142.5" y="448.1387">Yaggaya is happy that you are helping out your colleague.</text><text fill="#000000" font-family="sans-serif" font-size="12" lengthAdjust="spacing" textLength="112" x="263.5" y="462.1074">Your stats change:</text><text fill="#000000" font-family="sans-serif" font-size="12" lengthAdjust="spacing" textLength="112" x="265.5" y="476.0762">+2 communication</text><rect fill="#FEFECE" filter="url(#f1x4j7tpnifvoq)" height="33.9688" rx="12.5" ry="12.5" style="stroke:#A80036;stroke-width:1.5;" width="429" x="367" y="373"/><text fill="#000000" font-family="sans-serif" font-size="12" lengthAdjust="spacing" textLength="409" x="377" y="394.1387">Trummu is satisfied, but you will not manage to meet your deadline.</text><rect fill="#FEFECE" filter="url(#f1x4j7tpnifvoq)" height="61.9063" rx="12.5" ry="12.5" style="stroke:#A80036;stroke-width:1.5;" width="476" x="344.5" y="509"/><text fill="#000000" font-family="sans-serif" font-size="12" lengthAdjust="spacing" textLength="452" x="354.5" y="530.1387">You may miss your own deadline, but Yaggaya is glad you helped Trummu.</text><text fill="#000000" font-family="sans-serif" font-size="12" lengthAdjust="spacing" textLength="112" x="526.5" y="544.1074">Your stats change:</text><text fill="#000000" font-family="sans-serif" font-size="12" lengthAdjust="spacing" textLength="112" x="528.5" y="558.0762">+2 communication</text><polygon fill="#FEFECE" filter="url(#f1x4j7tpnifvoq)" points="586.5,612,598.5,624,586.5,636,574.5,624,586.5,612" style="stroke:#A80036;stroke-width:1.5;"/><rect fill="#FEFECE" filter="url(#f1x4j7tpnifvoq)" height="61.9063" rx="12.5" ry="12.5" style="stroke:#A80036;stroke-width:1.5;" width="197" x="673" y="856"/><text fill="#000000" font-family="sans-serif" font-size="12" lengthAdjust="spacing" textLength="173" x="683" y="877.1387">You miss your own deadline.</text><text fill="#000000" font-family="sans-serif" font-size="12" lengthAdjust="spacing" textLength="112" x="715.5" y="891.1074">Your stats change:</text><text fill="#000000" font-family="sans-serif" font-size="12" lengthAdjust="spacing" textLength="72" x="737.5" y="905.0762">-2 analytics.</text><polygon fill="#FEFECE" filter="url(#f1x4j7tpnifvoq)" points="586.5,690,598.5,702,586.5,714,574.5,702,586.5,690" style="stroke:#A80036;stroke-width:1.5;"/><rect fill="#FEFECE" filter="url(#f1x4j7tpnifvoq)" height="33.9688" rx="12.5" ry="12.5" style="stroke:#A80036;stroke-width:1.5;" width="336" x="429.5" y="734"/><text fill="#000000" font-family="sans-serif" font-size="12" lengthAdjust="spacing" textLength="316" x="439.5" y="755.1387">Yaggaya helps you and you can meet your deadline.</text><rect fill="#FEFECE" filter="url(#f1x4j7tpnifvoq)" height="47.9375" rx="12.5" ry="12.5" style="stroke:#A80036;stroke-width:1.5;" width="432" x="184.5" y="788"/><text fill="#000000" font-family="sans-serif" font-size="12" lengthAdjust="spacing" textLength="408" x="194.5" y="809.1387">Yaggaya will not help you and therefore you will miss your deadline</text><text fill="#000000" font-family="sans-serif" font-size="12" lengthAdjust="spacing" textLength="185" x="310" y="823.1074">and need an additional 5 days.</text><rect fill="#FEFECE" filter="url(#f1x4j7tpnifvoq)" height="61.9063" rx="12.5" ry="12.5" style="stroke:#A80036;stroke-width:1.5;" width="349" x="226" y="938"/><text fill="#000000" font-family="sans-serif" font-size="12" lengthAdjust="spacing" textLength="325" x="236" y="959.1387">Your boss is mad because you missed your deadline.</text><text fill="#000000" font-family="sans-serif" font-size="12" lengthAdjust="spacing" textLength="112" x="344.5" y="973.1074">Your stats change:</text><text fill="#000000" font-family="sans-serif" font-size="12" lengthAdjust="spacing" textLength="69" x="366" y="987.0762">-2 analytics</text><rect fill="#FEFECE" filter="url(#f1x4j7tpnifvoq)" height="47.9375" rx="12.5" ry="12.5" style="stroke:#A80036;stroke-width:1.5;" width="231" x="285" y="1041"/><text fill="#000000" font-family="sans-serif" font-size="12" lengthAdjust="spacing" textLength="207" x="295" y="1062.1387">The project is nearing completion,</text><text fill="#000000" font-family="sans-serif" font-size="12" lengthAdjust="spacing" textLength="183" x="311" y="1076.1074">only a code review is missing.</text><rect fill="#FEFECE" filter="url(#f1x4j7tpnifvoq)" height="61.9063" rx="12.5" ry="12.5" style="stroke:#A80036;stroke-width:1.5;" width="267" x="7" y="156"/><text fill="#000000" font-family="sans-serif" font-size="12" lengthAdjust="spacing" textLength="247" x="17" y="177.1387">Trummu is angry that you didn't help him.</text><text fill="#000000" font-family="sans-serif" font-size="12" lengthAdjust="spacing" textLength="112" x="84.5" y="191.1074">Your stats change:</text><text fill="#000000" font-family="sans-serif" font-size="12" lengthAdjust="spacing" textLength="107" x="89" y="205.0762">-2 communication</text><!--MD5=[279b232862c91c47e4597d56c7bbac8b]
link start to Your colleague Trummu is approaching you.\n Trummu urgently needs your support in his task.--><path d="M507.5,26.25 C507.5,35.11 507.5,48.95 507.5,61.48 " fill="none" id="start-to-Your colleague Trummu is approaching you.\n Trummu urgently needs your support in his task." style="stroke:#A80036;stroke-width:1.0;"/><polygon fill="#A80036" points="507.5,66.75,511.5,57.75,507.5,61.75,503.5,57.75,507.5,66.75" style="stroke:#A80036;stroke-width:1.0;"/><!--MD5=[8e8d5757dfa1fa27572156b87464bd56]
link Your colleague Trummu is approaching you.\n Trummu urgently needs your support in his task. to #109130--><path d="M507.5,115.236 C507.5,132.183 507.5,154.725 507.5,169.767 " fill="none" id="Your colleague Trummu is approaching you.\n Trummu urgently needs your support in his task.-to-#109130" style="stroke:#A80036;stroke-width:1.0;"/><polygon fill="#A80036" points="507.5,174.945,511.5,165.945,507.5,169.945,503.5,165.945,507.5,174.945" style="stroke:#A80036;stroke-width:1.0;"/><text fill="#000000" font-family="sans-serif" font-size="11" lengthAdjust="spacing" textLength="127" x="527.7406" y="167.5287">Do you help Trummu?</text><!--MD5=[d2652d6b11e1d907dd089e6c4c8bdca5]
link #109130 to #109133--><path d="M511.907,194.73 C524.217,213.528 559.055,266.726 574.256,289.939 " fill="none" id="#109130-to-#109133" style="stroke:#A80036;stroke-width:1.0;"/><polygon fill="#A80036" points="577.022,294.162,575.4364,284.4416,574.2822,289.9795,568.7444,288.8253,577.022,294.162" style="stroke:#A80036;stroke-width:1.0;"/><text fill="#000000" font-family="sans-serif" font-size="11" lengthAdjust="spacing" textLength="174" x="563" y="249.2104">You help Trummu, even if you</text><text fill="#000000" font-family="sans-serif" font-size="11" lengthAdjust="spacing" textLength="177" x="563.5" y="262.0151">might miss your own Deadline.</text><text fill="#000000" font-family="sans-serif" font-size="11" lengthAdjust="spacing" textLength="78" x="601.6189" y="282.7995">dice roll &lt;= 3</text><!--MD5=[9dba458dbc901efa9edc5574b34a4164]
reverse link Trummu is satisfied and you manage to meet your deadline. to #109133--><path d="M529.814,302 C546.336,302 560.225,302 569.431,302 " fill="none" id="Trummu is satisfied and you manage to meet your deadline.-backto-#109133" style="stroke:#A80036;stroke-width:1.0;"/><polygon fill="#A80036" points="524.604,302,533.604,306,529.604,302,533.604,298,524.604,302" style="stroke:#A80036;stroke-width:1.0;"/><text fill="#000000" font-family="sans-serif" font-size="11" lengthAdjust="spacing" textLength="23" x="535.5" y="296.2104">true</text><!--MD5=[793edb13d962d85cba94836c7b6ebb4d]
link Trummu is satisfied and you manage to meet your deadline. to helpNoProblem--><path d="M332.028,319.19 C329.829,343.38 325.632,389.553 322.704,421.757 " fill="none" id="Trummu is satisfied and you manage to meet your deadline.-to-helpNoProblem" style="stroke:#A80036;stroke-width:1.0;"/><polygon fill="#A80036" points="322.245,426.8,327.0436,418.1992,322.6978,421.8205,319.0765,417.4747,322.245,426.8" style="stroke:#A80036;stroke-width:1.0;"/><!--MD5=[3c0209886c5dca605507989efd398c3e]
link #109133 to Trummu is satisfied, but you will not manage to meet your deadline.--><path d="M581.5,314.243 C581.5,327.777 581.5,350.793 581.5,367.72 " fill="none" id="#109133-to-Trummu is satisfied, but you will not manage to meet your deadline." style="stroke:#A80036;stroke-width:1.0;"/><polygon fill="#A80036" points="581.5,372.761,585.5,363.761,581.5,367.761,577.5,363.761,581.5,372.761" style="stroke:#A80036;stroke-width:1.0;"/><text fill="#000000" font-family="sans-serif" font-size="11" lengthAdjust="spacing" textLength="28" x="582.5" y="350.2104">false</text><!--MD5=[ffde773a176ac042c2b4e8898ca1dc21]
link Trummu is satisfied, but you will not manage to meet your deadline. to You may miss your own deadline, but Yaggaya is glad you helped Trummu. \n Your stats change: \n +2 communication--><path d="M581.609,407.12 C581.764,430.137 582.054,473.016 582.261,503.634 " fill="none" id="Trummu is satisfied, but you will not manage to meet your deadline.-to-You may miss your own deadline, but Yaggaya is glad you helped Trummu. \n Your stats change: \n +2 communication" style="stroke:#A80036;stroke-width:1.0;"/><polygon fill="#A80036" points="582.296,508.818,586.2342,499.7908,582.2617,503.8181,578.2344,499.8456,582.296,508.818" style="stroke:#A80036;stroke-width:1.0;"/><!--MD5=[0c120070c54ce9fb30b8b562d998c230]
link You may miss your own deadline, but Yaggaya is glad you helped Trummu. \n Your stats change: \n +2 communication to #109145--><path d="M583.967,571.068 C584.567,583.368 585.236,597.084 585.736,607.33 " fill="none" id="You may miss your own deadline, but Yaggaya is glad you helped Trummu. \n Your stats change: \n +2 communication-to-#109145" style="stroke:#A80036;stroke-width:1.0;"/><polygon fill="#A80036" points="585.98,612.346,589.5354,603.1613,585.7357,607.352,581.545,603.5522,585.98,612.346" style="stroke:#A80036;stroke-width:1.0;"/><text fill="#000000" font-family="sans-serif" font-size="11" lengthAdjust="spacing" textLength="161" x="375.5608" y="593.3083">Do you want to ask for help,</text><text fill="#000000" font-family="sans-serif" font-size="11" lengthAdjust="spacing" textLength="213" x="353.5608" y="606.113">so you can meet your own deadline?</text><!--MD5=[d9e10de74e835360a645620045742599]
link #109145 to alone--><path d="M597.657,625.153 C633.452,625.902 744.358,630.291 766.5,656 C813.118,710.128 797.036,800.891 783.111,850.677 " fill="none" id="#109145-to-alone" style="stroke:#A80036;stroke-width:1.0;"/><polygon fill="#A80036" points="781.686,855.658,788.0058,848.1042,783.0604,850.8506,780.3139,845.9052,781.686,855.658" style="stroke:#A80036;stroke-width:1.0;"/><text fill="#000000" font-family="sans-serif" font-size="11" lengthAdjust="spacing" textLength="15" x="793.5" y="706.2104">No</text><!--MD5=[54c4557a016cfe5ff9a162fdf26fef2f]
link #109145 to #109150--><path d="M586.5,636.214 C586.5,649.085 586.5,670.298 586.5,684.924 " fill="none" id="#109145-to-#109150" style="stroke:#A80036;stroke-width:1.0;"/><polygon fill="#A80036" points="586.5,689.987,590.5,680.987,586.5,684.987,582.5,680.987,586.5,689.987" style="stroke:#A80036;stroke-width:1.0;"/><text fill="#000000" font-family="sans-serif" font-size="11" lengthAdjust="spacing" textLength="176" x="587.5" y="667.2104">Yes, you ask Yaggaya for help.</text><text fill="#000000" font-family="sans-serif" font-size="11" lengthAdjust="spacing" textLength="110" x="456.2188" y="681.7035">communication &gt; 6</text><!--MD5=[dade507b366a6506bc9e7ad932e9db2b]
link #109150 to getHelp--><path d="M588.621,712.062 C589.752,716.897 591.196,723.063 592.588,729.012 " fill="none" id="#109150-to-getHelp" style="stroke:#A80036;stroke-width:1.0;"/><polygon fill="#A80036" points="593.738,733.924,595.5835,724.2496,592.5994,729.0554,587.7936,726.0713,593.738,733.924" style="stroke:#A80036;stroke-width:1.0;"/><text fill="#000000" font-family="sans-serif" font-size="11" lengthAdjust="spacing" textLength="23" x="592.149" y="720.0734">true</text><!--MD5=[1d2365e0d3118eb30061d0725ab21687]
link #109150 to Yaggaya will not help you and therefore you will miss your deadline \n and need an additional 5 days.--><path d="M575.354,702.952 C537.34,703.049 413.798,705.579 389.5,734 C378.128,747.301 381.088,766.868 386.785,782.948 " fill="none" id="#109150-to-Yaggaya will not help you and therefore you will miss your deadline \n and need an additional 5 days." style="stroke:#A80036;stroke-width:1.0;"/><polygon fill="#A80036" points="388.628,787.816,389.1826,777.9828,386.8578,783.1398,381.7008,780.815,388.628,787.816" style="stroke:#A80036;stroke-width:1.0;"/><text fill="#000000" font-family="sans-serif" font-size="11" lengthAdjust="spacing" textLength="28" x="390.5" y="755.2104">false</text><!--MD5=[9075a7dedd0aa45a4322f864d080f6f7]
link Yaggaya will not help you and therefore you will miss your deadline \n and need an additional 5 days. to Your boss is mad because you missed your deadline. \n Your stats change: \n-2 analytics--><path d="M400.5,836.205 C400.5,861.832 400.5,903.376 400.5,932.968 " fill="none" id="Yaggaya will not help you and therefore you will miss your deadline \n and need an additional 5 days.-to-Your boss is mad because you missed your deadline. \n Your stats change: \n-2 analytics" style="stroke:#A80036;stroke-width:1.0;"/><polygon fill="#A80036" points="400.5,937.979,404.5,928.979,400.5,932.979,396.5,928.979,400.5,937.979" style="stroke:#A80036;stroke-width:1.0;"/><!--MD5=[95d01c52f00062c6485f9b9791e44667]
link Your boss is mad because you missed your deadline. \n Your stats change: \n-2 analytics to nextDecision--><path d="M400.5,1000.0006 C400.5,1011.4627 400.5,1024.4838 400.5,1035.7748 " fill="none" id="Your boss is mad because you missed your deadline. \n Your stats change: \n-2 analytics-to-nextDecision" style="stroke:#0000FF;stroke-width:1.0;stroke-dasharray:1.0,3.0;"/><polygon fill="#0000FF" points="400.5,1040.8291,404.5,1031.8291,400.5,1035.8291,396.5,1031.8291,400.5,1040.8291" style="stroke:#0000FF;stroke-width:1.0;"/><!--MD5=[53f4bc9d291024dbade4eb412c664919]
reverse link noHelp to #109130--><path d="M279.071,187 C363.638,187 461.771,187 495.444,187 " fill="none" id="noHelp-backto-#109130" style="stroke:#A80036;stroke-width:1.0;"/><polygon fill="#A80036" points="274.034,187,283.034,191,279.034,187,283.034,183,274.034,187" style="stroke:#A80036;stroke-width:1.0;"/><text fill="#000000" font-family="sans-serif" font-size="11" lengthAdjust="spacing" textLength="181" x="292.25" y="155.2104">You have enough to do on your</text><text fill="#000000" font-family="sans-serif" font-size="11" lengthAdjust="spacing" textLength="159" x="305.25" y="168.0151">own and therefore continue</text><text fill="#000000" font-family="sans-serif" font-size="11" lengthAdjust="spacing" textLength="156" x="308.75" y="180.8198">to work on your own things.</text><!--MD5=[d5553599d00b10346e7339e7b2caaa66]
link alone to nextDecision--><path d="M755.703,918.277 C737.759,949.412 705.444,996.6822 663.5,1021 C639.12,1035.1349 578.386,1045.5546 521.419,1052.594 " fill="none" id="alone-to-nextDecision" style="stroke:#0000FF;stroke-width:1.0;stroke-dasharray:1.0,3.0;"/><polygon fill="#0000FF" points="516.272,1053.2221,525.6903,1056.1023,521.2352,1052.6164,524.7211,1048.1613,516.272,1053.2221" style="stroke:#0000FF;stroke-width:1.0;"/><!--MD5=[12cee32483f60359d4b44d6dc365847a]
link helpNoProblem to nextDecision--><path d="M237.473,489.157 C195.651,510.355 153.5,543.502 153.5,591 C153.5,591 153.5,591 153.5,970 C153.5,999.8488 217.303,1023.638 280.054,1039.8167 " fill="none" id="helpNoProblem-to-nextDecision" style="stroke:#0000FF;stroke-width:1.0;stroke-dasharray:1.0,3.0;"/><polygon fill="#0000FF" points="284.955,1041.0657,277.221,1034.9677,280.1097,1039.8314,275.2461,1042.7201,284.955,1041.0657" style="stroke:#0000FF;stroke-width:1.0;"/><!--MD5=[d607a1fa4b63df420e4d6766b6376a93]
link getHelp to nextDecision--><path d="M614.321,768.095 C619.219,773.855 623.937,780.734 626.5,788 C649.513,853.253 604.374,978.382 584.5,1000 C567.44,1018.5575 544.717,1031.7341 521.076,1041.09 " fill="none" id="getHelp-to-nextDecision" style="stroke:#0000FF;stroke-width:1.0;stroke-dasharray:1.0,3.0;"/><polygon fill="#0000FF" points="516.336,1042.9108,526.1718,1043.4176,521.0035,1041.1179,523.3032,1035.9496,516.336,1042.9108" style="stroke:#0000FF;stroke-width:1.0;"/><!--MD5=[71ba2a4dfd89c73fc039a48ba47d7050]
link noHelp to nextDecision--><path d="M128.369,218.158 C120.423,240.618 111.5,272.24 111.5,301 C111.5,301 111.5,301 111.5,970 C111.5,1007.4299 200.275,1032.2445 279.42,1046.9299 " fill="none" id="noHelp-to-nextDecision" style="stroke:#0000FF;stroke-width:1.0;stroke-dasharray:1.0,3.0;"/><polygon fill="#0000FF" points="284.618,1047.8826,276.4866,1042.3256,279.6999,1046.9812,275.0443,1050.1945,284.618,1047.8826" style="stroke:#0000FF;stroke-width:1.0;"/><!--MD5=[02a4707f106fe08d29b3f28b3ef3628b]
@startuml
(*) - -> "Your colleague Trummu is approaching you.\n Trummu urgently needs your support in his task."
if "Do you help Trummu?" then 
- -> [You help Trummu, even if you\n might miss your own Deadline.] if "dice roll <= 3" then
-left-> [true] "Trummu is satisfied and you manage to meet your deadline."
- -> "Yaggaya is happy that you are helping out your colleague. \n Your stats change: \n +2 communication" as helpNoProblem
else
- -> [false] "Trummu is satisfied, but you will not manage to meet your deadline."
- -> "You may miss your own deadline, but Yaggaya is glad you helped Trummu. \n Your stats change: \n +2 communication"
if "Do you want to ask for help, \n so you can meet your own deadline?" then 
- -> [No] "You miss your own deadline. \n Your stats change: \n -2 analytics." as alone

else 
- -> [Yes, you ask Yaggaya for help.]if "communication > 6" then 
-right-> [true] "Yaggaya helps you and you can meet your deadline." as getHelp

else
- -> [false] "Yaggaya will not help you and therefore you will miss your deadline \n and need an additional 5 days."
- -> "Your boss is mad because you missed your deadline. \n Your stats change: \n-2 analytics"
-[#blue,dotted]-> "The project is nearing completion, \n only a code review is missing." as nextDecision
endif
endif
endif
else
-left-> [You have enough to do on your \n own and therefore continue \n to work on your own things.] "Trummu is angry that you didn't help him.\n Your stats change: \n -2 communication" as noHelp

alone -[#blue,dotted]-> nextDecision
helpNoProblem -[#blue,dotted]-> nextDecision
getHelp -[#blue,dotted]-> nextDecision
noHelp -[#blue,dotted]-> nextDecision
@enduml

PlantUML version 1.2021.6beta4(Unknown compile time)
(GPL source distribution)
Java Runtime: Java(TM) SE Runtime Environment
JVM: Java HotSpot(TM) 64-Bit Server VM
Default Encoding: UTF-8
Language: en
Country: US
--></g></svg>