<?xml version="1.0" encoding="UTF-8" standalone="no"?><svg xmlns="http://www.w3.org/2000/svg" xmlns:xlink="http://www.w3.org/1999/xlink" contentScriptType="application/ecmascript" contentStyleType="text/css" height="997px" preserveAspectRatio="none" style="width:443px;height:997px;" version="1.1" viewBox="0 0 443 997" width="443px" zoomAndPan="magnify"><defs><filter height="300%" id="f12541vmwba9mq" width="300%" x="-1" y="-1"><feGaussianBlur result="blurOut" stdDeviation="2.0"/><feColorMatrix in="blurOut" result="blurOut2" type="matrix" values="0 0 0 0 0 0 0 0 0 0 0 0 0 0 0 0 0 0 .4 0"/><feOffset dx="4.0" dy="4.0" in="blurOut2" result="blurOut3"/><feBlend in="SourceGraphic" in2="blurOut3" mode="normal"/></filter></defs><g><ellipse cx="176.8119" cy="16" fill="#000000" filter="url(#f12541vmwba9mq)" rx="10" ry="10" style="stroke: none; stroke-width: 1.0;"/><rect fill="#FEFECE" filter="url(#f12541vmwba9mq)" height="33.9688" rx="12.5" ry="12.5" style="stroke: #A80036; stroke-width: 1.5;" width="137" x="108.3118" y="67"/><text fill="#000000" font-family="sans-serif" font-size="12" lengthAdjust="spacingAndGlyphs" textLength="117" x="118.3118" y="88.1387">Character selection</text><polygon fill="#FEFECE" filter="url(#f12541vmwba9mq)" points="176.8119,142,188.8119,154,176.8119,166,164.8119,154,176.8119,142" style="stroke: #A80036; stroke-width: 1.5;"/><rect fill="#FEFECE" filter="url(#f12541vmwba9mq)" height="33.9688" rx="12.5" ry="12.5" style="stroke: #A80036; stroke-width: 1.5;" width="113" x="120.3118" y="220"/><text fill="#000000" font-family="sans-serif" font-size="12" lengthAdjust="spacingAndGlyphs" textLength="93" x="130.3118" y="241.1387">Elective course</text><polygon fill="#FEFECE" filter="url(#f12541vmwba9mq)" points="176.8119,295,188.8119,307,176.8119,319,164.8119,307,176.8119,295" style="stroke: #A80036; stroke-width: 1.5;"/><rect fill="#FEFECE" filter="url(#f12541vmwba9mq)" height="33.9688" rx="12.5" ry="12.5" style="stroke: #A80036; stroke-width: 1.5;" width="139" x="107.3118" y="386"/><text fill="#000000" font-family="sans-serif" font-size="12" lengthAdjust="spacingAndGlyphs" textLength="119" x="117.3118" y="407.1387">Company internship</text><polygon fill="#FEFECE" filter="url(#f12541vmwba9mq)" points="176.8119,461,188.8119,473,176.8119,485,164.8119,473,176.8119,461" style="stroke: #A80036; stroke-width: 1.5;"/><rect fill="#FEFECE" filter="url(#f12541vmwba9mq)" height="33.9688" rx="12.5" ry="12.5" style="stroke: #A80036; stroke-width: 1.5;" width="119" x="75.3118" y="505"/><text fill="#000000" font-family="sans-serif" font-size="12" lengthAdjust="spacingAndGlyphs" textLength="99" x="85.3118" y="526.1387">Gain experience</text><rect fill="#FEFECE" filter="url(#f12541vmwba9mq)" height="33.9688" rx="12.5" ry="12.5" style="stroke: #A80036; stroke-width: 1.5;" width="85" x="134.3119" y="559"/><text fill="#000000" font-family="sans-serif" font-size="12" lengthAdjust="spacingAndGlyphs" textLength="65" x="144.3119" y="580.1387">Graduation</text><rect fill="#FEFECE" filter="url(#f12541vmwba9mq)" height="33.9688" rx="12.5" ry="12.5" style="stroke: #A80036; stroke-width: 1.5;" width="93" x="130.3119" y="634"/><text fill="#000000" font-family="sans-serif" font-size="12" lengthAdjust="spacingAndGlyphs" textLength="73" x="140.3119" y="655.1387">First project</text><rect fill="#FEFECE" filter="url(#f12541vmwba9mq)" height="33.9688" rx="12.5" ry="12.5" style="stroke: #A80036; stroke-width: 1.5;" width="75" x="139.3119" y="709"/><text fill="#000000" font-family="sans-serif" font-size="12" lengthAdjust="spacingAndGlyphs" textLength="55" x="149.3119" y="730.1387">First task</text><polygon fill="#FEFECE" filter="url(#f12541vmwba9mq)" points="176.8119,784,188.8119,796,176.8119,808,164.8119,796,176.8119,784" style="stroke: #A80036; stroke-width: 1.5;"/><rect fill="#FEFECE" filter="url(#f12541vmwba9mq)" height="33.9688" rx="12.5" ry="12.5" style="stroke: #A80036; stroke-width: 1.5;" width="86" x="133.8119" y="875"/><text fill="#000000" font-family="sans-serif" font-size="12" lengthAdjust="spacingAndGlyphs" textLength="66" x="143.8119" y="896.1387">Write tests</text><rect fill="#FEFECE" filter="url(#f12541vmwba9mq)" height="33.9688" rx="12.5" ry="12.5" style="stroke: #A80036; stroke-width: 1.5;" width="32" x="160.8119" y="950"/><text fill="#000000" font-family="sans-serif" font-size="12" lengthAdjust="spacingAndGlyphs" textLength="0" x="182.8119" y="971.1387"/><!--MD5=[c7036ab0e77ba59aba395186f0d6db7b]
link start to Character selection--><path d="M176.8119,26.177 C176.8119,35.269 176.8119,49.527 176.8119,61.485 " fill="none" id="start-to-Character selection" style="stroke: #A80036; stroke-width: 1.0;"/><polygon fill="#A80036" points="176.8119,66.791,180.8119,57.791,176.8119,61.791,172.8119,57.791,176.8119,66.791" style="stroke: #A80036; stroke-width: 1.0;"/><!--MD5=[605762a29e6cca3d114af3c80a3300d6]
link Character selection to #628222--><path d="M176.8119,101.115 C176.8119,111.916 176.8119,126.082 176.8119,136.883 " fill="none" id="Character selection-to-#628222" style="stroke: #A80036; stroke-width: 1.0;"/><polygon fill="#A80036" points="176.8119,141.885,180.8119,132.885,176.8119,136.885,172.8119,132.885,176.8119,141.885" style="stroke: #A80036; stroke-width: 1.0;"/><text fill="#000000" font-family="sans-serif" font-size="11" lengthAdjust="spacingAndGlyphs" textLength="0" x="175.8369" y="131.4605"/><!--MD5=[d48ef71e62bfeba0cd0a7c2054840295]
link #628222 to wpf--><path d="M166.3389,155.751 C137.2529,158.074 56.5929,166.217 40.8118,186 C17.124,215.695 68.6953,227.755 114.9858,232.652 " fill="none" id="#628222-to-wpf" style="stroke: #A80036; stroke-width: 1.0;"/><polygon fill="#A80036" points="120.021,233.16,111.4674,228.2777,115.0462,232.6587,110.6653,236.2374,120.021,233.16" style="stroke: #A80036; stroke-width: 1.0;"/><text fill="#000000" font-family="sans-serif" font-size="11" lengthAdjust="spacingAndGlyphs" textLength="64" x="41.8118" y="197.2104">character 1</text><!--MD5=[d48ef71e62bfeba0cd0a7c2054840295]
link #628222 to wpf--><path d="M168.6499,157.86 C157.9349,162.11 139.5779,171.219 131.8119,186 C125.8609,197.325 133.2429,208.114 143.6369,216.751 " fill="none" id="#628222-to-wpf-1" style="stroke: #A80036; stroke-width: 1.0;"/><polygon fill="#A80036" points="147.5839,219.833,142.9514,211.1416,143.6428,216.7561,138.0283,217.4475,147.5839,219.833" style="stroke: #A80036; stroke-width: 1.0;"/><text fill="#000000" font-family="sans-serif" font-size="11" lengthAdjust="spacingAndGlyphs" textLength="64" x="132.8119" y="197.2104">character 2</text><!--MD5=[d48ef71e62bfeba0cd0a7c2054840295]
link #628222 to wpf--><path d="M182.4199,160.564 C187.8129,166.345 195.6049,175.94 198.8119,186 C201.9229,195.759 198.4929,206.182 193.4879,214.973 " fill="none" id="#628222-to-wpf-2" style="stroke: #A80036; stroke-width: 1.0;"/><polygon fill="#A80036" points="190.5769,219.674,198.7169,214.1297,193.2101,215.4235,191.9162,209.9166,190.5769,219.674" style="stroke: #A80036; stroke-width: 1.0;"/><text fill="#000000" font-family="sans-serif" font-size="11" lengthAdjust="spacingAndGlyphs" textLength="64" x="200.8119" y="197.2104">character 3</text><!--MD5=[d48ef71e62bfeba0cd0a7c2054840295]
link #628222 to wpf--><path d="M188.1949,154.837 C208.7189,155.238 251.5779,159.405 270.8119,186 C283.9119,204.114 263.6559,216.272 238.6369,224.059 " fill="none" id="#628222-to-wpf-3" style="stroke: #A80036; stroke-width: 1.0;"/><polygon fill="#A80036" points="233.5779,225.559,243.3437,226.8357,238.3716,224.1377,241.0696,219.1657,233.5779,225.559" style="stroke: #A80036; stroke-width: 1.0;"/><text fill="#000000" font-family="sans-serif" font-size="11" lengthAdjust="spacingAndGlyphs" textLength="64" x="275.8119" y="197.2104">character 4</text><!--MD5=[0b3bb72482f31ef56550704abcb41bb5]
link wpf to #628230--><path d="M176.8119,254.115 C176.8119,264.916 176.8119,279.082 176.8119,289.883 " fill="none" id="wpf-to-#628230" style="stroke: #A80036; stroke-width: 1.0;"/><polygon fill="#A80036" points="176.8119,294.885,180.8119,285.885,176.8119,289.885,172.8119,285.885,176.8119,294.885" style="stroke: #A80036; stroke-width: 1.0;"/><text fill="#000000" font-family="sans-serif" font-size="11" lengthAdjust="spacingAndGlyphs" textLength="0" x="175.8369" y="284.4605"/><!--MD5=[d2f9d954ec96952522e552991939d95c]
link #628230 to fpr--><path d="M166.0229,308.595 C135.2109,310.542 47.9366,317.857 30.8118,339 C6,369.633 54.2948,385.694 101.8585,393.908 " fill="none" id="#628230-to-fpr" style="stroke: #A80036; stroke-width: 1.0;"/><polygon fill="#A80036" points="107.0513,394.775,98.8331,389.3471,102.1196,393.9514,97.5153,397.2378,107.0513,394.775" style="stroke: #A80036; stroke-width: 1.0;"/><text fill="#000000" font-family="sans-serif" font-size="11" lengthAdjust="spacingAndGlyphs" textLength="66" x="31.8118" y="350.2104">Introduction</text><text fill="#000000" font-family="sans-serif" font-size="11" lengthAdjust="spacingAndGlyphs" textLength="36" x="46.8118" y="363.0151">to Bali</text><!--MD5=[d2f9d954ec96952522e552991939d95c]
link #628230 to fpr--><path d="M167.6789,310.296 C155.1879,313.983 133.2529,322.541 123.8118,339 C117.8411,349.409 118.1953,355.395 123.8118,366 C127.2799,372.549 132.5329,378.128 138.4069,382.797 " fill="none" id="#628230-to-fpr-1" style="stroke: #A80036; stroke-width: 1.0;"/><polygon fill="#A80036" points="142.5579,385.886,137.7245,377.3047,138.5463,382.9016,132.9494,383.7233,142.5579,385.886" style="stroke: #A80036; stroke-width: 1.0;"/><text fill="#000000" font-family="sans-serif" font-size="11" lengthAdjust="spacingAndGlyphs" textLength="80" x="124.8118" y="350.2104">Requirements</text><text fill="#000000" font-family="sans-serif" font-size="11" lengthAdjust="spacingAndGlyphs" textLength="68" x="130.8118" y="363.0151">Engineering</text><!--MD5=[d2f9d954ec96952522e552991939d95c]
link #628230 to fpr--><path d="M183.5989,312.527 C190.9189,317.862 202.1479,327.475 206.8119,339 C211.3129,350.124 210.8969,354.717 206.8119,366 C204.7349,371.737 201.2999,377.203 197.4809,382.063 " fill="none" id="#628230-to-fpr-2" style="stroke: #A80036; stroke-width: 1.0;"/><polygon fill="#A80036" points="194.2039,385.997,203.0376,381.6421,197.4041,382.1553,196.8909,376.5218,194.2039,385.997" style="stroke: #A80036; stroke-width: 1.0;"/><text fill="#000000" font-family="sans-serif" font-size="11" lengthAdjust="spacingAndGlyphs" textLength="81" x="235.3119" y="350.2104">Introduction to</text><text fill="#000000" font-family="sans-serif" font-size="11" lengthAdjust="spacingAndGlyphs" textLength="130" x="210.8119" y="363.0151">Software Architectures</text><!--MD5=[d2f9d954ec96952522e552991939d95c]
link #628230 to fpr--><path d="M187.8569,308.253 C222.2499,309.297 326.3459,314.465 346.8119,339 C377.7339,376.071 310.5869,391.335 251.7799,397.616 " fill="none" id="#628230-to-fpr-3" style="stroke: #A80036; stroke-width: 1.0;"/><polygon fill="#A80036" points="246.4809,398.161,255.8428,401.2195,251.4547,397.6496,255.0246,393.2615,246.4809,398.161" style="stroke: #A80036; stroke-width: 1.0;"/><text fill="#000000" font-family="sans-serif" font-size="11" lengthAdjust="spacingAndGlyphs" textLength="65" x="362.8119" y="350.2104">Usability as</text><text fill="#000000" font-family="sans-serif" font-size="11" lengthAdjust="spacingAndGlyphs" textLength="81" x="354.8119" y="363.0151">success factor</text><!--MD5=[bfd3c3970d16ce6d2a12dd319b5c9681]
link fpr to #628238--><path d="M176.8119,420.115 C176.8119,430.916 176.8119,445.082 176.8119,455.883 " fill="none" id="fpr-to-#628238" style="stroke: #A80036; stroke-width: 1.0;"/><polygon fill="#A80036" points="176.8119,460.885,180.8119,451.885,176.8119,455.885,172.8119,451.885,176.8119,460.885" style="stroke: #A80036; stroke-width: 1.0;"/><text fill="#000000" font-family="sans-serif" font-size="11" lengthAdjust="spacingAndGlyphs" textLength="0" x="175.8369" y="450.4605"/><!--MD5=[778f8e698a092c3c0c3585a27ca9390d]
link #628238 to n--><path d="M171.3209,480.144 C166.5929,485.435 159.4959,493.377 152.8119,500.857 " fill="none" id="#628238-to-n" style="stroke: #A80036; stroke-width: 1.0;"/><polygon fill="#A80036" points="149.1589,504.944,158.1382,500.8978,152.4903,501.2155,152.1726,495.5676,149.1589,504.944" style="stroke: #A80036; stroke-width: 1.0;"/><text fill="#000000" font-family="sans-serif" font-size="11" lengthAdjust="spacingAndGlyphs" textLength="21" x="138.0489" y="489.9684">yes</text><!--MD5=[0948f46f514ce15eb97904f4be8b288e]
link n to p--><path d="M147.8709,539.168 C151.7839,544.013 156.1279,549.392 160.2359,554.478 " fill="none" id="n-to-p" style="stroke: #A80036; stroke-width: 1.0;"/><polygon fill="#A80036" points="163.6159,558.663,161.0712,549.1486,160.4736,554.7738,154.8484,554.1762,163.6159,558.663" style="stroke: #A80036; stroke-width: 1.0;"/><!--MD5=[7a16db7b2711e08fb07fe245395ffc52]
link #628238 to p--><path d="M182.0209,480.157 C186.6679,486.084 193.1389,495.522 195.8119,505 C199.9139,519.544 199.4449,524.332 195.8119,539 C194.5379,544.145 192.3789,549.365 189.9639,554.175 " fill="none" id="#628238-to-p" style="stroke: #A80036; stroke-width: 1.0;"/><polygon fill="#A80036" points="187.4859,558.83,195.2453,552.7644,189.835,554.4162,188.1832,549.0059,187.4859,558.83" style="stroke: #A80036; stroke-width: 1.0;"/><text fill="#000000" font-family="sans-serif" font-size="11" lengthAdjust="spacingAndGlyphs" textLength="14" x="198.8119" y="526.2104">no</text><!--MD5=[01a8160c81d4d946b8fce333cd5f8bef]
link p to ep--><path d="M176.8119,593.201 C176.8119,603.692 176.8119,617.463 176.8119,628.818 " fill="none" id="p-to-ep" style="stroke: #A80036; stroke-width: 1.0;"/><polygon fill="#A80036" points="176.8119,633.844,180.8119,624.844,176.8119,628.844,172.8119,624.844,176.8119,633.844" style="stroke: #A80036; stroke-width: 1.0;"/><!--MD5=[f3a0f77004eae6ee9c2ffc3e0bafd324]
link ep to ea--><path d="M176.8119,668.201 C176.8119,678.692 176.8119,692.463 176.8119,703.818 " fill="none" id="ep-to-ea" style="stroke: #A80036; stroke-width: 1.0;"/><polygon fill="#A80036" points="176.8119,708.844,180.8119,699.844,176.8119,703.844,172.8119,699.844,176.8119,708.844" style="stroke: #A80036; stroke-width: 1.0;"/><!--MD5=[aaf64f05e2e20230649fa02d5ec72f7f]
link ea to #628250--><path d="M176.8119,743.115 C176.8119,753.916 176.8119,768.082 176.8119,778.883 " fill="none" id="ea-to-#628250" style="stroke: #A80036; stroke-width: 1.0;"/><polygon fill="#A80036" points="176.8119,783.885,180.8119,774.885,176.8119,778.885,172.8119,774.885,176.8119,783.885" style="stroke: #A80036; stroke-width: 1.0;"/><text fill="#000000" font-family="sans-serif" font-size="11" lengthAdjust="spacingAndGlyphs" textLength="0" x="175.8369" y="773.4605"/><!--MD5=[56b01c8fb2a79059fb590a703ad8450f]
link #628250 to ts--><path d="M166.7649,798.212 C151.2049,800.691 121.7251,807.921 108.8118,828 C102.3207,838.093 102.6221,844.72 108.8118,855 C113.6951,863.111 121.0866,869.49 129.2229,874.475 " fill="none" id="#628250-to-ts" style="stroke: #A80036; stroke-width: 1.0;"/><polygon fill="#A80036" points="133.8089,877.102,127.9883,869.1572,129.4705,874.6164,124.0113,876.0986,133.8089,877.102" style="stroke: #A80036; stroke-width: 1.0;"/><text fill="#000000" font-family="sans-serif" font-size="11" lengthAdjust="spacingAndGlyphs" textLength="20" x="120.3118" y="839.2104">Ask</text><text fill="#000000" font-family="sans-serif" font-size="11" lengthAdjust="spacingAndGlyphs" textLength="41" x="109.8118" y="852.0151">mentor</text><!--MD5=[56b01c8fb2a79059fb590a703ad8450f]
link #628250 to ts--><path d="M176.8119,808.152 C176.8119,823.266 176.8119,850.557 176.8119,869.673 " fill="none" id="#628250-to-ts-1" style="stroke: #A80036; stroke-width: 1.0;"/><polygon fill="#A80036" points="176.8119,874.831,180.8119,865.831,176.8119,869.831,172.8119,865.831,176.8119,874.831" style="stroke: #A80036; stroke-width: 1.0;"/><text fill="#000000" font-family="sans-serif" font-size="11" lengthAdjust="spacingAndGlyphs" textLength="112" x="177.8119" y="845.7104">Search the internet</text><!--MD5=[56b01c8fb2a79059fb590a703ad8450f]
link #628250 to ts--><path d="M186.7769,798.151 C212.2869,801.323 278.8589,811.093 291.8119,828 C299.1099,837.526 298.9179,845.33 291.8119,855 C276.4879,875.854 249.1219,884.9604 224.9299,888.8025 " fill="none" id="#628250-to-ts-2" style="stroke: #A80036; stroke-width: 1.0;"/><polygon fill="#A80036" points="219.8209,889.5449,229.3023,892.2099,224.769,888.8263,228.1526,884.293,219.8209,889.5449" style="stroke: #A80036; stroke-width: 1.0;"/><text fill="#000000" font-family="sans-serif" font-size="11" lengthAdjust="spacingAndGlyphs" textLength="20" x="309.8119" y="839.2104">Just</text><text fill="#000000" font-family="sans-serif" font-size="11" lengthAdjust="spacingAndGlyphs" textLength="44" x="297.8119" y="852.0151">go for it</text><!--MD5=[338acffef7faf58ac591304a55388c92]
link ts to    --><path d="M176.8119,909.2011 C176.8119,919.6917 176.8119,933.4627 176.8119,944.8176 " fill="none" id="ts-to-   " style="stroke: #0000FF; stroke-width: 1.0; stroke-dasharray: 1.0,3.0;"/><polygon fill="#0000FF" points="176.8119,949.8442,180.8119,940.8442,176.8119,944.8442,172.8119,940.8442,176.8119,949.8442" style="stroke: #0000FF; stroke-width: 1.0;"/><!--MD5=[e3755b9c284a1b713581a2ee382eecd6]
@startuml
(*) - -> "Character selection"
if "" then
- -> [character 1] "Elective course" as wpf
else
- -> [character 2] wpf
else
- -> [character 3] wpf
else
- -> [character 4] wpf
if "" then
- -> [Introduction\nto Bali] "Company internship" as fpr
else
- -> [Requirements\nEngineering] fpr
else
- -> [Introduction to\nSoftware Architectures] fpr
else
- -> [Usability as\nsuccess factor] fpr
if "" then
-> [yes] "Gain experience" as n
n -> "Graduation" as p
else
- -> [no] p
p - -> "First project" as ep
ep - -> "First task" as ea
if "" then
- -> [Ask\nmentor] "Write tests" as ts
else
- -> [Search the internet] ts
else
- -> [Just\ngo for it] ts
-[#blue,dotted]-> "   "
@enduml

PlantUML version 1.2020.20beta13(Unknown compile time)
(GPL source distribution)
Java Runtime: Java(TM) SE Runtime Environment
JVM: Java HotSpot(TM) 64-Bit Server VM
Default Encoding: UTF-8
Language: en
Country: US
--></g></svg>