<?xml version="1.0" encoding="UTF-8" standalone="no"?><svg xmlns="http://www.w3.org/2000/svg" xmlns:xlink="http://www.w3.org/1999/xlink" contentScriptType="application/ecmascript" contentStyleType="text/css" height="769px" preserveAspectRatio="none" style="width:1296px;height:769px;" version="1.1" viewBox="0 0 1296 769" width="1296px" zoomAndPan="magnify"><defs><filter height="300%" id="f1gxdk7r1r6rud" width="300%" x="-1" y="-1"><feGaussianBlur result="blurOut" stdDeviation="2.0"/><feColorMatrix in="blurOut" result="blurOut2" type="matrix" values="0 0 0 0 0 0 0 0 0 0 0 0 0 0 0 0 0 0 .4 0"/><feOffset dx="4.0" dy="4.0" in="blurOut2" result="blurOut3"/><feBlend in="SourceGraphic" in2="blurOut3" mode="normal"/></filter></defs><g><ellipse cx="584" cy="16" fill="#000000" filter="url(#f1gxdk7r1r6rud)" rx="10" ry="10" style="stroke: none; stroke-width: 1.0;"/><rect fill="#FEFECE" filter="url(#f1gxdk7r1r6rud)" height="33.9688" rx="12.5" ry="12.5" style="stroke: #A80036; stroke-width: 1.5;" width="459" x="354.5" y="67"/><text fill="#000000" font-family="sans-serif" font-size="12" lengthAdjust="spacingAndGlyphs" textLength="439" x="364.5" y="88.1387">After completing your task, you must now write the corresponding tests.</text><rect fill="#FEFECE" filter="url(#f1gxdk7r1r6rud)" height="47.9375" rx="12.5" ry="12.5" style="stroke: #A80036; stroke-width: 1.5;" width="285" x="441.5" y="142"/><text fill="#000000" font-family="sans-serif" font-size="12" lengthAdjust="spacingAndGlyphs" textLength="261" x="451.5" y="163.1387">You only have a few days to write the tests</text><text fill="#000000" font-family="sans-serif" font-size="12" lengthAdjust="spacingAndGlyphs" textLength="252" x="460" y="177.1074">until the deadline for the tests is reached.</text><polygon fill="#FEFECE" filter="url(#f1gxdk7r1r6rud)" points="584,231,596,243,584,255,572,243,584,231" style="stroke: #A80036; stroke-width: 1.5;"/><polygon fill="#FEFECE" filter="url(#f1gxdk7r1r6rud)" points="414,335,426,347,414,359,402,347,414,335" style="stroke: #A80036; stroke-width: 1.5;"/><rect fill="#FEFECE" filter="url(#f1gxdk7r1r6rud)" height="47.9375" rx="12.5" ry="12.5" style="stroke: #A80036; stroke-width: 1.5;" width="250" x="7" y="413"/><text fill="#000000" font-family="sans-serif" font-size="12" lengthAdjust="spacingAndGlyphs" textLength="226" x="17" y="434.1387">Due to your good programming skills</text><text fill="#000000" font-family="sans-serif" font-size="12" lengthAdjust="spacingAndGlyphs" textLength="175" x="46.5" y="448.1074">you still will be ready in time.</text><rect fill="#FEFECE" filter="url(#f1gxdk7r1r6rud)" height="89.8438" rx="12.5" ry="12.5" style="stroke: #A80036; stroke-width: 1.5;" width="234" x="44" y="509"/><text fill="#000000" font-family="sans-serif" font-size="12" lengthAdjust="spacingAndGlyphs" textLength="149" x="84.5" y="530.1387">Yaggaya is very pleased</text><text fill="#000000" font-family="sans-serif" font-size="12" lengthAdjust="spacingAndGlyphs" textLength="210" x="58" y="544.1074">with your approach and your tests.</text><text fill="#000000" font-family="sans-serif" font-size="12" lengthAdjust="spacingAndGlyphs" textLength="112" x="105" y="558.0762">Your stats change:</text><text fill="#000000" font-family="sans-serif" font-size="12" lengthAdjust="spacingAndGlyphs" textLength="102" x="108" y="572.0449">+1 programming</text><text fill="#000000" font-family="sans-serif" font-size="12" lengthAdjust="spacingAndGlyphs" textLength="74" x="126" y="586.0137">+3 analytics</text><rect fill="#FEFECE" filter="url(#f1gxdk7r1r6rud)" height="47.9375" rx="12.5" ry="12.5" style="stroke: #A80036; stroke-width: 1.5;" width="273" x="277.5" y="413"/><text fill="#000000" font-family="sans-serif" font-size="12" lengthAdjust="spacingAndGlyphs" textLength="249" x="287.5" y="434.1387">Unfortunately you won't be ready in time,</text><text fill="#000000" font-family="sans-serif" font-size="12" lengthAdjust="spacingAndGlyphs" textLength="209" x="311.5" y="448.1074">but you have very extensive tests.</text><rect fill="#FEFECE" filter="url(#f1gxdk7r1r6rud)" height="103.8125" rx="12.5" ry="12.5" style="stroke: #A80036; stroke-width: 1.5;" width="253" x="307.5" y="502"/><text fill="#000000" font-family="sans-serif" font-size="12" lengthAdjust="spacingAndGlyphs" textLength="213" x="325.5" y="523.1387">Yaggaya is satisfied with your tests</text><text fill="#000000" font-family="sans-serif" font-size="12" lengthAdjust="spacingAndGlyphs" textLength="118" x="375" y="537.1074">and your approach,</text><text fill="#000000" font-family="sans-serif" font-size="12" lengthAdjust="spacingAndGlyphs" textLength="229" x="321.5" y="551.0762">even though you did not finish in time.</text><text fill="#000000" font-family="sans-serif" font-size="12" lengthAdjust="spacingAndGlyphs" textLength="112" x="378" y="565.0449">Your stats change:</text><text fill="#000000" font-family="sans-serif" font-size="12" lengthAdjust="spacingAndGlyphs" textLength="103" x="380.5" y="579.0137">+2 programming</text><text fill="#000000" font-family="sans-serif" font-size="12" lengthAdjust="spacingAndGlyphs" textLength="74" x="399" y="592.9824">+2 analytics</text><polygon fill="#FEFECE" filter="url(#f1gxdk7r1r6rud)" points="729,335,741,347,729,359,717,347,729,335" style="stroke: #A80036; stroke-width: 1.5;"/><rect fill="#FEFECE" filter="url(#f1gxdk7r1r6rud)" height="47.9375" rx="12.5" ry="12.5" style="stroke: #A80036; stroke-width: 1.5;" width="317" x="570.5" y="413"/><text fill="#000000" font-family="sans-serif" font-size="12" lengthAdjust="spacingAndGlyphs" textLength="226" x="614" y="434.1387">Due to very good programming skills</text><text fill="#000000" font-family="sans-serif" font-size="12" lengthAdjust="spacingAndGlyphs" textLength="293" x="584.5" y="448.1074">you have extensive tests despite the short time.</text><rect fill="#FEFECE" filter="url(#f1gxdk7r1r6rud)" height="61.9063" rx="12.5" ry="12.5" style="stroke: #A80036; stroke-width: 1.5;" width="271" x="582.5" y="523"/><text fill="#000000" font-family="sans-serif" font-size="12" lengthAdjust="spacingAndGlyphs" textLength="247" x="592.5" y="544.1387">Yaggaya is very satisfied with your work.</text><text fill="#000000" font-family="sans-serif" font-size="12" lengthAdjust="spacingAndGlyphs" textLength="112" x="662" y="558.1074">Your stats change:</text><text fill="#000000" font-family="sans-serif" font-size="12" lengthAdjust="spacingAndGlyphs" textLength="103" x="668.5" y="572.0762">+2 programming</text><rect fill="#FEFECE" filter="url(#f1gxdk7r1r6rud)" height="47.9375" rx="12.5" ry="12.5" style="stroke: #A80036; stroke-width: 1.5;" width="375" x="907.5" y="413"/><text fill="#000000" font-family="sans-serif" font-size="12" lengthAdjust="spacingAndGlyphs" textLength="192" x="997" y="434.1387">The deadline has been reached</text><text fill="#000000" font-family="sans-serif" font-size="12" lengthAdjust="spacingAndGlyphs" textLength="351" x="921.5" y="448.1074">and you have not managed to test everything extensively.</text><rect fill="#FEFECE" filter="url(#f1gxdk7r1r6rud)" height="103.8125" rx="12.5" ry="12.5" style="stroke: #A80036; stroke-width: 1.5;" width="267" x="893.5" y="502"/><text fill="#000000" font-family="sans-serif" font-size="12" lengthAdjust="spacingAndGlyphs" textLength="240" x="905" y="523.1387">Yaggaya is not satisfied with your work,</text><text fill="#000000" font-family="sans-serif" font-size="12" lengthAdjust="spacingAndGlyphs" textLength="214" x="920" y="537.1074">you have to revise your tests again</text><text fill="#000000" font-family="sans-serif" font-size="12" lengthAdjust="spacingAndGlyphs" textLength="243" x="907.5" y="551.0762">and exceed the deadline by a few days.</text><text fill="#000000" font-family="sans-serif" font-size="12" lengthAdjust="spacingAndGlyphs" textLength="112" x="971" y="565.0449">Your stats change:</text><text fill="#000000" font-family="sans-serif" font-size="12" lengthAdjust="spacingAndGlyphs" textLength="102" x="976" y="579.0137">+1 programming</text><text fill="#000000" font-family="sans-serif" font-size="12" lengthAdjust="spacingAndGlyphs" textLength="69" x="994.5" y="592.9824">-2 analytics</text><rect fill="#FEFECE" filter="url(#f1gxdk7r1r6rud)" height="33.9688" rx="12.5" ry="12.5" style="stroke: #A80036; stroke-width: 1.5;" width="122" x="514" y="647"/><text fill="#000000" font-family="sans-serif" font-size="12" lengthAdjust="spacingAndGlyphs" textLength="102" x="524" y="668.1387">Tests completed</text><rect fill="#FEFECE" filter="url(#f1gxdk7r1r6rud)" height="33.9688" rx="12.5" ry="12.5" style="stroke: #A80036; stroke-width: 1.5;" width="244" x="453" y="722"/><text fill="#000000" font-family="sans-serif" font-size="12" lengthAdjust="spacingAndGlyphs" textLength="224" x="463" y="743.1387">There is a company party coming up.</text><!--MD5=[b53442bbaafc68028fc124a41789c76d]
link start to After completing your task, you must now write the corresponding tests.--><path d="M584,26.177 C584,35.269 584,49.527 584,61.485 " fill="none" id="start-to-After completing your task, you must now write the corresponding tests." style="stroke: #A80036; stroke-width: 1.0;"/><polygon fill="#A80036" points="584,66.791,588,57.791,584,61.791,580,57.791,584,66.791" style="stroke: #A80036; stroke-width: 1.0;"/><!--MD5=[0f60bb1446ee644c0e9a47ed37c02713]
link After completing your task, you must now write the corresponding tests. to You only have a few days to write the tests \n until the deadline for the tests is reached.--><path d="M584,101.189 C584,111.416 584,124.908 584,136.851 " fill="none" id="After completing your task, you must now write the corresponding tests.-to-You only have a few days to write the tests \n until the deadline for the tests is reached." style="stroke: #A80036; stroke-width: 1.0;"/><polygon fill="#A80036" points="584,141.861,588,132.861,584,136.861,580,132.861,584,141.861" style="stroke: #A80036; stroke-width: 1.0;"/><!--MD5=[68213e720a53a19e321e380e7ae20f08]
link You only have a few days to write the tests \n until the deadline for the tests is reached. to #1345808--><path d="M584,190.319 C584,201.744 584,215.228 584,225.558 " fill="none" id="You only have a few days to write the tests \n until the deadline for the tests is reached.-to-#1345808" style="stroke: #A80036; stroke-width: 1.0;"/><polygon fill="#A80036" points="584,230.645,588,221.645,584,225.645,580,221.645,584,230.645" style="stroke: #A80036; stroke-width: 1.0;"/><text fill="#000000" font-family="sans-serif" font-size="11" lengthAdjust="spacingAndGlyphs" textLength="170" x="394.3438" y="224.7039">How do you want to proceed?</text><!--MD5=[318f1ac4fd3f79250dc1695882da828c]
link #1345808 to #1345811--><path d="M573.462,244.56 C551.902,246.159 501.931,252.24 468,275 C445.389,290.167 428.366,317.989 419.92,333.93 " fill="none" id="#1345808-to-#1345811" style="stroke: #A80036; stroke-width: 1.0;"/><polygon fill="#A80036" points="417.578,338.469,425.26,332.3057,419.871,334.0258,418.1509,328.6368,417.578,338.469" style="stroke: #A80036; stroke-width: 1.0;"/><text fill="#000000" font-family="sans-serif" font-size="11" lengthAdjust="spacingAndGlyphs" textLength="175" x="469" y="286.2104">You write extensive tests until</text><text fill="#000000" font-family="sans-serif" font-size="11" lengthAdjust="spacingAndGlyphs" textLength="89" x="514" y="299.0151">they are ready,</text><text fill="#000000" font-family="sans-serif" font-size="11" lengthAdjust="spacingAndGlyphs" textLength="155" x="483" y="311.8198">regardless of the deadline.</text><text fill="#000000" font-family="sans-serif" font-size="11" lengthAdjust="spacingAndGlyphs" textLength="190" x="433.905" y="334.3394">dice roll + programming + 1 &gt;=8</text><!--MD5=[5477f0428aeb61767b3845beed04ce2f]
link #1345811 to Due to your good programming skills \n you still will be ready in time.--><path d="M405.56,350.634 C376.877,359.584 281.034,389.493 210.861,411.391 " fill="none" id="#1345811-to-Due to your good programming skills \n you still will be ready in time." style="stroke: #A80036; stroke-width: 1.0;"/><polygon fill="#A80036" points="205.854,412.953,215.6368,414.0919,210.6272,411.4643,213.2549,406.4548,205.854,412.953" style="stroke: #A80036; stroke-width: 1.0;"/><text fill="#000000" font-family="sans-serif" font-size="11" lengthAdjust="spacingAndGlyphs" textLength="23" x="308" y="390.2104">true</text><!--MD5=[fc91f2f1b2531f193c7b2e37c67bef39]
link Due to your good programming skills \n you still will be ready in time. to path1--><path d="M137.869,461.272 C140.961,473.537 144.878,489.068 148.605,503.848 " fill="none" id="Due to your good programming skills \n you still will be ready in time.-to-path1" style="stroke: #A80036; stroke-width: 1.0;"/><polygon fill="#A80036" points="149.86,508.826,151.5376,499.1211,148.6372,503.9778,143.7805,501.0775,149.86,508.826" style="stroke: #A80036; stroke-width: 1.0;"/><!--MD5=[66d4685d4372112a3a14d6772983ef5e]
link #1345811 to Unfortunately you won't be ready in time, \n but you have very extensive tests.--><path d="M414,359.145 C414,371.3 414,391.227 414,407.744 " fill="none" id="#1345811-to-Unfortunately you won't be ready in time, \n but you have very extensive tests." style="stroke: #A80036; stroke-width: 1.0;"/><polygon fill="#A80036" points="414,412.748,418,403.748,414,407.748,410,403.748,414,412.748" style="stroke: #A80036; stroke-width: 1.0;"/><text fill="#000000" font-family="sans-serif" font-size="11" lengthAdjust="spacingAndGlyphs" textLength="28" x="415" y="390.2104">false</text><!--MD5=[6e68fafd73b02fcc5a28c9f2f6e12d09]
link Unfortunately you won't be ready in time, \n but you have very extensive tests. to path2--><path d="M418.047,461.272 C419.841,471.585 422.036,484.209 424.218,496.752 " fill="none" id="Unfortunately you won't be ready in time, \n but you have very extensive tests.-to-path2" style="stroke: #A80036; stroke-width: 1.0;"/><polygon fill="#A80036" points="425.085,501.738,427.4828,492.1855,424.2278,496.812,419.6013,493.557,425.085,501.738" style="stroke: #A80036; stroke-width: 1.0;"/><!--MD5=[d308a1e8c030342ca16e7360fca3b2cb]
link #1345808 to #1345822--><path d="M592.666,246.761 C606.388,251.361 633.644,261.446 654,275 C681.01,292.985 707.315,321.027 720.412,335.916 " fill="none" id="#1345808-to-#1345822" style="stroke: #A80036; stroke-width: 1.0;"/><polygon fill="#A80036" points="723.745,339.748,720.8568,330.3321,720.4637,335.9753,714.8205,335.5822,723.745,339.748" style="stroke: #A80036; stroke-width: 1.0;"/><text fill="#000000" font-family="sans-serif" font-size="11" lengthAdjust="spacingAndGlyphs" textLength="257" x="716.5" y="292.7104">You write tests until the deadline is reached,</text><text fill="#000000" font-family="sans-serif" font-size="11" lengthAdjust="spacingAndGlyphs" textLength="286" x="706" y="305.5151">what you don't finish by then is simply not tested.</text><text fill="#000000" font-family="sans-serif" font-size="11" lengthAdjust="spacingAndGlyphs" textLength="189" x="520.0935" y="349.8337">dice roll + programming - 1 &gt;= 8</text><!--MD5=[7f32f53daf92c3b94e70833b29b854ac]
link #1345822 to Due to very good programming skills \n you have extensive tests despite the short time.--><path d="M729,359.145 C729,371.3 729,391.227 729,407.744 " fill="none" id="#1345822-to-Due to very good programming skills \n you have extensive tests despite the short time." style="stroke: #A80036; stroke-width: 1.0;"/><polygon fill="#A80036" points="729,412.748,733,403.748,729,407.748,725,403.748,729,412.748" style="stroke: #A80036; stroke-width: 1.0;"/><text fill="#000000" font-family="sans-serif" font-size="11" lengthAdjust="spacingAndGlyphs" textLength="23" x="730" y="390.2104">true</text><!--MD5=[5d5115de9ff5f186591a37b13a86c01e]
link Due to very good programming skills \n you have extensive tests despite the short time. to path3--><path d="M726.774,461.272 C725.225,477.47 723.13,499.365 721.376,517.701 " fill="none" id="Due to very good programming skills \n you have extensive tests despite the short time.-to-path3" style="stroke: #A80036; stroke-width: 1.0;"/><polygon fill="#A80036" points="720.891,522.771,725.7292,514.1924,721.3667,517.7937,717.7655,513.4312,720.891,522.771" style="stroke: #A80036; stroke-width: 1.0;"/><!--MD5=[972f5ed79060324ddce099ebffd8e750]
link #1345822 to The deadline has been reached \n and you have not managed to test everything extensively.--><path d="M738.047,350.175 C772.924,358.561 901.323,389.433 994.144,411.751 " fill="none" id="#1345822-to-The deadline has been reached \n and you have not managed to test everything extensively." style="stroke: #A80036; stroke-width: 1.0;"/><polygon fill="#A80036" points="999.092,412.94,991.2778,406.9451,994.2308,411.7701,989.4059,414.7231,999.092,412.94" style="stroke: #A80036; stroke-width: 1.0;"/><text fill="#000000" font-family="sans-serif" font-size="11" lengthAdjust="spacingAndGlyphs" textLength="28" x="913" y="390.2104">false</text><!--MD5=[ad51981f8171606d8535a5cdf994bd68]
link The deadline has been reached \n and you have not managed to test everything extensively. to path4--><path d="M1081.24,461.272 C1075.03,471.768 1067.41,484.656 1059.87,497.418 " fill="none" id="The deadline has been reached \n and you have not managed to test everything extensively.-to-path4" style="stroke: #A80036; stroke-width: 1.0;"/><polygon fill="#A80036" points="1057.31,501.738,1065.337,496.0312,1059.8572,497.4355,1058.453,491.9557,1057.31,501.738" style="stroke: #A80036; stroke-width: 1.0;"/><!--MD5=[acdb82987617a3ea9b571d05557e8699]
link path1 to nextDecision--><path d="M274.465,599.045 C282.05,601.525 289.61,603.871 297,606 C368.346,626.555 452.031,642.662 508.803,652.435 " fill="none" id="path1-to-nextDecision" style="stroke: #A80036; stroke-width: 1.0;"/><polygon fill="#A80036" points="513.869,653.303,505.6739,647.8404,508.9408,652.4585,504.3227,655.7255,513.869,653.303" style="stroke: #A80036; stroke-width: 1.0;"/><!--MD5=[98886223e53e74b223343133ddef51cd]
link path2 to nextDecision--><path d="M500.784,606.154 C518.201,619.494 535.921,633.067 549.676,643.603 " fill="none" id="path2-to-nextDecision" style="stroke: #A80036; stroke-width: 1.0;"/><polygon fill="#A80036" points="553.813,646.772,549.0992,638.1244,549.8432,643.7322,544.2355,644.4761,553.813,646.772" style="stroke: #A80036; stroke-width: 1.0;"/><!--MD5=[d9ae20278fbbcd552fd26d2283aacf1c]
link path3 to nextDecision--><path d="M678.167,585.084 C653.374,603.808 622.216,627.34 600.664,643.618 " fill="none" id="path3-to-nextDecision" style="stroke: #A80036; stroke-width: 1.0;"/><polygon fill="#A80036" points="596.486,646.773,606.0783,644.5396,600.4755,643.7591,601.256,638.1563,596.486,646.773" style="stroke: #A80036; stroke-width: 1.0;"/><!--MD5=[5b8eb87af51f348eacbdfe7a435de8d1]
link path4 to nextDecision--><path d="M893.46,598.061 C883.526,600.872 873.627,603.552 864,606 C788.345,625.236 700.163,641.798 641.29,652.035 " fill="none" id="path4-to-nextDecision" style="stroke: #A80036; stroke-width: 1.0;"/><polygon fill="#A80036" points="636.041,652.945,645.5922,655.3482,640.9675,652.0906,644.2251,647.4659,636.041,652.945" style="stroke: #A80036; stroke-width: 1.0;"/><!--MD5=[d8bec0c011c4f76ab7bf32b7660476ed]
link nextDecision to There is a company party coming up.--><path d="M575,681.2011 C575,691.6917 575,705.4627 575,716.8176 " fill="none" id="nextDecision-to-There is a company party coming up." style="stroke: #0000FF; stroke-width: 1.0; stroke-dasharray: 1.0,3.0;"/><polygon fill="#0000FF" points="575,721.8442,579,712.8442,575,716.8442,571,712.8442,575,721.8442" style="stroke: #0000FF; stroke-width: 1.0;"/><!--MD5=[561afe537b6ba5c2f97f97c13e8a3c99]
@startuml
(*) - -> "After completing your task, you must now write the corresponding tests."
- -> "You only have a few days to write the tests \n until the deadline for the tests is reached."
if "How do you want to proceed?" then
- -> [You write extensive tests until \n they are ready, \n regardless of the deadline.] if "dice roll + programming + 1 >=8" then
- -> [true] "Due to your good programming skills \n you still will be ready in time."

- -> "Yaggaya is very pleased \n with your approach and your tests.\n Your stats change: \n+1 programming \n +3 analytics" as path1
else 
- -> [false] "Unfortunately you won't be ready in time, \n but you have very extensive tests."
- -> "Yaggaya is satisfied with your tests \n and your approach, \n even though you did not finish in time.\n Your stats change: \n+2 programming \n +2 analytics" as path2
endif
else
 - -> [You write tests until the deadline is reached, \n what you don't finish by then is simply not tested.] if "dice roll + programming - 1 >= 8" then 
- -> [true] "Due to very good programming skills \n you have extensive tests despite the short time."
- -> "Yaggaya is very satisfied with your work. \n Your stats change: \n +2 programming" as path3
else 
- -> [false] "The deadline has been reached \n and you have not managed to test everything extensively."
- -> "Yaggaya is not satisfied with your work, \n you have to revise your tests again \n and exceed the deadline by a few days.\n Your stats change: \n +1 programming \n -2 analytics" as path4
endif
endif

path1 - -> "Tests completed" as nextDecision
path2 - -> nextDecision
path3 - -> nextDecision
path4 - -> nextDecision
nextDecision -[#blue,dotted]-> "There is a company party coming up."
@enduml

PlantUML version 1.2020.20beta13(Unknown compile time)
(GPL source distribution)
Java Runtime: Java(TM) SE Runtime Environment
JVM: Java HotSpot(TM) 64-Bit Server VM
Default Encoding: UTF-8
Language: en
Country: US
--></g></svg>