<?xml version="1.0" encoding="UTF-8" standalone="no"?><svg xmlns="http://www.w3.org/2000/svg" xmlns:xlink="http://www.w3.org/1999/xlink" contentScriptType="application/ecmascript" contentStyleType="text/css" height="431px" preserveAspectRatio="none" style="width:701px;height:431px;" version="1.1" viewBox="0 0 701 431" width="701px" zoomAndPan="magnify"><defs><filter height="300%" id="f1mhqd9j7k4hge" width="300%" x="-1" y="-1"><feGaussianBlur result="blurOut" stdDeviation="2.0"/><feColorMatrix in="blurOut" result="blurOut2" type="matrix" values="0 0 0 0 0 0 0 0 0 0 0 0 0 0 0 0 0 0 .4 0"/><feOffset dx="4.0" dy="4.0" in="blurOut2" result="blurOut3"/><feBlend in="SourceGraphic" in2="blurOut3" mode="normal"/></filter></defs><g><ellipse cx="397" cy="16" fill="#000000" filter="url(#f1mhqd9j7k4hge)" rx="10" ry="10" style="stroke: none; stroke-width: 1.0;"/><rect fill="#FEFECE" filter="url(#f1mhqd9j7k4hge)" height="33.9688" rx="12.5" ry="12.5" style="stroke: #A80036; stroke-width: 1.5;" width="221" x="286.5" y="67"/><text fill="#000000" font-family="sans-serif" font-size="12" lengthAdjust="spacingAndGlyphs" textLength="201" x="296.5" y="88.1387">The project has been completed.</text><rect fill="#FEFECE" filter="url(#f1mhqd9j7k4hge)" height="33.9688" rx="12.5" ry="12.5" style="stroke: #A80036; stroke-width: 1.5;" width="395" x="199.5" y="142"/><text fill="#000000" font-family="sans-serif" font-size="12" lengthAdjust="spacingAndGlyphs" textLength="375" x="209.5" y="163.1387">The best employees are rewarded with a workshop in Hawaii.</text><polygon fill="#FEFECE" filter="url(#f1mhqd9j7k4hge)" points="397,217,409,229,397,241,385,229,397,217" style="stroke: #A80036; stroke-width: 1.5;"/><rect fill="#FEFECE" filter="url(#f1mhqd9j7k4hge)" height="47.9375" rx="12.5" ry="12.5" style="stroke: #A80036; stroke-width: 1.5;" width="220" x="7" y="295"/><text fill="#000000" font-family="sans-serif" font-size="12" lengthAdjust="spacingAndGlyphs" textLength="97" x="66.5" y="316.1387">Congratulations,</text><text fill="#000000" font-family="sans-serif" font-size="12" lengthAdjust="spacingAndGlyphs" textLength="196" x="21" y="330.1074">you are invited to the workshop.</text><rect fill="#FEFECE" filter="url(#f1mhqd9j7k4hge)" height="47.9375" rx="12.5" ry="12.5" style="stroke: #A80036; stroke-width: 1.5;" width="300" x="247" y="295"/><text fill="#000000" font-family="sans-serif" font-size="12" lengthAdjust="spacingAndGlyphs" textLength="276" x="257" y="316.1387">Unfortunately it was not quite enough for you,</text><text fill="#000000" font-family="sans-serif" font-size="12" lengthAdjust="spacingAndGlyphs" textLength="199" x="299.5" y="330.1074">good luck with your next project.</text><rect fill="#FEFECE" filter="url(#f1mhqd9j7k4hge)" height="33.9688" rx="12.5" ry="12.5" style="stroke: #A80036; stroke-width: 1.5;" width="120" x="567" y="302"/><text fill="#000000" font-family="sans-serif" font-size="12" lengthAdjust="spacingAndGlyphs" textLength="100" x="577" y="323.1387">You will be fired.</text><rect fill="#FEFECE" filter="url(#f1mhqd9j7k4hge)" height="33.9688" rx="12.5" ry="12.5" style="stroke: #A80036; stroke-width: 1.5;" width="71" x="361.5" y="384"/><text fill="#000000" font-family="sans-serif" font-size="12" lengthAdjust="spacingAndGlyphs" textLength="51" x="371.5" y="405.1387">THE END</text><!--MD5=[94092d05a9f4bc720f8cdcaec24f7e4b]
link start to The project has been completed.--><path d="M397,26.177 C397,35.269 397,49.527 397,61.485 " fill="none" id="start-to-The project has been completed." style="stroke: #A80036; stroke-width: 1.0;"/><polygon fill="#A80036" points="397,66.791,401,57.791,397,61.791,393,57.791,397,66.791" style="stroke: #A80036; stroke-width: 1.0;"/><!--MD5=[1fbb1192a41b4bcb1e2df217956aad9e]
link The project has been completed. to The best employees are rewarded with a workshop in Hawaii.--><path d="M397,101.201 C397,111.692 397,125.463 397,136.818 " fill="none" id="The project has been completed.-to-The best employees are rewarded with a workshop in Hawaii." style="stroke: #A80036; stroke-width: 1.0;"/><polygon fill="#A80036" points="397,141.844,401,132.844,397,136.844,393,132.844,397,141.844" style="stroke: #A80036; stroke-width: 1.0;"/><!--MD5=[eaec7fe71cc55d6f69159ccb0c090884]
link The best employees are rewarded with a workshop in Hawaii. to #1159340--><path d="M397,176.115 C397,186.916 397,201.082 397,211.883 " fill="none" id="The best employees are rewarded with a workshop in Hawaii.-to-#1159340" style="stroke: #A80036; stroke-width: 1.0;"/><polygon fill="#A80036" points="397,216.885,401,207.885,397,211.885,393,207.885,397,216.885" style="stroke: #A80036; stroke-width: 1.0;"/><text fill="#000000" font-family="sans-serif" font-size="11" lengthAdjust="spacingAndGlyphs" textLength="128" x="249.4" y="209.6709">r = number of all stats</text><!--MD5=[1f51f8877ff3de53d97efbd32baf1a37]
link #1159340 to shop--><path d="M388.62,232.634 C360.14,241.584 264.977,271.493 195.302,293.391 " fill="none" id="#1159340-to-shop" style="stroke: #A80036; stroke-width: 1.0;"/><polygon fill="#A80036" points="190.33,294.953,200.1154,296.0689,195.0997,293.4531,197.7156,288.4374,190.33,294.953" style="stroke: #A80036; stroke-width: 1.0;"/><text fill="#000000" font-family="sans-serif" font-size="11" lengthAdjust="spacingAndGlyphs" textLength="35" x="292" y="272.2104">r &gt; 15</text><!--MD5=[3392b0248eb2d9b6e125b162ed5c5ea3]
link #1159340 to noShop--><path d="M397,241.145 C397,253.3 397,273.227 397,289.744 " fill="none" id="#1159340-to-noShop" style="stroke: #A80036; stroke-width: 1.0;"/><polygon fill="#A80036" points="397,294.748,401,285.748,397,289.748,393,285.748,397,294.748" style="stroke: #A80036; stroke-width: 1.0;"/><text fill="#000000" font-family="sans-serif" font-size="11" lengthAdjust="spacingAndGlyphs" textLength="98" x="398" y="272.2104">r &lt;= 15 &amp;&amp; r &gt; 5</text><!--MD5=[7327b8bcc7af5ae128dd55eee47567de]
link #1159340 to You will be fired.--><path d="M405.849,232.162 C424.092,236.718 467.101,247.965 502,261 C532.373,272.344 565.736,287.713 590.348,299.633 " fill="none" id="#1159340-to-You will be fired." style="stroke: #A80036; stroke-width: 1.0;"/><polygon fill="#A80036" points="595.151,301.969,588.8078,294.4348,590.6548,299.7816,585.308,301.6287,595.151,301.969" style="stroke: #A80036; stroke-width: 1.0;"/><text fill="#000000" font-family="sans-serif" font-size="11" lengthAdjust="spacingAndGlyphs" textLength="37" x="534" y="272.2104">r &lt;= 5</text><!--MD5=[c70fe5e66d97dcfe8c5aefc97907d959]
link You will be fired. to end--><path d="M580.733,336.093 C538.756,350.6934 477.482,372.0062 437.428,385.9381 " fill="none" id="You will be fired.-to-end" style="stroke: #0000FF; stroke-width: 1.0; stroke-dasharray: 1.0,3.0;"/><polygon fill="#0000FF" points="432.651,387.5996,442.4656,388.4205,437.3734,385.9568,439.8371,380.8646,432.651,387.5996" style="stroke: #0000FF; stroke-width: 1.0;"/><!--MD5=[94e39ad464c106a85f2dd11838f7272f]
link shop to end--><path d="M197.612,343.032 C249.62,357.8913 315.049,376.5855 356.464,388.4183 " fill="none" id="shop-to-end" style="stroke: #0000FF; stroke-width: 1.0; stroke-dasharray: 1.0,3.0;"/><polygon fill="#0000FF" points="361.393,389.8266,353.8373,383.5091,356.5852,388.4537,351.6406,391.2016,361.393,389.8266" style="stroke: #0000FF; stroke-width: 1.0;"/><!--MD5=[342cfe3a91331e2b45f974be0d6e8cbc]
link noShop to end--><path d="M397,343.1393 C397,354.2433 397,367.4692 397,378.3699 " fill="none" id="noShop-to-end" style="stroke: #0000FF; stroke-width: 1.0; stroke-dasharray: 1.0,3.0;"/><polygon fill="#0000FF" points="397,383.5149,401,374.5149,397,378.5149,393,374.5149,397,383.5149" style="stroke: #0000FF; stroke-width: 1.0;"/><!--MD5=[8e074c179cbfe7f5b824bf685ec881ba]
@startuml
(*) - -> "The project has been completed."
- -> "The best employees are rewarded with a workshop in Hawaii."
if "r = number of all stats" then
- -> [r > 15] "Congratulations, \n you are invited to the workshop." as shop
else 
- -> [r <= 15 && r > 5] "Unfortunately it was not quite enough for you, \n good luck with your next project." as noShop
else
- -> [r <= 5] "You will be fired."
-[#blue,dotted]-> "THE END" as end
shop -[#blue,dotted]-> end
noShop -[#blue,dotted]-> end
@enduml

PlantUML version 1.2020.20beta13(Unknown compile time)
(GPL source distribution)
Java Runtime: Java(TM) SE Runtime Environment
JVM: Java HotSpot(TM) 64-Bit Server VM
Default Encoding: UTF-8
Language: en
Country: US
--></g></svg>