<?xml version="1.0" encoding="UTF-8" standalone="no"?><svg xmlns="http://www.w3.org/2000/svg" xmlns:xlink="http://www.w3.org/1999/xlink" contentScriptType="application/ecmascript" contentStyleType="text/css" height="104px" preserveAspectRatio="none" style="width:352px;height:104px;" version="1.1" viewBox="0 0 352 104" width="352px" zoomAndPan="magnify"><defs><filter height="300%" id="f1fth1ph7h7axd" width="300%" x="-1" y="-1"><feGaussianBlur result="blurOut" stdDeviation="2.0"/><feColorMatrix in="blurOut" result="blurOut2" type="matrix" values="0 0 0 0 0 0 0 0 0 0 0 0 0 0 0 0 0 0 .4 0"/><feOffset dx="4.0" dy="4.0" in="blurOut2" result="blurOut3"/><feBlend in="SourceGraphic" in2="blurOut3" mode="normal"/></filter></defs><g><!--MD5=[4df85baa272cf1b6a85290b3c0654a39]
cluster End--><rect fill="#FFFFFF" filter="url(#f1fth1ph7h7axd)" height="85" style="stroke: #000000; stroke-width: 1.5;" width="178" x="100.5" y="7"/><text fill="#000000" font-family="sans-serif" font-size="14" font-weight="bold" lengthAdjust="spacingAndGlyphs" textLength="29" x="175" y="21.9951">End</text><ellipse cx="189.5637" cy="59.0127" fill="#FEFECE" filter="url(#f1fth1ph7h7axd)" rx="73.0637" ry="17.0127" style="stroke: #A80036; stroke-width: 1.5;"/><text fill="#000000" font-family="sans-serif" font-size="14" lengthAdjust="spacingAndGlyphs" textLength="114" x="132.5637" y="63.6612">End Application</text><!--MD5=[5d12e840fb55afd9ed7b3559a638e8f7]
entity b--><ellipse cx="43.5" cy="28" fill="#FEFECE" filter="url(#f1fth1ph7h7axd)" rx="8" ry="8" style="stroke: #A80036; stroke-width: 1.5;"/><path d="M43.5,36 L43.5,63 M30.5,44 L56.5,44 M43.5,63 L30.5,78 M43.5,63 L56.5,78 " fill="none" filter="url(#f1fth1ph7h7axd)" style="stroke: #A80036; stroke-width: 1.5;"/><text fill="#000000" font-family="sans-serif" font-size="14" lengthAdjust="spacingAndGlyphs" textLength="75" x="6" y="96.4951">Moderator</text><!--MD5=[d8322213e5f4465576b8bf70cd9bce59]
entity s--><ellipse cx="321.5" cy="28" fill="#FEFECE" filter="url(#f1fth1ph7h7axd)" rx="8" ry="8" style="stroke: #A80036; stroke-width: 1.5;"/><path d="M321.5,36 L321.5,63 M308.5,44 L334.5,44 M321.5,63 L308.5,78 M321.5,63 L334.5,78 " fill="none" filter="url(#f1fth1ph7h7axd)" style="stroke: #A80036; stroke-width: 1.5;"/><text fill="#000000" font-family="sans-serif" font-size="14" lengthAdjust="spacingAndGlyphs" textLength="47" x="298" y="96.4951">Server</text><!--MD5=[beccdc9461f15208a816d7a30ac9ad8f]
link b to a--><path d="M81.1406,59 C91.113,59 101.0854,59 111.058,59 " fill="none" id="b-to-a" style="stroke: #A80036; stroke-width: 1.0;"/><polygon fill="#A80036" points="116.273,59,107.273,55,111.273,59,107.273,63,116.273,59" style="stroke: #A80036; stroke-width: 1.0;"/><!--MD5=[97e51eccafb1f7bf03236bc375f9e7dc]
link a to s--><path d="M262.719,59 C272.626,59 282.533,59 292.439,59 " fill="none" id="a-to-s" style="stroke: #A80036; stroke-width: 1.0;"/><polygon fill="#A80036" points="297.62,59,288.62,55,292.62,59,288.62,63,297.62,59" style="stroke: #A80036; stroke-width: 1.0;"/><!--MD5=[c8b6e87329b5d7bd5d3616ad496d1d4f]
@startuml
rectangle "End" {
    usecase "End Application" as a    
}

actor "Moderator" as b
actor "Server" as s

b -right-> a
a -> s
@enduml

PlantUML version 1.2020.20beta4(Unknown compile time)
(GPL source distribution)
Java Runtime: Java(TM) SE Runtime Environment
JVM: Java HotSpot(TM) 64-Bit Server VM
Default Encoding: UTF-8
Language: en
Country: US
--></g></svg>