<?xml version="1.0" encoding="UTF-8" standalone="no"?><svg xmlns="http://www.w3.org/2000/svg" xmlns:xlink="http://www.w3.org/1999/xlink" contentScriptType="application/ecmascript" contentStyleType="text/css" height="358px" preserveAspectRatio="none" style="width:496px;height:358px;" version="1.1" viewBox="0 0 496 358" width="496px" zoomAndPan="magnify"><defs><filter height="300%" id="figtbprxgab48" width="300%" x="-1" y="-1"><feGaussianBlur result="blurOut" stdDeviation="2.0"/><feColorMatrix in="blurOut" result="blurOut2" type="matrix" values="0 0 0 0 0 0 0 0 0 0 0 0 0 0 0 0 0 0 .4 0"/><feOffset dx="4.0" dy="4.0" in="blurOut2" result="blurOut3"/><feBlend in="SourceGraphic" in2="blurOut3" mode="normal"/></filter></defs><g><rect fill="#B0C4DE" height="346.9766" style="stroke: #A80036; stroke-width: 1.0;" width="267" x="1" y="6"/><text fill="#000000" font-family="sans-serif" font-size="13" font-weight="bold" lengthAdjust="spacingAndGlyphs" textLength="175" x="47" y="19.4951">Network protocol relevance</text><rect fill="#FFFFFF" filter="url(#figtbprxgab48)" height="135.4063" style="stroke: #A80036; stroke-width: 1.0;" width="10" x="56" y="120.9609"/><rect fill="#FFFFFF" filter="url(#figtbprxgab48)" height="135.4063" style="stroke: #A80036; stroke-width: 1.0;" width="10" x="218" y="120.9609"/><rect fill="#FFFFFF" filter="url(#figtbprxgab48)" height="30.3516" style="stroke: #A80036; stroke-width: 1.0;" width="10" x="223" y="143.3125"/><rect fill="#FFFFFF" filter="url(#figtbprxgab48)" height="30.3516" style="stroke: #A80036; stroke-width: 1.0;" width="10" x="417" y="143.3125"/><line style="stroke: #A80036; stroke-width: 1.0; stroke-dasharray: 5.0,5.0;" x1="61" x2="61" y1="110.9609" y2="265.3672"/><line style="stroke: #A80036; stroke-width: 1.0; stroke-dasharray: 5.0,5.0;" x1="223" x2="223" y1="110.9609" y2="265.3672"/><line style="stroke: #A80036; stroke-width: 1.0; stroke-dasharray: 5.0,5.0;" x1="422" x2="422" y1="110.9609" y2="265.3672"/><text fill="#000000" font-family="sans-serif" font-size="14" lengthAdjust="spacingAndGlyphs" textLength="106" x="5" y="107.8848">Moderator-Client</text><ellipse cx="61" cy="36.3516" fill="#FEFECE" filter="url(#figtbprxgab48)" rx="8" ry="8" style="stroke: #A80036; stroke-width: 2.0;"/><path d="M61,44.3516 L61,71.3516 M48,52.3516 L74,52.3516 M61,71.3516 L48,86.3516 M61,71.3516 L74,86.3516 " fill="none" filter="url(#figtbprxgab48)" style="stroke: #A80036; stroke-width: 2.0;"/><text fill="#000000" font-family="sans-serif" font-size="14" lengthAdjust="spacingAndGlyphs" textLength="106" x="5" y="278.9004">Moderator-Client</text><ellipse cx="61" cy="291.9766" fill="#FEFECE" filter="url(#figtbprxgab48)" rx="8" ry="8" style="stroke: #A80036; stroke-width: 2.0;"/><path d="M61,299.9766 L61,326.9766 M48,307.9766 L74,307.9766 M61,326.9766 L48,341.9766 M61,326.9766 L74,341.9766 " fill="none" filter="url(#figtbprxgab48)" style="stroke: #A80036; stroke-width: 2.0;"/><text fill="#000000" font-family="sans-serif" font-size="14" lengthAdjust="spacingAndGlyphs" textLength="76" x="182" y="107.8848">ServerLogic</text><path d="M205,57.3516 C205,47.3516 223,47.3516 223,47.3516 C223,47.3516 241,47.3516 241,57.3516 L241,83.3516 C241,93.3516 223,93.3516 223,93.3516 C223,93.3516 205,93.3516 205,83.3516 L205,57.3516 " fill="#FEFECE" filter="url(#figtbprxgab48)" style="stroke: #000000; stroke-width: 1.5;"/><path d="M205,57.3516 C205,67.3516 223,67.3516 223,67.3516 C223,67.3516 241,67.3516 241,57.3516 " fill="none" style="stroke: #000000; stroke-width: 1.5;"/><text fill="#000000" font-family="sans-serif" font-size="14" lengthAdjust="spacingAndGlyphs" textLength="76" x="182" y="278.9004">ServerLogic</text><path d="M205,291.9766 C205,281.9766 223,281.9766 223,281.9766 C223,281.9766 241,281.9766 241,291.9766 L241,317.9766 C241,327.9766 223,327.9766 223,327.9766 C223,327.9766 205,327.9766 205,317.9766 L205,291.9766 " fill="#FEFECE" filter="url(#figtbprxgab48)" style="stroke: #000000; stroke-width: 1.5;"/><path d="M205,291.9766 C205,301.9766 223,301.9766 223,301.9766 C223,301.9766 241,301.9766 241,291.9766 " fill="none" style="stroke: #000000; stroke-width: 1.5;"/><text fill="#000000" font-family="sans-serif" font-size="14" lengthAdjust="spacingAndGlyphs" textLength="140" x="349" y="107.8848">PlayerAudience-Client</text><ellipse cx="422" cy="36.3516" fill="#FEFECE" filter="url(#figtbprxgab48)" rx="8" ry="8" style="stroke: #A80036; stroke-width: 2.0;"/><path d="M422,44.3516 L422,71.3516 M409,52.3516 L435,52.3516 M422,71.3516 L409,86.3516 M422,71.3516 L435,86.3516 " fill="none" filter="url(#figtbprxgab48)" style="stroke: #A80036; stroke-width: 2.0;"/><text fill="#000000" font-family="sans-serif" font-size="14" lengthAdjust="spacingAndGlyphs" textLength="140" x="349" y="278.9004">PlayerAudience-Client</text><ellipse cx="422" cy="291.9766" fill="#FEFECE" filter="url(#figtbprxgab48)" rx="8" ry="8" style="stroke: #A80036; stroke-width: 2.0;"/><path d="M422,299.9766 L422,326.9766 M409,307.9766 L435,307.9766 M422,326.9766 L409,341.9766 M422,326.9766 L435,341.9766 " fill="none" filter="url(#figtbprxgab48)" style="stroke: #A80036; stroke-width: 2.0;"/><rect fill="#FFFFFF" filter="url(#figtbprxgab48)" height="135.4063" style="stroke: #A80036; stroke-width: 1.0;" width="10" x="56" y="120.9609"/><rect fill="#FFFFFF" filter="url(#figtbprxgab48)" height="135.4063" style="stroke: #A80036; stroke-width: 1.0;" width="10" x="218" y="120.9609"/><rect fill="#FFFFFF" filter="url(#figtbprxgab48)" height="30.3516" style="stroke: #A80036; stroke-width: 1.0;" width="10" x="223" y="143.3125"/><rect fill="#FFFFFF" filter="url(#figtbprxgab48)" height="30.3516" style="stroke: #A80036; stroke-width: 1.0;" width="10" x="417" y="143.3125"/><polygon fill="#A80036" points="211,139.3125,221,143.3125,211,147.3125,215,143.3125" style="stroke: #A80036; stroke-width: 1.0;"/><line style="stroke: #A80036; stroke-width: 1.0;" x1="66" x2="217" y1="143.3125" y2="143.3125"/><text fill="#000000" font-family="sans-serif" font-size="13" lengthAdjust="spacingAndGlyphs" textLength="128" x="73" y="138.4561">RequestCloseSession</text><polygon fill="#A80036" points="410,169.6641,420,173.6641,410,177.6641,414,173.6641" style="stroke: #A80036; stroke-width: 1.0;"/><line style="stroke: #A80036; stroke-width: 1.0;" x1="228" x2="416" y1="173.6641" y2="173.6641"/><text fill="#000000" font-family="sans-serif" font-size="13" lengthAdjust="spacingAndGlyphs" textLength="160" x="235" y="168.8076">Notify about ending session</text><line style="stroke: #A80036; stroke-width: 1.0;" x1="228" x2="270" y1="204.0156" y2="204.0156"/><line style="stroke: #A80036; stroke-width: 1.0;" x1="270" x2="270" y1="204.0156" y2="217.0156"/><line style="stroke: #A80036; stroke-width: 1.0;" x1="229" x2="270" y1="217.0156" y2="217.0156"/><polygon fill="#A80036" points="239,213.0156,229,217.0156,239,221.0156,235,217.0156" style="stroke: #A80036; stroke-width: 1.0;"/><text fill="#000000" font-family="sans-serif" font-size="13" lengthAdjust="spacingAndGlyphs" textLength="58" x="235" y="199.1592">Clear logs</text><polygon fill="#A80036" points="77,243.3672,67,247.3672,77,251.3672,73,247.3672" style="stroke: #A80036; stroke-width: 1.0;"/><line style="stroke: #A80036; stroke-width: 1.0; stroke-dasharray: 2.0,2.0;" x1="71" x2="217" y1="247.3672" y2="247.3672"/><text fill="#000000" font-family="sans-serif" font-size="13" lengthAdjust="spacingAndGlyphs" textLength="87" x="83" y="242.5107">SessionClosed</text><!--MD5=[043505e2828821da2dbb28a9b375c227]
@startuml

box "Network protocol relevance" #LightSteelBlue
actor "Moderator-Client" as m order 1
database "ServerLogic" as s order 2
end box
actor "PlayerAudience-Client" as p order 3



activate m
activate s

m -> s: RequestCloseSession
activate s
activate p
s -> p: Notify about ending session
deactivate s
deactivate p
s -> s: Clear logs
s - -> m: SessionClosed


@enduml

PlantUML version 1.2020.18(Wed Sep 30 21:40:44 CEST 2020)
(GPL source distribution)
Java Runtime: OpenJDK Runtime Environment
JVM: OpenJDK 64-Bit Server VM
Default Encoding: Cp1252
Language: de
Country: DE
--></g></svg>