<?xml version="1.0" encoding="UTF-8" standalone="no"?><svg xmlns="http://www.w3.org/2000/svg" xmlns:xlink="http://www.w3.org/1999/xlink" contentScriptType="application/ecmascript" contentStyleType="text/css" height="861px" preserveAspectRatio="none" style="width:586px;height:861px;" version="1.1" viewBox="0 0 586 861" width="586px" zoomAndPan="magnify"><defs><filter height="300%" id="f1agmqu65ckvsm" width="300%" x="-1" y="-1"><feGaussianBlur result="blurOut" stdDeviation="2.0"/><feColorMatrix in="blurOut" result="blurOut2" type="matrix" values="0 0 0 0 0 0 0 0 0 0 0 0 0 0 0 0 0 0 .4 0"/><feOffset dx="4.0" dy="4.0" in="blurOut2" result="blurOut3"/><feBlend in="SourceGraphic" in2="blurOut3" mode="normal"/></filter></defs><g><rect fill="#B0C4DE" height="849.8906" style="stroke: #A80036; stroke-width: 1.0;" width="314" x="36" y="6"/><text fill="#000000" font-family="sans-serif" font-size="13" font-weight="bold" lengthAdjust="spacingAndGlyphs" textLength="175" x="105.5" y="19.4951">Network protocol relevance</text><rect fill="#FFFFFF" filter="url(#f1agmqu65ckvsm)" height="638.3203" style="stroke: #A80036; stroke-width: 1.0;" width="10" x="91" y="120.9609"/><rect fill="#FFFFFF" filter="url(#f1agmqu65ckvsm)" height="638.3203" style="stroke: #A80036; stroke-width: 1.0;" width="10" x="300" y="120.9609"/><rect fill="#FFFFFF" filter="url(#f1agmqu65ckvsm)" height="30.3516" style="stroke: #A80036; stroke-width: 1.0;" width="10" x="305" y="336.0938"/><rect fill="#FFFFFF" filter="url(#f1agmqu65ckvsm)" height="30" style="stroke: #A80036; stroke-width: 1.0;" width="10" x="305" y="534.2031"/><rect fill="#FFFFFF" filter="url(#f1agmqu65ckvsm)" height="30.3516" style="stroke: #A80036; stroke-width: 1.0;" width="10" x="464" y="336.0938"/><rect fill="#FFFFFF" filter="url(#f1agmqu65ckvsm)" height="30" style="stroke: #A80036; stroke-width: 1.0;" width="10" x="464" y="534.2031"/><rect fill="#FFFFFF" filter="url(#f1agmqu65ckvsm)" height="592.9688" style="stroke: #000000; stroke-width: 2.0;" width="562" x="10" y="158.3125"/><rect fill="#FFFFFF" filter="url(#f1agmqu65ckvsm)" height="186.7813" style="stroke: #000000; stroke-width: 2.0;" width="542" x="20" y="257.3672"/><rect fill="#FFFFFF" filter="url(#f1agmqu65ckvsm)" height="79.0547" style="stroke: #000000; stroke-width: 2.0;" width="298" x="254" y="295.3906"/><rect fill="#FFFFFF" filter="url(#f1agmqu65ckvsm)" height="48.7031" style="stroke: #000000; stroke-width: 2.0;" width="326" x="30" y="388.4453"/><rect fill="#FFFFFF" height="89.5391" style="stroke: none; stroke-width: 1.0;" width="562" x="10" y="572.2031"/><rect fill="#FFFFFF" height="89.5391" style="stroke: none; stroke-width: 1.0;" width="562" x="10" y="661.7422"/><line style="stroke: #A80036; stroke-width: 1.0; stroke-dasharray: 5.0,5.0;" x1="96" x2="96" y1="110.9609" y2="768.2813"/><line style="stroke: #A80036; stroke-width: 1.0; stroke-dasharray: 5.0,5.0;" x1="305" x2="305" y1="110.9609" y2="768.2813"/><line style="stroke: #A80036; stroke-width: 1.0; stroke-dasharray: 5.0,5.0;" x1="469" x2="469" y1="110.9609" y2="768.2813"/><text fill="#000000" font-family="sans-serif" font-size="14" lengthAdjust="spacingAndGlyphs" textLength="106" x="40" y="107.8848">Moderator-Client</text><ellipse cx="96" cy="36.3516" fill="#FEFECE" filter="url(#f1agmqu65ckvsm)" rx="8" ry="8" style="stroke: #A80036; stroke-width: 2.0;"/><path d="M96,44.3516 L96,71.3516 M83,52.3516 L109,52.3516 M96,71.3516 L83,86.3516 M96,71.3516 L109,86.3516 " fill="none" filter="url(#f1agmqu65ckvsm)" style="stroke: #A80036; stroke-width: 2.0;"/><text fill="#000000" font-family="sans-serif" font-size="14" lengthAdjust="spacingAndGlyphs" textLength="106" x="40" y="781.8145">Moderator-Client</text><ellipse cx="96" cy="794.8906" fill="#FEFECE" filter="url(#f1agmqu65ckvsm)" rx="8" ry="8" style="stroke: #A80036; stroke-width: 2.0;"/><path d="M96,802.8906 L96,829.8906 M83,810.8906 L109,810.8906 M96,829.8906 L83,844.8906 M96,829.8906 L109,844.8906 " fill="none" filter="url(#f1agmqu65ckvsm)" style="stroke: #A80036; stroke-width: 2.0;"/><text fill="#000000" font-family="sans-serif" font-size="14" lengthAdjust="spacingAndGlyphs" textLength="76" x="264" y="107.8848">ServerLogic</text><path d="M287,57.3516 C287,47.3516 305,47.3516 305,47.3516 C305,47.3516 323,47.3516 323,57.3516 L323,83.3516 C323,93.3516 305,93.3516 305,93.3516 C305,93.3516 287,93.3516 287,83.3516 L287,57.3516 " fill="#FEFECE" filter="url(#f1agmqu65ckvsm)" style="stroke: #000000; stroke-width: 1.5;"/><path d="M287,57.3516 C287,67.3516 305,67.3516 305,67.3516 C305,67.3516 323,67.3516 323,57.3516 " fill="none" style="stroke: #000000; stroke-width: 1.5;"/><text fill="#000000" font-family="sans-serif" font-size="14" lengthAdjust="spacingAndGlyphs" textLength="76" x="264" y="781.8145">ServerLogic</text><path d="M287,794.8906 C287,784.8906 305,784.8906 305,784.8906 C305,784.8906 323,784.8906 323,794.8906 L323,820.8906 C323,830.8906 305,830.8906 305,830.8906 C305,830.8906 287,830.8906 287,820.8906 L287,794.8906 " fill="#FEFECE" filter="url(#f1agmqu65ckvsm)" style="stroke: #000000; stroke-width: 1.5;"/><path d="M287,794.8906 C287,804.8906 305,804.8906 305,804.8906 C305,804.8906 323,804.8906 323,794.8906 " fill="none" style="stroke: #000000; stroke-width: 1.5;"/><text fill="#000000" font-family="sans-serif" font-size="14" lengthAdjust="spacingAndGlyphs" textLength="140" x="396" y="107.8848">PlayerAudience-Client</text><ellipse cx="469" cy="36.3516" fill="#FEFECE" filter="url(#f1agmqu65ckvsm)" rx="8" ry="8" style="stroke: #A80036; stroke-width: 2.0;"/><path d="M469,44.3516 L469,71.3516 M456,52.3516 L482,52.3516 M469,71.3516 L456,86.3516 M469,71.3516 L482,86.3516 " fill="none" filter="url(#f1agmqu65ckvsm)" style="stroke: #A80036; stroke-width: 2.0;"/><text fill="#000000" font-family="sans-serif" font-size="14" lengthAdjust="spacingAndGlyphs" textLength="140" x="396" y="781.8145">PlayerAudience-Client</text><ellipse cx="469" cy="794.8906" fill="#FEFECE" filter="url(#f1agmqu65ckvsm)" rx="8" ry="8" style="stroke: #A80036; stroke-width: 2.0;"/><path d="M469,802.8906 L469,829.8906 M456,810.8906 L482,810.8906 M469,829.8906 L456,844.8906 M469,829.8906 L482,844.8906 " fill="none" filter="url(#f1agmqu65ckvsm)" style="stroke: #A80036; stroke-width: 2.0;"/><rect fill="#FFFFFF" filter="url(#f1agmqu65ckvsm)" height="638.3203" style="stroke: #A80036; stroke-width: 1.0;" width="10" x="91" y="120.9609"/><rect fill="#FFFFFF" filter="url(#f1agmqu65ckvsm)" height="638.3203" style="stroke: #A80036; stroke-width: 1.0;" width="10" x="300" y="120.9609"/><rect fill="#FFFFFF" filter="url(#f1agmqu65ckvsm)" height="30.3516" style="stroke: #A80036; stroke-width: 1.0;" width="10" x="305" y="336.0938"/><rect fill="#FFFFFF" filter="url(#f1agmqu65ckvsm)" height="30" style="stroke: #A80036; stroke-width: 1.0;" width="10" x="305" y="534.2031"/><rect fill="#FFFFFF" filter="url(#f1agmqu65ckvsm)" height="30.3516" style="stroke: #A80036; stroke-width: 1.0;" width="10" x="464" y="336.0938"/><rect fill="#FFFFFF" filter="url(#f1agmqu65ckvsm)" height="30" style="stroke: #A80036; stroke-width: 1.0;" width="10" x="464" y="534.2031"/><polygon fill="#A80036" points="288,139.3125,298,143.3125,288,147.3125,292,143.3125" style="stroke: #A80036; stroke-width: 1.0;"/><line style="stroke: #A80036; stroke-width: 1.0;" x1="101" x2="294" y1="143.3125" y2="143.3125"/><text fill="#000000" font-family="sans-serif" font-size="13" lengthAdjust="spacingAndGlyphs" textLength="126" x="108" y="138.4561">RequestOpenSession</text><path d="M10,158.3125 L71,158.3125 L71,166.3125 L61,176.3125 L10,176.3125 L10,158.3125 " fill="#EEEEEE" style="stroke: #000000; stroke-width: 1.0;"/><rect fill="none" height="592.9688" style="stroke: #000000; stroke-width: 2.0;" width="562" x="10" y="158.3125"/><text fill="#000000" font-family="sans-serif" font-size="13" font-weight="bold" lengthAdjust="spacingAndGlyphs" textLength="16" x="25" y="172.8076">alt</text><line style="stroke: #A80036; stroke-width: 1.0;" x1="310" x2="352" y1="199.0156" y2="199.0156"/><line style="stroke: #A80036; stroke-width: 1.0;" x1="352" x2="352" y1="199.0156" y2="212.0156"/><line style="stroke: #A80036; stroke-width: 1.0;" x1="311" x2="352" y1="212.0156" y2="212.0156"/><polygon fill="#A80036" points="321,208.0156,311,212.0156,321,216.0156,317,212.0156" style="stroke: #A80036; stroke-width: 1.0;"/><text fill="#000000" font-family="sans-serif" font-size="13" lengthAdjust="spacingAndGlyphs" textLength="58" x="317" y="194.1592">Clear logs</text><polygon fill="#A80036" points="112,238.3672,102,242.3672,112,246.3672,108,242.3672" style="stroke: #A80036; stroke-width: 1.0;"/><line style="stroke: #A80036; stroke-width: 1.0; stroke-dasharray: 2.0,2.0;" x1="106" x2="299" y1="242.3672" y2="242.3672"/><text fill="#000000" font-family="sans-serif" font-size="13" lengthAdjust="spacingAndGlyphs" textLength="92" x="118" y="237.5107">SessionOpened</text><path d="M20,257.3672 L93,257.3672 L93,265.3672 L83,275.3672 L20,275.3672 L20,257.3672 " fill="#EEEEEE" style="stroke: #000000; stroke-width: 1.0;"/><rect fill="none" height="186.7813" style="stroke: #000000; stroke-width: 2.0;" width="542" x="20" y="257.3672"/><text fill="#000000" font-family="sans-serif" font-size="13" font-weight="bold" lengthAdjust="spacingAndGlyphs" textLength="28" x="35" y="271.8623">loop</text><text fill="#000000" font-family="sans-serif" font-size="11" font-weight="bold" lengthAdjust="spacingAndGlyphs" textLength="68" x="108" y="270.7861">[while game</text><text fill="#000000" font-family="sans-serif" font-size="11" font-weight="bold" lengthAdjust="spacingAndGlyphs" textLength="88" x="111" y="284.6221">not started yet.]</text><path d="M254,295.3906 L319,295.3906 L319,303.3906 L309,313.3906 L254,313.3906 L254,295.3906 " fill="#EEEEEE" style="stroke: #000000; stroke-width: 1.0;"/><rect fill="none" height="79.0547" style="stroke: #000000; stroke-width: 2.0;" width="298" x="254" y="295.3906"/><text fill="#000000" font-family="sans-serif" font-size="13" font-weight="bold" lengthAdjust="spacingAndGlyphs" textLength="20" x="269" y="309.8857">opt</text><polygon fill="#A80036" points="326,332.0938,316,336.0938,326,340.0938,322,336.0938" style="stroke: #A80036; stroke-width: 1.0;"/><line style="stroke: #A80036; stroke-width: 1.0;" x1="320" x2="463" y1="336.0938" y2="336.0938"/><text fill="#000000" font-family="sans-serif" font-size="13" lengthAdjust="spacingAndGlyphs" textLength="112" x="332" y="331.2373">Connect to session</text><polygon fill="#A80036" points="457,362.4453,467,366.4453,457,370.4453,461,366.4453" style="stroke: #A80036; stroke-width: 1.0;"/><line style="stroke: #A80036; stroke-width: 1.0; stroke-dasharray: 2.0,2.0;" x1="310" x2="463" y1="366.4453" y2="366.4453"/><text fill="#000000" font-family="sans-serif" font-size="13" lengthAdjust="spacingAndGlyphs" textLength="111" x="317" y="361.5889">Confirm connection</text><path d="M30,388.4453 L95,388.4453 L95,396.4453 L85,406.4453 L30,406.4453 L30,388.4453 " fill="#EEEEEE" style="stroke: #000000; stroke-width: 1.0;"/><rect fill="none" height="48.7031" style="stroke: #000000; stroke-width: 2.0;" width="326" x="30" y="388.4453"/><text fill="#000000" font-family="sans-serif" font-size="13" font-weight="bold" lengthAdjust="spacingAndGlyphs" textLength="20" x="45" y="402.9404">opt</text><polygon fill="#A80036" points="112,425.1484,102,429.1484,112,433.1484,108,429.1484" style="stroke: #A80036; stroke-width: 1.0;"/><line style="stroke: #A80036; stroke-width: 1.0;" x1="106" x2="299" y1="429.1484" y2="429.1484"/><text fill="#000000" font-family="sans-serif" font-size="13" lengthAdjust="spacingAndGlyphs" textLength="92" x="118" y="424.292">AudienceStatus</text><polygon fill="#A80036" points="288,469.5,298,473.5,288,477.5,292,473.5" style="stroke: #A80036; stroke-width: 1.0;"/><line style="stroke: #A80036; stroke-width: 1.0;" x1="101" x2="294" y1="473.5" y2="473.5"/><text fill="#000000" font-family="sans-serif" font-size="13" lengthAdjust="spacingAndGlyphs" textLength="111" x="108" y="468.6436">RequestGameStart</text><polygon fill="#A80036" points="112,499.8516,102,503.8516,112,507.8516,108,503.8516" style="stroke: #A80036; stroke-width: 1.0;"/><line style="stroke: #A80036; stroke-width: 1.0; stroke-dasharray: 2.0,2.0;" x1="106" x2="299" y1="503.8516" y2="503.8516"/><text fill="#000000" font-family="sans-serif" font-size="13" lengthAdjust="spacingAndGlyphs" textLength="77" x="118" y="498.9951">GameStarted</text><polygon fill="#A80036" points="452,530.2031,462,534.2031,452,538.2031,456,534.2031" style="stroke: #A80036; stroke-width: 1.0;"/><line style="stroke: #A80036; stroke-width: 1.0;" x1="315" x2="458" y1="534.2031" y2="534.2031"/><text fill="#000000" font-family="sans-serif" font-size="13" lengthAdjust="spacingAndGlyphs" textLength="135" x="322" y="529.3467">Notify about game start</text><line style="stroke: #000000; stroke-width: 1.0; stroke-dasharray: 2.0,2.0;" x1="10" x2="572" y1="573.2031" y2="573.2031"/><text fill="#000000" font-family="sans-serif" font-size="11" font-weight="bold" lengthAdjust="spacingAndGlyphs" textLength="135" x="15" y="584.6221">[error: WrongPassword]</text><polygon fill="#A80036" points="112,606.3906,102,610.3906,112,614.3906,108,610.3906" style="stroke: #A80036; stroke-width: 1.0;"/><line style="stroke: #A80036; stroke-width: 1.0; stroke-dasharray: 2.0,2.0;" x1="106" x2="299" y1="610.3906" y2="610.3906"/><text fill="#000000" font-family="sans-serif" font-size="13" lengthAdjust="spacingAndGlyphs" textLength="143" x="118" y="605.5342">Error &lt;WrongPassword&gt;</text><line style="stroke: #A80036; stroke-width: 1.0;" x1="101" x2="143" y1="640.7422" y2="640.7422"/><line style="stroke: #A80036; stroke-width: 1.0;" x1="143" x2="143" y1="640.7422" y2="653.7422"/><line style="stroke: #A80036; stroke-width: 1.0;" x1="102" x2="143" y1="653.7422" y2="653.7422"/><polygon fill="#A80036" points="112,649.7422,102,653.7422,112,657.7422,108,653.7422" style="stroke: #A80036; stroke-width: 1.0;"/><text fill="#000000" font-family="sans-serif" font-size="13" lengthAdjust="spacingAndGlyphs" textLength="99" x="108" y="635.8857">Notify about error</text><line style="stroke: #000000; stroke-width: 1.0; stroke-dasharray: 2.0,2.0;" x1="10" x2="572" y1="662.7422" y2="662.7422"/><text fill="#000000" font-family="sans-serif" font-size="11" font-weight="bold" lengthAdjust="spacingAndGlyphs" textLength="160" x="15" y="674.1611">[error: SessionDoesNotExist]</text><polygon fill="#A80036" points="112,695.9297,102,699.9297,112,703.9297,108,699.9297" style="stroke: #A80036; stroke-width: 1.0;"/><line style="stroke: #A80036; stroke-width: 1.0; stroke-dasharray: 2.0,2.0;" x1="106" x2="299" y1="699.9297" y2="699.9297"/><text fill="#000000" font-family="sans-serif" font-size="13" lengthAdjust="spacingAndGlyphs" textLength="175" x="118" y="695.0732">Error &lt;SessionDoesNotExist&gt;</text><line style="stroke: #A80036; stroke-width: 1.0;" x1="101" x2="143" y1="730.2813" y2="730.2813"/><line style="stroke: #A80036; stroke-width: 1.0;" x1="143" x2="143" y1="730.2813" y2="743.2813"/><line style="stroke: #A80036; stroke-width: 1.0;" x1="102" x2="143" y1="743.2813" y2="743.2813"/><polygon fill="#A80036" points="112,739.2813,102,743.2813,112,747.2813,108,743.2813" style="stroke: #A80036; stroke-width: 1.0;"/><text fill="#000000" font-family="sans-serif" font-size="13" lengthAdjust="spacingAndGlyphs" textLength="99" x="108" y="725.4248">Notify about error</text><!--MD5=[b75d694dce0d3c3d4e6793c31ae654c4]
@startuml

box "Network protocol relevance" #LightSteelBlue
actor "Moderator-Client" as m order 1
database "ServerLogic" as s order 2
end box
actor "PlayerAudience-Client" as p order 3



activate m
activate s

m -> s: RequestOpenSession

alt 
    s -> s: Clear logs
    s - -> m: SessionOpened
        loop while game \n not started yet.
            opt
                p -> s: Connect to session
                activate s
                activate p
                s - -> p: Confirm connection
                deactivate s
                deactivate p
            end
            opt 
                s -> m: AudienceStatus
            end
        end
    m -> s: RequestGameStart
    s - -> m: GameStarted
    s -> p: Notify about game start
    activate s
    activate p
    deactivate s
    deactivate p
else error: WrongPassword
    s - -> m: Error <WrongPassword>
    m -> m: Notify about error
else error: SessionDoesNotExist
    s - -> m: Error <SessionDoesNotExist>
    m -> m: Notify about error
end


@enduml

PlantUML version 1.2020.18(Wed Sep 30 21:40:44 CEST 2020)
(GPL source distribution)
Java Runtime: OpenJDK Runtime Environment
JVM: OpenJDK 64-Bit Server VM
Default Encoding: Cp1252
Language: de
Country: DE
--></g></svg>