<?xml version="1.0" encoding="UTF-8" standalone="no"?><svg xmlns="http://www.w3.org/2000/svg" xmlns:xlink="http://www.w3.org/1999/xlink" contentScriptType="application/ecmascript" contentStyleType="text/css" height="711px" preserveAspectRatio="none" style="width:1671px;height:711px;" version="1.1" viewBox="0 0 1671 711" width="1671px" zoomAndPan="magnify"><defs><filter height="300%" id="fb5wo0tywl3y3" width="300%" x="-1" y="-1"><feGaussianBlur result="blurOut" stdDeviation="2.0"/><feColorMatrix in="blurOut" result="blurOut2" type="matrix" values="0 0 0 0 0 0 0 0 0 0 0 0 0 0 0 0 0 0 .4 0"/><feOffset dx="4.0" dy="4.0" in="blurOut2" result="blurOut3"/><feBlend in="SourceGraphic" in2="blurOut3" mode="normal"/></filter></defs><g><!--MD5=[a8973b51fb403d164ccd98ec50a39132]
cluster PlayerAudience-Client--><rect fill="#FFFFFF" filter="url(#fb5wo0tywl3y3)" height="692" style="stroke:#000000;stroke-width:1.5;" width="1652" x="7" y="7"/><text fill="#000000" font-family="sans-serif" font-size="14" font-weight="bold" lengthAdjust="spacing" textLength="155" x="755.5" y="23.5332">PlayerAudience-Client</text><!--MD5=[8330fea1ec797f0525a4843a88f154d2]
class be--><rect codeLine="6" fill="#FEFECE" filter="url(#fb5wo0tywl3y3)" height="449.2422" id="be" style="stroke:#A80036;stroke-width:1.5;" width="584" x="404" y="234"/><ellipse cx="660.25" cy="250" fill="#ADD1B2" rx="11" ry="11" style="stroke:#A80036;stroke-width:1.0;"/><path d="M663.0156,245.875 Q663.1719,245.6563 663.3594,245.5469 Q663.5469,245.4375 663.7656,245.4375 Q664.1406,245.4375 664.375,245.7031 Q664.6094,245.9531 664.6094,246.5625 L664.6094,248.0156 Q664.6094,248.625 664.375,248.8906 Q664.1406,249.1563 663.7656,249.1563 Q663.4219,249.1563 663.2188,248.9531 Q663.0156,248.7656 662.9063,248.25 Q662.8594,247.8906 662.6719,247.7031 Q662.3438,247.3281 661.7344,247.1094 Q661.125,246.8906 660.5,246.8906 Q659.7344,246.8906 659.0938,247.2188 Q658.4688,247.5469 657.9688,248.2969 Q657.4844,249.0469 657.4844,250.0781 L657.4844,251.1719 Q657.4844,252.4063 658.375,253.2344 Q659.2656,254.0469 660.8594,254.0469 Q661.7969,254.0469 662.4531,253.7969 Q662.8438,253.6406 663.2656,253.2031 Q663.5313,252.9375 663.6719,252.8594 Q663.8281,252.7813 664.0313,252.7813 Q664.3594,252.7813 664.6094,253.0469 Q664.875,253.2969 664.875,253.6406 Q664.875,253.9844 664.5313,254.3906 Q664.0313,254.9688 663.2344,255.2969 Q662.1563,255.75 660.8594,255.75 Q659.3438,255.75 658.1406,255.125 Q657.1563,254.625 656.4688,253.5625 Q655.7813,252.4844 655.7813,251.2031 L655.7813,250.0469 Q655.7813,248.7188 656.3906,247.5781 Q657.0156,246.4219 658.1094,245.8125 Q659.2031,245.1875 660.4375,245.1875 Q661.1719,245.1875 661.8125,245.3594 Q662.4688,245.5156 663.0156,245.875 Z " fill="#000000"/><text fill="#000000" font-family="sans-serif" font-size="12" lengthAdjust="spacing" textLength="63" x="680.75" y="254.9102">PABackend</text><line style="stroke:#A80036;stroke-width:1.5;" x1="405" x2="987" y1="266" y2="266"/><text fill="#000000" font-family="sans-serif" font-size="11" lengthAdjust="spacing" textLength="55" x="410" y="281.4189">-host: IHost</text><text fill="#000000" font-family="sans-serif" font-size="11" lengthAdjust="spacing" text-decoration="underline" textLength="193" x="410" y="295.2549">-_hubContext: IHubContext&lt;ServerHub&gt;</text><text fill="#000000" font-family="sans-serif" font-size="11" lengthAdjust="spacing" textLength="116" x="410" y="309.0908">-_serverThread: Thread</text><text fill="#000000" font-family="sans-serif" font-size="11" lengthAdjust="spacing" text-decoration="underline" textLength="69" x="410" y="322.9268">-isDebug: bool</text><text fill="#000000" font-family="sans-serif" font-size="11" lengthAdjust="spacing" text-decoration="underline" textLength="89" x="410" y="336.7627">-_dockerUrl: string</text><text fill="#000000" font-family="sans-serif" font-size="11" lengthAdjust="spacing" text-decoration="underline" textLength="274" x="410" y="350.5986">«Property» +PAVotingResults: VotingResults «+get,-set»</text><text fill="#000000" font-family="sans-serif" font-size="11" lengthAdjust="spacing" text-decoration="underline" textLength="349" x="410" y="364.4346">«Property» +ConnectionList: Dictionary&lt;string, List&lt;string&gt;&gt; «+get, -set»</text><text fill="#000000" font-family="sans-serif" font-size="11" lengthAdjust="spacing" text-decoration="underline" textLength="423" x="410" y="378.2705">«Property» -CurrentPrompt: Dictionary&lt;string, KeyValuePair&lt;Guid, string&gt;&gt; «+get, +set»</text><text fill="#000000" font-family="sans-serif" font-size="11" lengthAdjust="spacing" text-decoration="underline" textLength="96" x="410" y="392.1064">«Property» -Port: int</text><line style="stroke:#A80036;stroke-width:1.5;" x1="405" x2="987" y1="398.5234" y2="398.5234"/><text fill="#000000" font-family="sans-serif" font-size="11" lengthAdjust="spacing" textLength="217" x="410" y="413.9424">+PABackend(port: int, dockerUrl: string): void</text><text fill="#000000" font-family="sans-serif" font-size="11" lengthAdjust="spacing" text-decoration="underline" textLength="199" x="410" y="427.7783">+DebugPABackend(port: int): PABackend</text><text fill="#000000" font-family="sans-serif" font-size="11" lengthAdjust="spacing" textLength="134" x="410" y="441.6143">+GetSessionKeys(): string[]</text><text fill="#000000" font-family="sans-serif" font-size="11" lengthAdjust="spacing" textLength="213" x="410" y="455.4502">+StartNewSession(sessionkey: string): void</text><text fill="#000000" font-family="sans-serif" font-size="11" lengthAdjust="spacing" textLength="527" x="410" y="469.2861">+DebugCreatePageContent(prompt: KeyValuePair&lt;Guid, string&gt;, options: KeyValuePair&lt;Guid, string&gt;[]): string</text><text fill="#000000" font-family="sans-serif" font-size="11" lengthAdjust="spacing" textLength="562" x="410" y="483.1221">+StartNewVote(sessionkey: string, prompt: KeyValuePair&lt;Guid, string&gt;, options: KeyValuePair&lt;Guid, string&gt;[]): Task</text><text fill="#000000" font-family="sans-serif" font-size="11" lengthAdjust="spacing" text-decoration="underline" textLength="256" x="410" y="496.958">+CountNewVote(sessionkey: string, option: Guid): int</text><text fill="#000000" font-family="sans-serif" font-size="11" lengthAdjust="spacing" textLength="572" x="410" y="510.7939">+EndSession(sessionkey: string): Dictionary&lt;KeyValuePair&lt;Guid, string&gt;, Dictionary&lt;KeyValuePair&lt;Guid, string&gt;, int&gt;&gt;</text><text fill="#000000" font-family="sans-serif" font-size="11" lengthAdjust="spacing" text-decoration="underline" textLength="293" x="410" y="524.6299">+AddConnection(sessionkey: string, connectionId: string): int</text><text fill="#000000" font-family="sans-serif" font-size="11" lengthAdjust="spacing" text-decoration="underline" textLength="218" x="410" y="538.4658">+RemoveConnection(connectionId: string): int</text><text fill="#000000" font-family="sans-serif" font-size="11" lengthAdjust="spacing" textLength="572" x="410" y="552.3018">+GetVotingResult(sessionkey: string, prompt: KeyValuePair&lt;Guid, string&gt;): Dictionary&lt;KeyValuePair&lt;Guid, string&gt;, int&gt;</text><text fill="#000000" font-family="sans-serif" font-size="11" lengthAdjust="spacing" textLength="95" x="410" y="566.1377">+StopServer(): void</text><text fill="#000000" font-family="sans-serif" font-size="11" lengthAdjust="spacing" text-decoration="underline" textLength="123" x="410" y="579.9736">+Main(args: string[]): void</text><text fill="#000000" font-family="sans-serif" font-size="11" lengthAdjust="spacing" text-decoration="underline" textLength="204" x="410" y="593.8096">-IsSessionActive(sessionkey: string): bool</text><text fill="#000000" font-family="sans-serif" font-size="11" lengthAdjust="spacing" text-decoration="underline" textLength="208" x="410" y="607.6455">-AddNewSession(sessionkey: string): void</text><text fill="#000000" font-family="sans-serif" font-size="11" lengthAdjust="spacing" textLength="494" x="410" y="621.4814">-CreatePageContent(prompt: KeyValuePair&lt;Guid, string&gt;, options: KeyValuePair&lt;Guid, string&gt;[]): string</text><text fill="#000000" font-family="sans-serif" font-size="11" lengthAdjust="spacing" text-decoration="underline" textLength="204" x="410" y="635.3174">-RemoveSession(sessionkey: string): void</text><text fill="#000000" font-family="sans-serif" font-size="11" lengthAdjust="spacing" textLength="200" x="410" y="649.1533">-SendPushClear(sessionkey: string): void</text><text fill="#000000" font-family="sans-serif" font-size="11" lengthAdjust="spacing" textLength="94" x="410" y="662.9893">-StartServer(): void</text><text fill="#000000" font-family="sans-serif" font-size="11" lengthAdjust="spacing" text-decoration="underline" textLength="195" x="410" y="676.8252">-CreateHostBuilder(int port): IHostBuilder</text><!--MD5=[35b9f42750eec1f6940b8d234eb070fa]
class beet--><rect codeLine="43" fill="#F5DEB3" filter="url(#fb5wo0tywl3y3)" height="131.0156" id="beet" style="stroke:#A80036;stroke-width:1.5;" width="148" x="622" y="43"/><ellipse cx="637" cy="59" fill="#EB937F" rx="11" ry="11" style="stroke:#A80036;stroke-width:1.0;"/><path d="M635.8594,59.7969 L635.8594,62.2969 L640.1875,62.2969 L640.1875,61.375 Q640.1875,60.7656 640.4219,60.5 Q640.6719,60.2344 641.0469,60.2344 Q641.4219,60.2344 641.6563,60.5 Q641.8906,60.7656 641.8906,61.375 L641.8906,64 L633.8906,64 Q633.2656,64 633,63.7656 Q632.75,63.5313 632.75,63.1406 Q632.75,62.7656 633.0156,62.5313 Q633.2813,62.2969 633.8906,62.2969 L634.1563,62.2969 L634.1563,55.6406 L633.8906,55.6406 Q633.2656,55.6406 633,55.4063 Q632.75,55.1719 632.75,54.7813 Q632.75,54.4063 633,54.1719 Q633.2656,53.9375 633.8906,53.9375 L641.5156,53.9375 L641.5156,56.5313 Q641.5156,57.1406 641.2813,57.4063 Q641.0625,57.6563 640.6719,57.6563 Q640.2969,57.6563 640.0625,57.4063 Q639.8281,57.1406 639.8281,56.5313 L639.8281,55.6406 L635.8594,55.6406 L635.8594,58.0938 L637.3438,58.0938 Q637.3438,57.4375 637.4688,57.25 Q637.7344,56.8438 638.2031,56.8438 Q638.5781,56.8438 638.8125,57.1094 Q639.0469,57.3594 639.0469,57.9688 L639.0469,59.9375 Q639.0469,60.4844 638.9219,60.6719 Q638.6563,61.0625 638.2031,61.0625 Q637.7344,61.0625 637.4688,60.6563 Q637.3438,60.4688 637.3438,59.7969 L635.8594,59.7969 Z " fill="#000000"/><text fill="#000000" font-family="sans-serif" font-size="12" lengthAdjust="spacing" textLength="116" x="651" y="63.9102">PABackendErrorType</text><line style="stroke:#A80036;stroke-width:1.5;" x1="623" x2="769" y1="75" y2="75"/><line style="stroke:#A80036;stroke-width:1.0;stroke-dasharray:1.0,2.0;" x1="623" x2="769" y1="83" y2="83"/><text fill="#000000" font-family="sans-serif" font-size="11" lengthAdjust="spacing" textLength="37" x="628" y="98.4189">NoError</text><text fill="#000000" font-family="sans-serif" font-size="11" lengthAdjust="spacing" textLength="97" x="628" y="112.2549">NullSessionkeyError</text><text fill="#000000" font-family="sans-serif" font-size="11" lengthAdjust="spacing" textLength="101" x="628" y="126.0908">InvalidArgumentError</text><text fill="#000000" font-family="sans-serif" font-size="11" lengthAdjust="spacing" textLength="110" x="628" y="139.9268">InvalidSessionkeyError</text><text fill="#000000" font-family="sans-serif" font-size="11" lengthAdjust="spacing" textLength="116" x="628" y="153.7627">InvalidConnectionIdError</text><text fill="#000000" font-family="sans-serif" font-size="11" lengthAdjust="spacing" textLength="103" x="628" y="167.5986">NullConnectionIdError</text><!--MD5=[cbf35f9139f05a59637effc1dfbe7dc8]
class snfe--><rect codeLine="53" fill="#FEFECE" filter="url(#fb5wo0tywl3y3)" height="89.5078" id="snfe" style="stroke:#A80036;stroke-width:1.5;" width="344" x="983" y="63.5"/><ellipse cx="1043.25" cy="79.5" fill="#ADD1B2" rx="11" ry="11" style="stroke:#A80036;stroke-width:1.0;"/><path d="M1046.0156,75.375 Q1046.1719,75.1563 1046.3594,75.0469 Q1046.5469,74.9375 1046.7656,74.9375 Q1047.1406,74.9375 1047.375,75.2031 Q1047.6094,75.4531 1047.6094,76.0625 L1047.6094,77.5156 Q1047.6094,78.125 1047.375,78.3906 Q1047.1406,78.6563 1046.7656,78.6563 Q1046.4219,78.6563 1046.2188,78.4531 Q1046.0156,78.2656 1045.9063,77.75 Q1045.8594,77.3906 1045.6719,77.2031 Q1045.3438,76.8281 1044.7344,76.6094 Q1044.125,76.3906 1043.5,76.3906 Q1042.7344,76.3906 1042.0938,76.7188 Q1041.4688,77.0469 1040.9688,77.7969 Q1040.4844,78.5469 1040.4844,79.5781 L1040.4844,80.6719 Q1040.4844,81.9063 1041.375,82.7344 Q1042.2656,83.5469 1043.8594,83.5469 Q1044.7969,83.5469 1045.4531,83.2969 Q1045.8438,83.1406 1046.2656,82.7031 Q1046.5313,82.4375 1046.6719,82.3594 Q1046.8281,82.2813 1047.0313,82.2813 Q1047.3594,82.2813 1047.6094,82.5469 Q1047.875,82.7969 1047.875,83.1406 Q1047.875,83.4844 1047.5313,83.8906 Q1047.0313,84.4688 1046.2344,84.7969 Q1045.1563,85.25 1043.8594,85.25 Q1042.3438,85.25 1041.1406,84.625 Q1040.1563,84.125 1039.4688,83.0625 Q1038.7813,81.9844 1038.7813,80.7031 L1038.7813,79.5469 Q1038.7813,78.2188 1039.3906,77.0781 Q1040.0156,75.9219 1041.1094,75.3125 Q1042.2031,74.6875 1043.4375,74.6875 Q1044.1719,74.6875 1044.8125,74.8594 Q1045.4688,75.0156 1046.0156,75.375 Z " fill="#000000"/><text fill="#000000" font-family="sans-serif" font-size="12" lengthAdjust="spacing" textLength="215" x="1063.75" y="84.4102">SessionNotFoundException : Exception</text><line style="stroke:#A80036;stroke-width:1.5;" x1="984" x2="1326" y1="95.5" y2="95.5"/><line style="stroke:#A80036;stroke-width:1.5;" x1="984" x2="1326" y1="103.5" y2="103.5"/><text fill="#000000" font-family="sans-serif" font-size="11" lengthAdjust="spacing" textLength="172" x="989" y="118.9189">+SessionNotFoundException(): void</text><text fill="#000000" font-family="sans-serif" font-size="11" lengthAdjust="spacing" textLength="249" x="989" y="132.7549">+SessionNotFoundException(message: string): void</text><text fill="#000000" font-family="sans-serif" font-size="11" lengthAdjust="spacing" textLength="332" x="989" y="146.5908">+SessionNotFoundException(message: string, inner: Exception): void</text><!--MD5=[5f01c1ffe018171b6fba6e6b4ea3f04a]
class su--><rect codeLine="59" fill="#FEFECE" filter="url(#fb5wo0tywl3y3)" height="103.3438" id="su" style="stroke:#A80036;stroke-width:1.5;" width="346" x="23" y="407"/><ellipse cx="172.25" cy="423" fill="#ADD1B2" rx="11" ry="11" style="stroke:#A80036;stroke-width:1.0;"/><path d="M175.0156,418.875 Q175.1719,418.6563 175.3594,418.5469 Q175.5469,418.4375 175.7656,418.4375 Q176.1406,418.4375 176.375,418.7031 Q176.6094,418.9531 176.6094,419.5625 L176.6094,421.0156 Q176.6094,421.625 176.375,421.8906 Q176.1406,422.1563 175.7656,422.1563 Q175.4219,422.1563 175.2188,421.9531 Q175.0156,421.7656 174.9063,421.25 Q174.8594,420.8906 174.6719,420.7031 Q174.3438,420.3281 173.7344,420.1094 Q173.125,419.8906 172.5,419.8906 Q171.7344,419.8906 171.0938,420.2188 Q170.4688,420.5469 169.9688,421.2969 Q169.4844,422.0469 169.4844,423.0781 L169.4844,424.1719 Q169.4844,425.4063 170.375,426.2344 Q171.2656,427.0469 172.8594,427.0469 Q173.7969,427.0469 174.4531,426.7969 Q174.8438,426.6406 175.2656,426.2031 Q175.5313,425.9375 175.6719,425.8594 Q175.8281,425.7813 176.0313,425.7813 Q176.3594,425.7813 176.6094,426.0469 Q176.875,426.2969 176.875,426.6406 Q176.875,426.9844 176.5313,427.3906 Q176.0313,427.9688 175.2344,428.2969 Q174.1563,428.75 172.8594,428.75 Q171.3438,428.75 170.1406,428.125 Q169.1563,427.625 168.4688,426.5625 Q167.7813,425.4844 167.7813,424.2031 L167.7813,423.0469 Q167.7813,421.7188 168.3906,420.5781 Q169.0156,419.4219 170.1094,418.8125 Q171.2031,418.1875 172.4375,418.1875 Q173.1719,418.1875 173.8125,418.3594 Q174.4688,418.5156 175.0156,418.875 Z " fill="#000000"/><text fill="#000000" font-family="sans-serif" font-size="12" lengthAdjust="spacing" textLength="39" x="192.75" y="427.9102">Startup</text><line style="stroke:#A80036;stroke-width:1.5;" x1="24" x2="368" y1="439" y2="439"/><text fill="#000000" font-family="sans-serif" font-size="11" lengthAdjust="spacing" textLength="234" x="29" y="454.4189">«Property» +Configuration: IConfiguration «+get»</text><line style="stroke:#A80036;stroke-width:1.5;" x1="24" x2="368" y1="460.8359" y2="460.8359"/><text fill="#000000" font-family="sans-serif" font-size="11" lengthAdjust="spacing" textLength="210" x="29" y="476.2549">+Startup(configuration: IConfiguration): void</text><text fill="#000000" font-family="sans-serif" font-size="11" lengthAdjust="spacing" textLength="263" x="29" y="490.0908">+ConfigureServices(services: IServiceCollection): void</text><text fill="#000000" font-family="sans-serif" font-size="11" lengthAdjust="spacing" textLength="334" x="29" y="503.9268">+Configure(app: IApplicationBuilder, env: IWebHostEnvironment): void</text><!--MD5=[4380869dab5c362519f50a8b76a7ddc5]
class vr--><rect codeLine="66" fill="#FEFECE" filter="url(#fb5wo0tywl3y3)" height="297.0469" id="vr" style="stroke:#A80036;stroke-width:1.5;" width="620" x="1023" y="310"/><ellipse cx="1290.25" cy="326" fill="#ADD1B2" rx="11" ry="11" style="stroke:#A80036;stroke-width:1.0;"/><path d="M1293.0156,321.875 Q1293.1719,321.6563 1293.3594,321.5469 Q1293.5469,321.4375 1293.7656,321.4375 Q1294.1406,321.4375 1294.375,321.7031 Q1294.6094,321.9531 1294.6094,322.5625 L1294.6094,324.0156 Q1294.6094,324.625 1294.375,324.8906 Q1294.1406,325.1563 1293.7656,325.1563 Q1293.4219,325.1563 1293.2188,324.9531 Q1293.0156,324.7656 1292.9063,324.25 Q1292.8594,323.8906 1292.6719,323.7031 Q1292.3438,323.3281 1291.7344,323.1094 Q1291.125,322.8906 1290.5,322.8906 Q1289.7344,322.8906 1289.0938,323.2188 Q1288.4688,323.5469 1287.9688,324.2969 Q1287.4844,325.0469 1287.4844,326.0781 L1287.4844,327.1719 Q1287.4844,328.4063 1288.375,329.2344 Q1289.2656,330.0469 1290.8594,330.0469 Q1291.7969,330.0469 1292.4531,329.7969 Q1292.8438,329.6406 1293.2656,329.2031 Q1293.5313,328.9375 1293.6719,328.8594 Q1293.8281,328.7813 1294.0313,328.7813 Q1294.3594,328.7813 1294.6094,329.0469 Q1294.875,329.2969 1294.875,329.6406 Q1294.875,329.9844 1294.5313,330.3906 Q1294.0313,330.9688 1293.2344,331.2969 Q1292.1563,331.75 1290.8594,331.75 Q1289.3438,331.75 1288.1406,331.125 Q1287.1563,330.625 1286.4688,329.5625 Q1285.7813,328.4844 1285.7813,327.2031 L1285.7813,326.0469 Q1285.7813,324.7188 1286.3906,323.5781 Q1287.0156,322.4219 1288.1094,321.8125 Q1289.2031,321.1875 1290.4375,321.1875 Q1291.1719,321.1875 1291.8125,321.3594 Q1292.4688,321.5156 1293.0156,321.875 Z " fill="#000000"/><text fill="#000000" font-family="sans-serif" font-size="12" lengthAdjust="spacing" textLength="77" x="1310.75" y="330.9102">VotingResults</text><line style="stroke:#A80036;stroke-width:1.5;" x1="1024" x2="1642" y1="342" y2="342"/><text fill="#000000" font-family="sans-serif" font-size="11" lengthAdjust="spacing" textLength="533" x="1029" y="357.4189">+data: Dictionary&lt;string, Dictionary&lt;KeyValuePair&lt;Guid, string&gt;, Dictionary&lt;KeyValuePair&lt;Guid, string&gt;, int&gt;&gt;&gt;</text><line style="stroke:#A80036;stroke-width:1.5;" x1="1024" x2="1642" y1="363.8359" y2="363.8359"/><text fill="#000000" font-family="sans-serif" font-size="11" lengthAdjust="spacing" textLength="608" x="1029" y="379.2549">+VotingResults(data: Dictionary&lt;string, Dictionary&lt;KeyValuePair&lt;Guid, string&gt;, Dictionary&lt;KeyValuePair&lt;Guid, string&gt;, int&gt;&gt;&gt;)</text><text fill="#000000" font-family="sans-serif" font-size="11" lengthAdjust="spacing" textLength="134" x="1029" y="393.0908">+GetSessionKeys(): string[]</text><text fill="#000000" font-family="sans-serif" font-size="11" lengthAdjust="spacing" textLength="206" x="1029" y="406.9268">+AddSessionKey(sessionkey: string): void</text><text fill="#000000" font-family="sans-serif" font-size="11" lengthAdjust="spacing" textLength="523" x="1029" y="420.7627">+AddNewPoll(sessionkey: string, prompt: KeyValuePair&lt;Guid, string&gt;, options: KeyValuePair&lt;Guid, string&gt;[])</text><text fill="#000000" font-family="sans-serif" font-size="11" lengthAdjust="spacing" textLength="301" x="1029" y="434.5986">+AddVote(sessionkey: string, prompt: Guid, option: Guid): void</text><text fill="#000000" font-family="sans-serif" font-size="11" lengthAdjust="spacing" textLength="206" x="1029" y="448.4346">+RemoveSession(sessionkey: string): void</text><text fill="#000000" font-family="sans-serif" font-size="11" lengthAdjust="spacing" textLength="354" x="1029" y="462.2705">+GetPromptsBySession(sessionkey: string): KeyValuePair&lt;Guid, string&gt;[]</text><text fill="#000000" font-family="sans-serif" font-size="11" lengthAdjust="spacing" textLength="266" x="1029" y="476.1064">+GetPromptGuidsBySession(sessionkey: string): Guid[]</text><text fill="#000000" font-family="sans-serif" font-size="11" lengthAdjust="spacing" textLength="277" x="1029" y="489.9424">+GetPromptStringsBySession(sessionkey: string): string[]</text><text fill="#000000" font-family="sans-serif" font-size="11" lengthAdjust="spacing" textLength="537" x="1029" y="503.7783">+GetOptionsVotesPairsByPrompt(sessionkey: string, prompt: Guid): Dictionary&lt;KeyValuePair&lt;Guid, string&gt;, int&gt;</text><text fill="#000000" font-family="sans-serif" font-size="11" lengthAdjust="spacing" textLength="413" x="1029" y="517.6143">+GetOptionsByPrompt(sessionkey: string, prompt: Guid): KeyValuePair&lt;Guid, string&gt;[]</text><text fill="#000000" font-family="sans-serif" font-size="11" lengthAdjust="spacing" textLength="336" x="1029" y="531.4502">+GetOptionStringsByPrompt(sessionkey: string, prompt: Guid): string[]</text><text fill="#000000" font-family="sans-serif" font-size="11" lengthAdjust="spacing" textLength="325" x="1029" y="545.2861">+GetOptionGuidsByPrompt(sessionkey: string, prompt: Guid): Guid[]</text><text fill="#000000" font-family="sans-serif" font-size="11" lengthAdjust="spacing" textLength="339" x="1029" y="559.1221">+GetVotesByOption(sessionkey: string, prompt: Guid, option: Guid): int</text><text fill="#000000" font-family="sans-serif" font-size="11" lengthAdjust="spacing" textLength="576" x="1029" y="572.958">+GetStatistics(sessionkey: string): Dictionary&lt;KeyValuePair&lt;Guid, string&gt;, Dictionary&lt;KeyValuePair&lt;Guid, string&gt;, int&gt;&gt;</text><text fill="#000000" font-family="sans-serif" font-size="11" lengthAdjust="spacing" textLength="87" x="1029" y="586.7939">+ToString(): string</text><text fill="#000000" font-family="sans-serif" font-size="11" lengthAdjust="spacing" textLength="204" x="1029" y="600.6299">-IsSessionActive(sessionkey: string): bool</text><!--MD5=[19cd0aa554e7e88bd740818b6c33bdb3]
link be to vr--><path codeLine="86" d="M988.06,458.5 C999.63,458.5 1011.19,458.5 1022.76,458.5 " fill="none" id="be-vr" style="stroke:#A80036;stroke-width:1.0;"/><!--MD5=[aa6cd0f047267ec6d51a8fb8282fbb3b]
link su to be--><path codeLine="87" d="M369.34,458.5 C380.82,458.5 392.31,458.5 403.79,458.5 " fill="none" id="su-be" style="stroke:#A80036;stroke-width:1.0;"/><!--MD5=[115d6bac11751d5edc4604b587263a54]
link snfe to be--><path codeLine="88" d="M1096.87,153.57 C1067.44,175.89 1029.27,204.82 988.21,235.96 " fill="none" id="snfe-be" style="stroke:#A80036;stroke-width:1.0;"/><!--MD5=[9d378cdd24be71ee78c3cd1732024d13]
link snfe to vr--><path codeLine="89" d="M1177.54,153.57 C1197.75,193.08 1228.58,253.34 1257.46,309.82 " fill="none" id="snfe-vr" style="stroke:#A80036;stroke-width:1.0;"/><!--MD5=[26bd7d118fe715b67120ed391372983f]
link beet to be--><path codeLine="90" d="M696,174.14 C696,191.93 696,212.28 696,233.74 " fill="none" id="beet-be" style="stroke:#A80036;stroke-width:1.0;"/><!--MD5=[84c43d45b5557efca2a58f9f000104de]
@startuml

skinparam classAttributeIconSize 0

  package "PlayerAudience-Client" <<Rectangle>>{  

    class "PABackend" as be {
      {field} -host: IHost
      {static} -_hubContext: IHubContext<ServerHub>
      {field} -_serverThread: Thread
      {static} -isDebug: bool 
      {static} -_dockerUrl: string
      {static} <<Property>> +PAVotingResults: VotingResults <<+get,-set>>
      {static} <<Property>> +ConnectionList: Dictionary<string, List<string>> <<+get, -set>>
      {static} <<Property>> -CurrentPrompt: Dictionary<string, KeyValuePair<Guid, string>> <<+get, +set>>
      {static} <<Property>> -Port: int
      {method} +PABackend(port: int, dockerUrl: string): void
      {static} +DebugPABackend(port: int): PABackend
      {method} +GetSessionKeys(): string[]
      {method} +StartNewSession(sessionkey: string): void
      {method} +DebugCreatePageContent(prompt: KeyValuePair<Guid, string>, options: KeyValuePair<Guid, string>[]): string
      {method} +StartNewVote(sessionkey: string, prompt: KeyValuePair<Guid, string>, options: KeyValuePair<Guid, string>[]): Task
      {static} +CountNewVote(sessionkey: string, option: Guid): int
      {method} +EndSession(sessionkey: string): Dictionary<KeyValuePair<Guid, string>, Dictionary<KeyValuePair<Guid, string>, int>>
      {static} +AddConnection(sessionkey: string, connectionId: string): int
      {static} +RemoveConnection(connectionId: string): int
      {method} +GetVotingResult(sessionkey: string, prompt: KeyValuePair<Guid, string>): Dictionary<KeyValuePair<Guid, string>, int>
      {method} +StopServer(): void
      {static} +Main(args: string[]): void
      {static} -IsSessionActive(sessionkey: string): bool
      {static} -AddNewSession(sessionkey: string): void
      {method} -CreatePageContent(prompt: KeyValuePair<Guid, string>, options: KeyValuePair<Guid, string>[]): string
      {static} -RemoveSession(sessionkey: string): void
      {method} -SendPushClear(sessionkey: string): void
      {method} -StartServer(): void
      {static} -CreateHostBuilder(int port): IHostBuilder
    }

    skinparam enum{
      BackgroundColor Wheat
      BorderColor Wheat
    }

    enum "PABackendErrorType" as beet {
      ..
      NoError
      NullSessionkeyError
      InvalidArgumentError
      InvalidSessionkeyError
      InvalidConnectionIdError
      NullConnectionIdError
    }

    class "SessionNotFoundException : Exception" as snfe{
      {method} +SessionNotFoundException(): void
      {method} +SessionNotFoundException(message: string): void
      {method} +SessionNotFoundException(message: string, inner: Exception): void
    }

    class "Startup" as su {
      {field} <<Property>> +Configuration: IConfiguration <<+get>>
      {method} +Startup(configuration: IConfiguration): void
      {method} +ConfigureServices(services: IServiceCollection): void
      {method} +Configure(app: IApplicationBuilder, env: IWebHostEnvironment): void
    }

    class "VotingResults" as vr {
      {field} +data: Dictionary<string, Dictionary<KeyValuePair<Guid, string>, Dictionary<KeyValuePair<Guid, string>, int>>>
      {method} +VotingResults(data: Dictionary<string, Dictionary<KeyValuePair<Guid, string>, Dictionary<KeyValuePair<Guid, string>, int>>>)
      {method} +GetSessionKeys(): string[]
      {method} +AddSessionKey(sessionkey: string): void
      {method} +AddNewPoll(sessionkey: string, prompt: KeyValuePair<Guid, string>, options: KeyValuePair<Guid, string>[])
      {method} +AddVote(sessionkey: string, prompt: Guid, option: Guid): void
      {method} +RemoveSession(sessionkey: string): void
      {method} +GetPromptsBySession(sessionkey: string): KeyValuePair<Guid, string>[]
      {method} +GetPromptGuidsBySession(sessionkey: string): Guid[]
      {method} +GetPromptStringsBySession(sessionkey: string): string[]
      {method} +GetOptionsVotesPairsByPrompt(sessionkey: string, prompt: Guid): Dictionary<KeyValuePair<Guid, string>, int>
      {method} +GetOptionsByPrompt(sessionkey: string, prompt: Guid): KeyValuePair<Guid, string>[]
      {method} +GetOptionStringsByPrompt(sessionkey: string, prompt: Guid): string[]
      {method} +GetOptionGuidsByPrompt(sessionkey: string, prompt: Guid): Guid[]
      {method} +GetVotesByOption(sessionkey: string, prompt: Guid, option: Guid): int
      {method} +GetStatistics(sessionkey: string): Dictionary<KeyValuePair<Guid, string>, Dictionary<KeyValuePair<Guid, string>, int>>
      {method} +ToString(): string
      {method} -IsSessionActive(sessionkey: string): bool
    }
    be - vr
    be -left- su
    be -up- snfe
    snfe - vr
    be -up- beet
  
  }  


@enduml

PlantUML version 1.2021.00(Sun Jan 10 11:25:05 CET 2021)
(GPL source distribution)
Java Runtime: OpenJDK Runtime Environment
JVM: OpenJDK 64-Bit Server VM
Default Encoding: Cp1252
Language: de
Country: DE
--></g></svg>