<?xml version="1.0" encoding="UTF-8" standalone="no"?><svg xmlns="http://www.w3.org/2000/svg" xmlns:xlink="http://www.w3.org/1999/xlink" contentScriptType="application/ecmascript" contentStyleType="text/css" height="194px" preserveAspectRatio="none" style="width:1181px;height:194px;" version="1.1" viewBox="0 0 1181 194" width="1181px" zoomAndPan="magnify"><defs><filter height="300%" id="f1egu9pgrgs4il" width="300%" x="-1" y="-1"><feGaussianBlur result="blurOut" stdDeviation="2.0"/><feColorMatrix in="blurOut" result="blurOut2" type="matrix" values="0 0 0 0 0 0 0 0 0 0 0 0 0 0 0 0 0 0 .4 0"/><feOffset dx="4.0" dy="4.0" in="blurOut2" result="blurOut3"/><feBlend in="SourceGraphic" in2="blurOut3" mode="normal"/></filter></defs><g><!--MD5=[4544bf05af30223886112ffd96a1865f]
cluster Moderator-Client--><rect fill="#FFFFFF" filter="url(#f1egu9pgrgs4il)" height="143.9997" style="stroke:#000000;stroke-width:1.5;" width="852" x="190" y="7"/><text fill="#000000" font-family="sans-serif" font-size="14" font-weight="bold" lengthAdjust="spacingAndGlyphs" textLength="138" x="547" y="21.9951">Moderator-Client</text><ellipse cx="283.1884" cy="116.8374" fill="#FEFECE" filter="url(#f1egu9pgrgs4il)" rx="77.1884" ry="17.8377" style="stroke:#A80036;stroke-width:1.5;"/><text fill="#000000" font-family="sans-serif" font-size="14" lengthAdjust="spacingAndGlyphs" textLength="124" x="221.1884" y="121.4858">Start Application</text><ellipse cx="496.9395" cy="117.0876" fill="#FEFECE" filter="url(#f1egu9pgrgs4il)" rx="75.9395" ry="17.5879" style="stroke:#A80036;stroke-width:1.5;"/><text fill="#000000" font-family="sans-serif" font-size="14" lengthAdjust="spacingAndGlyphs" textLength="121" x="436.4395" y="121.736">Select Character</text><ellipse cx="741.2877" cy="110.8572" fill="#FEFECE" filter="url(#f1egu9pgrgs4il)" rx="107.2877" ry="23.8575" style="stroke:#A80036;stroke-width:1.5;"/><text fill="#000000" font-family="sans-serif" font-size="14" lengthAdjust="spacingAndGlyphs" textLength="192" x="645.2877" y="115.5057">Make decision on Situation</text><ellipse cx="968.1543" cy="120.0233" fill="#FEFECE" filter="url(#f1egu9pgrgs4il)" rx="58.1543" ry="14.5236" style="stroke:#A80036;stroke-width:1.5;"/><text fill="#000000" font-family="sans-serif" font-size="14" lengthAdjust="spacingAndGlyphs" textLength="78" x="929.1543" y="124.6718">Game over</text><!--MD5=[8b944653c655024075d894af29a33c78]
entity SC--><ellipse cx="1131.5" cy="88.9997" fill="#FEFECE" filter="url(#f1egu9pgrgs4il)" rx="8" ry="8" style="stroke:#A80036;stroke-width:1.5;"/><path d="M1131.5,96.9997 L1131.5,123.9997 M1118.5,104.9997 L1144.5,104.9997 M1131.5,123.9997 L1118.5,138.9997 M1131.5,123.9997 L1144.5,138.9997 " fill="none" filter="url(#f1egu9pgrgs4il)" style="stroke:#A80036;stroke-width:1.5;"/><text fill="#000000" font-family="sans-serif" font-size="14" lengthAdjust="spacingAndGlyphs" textLength="85" x="1089" y="157.4948">ServerLogic</text><!--MD5=[626ad08abde0879284d52f51a0eb42aa]
entity P--><ellipse cx="43.5" cy="38" fill="#FEFECE" filter="url(#f1egu9pgrgs4il)" rx="8" ry="8" style="stroke:#A80036;stroke-width:1.5;"/><path d="M43.5,46 L43.5,73 M30.5,54 L56.5,54 M43.5,73 L30.5,88 M43.5,73 L56.5,88 " fill="none" filter="url(#f1egu9pgrgs4il)" style="stroke:#A80036;stroke-width:1.5;"/><text fill="#000000" font-family="sans-serif" font-size="14" lengthAdjust="spacingAndGlyphs" textLength="75" x="6" y="106.4951">Moderator</text><!--MD5=[1247366e397f3032f510b99ec69a94ce]
reverse link CHAR to SC--><path d="M545.978,132.9506 C571.749,140.6873 604.255,149.1295 634,152.9997 C817.344,176.855 868.496,187.2207 1050,151.9997 C1062.99,149.4785 1076.56,144.9094 1088.78,139.9982 " fill="none" id="CHAR-backto-SC" style="stroke:#A80036;stroke-width:1.0;"/><polygon fill="#A80036" points="540.916,131.4143,548.3655,137.8568,545.7003,132.8671,550.69,130.2019,540.916,131.4143" style="stroke:#A80036;stroke-width:1.0;"/><!--MD5=[df5ef2a2deb57b0128ef3fbb456a110d]
reverse link MDOCS to SC--><path d="M823.841,93.3641 C886.216,82.6169 974.182,73.483 1050,87.9997 C1063,90.4886 1076.57,95.0476 1088.79,99.9594 " fill="none" id="MDOCS-backto-SC" style="stroke:#A80036;stroke-width:1.0;"/><polygon fill="#A80036" points="818.642,94.2738,828.1966,96.6634,823.5672,93.4124,826.8183,88.7831,818.642,94.2738" style="stroke:#A80036;stroke-width:1.0;"/><!--MD5=[1154390b4d69ff6b50efed623f3a8a95]
link START to CHAR--><path d="M360.237,116.9997 C378.249,116.9997 397.509,116.9997 415.695,116.9997 " fill="none" id="START-to-CHAR" style="stroke:#A80036;stroke-width:1.0;"/><polygon fill="#A80036" points="420.794,116.9997,411.794,112.9997,415.794,116.9997,411.794,120.9997,420.794,116.9997" style="stroke:#A80036;stroke-width:1.0;"/><!--MD5=[b1c70cb11f1262603c97de4391775f8b]
link CHAR to MDOCS--><path d="M572.737,115.1506 C590.545,114.7099 609.932,114.2303 628.995,113.7586 " fill="none" id="CHAR-to-MDOCS" style="stroke:#A80036;stroke-width:1.0;"/><polygon fill="#A80036" points="634.362,113.6258,625.2654,109.8508,629.3635,113.7501,625.4642,117.8483,634.362,113.6258" style="stroke:#A80036;stroke-width:1.0;"/><!--MD5=[2a6ef259ef3919967209fe10d430366c]
link P to START--><path d="M81.0889,76.3945 C117.799,83.8138 175.056,95.3857 219.069,104.281 " fill="none" id="P-to-START" style="stroke:#A80036;stroke-width:1.0;"/><polygon fill="#A80036" points="224.097,105.2972,216.0688,99.5921,219.1963,104.3058,214.4826,107.4333,224.097,105.2972" style="stroke:#A80036;stroke-width:1.0;"/><!--MD5=[456dfdc229e9254441018018219a70ff]
link P to MDOCS--><path d="M81.0432,46.195 C98.7678,37.213 120.776,29 142,29 C142,29 142,29 498,29 C570.33,29 648.704,62.142 696.204,86.2858 " fill="none" id="P-to-MDOCS" style="stroke:#A80036;stroke-width:1.0;"/><polygon fill="#A80036" points="700.703,88.5929,694.5197,80.927,696.2538,86.3115,690.8694,88.0456,700.703,88.5929" style="stroke:#A80036;stroke-width:1.0;"/><text fill="#000000" font-family="sans-serif" font-size="13" lengthAdjust="spacingAndGlyphs" textLength="68" x="249" y="25.0669">Can pause</text><!--MD5=[da143353e59721dece080aa1f0f951a3]
reverse link MDOCS to MDOCS--><path d="M716.852,82.4287 C712.277,66.582 720.493,52 741.5,52 C764.68,52 772.286,69.755 764.318,87.3724 " fill="none" id="MDOCS-backto-MDOCS" style="stroke:#A80036;stroke-width:1.0;"/><polygon fill="#A80036" points="718.682,87.3724,719.3088,77.5435,716.9462,82.6834,711.8064,80.3208,718.682,87.3724" style="stroke:#A80036;stroke-width:1.0;"/><text fill="#000000" font-family="sans-serif" font-size="13" lengthAdjust="spacingAndGlyphs" textLength="57" x="713" y="43.0669">Continue</text><!--MD5=[9330e7f35acc1a5d69c35878ba9f119f]
link MDOCS to GO--><path d="M847.52,115.2099 C867.443,116.0086 887.671,116.8195 905.68,117.5415 " fill="none" id="MDOCS-to-GO" style="stroke:#A80036;stroke-width:1.0;"/><polygon fill="#A80036" points="910.699,117.7427,901.8662,113.3859,905.703,117.5427,901.5462,121.3795,910.699,117.7427" style="stroke:#A80036;stroke-width:1.0;"/><!--MD5=[e6c9b38c3ee42998e34aec615b02bfef]
@startuml
left to right direction

rectangle "Moderator-Client" {
usecase "Start Application" as START
usecase "Select Character" as CHAR
usecase "Make decision on Situation" as MDOCS
usecase "Game over" as GO
}
actor "ServerLogic" as SC
actor "Moderator" as P

SC -up- -> CHAR
SC -up- -> MDOCS
START - -> CHAR
CHAR - -> MDOCS
P -down- -> START
P -down- -> (MDOCS) : Can pause 
MDOCS -left- -> (MDOCS) : Continue
MDOCS - -> GO
@enduml

PlantUML version 1.2020.21beta3(Unknown compile time)
(GPL source distribution)
Java Runtime: Java(TM) SE Runtime Environment
JVM: Java HotSpot(TM) 64-Bit Server VM
Default Encoding: UTF-8
Language: en
Country: US
--></g></svg>