<?xml version="1.0" encoding="UTF-8" standalone="no"?><svg xmlns="http://www.w3.org/2000/svg" xmlns:xlink="http://www.w3.org/1999/xlink" contentScriptType="application/ecmascript" contentStyleType="text/css" height="104px" preserveAspectRatio="none" style="width:686px;height:104px;" version="1.1" viewBox="0 0 686 104" width="686px" zoomAndPan="magnify"><defs><filter height="300%" id="f74olpnsg4tkg" width="300%" x="-1" y="-1"><feGaussianBlur result="blurOut" stdDeviation="2.0"/><feColorMatrix in="blurOut" result="blurOut2" type="matrix" values="0 0 0 0 0 0 0 0 0 0 0 0 0 0 0 0 0 0 .4 0"/><feOffset dx="4.0" dy="4.0" in="blurOut2" result="blurOut3"/><feBlend in="SourceGraphic" in2="blurOut3" mode="normal"/></filter></defs><g><!--MD5=[4544bf05af30223886112ffd96a1865f]
cluster Moderator-Client--><rect fill="#FFFFFF" filter="url(#f74olpnsg4tkg)" height="85" style="stroke: #000000; stroke-width: 1.5;" width="178" x="100.5" y="7"/><text fill="#000000" font-family="sans-serif" font-size="14" font-weight="bold" lengthAdjust="spacingAndGlyphs" textLength="138" x="120.5" y="21.9951">Moderator-Client</text><!--MD5=[a8973b51fb403d164ccd98ec50a39132]
cluster PlayerAudience-Client--><rect fill="#FFFFFF" filter="url(#f74olpnsg4tkg)" height="81" style="stroke: #000000; stroke-width: 1.5;" width="192" x="361.5" y="9"/><text fill="#000000" font-family="sans-serif" font-size="14" font-weight="bold" lengthAdjust="spacingAndGlyphs" textLength="176" x="369.5" y="23.9951">PlayerAudience-Client</text><ellipse cx="189.5637" cy="59.0127" fill="#FEFECE" filter="url(#f74olpnsg4tkg)" rx="73.0637" ry="17.0127" style="stroke: #A80036; stroke-width: 1.5;"/><text fill="#000000" font-family="sans-serif" font-size="14" lengthAdjust="spacingAndGlyphs" textLength="114" x="132.5637" y="63.6612">End Application</text><ellipse cx="457.3742" cy="58.7748" fill="#FEFECE" filter="url(#f74olpnsg4tkg)" rx="61.8742" ry="14.7748" style="stroke: #A80036; stroke-width: 1.5;"/><text fill="#000000" font-family="sans-serif" font-size="14" lengthAdjust="spacingAndGlyphs" textLength="85" x="414.8742" y="63.4233">End Session</text><!--MD5=[5d12e840fb55afd9ed7b3559a638e8f7]
entity b--><ellipse cx="43.5" cy="28" fill="#FEFECE" filter="url(#f74olpnsg4tkg)" rx="8" ry="8" style="stroke: #A80036; stroke-width: 1.5;"/><path d="M43.5,36 L43.5,63 M30.5,44 L56.5,44 M43.5,63 L30.5,78 M43.5,63 L56.5,78 " fill="none" filter="url(#f74olpnsg4tkg)" style="stroke: #A80036; stroke-width: 1.5;"/><text fill="#000000" font-family="sans-serif" font-size="14" lengthAdjust="spacingAndGlyphs" textLength="75" x="6" y="96.4951">Moderator</text><!--MD5=[d8322213e5f4465576b8bf70cd9bce59]
entity s--><ellipse cx="321.5" cy="28" fill="#FEFECE" filter="url(#f74olpnsg4tkg)" rx="8" ry="8" style="stroke: #A80036; stroke-width: 1.5;"/><path d="M321.5,36 L321.5,63 M308.5,44 L334.5,44 M321.5,63 L308.5,78 M321.5,63 L334.5,78 " fill="none" filter="url(#f74olpnsg4tkg)" style="stroke: #A80036; stroke-width: 1.5;"/><text fill="#000000" font-family="sans-serif" font-size="14" lengthAdjust="spacingAndGlyphs" textLength="47" x="298" y="96.4951">Server</text><!--MD5=[a5d792beb5c449bf1b5d88645a6c8ced]
entity pa--><ellipse cx="624.5" cy="28" fill="#FEFECE" filter="url(#f74olpnsg4tkg)" rx="8" ry="8" style="stroke: #A80036; stroke-width: 1.5;"/><path d="M624.5,36 L624.5,63 M611.5,44 L637.5,44 M624.5,63 L611.5,78 M624.5,63 L637.5,78 " fill="none" filter="url(#f74olpnsg4tkg)" style="stroke: #A80036; stroke-width: 1.5;"/><text fill="#000000" font-family="sans-serif" font-size="14" lengthAdjust="spacingAndGlyphs" textLength="110" x="569.5" y="96.4951">PlayerAudience</text><!--MD5=[dec8d1ee999d6178ab6997de8c289e64]
link b to endA--><path d="M81.1406,59 C91.113,59 101.0854,59 111.058,59 " fill="none" id="b-to-endA" style="stroke: #A80036; stroke-width: 1.0;"/><polygon fill="#A80036" points="116.273,59,107.273,55,111.273,59,107.273,63,116.273,59" style="stroke: #A80036; stroke-width: 1.0;"/><!--MD5=[f94e60efa8ebda40a3aeab8a9b107f59]
link endA to s--><path d="M262.719,59 C272.626,59 282.533,59 292.439,59 " fill="none" id="endA-to-s" style="stroke: #A80036; stroke-width: 1.0;"/><polygon fill="#A80036" points="297.62,59,288.62,55,292.62,59,288.62,63,297.62,59" style="stroke: #A80036; stroke-width: 1.0;"/><!--MD5=[267179ddd3eb24b1c167778d11d42199]
link s to endS--><path d="M345.141,59 C360.125,59 375.11,59 390.094,59 " fill="none" id="s-to-endS" style="stroke: #A80036; stroke-width: 1.0;"/><polygon fill="#A80036" points="395.176,59,386.176,55,390.176,59,386.176,63,395.176,59" style="stroke: #A80036; stroke-width: 1.0;"/><!--MD5=[045095719390845c64d5864877594ea4]
link endS to pa--><path d="M519.799,59 C534.619,59 549.44,59 564.26,59 " fill="none" id="endS-to-pa" style="stroke: #A80036; stroke-width: 1.0;"/><polygon fill="#A80036" points="569.286,59,560.286,55,564.286,59,560.286,63,569.286,59" style="stroke: #A80036; stroke-width: 1.0;"/><!--MD5=[173916a5f0c76044316fda7339628ed6]
@startuml
rectangle "Moderator-Client" {
    usecase "End Application" as endA    
}

rectangle "PlayerAudience-Client" {
    usecase "End Session" as endS
}

actor "Moderator" as b
actor "Server" as s
actor "PlayerAudience" as pa

b -right-> endA
endA -> s
s -> endS
endS -> pa
@enduml

PlantUML version 1.2020.20beta13(Unknown compile time)
(GPL source distribution)
Java Runtime: Java(TM) SE Runtime Environment
JVM: Java HotSpot(TM) 64-Bit Server VM
Default Encoding: UTF-8
Language: en
Country: US
--></g></svg>