<?xml version="1.0" encoding="UTF-8" standalone="no"?><svg xmlns="http://www.w3.org/2000/svg" xmlns:xlink="http://www.w3.org/1999/xlink" contentScriptType="application/ecmascript" contentStyleType="text/css" height="357px" preserveAspectRatio="none" style="width:725px;height:357px;" version="1.1" viewBox="0 0 725 357" width="725px" zoomAndPan="magnify"><defs><filter height="300%" id="ftk5pjr81thrk" width="300%" x="-1" y="-1"><feGaussianBlur result="blurOut" stdDeviation="2.0"/><feColorMatrix in="blurOut" result="blurOut2" type="matrix" values="0 0 0 0 0 0 0 0 0 0 0 0 0 0 0 0 0 0 .4 0"/><feOffset dx="4.0" dy="4.0" in="blurOut2" result="blurOut3"/><feBlend in="SourceGraphic" in2="blurOut3" mode="normal"/></filter></defs><g><!--MD5=[e80ec5ac6074eb7d3b630f53758c36f6]
cluster Start--><rect fill="#FFFFFF" filter="url(#ftk5pjr81thrk)" height="246" style="stroke: #000000; stroke-width: 1.5;" width="706" x="7" y="7"/><text fill="#000000" font-family="sans-serif" font-size="14" font-weight="bold" lengthAdjust="spacingAndGlyphs" textLength="43" x="338.5" y="21.9951">Start</text><ellipse cx="372.6884" cy="145.8377" fill="#FEFECE" filter="url(#ftk5pjr81thrk)" rx="77.1884" ry="17.8377" style="stroke: #A80036; stroke-width: 1.5;"/><text fill="#000000" font-family="sans-serif" font-size="14" lengthAdjust="spacingAndGlyphs" textLength="124" x="310.6884" y="150.4861">Start Application</text><ellipse cx="95.9472" cy="193.0236" fill="#FEFECE" filter="url(#ftk5pjr81thrk)" rx="57.4472" ry="14.5236" style="stroke: #A80036; stroke-width: 1.5;"/><text fill="#000000" font-family="sans-serif" font-size="14" lengthAdjust="spacingAndGlyphs" textLength="77" x="57.4472" y="197.6721">Show Intro</text><ellipse cx="372.4711" cy="59.0942" fill="#FEFECE" filter="url(#ftk5pjr81thrk)" rx="73.4711" ry="17.0942" style="stroke: #A80036; stroke-width: 1.5;"/><text fill="#000000" font-family="sans-serif" font-size="14" lengthAdjust="spacingAndGlyphs" textLength="115" x="314.9711" y="63.7427">Show Mainmenu</text><ellipse cx="96.1107" cy="126.8221" fill="#FEFECE" filter="url(#ftk5pjr81thrk)" rx="67.1107" ry="15.8221" style="stroke: #A80036; stroke-width: 1.5;"/><text fill="#000000" font-family="sans-serif" font-size="14" lengthAdjust="spacingAndGlyphs" textLength="99" x="46.6107" y="131.4706">Show Options</text><ellipse cx="96.0637" cy="59.0127" fill="#FEFECE" filter="url(#ftk5pjr81thrk)" rx="73.0637" ry="17.0127" style="stroke: #A80036; stroke-width: 1.5;"/><text fill="#000000" font-family="sans-serif" font-size="14" lengthAdjust="spacingAndGlyphs" textLength="114" x="39.0637" y="63.6612">End Application</text><ellipse cx="372.5624" cy="218.0125" fill="#FEFECE" filter="url(#ftk5pjr81thrk)" rx="80.5624" ry="18.5125" style="stroke: #A80036; stroke-width: 1.5;"/><text fill="#000000" font-family="sans-serif" font-size="14" lengthAdjust="spacingAndGlyphs" textLength="132" x="306.5624" y="222.6609">Connect to Server</text><ellipse cx="636.2756" cy="120.0236" fill="#FEFECE" filter="url(#ftk5pjr81thrk)" rx="60.2756" ry="14.5236" style="stroke: #A80036; stroke-width: 1.5;"/><text fill="#000000" font-family="sans-serif" font-size="14" lengthAdjust="spacingAndGlyphs" textLength="81" x="595.7756" y="124.6721">Start game</text><!--MD5=[c617d1e94391e02d80a02faf38d11fae]
entity m--><ellipse cx="372.5" cy="281" fill="#FEFECE" filter="url(#ftk5pjr81thrk)" rx="8" ry="8" style="stroke: #A80036; stroke-width: 1.5;"/><path d="M372.5,289 L372.5,316 M359.5,297 L385.5,297 M372.5,316 L359.5,331 M372.5,316 L385.5,331 " fill="none" filter="url(#ftk5pjr81thrk)" style="stroke: #A80036; stroke-width: 1.5;"/><text fill="#000000" font-family="sans-serif" font-size="14" lengthAdjust="spacingAndGlyphs" textLength="75" x="335" y="349.4951">Moderator</text><!--MD5=[62ef75d2d0d3313071eebdef91244375]
link m to s--><path d="M334.737,300.7446 C282.506,283.1691 198.11,246.316 230.5,199.5 C246.375,176.555 273.418,163.439 299.672,155.945 " fill="none" id="m-to-s" style="stroke: #A80036; stroke-width: 1.0;"/><polygon fill="#A80036" points="304.562,154.61,294.8261,153.1224,299.7386,155.9273,296.9338,160.8398,304.562,154.61" style="stroke: #A80036; stroke-width: 1.0;"/><!--MD5=[fa1662f9892c425c0470e3655fa5a51f]
link ia to s--><path d="M153.565,192.189 C185.621,190.908 226.328,187.897 262,181 C283.677,176.809 307.067,169.704 326.642,162.987 " fill="none" id="ia-to-s" style="stroke: #A80036; stroke-width: 1.0; stroke-dasharray: 7.0,7.0;"/><polygon fill="#A80036" points="331.533,161.289,321.7189,160.4617,326.8095,162.9287,324.3425,168.0193,331.533,161.289" style="stroke: #A80036; stroke-width: 1.0;"/><text fill="#000000" font-family="sans-serif" font-size="13" lengthAdjust="spacingAndGlyphs" textLength="61" x="200" y="177.0669">«extend»</text><!--MD5=[9273a4ebf684387916dc8824b913d1cf]
link s to mm--><path d="M372.5,127.974 C372.5,114.409 372.5,95.743 372.5,81.249 " fill="none" id="s-to-mm" style="stroke: #A80036; stroke-width: 1.0; stroke-dasharray: 7.0,7.0;"/><polygon fill="#A80036" points="372.5,76.115,368.5,85.115,372.5,81.115,376.5,85.115,372.5,76.115" style="stroke: #A80036; stroke-width: 1.0;"/><text fill="#000000" font-family="sans-serif" font-size="13" lengthAdjust="spacingAndGlyphs" textLength="61" x="330.5" y="106.5669">«include»</text><!--MD5=[1b05c204b41309a8bace34501bd9edad]
link so to mm--><path d="M143.255,115.542 C191.116,103.685 265.847,85.173 316.655,72.586 " fill="none" id="so-to-mm" style="stroke: #A80036; stroke-width: 1.0; stroke-dasharray: 7.0,7.0;"/><polygon fill="#A80036" points="321.803,71.311,312.105,69.5938,316.9499,72.5139,314.0297,77.3588,321.803,71.311" style="stroke: #A80036; stroke-width: 1.0;"/><text fill="#000000" font-family="sans-serif" font-size="13" lengthAdjust="spacingAndGlyphs" textLength="61" x="200" y="83.0669">«extend»</text><!--MD5=[e64ba48abdd37b8216329e7cf0f970ea]
link mm to sg--><path d="M424.95,70.979 C472.112,81.959 541.413,98.094 587.466,108.817 " fill="none" id="mm-to-sg" style="stroke: #A80036; stroke-width: 1.0; stroke-dasharray: 7.0,7.0;"/><polygon fill="#A80036" points="592.406,109.967,584.548,104.0297,587.5363,108.8328,582.7332,111.8212,592.406,109.967" style="stroke: #A80036; stroke-width: 1.0;"/><text fill="#000000" font-family="sans-serif" font-size="13" lengthAdjust="spacingAndGlyphs" textLength="61" x="484" y="82.0669">«include»</text><!--MD5=[d872a91f0586aa32494e8acb22683f88]
link cs to sg--><path d="M415.595,202.255 C466.08,183.371 549.92,152.011 598.183,133.958 " fill="none" id="cs-to-sg" style="stroke: #A80036; stroke-width: 1.0; stroke-dasharray: 7.0,7.0;"/><polygon fill="#A80036" points="603.027,132.147,593.1959,131.5559,598.3443,133.8998,596.0004,139.0482,603.027,132.147" style="stroke: #A80036; stroke-width: 1.0;"/><text fill="#000000" font-family="sans-serif" font-size="13" lengthAdjust="spacingAndGlyphs" textLength="61" x="484" y="150.0669">«extend»</text><!--MD5=[ce06859d123478ee66537d355c69de2f]
link ea to mm--><path d="M169.122,59 C207.431,59 254.553,59 293.686,59 " fill="none" id="ea-to-mm" style="stroke: #A80036; stroke-width: 1.0; stroke-dasharray: 7.0,7.0;"/><polygon fill="#A80036" points="298.907,59,289.907,55,293.907,59,289.907,63,298.907,59" style="stroke: #A80036; stroke-width: 1.0;"/><text fill="#000000" font-family="sans-serif" font-size="13" lengthAdjust="spacingAndGlyphs" textLength="61" x="200" y="55.0669">«extend»</text><!--MD5=[1724b19080e9f7b7994f335d0cd6c1a1]
@startuml
left to right direction

rectangle "Start" {
    
    usecase "Start Application" as s
    usecase "Show Intro" as ia
    usecase "Show Mainmenu" as mm
    usecase "Show Options" as so
    usecase "End Application" as ea
    usecase "Connect to Server" as cs
    usecase "Start game" as sg

}
actor "Moderator" as m
'actor "PlayerAudience" as p


m -right-> s
ia .down.> s : <<extend>>
s .right.> mm : <<include>>
so .down.> mm : <<extend>>
mm .down.> sg : <<include>>
cs ..> sg : <<extend>>
ea ..> mm : <<extend>>
@enduml

@startuml
left to right direction

rectangle "Start" {
    
    usecase "Start Application" as s
    usecase "Show Intro" as ia
    usecase "Show Mainmenu" as mm
    usecase "Show Options" as so
    usecase "End Application" as ea
    usecase "Connect to Server" as cs
    usecase "Start game" as sg

}
actor "Moderator" as m


m -right-> s
ia .down.> s : <<extend>>
s .right.> mm : <<include>>
so .down.> mm : <<extend>>
mm .down.> sg : <<include>>
cs ..> sg : <<extend>>
ea ..> mm : <<extend>>
@enduml

PlantUML version 1.2020.20beta4(Unknown compile time)
(GPL source distribution)
Java Runtime: Java(TM) SE Runtime Environment
JVM: Java HotSpot(TM) 64-Bit Server VM
Default Encoding: UTF-8
Language: en
Country: US
--></g></svg>