<?xml version="1.0" encoding="UTF-8" standalone="no"?><svg xmlns="http://www.w3.org/2000/svg" xmlns:xlink="http://www.w3.org/1999/xlink" contentScriptType="application/ecmascript" contentStyleType="text/css" height="197px" preserveAspectRatio="none" style="width:1197px;height:197px;" version="1.1" viewBox="0 0 1197 197" width="1197px" zoomAndPan="magnify"><defs><filter height="300%" id="f15ntptdnfn7st" width="300%" x="-1" y="-1"><feGaussianBlur result="blurOut" stdDeviation="2.0"/><feColorMatrix in="blurOut" result="blurOut2" type="matrix" values="0 0 0 0 0 0 0 0 0 0 0 0 0 0 0 0 0 0 .4 0"/><feOffset dx="4.0" dy="4.0" in="blurOut2" result="blurOut3"/><feBlend in="SourceGraphic" in2="blurOut3" mode="normal"/></filter></defs><g><!--MD5=[4544bf05af30223886112ffd96a1865f]
cluster Moderator-Client--><rect fill="#FFFFFF" filter="url(#f15ntptdnfn7st)" height="144.0001" style="stroke: #000000; stroke-width: 1.5;" width="852" x="190" y="7"/><text fill="#000000" font-family="sans-serif" font-size="14" font-weight="bold" lengthAdjust="spacingAndGlyphs" textLength="138" x="547" y="21.9951">Moderator-Client</text><ellipse cx="283.1884" cy="116.8378" fill="#FEFECE" filter="url(#f15ntptdnfn7st)" rx="77.1884" ry="17.8377" style="stroke: #A80036; stroke-width: 1.5;"/><text fill="#000000" font-family="sans-serif" font-size="14" lengthAdjust="spacingAndGlyphs" textLength="124" x="221.1884" y="121.4862">Start Application</text><ellipse cx="496.9395" cy="117.088" fill="#FEFECE" filter="url(#f15ntptdnfn7st)" rx="75.9395" ry="17.5879" style="stroke: #A80036; stroke-width: 1.5;"/><text fill="#000000" font-family="sans-serif" font-size="14" lengthAdjust="spacingAndGlyphs" textLength="121" x="436.4395" y="121.7364">Select Character</text><ellipse cx="741.2877" cy="110.8576" fill="#FEFECE" filter="url(#f15ntptdnfn7st)" rx="107.2877" ry="23.8575" style="stroke: #A80036; stroke-width: 1.5;"/><text fill="#000000" font-family="sans-serif" font-size="14" lengthAdjust="spacingAndGlyphs" textLength="192" x="645.2877" y="115.5061">Make decision on Situation</text><ellipse cx="968.1543" cy="120.0237" fill="#FEFECE" filter="url(#f15ntptdnfn7st)" rx="58.1543" ry="14.5236" style="stroke: #A80036; stroke-width: 1.5;"/><text fill="#000000" font-family="sans-serif" font-size="14" lengthAdjust="spacingAndGlyphs" textLength="78" x="929.1543" y="124.6722">Game over</text><!--MD5=[8b944653c655024075d894af29a33c78]
entity SC--><ellipse cx="1137" cy="89.0001" fill="#FEFECE" filter="url(#f15ntptdnfn7st)" rx="8" ry="8" style="stroke: #A80036; stroke-width: 1.5;"/><path d="M1137,97.0001 L1137,124.0001 M1124,105.0001 L1150,105.0001 M1137,124.0001 L1124,139.0001 M1137,124.0001 L1150,139.0001 " fill="none" filter="url(#f15ntptdnfn7st)" style="stroke: #A80036; stroke-width: 1.5;"/><text fill="#000000" font-family="sans-serif" font-size="13" lengthAdjust="spacingAndGlyphs" textLength="60" x="1107" y="157.4952">Server</text><!--MD5=[626ad08abde0879284d52f51a0eb42aa]
entity P--><ellipse cx="43.5" cy="38" fill="#FEFECE" filter="url(#f15ntptdnfn7st)" rx="8" ry="8" style="stroke: #A80036; stroke-width: 1.5;"/><path d="M43.5,46 L43.5,73 M30.5,54 L56.5,54 M43.5,73 L30.5,88 M43.5,73 L56.5,88 " fill="none" filter="url(#f15ntptdnfn7st)" style="stroke: #A80036; stroke-width: 1.5;"/><text fill="#000000" font-family="sans-serif" font-size="14" lengthAdjust="spacingAndGlyphs" textLength="75" x="6" y="106.4951">Moderator</text><!--MD5=[1247366e397f3032f510b99ec69a94ce]
reverse link CHAR to SC--><path d="M545.978,132.951 C571.749,140.6878 604.255,149.1299 634,153.0001 C817.344,176.8554 868.118,185.2095 1050,152.0001 C1062.85,149.6538 1076.29,145.5273 1088.63,141.0019 " fill="none" id="CHAR-backto-SC" style="stroke: #A80036; stroke-width: 1.0;"/><polygon fill="#A80036" points="540.916,131.4147,548.3655,137.8572,545.7003,132.8675,550.69,130.2023,540.916,131.4147" style="stroke: #A80036; stroke-width: 1.0;"/><!--MD5=[df5ef2a2deb57b0128ef3fbb456a110d]
reverse link MDOCS to SC--><path d="M825.016,93.6332 C887.265,83.2305 974.539,74.4158 1050,88.0001 C1062.86,90.3145 1076.3,94.4295 1088.64,98.954 " fill="none" id="MDOCS-backto-SC" style="stroke: #A80036; stroke-width: 1.0;"/><polygon fill="#A80036" points="819.826,94.5138,829.3687,96.9505,824.7554,93.6767,828.0293,89.0634,819.826,94.5138" style="stroke: #A80036; stroke-width: 1.0;"/><!--MD5=[1154390b4d69ff6b50efed623f3a8a95]
link START to CHAR--><path d="M360.237,117.0001 C378.249,117.0001 397.509,117.0001 415.695,117.0001 " fill="none" id="START-to-CHAR" style="stroke: #A80036; stroke-width: 1.0;"/><polygon fill="#A80036" points="420.794,117.0001,411.794,113.0001,415.794,117.0001,411.794,121.0001,420.794,117.0001" style="stroke: #A80036; stroke-width: 1.0;"/><!--MD5=[b1c70cb11f1262603c97de4391775f8b]
link CHAR to MDOCS--><path d="M572.737,115.151 C590.545,114.7103 609.932,114.2307 628.995,113.759 " fill="none" id="CHAR-to-MDOCS" style="stroke: #A80036; stroke-width: 1.0;"/><polygon fill="#A80036" points="634.362,113.6262,625.2654,109.8511,629.3635,113.7505,625.4642,117.8487,634.362,113.6262" style="stroke: #A80036; stroke-width: 1.0;"/><!--MD5=[2a6ef259ef3919967209fe10d430366c]
link P to START--><path d="M81.0889,76.3949 C117.799,83.8142 175.056,95.3861 219.069,104.2814 " fill="none" id="P-to-START" style="stroke: #A80036; stroke-width: 1.0;"/><polygon fill="#A80036" points="224.097,105.2976,216.0688,99.5925,219.1963,104.3062,214.4826,107.4337,224.097,105.2976" style="stroke: #A80036; stroke-width: 1.0;"/><!--MD5=[456dfdc229e9254441018018219a70ff]
link P to MDOCS--><path d="M81.0432,46.196 C98.7678,37.213 120.776,29 142,29 C142,29 142,29 498,29 C570.33,29 648.704,62.142 696.204,86.2862 " fill="none" id="P-to-MDOCS" style="stroke: #A80036; stroke-width: 1.0;"/><polygon fill="#A80036" points="700.703,88.5933,694.5197,80.9274,696.2538,86.3119,690.8694,88.046,700.703,88.5933" style="stroke: #A80036; stroke-width: 1.0;"/><text fill="#000000" font-family="sans-serif" font-size="13" lengthAdjust="spacingAndGlyphs" textLength="68" x="249" y="25.0669">Can pause</text><!--MD5=[da143353e59721dece080aa1f0f951a3]
reverse link MDOCS to MDOCS--><path d="M716.852,82.4291 C712.277,66.583 720.493,52 741.5,52 C764.68,52 772.286,69.756 764.318,87.3728 " fill="none" id="MDOCS-backto-MDOCS" style="stroke: #A80036; stroke-width: 1.0;"/><polygon fill="#A80036" points="718.682,87.3728,719.3088,77.5439,716.9462,82.6838,711.8064,80.3212,718.682,87.3728" style="stroke: #A80036; stroke-width: 1.0;"/><text fill="#000000" font-family="sans-serif" font-size="13" lengthAdjust="spacingAndGlyphs" textLength="57" x="713" y="43.0669">Continue</text><!--MD5=[9330e7f35acc1a5d69c35878ba9f119f]
link MDOCS to GO--><path d="M847.52,115.2103 C867.443,116.009 887.671,116.8199 905.68,117.5419 " fill="none" id="MDOCS-to-GO" style="stroke: #A80036; stroke-width: 1.0;"/><polygon fill="#A80036" points="910.699,117.7431,901.8662,113.3863,905.703,117.5431,901.5462,121.3799,910.699,117.7431" style="stroke: #A80036; stroke-width: 1.0;"/><!--MD5=[061157e05a0a042bfeb8af4a9f17a3b3]
@startuml
left to right direction

rectangle "Moderator-Client" {
usecase "Start Application" as START
usecase "Select Character" as CHAR
usecase "Make decision on Situation" as MDOCS
usecase "Game over" as GO
}
actor "Server" as SC
actor "Moderator" as P

SC -up- -> CHAR
SC -up- -> MDOCS
START - -> CHAR
CHAR - -> MDOCS
P -down- -> START
P -down- -> (MDOCS) : Can pause 
MDOCS -left- -> (MDOCS) : Continue
MDOCS - -> GO
@enduml

PlantUML version 1.2020.18beta4(Unknown compile time)
(GPL source distribution)
Java Runtime: Java(TM) SE Runtime Environment
JVM: Java HotSpot(TM) 64-Bit Server VM
Default Encoding: UTF-8
Language: en
Country: US
--></g></svg>