<?xml version="1.0" encoding="UTF-8" standalone="no"?><svg xmlns="http://www.w3.org/2000/svg" xmlns:xlink="http://www.w3.org/1999/xlink" contentScriptType="application/ecmascript" contentStyleType="text/css" height="421px" preserveAspectRatio="none" style="width:1028px;height:421px;" version="1.1" viewBox="0 0 1028 421" width="1028px" zoomAndPan="magnify"><defs><filter height="300%" id="f1omixx44vxkyk" width="300%" x="-1" y="-1"><feGaussianBlur result="blurOut" stdDeviation="2.0"/><feColorMatrix in="blurOut" result="blurOut2" type="matrix" values="0 0 0 0 0 0 0 0 0 0 0 0 0 0 0 0 0 0 .4 0"/><feOffset dx="4.0" dy="4.0" in="blurOut2" result="blurOut3"/><feBlend in="SourceGraphic" in2="blurOut3" mode="normal"/></filter></defs><g><!--MD5=[fc692fc0a85e4d89207d3f4ee1fc179c]
cluster Start Application--><rect fill="#FFFFFF" filter="url(#f1omixx44vxkyk)" height="217" style="stroke: #000000; stroke-width: 1.5;" width="1009" x="7" y="102"/><text fill="#000000" font-family="sans-serif" font-size="14" font-weight="bold" lengthAdjust="spacingAndGlyphs" textLength="141" x="441" y="116.9951">Start Application</text><ellipse cx="369.1884" cy="267.8377" fill="#FEFECE" filter="url(#f1omixx44vxkyk)" rx="77.1884" ry="17.8377" style="stroke: #A80036; stroke-width: 1.5;"/><text fill="#000000" font-family="sans-serif" font-size="14" lengthAdjust="spacingAndGlyphs" textLength="124" x="307.1884" y="272.4861">Start Application</text><ellipse cx="95.9472" cy="288.0236" fill="#FEFECE" filter="url(#f1omixx44vxkyk)" rx="57.4472" ry="14.5236" style="stroke: #A80036; stroke-width: 1.5;"/><text fill="#000000" font-family="sans-serif" font-size="14" lengthAdjust="spacingAndGlyphs" textLength="77" x="57.4472" y="292.6721">Show Intro</text><ellipse cx="368.9711" cy="181.0942" fill="#FEFECE" filter="url(#f1omixx44vxkyk)" rx="73.4711" ry="17.0942" style="stroke: #A80036; stroke-width: 1.5;"/><text fill="#000000" font-family="sans-serif" font-size="14" lengthAdjust="spacingAndGlyphs" textLength="115" x="311.4711" y="185.7427">Show Mainmenu</text><ellipse cx="96.1107" cy="221.8221" fill="#FEFECE" filter="url(#f1omixx44vxkyk)" rx="67.1107" ry="15.8221" style="stroke: #A80036; stroke-width: 1.5;"/><text fill="#000000" font-family="sans-serif" font-size="14" lengthAdjust="spacingAndGlyphs" textLength="99" x="46.6107" y="226.4706">Show Options</text><ellipse cx="96.0637" cy="154.0127" fill="#FEFECE" filter="url(#f1omixx44vxkyk)" rx="73.0637" ry="17.0127" style="stroke: #A80036; stroke-width: 1.5;"/><text fill="#000000" font-family="sans-serif" font-size="14" lengthAdjust="spacingAndGlyphs" textLength="114" x="39.0637" y="158.6612">End Application</text><ellipse cx="651.5624" cy="181.0125" fill="#FEFECE" filter="url(#f1omixx44vxkyk)" rx="80.5624" ry="18.5125" style="stroke: #A80036; stroke-width: 1.5;"/><text fill="#000000" font-family="sans-serif" font-size="14" lengthAdjust="spacingAndGlyphs" textLength="132" x="585.5624" y="185.6609">Connect to Server</text><ellipse cx="915.2756" cy="179.0236" fill="#FEFECE" filter="url(#f1omixx44vxkyk)" rx="60.2756" ry="14.5236" style="stroke: #A80036; stroke-width: 1.5;"/><text fill="#000000" font-family="sans-serif" font-size="14" lengthAdjust="spacingAndGlyphs" textLength="81" x="874.7756" y="183.6721">Start game</text><!--MD5=[c617d1e94391e02d80a02faf38d11fae]
entity m--><ellipse cx="369" cy="345" fill="#FEFECE" filter="url(#f1omixx44vxkyk)" rx="8" ry="8" style="stroke: #A80036; stroke-width: 1.5;"/><path d="M369,353 L369,380 M356,361 L382,361 M369,380 L356,395 M369,380 L382,395 " fill="none" filter="url(#f1omixx44vxkyk)" style="stroke: #A80036; stroke-width: 1.5;"/><text fill="#000000" font-family="sans-serif" font-size="14" lengthAdjust="spacingAndGlyphs" textLength="75" x="331.5" y="413.4951">Moderator</text><!--MD5=[051be2fd78f954f5152ae04633b10bc0]
entity se--><ellipse cx="651.5" cy="14" fill="#FEFECE" filter="url(#f1omixx44vxkyk)" rx="8" ry="8" style="stroke: #A80036; stroke-width: 1.5;"/><path d="M651.5,22 L651.5,49 M638.5,30 L664.5,30 M651.5,49 L638.5,64 M651.5,49 L664.5,64 " fill="none" filter="url(#f1omixx44vxkyk)" style="stroke: #A80036; stroke-width: 1.5;"/><text fill="#000000" font-family="sans-serif" font-size="14" lengthAdjust="spacingAndGlyphs" textLength="47" x="628" y="82.4951">Server</text><!--MD5=[62ef75d2d0d3313071eebdef91244375]
link m to s--><path d="M369,335.0781 C369,320.5317 369,305.985 369,291.439 " fill="none" id="m-to-s" style="stroke: #A80036; stroke-width: 1.0;"/><polygon fill="#A80036" points="369,286.08,365,295.08,369,291.08,373,295.08,369,286.08" style="stroke: #A80036; stroke-width: 1.0;"/><!--MD5=[fa1662f9892c425c0470e3655fa5a51f]
link ia to s--><path d="M151.515,283.977 C191.326,281.039 245.87,277.013 290.248,273.738 " fill="none" id="ia-to-s" style="stroke: #A80036; stroke-width: 1.0; stroke-dasharray: 7.0,7.0;"/><polygon fill="#A80036" points="295.332,273.363,286.0625,270.0348,290.3455,273.7302,286.6501,278.0132,295.332,273.363" style="stroke: #A80036; stroke-width: 1.0;"/><text fill="#000000" font-family="sans-serif" font-size="13" lengthAdjust="spacingAndGlyphs" textLength="61" x="200" y="272.0669">«extend»</text><!--MD5=[9273a4ebf684387916dc8824b913d1cf]
link s to mm--><path d="M369,249.974 C369,236.409 369,217.743 369,203.249 " fill="none" id="s-to-mm" style="stroke: #A80036; stroke-width: 1.0; stroke-dasharray: 7.0,7.0;"/><polygon fill="#A80036" points="369,198.115,365,207.115,369,203.115,373,207.115,369,198.115" style="stroke: #A80036; stroke-width: 1.0;"/><text fill="#000000" font-family="sans-serif" font-size="13" lengthAdjust="spacingAndGlyphs" textLength="61" x="327" y="228.5669">«include»</text><!--MD5=[1b05c204b41309a8bace34501bd9edad]
link so to mm--><path d="M153.151,213.505 C196.294,206.978 256.006,197.944 301.532,191.056 " fill="none" id="so-to-mm" style="stroke: #A80036; stroke-width: 1.0; stroke-dasharray: 7.0,7.0;"/><polygon fill="#A80036" points="306.731,190.27,297.2336,187.6623,301.7873,191.0185,298.4312,195.5722,306.731,190.27" style="stroke: #A80036; stroke-width: 1.0;"/><text fill="#000000" font-family="sans-serif" font-size="13" lengthAdjust="spacingAndGlyphs" textLength="61" x="200" y="193.0669">«extend»</text><!--MD5=[d872a91f0586aa32494e8acb22683f88]
link cs to sg--><path d="M732.176,180.392 C769.771,180.105 814.065,179.767 849.58,179.496 " fill="none" id="cs-to-sg" style="stroke: #A80036; stroke-width: 1.0; stroke-dasharray: 7.0,7.0;"/><polygon fill="#A80036" points="854.755,179.456,845.7255,175.523,849.7551,179.4931,845.785,183.5227,854.755,179.456" style="stroke: #A80036; stroke-width: 1.0;"/><text fill="#000000" font-family="sans-serif" font-size="13" lengthAdjust="spacingAndGlyphs" textLength="61" x="763" y="175.0669">«include»</text><!--MD5=[3792b75cc9f0d609255ee091c0f16e1d]
link mm to cs--><path d="M442.601,181 C480.196,181 526.318,181 565.562,181 " fill="none" id="mm-to-cs" style="stroke: #A80036; stroke-width: 1.0; stroke-dasharray: 7.0,7.0;"/><polygon fill="#A80036" points="570.804,181,561.804,177,565.804,181,561.804,185,570.804,181" style="stroke: #A80036; stroke-width: 1.0;"/><text fill="#000000" font-family="sans-serif" font-size="13" lengthAdjust="spacingAndGlyphs" textLength="61" x="477" y="177.0669">«include»</text><!--MD5=[ce06859d123478ee66537d355c69de2f]
link ea to mm--><path d="M163.294,160.605 C203.416,164.602 254.605,169.702 295.757,173.802 " fill="none" id="ea-to-mm" style="stroke: #A80036; stroke-width: 1.0; stroke-dasharray: 7.0,7.0;"/><polygon fill="#A80036" points="300.98,174.323,292.421,169.4502,296.0046,173.8272,291.6277,177.4108,300.98,174.323" style="stroke: #A80036; stroke-width: 1.0;"/><text fill="#000000" font-family="sans-serif" font-size="13" lengthAdjust="spacingAndGlyphs" textLength="61" x="200" y="160.0669">«extend»</text><!--MD5=[d6809ea0c17289cfb88e455aaf77812b]
link se to cs--><path d="M651.5,85.817 C651.5,109.651 651.5,133.486 651.5,157.32 " fill="none" id="se-to-cs" style="stroke: #A80036; stroke-width: 1.0;"/><polygon fill="#A80036" points="651.5,162.406,655.5,153.406,651.5,157.406,647.5,153.406,651.5,162.406" style="stroke: #A80036; stroke-width: 1.0;"/><!--MD5=[299c7da89a88d1a387bcf4169e2653ff]
@startuml
left to right direction

rectangle "Start Application" {
    usecase "Start Application" as s
    usecase "Show Intro" as ia
    usecase "Show Mainmenu" as mm
    usecase "Show Options" as so
    usecase "End Application" as ea
    together {
    usecase "Connect to Server" as cs
    usecase "Start game" as sg
    }
}
actor "Moderator" as m
actor "Server" as se
'actor "PlayerAudience" as p



m -right-> s
ia .down.> s : <<extend>>
s .right.> mm : <<include>>
so .down.> mm : <<extend>>
cs .down.> sg : <<include>>
mm ..> cs : <<include>>
ea ..> mm : <<extend>>
se -> cs
@enduml

@startuml
left to right direction

rectangle "Start Application" {
    usecase "Start Application" as s
    usecase "Show Intro" as ia
    usecase "Show Mainmenu" as mm
    usecase "Show Options" as so
    usecase "End Application" as ea
    together {
    usecase "Connect to Server" as cs
    usecase "Start game" as sg
    }
}
actor "Moderator" as m
actor "Server" as se



m -right-> s
ia .down.> s : <<extend>>
s .right.> mm : <<include>>
so .down.> mm : <<extend>>
cs .down.> sg : <<include>>
mm ..> cs : <<include>>
ea ..> mm : <<extend>>
se -> cs
@enduml

PlantUML version 1.2020.20beta4(Unknown compile time)
(GPL source distribution)
Java Runtime: Java(TM) SE Runtime Environment
JVM: Java HotSpot(TM) 64-Bit Server VM
Default Encoding: UTF-8
Language: en
Country: US
--></g></svg>