<?xml version="1.0" encoding="UTF-8" standalone="no"?><svg xmlns="http://www.w3.org/2000/svg" xmlns:xlink="http://www.w3.org/1999/xlink" contentScriptType="application/ecmascript" contentStyleType="text/css" height="217px" preserveAspectRatio="none" style="width:592px;height:217px;" version="1.1" viewBox="0 0 592 217" width="592px" zoomAndPan="magnify"><defs><filter height="300%" id="f1vs2mu7opcvt8" width="300%" x="-1" y="-1"><feGaussianBlur result="blurOut" stdDeviation="2.0"/><feColorMatrix in="blurOut" result="blurOut2" type="matrix" values="0 0 0 0 0 0 0 0 0 0 0 0 0 0 0 0 0 0 .4 0"/><feOffset dx="4.0" dy="4.0" in="blurOut2" result="blurOut3"/><feBlend in="SourceGraphic" in2="blurOut3" mode="normal"/></filter></defs><g><!--MD5=[04b1759fa898116091f17bc421716fca]
cluster Moderator-Client Online Mode--><rect fill="#FFFFFF" filter="url(#f1vs2mu7opcvt8)" height="80" style="stroke: #000000; stroke-width: 1.5;" width="287" x="293" y="7"/><text fill="#000000" font-family="sans-serif" font-size="14" font-weight="bold" lengthAdjust="spacingAndGlyphs" textLength="242" x="315.5" y="21.9951">Moderator-Client Online Mode</text><!--MD5=[38a8dc48bb399ab53c882a2c6550d17d]
cluster Moderator-Client Offline Mode--><rect fill="#FFFFFF" filter="url(#f1vs2mu7opcvt8)" height="80" style="stroke: #000000; stroke-width: 1.5;" width="262" x="7" y="7"/><text fill="#000000" font-family="sans-serif" font-size="14" font-weight="bold" lengthAdjust="spacingAndGlyphs" textLength="246" x="15" y="21.9951">Moderator-Client Offline Mode</text><ellipse cx="508.033" cy="56.5236" fill="#FEFECE" filter="url(#f1vs2mu7opcvt8)" rx="56.033" ry="14.5236" style="stroke: #A80036; stroke-width: 1.5;"/><text fill="#000000" font-family="sans-serif" font-size="14" lengthAdjust="spacingAndGlyphs" textLength="75" x="470.533" y="61.1721">Play Game</text><ellipse cx="362.9117" cy="56.5236" fill="#FEFECE" filter="url(#f1vs2mu7opcvt8)" rx="53.9117" ry="14.5236" style="stroke: #A80036; stroke-width: 1.5;"/><text fill="#000000" font-family="sans-serif" font-size="14" lengthAdjust="spacingAndGlyphs" textLength="72" x="326.9117" y="61.1721">Can Pause</text><ellipse cx="197.033" cy="56.5236" fill="#FEFECE" filter="url(#f1vs2mu7opcvt8)" rx="56.033" ry="14.5236" style="stroke: #A80036; stroke-width: 1.5;"/><text fill="#000000" font-family="sans-serif" font-size="14" lengthAdjust="spacingAndGlyphs" textLength="75" x="159.533" y="61.1721">Play Game</text><!--MD5=[8b944653c655024075d894af29a33c78]
entity SC--><ellipse cx="508" cy="140.5" fill="#FEFECE" filter="url(#f1vs2mu7opcvt8)" rx="8" ry="8" style="stroke: #A80036; stroke-width: 1.5;"/><path d="M508,148.5 L508,175.5 M495,156.5 L521,156.5 M508,175.5 L495,190.5 M508,175.5 L521,190.5 " fill="none" filter="url(#f1vs2mu7opcvt8)" style="stroke: #A80036; stroke-width: 1.5;"/><text fill="#000000" font-family="sans-serif" font-size="14" lengthAdjust="spacingAndGlyphs" textLength="47" x="484.5" y="208.9951">Server</text><!--MD5=[626ad08abde0879284d52f51a0eb42aa]
entity P--><ellipse cx="280" cy="140.5" fill="#FEFECE" filter="url(#f1vs2mu7opcvt8)" rx="8" ry="8" style="stroke: #A80036; stroke-width: 1.5;"/><path d="M280,148.5 L280,175.5 M267,156.5 L293,156.5 M280,175.5 L267,190.5 M280,175.5 L293,190.5 " fill="none" filter="url(#f1vs2mu7opcvt8)" style="stroke: #A80036; stroke-width: 1.5;"/><text fill="#000000" font-family="sans-serif" font-size="14" lengthAdjust="spacingAndGlyphs" textLength="75" x="242.5" y="208.9951">Moderator</text><!--MD5=[08a270da83c41d4c4fd89129cbe67956]
reverse link md to SC--><path d="M508,76.506 C508,91.296 508,112.3353 508,130.7598 " fill="none" id="md-backto-SC" style="stroke: #A80036; stroke-width: 1.0;"/><polygon fill="#A80036" points="508,71.356,504,80.356,508,76.356,512,80.356,508,71.356" style="stroke: #A80036; stroke-width: 1.0;"/><!--MD5=[d82a94c5a667db5081a765ff77e69d6d]
reverse link cp to P--><path d="M349.931,75.293 C338.999,90.176 323,111.958 309.062,130.9334 " fill="none" id="cp-backto-P" style="stroke: #A80036; stroke-width: 1.0;"/><polygon fill="#A80036" points="353.153,70.906,344.6006,75.7903,350.1925,74.9353,351.0475,80.5272,353.153,70.906" style="stroke: #A80036; stroke-width: 1.0;"/><!--MD5=[050efc78cd2a1b664d9d293c796b31b5]
reverse link md2 to P--><path d="M210.069,75.293 C221.001,90.176 237,111.958 250.938,130.9334 " fill="none" id="md2-backto-P" style="stroke: #A80036; stroke-width: 1.0;"/><polygon fill="#A80036" points="206.847,70.906,208.9525,80.5272,209.8075,74.9353,215.3994,75.7903,206.847,70.906" style="stroke: #A80036; stroke-width: 1.0;"/><!--MD5=[044d0d226a2e647c8d29f47a2d1c4c30]
@startuml
actor "Server" as SC
actor "Moderator" as P

rectangle "Moderator-Client Online Mode" {
    usecase "Play Game" as md
    usecase "Can Pause" as cp
} 

rectangle "Moderator-Client Offline Mode" {
    usecase "Play Game" as md2
}

SC -up-> md
P -up-> cp

P -up-> md2
@enduml

PlantUML version 1.2020.20beta4(Unknown compile time)
(GPL source distribution)
Java Runtime: Java(TM) SE Runtime Environment
JVM: Java HotSpot(TM) 64-Bit Server VM
Default Encoding: UTF-8
Language: en
Country: US
--></g></svg>