<?xml version="1.0" encoding="UTF-8" standalone="no"?><svg xmlns="http://www.w3.org/2000/svg" xmlns:xlink="http://www.w3.org/1999/xlink" contentScriptType="application/ecmascript" contentStyleType="text/css" height="326px" preserveAspectRatio="none" style="width:1031px;height:326px;" version="1.1" viewBox="0 0 1031 326" width="1031px" zoomAndPan="magnify"><defs><filter height="300%" id="f43i0ond4afq3" width="300%" x="-1" y="-1"><feGaussianBlur result="blurOut" stdDeviation="2.0"/><feColorMatrix in="blurOut" result="blurOut2" type="matrix" values="0 0 0 0 0 0 0 0 0 0 0 0 0 0 0 0 0 0 .4 0"/><feOffset dx="4.0" dy="4.0" in="blurOut2" result="blurOut3"/><feBlend in="SourceGraphic" in2="blurOut3" mode="normal"/></filter></defs><g><!--MD5=[fc692fc0a85e4d89207d3f4ee1fc179c]
cluster Start Application--><rect fill="#FFFFFF" filter="url(#f43i0ond4afq3)" height="217" style="stroke: #000000; stroke-width: 1.5;" width="1012" x="7" y="7"/><text fill="#000000" font-family="sans-serif" font-size="14" font-weight="bold" lengthAdjust="spacingAndGlyphs" textLength="141" x="442.5" y="21.9951">Start Application</text><ellipse cx="369.1884" cy="179.8377" fill="#FEFECE" filter="url(#f43i0ond4afq3)" rx="77.1884" ry="17.8377" style="stroke: #A80036; stroke-width: 1.5;"/><text fill="#000000" font-family="sans-serif" font-size="14" lengthAdjust="spacingAndGlyphs" textLength="124" x="307.1884" y="184.4861">Start Application</text><ellipse cx="95.9472" cy="193.0236" fill="#FEFECE" filter="url(#f43i0ond4afq3)" rx="57.4472" ry="14.5236" style="stroke: #A80036; stroke-width: 1.5;"/><text fill="#000000" font-family="sans-serif" font-size="14" lengthAdjust="spacingAndGlyphs" textLength="77" x="57.4472" y="197.6721">Show Intro</text><ellipse cx="368.9711" cy="93.0942" fill="#FEFECE" filter="url(#f43i0ond4afq3)" rx="73.4711" ry="17.0942" style="stroke: #A80036; stroke-width: 1.5;"/><text fill="#000000" font-family="sans-serif" font-size="14" lengthAdjust="spacingAndGlyphs" textLength="115" x="311.4711" y="97.7427">Show Mainmenu</text><ellipse cx="96.1107" cy="126.8221" fill="#FEFECE" filter="url(#f43i0ond4afq3)" rx="67.1107" ry="15.8221" style="stroke: #A80036; stroke-width: 1.5;"/><text fill="#000000" font-family="sans-serif" font-size="14" lengthAdjust="spacingAndGlyphs" textLength="99" x="46.6107" y="131.4706">Show Options</text><ellipse cx="96.0637" cy="59.0127" fill="#FEFECE" filter="url(#f43i0ond4afq3)" rx="73.0637" ry="17.0127" style="stroke: #A80036; stroke-width: 1.5;"/><text fill="#000000" font-family="sans-serif" font-size="14" lengthAdjust="spacingAndGlyphs" textLength="114" x="39.0637" y="63.6612">End Application</text><ellipse cx="652.1307" cy="80.0261" fill="#FEFECE" filter="url(#f43i0ond4afq3)" rx="83.1307" ry="19.0261" style="stroke: #A80036; stroke-width: 1.5;"/><text fill="#000000" font-family="sans-serif" font-size="14" lengthAdjust="spacingAndGlyphs" textLength="138" x="583.1307" y="84.6746">Start Offline-Game</text><ellipse cx="652.0624" cy="153.0125" fill="#FEFECE" filter="url(#f43i0ond4afq3)" rx="80.5624" ry="18.5125" style="stroke: #A80036; stroke-width: 1.5;"/><text fill="#000000" font-family="sans-serif" font-size="14" lengthAdjust="spacingAndGlyphs" textLength="132" x="586.0624" y="157.6609">Connect to Server</text><ellipse cx="918.2756" cy="149.0236" fill="#FEFECE" filter="url(#f43i0ond4afq3)" rx="60.2756" ry="14.5236" style="stroke: #A80036; stroke-width: 1.5;"/><text fill="#000000" font-family="sans-serif" font-size="14" lengthAdjust="spacingAndGlyphs" textLength="81" x="877.7756" y="153.6721">Start game</text><!--MD5=[c617d1e94391e02d80a02faf38d11fae]
entity m--><ellipse cx="369" cy="250" fill="#FEFECE" filter="url(#f43i0ond4afq3)" rx="8" ry="8" style="stroke: #A80036; stroke-width: 1.5;"/><path d="M369,258 L369,285 M356,266 L382,266 M369,285 L356,300 M369,285 L382,300 " fill="none" filter="url(#f43i0ond4afq3)" style="stroke: #A80036; stroke-width: 1.5;"/><text fill="#000000" font-family="sans-serif" font-size="14" lengthAdjust="spacingAndGlyphs" textLength="75" x="331.5" y="318.4951">Moderator</text><!--MD5=[051be2fd78f954f5152ae04633b10bc0]
entity se--><ellipse cx="652" cy="250" fill="#FEFECE" filter="url(#f43i0ond4afq3)" rx="8" ry="8" style="stroke: #A80036; stroke-width: 1.5;"/><path d="M652,258 L652,285 M639,266 L665,266 M652,285 L639,300 M652,285 L665,300 " fill="none" filter="url(#f43i0ond4afq3)" style="stroke: #A80036; stroke-width: 1.5;"/><text fill="#000000" font-family="sans-serif" font-size="14" lengthAdjust="spacingAndGlyphs" textLength="47" x="628.5" y="318.4951">Server</text><!--MD5=[62ef75d2d0d3313071eebdef91244375]
link m to s--><path d="M369,240.3633 C369,228.1216 369,215.88 369,203.638 " fill="none" id="m-to-s" style="stroke: #A80036; stroke-width: 1.0;"/><polygon fill="#A80036" points="369,198.392,365,207.392,369,203.392,373,207.392,369,198.392" style="stroke: #A80036; stroke-width: 1.0;"/><!--MD5=[fa1662f9892c425c0470e3655fa5a51f]
link ia to s--><path d="M152.823,190.322 C191.907,188.447 244.708,185.914 288.224,183.827 " fill="none" id="ia-to-s" style="stroke: #A80036; stroke-width: 1.0; stroke-dasharray: 7.0,7.0;"/><polygon fill="#A80036" points="293.483,183.575,284.3014,180.0116,288.4888,183.815,284.6854,188.0024,293.483,183.575" style="stroke: #A80036; stroke-width: 1.0;"/><text fill="#000000" font-family="sans-serif" font-size="13" lengthAdjust="spacingAndGlyphs" textLength="61" x="200" y="181.0669">«extend»</text><!--MD5=[9273a4ebf684387916dc8824b913d1cf]
link s to mm--><path d="M369,161.974 C369,148.409 369,129.743 369,115.249 " fill="none" id="s-to-mm" style="stroke: #A80036; stroke-width: 1.0; stroke-dasharray: 7.0,7.0;"/><polygon fill="#A80036" points="369,110.115,365,119.115,369,115.115,373,119.115,369,110.115" style="stroke: #A80036; stroke-width: 1.0;"/><text fill="#000000" font-family="sans-serif" font-size="13" lengthAdjust="spacingAndGlyphs" textLength="61" x="327" y="140.5669">«include»</text><!--MD5=[1b05c204b41309a8bace34501bd9edad]
link so to mm--><path d="M163.117,126.692 C193.387,125.809 229.646,123.708 262,119 C280.339,116.332 300.137,111.907 317.603,107.458 " fill="none" id="so-to-mm" style="stroke: #A80036; stroke-width: 1.0; stroke-dasharray: 7.0,7.0;"/><polygon fill="#A80036" points="322.464,106.204,312.7498,104.5809,317.6228,107.454,314.7497,112.3269,322.464,106.204" style="stroke: #A80036; stroke-width: 1.0;"/><text fill="#000000" font-family="sans-serif" font-size="13" lengthAdjust="spacingAndGlyphs" textLength="61" x="200" y="115.0669">«extend»</text><!--MD5=[d872a91f0586aa32494e8acb22683f88]
link cs to sg--><path d="M732.359,151.8 C770.793,151.219 816.363,150.529 852.675,149.98 " fill="none" id="cs-to-sg" style="stroke: #A80036; stroke-width: 1.0; stroke-dasharray: 7.0,7.0;"/><polygon fill="#A80036" points="857.963,149.9,848.9035,146.0367,852.9636,149.9757,849.0246,154.0358,857.963,149.9" style="stroke: #A80036; stroke-width: 1.0;"/><text fill="#000000" font-family="sans-serif" font-size="13" lengthAdjust="spacingAndGlyphs" textLength="61" x="766" y="146.0669">«include»</text><!--MD5=[3792b75cc9f0d609255ee091c0f16e1d]
link mm to cs--><path d="M423.591,104.494 C458.806,112.042 505.892,122.124 547.5,131 C560.268,133.724 573.923,136.631 586.989,139.409 " fill="none" id="mm-to-cs" style="stroke: #A80036; stroke-width: 1.0; stroke-dasharray: 7.0,7.0;"/><polygon fill="#A80036" points="592.157,140.508,584.1857,134.7237,587.2663,139.4682,582.5219,142.5488,592.157,140.508" style="stroke: #A80036; stroke-width: 1.0;"/><text fill="#000000" font-family="sans-serif" font-size="13" lengthAdjust="spacingAndGlyphs" textLength="61" x="477" y="112.0669">«include»</text><!--MD5=[ce06859d123478ee66537d355c69de2f]
link ea to mm--><path d="M160.537,66.971 C202.029,72.177 256.204,78.974 298.788,84.317 " fill="none" id="ea-to-mm" style="stroke: #A80036; stroke-width: 1.0; stroke-dasharray: 7.0,7.0;"/><polygon fill="#A80036" points="303.922,84.961,295.4889,79.8735,298.9608,84.3396,294.4947,87.8115,303.922,84.961" style="stroke: #A80036; stroke-width: 1.0;"/><text fill="#000000" font-family="sans-serif" font-size="13" lengthAdjust="spacingAndGlyphs" textLength="61" x="200" y="67.0669">«extend»</text><!--MD5=[0ca2b60b7b86f702d5dc49e22b1ef3c3]
reverse link se to cs--><path d="M652,234.9302 C652,213.851 652,192.771 652,171.691 " fill="none" id="se-backto-cs" style="stroke: #A80036; stroke-width: 1.0;"/><polygon fill="#A80036" points="652,240,656,231,652,235,648,231,652,240" style="stroke: #A80036; stroke-width: 1.0;"/><!--MD5=[81af459880e2847ae533ec1911ff2738]
link mm to og--><path d="M441.271,89.703 C478.929,87.961 525.432,85.809 565.073,83.975 " fill="none" id="mm-to-og" style="stroke: #A80036; stroke-width: 1.0; stroke-dasharray: 7.0,7.0;"/><polygon fill="#A80036" points="570.369,83.73,561.1935,80.1508,565.3744,83.9614,561.5637,88.1422,570.369,83.73" style="stroke: #A80036; stroke-width: 1.0;"/><text fill="#000000" font-family="sans-serif" font-size="13" lengthAdjust="spacingAndGlyphs" textLength="61" x="477" y="81.0669">«include»</text><!--MD5=[7905801ec42d5fb6c4bea6e7e29b60bc]
@startuml
left to right direction

rectangle "Start Application" {
    usecase "Start Application" as s
    usecase "Show Intro" as ia
    usecase "Show Mainmenu" as mm
    usecase "Show Options" as so
    usecase "End Application" as ea
    usecase "Start Offline-Game" as og
    together {
    usecase "Connect to Server" as cs
    usecase "Start game" as sg
    }
}
actor "Moderator" as m
actor "Server" as se
'actor "PlayerAudience" as p



m -right-> s
ia .down.> s : <<extend>>
s .right.> mm : <<include>>
so .down.> mm : <<extend>>
cs .down.> sg : <<include>>
mm ..> cs : <<include>>
ea ..> mm : <<extend>>
cs -left-> se
mm ..> og : <<include>>
@enduml

@startuml
left to right direction

rectangle "Start Application" {
    usecase "Start Application" as s
    usecase "Show Intro" as ia
    usecase "Show Mainmenu" as mm
    usecase "Show Options" as so
    usecase "End Application" as ea
    usecase "Start Offline-Game" as og
    together {
    usecase "Connect to Server" as cs
    usecase "Start game" as sg
    }
}
actor "Moderator" as m
actor "Server" as se



m -right-> s
ia .down.> s : <<extend>>
s .right.> mm : <<include>>
so .down.> mm : <<extend>>
cs .down.> sg : <<include>>
mm ..> cs : <<include>>
ea ..> mm : <<extend>>
cs -left-> se
mm ..> og : <<include>>
@enduml

PlantUML version 1.2020.20beta7(Unknown compile time)
(GPL source distribution)
Java Runtime: Java(TM) SE Runtime Environment
JVM: Java HotSpot(TM) 64-Bit Server VM
Default Encoding: UTF-8
Language: en
Country: US
--></g></svg>