<?xml version="1.0" encoding="UTF-8" standalone="no"?><svg xmlns="http://www.w3.org/2000/svg" xmlns:xlink="http://www.w3.org/1999/xlink" contentScriptType="application/ecmascript" contentStyleType="text/css" height="370px" preserveAspectRatio="none" style="width:751px;height:370px;" version="1.1" viewBox="0 0 751 370" width="751px" zoomAndPan="magnify"><defs><filter height="300%" id="ftq8s0d7tww2c" width="300%" x="-1" y="-1"><feGaussianBlur result="blurOut" stdDeviation="2.0"/><feColorMatrix in="blurOut" result="blurOut2" type="matrix" values="0 0 0 0 0 0 0 0 0 0 0 0 0 0 0 0 0 0 .4 0"/><feOffset dx="4.0" dy="4.0" in="blurOut2" result="blurOut3"/><feBlend in="SourceGraphic" in2="blurOut3" mode="normal"/></filter></defs><g><ellipse cx="397" cy="16" fill="#000000" filter="url(#ftq8s0d7tww2c)" rx="10" ry="10" style="stroke: none; stroke-width: 1.0;"/><rect fill="#FEFECE" filter="url(#ftq8s0d7tww2c)" height="47.9375" rx="12.5" ry="12.5" style="stroke: #A80036; stroke-width: 1.5;" width="425" x="184.5" y="67"/><text fill="#000000" font-family="sans-serif" font-size="12" lengthAdjust="spacingAndGlyphs" textLength="156" x="317" y="88.1387">The project is completed,</text><text fill="#000000" font-family="sans-serif" font-size="12" lengthAdjust="spacingAndGlyphs" textLength="401" x="198.5" y="102.1074">now the best employees are rewarded with a workshop in Hawaii.</text><polygon fill="#FEFECE" filter="url(#ftq8s0d7tww2c)" points="397,156,409,168,397,180,385,168,397,156" style="stroke: #A80036; stroke-width: 1.5;"/><rect fill="#FEFECE" filter="url(#ftq8s0d7tww2c)" height="47.9375" rx="12.5" ry="12.5" style="stroke: #A80036; stroke-width: 1.5;" width="220" x="7" y="234"/><text fill="#000000" font-family="sans-serif" font-size="12" lengthAdjust="spacingAndGlyphs" textLength="97" x="66.5" y="255.1387">Congratulations,</text><text fill="#000000" font-family="sans-serif" font-size="12" lengthAdjust="spacingAndGlyphs" textLength="196" x="21" y="269.1074">you are invited to the workshop.</text><rect fill="#FEFECE" filter="url(#ftq8s0d7tww2c)" height="47.9375" rx="12.5" ry="12.5" style="stroke: #A80036; stroke-width: 1.5;" width="300" x="247" y="234"/><text fill="#000000" font-family="sans-serif" font-size="12" lengthAdjust="spacingAndGlyphs" textLength="276" x="257" y="255.1387">Unfortunately it was not quite enough for you,</text><text fill="#000000" font-family="sans-serif" font-size="12" lengthAdjust="spacingAndGlyphs" textLength="199" x="299.5" y="269.1074">good luck with your next project.</text><rect fill="#FEFECE" filter="url(#ftq8s0d7tww2c)" height="33.9688" rx="12.5" ry="12.5" style="stroke: #A80036; stroke-width: 1.5;" width="120" x="567" y="241"/><text fill="#000000" font-family="sans-serif" font-size="12" lengthAdjust="spacingAndGlyphs" textLength="100" x="577" y="262.1387">You will be fired.</text><rect fill="#FEFECE" filter="url(#ftq8s0d7tww2c)" height="33.9688" rx="12.5" ry="12.5" style="stroke: #A80036; stroke-width: 1.5;" width="71" x="361.5" y="323"/><text fill="#000000" font-family="sans-serif" font-size="12" lengthAdjust="spacingAndGlyphs" textLength="51" x="371.5" y="344.1387">THE END</text><!--MD5=[18d316b4bbce2ddd613fa2e156c92beb]
link start to shop--><path d="M397,26.246 C397,35.108 397,48.951 397,61.477 " fill="none" id="start-to-shop" style="stroke: #A80036; stroke-width: 1.0;"/><polygon fill="#A80036" points="397,66.746,401,57.746,397,61.746,393,57.746,397,66.746" style="stroke: #A80036; stroke-width: 1.0;"/><!--MD5=[c85d072f9724a71ebb480695a2f3088b]
link shop to #539031--><path d="M397,115.319 C397,126.744 397,140.228 397,150.558 " fill="none" id="shop-to-#539031" style="stroke: #A80036; stroke-width: 1.0;"/><polygon fill="#A80036" points="397,155.645,401,146.645,397,150.645,393,146.645,397,155.645" style="stroke: #A80036; stroke-width: 1.0;"/><text fill="#000000" font-family="sans-serif" font-size="11" lengthAdjust="spacingAndGlyphs" textLength="0" x="396.075" y="145.5523"/><!--MD5=[800dfdbd94338d26b4d1d7a7ae18de15]
link #539031 to a--><path d="M387.268,170.4 C363.575,173.952 301.163,184.169 251,200 C223.538,208.667 193.986,220.906 169.64,231.822 " fill="none" id="#539031-to-a" style="stroke: #A80036; stroke-width: 1.0;"/><polygon fill="#A80036" points="164.842,233.986,174.6907,233.9326,169.4,231.9306,171.402,226.6398,164.842,233.986" style="stroke: #A80036; stroke-width: 1.0;"/><text fill="#000000" font-family="sans-serif" font-size="11" lengthAdjust="spacingAndGlyphs" textLength="139" x="252" y="211.2104">Number of all stats &gt; 15</text><!--MD5=[c58f3458722c4b8f4a7f3d293f73c593]
link #539031 to b--><path d="M397,180.145 C397,192.3 397,212.227 397,228.744 " fill="none" id="#539031-to-b" style="stroke: #A80036; stroke-width: 1.0;"/><polygon fill="#A80036" points="397,233.748,401,224.748,397,228.748,393,224.748,397,233.748" style="stroke: #A80036; stroke-width: 1.0;"/><text fill="#000000" font-family="sans-serif" font-size="11" lengthAdjust="spacingAndGlyphs" textLength="194" x="398" y="211.2104">Number of all stats &lt;= 15 &amp;&amp; &gt; 5</text><!--MD5=[5d5c9eac5d0815a09eac84ad7907c3a0]
link #539031 to You will be fired.--><path d="M407.668,169.386 C444.688,170.912 567.039,177.588 598,200 C609.91,208.621 617.258,223.575 621.577,236.003 " fill="none" id="#539031-to-You will be fired." style="stroke: #A80036; stroke-width: 1.0;"/><polygon fill="#A80036" points="623.14,240.798,624.1533,231.0014,621.5902,236.0443,616.5473,233.4811,623.14,240.798" style="stroke: #A80036; stroke-width: 1.0;"/><text fill="#000000" font-family="sans-serif" font-size="11" lengthAdjust="spacingAndGlyphs" textLength="132" x="611" y="211.2104">Number of all stats &lt; 5</text><!--MD5=[6f8bc6b6227262c421776b39c447487f]
link You will be fired. to ende--><path d="M580.733,275.093 C538.756,289.6934 477.482,311.0062 437.428,324.9381 " fill="none" id="You will be fired.-to-ende" style="stroke: #0000FF; stroke-width: 1.0; stroke-dasharray: 1.0,3.0;"/><polygon fill="#0000FF" points="432.651,326.5996,442.4656,327.4205,437.3734,324.9568,439.8371,319.8646,432.651,326.5996" style="stroke: #0000FF; stroke-width: 1.0;"/><!--MD5=[5f01f0a41c3bbf0f3ad364e24735df76]
link a to ende--><path d="M197.612,282.032 C249.62,296.8913 315.049,315.5855 356.464,327.4183 " fill="none" id="a-to-ende" style="stroke: #0000FF; stroke-width: 1.0; stroke-dasharray: 1.0,3.0;"/><polygon fill="#0000FF" points="361.393,328.8266,353.8373,322.5091,356.5852,327.4537,351.6406,330.2016,361.393,328.8266" style="stroke: #0000FF; stroke-width: 1.0;"/><!--MD5=[213d300c695a8e914e0915f419c52792]
link b to ende--><path d="M397,282.1393 C397,293.2433 397,306.4692 397,317.3699 " fill="none" id="b-to-ende" style="stroke: #0000FF; stroke-width: 1.0; stroke-dasharray: 1.0,3.0;"/><polygon fill="#0000FF" points="397,322.5149,401,313.5149,397,317.5149,393,313.5149,397,322.5149" style="stroke: #0000FF; stroke-width: 1.0;"/><!--MD5=[51e334ddbb07ddcadf948ffb674b7ead]
@startuml
(*) - -> "The project is completed, \n now the best employees are rewarded with a workshop in Hawaii." as shop
if "" then
- -> [Number of all stats > 15] "Congratulations, \n you are invited to the workshop." as a
else 
- -> [Number of all stats <= 15 && > 5] "Unfortunately it was not quite enough for you, \n good luck with your next project." as b
else
- -> [Number of all stats < 5] "You will be fired."
-[#blue,dotted]-> "THE END" as ende
a -[#blue,dotted]-> ende
b -[#blue,dotted]-> ende
@enduml

PlantUML version 1.2020.20beta13(Unknown compile time)
(GPL source distribution)
Java Runtime: Java(TM) SE Runtime Environment
JVM: Java HotSpot(TM) 64-Bit Server VM
Default Encoding: UTF-8
Language: en
Country: US
--></g></svg>