<?xml version="1.0" encoding="UTF-8" standalone="no"?>
<svg xmlns="http://www.w3.org/2000/svg" xmlns:xlink="http://www.w3.org/1999/xlink" contentScriptType="application/ecmascript" contentStyleType="text/css" height="807px" preserveAspectRatio="none" style="width:887px;height:807px;" version="1.1" viewBox="0 0 887 807" width="887px" zoomAndPan="magnify"><defs><filter height="300%" id="f19krkmmdiqe4j" width="300%" x="-1" y="-1"><feGaussianBlur result="blurOut" stdDeviation="2.0"/><feColorMatrix in="blurOut" result="blurOut2" type="matrix" values="0 0 0 0 0 0 0 0 0 0 0 0 0 0 0 0 0 0 .4 0"/><feOffset dx="4.0" dy="4.0" in="blurOut2" result="blurOut3"/><feBlend in="SourceGraphic" in2="blurOut3" mode="normal"/></filter></defs><g><ellipse cx="320" cy="16" fill="#000000" filter="url(#f19krkmmdiqe4j)" rx="10" ry="10" style="stroke: none; stroke-width: 1.0;"/><rect fill="#FEFECE" filter="url(#f19krkmmdiqe4j)" height="33.9688" rx="12.5" ry="12.5" style="stroke: #A80036; stroke-width: 1.5;" width="325" x="157.5" y="67"/><text fill="#000000" font-family="sans-serif" font-size="12" lengthAdjust="spacingAndGlyphs" textLength="305" x="167.5" y="88.1387">You are thirsty and want to get something to drink.</text><polygon fill="#FEFECE" filter="url(#f19krkmmdiqe4j)" points="320,142,332,154,320,166,308,154,320,142" style="stroke: #A80036; stroke-width: 1.5;"/><rect fill="#FEFECE" filter="url(#f19krkmmdiqe4j)" height="61.9063" rx="12.5" ry="12.5" style="stroke: #A80036; stroke-width: 1.5;" width="194" x="7" y="233"/><text fill="#000000" font-family="sans-serif" font-size="12" lengthAdjust="spacingAndGlyphs" textLength="174" x="17" y="254.1387">You got through the evening.</text><text fill="#000000" font-family="sans-serif" font-size="12" lengthAdjust="spacingAndGlyphs" textLength="112" x="50" y="268.1074">Your stats change:</text><text fill="#000000" font-family="sans-serif" font-size="12" lengthAdjust="spacingAndGlyphs" textLength="70" x="71" y="282.0762">+1 partying</text><rect fill="#FEFECE" filter="url(#f19krkmmdiqe4j)" height="33.9688" rx="12.5" ry="12.5" style="stroke: #A80036; stroke-width: 1.5;" width="142" x="499" y="247"/><text fill="#000000" font-family="sans-serif" font-size="12" lengthAdjust="spacingAndGlyphs" textLength="122" x="509" y="268.1387">You drink two shots.</text><polygon fill="#FEFECE" filter="url(#f19krkmmdiqe4j)" points="570,336,582,348,570,360,558,348,570,336" style="stroke: #A80036; stroke-width: 1.5;"/><polygon fill="#FEFECE" filter="url(#f19krkmmdiqe4j)" points="549,414,561,426,549,438,537,426,549,414" style="stroke: #A80036; stroke-width: 1.5;"/><rect fill="#FEFECE" filter="url(#f19krkmmdiqe4j)" height="103.8125" rx="12.5" ry="12.5" style="stroke: #A80036; stroke-width: 1.5;" width="262" x="135" y="540"/><text fill="#000000" font-family="sans-serif" font-size="12" lengthAdjust="spacingAndGlyphs" textLength="238" x="145" y="561.1387">Due to your excellent party experience</text><text fill="#000000" font-family="sans-serif" font-size="12" lengthAdjust="spacingAndGlyphs" textLength="126" x="203" y="575.1074">you are able to drink</text><text fill="#000000" font-family="sans-serif" font-size="12" lengthAdjust="spacingAndGlyphs" textLength="128" x="202" y="589.0762">and survive the party</text><text fill="#000000" font-family="sans-serif" font-size="12" lengthAdjust="spacingAndGlyphs" textLength="133" x="199.5" y="603.0449">without creating a stir.</text><text fill="#000000" font-family="sans-serif" font-size="12" lengthAdjust="spacingAndGlyphs" textLength="108" x="212" y="617.0137">Your stats change</text><text fill="#000000" font-family="sans-serif" font-size="12" lengthAdjust="spacingAndGlyphs" textLength="71" x="232.5" y="630.9824">+3 partying</text><rect fill="#FEFECE" filter="url(#f19krkmmdiqe4j)" height="103.8125" rx="12.5" ry="12.5" style="stroke: #A80036; stroke-width: 1.5;" width="283" x="417.5" y="540"/><text fill="#000000" font-family="sans-serif" font-size="12" lengthAdjust="spacingAndGlyphs" textLength="259" x="427.5" y="561.1387">You bring a good atmosphere to the party,</text><text fill="#000000" font-family="sans-serif" font-size="12" lengthAdjust="spacingAndGlyphs" textLength="224" x="447" y="575.1074">but your mentor and boss notice you</text><text fill="#000000" font-family="sans-serif" font-size="12" lengthAdjust="spacingAndGlyphs" textLength="247" x="437.5" y="589.0762">negatively, because you are quite drunk.</text><text fill="#000000" font-family="sans-serif" font-size="12" lengthAdjust="spacingAndGlyphs" textLength="112" x="503" y="603.0449">Your stats change:</text><text fill="#000000" font-family="sans-serif" font-size="12" lengthAdjust="spacingAndGlyphs" textLength="71" x="523.5" y="617.0137">+3 partying</text><text fill="#000000" font-family="sans-serif" font-size="12" lengthAdjust="spacingAndGlyphs" textLength="107" x="507.5" y="630.9824">-2 communication</text><rect fill="#FEFECE" filter="url(#f19krkmmdiqe4j)" height="61.9063" rx="12.5" ry="12.5" style="stroke: #A80036; stroke-width: 1.5;" width="282" x="591" y="458"/><text fill="#000000" font-family="sans-serif" font-size="12" lengthAdjust="spacingAndGlyphs" textLength="258" x="601" y="479.1387">You bring a good atmosphere to the party.</text><text fill="#000000" font-family="sans-serif" font-size="12" lengthAdjust="spacingAndGlyphs" textLength="112" x="678" y="493.1074">Your stats change:</text><text fill="#000000" font-family="sans-serif" font-size="12" lengthAdjust="spacingAndGlyphs" textLength="71" x="698.5" y="507.0762">+2 partying</text><rect fill="#FEFECE" filter="url(#f19krkmmdiqe4j)" height="33.9688" rx="12.5" ry="12.5" style="stroke: #A80036; stroke-width: 1.5;" width="236" x="261" y="685"/><text fill="#000000" font-family="sans-serif" font-size="12" lengthAdjust="spacingAndGlyphs" textLength="216" x="271" y="706.1387">The party is over and you go home.</text><rect fill="#FEFECE" filter="url(#f19krkmmdiqe4j)" height="33.9688" rx="12.5" ry="12.5" style="stroke: #A80036; stroke-width: 1.5;" width="265" x="246.5" y="760"/><text fill="#000000" font-family="sans-serif" font-size="12" lengthAdjust="spacingAndGlyphs" textLength="245" x="256.5" y="781.1387">A voluntary training course is coming up.</text><!--MD5=[37fb5b6f3f3c766445f07e95ea6f36a8]
link start to You are thirsty and want to get something to drink.--><path d="M320,26.177 C320,35.269 320,49.527 320,61.485 " fill="none" id="start-to-You are thirsty and want to get something to drink." style="stroke: #A80036; stroke-width: 1.0;"/><polygon fill="#A80036" points="320,66.791,324,57.791,320,61.791,316,57.791,320,66.791" style="stroke: #A80036; stroke-width: 1.0;"/><!--MD5=[c3b031a9bd26280c92f7cca2b6bea09f]
link You are thirsty and want to get something to drink. to #996138--><path d="M320,101.115 C320,111.916 320,126.082 320,136.883 " fill="none" id="You are thirsty and want to get something to drink.-to-#996138" style="stroke: #A80036; stroke-width: 1.0;"/><polygon fill="#A80036" points="320,141.885,324,132.885,320,136.885,316,132.885,320,141.885" style="stroke: #A80036; stroke-width: 1.0;"/><text fill="#000000" font-family="sans-serif" font-size="11" lengthAdjust="spacingAndGlyphs" textLength="107" x="193.2719" y="133.5639">What do you take?</text><!--MD5=[72b25495c60ec297c3e3ace5bb1eba29]
link #996138 to lightParty--><path d="M308.409,154.607 C264.878,153.403 112.108,151.717 82,186 C71.8619,197.544 74.576,213.47 80.9355,227.843 " fill="none" id="#996138-to-lightParty" style="stroke: #A80036; stroke-width: 1.0;"/><polygon fill="#A80036" points="83.2186,232.65,82.9719,222.8042,81.0741,228.1332,75.7451,226.2354,83.2186,232.65" style="stroke: #A80036; stroke-width: 1.0;"/><text fill="#000000" font-family="sans-serif" font-size="11" lengthAdjust="spacingAndGlyphs" textLength="211" x="83" y="203.7104">One beer is enough for the evening.</text><!--MD5=[72b25495c60ec297c3e3ace5bb1eba29]
link #996138 to lightParty--><path d="M318.671,164.761 C316.383,177.712 310.462,200.402 296,213 C271.099,234.69 237.922,247.147 206.159,254.244 " fill="none" id="#996138-to-lightParty-1" style="stroke: #A80036; stroke-width: 1.0;"/><polygon fill="#A80036" points="201.074,255.338,210.714,257.3556,205.9622,254.2864,209.0314,249.5345,201.074,255.338" style="stroke: #A80036; stroke-width: 1.0;"/><text fill="#000000" font-family="sans-serif" font-size="11" lengthAdjust="spacingAndGlyphs" textLength="223" x="314" y="203.7104">A good old spezi is perfectly sufficient.</text><!--MD5=[004ff9f39ea36b66b8f897958756f1ce]
link #996138 to You drink two shots.--><path d="M331.102,155.063 C371.501,155.51 510.028,159.017 543,186 C559.592,199.578 566.002,224.013 568.471,241.723 " fill="none" id="#996138-to-You drink two shots." style="stroke: #A80036; stroke-width: 1.0;"/><polygon fill="#A80036" points="569.117,246.984,571.9888,237.5631,568.5069,242.0214,564.0486,238.5394,569.117,246.984" style="stroke: #A80036; stroke-width: 1.0;"/><text fill="#000000" font-family="sans-serif" font-size="11" lengthAdjust="spacingAndGlyphs" textLength="170" x="626.5" y="197.2104">A few Tequilla shots will do it,</text><text fill="#000000" font-family="sans-serif" font-size="11" lengthAdjust="spacingAndGlyphs" textLength="303" x="562" y="210.0151">after all it's for free, you should take advantage of it.</text><!--MD5=[e5e6cbe068d3700956d4bf29f0bafa36]
link You drink two shots. to #996146--><path d="M570,281.201 C570,295.375 570,315.884 570,330.226 " fill="none" id="You drink two shots.-to-#996146" style="stroke: #A80036; stroke-width: 1.0;"/><polygon fill="#A80036" points="570,335.582,574,326.582,570,330.582,566,326.582,570,335.582" style="stroke: #A80036; stroke-width: 1.0;"/><text fill="#000000" font-family="sans-serif" font-size="11" lengthAdjust="spacingAndGlyphs" textLength="87" x="454.6094" y="312.6393">Do you want to</text><text fill="#000000" font-family="sans-serif" font-size="11" lengthAdjust="spacingAndGlyphs" textLength="101" x="451.6094" y="325.444">drink more shots?</text><!--MD5=[c58d9c8a8e819f934ba9fd0365dba182]
link #996146 to drink--><path d="M564.252,355.057 C559.122,360.914 551.975,370.305 549,380 C546.002,389.773 546.068,401.311 546.85,410.257 " fill="none" id="#996146-to-drink" style="stroke: #A80036; stroke-width: 1.0;"/><polygon fill="#A80036" points="547.408,415.453,550.4234,406.0771,546.8737,410.4816,542.4692,406.932,547.408,415.453" style="stroke: #A80036; stroke-width: 1.0;"/><text fill="#000000" font-family="sans-serif" font-size="11" lengthAdjust="spacingAndGlyphs" textLength="156" x="550" y="391.2104">You drink a few more shots</text><text fill="#000000" font-family="sans-serif" font-size="11" lengthAdjust="spacingAndGlyphs" textLength="132" x="397.2427" y="409.3246">partying + dice roll &gt; 8</text><!--MD5=[2ee33e5151cd48a3e28d80fc7ff64939]
link drink to goodEnd--><path d="M542.004,431.054 C516.852,445.63 428.789,496.663 358.816,537.213 " fill="none" id="drink-to-goodEnd" style="stroke: #A80036; stroke-width: 1.0;"/><polygon fill="#A80036" points="354.234,539.868,364.0265,538.8157,358.5599,537.3607,360.0149,531.8942,354.234,539.868" style="stroke: #A80036; stroke-width: 1.0;"/><text fill="#000000" font-family="sans-serif" font-size="11" lengthAdjust="spacingAndGlyphs" textLength="23" x="495" y="493.2104">true</text><!--MD5=[891ea4a45813ab986546a7098bb3f8b0]
link drink to heavydrunk--><path d="M548.914,438.181 C548.852,455.66 549.026,490.512 551,520 C551.323,524.827 551.734,529.831 552.197,534.846 " fill="none" id="drink-to-heavydrunk" style="stroke: #A80036; stroke-width: 1.0;"/><polygon fill="#A80036" points="552.677,539.859,555.8025,530.5192,552.2013,534.8817,547.8388,531.2804,552.677,539.859" style="stroke: #A80036; stroke-width: 1.0;"/><text fill="#000000" font-family="sans-serif" font-size="11" lengthAdjust="spacingAndGlyphs" textLength="28" x="552" y="493.2104">false</text><!--MD5=[f01f9e3ad82eafdbd77b6db2dbfe8ca9]
link #996146 to You bring a good atmosphere to the party. \n Your stats change:\n +2 partying--><path d="M580.414,349.914 C609.366,352.668 689.876,361.835 708,380 C726.792,398.835 732.274,428.909 733.348,452.544 " fill="none" id="#996146-to-You bring a good atmosphere to the party. \n Your stats change:\n +2 partying" style="stroke: #A80036; stroke-width: 1.0;"/><polygon fill="#A80036" points="733.52,457.788,737.2221,448.6614,733.3557,452.7907,729.2264,448.9243,733.52,457.788" style="stroke: #A80036; stroke-width: 1.0;"/><text fill="#000000" font-family="sans-serif" font-size="11" lengthAdjust="spacingAndGlyphs" textLength="154" x="719" y="391.2104">No, 2 are enough for today</text><!--MD5=[68e1d1fd5e1455dd8b736e42e433260d]
link You bring a good atmosphere to the party. \n Your stats change:\n +2 partying to home--><path d="M737.389,520.214 C741.693,554.929 742.591,611.3 711,644 C682.372,673.633 584.677,687.913 502.619,694.7646 " fill="none" id="You bring a good atmosphere to the party. \n Your stats change:\n +2 partying-to-home" style="stroke: #A80036; stroke-width: 1.0;"/><polygon fill="#A80036" points="497.238,695.2052,506.5348,698.4564,502.2213,694.7966,505.881,690.4831,497.238,695.2052" style="stroke: #A80036; stroke-width: 1.0;"/><!--MD5=[242e7d3c86e05962b21e8783090c5363]
link heavydrunk to home--><path d="M473.744,644.154 C451.127,657.724 428.108,671.535 410.424,682.145 " fill="none" id="heavydrunk-to-home" style="stroke: #A80036; stroke-width: 1.0;"/><polygon fill="#A80036" points="406.047,684.772,415.8223,683.5706,410.3342,682.1991,411.7057,676.711,406.047,684.772" style="stroke: #A80036; stroke-width: 1.0;"/><!--MD5=[f4fe7437719df02c534d41fe5fb46e16]
link lightParty to home--><path d="M104,295.375 C104,310.831 104,329.917 104,347 C104,347 104,347 104,593 C104,617.513 106.2588,628.199 125,644 C145.46,661.25 201.349,674.738 255.509,684.254 " fill="none" id="lightParty-to-home" style="stroke: #A80036; stroke-width: 1.0;"/><polygon fill="#A80036" points="260.743,685.162,252.5586,679.6833,255.8165,684.3078,251.192,687.5657,260.743,685.162" style="stroke: #A80036; stroke-width: 1.0;"/><!--MD5=[516670722ccd23130a82a9c66eba9461]
link goodEnd to home--><path d="M319.522,644.154 C333.239,657.264 347.192,670.599 358.132,681.056 " fill="none" id="goodEnd-to-home" style="stroke: #A80036; stroke-width: 1.0;"/><polygon fill="#A80036" points="362.021,684.772,358.2784,675.662,358.4064,681.3174,352.751,681.4454,362.021,684.772" style="stroke: #A80036; stroke-width: 1.0;"/><!--MD5=[0a28c061adde404286524750abc21cd3]
link home to A voluntary training course is coming up.--><path d="M379,719.2011 C379,729.6917 379,743.4627 379,754.8176 " fill="none" id="home-to-A voluntary training course is coming up." style="stroke: #0000FF; stroke-width: 1.0; stroke-dasharray: 1.0,3.0;"/><polygon fill="#0000FF" points="379,759.8442,383,750.8442,379,754.8442,375,750.8442,379,759.8442" style="stroke: #0000FF; stroke-width: 1.0;"/><!--MD5=[fa36295bd0052b84b778fd6b1a691b8d]
@startuml
(*) - -> "You are thirsty and want to get something to drink."
if "What do you take?" then 
- -> [One beer is enough for the evening.] "You got through the evening.\n Your stats change:\n +1 partying" as lightParty
else 
- -> [A good old spezi is perfectly sufficient.] lightParty
else 
- ->[A few Tequilla shots will do it, \nafter all it's for free, you should take advantage of it.]"You drink two shots."
if "Do you want to \n drink more shots?" then 
- -> [You drink a few more shots] if "partying + dice roll > 8" as drink then 
- -> [true] "Due to your excellent party experience \n you are able to drink \n and survive the party \n without creating a stir. \n Your stats change \n +3 partying" as goodEnd
else 
- -> [false] "You bring a good atmosphere to the party, \n but your mentor and boss notice you \n negatively, because you are quite drunk.\n Your stats change: \n +3 partying \n -2 communication" as heavydrunk
endif
else 
- -> [No, 2 are enough for today] "You bring a good atmosphere to the party. \n Your stats change:\n +2 partying"
endif
- -> "The party is over and you go home." as home
heavydrunk - -> home
lightParty - -> home
goodEnd - -> home
-[#blue,dotted]-> "A voluntary training course is coming up."
@enduml

PlantUML version 1.2020.20beta13(Unknown compile time)
(GPL source distribution)
Java Runtime: Java(TM) SE Runtime Environment
JVM: Java HotSpot(TM) 64-Bit Server VM
Default Encoding: UTF-8
Language: en
Country: US
--></g></svg>