<?xml version="1.0" encoding="UTF-8" standalone="no"?>
<svg xmlns="http://www.w3.org/2000/svg" xmlns:xlink="http://www.w3.org/1999/xlink" contentScriptType="application/ecmascript" contentStyleType="text/css" height="431px" preserveAspectRatio="none" style="width:751px;height:431px;" version="1.1" viewBox="0 0 751 431" width="751px" zoomAndPan="magnify"><defs><filter height="300%" id="f3hdayalinyod" width="300%" x="-1" y="-1"><feGaussianBlur result="blurOut" stdDeviation="2.0"/><feColorMatrix in="blurOut" result="blurOut2" type="matrix" values="0 0 0 0 0 0 0 0 0 0 0 0 0 0 0 0 0 0 .4 0"/><feOffset dx="4.0" dy="4.0" in="blurOut2" result="blurOut3"/><feBlend in="SourceGraphic" in2="blurOut3" mode="normal"/></filter></defs><g><ellipse cx="397" cy="16" fill="#000000" filter="url(#f3hdayalinyod)" rx="10" ry="10" style="stroke: none; stroke-width: 1.0;"/><rect fill="#FEFECE" filter="url(#f3hdayalinyod)" height="33.9688" rx="12.5" ry="12.5" style="stroke: #A80036; stroke-width: 1.5;" width="221" x="286.5" y="67"/><text fill="#000000" font-family="sans-serif" font-size="12" lengthAdjust="spacingAndGlyphs" textLength="201" x="296.5" y="88.1387">The project has been completed.</text><rect fill="#FEFECE" filter="url(#f3hdayalinyod)" height="33.9688" rx="12.5" ry="12.5" style="stroke: #A80036; stroke-width: 1.5;" width="395" x="199.5" y="142"/><text fill="#000000" font-family="sans-serif" font-size="12" lengthAdjust="spacingAndGlyphs" textLength="375" x="209.5" y="163.1387">The best employees are rewarded with a workshop in Hawaii.</text><polygon fill="#FEFECE" filter="url(#f3hdayalinyod)" points="397,217,409,229,397,241,385,229,397,217" style="stroke: #A80036; stroke-width: 1.5;"/><rect fill="#FEFECE" filter="url(#f3hdayalinyod)" height="47.9375" rx="12.5" ry="12.5" style="stroke: #A80036; stroke-width: 1.5;" width="220" x="7" y="295"/><text fill="#000000" font-family="sans-serif" font-size="12" lengthAdjust="spacingAndGlyphs" textLength="97" x="66.5" y="316.1387">Congratulations,</text><text fill="#000000" font-family="sans-serif" font-size="12" lengthAdjust="spacingAndGlyphs" textLength="196" x="21" y="330.1074">you are invited to the workshop.</text><rect fill="#FEFECE" filter="url(#f3hdayalinyod)" height="47.9375" rx="12.5" ry="12.5" style="stroke: #A80036; stroke-width: 1.5;" width="300" x="247" y="295"/><text fill="#000000" font-family="sans-serif" font-size="12" lengthAdjust="spacingAndGlyphs" textLength="276" x="257" y="316.1387">Unfortunately it was not quite enough for you,</text><text fill="#000000" font-family="sans-serif" font-size="12" lengthAdjust="spacingAndGlyphs" textLength="199" x="299.5" y="330.1074">good luck with your next project.</text><rect fill="#FEFECE" filter="url(#f3hdayalinyod)" height="33.9688" rx="12.5" ry="12.5" style="stroke: #A80036; stroke-width: 1.5;" width="120" x="567" y="302"/><text fill="#000000" font-family="sans-serif" font-size="12" lengthAdjust="spacingAndGlyphs" textLength="100" x="577" y="323.1387">You will be fired.</text><rect fill="#FEFECE" filter="url(#f3hdayalinyod)" height="33.9688" rx="12.5" ry="12.5" style="stroke: #A80036; stroke-width: 1.5;" width="71" x="361.5" y="384"/><text fill="#000000" font-family="sans-serif" font-size="12" lengthAdjust="spacingAndGlyphs" textLength="51" x="371.5" y="405.1387">THE END</text><!--MD5=[94092d05a9f4bc720f8cdcaec24f7e4b]
link start to The project has been completed.--><path d="M397,26.177 C397,35.269 397,49.527 397,61.485 " fill="none" id="start-to-The project has been completed." style="stroke: #A80036; stroke-width: 1.0;"/><polygon fill="#A80036" points="397,66.791,401,57.791,397,61.791,393,57.791,397,66.791" style="stroke: #A80036; stroke-width: 1.0;"/><!--MD5=[1fbb1192a41b4bcb1e2df217956aad9e]
link The project has been completed. to The best employees are rewarded with a workshop in Hawaii.--><path d="M397,101.201 C397,111.692 397,125.463 397,136.818 " fill="none" id="The project has been completed.-to-The best employees are rewarded with a workshop in Hawaii." style="stroke: #A80036; stroke-width: 1.0;"/><polygon fill="#A80036" points="397,141.844,401,132.844,397,136.844,393,132.844,397,141.844" style="stroke: #A80036; stroke-width: 1.0;"/><!--MD5=[6575dd2d9816e4fea788ecdb5a1ee5c4]
link The best employees are rewarded with a workshop in Hawaii. to #41320--><path d="M397,176.115 C397,186.916 397,201.082 397,211.883 " fill="none" id="The best employees are rewarded with a workshop in Hawaii.-to-#41320" style="stroke: #A80036; stroke-width: 1.0;"/><polygon fill="#A80036" points="397,216.885,401,207.885,397,211.885,393,207.885,397,216.885" style="stroke: #A80036; stroke-width: 1.0;"/><text fill="#000000" font-family="sans-serif" font-size="11" lengthAdjust="spacingAndGlyphs" textLength="0" x="396.025" y="206.4605"/><!--MD5=[ecaeb4a8aa94f544bbe5a4081352b200]
link #41320 to a--><path d="M387.268,231.4 C363.575,234.952 301.163,245.169 251,261 C223.538,269.667 193.986,281.906 169.64,292.822 " fill="none" id="#41320-to-a" style="stroke: #A80036; stroke-width: 1.0;"/><polygon fill="#A80036" points="164.842,294.986,174.6907,294.9326,169.4,292.9306,171.402,287.6398,164.842,294.986" style="stroke: #A80036; stroke-width: 1.0;"/><text fill="#000000" font-family="sans-serif" font-size="11" lengthAdjust="spacingAndGlyphs" textLength="139" x="252" y="272.2104">Number of all stats &gt; 15</text><!--MD5=[2f1380b593ed4047ae3a533910d57044]
link #41320 to b--><path d="M397,241.145 C397,253.3 397,273.227 397,289.744 " fill="none" id="#41320-to-b" style="stroke: #A80036; stroke-width: 1.0;"/><polygon fill="#A80036" points="397,294.748,401,285.748,397,289.748,393,285.748,397,294.748" style="stroke: #A80036; stroke-width: 1.0;"/><text fill="#000000" font-family="sans-serif" font-size="11" lengthAdjust="spacingAndGlyphs" textLength="194" x="398" y="272.2104">Number of all stats &lt;= 15 &amp;&amp; &gt; 5</text><!--MD5=[b6d2514efa221038a4c1e6eca77f8709]
link #41320 to You will be fired.--><path d="M407.668,230.386 C444.688,231.912 567.039,238.588 598,261 C609.91,269.621 617.258,284.575 621.577,297.003 " fill="none" id="#41320-to-You will be fired." style="stroke: #A80036; stroke-width: 1.0;"/><polygon fill="#A80036" points="623.14,301.798,624.1533,292.0014,621.5902,297.0443,616.5473,294.4811,623.14,301.798" style="stroke: #A80036; stroke-width: 1.0;"/><text fill="#000000" font-family="sans-serif" font-size="11" lengthAdjust="spacingAndGlyphs" textLength="132" x="611" y="272.2104">Number of all stats &lt; 5</text><!--MD5=[6f8bc6b6227262c421776b39c447487f]
link You will be fired. to ende--><path d="M580.733,336.093 C538.756,350.6934 477.482,372.0062 437.428,385.9381 " fill="none" id="You will be fired.-to-ende" style="stroke: #0000FF; stroke-width: 1.0; stroke-dasharray: 1.0,3.0;"/><polygon fill="#0000FF" points="432.651,387.5996,442.4656,388.4205,437.3734,385.9568,439.8371,380.8646,432.651,387.5996" style="stroke: #0000FF; stroke-width: 1.0;"/><!--MD5=[5f01f0a41c3bbf0f3ad364e24735df76]
link a to ende--><path d="M197.612,343.032 C249.62,357.8913 315.049,376.5855 356.464,388.4183 " fill="none" id="a-to-ende" style="stroke: #0000FF; stroke-width: 1.0; stroke-dasharray: 1.0,3.0;"/><polygon fill="#0000FF" points="361.393,389.8266,353.8373,383.5091,356.5852,388.4537,351.6406,391.2016,361.393,389.8266" style="stroke: #0000FF; stroke-width: 1.0;"/><!--MD5=[213d300c695a8e914e0915f419c52792]
link b to ende--><path d="M397,343.1393 C397,354.2433 397,367.4692 397,378.3699 " fill="none" id="b-to-ende" style="stroke: #0000FF; stroke-width: 1.0; stroke-dasharray: 1.0,3.0;"/><polygon fill="#0000FF" points="397,383.5149,401,374.5149,397,378.5149,393,374.5149,397,383.5149" style="stroke: #0000FF; stroke-width: 1.0;"/><!--MD5=[684d9f47dbd4dbf68435234f861d8abf]
@startuml
(*) - -> "The project has been completed."
- -> "The best employees are rewarded with a workshop in Hawaii."
if "" then
- -> [Number of all stats > 15] "Congratulations, \n you are invited to the workshop." as a
else 
- -> [Number of all stats <= 15 && > 5] "Unfortunately it was not quite enough for you, \n good luck with your next project." as b
else
- -> [Number of all stats < 5] "You will be fired."
-[#blue,dotted]-> "THE END" as ende
a -[#blue,dotted]-> ende
b -[#blue,dotted]-> ende
@enduml

PlantUML version 1.2020.20beta13(Unknown compile time)
(GPL source distribution)
Java Runtime: Java(TM) SE Runtime Environment
JVM: Java HotSpot(TM) 64-Bit Server VM
Default Encoding: UTF-8
Language: en
Country: US
--></g></svg>