<?xml version="1.0" encoding="UTF-8" standalone="no"?><svg xmlns="http://www.w3.org/2000/svg" xmlns:xlink="http://www.w3.org/1999/xlink" contentScriptType="application/ecmascript" contentStyleType="text/css" height="410px" preserveAspectRatio="none" style="width:1065px;height:410px;" version="1.1" viewBox="0 0 1065 410" width="1065px" zoomAndPan="magnify"><defs><filter height="300%" id="f31d2svzi31vb" width="300%" x="-1" y="-1"><feGaussianBlur result="blurOut" stdDeviation="2.0"/><feColorMatrix in="blurOut" result="blurOut2" type="matrix" values="0 0 0 0 0 0 0 0 0 0 0 0 0 0 0 0 0 0 .4 0"/><feOffset dx="4.0" dy="4.0" in="blurOut2" result="blurOut3"/><feBlend in="SourceGraphic" in2="blurOut3" mode="normal"/></filter></defs><g><ellipse cx="534" cy="16" fill="#000000" filter="url(#f31d2svzi31vb)" rx="10" ry="10" style="stroke: none; stroke-width: 1.0;"/><rect fill="#FEFECE" filter="url(#f31d2svzi31vb)" height="33.9688" rx="12.5" ry="12.5" style="stroke: #A80036; stroke-width: 1.5;" width="403" x="332.5" y="67"/><text fill="#000000" font-family="sans-serif" font-size="12" lengthAdjust="spacingAndGlyphs" textLength="383" x="342.5" y="88.1387">A voluntary further education is pending, will you take part in it?</text><polygon fill="#FEFECE" filter="url(#f31d2svzi31vb)" points="534,142,546,154,534,166,522,154,534,142" style="stroke: #A80036; stroke-width: 1.5;"/><rect fill="#FEFECE" filter="url(#f31d2svzi31vb)" height="75.875" rx="12.5" ry="12.5" style="stroke: #A80036; stroke-width: 1.5;" width="288" x="7" y="246"/><text fill="#000000" font-family="sans-serif" font-size="12" lengthAdjust="spacingAndGlyphs" textLength="150" x="74" y="267.1387">You unlock your sidepet,</text><text fill="#000000" font-family="sans-serif" font-size="12" lengthAdjust="spacingAndGlyphs" textLength="264" x="21" y="281.1074">and the pet helps you with future decisions.</text><text fill="#000000" font-family="sans-serif" font-size="12" lengthAdjust="spacingAndGlyphs" textLength="119" x="91.5" y="295.0762">Additionally you get</text><text fill="#000000" font-family="sans-serif" font-size="12" lengthAdjust="spacingAndGlyphs" textLength="102" x="100" y="309.0449">+1 programming</text><rect fill="#FEFECE" filter="url(#f31d2svzi31vb)" height="33.9688" rx="12.5" ry="12.5" style="stroke: #A80036; stroke-width: 1.5;" width="292" x="315" y="267"/><text fill="#000000" font-family="sans-serif" font-size="12" lengthAdjust="spacingAndGlyphs" textLength="272" x="325" y="288.1387">No I already had this topic during my studies.</text><rect fill="#FEFECE" filter="url(#f31d2svzi31vb)" height="33.9688" rx="12.5" ry="12.5" style="stroke: #A80036; stroke-width: 1.5;" width="143" x="627.5" y="267"/><text fill="#000000" font-family="sans-serif" font-size="12" lengthAdjust="spacingAndGlyphs" textLength="123" x="637.5" y="288.1387">You take a week off.</text><rect fill="#FEFECE" filter="url(#f31d2svzi31vb)" height="75.875" rx="12.5" ry="12.5" style="stroke: #A80036; stroke-width: 1.5;" width="193" x="790.5" y="246"/><text fill="#000000" font-family="sans-serif" font-size="12" lengthAdjust="spacingAndGlyphs" textLength="157" x="806.5" y="267.1387">You get: +2 programming</text><text fill="#000000" font-family="sans-serif" font-size="12" lengthAdjust="spacingAndGlyphs" textLength="77" x="848.5" y="281.1074">+2 analytics.</text><text fill="#000000" font-family="sans-serif" font-size="12" lengthAdjust="spacingAndGlyphs" textLength="144" x="815" y="295.0762">You enjoy your vacation</text><text fill="#000000" font-family="sans-serif" font-size="12" lengthAdjust="spacingAndGlyphs" textLength="169" x="804.5" y="309.0449">after your voluntary training.</text><rect fill="#FEFECE" filter="url(#f31d2svzi31vb)" height="33.9688" rx="12.5" ry="12.5" style="stroke: #A80036; stroke-width: 1.5;" width="580" x="290" y="363"/><text fill="#000000" font-family="sans-serif" font-size="12" lengthAdjust="spacingAndGlyphs" textLength="560" x="300" y="384.1387">The aminoa government has contacted you and would like to see changes to the CoronaApp</text><!--MD5=[67b1e2de2ad7c4aaa9b4896be11cefc4]
link start to A voluntary further education is pending, will you take part in it?--><path d="M534,26.177 C534,35.269 534,49.527 534,61.485 " fill="none" id="start-to-A voluntary further education is pending, will you take part in it?" style="stroke: #A80036; stroke-width: 1.0;"/><polygon fill="#A80036" points="534,66.791,538,57.791,534,61.791,530,57.791,534,66.791" style="stroke: #A80036; stroke-width: 1.0;"/><!--MD5=[8fab749362bfc94f3d05f829f1fca39d]
link A voluntary further education is pending, will you take part in it? to #1059960--><path d="M534,101.115 C534,111.916 534,126.082 534,136.883 " fill="none" id="A voluntary further education is pending, will you take part in it?-to-#1059960" style="stroke: #A80036; stroke-width: 1.0;"/><polygon fill="#A80036" points="534,141.885,538,132.885,534,136.885,530,132.885,534,141.885" style="stroke: #A80036; stroke-width: 1.0;"/><text fill="#000000" font-family="sans-serif" font-size="11" lengthAdjust="spacingAndGlyphs" textLength="0" x="533.025" y="131.4605"/><!--MD5=[79c48038633bb9c44f392bf3ab69af9b]
link #1059960 to a1--><path d="M525.644,157.793 C492.026,169.028 363.794,211.883 266.638,244.353 " fill="none" id="#1059960-to-a1" style="stroke: #A80036; stroke-width: 1.0;"/><polygon fill="#A80036" points="261.744,245.989,271.5477,246.9315,266.4864,244.4049,269.013,239.3436,261.744,245.989" style="stroke: #A80036; stroke-width: 1.0;"/><text fill="#000000" font-family="sans-serif" font-size="11" lengthAdjust="spacingAndGlyphs" textLength="21" x="433" y="210.2104">Yes</text><!--MD5=[06a7c38cdd1e1b58b220d0966e27c69f]
link #1059960 to a2--><path d="M529.866,162.249 C519.044,181.224 489.569,232.906 472.9,262.134 " fill="none" id="#1059960-to-a2" style="stroke: #A80036; stroke-width: 1.0;"/><polygon fill="#A80036" points="470.339,266.624,478.2718,260.7871,472.8157,262.2805,471.3223,256.8243,470.339,266.624" style="stroke: #A80036; stroke-width: 1.0;"/><text fill="#000000" font-family="sans-serif" font-size="11" lengthAdjust="spacingAndGlyphs" textLength="15" x="516" y="210.2104">No</text><!--MD5=[7b8c42d8ba9319325c5d854049451287]
link #1059960 to a3--><path d="M540.267,159.861 C562.02,176.736 635.06,233.398 674.023,263.624 " fill="none" id="#1059960-to-a3" style="stroke: #A80036; stroke-width: 1.0;"/><polygon fill="#A80036" points="678.142,266.819,673.4827,258.142,674.1914,263.7542,668.5791,264.4629,678.142,266.819" style="stroke: #A80036; stroke-width: 1.0;"/><text fill="#000000" font-family="sans-serif" font-size="11" lengthAdjust="spacingAndGlyphs" textLength="147" x="623" y="210.2104">No, I need a vacation first</text><!--MD5=[c7d30e3d8c7b6617c133daf05073075a]
link #1059960 to You get: +2 programming \n +2 analytics. \n You enjoy your vacation \n after your voluntary training.--><path d="M544.49,155.533 C585.327,157.729 733.51,166.882 776,186 C804.562,198.851 831.184,221.584 851.192,241.812 " fill="none" id="#1059960-to-You get: +2 programming \n +2 analytics. \n You enjoy your vacation \n after your voluntary training." style="stroke: #A80036; stroke-width: 1.0;"/><polygon fill="#A80036" points="854.85,245.557,851.4225,236.3238,851.3561,241.9803,845.6997,241.914,854.85,245.557" style="stroke: #A80036; stroke-width: 1.0;"/><text fill="#000000" font-family="sans-serif" font-size="11" lengthAdjust="spacingAndGlyphs" textLength="136" x="875.5" y="197.2104">Additional dialog option:</text><text fill="#000000" font-family="sans-serif" font-size="11" lengthAdjust="spacingAndGlyphs" textLength="215" x="838" y="210.0151">Your boss offers you 1 week vacation</text><text fill="#000000" font-family="sans-serif" font-size="11" lengthAdjust="spacingAndGlyphs" textLength="159" x="868" y="222.8198">after your voluntary training</text><!--MD5=[5a0c0bfdcc7840dbea69bc1b8918d119]
link You get: +2 programming \n +2 analytics. \n You enjoy your vacation \n after your voluntary training. to app--><path d="M790.262,318.7196 C786.803,319.8398 783.374,320.9366 780,322 C735.18,336.1242 684.236,350.6204 644.981,361.4593 " fill="none" id="You get: +2 programming \n +2 analytics. \n You enjoy your vacation \n after your voluntary training.-to-app" style="stroke: #0000FF; stroke-width: 1.0; stroke-dasharray: 1.0,3.0;"/><polygon fill="#0000FF" points="639.766,362.8968,649.5053,364.3616,644.5863,361.5682,647.3796,356.6492,639.766,362.8968" style="stroke: #0000FF; stroke-width: 1.0;"/><!--MD5=[15b53ca73107061697266bb4dd93597f]
link a2 to app--><path d="M481.457,301.1592 C501.976,317.3678 533.587,342.3379 555.448,359.6062 " fill="none" id="a2-to-app" style="stroke: #0000FF; stroke-width: 1.0; stroke-dasharray: 1.0,3.0;"/><polygon fill="#0000FF" points="559.412,362.7371,554.828,354.02,555.4881,359.6383,549.8699,360.2983,559.412,362.7371" style="stroke: #0000FF; stroke-width: 1.0;"/><!--MD5=[dc28b0fd4bf63cc88b4b3cee6291dc13]
link a1 to app--><path d="M295.241,319.8005 C298.523,320.5455 301.78,321.2796 305,322 C368.15,336.1272 439.734,350.9264 494.035,361.9038 " fill="none" id="a1-to-app" style="stroke: #0000FF; stroke-width: 1.0; stroke-dasharray: 1.0,3.0;"/><polygon fill="#0000FF" points="499.235,362.9541,491.2052,357.2513,494.334,361.9641,489.6212,365.0929,499.235,362.9541" style="stroke: #0000FF; stroke-width: 1.0;"/><!--MD5=[c7a71aaae867c65e5fda8348cbab4183]
link a3 to app--><path d="M678.543,301.1592 C658.024,317.3678 626.413,342.3379 604.552,359.6062 " fill="none" id="a3-to-app" style="stroke: #0000FF; stroke-width: 1.0; stroke-dasharray: 1.0,3.0;"/><polygon fill="#0000FF" points="600.588,362.7371,610.1301,360.2983,604.5119,359.6383,605.172,354.02,600.588,362.7371" style="stroke: #0000FF; stroke-width: 1.0;"/><!--MD5=[20de8486e8082037f23eae0ecce65168]
@startuml
(*) - -> "A voluntary further education is pending, will you take part in it?"

if "" then
- -> [Yes] "You unlock your sidepet, \n and the pet helps you with future decisions.\n Additionally you get \n+1 programming" as a1
else
- -> [No] "No I already had this topic during my studies." as a2
else 
- -> [No, I need a vacation first] "You take a week off." as a3
else 
- -> [Additional dialog option: \n Your boss offers you 1 week vacation \n after your voluntary training] "You get: +2 programming \n +2 analytics. \n You enjoy your vacation \n after your voluntary training."
endif
'Note: project not final, its just a filler.
-[#blue,dotted]-> "The aminoa government has contacted you and would like to see changes to the CoronaApp" as app
a2 -[#blue,dotted]-> app
a1 -[#blue,dotted]-> app
a3 -[#blue,dotted]-> app
@enduml

@startuml
(*) - -> "A voluntary further education is pending, will you take part in it?"

if "" then
- -> [Yes] "You unlock your sidepet, \n and the pet helps you with future decisions.\n Additionally you get \n+1 programming" as a1
else
- -> [No] "No I already had this topic during my studies." as a2
else 
- -> [No, I need a vacation first] "You take a week off." as a3
else 
- -> [Additional dialog option: \n Your boss offers you 1 week vacation \n after your voluntary training] "You get: +2 programming \n +2 analytics. \n You enjoy your vacation \n after your voluntary training."
endif
-[#blue,dotted]-> "The aminoa government has contacted you and would like to see changes to the CoronaApp" as app
a2 -[#blue,dotted]-> app
a1 -[#blue,dotted]-> app
a3 -[#blue,dotted]-> app
@enduml

PlantUML version 1.2020.20beta13(Unknown compile time)
(GPL source distribution)
Java Runtime: Java(TM) SE Runtime Environment
JVM: Java HotSpot(TM) 64-Bit Server VM
Default Encoding: UTF-8
Language: en
Country: US
--></g></svg>