<?xml version="1.0" encoding="UTF-8" standalone="no"?><svg xmlns="http://www.w3.org/2000/svg" xmlns:xlink="http://www.w3.org/1999/xlink" contentScriptType="application/ecmascript" contentStyleType="text/css" height="944px" preserveAspectRatio="none" style="width:1045px;height:944px;" version="1.1" viewBox="0 0 1045 944" width="1045px" zoomAndPan="magnify"><defs><filter height="300%" id="fdf5vq6nobl69" width="300%" x="-1" y="-1"><feGaussianBlur result="blurOut" stdDeviation="2.0"/><feColorMatrix in="blurOut" result="blurOut2" type="matrix" values="0 0 0 0 0 0 0 0 0 0 0 0 0 0 0 0 0 0 .4 0"/><feOffset dx="4.0" dy="4.0" in="blurOut2" result="blurOut3"/><feBlend in="SourceGraphic" in2="blurOut3" mode="normal"/></filter></defs><g><ellipse cx="396" cy="16" fill="#000000" filter="url(#fdf5vq6nobl69)" rx="10" ry="10" style="stroke: none; stroke-width: 1.0;"/><rect fill="#FEFECE" filter="url(#fdf5vq6nobl69)" height="33.9688" rx="12.5" ry="12.5" style="stroke: #A80036; stroke-width: 1.5;" width="440" x="176" y="67"/><text fill="#000000" font-family="sans-serif" font-size="12" lengthAdjust="spacingAndGlyphs" textLength="420" x="186" y="88.1387">You are thirsty and want to get something to drink, what do you take?</text><polygon fill="#FEFECE" filter="url(#fdf5vq6nobl69)" points="396,142,408,154,396,166,384,154,396,142" style="stroke: #A80036; stroke-width: 1.5;"/><rect fill="#FEFECE" filter="url(#fdf5vq6nobl69)" height="33.9688" rx="12.5" ry="12.5" style="stroke: #A80036; stroke-width: 1.5;" width="240" x="7" y="214"/><text fill="#000000" font-family="sans-serif" font-size="12" lengthAdjust="spacingAndGlyphs" textLength="220" x="17" y="235.1387">One beer is enough for the evening.</text><rect fill="#FEFECE" filter="url(#fdf5vq6nobl69)" height="61.9063" rx="12.5" ry="12.5" style="stroke: #A80036; stroke-width: 1.5;" width="194" x="30" y="296"/><text fill="#000000" font-family="sans-serif" font-size="12" lengthAdjust="spacingAndGlyphs" textLength="174" x="40" y="317.1387">You got through the evening.</text><text fill="#000000" font-family="sans-serif" font-size="12" lengthAdjust="spacingAndGlyphs" textLength="120" x="69" y="331.1074">Your stats increase:</text><text fill="#000000" font-family="sans-serif" font-size="12" lengthAdjust="spacingAndGlyphs" textLength="70" x="94" y="345.0762">+1 partying</text><rect fill="#FEFECE" filter="url(#fdf5vq6nobl69)" height="33.9688" rx="12.5" ry="12.5" style="stroke: #A80036; stroke-width: 1.5;" width="257" x="267.5" y="214"/><text fill="#000000" font-family="sans-serif" font-size="12" lengthAdjust="spacingAndGlyphs" textLength="237" x="277.5" y="235.1387">A good old spezi is perfectly sufficient.</text><rect fill="#FEFECE" filter="url(#fdf5vq6nobl69)" height="47.9375" rx="12.5" ry="12.5" style="stroke: #A80036; stroke-width: 1.5;" width="337" x="544.5" y="207"/><text fill="#000000" font-family="sans-serif" font-size="12" lengthAdjust="spacingAndGlyphs" textLength="179" x="621.5" y="228.1387">A few Tequilla shots will do it,</text><text fill="#000000" font-family="sans-serif" font-size="12" lengthAdjust="spacingAndGlyphs" textLength="317" x="554.5" y="242.1074">after all it's for free, you should take advantage of it.</text><rect fill="#FEFECE" filter="url(#fdf5vq6nobl69)" height="33.9688" rx="12.5" ry="12.5" style="stroke: #A80036; stroke-width: 1.5;" width="481" x="472.5" y="310"/><text fill="#000000" font-family="sans-serif" font-size="12" lengthAdjust="spacingAndGlyphs" textLength="461" x="482.5" y="331.1387">You drink two shots, do you want to drink more or do you want to stop now.</text><polygon fill="#FEFECE" filter="url(#fdf5vq6nobl69)" points="713,399,725,411,713,423,701,411,713,399" style="stroke: #A80036; stroke-width: 1.5;"/><rect fill="#FEFECE" filter="url(#fdf5vq6nobl69)" height="33.9688" rx="12.5" ry="12.5" style="stroke: #A80036; stroke-width: 1.5;" width="189" x="618.5" y="477"/><text fill="#000000" font-family="sans-serif" font-size="12" lengthAdjust="spacingAndGlyphs" textLength="169" x="628.5" y="498.1387">You drink a few more shots.</text><polygon fill="#FEFECE" filter="url(#fdf5vq6nobl69)" points="713,613,725,625,713,637,701,625,713,613" style="stroke: #A80036; stroke-width: 1.5;"/><rect fill="#FEFECE" filter="url(#fdf5vq6nobl69)" height="61.9063" rx="12.5" ry="12.5" style="stroke: #A80036; stroke-width: 1.5;" width="392" x="158" y="705"/><text fill="#000000" font-family="sans-serif" font-size="12" lengthAdjust="spacingAndGlyphs" textLength="368" x="168" y="726.1387">Due to your excellent party experience you are able to drink</text><text fill="#000000" font-family="sans-serif" font-size="12" lengthAdjust="spacingAndGlyphs" textLength="266" x="221" y="740.1074">and survive the party without creating a stir:</text><text fill="#000000" font-family="sans-serif" font-size="12" lengthAdjust="spacingAndGlyphs" textLength="71" x="320.5" y="754.0762">+3 partying</text><rect fill="#FEFECE" filter="url(#fdf5vq6nobl69)" height="89.8438" rx="12.5" ry="12.5" style="stroke: #A80036; stroke-width: 1.5;" width="288" x="570" y="691"/><text fill="#000000" font-family="sans-serif" font-size="12" lengthAdjust="spacingAndGlyphs" textLength="264" x="580" y="712.1387">You bring a good atmosphere to the group,</text><text fill="#000000" font-family="sans-serif" font-size="12" lengthAdjust="spacingAndGlyphs" textLength="224" x="602" y="726.1074">but your mentor and boss notice you</text><text fill="#000000" font-family="sans-serif" font-size="12" lengthAdjust="spacingAndGlyphs" textLength="247" x="592.5" y="740.0762">negatively, because you are quite drunk.</text><text fill="#000000" font-family="sans-serif" font-size="12" lengthAdjust="spacingAndGlyphs" textLength="71" x="678.5" y="754.0449">+3 partying</text><text fill="#000000" font-family="sans-serif" font-size="12" lengthAdjust="spacingAndGlyphs" textLength="107" x="662.5" y="768.0137">-2 communication</text><rect fill="#FEFECE" filter="url(#fdf5vq6nobl69)" height="61.9063" rx="12.5" ry="12.5" style="stroke: #A80036; stroke-width: 1.5;" width="287" x="744.5" y="531"/><text fill="#000000" font-family="sans-serif" font-size="12" lengthAdjust="spacingAndGlyphs" textLength="263" x="754.5" y="552.1387">You bring a good atmosphere to the group.</text><text fill="#000000" font-family="sans-serif" font-size="12" lengthAdjust="spacingAndGlyphs" textLength="120" x="830" y="566.1074">Your stats increase:</text><text fill="#000000" font-family="sans-serif" font-size="12" lengthAdjust="spacingAndGlyphs" textLength="71" x="854.5" y="580.0762">+2 partying</text><rect fill="#FEFECE" filter="url(#fdf5vq6nobl69)" height="33.9688" rx="12.5" ry="12.5" style="stroke: #A80036; stroke-width: 1.5;" width="236" x="374" y="822"/><text fill="#000000" font-family="sans-serif" font-size="12" lengthAdjust="spacingAndGlyphs" textLength="216" x="384" y="843.1387">The party is over and you go home.</text><rect fill="#FEFECE" filter="url(#fdf5vq6nobl69)" height="33.9688" rx="12.5" ry="12.5" style="stroke: #A80036; stroke-width: 1.5;" width="389" x="297.5" y="897"/><text fill="#000000" font-family="sans-serif" font-size="12" lengthAdjust="spacingAndGlyphs" textLength="369" x="307.5" y="918.1387">A voluntary training course is coming up, will you participate?</text><!--MD5=[f0faba48d7efab99a17b0001edf6edff]
link start to alc--><path d="M396,26.177 C396,35.269 396,49.527 396,61.485 " fill="none" id="start-to-alc" style="stroke: #A80036; stroke-width: 1.0;"/><polygon fill="#A80036" points="396,66.791,400,57.791,396,61.791,392,57.791,396,66.791" style="stroke: #A80036; stroke-width: 1.0;"/><!--MD5=[bd7f6de3778558432fd07c56297ccac1]
link alc to #538350--><path d="M396,101.115 C396,111.916 396,126.082 396,136.883 " fill="none" id="alc-to-#538350" style="stroke: #A80036; stroke-width: 1.0;"/><polygon fill="#A80036" points="396,141.885,400,132.885,396,136.885,392,132.885,396,141.885" style="stroke: #A80036; stroke-width: 1.0;"/><text fill="#000000" font-family="sans-serif" font-size="11" lengthAdjust="spacingAndGlyphs" textLength="0" x="395.025" y="131.4605"/><!--MD5=[256fbd6ec4fd8121b5cc1b02ee418149]
link #538350 to genießen--><path d="M387.355,157.41 C357.468,165.743 256.683,193.843 189.633,212.537 " fill="none" id="#538350-to-genießen" style="stroke: #A80036; stroke-width: 1.0;"/><polygon fill="#A80036" points="184.464,213.979,194.2077,215.4146,189.2803,212.636,192.0589,207.7086,184.464,213.979" style="stroke: #A80036; stroke-width: 1.0;"/><!--MD5=[a711d685fd9918d03fea465cefceeec3]
link genießen to party--><path d="M127,248.374 C127,259.992 127,276.032 127,290.518 " fill="none" id="genießen-to-party" style="stroke: #A80036; stroke-width: 1.0;"/><polygon fill="#A80036" points="127,295.773,131,286.773,127,290.773,123,286.773,127,295.773" style="stroke: #A80036; stroke-width: 1.0;"/><!--MD5=[75dd4beb4b7c79b51b8158b39ba1ec83]
link #538350 to A good old spezi is perfectly sufficient.--><path d="M396,166.067 C396,177.218 396,194.714 396,208.587 " fill="none" id="#538350-to-A good old spezi is perfectly sufficient." style="stroke: #A80036; stroke-width: 1.0;"/><polygon fill="#A80036" points="396,213.896,400,204.896,396,208.896,392,204.896,396,213.896" style="stroke: #A80036; stroke-width: 1.0;"/><!--MD5=[9eca0d2302ad8d35731aaecf4da6f96a]
link A good old spezi is perfectly sufficient. to party--><path d="M350.063,248.052 C313.867,260.701 262.268,278.732 217.812,294.267 " fill="none" id="A good old spezi is perfectly sufficient.-to-party" style="stroke: #A80036; stroke-width: 1.0;"/><polygon fill="#A80036" points="212.982,295.954,222.7978,296.76,217.7019,294.304,220.1579,289.2081,212.982,295.954" style="stroke: #A80036; stroke-width: 1.0;"/><!--MD5=[75b6a7e0ad072441afb8b29d0dd2e6da]
link #538350 to A few Tequilla shots will do it, \nafter all it's for free, you should take advantage of it.--><path d="M405.145,157.164 C435.144,164.261 533.069,187.429 610.516,205.753 " fill="none" id="#538350-to-A few Tequilla shots will do it, \nafter all it's for free, you should take advantage of it." style="stroke: #A80036; stroke-width: 1.0;"/><polygon fill="#A80036" points="615.587,206.953,607.75,200.988,610.7214,205.8016,605.9078,208.773,615.587,206.953" style="stroke: #A80036; stroke-width: 1.0;"/><!--MD5=[9f935c52123d5e22cd24c7b3d7f6acfa]
link A few Tequilla shots will do it, \nafter all it's for free, you should take advantage of it. to You drink two shots, do you want to drink more or do you want to stop now.--><path d="M713,255.236 C713,270.343 713,289.896 713,304.619 " fill="none" id="A few Tequilla shots will do it, \nafter all it's for free, you should take advantage of it.-to-You drink two shots, do you want to drink more or do you want to stop now." style="stroke: #A80036; stroke-width: 1.0;"/><polygon fill="#A80036" points="713,309.807,717,300.807,713,304.807,709,300.807,713,309.807" style="stroke: #A80036; stroke-width: 1.0;"/><!--MD5=[f32ab7b1cbab75cc40971184c77e432a]
link You drink two shots, do you want to drink more or do you want to stop now. to #538364--><path d="M713,344.201 C713,358.375 713,378.884 713,393.226 " fill="none" id="You drink two shots, do you want to drink more or do you want to stop now.-to-#538364" style="stroke: #A80036; stroke-width: 1.0;"/><polygon fill="#A80036" points="713,398.582,717,389.582,713,393.582,709,389.582,713,398.582" style="stroke: #A80036; stroke-width: 1.0;"/><text fill="#000000" font-family="sans-serif" font-size="11" lengthAdjust="spacingAndGlyphs" textLength="0" x="712.075" y="388.4602"/><!--MD5=[0f39134f2ed4cb32189220eb38356932]
link #538364 to You drink a few more shots.--><path d="M713,423.263 C713,435.76 713,456.211 713,471.743 " fill="none" id="#538364-to-You drink a few more shots." style="stroke: #A80036; stroke-width: 1.0;"/><polygon fill="#A80036" points="713,476.803,717,467.803,713,471.803,709,467.803,713,476.803" style="stroke: #A80036; stroke-width: 1.0;"/><text fill="#000000" font-family="sans-serif" font-size="11" lengthAdjust="spacingAndGlyphs" textLength="145" x="714" y="454.2104">Yes you want more shots</text><!--MD5=[6b55cf7c1a5f6b02c492d880fdb01cfa]
link You drink a few more shots. to drink--><path d="M713,511.077 C713,535.691 713,582.477 713,607.401 " fill="none" id="You drink a few more shots.-to-drink" style="stroke: #A80036; stroke-width: 1.0;"/><polygon fill="#A80036" points="713,612.662,717,603.662,713,607.662,709,603.662,713,612.662" style="stroke: #A80036; stroke-width: 1.0;"/><text fill="#000000" font-family="sans-serif" font-size="11" lengthAdjust="spacingAndGlyphs" textLength="132" x="560.7875" y="605.3797">partying + dice roll &gt; 8</text><!--MD5=[2ee33e5151cd48a3e28d80fc7ff64939]
link drink to goodEnd--><path d="M704.48,628.587 C671.412,638.627 548.902,675.824 457.992,703.426 " fill="none" id="drink-to-goodEnd" style="stroke: #A80036; stroke-width: 1.0;"/><polygon fill="#A80036" points="453.143,704.898,462.917,706.1103,457.9273,703.4451,460.5924,698.4555,453.143,704.898" style="stroke: #A80036; stroke-width: 1.0;"/><text fill="#000000" font-family="sans-serif" font-size="11" lengthAdjust="spacingAndGlyphs" textLength="23" x="607" y="668.2104">true</text><!--MD5=[891ea4a45813ab986546a7098bb3f8b0]
link drink to heavydrunk--><path d="M713.103,637.254 C713.21,648.839 713.383,667.699 713.548,685.777 " fill="none" id="drink-to-heavydrunk" style="stroke: #A80036; stroke-width: 1.0;"/><polygon fill="#A80036" points="713.595,690.848,717.5126,681.8118,713.5493,685.8482,709.5129,681.8849,713.595,690.848" style="stroke: #A80036; stroke-width: 1.0;"/><text fill="#000000" font-family="sans-serif" font-size="11" lengthAdjust="spacingAndGlyphs" textLength="28" x="714" y="668.2104">false</text><!--MD5=[af2a8f9789e5f1440d332c69275e8a1f]
link #538364 to You bring a good atmosphere to the group. \n Your stats increase:\n +2 partying--><path d="M723.432,412.703 C754.108,414.984 843.113,423.212 863,443 C884.501,464.394 889.675,499.354 890.114,525.679 " fill="none" id="#538364-to-You bring a good atmosphere to the group. \n Your stats increase:\n +2 partying" style="stroke: #A80036; stroke-width: 1.0;"/><polygon fill="#A80036" points="890.142,530.823,894.0931,521.8014,890.1149,525.8231,886.0932,521.8448,890.142,530.823" style="stroke: #A80036; stroke-width: 1.0;"/><text fill="#000000" font-family="sans-serif" font-size="11" lengthAdjust="spacingAndGlyphs" textLength="154" x="873" y="454.2104">No, 2 are enough for today</text><!--MD5=[cc3bc4c9654332f9283a941dbe057ffe]
link You bring a good atmosphere to the group. \n Your stats increase:\n +2 partying to home--><path d="M895.607,593.34 C905.373,640.249 915.839,730.253 868,781 C834.13,816.929 711.482,830.332 615.359,835.2657 " fill="none" id="You bring a good atmosphere to the group. \n Your stats increase:\n +2 partying-to-home" style="stroke: #A80036; stroke-width: 1.0;"/><polygon fill="#A80036" points="610.225,835.5225,619.4137,839.0675,615.2187,835.2725,619.0137,831.0775,610.225,835.5225" style="stroke: #A80036; stroke-width: 1.0;"/><!--MD5=[242e7d3c86e05962b21e8783090c5363]
link heavydrunk to home--><path d="M617.273,781.006 C587.259,794.661 555.829,808.961 531.958,819.821 " fill="none" id="heavydrunk-to-home" style="stroke: #A80036; stroke-width: 1.0;"/><polygon fill="#A80036" points="527.288,821.946,537.1365,821.8586,531.8389,819.8748,533.8226,814.5772,527.288,821.946" style="stroke: #A80036; stroke-width: 1.0;"/><!--MD5=[12ec2271eae637a8368f2250a5093907]
link party to home--><path d="M127,358.375 C127,373.831 127,392.917 127,410 C127,410 127,410 127,737 C127,758.669 130.683,767.975 148,781 C182.391,806.865 284.676,821.582 368.84,829.555 " fill="none" id="party-to-home" style="stroke: #A80036; stroke-width: 1.0;"/><polygon fill="#A80036" points="373.847,830.023,365.2587,825.2021,368.8687,829.5573,364.5136,833.1674,373.847,830.023" style="stroke: #A80036; stroke-width: 1.0;"/><!--MD5=[516670722ccd23130a82a9c66eba9461]
link goodEnd to home--><path d="M395.031,767.03 C418.025,783.859 446.007,804.339 465.992,818.965 " fill="none" id="goodEnd-to-home" style="stroke: #A80036; stroke-width: 1.0;"/><polygon fill="#A80036" points="470.13,821.994,465.2286,813.4514,466.0948,819.0415,460.5047,819.9077,470.13,821.994" style="stroke: #A80036; stroke-width: 1.0;"/><!--MD5=[be5a49589de9976a4315051ab737fb61]
link home to A voluntary training course is coming up, will you participate?--><path d="M492,856.2011 C492,866.6917 492,880.4627 492,891.8176 " fill="none" id="home-to-A voluntary training course is coming up, will you participate?" style="stroke: #0000FF; stroke-width: 1.0; stroke-dasharray: 1.0,3.0;"/><polygon fill="#0000FF" points="492,896.8442,496,887.8442,492,891.8442,488,887.8442,492,896.8442" style="stroke: #0000FF; stroke-width: 1.0;"/><!--MD5=[c3d7a3e0fb93bedad24a9aee6c0e2e94]
@startuml
(*) - -> "You are thirsty and want to get something to drink, what do you take?" as alc
if "" then 
- -> "One beer is enough for the evening." as genießen
genießen - -> "You got through the evening.\n Your stats increase:\n +1 partying" as party
else 
- -> "A good old spezi is perfectly sufficient."
- -> party
else 
- -> "A few Tequilla shots will do it, \nafter all it's for free, you should take advantage of it."
- -> "You drink two shots, do you want to drink more or do you want to stop now."
if "" then 
- -> [Yes you want more shots] "You drink a few more shots."
if "partying + dice roll > 8" as drink then 
- -> [true] "Due to your excellent party experience you are able to drink \n and survive the party without creating a stir: \n +3 partying" as goodEnd
else 
- -> [false] "You bring a good atmosphere to the group, \n but your mentor and boss notice you \n negatively, because you are quite drunk.\n +3 partying \n -2 communication" as heavydrunk
endif
else 
- -> [No, 2 are enough for today] "You bring a good atmosphere to the group. \n Your stats increase:\n +2 partying"
endif
- -> "The party is over and you go home." as home
heavydrunk - -> home
party - -> home
goodEnd - -> home
-[#blue,dotted]-> "A voluntary training course is coming up, will you participate?"
@enduml

PlantUML version 1.2020.20beta13(Unknown compile time)
(GPL source distribution)
Java Runtime: Java(TM) SE Runtime Environment
JVM: Java HotSpot(TM) 64-Bit Server VM
Default Encoding: UTF-8
Language: en
Country: US
--></g></svg>