<?xml version="1.0" encoding="UTF-8" standalone="no"?><svg xmlns="http://www.w3.org/2000/svg" xmlns:xlink="http://www.w3.org/1999/xlink" contentScriptType="application/ecmascript" contentStyleType="text/css" height="928px" preserveAspectRatio="none" style="width:830px;height:928px;" version="1.1" viewBox="0 0 830 928" width="830px" zoomAndPan="magnify"><defs><filter height="300%" id="f1mwvpy7rnsk7i" width="300%" x="-1" y="-1"><feGaussianBlur result="blurOut" stdDeviation="2.0"/><feColorMatrix in="blurOut" result="blurOut2" type="matrix" values="0 0 0 0 0 0 0 0 0 0 0 0 0 0 0 0 0 0 .4 0"/><feOffset dx="4.0" dy="4.0" in="blurOut2" result="blurOut3"/><feBlend in="SourceGraphic" in2="blurOut3" mode="normal"/></filter></defs><g><ellipse cx="492.5" cy="16" fill="#000000" filter="url(#f1mwvpy7rnsk7i)" rx="10" ry="10" style="stroke: none; stroke-width: 1.0;"/><rect fill="#FEFECE" filter="url(#f1mwvpy7rnsk7i)" height="47.9375" rx="12.5" ry="12.5" style="stroke: #A80036; stroke-width: 1.5;" width="316" x="334.5" y="67"/><text fill="#000000" font-family="sans-serif" font-size="12" lengthAdjust="spacingAndGlyphs" textLength="264" x="360.5" y="88.1387">Your colleague Trummu is approaching you.</text><text fill="#000000" font-family="sans-serif" font-size="12" lengthAdjust="spacingAndGlyphs" textLength="292" x="348.5" y="102.1074">Trummu urgently needs your support in his task.</text><polygon fill="#FEFECE" filter="url(#f1mwvpy7rnsk7i)" points="492.5,175,504.5,187,492.5,199,480.5,187,492.5,175" style="stroke: #A80036; stroke-width: 1.5;"/><polygon fill="#FEFECE" filter="url(#f1mwvpy7rnsk7i)" points="492.5,311,504.5,323,492.5,335,480.5,323,492.5,311" style="stroke: #A80036; stroke-width: 1.5;"/><rect fill="#FEFECE" filter="url(#f1mwvpy7rnsk7i)" height="75.875" rx="12.5" ry="12.5" style="stroke: #A80036; stroke-width: 1.5;" width="235" x="187" y="285"/><text fill="#000000" font-family="sans-serif" font-size="12" lengthAdjust="spacingAndGlyphs" textLength="184" x="210.5" y="306.1387">Trummu is satisfied and luckily</text><text fill="#000000" font-family="sans-serif" font-size="12" lengthAdjust="spacingAndGlyphs" textLength="207" x="201" y="320.1074">you don't miss your own deadline.</text><text fill="#000000" font-family="sans-serif" font-size="12" lengthAdjust="spacingAndGlyphs" textLength="112" x="248.5" y="334.0762">Your stats change:</text><text fill="#000000" font-family="sans-serif" font-size="12" lengthAdjust="spacingAndGlyphs" textLength="112" x="250.5" y="348.0449">+2 communication</text><rect fill="#FEFECE" filter="url(#f1mwvpy7rnsk7i)" height="89.8438" rx="12.5" ry="12.5" style="stroke: #A80036; stroke-width: 1.5;" width="313" x="345" y="415"/><text fill="#000000" font-family="sans-serif" font-size="12" lengthAdjust="spacingAndGlyphs" textLength="121" x="439" y="436.1387">Trummu is satisfied,</text><text fill="#000000" font-family="sans-serif" font-size="12" lengthAdjust="spacingAndGlyphs" textLength="151" x="426" y="450.1074">but because of the delay</text><text fill="#000000" font-family="sans-serif" font-size="12" lengthAdjust="spacingAndGlyphs" textLength="289" x="359" y="464.0762">you now have problems meeting your deadline.</text><text fill="#000000" font-family="sans-serif" font-size="12" lengthAdjust="spacingAndGlyphs" textLength="112" x="445.5" y="478.0449">Your stats change:</text><text fill="#000000" font-family="sans-serif" font-size="12" lengthAdjust="spacingAndGlyphs" textLength="112" x="447.5" y="492.0137">+2 communication</text><polygon fill="#FEFECE" filter="url(#f1mwvpy7rnsk7i)" points="503.5,546,515.5,558,503.5,570,491.5,558,503.5,546" style="stroke: #A80036; stroke-width: 1.5;"/><rect fill="#FEFECE" filter="url(#f1mwvpy7rnsk7i)" height="61.9063" rx="12.5" ry="12.5" style="stroke: #A80036; stroke-width: 1.5;" width="197" x="619" y="668"/><text fill="#000000" font-family="sans-serif" font-size="12" lengthAdjust="spacingAndGlyphs" textLength="173" x="629" y="689.1387">You miss your own deadline.</text><text fill="#000000" font-family="sans-serif" font-size="12" lengthAdjust="spacingAndGlyphs" textLength="112" x="661.5" y="703.1074">Your stats change:</text><text fill="#000000" font-family="sans-serif" font-size="12" lengthAdjust="spacingAndGlyphs" textLength="72" x="683.5" y="717.0762">-2 analytics.</text><polygon fill="#FEFECE" filter="url(#f1mwvpy7rnsk7i)" points="503.5,624,515.5,636,503.5,648,491.5,636,503.5,624" style="stroke: #A80036; stroke-width: 1.5;"/><rect fill="#FEFECE" filter="url(#f1mwvpy7rnsk7i)" height="33.9688" rx="12.5" ry="12.5" style="stroke: #A80036; stroke-width: 1.5;" width="336" x="198.5" y="682"/><text fill="#000000" font-family="sans-serif" font-size="12" lengthAdjust="spacingAndGlyphs" textLength="316" x="208.5" y="703.1387">Yaggaya helps you and you can meet your deadline.</text><rect fill="#FEFECE" filter="url(#f1mwvpy7rnsk7i)" height="75.875" rx="12.5" ry="12.5" style="stroke: #A80036; stroke-width: 1.5;" width="432" x="255.5" y="750"/><text fill="#000000" font-family="sans-serif" font-size="12" lengthAdjust="spacingAndGlyphs" textLength="408" x="265.5" y="771.1387">Yaggaya will not help you and therefore you will miss your deadline</text><text fill="#000000" font-family="sans-serif" font-size="12" lengthAdjust="spacingAndGlyphs" textLength="185" x="379" y="785.1074">and need an additional 5 days.</text><text fill="#000000" font-family="sans-serif" font-size="12" lengthAdjust="spacingAndGlyphs" textLength="112" x="415.5" y="799.0762">Your stats change:</text><text fill="#000000" font-family="sans-serif" font-size="12" lengthAdjust="spacingAndGlyphs" textLength="69" x="437" y="813.0449">-2 analytics</text><rect fill="#FEFECE" filter="url(#f1mwvpy7rnsk7i)" height="47.9375" rx="12.5" ry="12.5" style="stroke: #A80036; stroke-width: 1.5;" width="231" x="109" y="867"/><text fill="#000000" font-family="sans-serif" font-size="12" lengthAdjust="spacingAndGlyphs" textLength="207" x="119" y="888.1387">The project is nearing completion,</text><text fill="#000000" font-family="sans-serif" font-size="12" lengthAdjust="spacingAndGlyphs" textLength="183" x="135" y="902.1074">only a code review is missing.</text><rect fill="#FEFECE" filter="url(#f1mwvpy7rnsk7i)" height="61.9063" rx="12.5" ry="12.5" style="stroke: #A80036; stroke-width: 1.5;" width="267" x="7" y="156"/><text fill="#000000" font-family="sans-serif" font-size="12" lengthAdjust="spacingAndGlyphs" textLength="247" x="17" y="177.1387">Trummu is angry that you didn't help him.</text><text fill="#000000" font-family="sans-serif" font-size="12" lengthAdjust="spacingAndGlyphs" textLength="112" x="84.5" y="191.1074">Your stats change:</text><text fill="#000000" font-family="sans-serif" font-size="12" lengthAdjust="spacingAndGlyphs" textLength="107" x="89" y="205.0762">-2 communication</text><!--MD5=[279b232862c91c47e4597d56c7bbac8b]
link start to Your colleague Trummu is approaching you.\n Trummu urgently needs your support in his task.--><path d="M492.5,26.246 C492.5,35.108 492.5,48.951 492.5,61.477 " fill="none" id="start-to-Your colleague Trummu is approaching you.\n Trummu urgently needs your support in his task." style="stroke: #A80036; stroke-width: 1.0;"/><polygon fill="#A80036" points="492.5,66.746,496.5,57.746,492.5,61.746,488.5,57.746,492.5,66.746" style="stroke: #A80036; stroke-width: 1.0;"/><!--MD5=[f95ee2359d1621e14d422bb08e8d360a]
link Your colleague Trummu is approaching you.\n Trummu urgently needs your support in his task. to #518119--><path d="M492.5,115.236 C492.5,132.183 492.5,154.725 492.5,169.767 " fill="none" id="Your colleague Trummu is approaching you.\n Trummu urgently needs your support in his task.-to-#518119" style="stroke: #A80036; stroke-width: 1.0;"/><polygon fill="#A80036" points="492.5,174.945,496.5,165.945,492.5,169.945,488.5,165.945,492.5,174.945" style="stroke: #A80036; stroke-width: 1.0;"/><text fill="#000000" font-family="sans-serif" font-size="11" lengthAdjust="spacingAndGlyphs" textLength="127" x="512.7406" y="167.5287">Do you help Trummu?</text><!--MD5=[23988d2874bf2752e9684b539ebe1126]
link #518119 to #518122--><path d="M492.5,199.425 C492.5,223.278 492.5,278.429 492.5,305.878 " fill="none" id="#518119-to-#518122" style="stroke: #A80036; stroke-width: 1.0;"/><polygon fill="#A80036" points="492.5,310.981,496.5,301.981,492.5,305.981,488.5,301.981,492.5,310.981" style="stroke: #A80036; stroke-width: 1.0;"/><text fill="#000000" font-family="sans-serif" font-size="11" lengthAdjust="spacingAndGlyphs" textLength="174" x="497" y="249.2104">You help Trummu, even if you</text><text fill="#000000" font-family="sans-serif" font-size="11" lengthAdjust="spacingAndGlyphs" textLength="177" x="497.5" y="262.0151">might miss your own Deadline.</text><text fill="#000000" font-family="sans-serif" font-size="11" lengthAdjust="spacingAndGlyphs" textLength="78" x="511.5125" y="300.6033">dice roll &lt;= 3</text><!--MD5=[d42d522a065e1d5cee589d1aae451e98]
reverse link helpNoProblem to #518122--><path d="M427.463,323 C449.056,323 468.389,323 480.255,323 " fill="none" id="helpNoProblem-backto-#518122" style="stroke: #A80036; stroke-width: 1.0;"/><polygon fill="#A80036" points="422.228,323,431.228,327,427.228,323,431.228,319,422.228,323" style="stroke: #A80036; stroke-width: 1.0;"/><text fill="#000000" font-family="sans-serif" font-size="11" lengthAdjust="spacingAndGlyphs" textLength="23" x="439.75" y="317.2104">true</text><!--MD5=[70f44da02cdb1a6ef308243c70442674]
link #518122 to Trummu is satisfied, \n but because of the delay \n you now have problems meeting your deadline.\n Your stats change: \n +2 communication--><path d="M493.206,334.593 C494.279,350.685 496.387,382.311 498.21,409.647 " fill="none" id="#518122-to-Trummu is satisfied, \n but because of the delay \n you now have problems meeting your deadline.\n Your stats change: \n +2 communication" style="stroke: #A80036; stroke-width: 1.0;"/><polygon fill="#A80036" points="498.546,414.697,501.9379,405.4507,498.2131,409.7081,493.9557,405.9833,498.546,414.697" style="stroke: #A80036; stroke-width: 1.0;"/><text fill="#000000" font-family="sans-serif" font-size="11" lengthAdjust="spacingAndGlyphs" textLength="28" x="498.5" y="392.2104">false</text><!--MD5=[e5af6ad941e64a6713f954a5deece0e9]
link Trummu is satisfied, \n but because of the delay \n you now have problems meeting your deadline.\n Your stats change: \n +2 communication to #518130--><path d="M502.418,505.066 C502.685,517.876 502.96,531.061 503.165,540.941 " fill="none" id="Trummu is satisfied, \n but because of the delay \n you now have problems meeting your deadline.\n Your stats change: \n +2 communication-to-#518130" style="stroke: #A80036; stroke-width: 1.0;"/><polygon fill="#A80036" points="503.272,546.066,507.0835,536.9845,503.1677,541.0671,499.0852,537.1514,503.272,546.066" style="stroke: #A80036; stroke-width: 1.0;"/><text fill="#000000" font-family="sans-serif" font-size="11" lengthAdjust="spacingAndGlyphs" textLength="161" x="292.2253" y="526.8276">Do you want to ask for help,</text><text fill="#000000" font-family="sans-serif" font-size="11" lengthAdjust="spacingAndGlyphs" textLength="213" x="270.2253" y="539.6323">so you can meet your own deadline?</text><!--MD5=[0be84f5eadf0c78a00ff00bde6dc9d90]
link #518130 to alone--><path d="M514.315,559.444 C549.051,561.082 657.006,567.889 682.5,590 C703.352,608.085 711.864,638.701 715.297,662.728 " fill="none" id="#518130-to-alone" style="stroke: #A80036; stroke-width: 1.0;"/><polygon fill="#A80036" points="715.955,667.748,718.751,658.3043,715.3049,662.7904,710.8189,659.3444,715.955,667.748" style="stroke: #A80036; stroke-width: 1.0;"/><text fill="#000000" font-family="sans-serif" font-size="11" lengthAdjust="spacingAndGlyphs" textLength="15" x="694.5" y="601.2104">No</text><!--MD5=[e0ac580c488235c955ca2e6b179ac67b]
link #518130 to #518135--><path d="M503.5,570.214 C503.5,583.085 503.5,604.298 503.5,618.924 " fill="none" id="#518130-to-#518135" style="stroke: #A80036; stroke-width: 1.0;"/><polygon fill="#A80036" points="503.5,623.987,507.5,614.987,503.5,618.987,499.5,614.987,503.5,623.987" style="stroke: #A80036; stroke-width: 1.0;"/><text fill="#000000" font-family="sans-serif" font-size="11" lengthAdjust="spacingAndGlyphs" textLength="176" x="504.5" y="601.2104">Yes, you ask Yaggaya for help.</text><text fill="#000000" font-family="sans-serif" font-size="11" lengthAdjust="spacingAndGlyphs" textLength="110" x="373.2188" y="615.7035">communication &gt; 6</text><!--MD5=[606ce80d0394a7fd5cafd21b062adadb]
link #518135 to getHelp--><path d="M495.742,640.454 C479.032,647.895 438.626,665.886 407.404,679.787 " fill="none" id="#518135-to-getHelp" style="stroke: #A80036; stroke-width: 1.0;"/><polygon fill="#A80036" points="402.477,681.981,412.3259,681.9756,407.0449,679.9478,409.0727,674.6669,402.477,681.981" style="stroke: #A80036; stroke-width: 1.0;"/><text fill="#000000" font-family="sans-serif" font-size="11" lengthAdjust="spacingAndGlyphs" textLength="23" x="424.966" y="658.4924">true</text><!--MD5=[bf729748253a407813c7046ecf7918c0]
link #518135 to Yaggaya will not help you and therefore you will miss your deadline \n and need an additional 5 days. \n Your stats change: \n-2 analytics--><path d="M510.448,641.229 C518.235,646.423 530.432,656.034 535.5,668 C546.247,693.374 546.776,704.857 535.5,730 C532.979,735.621 529.599,740.915 525.704,745.841 " fill="none" id="#518135-to-Yaggaya will not help you and therefore you will miss your deadline \n and need an additional 5 days. \n Your stats change: \n-2 analytics" style="stroke: #A80036; stroke-width: 1.0;"/><polygon fill="#A80036" points="522.319,749.891,531.1607,745.5523,525.5262,746.0552,525.0234,740.4207,522.319,749.891" style="stroke: #A80036; stroke-width: 1.0;"/><text fill="#000000" font-family="sans-serif" font-size="11" lengthAdjust="spacingAndGlyphs" textLength="28" x="545.5" y="703.2104">false</text><!--MD5=[a6dda73dd7d28aeef25975eb6f3b847f]
link Yaggaya will not help you and therefore you will miss your deadline \n and need an additional 5 days. \n Your stats change: \n-2 analytics to nextDecision--><path d="M380.929,826.0352 C349.302,838.9678 314.566,853.1714 285.878,864.9023 " fill="none" id="Yaggaya will not help you and therefore you will miss your deadline \n and need an additional 5 days. \n Your stats change: \n-2 analytics-to-nextDecision" style="stroke: #0000FF; stroke-width: 1.0; stroke-dasharray: 1.0,3.0;"/><polygon fill="#0000FF" points="280.961,866.9127,290.8054,867.2081,285.5889,865.0199,287.777,859.8034,280.961,866.9127" style="stroke: #0000FF; stroke-width: 1.0;"/><!--MD5=[240c8374d33fa92207823046e95660bc]
reverse link noHelp to #518119--><path d="M279.284,187 C358.569,187 448.413,187 480.406,187 " fill="none" id="noHelp-backto-#518119" style="stroke: #A80036; stroke-width: 1.0;"/><polygon fill="#A80036" points="274.078,187,283.078,191,279.078,187,283.078,183,274.078,187" style="stroke: #A80036; stroke-width: 1.0;"/><text fill="#000000" font-family="sans-serif" font-size="11" lengthAdjust="spacingAndGlyphs" textLength="181" x="284.75" y="155.2104">You have enough to do on your</text><text fill="#000000" font-family="sans-serif" font-size="11" lengthAdjust="spacingAndGlyphs" textLength="159" x="297.75" y="168.0151">own and therefore continue</text><text fill="#000000" font-family="sans-serif" font-size="11" lengthAdjust="spacingAndGlyphs" textLength="156" x="301.25" y="180.8198">to work on your own things.</text><!--MD5=[d5553599d00b10346e7339e7b2caaa66]
link alone to nextDecision--><path d="M721.932,730.231 C724.291,759.009 722.607,801.463 697.5,826 C648.948,873.4519 468.774,886.3791 345.359,889.5373 " fill="none" id="alone-to-nextDecision" style="stroke: #0000FF; stroke-width: 1.0; stroke-dasharray: 1.0,3.0;"/><polygon fill="#0000FF" points="340.26,889.6631,349.3556,893.4408,345.2585,889.5402,349.159,885.4432,340.26,889.6631" style="stroke: #0000FF; stroke-width: 1.0;"/><!--MD5=[12cee32483f60359d4b44d6dc365847a]
link helpNoProblem to nextDecision--><path d="M243.5,361.174 C213,384.815 182.5,418.565 182.5,459 C182.5,459 182.5,459 182.5,789 C182.5,815.3061 194.797,842.7159 206.084,862.3326 " fill="none" id="helpNoProblem-to-nextDecision" style="stroke: #0000FF; stroke-width: 1.0; stroke-dasharray: 1.0,3.0;"/><polygon fill="#0000FF" points="208.622,866.6458,207.5047,856.8605,206.0861,862.3366,200.61,860.918,208.622,866.6458" style="stroke: #0000FF; stroke-width: 1.0;"/><!--MD5=[d607a1fa4b63df420e4d6766b6376a93]
link getHelp to nextDecision--><path d="M294.173,716.111 C275.769,723.539 257.755,734.336 245.5,750 C220.446,782.022 219.003,831.1203 221.118,861.8532 " fill="none" id="getHelp-to-nextDecision" style="stroke: #0000FF; stroke-width: 1.0; stroke-dasharray: 1.0,3.0;"/><polygon fill="#0000FF" points="221.517,866.9958,224.809,857.7134,221.1303,862.0108,216.833,858.3321,221.517,866.9958" style="stroke: #0000FF; stroke-width: 1.0;"/><!--MD5=[71ba2a4dfd89c73fc039a48ba47d7050]
link noHelp to nextDecision--><path d="M140.5,218.069 C140.5,245.227 140.5,286.29 140.5,322 C140.5,322 140.5,322 140.5,789 C140.5,819.2731 163.084,845.3064 184.831,863.3578 " fill="none" id="noHelp-to-nextDecision" style="stroke: #0000FF; stroke-width: 1.0; stroke-dasharray: 1.0,3.0;"/><polygon fill="#0000FF" points="188.876,866.6347,184.4002,857.8616,184.9907,863.4876,179.3648,864.0781,188.876,866.6347" style="stroke: #0000FF; stroke-width: 1.0;"/><!--MD5=[ca1e9048dfbaaa5553666f4936eda152]
@startuml
(*) - -> "Your colleague Trummu is approaching you.\n Trummu urgently needs your support in his task."
if "Do you help Trummu?" then 
- -> [You help Trummu, even if you\n might miss your own Deadline.] if "dice roll <= 3" then
-left-> [true] "Trummu is satisfied and luckily \n you don't miss your own deadline. \n Your stats change: \n +2 communication" as helpNoProblem
else
- -> [false] "Trummu is satisfied, \n but because of the delay \n you now have problems meeting your deadline.\n Your stats change: \n +2 communication"
if "Do you want to ask for help, \n so you can meet your own deadline?" then 
- -> [No] "You miss your own deadline. \n Your stats change: \n -2 analytics." as alone

else 
- -> [Yes, you ask Yaggaya for help.]if "communication > 6" then 
-right-> [true] "Yaggaya helps you and you can meet your deadline." as getHelp

else
- -> [false] "Yaggaya will not help you and therefore you will miss your deadline \n and need an additional 5 days. \n Your stats change: \n-2 analytics"
-[#blue,dotted]-> "The project is nearing completion, \n only a code review is missing." as nextDecision
endif
endif
endif
else
-left-> [You have enough to do on your \n own and therefore continue \n to work on your own things.] "Trummu is angry that you didn't help him.\n Your stats change: \n -2 communication" as noHelp

alone -[#blue,dotted]-> nextDecision
helpNoProblem -[#blue,dotted]-> nextDecision
getHelp -[#blue,dotted]-> nextDecision
noHelp -[#blue,dotted]-> nextDecision
@enduml

PlantUML version 1.2020.20beta13(Unknown compile time)
(GPL source distribution)
Java Runtime: Java(TM) SE Runtime Environment
JVM: Java HotSpot(TM) 64-Bit Server VM
Default Encoding: UTF-8
Language: en
Country: US
--></g></svg>