<?xml version="1.0" encoding="UTF-8" standalone="no"?><svg xmlns="http://www.w3.org/2000/svg" xmlns:xlink="http://www.w3.org/1999/xlink" contentScriptType="application/ecmascript" contentStyleType="text/css" height="383px" preserveAspectRatio="none" style="width:648px;height:383px;" version="1.1" viewBox="0 0 648 383" width="648px" zoomAndPan="magnify"><defs><filter height="300%" id="f2u7rwqfdcecp" width="300%" x="-1" y="-1"><feGaussianBlur result="blurOut" stdDeviation="2.0"/><feColorMatrix in="blurOut" result="blurOut2" type="matrix" values="0 0 0 0 0 0 0 0 0 0 0 0 0 0 0 0 0 0 .4 0"/><feOffset dx="4.0" dy="4.0" in="blurOut2" result="blurOut3"/><feBlend in="SourceGraphic" in2="blurOut3" mode="normal"/></filter></defs><g><ellipse cx="300.5" cy="16" fill="#000000" filter="url(#f2u7rwqfdcecp)" rx="10" ry="10" style="stroke: none; stroke-width: 1.0;"/><rect fill="#FEFECE" filter="url(#f2u7rwqfdcecp)" height="47.9375" rx="12.5" ry="12.5" style="stroke: #A80036; stroke-width: 1.5;" width="219" x="191" y="67"/><text fill="#000000" font-family="sans-serif" font-size="12" lengthAdjust="spacingAndGlyphs" textLength="189" x="204" y="88.1387">The project is near completion,</text><text fill="#000000" font-family="sans-serif" font-size="12" lengthAdjust="spacingAndGlyphs" textLength="195" x="205" y="102.1074">only the code review is missing.</text><polygon fill="#FEFECE" filter="url(#f2u7rwqfdcecp)" points="300.5,156,312.5,168,300.5,180,288.5,168,300.5,156" style="stroke: #A80036; stroke-width: 1.5;"/><rect fill="#FEFECE" filter="url(#f2u7rwqfdcecp)" height="47.9375" rx="12.5" ry="12.5" style="stroke: #A80036; stroke-width: 1.5;" width="139" x="134" y="247"/><text fill="#000000" font-family="sans-serif" font-size="12" lengthAdjust="spacingAndGlyphs" textLength="74" x="164.5" y="268.1387">+2 analytics</text><text fill="#000000" font-family="sans-serif" font-size="12" lengthAdjust="spacingAndGlyphs" textLength="115" x="148" y="282.1074">+2 communication.</text><rect fill="#FEFECE" filter="url(#f2u7rwqfdcecp)" height="47.9375" rx="12.5" ry="12.5" style="stroke: #A80036; stroke-width: 1.5;" width="134" x="330.5" y="247"/><text fill="#000000" font-family="sans-serif" font-size="12" lengthAdjust="spacingAndGlyphs" textLength="69" x="361" y="268.1387">-2 analytics</text><text fill="#000000" font-family="sans-serif" font-size="12" lengthAdjust="spacingAndGlyphs" textLength="110" x="344.5" y="282.1074">-2 communication.</text><rect fill="#FEFECE" filter="url(#f2u7rwqfdcecp)" height="33.9688" rx="12.5" ry="12.5" style="stroke: #A80036; stroke-width: 1.5;" width="627" x="7" y="336"/><text fill="#000000" font-family="sans-serif" font-size="12" lengthAdjust="spacingAndGlyphs" textLength="607" x="17" y="357.1387">The project has been completed, now the best employees are rewarded with a workshop in Hawaii.</text><!--MD5=[cbf03eace483e2b15c52fb8b8bdf5060]
link start to ende--><path d="M300.5,26.246 C300.5,35.108 300.5,48.951 300.5,61.477 " fill="none" id="start-to-ende" style="stroke: #A80036; stroke-width: 1.0;"/><polygon fill="#A80036" points="300.5,66.746,304.5,57.746,300.5,61.746,296.5,57.746,300.5,66.746" style="stroke: #A80036; stroke-width: 1.0;"/><!--MD5=[d27a1e850a8981d6ccfe829a16f0a350]
link ende to #2711--><path d="M300.5,115.319 C300.5,126.744 300.5,140.228 300.5,150.558 " fill="none" id="ende-to-#2711" style="stroke: #A80036; stroke-width: 1.0;"/><polygon fill="#A80036" points="300.5,155.645,304.5,146.645,300.5,150.645,296.5,146.645,300.5,155.645" style="stroke: #A80036; stroke-width: 1.0;"/><text fill="#000000" font-family="sans-serif" font-size="11" lengthAdjust="spacingAndGlyphs" textLength="0" x="299.575" y="145.5523"/><!--MD5=[b3501d2d5cf800c2a02a1b608158983b]
link #2711 to good--><path d="M290.45,170.137 C264.72,173.275 197.576,182.97 184.5,200 C175.198,212.114 178.975,228.462 185.527,242.313 " fill="none" id="#2711-to-good" style="stroke: #A80036; stroke-width: 1.0;"/><polygon fill="#A80036" points="187.84,246.905,187.3626,237.0677,185.5902,242.4397,180.2182,240.6674,187.84,246.905" style="stroke: #A80036; stroke-width: 1.0;"/><text fill="#000000" font-family="sans-serif" font-size="11" lengthAdjust="spacingAndGlyphs" textLength="30" x="271" y="211.2104">Sure.</text><text fill="#000000" font-family="sans-serif" font-size="11" lengthAdjust="spacingAndGlyphs" textLength="201" x="189.5" y="224.0151">Sidekickpet:"A review is important"</text><!--MD5=[41afc4730b029d53408c5deb47fa2fa0]
link #2711 to -2 analytics \n -2 communication.--><path d="M311.471,169.057 C331.283,169.815 372.799,174.54 392.5,200 C401.531,211.671 403.136,227.969 402.319,241.902 " fill="none" id="#2711-to--2 analytics \n -2 communication." style="stroke: #A80036; stroke-width: 1.0;"/><polygon fill="#A80036" points="401.918,246.915,406.6229,238.2626,402.3167,241.9309,398.6483,237.6247,401.918,246.915" style="stroke: #A80036; stroke-width: 1.0;"/><text fill="#000000" font-family="sans-serif" font-size="11" lengthAdjust="spacingAndGlyphs" textLength="152" x="402.5" y="211.2104">Nah, the test runs through.</text><text fill="#000000" font-family="sans-serif" font-size="11" lengthAdjust="spacingAndGlyphs" textLength="94" x="435.5" y="224.0151">Alles gut soweit.</text><!--MD5=[c92330770a1175305314e29ba6521ef9]
link -2 analytics \n -2 communication. to shop--><path d="M375.228,295.1393 C364.055,306.7481 350.649,320.6759 339.903,331.8415 " fill="none" id="-2 analytics \n -2 communication.-to-shop" style="stroke: #0000FF; stroke-width: 1.0; stroke-dasharray: 1.0,3.0;"/><polygon fill="#0000FF" points="336.367,335.5149,345.4899,331.8038,339.8341,331.9122,339.7257,326.2564,336.367,335.5149" style="stroke: #0000FF; stroke-width: 1.0;"/><!--MD5=[c90c3be9c801a2a5bd3826e744fc145d]
link good to shop--><path d="M237.341,295.1393 C254.738,307.0343 275.695,321.3642 292.219,332.6624 " fill="none" id="good-to-shop" style="stroke: #0000FF; stroke-width: 1.0; stroke-dasharray: 1.0,3.0;"/><polygon fill="#0000FF" points="296.755,335.7641,291.5824,327.3829,292.6273,332.9425,287.0677,333.9873,296.755,335.7641" style="stroke: #0000FF; stroke-width: 1.0;"/><!--MD5=[4020a45700593e9e819dacc8caa532f0]
@startuml
(*) - -> "The project is near completion, \n only the code review is missing." as ende
if "" then 
- -> [Sure. \n Sidekickpet:"A review is important"] "+2 analytics \n +2 communication." as good
else 
- -> [Nah, the test runs through. \n Alles gut soweit.] "-2 analytics \n -2 communication."
-[#blue,dotted]-> "The project has been completed, now the best employees are rewarded with a workshop in Hawaii." as shop
good -[#blue,dotted]-> shop
@enduml

PlantUML version 1.2020.20beta13(Unknown compile time)
(GPL source distribution)
Java Runtime: Java(TM) SE Runtime Environment
JVM: Java HotSpot(TM) 64-Bit Server VM
Default Encoding: UTF-8
Language: en
Country: US
--></g></svg>