<?xml version="1.0" encoding="UTF-8" standalone="no"?><svg xmlns="http://www.w3.org/2000/svg" xmlns:xlink="http://www.w3.org/1999/xlink" contentScriptType="application/ecmascript" contentStyleType="text/css" height="1416px" preserveAspectRatio="none" style="width:321px;height:1416px;" version="1.1" viewBox="0 0 321 1416" width="321px" zoomAndPan="magnify"><defs><filter height="300%" id="f15mzrnl1hi4us" width="300%" x="-1" y="-1"><feGaussianBlur result="blurOut" stdDeviation="2.0"/><feColorMatrix in="blurOut" result="blurOut2" type="matrix" values="0 0 0 0 0 0 0 0 0 0 0 0 0 0 0 0 0 0 .4 0"/><feOffset dx="4.0" dy="4.0" in="blurOut2" result="blurOut3"/><feBlend in="SourceGraphic" in2="blurOut3" mode="normal"/></filter></defs><g><rect fill="#FEFECE" filter="url(#f15mzrnl1hi4us)" height="33.9688" rx="12.5" ry="12.5" style="stroke: #A80036; stroke-width: 1.5;" width="32" x="122.8563" y="7"/><text fill="#000000" font-family="sans-serif" font-size="12" lengthAdjust="spacingAndGlyphs" textLength="0" x="144.8563" y="28.1387"/><rect fill="#FEFECE" filter="url(#f15mzrnl1hi4us)" height="33.9688" rx="12.5" ry="12.5" style="stroke: #A80036; stroke-width: 1.5;" width="124" x="76.8563" y="82"/><text fill="#000000" font-family="sans-serif" font-size="12" lengthAdjust="spacingAndGlyphs" textLength="104" x="86.8563" y="103.1387">Voluntary training</text><polygon fill="#FEFECE" filter="url(#f15mzrnl1hi4us)" points="138.8563,157,150.8563,169,138.8563,181,126.8563,169,138.8563,157" style="stroke: #A80036; stroke-width: 1.5;"/><rect fill="#FEFECE" filter="url(#f15mzrnl1hi4us)" height="47.9375" rx="12.5" ry="12.5" style="stroke: #A80036; stroke-width: 1.5;" width="150" x="63.8563" y="310"/><text fill="#000000" font-family="sans-serif" font-size="12" lengthAdjust="spacingAndGlyphs" textLength="130" x="73.8563" y="331.1387">Modification requests</text><text fill="#000000" font-family="sans-serif" font-size="12" lengthAdjust="spacingAndGlyphs" textLength="96" x="90.8563" y="345.1074">from customers</text><rect fill="#FEFECE" filter="url(#f15mzrnl1hi4us)" height="33.9688" rx="12.5" ry="12.5" style="stroke: #A80036; stroke-width: 1.5;" width="132" x="175.8567" y="235"/><text fill="#000000" font-family="sans-serif" font-size="12" lengthAdjust="spacingAndGlyphs" textLength="112" x="185.8567" y="256.1387">Improve expertise</text><polygon fill="#FEFECE" filter="url(#f15mzrnl1hi4us)" points="138.8563,399,150.8563,411,138.8563,423,126.8563,411,138.8563,399" style="stroke: #A80036; stroke-width: 1.5;"/><rect fill="#FEFECE" filter="url(#f15mzrnl1hi4us)" height="33.9688" rx="12.5" ry="12.5" style="stroke: #A80036; stroke-width: 1.5;" width="102" x="87.8563" y="490"/><text fill="#000000" font-family="sans-serif" font-size="12" lengthAdjust="spacingAndGlyphs" textLength="82" x="97.8563" y="511.1387">Bug detected</text><polygon fill="#FEFECE" filter="url(#f15mzrnl1hi4us)" points="138.8563,565,150.8563,577,138.8563,589,126.8563,577,138.8563,565" style="stroke: #A80036; stroke-width: 1.5;"/><rect fill="#FEFECE" filter="url(#f15mzrnl1hi4us)" height="47.9375" rx="12.5" ry="12.5" style="stroke: #A80036; stroke-width: 1.5;" width="146" x="65.8563" y="656"/><text fill="#000000" font-family="sans-serif" font-size="12" lengthAdjust="spacingAndGlyphs" textLength="126" x="75.8563" y="677.1387">Spontaneous feature</text><text fill="#000000" font-family="sans-serif" font-size="12" lengthAdjust="spacingAndGlyphs" textLength="96" x="90.8563" y="691.1074">from customers</text><polygon fill="#FEFECE" filter="url(#f15mzrnl1hi4us)" points="138.8563,745,150.8563,757,138.8563,769,126.8563,757,138.8563,745" style="stroke: #A80036; stroke-width: 1.5;"/><rect fill="#FEFECE" filter="url(#f15mzrnl1hi4us)" height="33.9688" rx="12.5" ry="12.5" style="stroke: #A80036; stroke-width: 1.5;" width="130" x="93.8563" y="989"/><text fill="#000000" font-family="sans-serif" font-size="12" lengthAdjust="spacingAndGlyphs" textLength="110" x="103.8563" y="1010.1387">support colleague</text><rect fill="#FEFECE" filter="url(#f15mzrnl1hi4us)" height="33.9688" rx="12.5" ry="12.5" style="stroke: #A80036; stroke-width: 1.5;" width="146" x="151.8567" y="823"/><text fill="#000000" font-family="sans-serif" font-size="12" lengthAdjust="spacingAndGlyphs" textLength="126" x="161.8567" y="844.1387">Modification process</text><polygon fill="#FEFECE" filter="url(#f15mzrnl1hi4us)" points="217.8567,911,229.8567,923,217.8567,935,205.8567,923,217.8567,911" style="stroke: #A80036; stroke-width: 1.5;"/><polygon fill="#FEFECE" filter="url(#f15mzrnl1hi4us)" points="158.8567,1064,170.8567,1076,158.8567,1088,146.8567,1076,158.8567,1064" style="stroke: #A80036; stroke-width: 1.5;"/><rect fill="#FEFECE" filter="url(#f15mzrnl1hi4us)" height="33.9688" rx="12.5" ry="12.5" style="stroke: #A80036; stroke-width: 1.5;" width="99" x="109.3563" y="1142"/><text fill="#000000" font-family="sans-serif" font-size="12" lengthAdjust="spacingAndGlyphs" textLength="79" x="119.3563" y="1163.1387">Code Review</text><polygon fill="#FEFECE" filter="url(#f15mzrnl1hi4us)" points="158.8567,1217,170.8567,1229,158.8567,1241,146.8567,1229,158.8567,1217" style="stroke: #A80036; stroke-width: 1.5;"/><rect fill="#FEFECE" filter="url(#f15mzrnl1hi4us)" height="47.9375" rx="12.5" ry="12.5" style="stroke: #A80036; stroke-width: 1.5;" width="82" x="117.8563" y="1295"/><text fill="#000000" font-family="sans-serif" font-size="12" lengthAdjust="spacingAndGlyphs" textLength="62" x="127.8563" y="1316.1387">Workshop</text><text fill="#000000" font-family="sans-serif" font-size="12" lengthAdjust="spacingAndGlyphs" textLength="58" x="129.8563" y="1330.1074">on Hawaii</text><ellipse cx="158.8567" cy="1394" fill="none" filter="url(#f15mzrnl1hi4us)" rx="10" ry="10" style="stroke: #000000; stroke-width: 1.0;"/><ellipse cx="159.3567" cy="1394.5" fill="#000000" rx="6" ry="6" style="stroke: none; stroke-width: 1.0;"/><!--MD5=[582a1246ff240907606e70f1281d1aa2]
link     to Voluntary training--><path d="M138.8567,41.2 C138.8567,51.69 138.8567,65.46 138.8567,76.82 " fill="none" id="   -to-Voluntary training" style="stroke: #0000FF; stroke-width: 1.0; stroke-dasharray: 1.0,3.0;"/><polygon fill="#0000FF" points="138.8567,81.84,142.8567,72.84,138.8567,76.84,134.8567,72.84,138.8567,81.84" style="stroke: #0000FF; stroke-width: 1.0;"/><!--MD5=[c36b4413a3b76ecd63e51c60af9079e1]
link Voluntary training to #263075--><path d="M138.8567,116.12 C138.8567,126.92 138.8567,141.08 138.8567,151.88 " fill="none" id="Voluntary training-to-#263075" style="stroke: #A80036; stroke-width: 1.0;"/><polygon fill="#A80036" points="138.8567,156.89,142.8567,147.89,138.8567,151.89,134.8567,147.89,138.8567,156.89" style="stroke: #A80036; stroke-width: 1.0;"/><text fill="#000000" font-family="sans-serif" font-size="11" lengthAdjust="spacingAndGlyphs" textLength="0" x="137.8819" y="146.468"/><!--MD5=[e05e7c1eb2d3bc4c1b131d46c877b7d7]
link #263075 to a--><path d="M130.3557,172.88 C100.8368,183.37 6,221.41 32.8563,269 C41.9828,285.17 57.0185,297.72 72.9368,307.24 " fill="none" id="#263075-to-a" style="stroke: #A80036; stroke-width: 1.0;"/><polygon fill="#A80036" points="77.4457,309.85,71.6563,301.8824,73.1171,307.3474,67.6521,308.8082,77.4457,309.85" style="stroke: #A80036; stroke-width: 1.0;"/><text fill="#000000" font-family="sans-serif" font-size="11" lengthAdjust="spacingAndGlyphs" textLength="79" x="33.8563" y="256.2104">Go on holiday</text><!--MD5=[e05e7c1eb2d3bc4c1b131d46c877b7d7]
link #263075 to a--><path d="M138.8567,181.2 C138.8567,206.36 138.8567,268 138.8567,304.52 " fill="none" id="#263075-to-a-1" style="stroke: #A80036; stroke-width: 1.0;"/><polygon fill="#A80036" points="138.8567,309.72,142.8567,300.72,138.8567,304.72,134.8567,300.72,138.8567,309.72" style="stroke: #A80036; stroke-width: 1.0;"/><text fill="#000000" font-family="sans-serif" font-size="11" lengthAdjust="spacingAndGlyphs" textLength="15" x="139.8567" y="256.2104">No</text><!--MD5=[8edece3812c000b056ed331832911ee1]
link #263075 to ex--><path d="M145.2997,175.07 C159.3717,186.13 193.4837,212.96 217.1427,231.57 " fill="none" id="#263075-to-ex" style="stroke: #A80036; stroke-width: 1.0;"/><polygon fill="#A80036" points="221.1387,234.71,216.5376,226.002,217.2087,231.6189,211.5918,232.29,221.1387,234.71" style="stroke: #A80036; stroke-width: 1.0;"/><text fill="#000000" font-family="sans-serif" font-size="11" lengthAdjust="spacingAndGlyphs" textLength="21" x="193.8567" y="212.2104">Yes</text><!--MD5=[7028573f2c4256ca2e88c5db65027600]
link ex to a--><path d="M221.0127,269.19 C207.1397,279.96 188.6007,294.36 172.6447,306.76 " fill="none" id="ex-to-a" style="stroke: #A80036; stroke-width: 1.0;"/><polygon fill="#A80036" points="168.6477,309.86,178.2116,307.508,172.5996,306.7969,173.3107,301.1849,168.6477,309.86" style="stroke: #A80036; stroke-width: 1.0;"/><!--MD5=[a968e87542655470ce8fef0353943a37]
link a to #263084--><path d="M138.8567,358.32 C138.8567,369.74 138.8567,383.23 138.8567,393.56 " fill="none" id="a-to-#263084" style="stroke: #A80036; stroke-width: 1.0;"/><polygon fill="#A80036" points="138.8567,398.64,142.8567,389.64,138.8567,393.64,134.8567,389.64,138.8567,398.64" style="stroke: #A80036; stroke-width: 1.0;"/><text fill="#000000" font-family="sans-serif" font-size="11" lengthAdjust="spacingAndGlyphs" textLength="0" x="137.9319" y="388.545"/><!--MD5=[a70cc8dbe36579056c1bd1d2e2a5c063]
link #263084 to be--><path d="M127.7505,412.066 C108.1664,412.857 67.8639,417.659 49.8563,443 C42.9053,452.782 43.148,460.05 49.8563,470 C57.6569,481.57 69.8737,489.422 82.7841,494.752 " fill="none" id="#263084-to-be" style="stroke: #A80036; stroke-width: 1.0;"/><polygon fill="#A80036" points="87.565,496.603,80.6175,489.6221,82.9026,494.7969,77.7278,497.082,87.565,496.603" style="stroke: #A80036; stroke-width: 1.0;"/><text fill="#000000" font-family="sans-serif" font-size="11" lengthAdjust="spacingAndGlyphs" textLength="62" x="50.8563" y="460.7104">implement</text><!--MD5=[a70cc8dbe36579056c1bd1d2e2a5c063]
link #263084 to be--><path d="M138.8567,423.152 C138.8567,438.266 138.8567,465.557 138.8567,484.673 " fill="none" id="#263084-to-be-1" style="stroke: #A80036; stroke-width: 1.0;"/><polygon fill="#A80036" points="138.8567,489.831,142.8567,480.831,138.8567,484.831,134.8567,480.831,138.8567,489.831" style="stroke: #A80036; stroke-width: 1.0;"/><text fill="#000000" font-family="sans-serif" font-size="11" lengthAdjust="spacingAndGlyphs" textLength="36" x="152.8567" y="454.2104">do not</text><text fill="#000000" font-family="sans-serif" font-size="11" lengthAdjust="spacingAndGlyphs" textLength="62" x="139.8567" y="467.0151">implement</text><!--MD5=[a70cc8dbe36579056c1bd1d2e2a5c063]
link #263084 to be--><path d="M148.9667,413.449 C163.9837,416.206 191.7137,423.756 203.8567,443 C210.2597,453.149 209.9487,459.662 203.8567,470 C199.7887,476.903 193.8687,482.575 187.2347,487.208 " fill="none" id="#263084-to-be-2" style="stroke: #A80036; stroke-width: 1.0;"/><polygon fill="#A80036" points="183.0217,489.96,192.7441,488.3867,187.2077,487.2255,188.3689,481.6891,183.0217,489.96" style="stroke: #A80036; stroke-width: 1.0;"/><text fill="#000000" font-family="sans-serif" font-size="11" lengthAdjust="spacingAndGlyphs" textLength="46" x="208.8567" y="460.7104">hang up</text><!--MD5=[3f50d0e21df963adc3100b5e2efe6df4]
link be to #263091--><path d="M138.8567,524.115 C138.8567,534.916 138.8567,549.082 138.8567,559.883 " fill="none" id="be-to-#263091" style="stroke: #A80036; stroke-width: 1.0;"/><polygon fill="#A80036" points="138.8567,564.885,142.8567,555.885,138.8567,559.885,134.8567,555.885,138.8567,564.885" style="stroke: #A80036; stroke-width: 1.0;"/><text fill="#000000" font-family="sans-serif" font-size="11" lengthAdjust="spacingAndGlyphs" textLength="0" x="137.8819" y="554.4605"/><!--MD5=[fc3c21fd0ed361b459d9ea24fbbc858a]
link #263091 to a2--><path d="M129.8237,580.07 C116.9571,583.559 93.8094,591.965 83.8563,609 C77.8026,619.361 78.5977,625.214 83.8563,636 C86.8191,642.077 91.1021,647.548 95.9892,652.387 " fill="none" id="#263091-to-a2" style="stroke: #A80036; stroke-width: 1.0;"/><polygon fill="#A80036" points="99.8323,655.964,95.9698,646.9042,96.1724,652.5574,90.5192,652.76,99.8323,655.964" style="stroke: #A80036; stroke-width: 1.0;"/><text fill="#000000" font-family="sans-serif" font-size="11" lengthAdjust="spacingAndGlyphs" textLength="84" x="84.8563" y="620.2104">write bugticket</text><text fill="#000000" font-family="sans-serif" font-size="11" lengthAdjust="spacingAndGlyphs" textLength="0" x="128.8563" y="633.0151"/><!--MD5=[fc3c21fd0ed361b459d9ea24fbbc858a]
link #263091 to a2--><path d="M145.8037,582.229 C153.5907,587.423 165.7887,597.034 170.8567,609 C175.5367,620.05 174.6297,624.609 170.8567,636 C169.0637,641.411 166.2977,646.694 163.1257,651.6 " fill="none" id="#263091-to-a2-1" style="stroke: #A80036; stroke-width: 1.0;"/><polygon fill="#A80036" points="160.1147,655.994,168.5014,650.8303,162.9407,651.8693,161.9018,646.3086,160.1147,655.994" style="stroke: #A80036; stroke-width: 1.0;"/><text fill="#000000" font-family="sans-serif" font-size="11" lengthAdjust="spacingAndGlyphs" textLength="36" x="174.8567" y="626.7104">ignore</text><!--MD5=[b97d65c5f6152e9d8f5b17470f88faf5]
link a2 to #263097--><path d="M138.8567,704.319 C138.8567,715.744 138.8567,729.228 138.8567,739.558 " fill="none" id="a2-to-#263097" style="stroke: #A80036; stroke-width: 1.0;"/><polygon fill="#A80036" points="138.8567,744.645,142.8567,735.645,138.8567,739.645,134.8567,735.645,138.8567,744.645" style="stroke: #A80036; stroke-width: 1.0;"/><text fill="#000000" font-family="sans-serif" font-size="11" lengthAdjust="spacingAndGlyphs" textLength="0" x="137.9319" y="734.5523"/><!--MD5=[9ea25c9a556af73dd27f75843fa1819a]
link #263097 to ku--><path d="M138.4717,768.633 C137.5357,799.722 136.0787,893.054 148.8567,969 C149.6627,973.792 150.8527,978.861 152.1337,983.636 " fill="none" id="#263097-to-ku" style="stroke: #A80036; stroke-width: 1.0;"/><polygon fill="#A80036" points="153.5457,988.674,154.9698,978.9286,152.197,983.8593,147.2663,981.0865,153.5457,988.674" style="stroke: #A80036; stroke-width: 1.0;"/><text fill="#000000" font-family="sans-serif" font-size="11" lengthAdjust="spacingAndGlyphs" textLength="62" x="141.8567" y="888.2104">implement</text><!--MD5=[8b22c8d2704a46f6d94209ef9fcfd012]
link #263097 to x--><path d="M144.7677,763.567 C156.7927,774.893 184.6097,801.093 204.0657,819.418 " fill="none" id="#263097-to-x" style="stroke: #A80036; stroke-width: 1.0;"/><polygon fill="#A80036" points="207.8387,822.971,204.0299,813.8884,204.199,819.5428,198.5447,819.7119,207.8387,822.971" style="stroke: #A80036; stroke-width: 1.0;"/><text fill="#000000" font-family="sans-serif" font-size="11" lengthAdjust="spacingAndGlyphs" textLength="19" x="184.8567" y="800.2104">ask</text><!--MD5=[9974ed263e3eb1c9a41fb480b5e12bab]
link x to #263104--><path d="M223.4737,857.003 C222.2347,871.33 220.4307,892.209 219.2037,906.409 " fill="none" id="x-to-#263104" style="stroke: #A80036; stroke-width: 1.0;"/><polygon fill="#A80036" points="218.7487,911.68,223.5103,903.0587,219.1801,906.6986,215.5402,902.3684,218.7487,911.68" style="stroke: #A80036; stroke-width: 1.0;"/><text fill="#000000" font-family="sans-serif" font-size="11" lengthAdjust="spacingAndGlyphs" textLength="0" x="218.1255" y="900.3743"/><!--MD5=[75adbf75daa485364c49606120a40180]
link #263104 to ku--><path d="M208.1917,925.861 C194.4207,929.09 169.6267,937.174 158.8567,955 C153.7807,963.4 153.1887,974.133 154.1097,983.5 " fill="none" id="#263104-to-ku" style="stroke: #A80036; stroke-width: 1.0;"/><polygon fill="#A80036" points="154.7577,988.54,157.5757,979.1029,154.1192,983.5809,149.6412,980.1244,154.7577,988.54" style="stroke: #A80036; stroke-width: 1.0;"/><text fill="#000000" font-family="sans-serif" font-size="11" lengthAdjust="spacingAndGlyphs" textLength="32" x="159.8567" y="966.2104">alone</text><!--MD5=[75adbf75daa485364c49606120a40180]
link #263104 to ku--><path d="M214.5557,931.707 C210.4027,940.988 202.7317,956.843 193.8567,969 C189.8427,974.498 185.0207,979.992 180.2567,984.972 " fill="none" id="#263104-to-ku-1" style="stroke: #A80036; stroke-width: 1.0;"/><polygon fill="#A80036" points="176.6397,988.672,185.7915,985.0327,180.135,985.0967,180.071,979.4402,176.6397,988.672" style="stroke: #A80036; stroke-width: 1.0;"/><text fill="#000000" font-family="sans-serif" font-size="11" lengthAdjust="spacingAndGlyphs" textLength="41" x="202.8567" y="966.2104">discuss</text><!--MD5=[dfd3448dc0658eb620561e6031bcff41]
link ku to #263109--><path d="M158.8567,1023.115 C158.8567,1033.916 158.8567,1048.082 158.8567,1058.883 " fill="none" id="ku-to-#263109" style="stroke: #A80036; stroke-width: 1.0;"/><polygon fill="#A80036" points="158.8567,1063.885,162.8567,1054.885,158.8567,1058.885,154.8567,1054.885,158.8567,1063.885" style="stroke: #A80036; stroke-width: 1.0;"/><text fill="#000000" font-family="sans-serif" font-size="11" lengthAdjust="spacingAndGlyphs" textLength="0" x="157.8817" y="1053.4605"/><!--MD5=[6a7fceebba113c8342154498087b4702]
link #263109 to cr--><path d="M152.7217,1081.939 C146.3577,1087.497 136.7947,1097.174 132.8567,1108 C130.7287,1113.847 130.9417,1116.08 132.8567,1122 C134.5997,1127.392 137.4857,1132.655 140.7137,1137.419 " fill="none" id="#263109-to-cr" style="stroke: #A80036; stroke-width: 1.0;"/><polygon fill="#A80036" points="143.7517,1141.643,141.7425,1132.0013,140.8316,1137.5843,135.2486,1136.6734,143.7517,1141.643" style="stroke: #A80036; stroke-width: 1.0;"/><text fill="#000000" font-family="sans-serif" font-size="11" lengthAdjust="spacingAndGlyphs" textLength="25" x="133.8567" y="1119.2104">help</text><!--MD5=[6a7fceebba113c8342154498087b4702]
link #263109 to cr--><path d="M159.6897,1087.325 C160.1337,1093.35 160.6337,1101.1 160.8567,1108 C161.1577,1117.348 160.8517,1127.676 160.3957,1136.507 " fill="none" id="#263109-to-cr-1" style="stroke: #A80036; stroke-width: 1.0;"/><polygon fill="#A80036" points="160.0977,1141.789,164.6005,1133.0297,160.3806,1136.797,156.6133,1132.5771,160.0977,1141.789" style="stroke: #A80036; stroke-width: 1.0;"/><text fill="#000000" font-family="sans-serif" font-size="11" lengthAdjust="spacingAndGlyphs" textLength="47" x="161.8567" y="1119.2104">not help</text><!--MD5=[c71be9c5441e4d1c15531cf28e93ec09]
link cr to #263115--><path d="M158.8567,1176.115 C158.8567,1186.916 158.8567,1201.082 158.8567,1211.883 " fill="none" id="cr-to-#263115" style="stroke: #A80036; stroke-width: 1.0;"/><polygon fill="#A80036" points="158.8567,1216.885,162.8567,1207.885,158.8567,1211.885,154.8567,1207.885,158.8567,1216.885" style="stroke: #A80036; stroke-width: 1.0;"/><text fill="#000000" font-family="sans-serif" font-size="11" lengthAdjust="spacingAndGlyphs" textLength="0" x="157.8817" y="1206.4605"/><!--MD5=[2d98d03b3c0012df2b44f2281735648b]
link #263115 to ws--><path d="M152.7487,1235.461 C146.8737,1241.162 138.3787,1250.695 134.8567,1261 C131.5137,1270.779 134.0767,1281.262 138.5777,1290.537 " fill="none" id="#263115-to-ws" style="stroke: #A80036; stroke-width: 1.0;"/><polygon fill="#A80036" points="140.9257,1294.985,140.2611,1285.1586,138.5913,1290.5634,133.1865,1288.8936,140.9257,1294.985" style="stroke: #A80036; stroke-width: 1.0;"/><text fill="#000000" font-family="sans-serif" font-size="11" lengthAdjust="spacingAndGlyphs" textLength="21" x="135.8567" y="1272.2104">yes</text><!--MD5=[2d98d03b3c0012df2b44f2281735648b]
link #263115 to ws--><path d="M158.8567,1241.145 C158.8567,1253.3 158.8567,1273.227 158.8567,1289.744 " fill="none" id="#263115-to-ws-1" style="stroke: #A80036; stroke-width: 1.0;"/><polygon fill="#A80036" points="158.8567,1294.748,162.8567,1285.748,158.8567,1289.748,154.8567,1285.748,158.8567,1294.748" style="stroke: #A80036; stroke-width: 1.0;"/><text fill="#000000" font-family="sans-serif" font-size="11" lengthAdjust="spacingAndGlyphs" textLength="14" x="159.8567" y="1272.2104">no</text><!--MD5=[97cd4f31132e0c57c932e69c9d7f27eb]
link ws to end--><path d="M158.8567,1343.0977 C158.8567,1354.7987 158.8567,1368.6338 158.8567,1378.7651 " fill="none" id="ws-to-end" style="stroke: #A80036; stroke-width: 1.0;"/><polygon fill="#A80036" points="158.8567,1383.9756,162.8567,1374.9756,158.8567,1378.9756,154.8567,1374.9756,158.8567,1383.9756" style="stroke: #A80036; stroke-width: 1.0;"/><!--MD5=[d248500256484ea24e74ae47ca51b48d]
@startuml
"   " -[#blue,dotted]-> Voluntary training
if "" then
- -> [Go on holiday] "Modification requests\nfrom customers" as a
else
- -> [No] a
else
- -> [Yes] "Improve expertise" as ex
ex - -> a
if "" then
- -> [implement] "Bug detected" as be
else
- -> [do not\nimplement] be
else
- -> [hang up] be
if "" then
- -> [write bugticket\n] "Spontaneous feature\nfrom customers" as a2
else
- -> [ignore] a2
if "" then
- -> [implement] "support colleague" as ku
else
- -> [ask] "Modification process" as x
if "" then
- -> [alone] ku
else
- -> [discuss] ku
if "" then
- -> [help] "Code Review" as cr
else
- -> [not help] cr
if "" then
- -> [yes] "Workshop\non Hawaii" as ws
else
- -> [no] ws
ws - -> (*)
@enduml

PlantUML version 1.2020.19beta4(Unknown compile time)
(GPL source distribution)
Java Runtime: Java(TM) SE Runtime Environment
JVM: Java HotSpot(TM) 64-Bit Server VM
Default Encoding: UTF-8
Language: en
Country: US
--></g></svg>