<?xml version="1.0" encoding="UTF-8" standalone="no"?><svg xmlns="http://www.w3.org/2000/svg" xmlns:xlink="http://www.w3.org/1999/xlink" contentScriptType="application/ecmascript" contentStyleType="text/css" height="812px" preserveAspectRatio="none" style="width:641px;height:812px;" version="1.1" viewBox="0 0 641 812" width="641px" zoomAndPan="magnify"><defs><filter height="300%" id="fqv5datt35xck" width="300%" x="-1" y="-1"><feGaussianBlur result="blurOut" stdDeviation="2.0"/><feColorMatrix in="blurOut" result="blurOut2" type="matrix" values="0 0 0 0 0 0 0 0 0 0 0 0 0 0 0 0 0 0 .4 0"/><feOffset dx="4.0" dy="4.0" in="blurOut2" result="blurOut3"/><feBlend in="SourceGraphic" in2="blurOut3" mode="normal"/></filter></defs><g><ellipse cx="233" cy="16" fill="#000000" filter="url(#fqv5datt35xck)" rx="10" ry="10" style="stroke: none; stroke-width: 1.0;"/><rect fill="#FEFECE" filter="url(#fqv5datt35xck)" height="33.9688" rx="12.5" ry="12.5" style="stroke: #A80036; stroke-width: 1.5;" width="140" x="163" y="67"/><text fill="#000000" font-family="sans-serif" font-size="12" lengthAdjust="spacingAndGlyphs" textLength="120" x="173" y="88.1387">A bug has surfaced.</text><rect fill="#FEFECE" filter="url(#fqv5datt35xck)" height="33.9688" rx="12.5" ry="12.5" style="stroke: #A80036; stroke-width: 1.5;" width="386" x="40" y="142"/><text fill="#000000" font-family="sans-serif" font-size="12" lengthAdjust="spacingAndGlyphs" textLength="366" x="50" y="163.1387">So far no one else has found the bug, how do you proceed?</text><polygon fill="#FEFECE" filter="url(#fqv5datt35xck)" points="233,217,245,229,233,241,221,229,233,217" style="stroke: #A80036; stroke-width: 1.5;"/><rect fill="#FEFECE" filter="url(#fqv5datt35xck)" height="75.875" rx="12.5" ry="12.5" style="stroke: #A80036; stroke-width: 1.5;" width="282" x="7" y="404"/><text fill="#000000" font-family="sans-serif" font-size="12" lengthAdjust="spacingAndGlyphs" textLength="145" x="73.5" y="425.1387">Yaggaya sees the ticket</text><text fill="#000000" font-family="sans-serif" font-size="12" lengthAdjust="spacingAndGlyphs" textLength="254" x="21" y="439.1074">and passes it on to the appropriate place.</text><text fill="#000000" font-family="sans-serif" font-size="12" lengthAdjust="spacingAndGlyphs" textLength="83" x="106.5" y="453.0762">You get stats:</text><text fill="#000000" font-family="sans-serif" font-size="12" lengthAdjust="spacingAndGlyphs" textLength="74" x="113" y="467.0449">+2 analytics</text><rect fill="#FEFECE" filter="url(#fqv5datt35xck)" height="75.875" rx="12.5" ry="12.5" style="stroke: #A80036; stroke-width: 1.5;" width="243" x="208.5" y="308"/><text fill="#000000" font-family="sans-serif" font-size="12" lengthAdjust="spacingAndGlyphs" textLength="129" x="263.5" y="329.1387">You ignore the bug in</text><text fill="#000000" font-family="sans-serif" font-size="12" lengthAdjust="spacingAndGlyphs" textLength="219" x="222.5" y="343.1074">the hope that no one else will find it.</text><text fill="#000000" font-family="sans-serif" font-size="12" lengthAdjust="spacingAndGlyphs" textLength="126" x="267" y="357.0762">Your stats decrease:</text><text fill="#000000" font-family="sans-serif" font-size="12" lengthAdjust="spacingAndGlyphs" textLength="69" x="297.5" y="371.0449">-3 analytics</text><polygon fill="#FEFECE" filter="url(#fqv5datt35xck)" points="332,500,344,512,332,524,320,512,332,500" style="stroke: #A80036; stroke-width: 1.5;"/><rect fill="#FEFECE" filter="url(#fqv5datt35xck)" height="89.8438" rx="12.5" ry="12.5" style="stroke: #A80036; stroke-width: 1.5;" width="309" x="177.5" y="578"/><text fill="#000000" font-family="sans-serif" font-size="12" lengthAdjust="spacingAndGlyphs" textLength="196" x="232" y="599.1387">The bug has been found and the</text><text fill="#000000" font-family="sans-serif" font-size="12" lengthAdjust="spacingAndGlyphs" textLength="281" x="191.5" y="613.1074">responsible department thinks that you should</text><text fill="#000000" font-family="sans-serif" font-size="12" lengthAdjust="spacingAndGlyphs" textLength="218" x="223" y="627.0762">have found the bug well in advance,</text><text fill="#000000" font-family="sans-serif" font-size="12" lengthAdjust="spacingAndGlyphs" textLength="217" x="223.5" y="641.0449">since you worked on the code last.:</text><text fill="#000000" font-family="sans-serif" font-size="12" lengthAdjust="spacingAndGlyphs" textLength="107" x="280.5" y="655.0137">-3 communication</text><rect fill="#FEFECE" filter="url(#fqv5datt35xck)" height="33.9688" rx="12.5" ry="12.5" style="stroke: #A80036; stroke-width: 1.5;" width="121" x="506.5" y="606"/><text fill="#000000" font-family="sans-serif" font-size="12" lengthAdjust="spacingAndGlyphs" textLength="101" x="516.5" y="627.1387">Bug is not found.</text><rect fill="#FEFECE" filter="url(#fqv5datt35xck)" height="89.8438" rx="12.5" ry="12.5" style="stroke: #A80036; stroke-width: 1.5;" width="418" x="123" y="709"/><text fill="#000000" font-family="sans-serif" font-size="12" lengthAdjust="spacingAndGlyphs" textLength="161" x="249.5" y="730.1387">The project customer calls</text><text fill="#000000" font-family="sans-serif" font-size="12" lengthAdjust="spacingAndGlyphs" textLength="390" x="137" y="744.1074">again and wants to have a completely new feature implemented.</text><text fill="#000000" font-family="sans-serif" font-size="12" lengthAdjust="spacingAndGlyphs" textLength="224" x="220" y="758.0762">The wish seems a bit strange to you,</text><text fill="#000000" font-family="sans-serif" font-size="12" lengthAdjust="spacingAndGlyphs" textLength="257" x="205.5" y="772.0449">because it might contradict other features.</text><text fill="#000000" font-family="sans-serif" font-size="12" lengthAdjust="spacingAndGlyphs" textLength="72" x="298" y="786.0137">What to do?</text><!--MD5=[4d8aace394fa76d11717b17b4965f20f]
link start to A bug has surfaced.--><path d="M233,26.177 C233,35.269 233,49.527 233,61.485 " fill="none" id="start-to-A bug has surfaced." style="stroke: #A80036; stroke-width: 1.0;"/><polygon fill="#A80036" points="233,66.791,237,57.791,233,61.791,229,57.791,233,66.791" style="stroke: #A80036; stroke-width: 1.0;"/><!--MD5=[a43a29b005a16762fa198ef7d5951634]
link A bug has surfaced. to So far no one else has found the bug, how do you proceed?--><path d="M233,101.201 C233,111.692 233,125.463 233,136.818 " fill="none" id="A bug has surfaced.-to-So far no one else has found the bug, how do you proceed?" style="stroke: #A80036; stroke-width: 1.0;"/><polygon fill="#A80036" points="233,141.844,237,132.844,233,136.844,229,132.844,233,141.844" style="stroke: #A80036; stroke-width: 1.0;"/><!--MD5=[b32085c5759e8a2bcd7c4cf646e224e4]
link So far no one else has found the bug, how do you proceed? to #148301--><path d="M233,176.115 C233,186.916 233,201.082 233,211.883 " fill="none" id="So far no one else has found the bug, how do you proceed?-to-#148301" style="stroke: #A80036; stroke-width: 1.0;"/><polygon fill="#A80036" points="233,216.885,237,207.885,233,211.885,229,207.885,233,216.885" style="stroke: #A80036; stroke-width: 1.0;"/><text fill="#000000" font-family="sans-serif" font-size="11" lengthAdjust="spacingAndGlyphs" textLength="0" x="232.025" y="206.4605"/><!--MD5=[5adb2a20aac2be7706eb47c1b4755d33]
link #148301 to y--><path d="M222.342,230.501 C204.345,231.988 168.303,237.859 152,261 C123.831,300.984 128.603,359.337 136.571,398.666 " fill="none" id="#148301-to-y" style="stroke: #A80036; stroke-width: 1.0;"/><polygon fill="#A80036" points="137.661,403.845,139.7212,394.214,136.631,398.9522,131.8928,395.862,137.661,403.845" style="stroke: #A80036; stroke-width: 1.0;"/><text fill="#000000" font-family="sans-serif" font-size="11" lengthAdjust="spacingAndGlyphs" textLength="127" x="153" y="278.7104">You write a bug ticket.</text><!--MD5=[85e7dd9838f57ee4e5349dc42388364c]
link #148301 to x--><path d="M241.114,233.057 C252.394,237.648 272.9,247.273 286,261 C297.437,272.984 306.681,288.525 313.689,302.976 " fill="none" id="#148301-to-x" style="stroke: #A80036; stroke-width: 1.0;"/><polygon fill="#A80036" points="315.98,307.828,315.7542,297.9817,313.8451,303.3067,308.5201,301.3976,315.98,307.828" style="stroke: #A80036; stroke-width: 1.0;"/><text fill="#000000" font-family="sans-serif" font-size="11" lengthAdjust="spacingAndGlyphs" textLength="63" x="325" y="272.2104">Just ignore,</text><text fill="#000000" font-family="sans-serif" font-size="11" lengthAdjust="spacingAndGlyphs" textLength="101" x="310" y="285.0151">no one will notice</text><!--MD5=[7bc0ead7f668bf0a0d7f939cc3961331]
link x to #148308--><path d="M330.454,384.214 C330.878,418.977 331.491,469.23 331.802,494.773 " fill="none" id="x-to-#148308" style="stroke: #A80036; stroke-width: 1.0;"/><polygon fill="#A80036" points="331.864,499.834,335.7531,490.7855,331.8026,494.8344,327.7537,490.8838,331.864,499.834" style="stroke: #A80036; stroke-width: 1.0;"/><text fill="#000000" font-family="sans-serif" font-size="11" lengthAdjust="spacingAndGlyphs" textLength="69" x="246.3261" y="489.5062">dice roll &gt; 3</text><!--MD5=[f6a98f5dc074ef4cef067224d44c042f]
link #148308 to p--><path d="M332,524.254 C332,535.839 332,554.699 332,572.777 " fill="none" id="#148308-to-p" style="stroke: #A80036; stroke-width: 1.0;"/><polygon fill="#A80036" points="332,577.848,336,568.848,332,572.848,328,568.848,332,577.848" style="stroke: #A80036; stroke-width: 1.0;"/><text fill="#000000" font-family="sans-serif" font-size="11" lengthAdjust="spacingAndGlyphs" textLength="23" x="333" y="555.2104">true</text><!--MD5=[a421df6bb22a96fe307abcf7d892a4f6]
link #148308 to Bug is not found.--><path d="M340.479,515.716 C365.235,523.775 439.303,548.821 497,578 C511.374,585.27 526.598,594.621 539.163,602.831 " fill="none" id="#148308-to-Bug is not found." style="stroke: #A80036; stroke-width: 1.0;"/><polygon fill="#A80036" points="543.666,605.799,538.3516,597.507,539.4909,603.048,533.9499,604.1872,543.666,605.799" style="stroke: #A80036; stroke-width: 1.0;"/><text fill="#000000" font-family="sans-serif" font-size="11" lengthAdjust="spacingAndGlyphs" textLength="28" x="453" y="555.2104">false</text><!--MD5=[402acccbf5b67736cd032d4b602602c7]
link Bug is not found. to f--><path d="M542.368,640.204 C529.094,648.752 512.336,659.251 497,668 C474.171,681.023 449.14,694.376 425.628,706.5268 " fill="none" id="Bug is not found.-to-f" style="stroke: #0000FF; stroke-width: 1.0; stroke-dasharray: 1.0,3.0;"/><polygon fill="#0000FF" points="420.947,708.9405,430.7794,708.3713,425.391,706.6491,427.1132,701.2608,420.947,708.9405" style="stroke: #0000FF; stroke-width: 1.0;"/><!--MD5=[e68a1c678c19bb1ff3b4543454652f37]
link p to f--><path d="M332,668.034 C332,679.427 332,691.77 332,703.4259 " fill="none" id="p-to-f" style="stroke: #0000FF; stroke-width: 1.0; stroke-dasharray: 1.0,3.0;"/><polygon fill="#0000FF" points="332,708.7268,336,699.7268,332,703.7268,328,699.7268,332,708.7268" style="stroke: #0000FF; stroke-width: 1.0;"/><!--MD5=[9ef6cd0a90fbaf7cd759bc73c80c9ad8]
link y to f--><path d="M140.924,480.017 C133.923,527.738 129.069,611.309 167,668 C177.073,683.055 190.679,695.597 205.779,706.0037 " fill="none" id="y-to-f" style="stroke: #0000FF; stroke-width: 1.0; stroke-dasharray: 1.0,3.0;"/><polygon fill="#0000FF" points="210.077,708.8826,204.8261,700.5503,205.923,706.0997,200.3735,707.1967,210.077,708.8826" style="stroke: #0000FF; stroke-width: 1.0;"/><!--MD5=[632b49283d49015cbdec9c6cdc02aafc]
@startuml
(*) - -> "A bug has surfaced."
- -> "So far no one else has found the bug, how do you proceed?"
if " " then 
- -> [You write a bug ticket.] "Yaggaya sees the ticket \n and passes it on to the appropriate place. \n You get stats: \n +2 analytics" as y
else
- -> [Just ignore, \n no one will notice] "You ignore the bug in \n the hope that no one else will find it.\n Your stats decrease: \n -3 analytics" as x
endif
if "dice roll > 3" then
- -> [true] "The bug has been found and the \n responsible department thinks that you should \n have found the bug well in advance, \n since you worked on the code last.: \n -3 communication" as p

else
- -> [false] "Bug is not found."
-[#blue,dotted]-> "The project customer calls \n again and wants to have a completely new feature implemented. \n The wish seems a bit strange to you, \n because it might contradict other features.\n What to do?" as f 
endif
p -[#blue,dotted]-> f
y -[#blue,dotted]-> f
@enduml

PlantUML version 1.2020.20beta13(Unknown compile time)
(GPL source distribution)
Java Runtime: Java(TM) SE Runtime Environment
JVM: Java HotSpot(TM) 64-Bit Server VM
Default Encoding: UTF-8
Language: en
Country: US
--></g></svg>