<?xml version="1.0" encoding="UTF-8" standalone="no"?>
<svg xmlns="http://www.w3.org/2000/svg" xmlns:xlink="http://www.w3.org/1999/xlink" contentScriptType="application/ecmascript" contentStyleType="text/css" height="961px" preserveAspectRatio="none" style="width:875px;height:961px;" version="1.1" viewBox="0 0 875 961" width="875px" zoomAndPan="magnify"><defs><filter height="300%" id="f1qu9wvhb2x9rl" width="300%" x="-1" y="-1"><feGaussianBlur result="blurOut" stdDeviation="2.0"/><feColorMatrix in="blurOut" result="blurOut2" type="matrix" values="0 0 0 0 0 0 0 0 0 0 0 0 0 0 0 0 0 0 .4 0"/><feOffset dx="4.0" dy="4.0" in="blurOut2" result="blurOut3"/><feBlend in="SourceGraphic" in2="blurOut3" mode="normal"/></filter></defs><g><ellipse cx="455" cy="16" fill="#000000" filter="url(#f1qu9wvhb2x9rl)" rx="10" ry="10" style="stroke: none; stroke-width: 1.0;"/><rect fill="#FEFECE" filter="url(#f1qu9wvhb2x9rl)" height="47.9375" rx="12.5" ry="12.5" style="stroke: #A80036; stroke-width: 1.5;" width="316" x="297" y="67"/><text fill="#000000" font-family="sans-serif" font-size="12" lengthAdjust="spacingAndGlyphs" textLength="264" x="323" y="88.1387">Your colleague Trummu is approaching you.</text><text fill="#000000" font-family="sans-serif" font-size="12" lengthAdjust="spacingAndGlyphs" textLength="292" x="311" y="102.1074">Trummu urgently needs your support in his task.</text><polygon fill="#FEFECE" filter="url(#f1qu9wvhb2x9rl)" points="455,156,467,168,455,180,443,168,455,156" style="stroke: #A80036; stroke-width: 1.5;"/><polygon fill="#FEFECE" filter="url(#f1qu9wvhb2x9rl)" points="455,247,467,259,455,271,443,259,455,247" style="stroke: #A80036; stroke-width: 1.5;"/><rect fill="#FEFECE" filter="url(#f1qu9wvhb2x9rl)" height="75.875" rx="12.5" ry="12.5" style="stroke: #A80036; stroke-width: 1.5;" width="250" x="7" y="435"/><text fill="#000000" font-family="sans-serif" font-size="12" lengthAdjust="spacingAndGlyphs" textLength="226" x="17" y="456.1387">Your colleague is satisfied and luckily</text><text fill="#000000" font-family="sans-serif" font-size="12" lengthAdjust="spacingAndGlyphs" textLength="204" x="30" y="470.1074">you dont miss your own deadline.</text><text fill="#000000" font-family="sans-serif" font-size="12" lengthAdjust="spacingAndGlyphs" textLength="112" x="76" y="484.0762">Your stats change:</text><text fill="#000000" font-family="sans-serif" font-size="12" lengthAdjust="spacingAndGlyphs" textLength="112" x="78" y="498.0449">+2 communication</text><rect fill="#FEFECE" filter="url(#f1qu9wvhb2x9rl)" height="89.8438" rx="12.5" ry="12.5" style="stroke: #A80036; stroke-width: 1.5;" width="313" x="298.5" y="325"/><text fill="#000000" font-family="sans-serif" font-size="12" lengthAdjust="spacingAndGlyphs" textLength="163" x="371.5" y="346.1387">Your colleague is satisfied,</text><text fill="#000000" font-family="sans-serif" font-size="12" lengthAdjust="spacingAndGlyphs" textLength="151" x="379.5" y="360.1074">but because of the delay</text><text fill="#000000" font-family="sans-serif" font-size="12" lengthAdjust="spacingAndGlyphs" textLength="289" x="312.5" y="374.0762">you now have problems meeting your deadline.</text><text fill="#000000" font-family="sans-serif" font-size="12" lengthAdjust="spacingAndGlyphs" textLength="112" x="399" y="388.0449">Your stats change:</text><text fill="#000000" font-family="sans-serif" font-size="12" lengthAdjust="spacingAndGlyphs" textLength="112" x="401" y="402.0137">+2 communication</text><polygon fill="#FEFECE" filter="url(#f1qu9wvhb2x9rl)" points="455,531,467,543,455,555,443,543,455,531" style="stroke: #A80036; stroke-width: 1.5;"/><rect fill="#FEFECE" filter="url(#f1qu9wvhb2x9rl)" height="61.9063" rx="12.5" ry="12.5" style="stroke: #A80036; stroke-width: 1.5;" width="197" x="505.5" y="701"/><text fill="#000000" font-family="sans-serif" font-size="12" lengthAdjust="spacingAndGlyphs" textLength="173" x="515.5" y="722.1387">You miss your own deadline.</text><text fill="#000000" font-family="sans-serif" font-size="12" lengthAdjust="spacingAndGlyphs" textLength="112" x="548" y="736.1074">Your stats change:</text><text fill="#000000" font-family="sans-serif" font-size="12" lengthAdjust="spacingAndGlyphs" textLength="72" x="570" y="750.0762">-2 analytics.</text><polygon fill="#FEFECE" filter="url(#f1qu9wvhb2x9rl)" points="379,657,391,669,379,681,367,669,379,657" style="stroke: #A80036; stroke-width: 1.5;"/><rect fill="#FEFECE" filter="url(#f1qu9wvhb2x9rl)" height="33.9688" rx="12.5" ry="12.5" style="stroke: #A80036; stroke-width: 1.5;" width="326" x="102" y="715"/><text fill="#000000" font-family="sans-serif" font-size="12" lengthAdjust="spacingAndGlyphs" textLength="306" x="112" y="736.1387">Sodani helps you and you can meet your deadline.</text><rect fill="#FEFECE" filter="url(#f1qu9wvhb2x9rl)" height="75.875" rx="12.5" ry="12.5" style="stroke: #A80036; stroke-width: 1.5;" width="422" x="233" y="783"/><text fill="#000000" font-family="sans-serif" font-size="12" lengthAdjust="spacingAndGlyphs" textLength="398" x="243" y="804.1387">Sodani will not help you and therefore you will miss your deadline</text><text fill="#000000" font-family="sans-serif" font-size="12" lengthAdjust="spacingAndGlyphs" textLength="185" x="351.5" y="818.1074">and need an additional 5 days.</text><text fill="#000000" font-family="sans-serif" font-size="12" lengthAdjust="spacingAndGlyphs" textLength="112" x="388" y="832.0762">Your stats change:</text><text fill="#000000" font-family="sans-serif" font-size="12" lengthAdjust="spacingAndGlyphs" textLength="69" x="409.5" y="846.0449">-2 analytics</text><rect fill="#FEFECE" filter="url(#f1qu9wvhb2x9rl)" height="47.9375" rx="12.5" ry="12.5" style="stroke: #A80036; stroke-width: 1.5;" width="231" x="328.5" y="900"/><text fill="#000000" font-family="sans-serif" font-size="12" lengthAdjust="spacingAndGlyphs" textLength="207" x="338.5" y="921.1387">The project is nearing completion,</text><text fill="#000000" font-family="sans-serif" font-size="12" lengthAdjust="spacingAndGlyphs" textLength="183" x="354.5" y="935.1074">only a code review is missing.</text><rect fill="#FEFECE" filter="url(#f1qu9wvhb2x9rl)" height="61.9063" rx="12.5" ry="12.5" style="stroke: #A80036; stroke-width: 1.5;" width="267" x="594.5" y="575"/><text fill="#000000" font-family="sans-serif" font-size="12" lengthAdjust="spacingAndGlyphs" textLength="247" x="604.5" y="596.1387">Trummu is angry that you didn't help him.</text><text fill="#000000" font-family="sans-serif" font-size="12" lengthAdjust="spacingAndGlyphs" textLength="112" x="672" y="610.1074">Your stats change:</text><text fill="#000000" font-family="sans-serif" font-size="12" lengthAdjust="spacingAndGlyphs" textLength="107" x="676.5" y="624.0762">-2 communication</text><!--MD5=[279b232862c91c47e4597d56c7bbac8b]
link start to Your colleague Trummu is approaching you.\n Trummu urgently needs your support in his task.--><path d="M455,26.246 C455,35.108 455,48.951 455,61.477 " fill="none" id="start-to-Your colleague Trummu is approaching you.\n Trummu urgently needs your support in his task." style="stroke: #A80036; stroke-width: 1.0;"/><polygon fill="#A80036" points="455,66.746,459,57.746,455,61.746,451,57.746,455,66.746" style="stroke: #A80036; stroke-width: 1.0;"/><!--MD5=[ab2bd6deca39ad390078815b1c85ed0a]
link Your colleague Trummu is approaching you.\n Trummu urgently needs your support in his task. to #42496--><path d="M455,115.319 C455,126.744 455,140.228 455,150.558 " fill="none" id="Your colleague Trummu is approaching you.\n Trummu urgently needs your support in his task.-to-#42496" style="stroke: #A80036; stroke-width: 1.0;"/><polygon fill="#A80036" points="455,155.645,459,146.645,455,150.645,451,146.645,455,155.645" style="stroke: #A80036; stroke-width: 1.0;"/><text fill="#000000" font-family="sans-serif" font-size="11" lengthAdjust="spacingAndGlyphs" textLength="127" x="307.7594" y="148.133">Do you help Trummu?</text><!--MD5=[92f43ae64350d76342f57a0ce1ac973a]
link #42496 to #42499--><path d="M455,180.272 C455,195.786 455,223.82 455,241.642 " fill="none" id="#42496-to-#42499" style="stroke: #A80036; stroke-width: 1.0;"/><polygon fill="#A80036" points="455,246.82,459,237.82,455,241.82,451,237.82,455,246.82" style="stroke: #A80036; stroke-width: 1.0;"/><text fill="#000000" font-family="sans-serif" font-size="11" lengthAdjust="spacingAndGlyphs" textLength="174" x="459.5" y="211.2104">You help Trummu, even if you</text><text fill="#000000" font-family="sans-serif" font-size="11" lengthAdjust="spacingAndGlyphs" textLength="177" x="460" y="224.0151">might miss your own Deadline.</text><text fill="#000000" font-family="sans-serif" font-size="11" lengthAdjust="spacingAndGlyphs" textLength="78" x="357.9875" y="236.3638">dice roll &lt;= 3</text><!--MD5=[3a9d7d687325dbdefe7d45c96df2bd6e]
link #42499 to helpNoProblem--><path d="M446.112,262.162 C420.227,268.72 343.235,290.105 288,325 C241.594,354.317 196.874,398.653 167.304,430.967 " fill="none" id="#42499-to-helpNoProblem" style="stroke: #A80036; stroke-width: 1.0;"/><polygon fill="#A80036" points="163.774,434.846,172.7898,430.8817,167.1392,431.148,166.873,425.4974,163.774,434.846" style="stroke: #A80036; stroke-width: 1.0;"/><text fill="#000000" font-family="sans-serif" font-size="11" lengthAdjust="spacingAndGlyphs" textLength="23" x="355" y="302.2104">true</text><!--MD5=[4f82dc8a48e78f06d1790d876530d214]
link #42499 to Your colleague is satisfied, \n but because of the delay \n you now have problems meeting your deadline.\n Your stats change: \n +2 communication--><path d="M455,271.254 C455,282.839 455,301.699 455,319.777 " fill="none" id="#42499-to-Your colleague is satisfied, \n but because of the delay \n you now have problems meeting your deadline.\n Your stats change: \n +2 communication" style="stroke: #A80036; stroke-width: 1.0;"/><polygon fill="#A80036" points="455,324.848,459,315.848,455,319.848,451,315.848,455,324.848" style="stroke: #A80036; stroke-width: 1.0;"/><text fill="#000000" font-family="sans-serif" font-size="11" lengthAdjust="spacingAndGlyphs" textLength="28" x="456" y="302.2104">false</text><!--MD5=[e999e1f48337c1ac4ce9efebf47d607a]
link Your colleague is satisfied, \n but because of the delay \n you now have problems meeting your deadline.\n Your stats change: \n +2 communication to #42506--><path d="M455,415.037 C455,451.1 455,500.15 455,525.428 " fill="none" id="Your colleague is satisfied, \n but because of the delay \n you now have problems meeting your deadline.\n Your stats change: \n +2 communication-to-#42506" style="stroke: #A80036; stroke-width: 1.0;"/><polygon fill="#A80036" points="455,530.739,459,521.739,455,525.739,451,521.739,455,530.739" style="stroke: #A80036; stroke-width: 1.0;"/><text fill="#000000" font-family="sans-serif" font-size="11" lengthAdjust="spacingAndGlyphs" textLength="161" x="501.0047" y="511.4403">Do you want to ask for help,</text><text fill="#000000" font-family="sans-serif" font-size="11" lengthAdjust="spacingAndGlyphs" textLength="213" x="479.0047" y="524.245">so you can meet your own deadline?</text><!--MD5=[a0cda7f7c364eafd56976aab5258275b]
link #42506 to alone--><path d="M465.551,544.481 C484.702,545.93 525.296,551.736 548,575 C568.129,595.626 557.493,609.793 567,637 C573.875,656.674 582.339,678.336 589.436,695.903 " fill="none" id="#42506-to-alone" style="stroke: #A80036; stroke-width: 1.0;"/><polygon fill="#A80036" points="591.4,700.743,591.7223,690.8994,589.5199,696.1099,584.3094,693.9076,591.4,700.743" style="stroke: #A80036; stroke-width: 1.0;"/><text fill="#000000" font-family="sans-serif" font-size="11" lengthAdjust="spacingAndGlyphs" textLength="15" x="568" y="610.2104">No</text><!--MD5=[3a0c0bf84de16c9c50826df77eb1a413]
link #42506 to #42511--><path d="M444.652,544.722 C427.565,546.537 393.864,552.884 379,575 C362.782,599.13 369.38,635.328 374.72,654.677 " fill="none" id="#42506-to-#42511" style="stroke: #A80036; stroke-width: 1.0;"/><polygon fill="#A80036" points="376.173,659.664,377.4957,649.9044,374.7743,654.8636,369.8151,652.1423,376.173,659.664" style="stroke: #A80036; stroke-width: 1.0;"/><text fill="#000000" font-family="sans-serif" font-size="11" lengthAdjust="spacingAndGlyphs" textLength="166" x="380" y="610.2104">Yes, you ask Sodani for help.</text><text fill="#000000" font-family="sans-serif" font-size="11" lengthAdjust="spacingAndGlyphs" textLength="110" x="249.1863" y="653.4877">communication &gt; 6</text><!--MD5=[5aeae914ca0ea6f8a2e6413b03cd81b9]
link #42511 to getHelp--><path d="M371.52,674.002 C357.157,681.688 324.9,698.948 299.622,712.474 " fill="none" id="#42511-to-getHelp" style="stroke: #A80036; stroke-width: 1.0;"/><polygon fill="#A80036" points="294.989,714.953,304.8114,714.2319,299.3971,712.5932,301.0358,707.1789,294.989,714.953" style="stroke: #A80036; stroke-width: 1.0;"/><text fill="#000000" font-family="sans-serif" font-size="11" lengthAdjust="spacingAndGlyphs" textLength="23" x="309.16" y="691.7394">true</text><!--MD5=[d3941075542396ea846fbf9d41797ac4]
link #42511 to Sodani will not help you and therefore you will miss your deadline \n and need an additional 5 days. \n Your stats change: \n-2 analytics--><path d="M387.752,672.758 C399.299,676.893 419.291,685.872 429,701 C443.491,723.578 447.195,753.57 447.3,777.796 " fill="none" id="#42511-to-Sodani will not help you and therefore you will miss your deadline \n and need an additional 5 days. \n Your stats change: \n-2 analytics" style="stroke: #A80036; stroke-width: 1.0;"/><polygon fill="#A80036" points="447.27,782.873,451.3214,773.896,447.2986,777.8731,443.3215,773.8503,447.27,782.873" style="stroke: #A80036; stroke-width: 1.0;"/><text fill="#000000" font-family="sans-serif" font-size="11" lengthAdjust="spacingAndGlyphs" textLength="28" x="448" y="736.2104">false</text><!--MD5=[e8e2ed3c68ed05471aaf500125a3d668]
link Sodani will not help you and therefore you will miss your deadline \n and need an additional 5 days. \n Your stats change: \n-2 analytics to ende--><path d="M444,859.0352 C444,870.7437 444,883.494 444,894.508 " fill="none" id="Sodani will not help you and therefore you will miss your deadline \n and need an additional 5 days. \n Your stats change: \n-2 analytics-to-ende" style="stroke: #0000FF; stroke-width: 1.0; stroke-dasharray: 1.0,3.0;"/><polygon fill="#0000FF" points="444,899.7632,448,890.7632,444,894.7632,440,890.7632,444,899.7632" style="stroke: #0000FF; stroke-width: 1.0;"/><!--MD5=[47e23d31727f3086fb24844e99f65e0d]
link #42499 to noHelp--><path d="M465.125,261.124 C493.632,264.813 575.448,279.073 621,325 C689.478,394.041 714.997,511.474 723.786,569.869 " fill="none" id="#42499-to-noHelp" style="stroke: #A80036; stroke-width: 1.0;"/><polygon fill="#A80036" points="724.537,574.992,727.1884,565.5067,723.8113,570.0449,719.2731,566.6679,724.537,574.992" style="stroke: #A80036; stroke-width: 1.0;"/><text fill="#000000" font-family="sans-serif" font-size="11" lengthAdjust="spacingAndGlyphs" textLength="181" x="681" y="361.2104">You have enough to do on your</text><text fill="#000000" font-family="sans-serif" font-size="11" lengthAdjust="spacingAndGlyphs" textLength="159" x="694" y="374.0151">own and therefore continue</text><text fill="#000000" font-family="sans-serif" font-size="11" lengthAdjust="spacingAndGlyphs" textLength="156" x="697.5" y="386.8198">to work on your own things.</text><!--MD5=[68590b2c7fbcd195662738c23d157009]
link alone to ende--><path d="M650.633,763.284 C656.44,769.105 661.544,775.698 665,783 C679.451,813.53 685.292,831.997 665,859 C651.8,876.5646 609.134,890.8518 564.764,901.4349 " fill="none" id="alone-to-ende" style="stroke: #0000FF; stroke-width: 1.0; stroke-dasharray: 1.0,3.0;"/><polygon fill="#0000FF" points="559.628,902.6419,569.3046,904.4761,564.4953,901.4976,567.4737,896.6884,559.628,902.6419" style="stroke: #0000FF; stroke-width: 1.0;"/><!--MD5=[83eb8209360105f8222e1918890b1ead]
link helpNoProblem to ende--><path d="M111.422,511.196 C99.174,536.781 86,571.977 86,605 C86,605 86,605 86,822 C86,872.4085 219.134,898.8968 323.026,911.8929 " fill="none" id="helpNoProblem-to-ende" style="stroke: #0000FF; stroke-width: 1.0; stroke-dasharray: 1.0,3.0;"/><polygon fill="#0000FF" points="328.262,912.5396,319.8202,907.4666,323.2997,911.9267,318.8396,915.4063,328.262,912.5396" style="stroke: #0000FF; stroke-width: 1.0;"/><!--MD5=[ec987033c4a349a4f63d7bfcbfc6d976]
link getHelp to ende--><path d="M246.416,749.075 C237.494,758.04 227.734,770.005 223,783 C211.439,814.738 202.708,831.997 223,859 C236.2,876.5646 278.866,890.8518 323.236,901.4349 " fill="none" id="getHelp-to-ende" style="stroke: #0000FF; stroke-width: 1.0; stroke-dasharray: 1.0,3.0;"/><polygon fill="#0000FF" points="328.372,902.6419,320.5263,896.6884,323.5047,901.4976,318.6954,904.4761,328.372,902.6419" style="stroke: #0000FF; stroke-width: 1.0;"/><!--MD5=[7ae41441cc0a4b2f1a4bdb6b8e3d39ae]
link noHelp to ende--><path d="M731.815,637.329 C736.55,688.579 738.626,793.154 688,859 C672.064,879.7267 617.916,895.0414 564.667,905.4838 " fill="none" id="noHelp-to-ende" style="stroke: #0000FF; stroke-width: 1.0; stroke-dasharray: 1.0,3.0;"/><polygon fill="#0000FF" points="559.518,906.4791,569.1134,908.699,564.4272,905.5305,567.5957,900.8443,559.518,906.4791" style="stroke: #0000FF; stroke-width: 1.0;"/><!--MD5=[c06eaff8eaef91d25b2b361222fd2a92]
@startuml
(*) - -> "Your colleague Trummu is approaching you.\n Trummu urgently needs your support in his task."
if "Do you help Trummu?" then 
- -> [You help Trummu, even if you\n might miss your own Deadline.] if "dice roll <= 3" then
- -> [true] "Your colleague is satisfied and luckily \n you dont miss your own deadline. \n Your stats change: \n +2 communication" as helpNoProblem
else
- -> [false] "Your colleague is satisfied, \n but because of the delay \n you now have problems meeting your deadline.\n Your stats change: \n +2 communication"
if "Do you want to ask for help, \n so you can meet your own deadline?" then 
- -> [No] "You miss your own deadline. \n Your stats change: \n -2 analytics." as alone
else 
- -> [Yes, you ask Sodani for help.]if "communication > 6" then 

-right-> [true] "Sodani helps you and you can meet your deadline." as getHelp
else 
else
- -> [false] "Sodani will not help you and therefore you will miss your deadline \n and need an additional 5 days. \n Your stats change: \n-2 analytics"
-[#blue,dotted]-> "The project is nearing completion, \n only a code review is missing." as ende
endif
endif
else
- -> [You have enough to do on your \n own and therefore continue \n to work on your own things.] "Trummu is angry that you didn't help him.\n Your stats change: \n -2 communication" as noHelp
endif
alone -[#blue,dotted]-> ende
helpNoProblem -[#blue,dotted]-> ende
getHelp -[#blue,dotted]-> ende
noHelp -[#blue,dotted]-> ende
@enduml

PlantUML version 1.2020.20beta13(Unknown compile time)
(GPL source distribution)
Java Runtime: Java(TM) SE Runtime Environment
JVM: Java HotSpot(TM) 64-Bit Server VM
Default Encoding: UTF-8
Language: en
Country: US
--></g></svg>