<?xml version="1.0" encoding="UTF-8" standalone="no"?><svg xmlns="http://www.w3.org/2000/svg" xmlns:xlink="http://www.w3.org/1999/xlink" contentScriptType="application/ecmascript" contentStyleType="text/css" height="872px" preserveAspectRatio="none" style="width:1296px;height:872px;" version="1.1" viewBox="0 0 1296 872" width="1296px" zoomAndPan="magnify"><defs><filter height="300%" id="f570d4t3mun7d" width="300%" x="-1" y="-1"><feGaussianBlur result="blurOut" stdDeviation="2.0"/><feColorMatrix in="blurOut" result="blurOut2" type="matrix" values="0 0 0 0 0 0 0 0 0 0 0 0 0 0 0 0 0 0 .4 0"/><feOffset dx="4.0" dy="4.0" in="blurOut2" result="blurOut3"/><feBlend in="SourceGraphic" in2="blurOut3" mode="normal"/></filter></defs><g><ellipse cx="572" cy="16" fill="#000000" filter="url(#f570d4t3mun7d)" rx="10" ry="10" style="stroke: none; stroke-width: 1.0;"/><rect fill="#FEFECE" filter="url(#f570d4t3mun7d)" height="33.9688" rx="12.5" ry="12.5" style="stroke: #A80036; stroke-width: 1.5;" width="459" x="342.5" y="67"/><text fill="#000000" font-family="sans-serif" font-size="12" lengthAdjust="spacingAndGlyphs" textLength="439" x="352.5" y="88.1387">After completing your task, you must now write the corresponding tests.</text><rect fill="#FEFECE" filter="url(#f570d4t3mun7d)" height="47.9375" rx="12.5" ry="12.5" style="stroke: #A80036; stroke-width: 1.5;" width="285" x="429.5" y="142"/><text fill="#000000" font-family="sans-serif" font-size="12" lengthAdjust="spacingAndGlyphs" textLength="265" x="439.5" y="163.1387">You only have a few days to write the tests,</text><text fill="#000000" font-family="sans-serif" font-size="12" lengthAdjust="spacingAndGlyphs" textLength="181" x="483.5" y="177.1074">how do you want to proceed?</text><polygon fill="#FEFECE" filter="url(#f570d4t3mun7d)" points="572,231,584,243,572,255,560,243,572,231" style="stroke: #A80036; stroke-width: 1.5;"/><rect fill="#FEFECE" filter="url(#f570d4t3mun7d)" height="47.9375" rx="12.5" ry="12.5" style="stroke: #A80036; stroke-width: 1.5;" width="407" x="205.5" y="342"/><text fill="#000000" font-family="sans-serif" font-size="12" lengthAdjust="spacingAndGlyphs" textLength="383" x="215.5" y="363.1387">You write extensive tests although the deadline is approaching.</text><text fill="#000000" font-family="sans-serif" font-size="12" lengthAdjust="spacingAndGlyphs" textLength="80" x="371" y="377.1074">'Decision +2'</text><polygon fill="#FEFECE" filter="url(#f570d4t3mun7d)" points="409,438,421,450,409,462,397,450,409,438" style="stroke: #A80036; stroke-width: 1.5;"/><rect fill="#FEFECE" filter="url(#f570d4t3mun7d)" height="47.9375" rx="12.5" ry="12.5" style="stroke: #A80036; stroke-width: 1.5;" width="250" x="7" y="516"/><text fill="#000000" font-family="sans-serif" font-size="12" lengthAdjust="spacingAndGlyphs" textLength="226" x="17" y="537.1387">Due to your good programming skills</text><text fill="#000000" font-family="sans-serif" font-size="12" lengthAdjust="spacingAndGlyphs" textLength="172" x="48" y="551.1074">you will still be ready in time</text><rect fill="#FEFECE" filter="url(#f570d4t3mun7d)" height="89.8438" rx="12.5" ry="12.5" style="stroke: #A80036; stroke-width: 1.5;" width="234" x="44" y="612"/><text fill="#000000" font-family="sans-serif" font-size="12" lengthAdjust="spacingAndGlyphs" textLength="149" x="84.5" y="633.1387">Yaggaya is very pleased</text><text fill="#000000" font-family="sans-serif" font-size="12" lengthAdjust="spacingAndGlyphs" textLength="210" x="58" y="647.1074">with your approach and your tests.</text><text fill="#000000" font-family="sans-serif" font-size="12" lengthAdjust="spacingAndGlyphs" textLength="120" x="99" y="661.0762">Your stats increase:</text><text fill="#000000" font-family="sans-serif" font-size="12" lengthAdjust="spacingAndGlyphs" textLength="102" x="108" y="675.0449">+1 programming</text><text fill="#000000" font-family="sans-serif" font-size="12" lengthAdjust="spacingAndGlyphs" textLength="74" x="126" y="689.0137">+3 analytics</text><rect fill="#FEFECE" filter="url(#f570d4t3mun7d)" height="47.9375" rx="12.5" ry="12.5" style="stroke: #A80036; stroke-width: 1.5;" width="273" x="277.5" y="516"/><text fill="#000000" font-family="sans-serif" font-size="12" lengthAdjust="spacingAndGlyphs" textLength="249" x="287.5" y="537.1387">Unfortunately you won't be ready in time,</text><text fill="#000000" font-family="sans-serif" font-size="12" lengthAdjust="spacingAndGlyphs" textLength="209" x="311.5" y="551.1074">but you have very extensive tests.</text><rect fill="#FEFECE" filter="url(#f570d4t3mun7d)" height="103.8125" rx="12.5" ry="12.5" style="stroke: #A80036; stroke-width: 1.5;" width="253" x="307.5" y="605"/><text fill="#000000" font-family="sans-serif" font-size="12" lengthAdjust="spacingAndGlyphs" textLength="213" x="325.5" y="626.1387">Yaggaya is satisfied with your tests</text><text fill="#000000" font-family="sans-serif" font-size="12" lengthAdjust="spacingAndGlyphs" textLength="118" x="375" y="640.1074">and your approach,</text><text fill="#000000" font-family="sans-serif" font-size="12" lengthAdjust="spacingAndGlyphs" textLength="229" x="321.5" y="654.0762">even though you did not finish in time.</text><text fill="#000000" font-family="sans-serif" font-size="12" lengthAdjust="spacingAndGlyphs" textLength="120" x="372" y="668.0449">Your stats increase:</text><text fill="#000000" font-family="sans-serif" font-size="12" lengthAdjust="spacingAndGlyphs" textLength="103" x="380.5" y="682.0137">+2 programming</text><text fill="#000000" font-family="sans-serif" font-size="12" lengthAdjust="spacingAndGlyphs" textLength="74" x="399" y="695.9824">+2 analytics</text><rect fill="#FEFECE" filter="url(#f570d4t3mun7d)" height="61.9063" rx="12.5" ry="12.5" style="stroke: #A80036; stroke-width: 1.5;" width="208" x="633" y="335"/><text fill="#000000" font-family="sans-serif" font-size="12" lengthAdjust="spacingAndGlyphs" textLength="166" x="652" y="356.1387">You start writing your tests,</text><text fill="#000000" font-family="sans-serif" font-size="12" lengthAdjust="spacingAndGlyphs" textLength="180" x="647" y="370.1074">the deadline is getting closer.</text><text fill="#000000" font-family="sans-serif" font-size="12" lengthAdjust="spacingAndGlyphs" textLength="68" x="703" y="384.0762">Decision -1</text><polygon fill="#FEFECE" filter="url(#f570d4t3mun7d)" points="737,438,749,450,737,462,725,450,737,438" style="stroke: #A80036; stroke-width: 1.5;"/><rect fill="#FEFECE" filter="url(#f570d4t3mun7d)" height="47.9375" rx="12.5" ry="12.5" style="stroke: #A80036; stroke-width: 1.5;" width="317" x="570.5" y="516"/><text fill="#000000" font-family="sans-serif" font-size="12" lengthAdjust="spacingAndGlyphs" textLength="226" x="614" y="537.1387">Due to very good programming skills</text><text fill="#000000" font-family="sans-serif" font-size="12" lengthAdjust="spacingAndGlyphs" textLength="293" x="584.5" y="551.1074">you have extensive tests despite the short time.</text><rect fill="#FEFECE" filter="url(#f570d4t3mun7d)" height="61.9063" rx="12.5" ry="12.5" style="stroke: #A80036; stroke-width: 1.5;" width="271" x="582.5" y="626"/><text fill="#000000" font-family="sans-serif" font-size="12" lengthAdjust="spacingAndGlyphs" textLength="247" x="592.5" y="647.1387">Yaggaya is very satisfied with your work.</text><text fill="#000000" font-family="sans-serif" font-size="12" lengthAdjust="spacingAndGlyphs" textLength="120" x="658" y="661.1074">Your stats increase:</text><text fill="#000000" font-family="sans-serif" font-size="12" lengthAdjust="spacingAndGlyphs" textLength="103" x="668.5" y="675.0762">+2 programming</text><rect fill="#FEFECE" filter="url(#f570d4t3mun7d)" height="47.9375" rx="12.5" ry="12.5" style="stroke: #A80036; stroke-width: 1.5;" width="375" x="907.5" y="516"/><text fill="#000000" font-family="sans-serif" font-size="12" lengthAdjust="spacingAndGlyphs" textLength="192" x="997" y="537.1387">The deadline has been reached</text><text fill="#000000" font-family="sans-serif" font-size="12" lengthAdjust="spacingAndGlyphs" textLength="351" x="921.5" y="551.1074">and you have not managed to test everything extensively.</text><rect fill="#FEFECE" filter="url(#f570d4t3mun7d)" height="103.8125" rx="12.5" ry="12.5" style="stroke: #A80036; stroke-width: 1.5;" width="267" x="893.5" y="605"/><text fill="#000000" font-family="sans-serif" font-size="12" lengthAdjust="spacingAndGlyphs" textLength="240" x="905" y="626.1387">Yaggaya is not satisfied with your work,</text><text fill="#000000" font-family="sans-serif" font-size="12" lengthAdjust="spacingAndGlyphs" textLength="214" x="920" y="640.1074">you have to revise your tests again</text><text fill="#000000" font-family="sans-serif" font-size="12" lengthAdjust="spacingAndGlyphs" textLength="243" x="907.5" y="654.0762">and exceed the deadline by a few days.</text><text fill="#000000" font-family="sans-serif" font-size="12" lengthAdjust="spacingAndGlyphs" textLength="120" x="967" y="668.0449">Your stats increase:</text><text fill="#000000" font-family="sans-serif" font-size="12" lengthAdjust="spacingAndGlyphs" textLength="102" x="976" y="682.0137">+1 programming</text><text fill="#000000" font-family="sans-serif" font-size="12" lengthAdjust="spacingAndGlyphs" textLength="69" x="994.5" y="695.9824">-2 analytics</text><rect fill="#FEFECE" filter="url(#f570d4t3mun7d)" height="33.9688" rx="12.5" ry="12.5" style="stroke: #A80036; stroke-width: 1.5;" width="122" x="514" y="750"/><text fill="#000000" font-family="sans-serif" font-size="12" lengthAdjust="spacingAndGlyphs" textLength="102" x="524" y="771.1387">Tests completed</text><rect fill="#FEFECE" filter="url(#f570d4t3mun7d)" height="33.9688" rx="12.5" ry="12.5" style="stroke: #A80036; stroke-width: 1.5;" width="244" x="453" y="825"/><text fill="#000000" font-family="sans-serif" font-size="12" lengthAdjust="spacingAndGlyphs" textLength="224" x="463" y="846.1387">There is a company party coming up.</text><!--MD5=[b53442bbaafc68028fc124a41789c76d]
link start to After completing your task, you must now write the corresponding tests.--><path d="M572,26.177 C572,35.269 572,49.527 572,61.485 " fill="none" id="start-to-After completing your task, you must now write the corresponding tests." style="stroke: #A80036; stroke-width: 1.0;"/><polygon fill="#A80036" points="572,66.791,576,57.791,572,61.791,568,57.791,572,66.791" style="stroke: #A80036; stroke-width: 1.0;"/><!--MD5=[0f6f9ecbf4aab57e1aa61ec590eed67a]
link After completing your task, you must now write the corresponding tests. to wie--><path d="M572,101.189 C572,111.416 572,124.908 572,136.851 " fill="none" id="After completing your task, you must now write the corresponding tests.-to-wie" style="stroke: #A80036; stroke-width: 1.0;"/><polygon fill="#A80036" points="572,141.861,576,132.861,572,136.861,568,132.861,572,141.861" style="stroke: #A80036; stroke-width: 1.0;"/><!--MD5=[3ccd6b9d3a808d9468102232c30a4b40]
link wie to #732095--><path d="M572,190.319 C572,201.744 572,215.228 572,225.558 " fill="none" id="wie-to-#732095" style="stroke: #A80036; stroke-width: 1.0;"/><polygon fill="#A80036" points="572,230.645,576,221.645,572,225.645,568,221.645,572,230.645" style="stroke: #A80036; stroke-width: 1.0;"/><text fill="#000000" font-family="sans-serif" font-size="11" lengthAdjust="spacingAndGlyphs" textLength="0" x="571.075" y="220.5523"/><!--MD5=[aecdb060ccc6173fc057179c524bb9f9]
link #732095 to d1--><path d="M564.333,247.543 C553.109,252.866 531.723,263.534 515,275 C487.071,294.149 457.925,319.334 437.28,338.191 " fill="none" id="#732095-to-d1" style="stroke: #A80036; stroke-width: 1.0;"/><polygon fill="#A80036" points="433.526,341.636,442.8614,338.4975,437.2098,338.2552,437.4521,332.6035,433.526,341.636" style="stroke: #A80036; stroke-width: 1.0;"/><text fill="#000000" font-family="sans-serif" font-size="11" lengthAdjust="spacingAndGlyphs" textLength="147" x="520" y="286.2104">You write extensive tests</text><text fill="#000000" font-family="sans-serif" font-size="11" lengthAdjust="spacingAndGlyphs" textLength="117" x="537" y="299.0151">until they are ready,</text><text fill="#000000" font-family="sans-serif" font-size="11" lengthAdjust="spacingAndGlyphs" textLength="155" x="520" y="311.8198">regardless of the deadline.</text><!--MD5=[422e2175df27995aa3ac8fcb092e2682]
link d1 to #732100--><path d="M409,390.279 C409,403.746 409,420.373 409,432.493 " fill="none" id="d1-to-#732100" style="stroke: #A80036; stroke-width: 1.0;"/><polygon fill="#A80036" points="409,437.717,413,428.717,409,432.717,405,428.717,409,437.717" style="stroke: #A80036; stroke-width: 1.0;"/><text fill="#000000" font-family="sans-serif" font-size="11" lengthAdjust="spacingAndGlyphs" textLength="230" x="159.2344" y="432.8542">dice roll + programming + decision &gt;=8</text><!--MD5=[b349e8635a61638ff84a33af674b86de]
link #732100 to Due to your good programming skills \n you will still be ready in time--><path d="M400.406,453.73 C371.869,462.796 278.178,492.561 209.498,514.38 " fill="none" id="#732100-to-Due to your good programming skills \n you will still be ready in time" style="stroke: #A80036; stroke-width: 1.0;"/><polygon fill="#A80036" points="204.598,515.937,214.3868,517.0229,209.3631,514.4225,211.9635,509.3987,204.598,515.937" style="stroke: #A80036; stroke-width: 1.0;"/><text fill="#000000" font-family="sans-serif" font-size="11" lengthAdjust="spacingAndGlyphs" textLength="23" x="305" y="493.2104">true</text><!--MD5=[a7104763771107dfaf046c1c4827e0c9]
link Due to your good programming skills \n you will still be ready in time to a1--><path d="M137.869,564.272 C140.961,576.537 144.878,592.068 148.605,606.848 " fill="none" id="Due to your good programming skills \n you will still be ready in time-to-a1" style="stroke: #A80036; stroke-width: 1.0;"/><polygon fill="#A80036" points="149.86,611.826,151.5376,602.1211,148.6372,606.9778,143.7805,604.0775,149.86,611.826" style="stroke: #A80036; stroke-width: 1.0;"/><!--MD5=[14800afe43febdad2a77eb5a7ea02032]
link #732100 to Unfortunately you won't be ready in time, \n but you have very extensive tests.--><path d="M409.593,461.44 C410.278,473.488 411.432,493.801 412.387,510.617 " fill="none" id="#732100-to-Unfortunately you won't be ready in time, \n but you have very extensive tests." style="stroke: #A80036; stroke-width: 1.0;"/><polygon fill="#A80036" points="412.677,515.71,416.1614,506.4981,412.3941,510.718,408.1742,506.9507,412.677,515.71" style="stroke: #A80036; stroke-width: 1.0;"/><text fill="#000000" font-family="sans-serif" font-size="11" lengthAdjust="spacingAndGlyphs" textLength="28" x="413" y="493.2104">false</text><!--MD5=[6723216401ac8a2688f4320221722e23]
link Unfortunately you won't be ready in time, \n but you have very extensive tests. to a2--><path d="M418.047,564.272 C419.841,574.585 422.036,587.209 424.218,599.752 " fill="none" id="Unfortunately you won't be ready in time, \n but you have very extensive tests.-to-a2" style="stroke: #A80036; stroke-width: 1.0;"/><polygon fill="#A80036" points="425.085,604.738,427.4828,595.1855,424.2278,599.812,419.6013,596.557,425.085,604.738" style="stroke: #A80036; stroke-width: 1.0;"/><!--MD5=[68987f31833a4b8b372dd215176fd8d6]
link #732095 to d2--><path d="M582.581,244.755 C602.784,246.671 647.466,253.242 677,275 C696.095,289.067 710.952,311.16 721.106,329.935 " fill="none" id="#732095-to-d2" style="stroke: #A80036; stroke-width: 1.0;"/><polygon fill="#A80036" points="723.586,334.63,722.9214,324.8036,721.2516,330.2084,715.8468,328.5386,723.586,334.63" style="stroke: #A80036; stroke-width: 1.0;"/><text fill="#000000" font-family="sans-serif" font-size="11" lengthAdjust="spacingAndGlyphs" textLength="257" x="726.5" y="292.7104">You write tests until the deadline is reached,</text><text fill="#000000" font-family="sans-serif" font-size="11" lengthAdjust="spacingAndGlyphs" textLength="286" x="716" y="305.5151">what you don't finish by then is simply not tested.</text><!--MD5=[bd47f57431c996c0b6c4f7c59ca9e8c8]
link d2 to #732113--><path d="M737,397.068 C737,409.212 737,422.737 737,432.939 " fill="none" id="d2-to-#732113" style="stroke: #A80036; stroke-width: 1.0;"/><polygon fill="#A80036" points="737,437.946,741,428.946,737,432.946,733,428.946,737,437.946" style="stroke: #A80036; stroke-width: 1.0;"/><text fill="#000000" font-family="sans-serif" font-size="11" lengthAdjust="spacingAndGlyphs" textLength="234" x="479.2906" y="433.2329">dice roll + programming + decision &gt;= 8</text><!--MD5=[c4eaa5706ac91e50b3d58fc3c7a07b18]
link #732113 to Due to very good programming skills \n you have extensive tests despite the short time.--><path d="M736.082,461.095 C734.989,473.123 733.115,493.73 731.57,510.729 " fill="none" id="#732113-to-Due to very good programming skills \n you have extensive tests despite the short time." style="stroke: #A80036; stroke-width: 1.0;"/><polygon fill="#A80036" points="731.102,515.875,735.8982,507.2729,731.5534,510.8954,727.9308,506.5506,731.102,515.875" style="stroke: #A80036; stroke-width: 1.0;"/><text fill="#000000" font-family="sans-serif" font-size="11" lengthAdjust="spacingAndGlyphs" textLength="23" x="734" y="493.2104">true</text><!--MD5=[0f02dc56d034a8df1c043baabed35c38]
link Due to very good programming skills \n you have extensive tests despite the short time. to a3--><path d="M726.774,564.272 C725.225,580.47 723.13,602.365 721.376,620.701 " fill="none" id="Due to very good programming skills \n you have extensive tests despite the short time.-to-a3" style="stroke: #A80036; stroke-width: 1.0;"/><polygon fill="#A80036" points="720.891,625.771,725.7292,617.1924,721.3667,620.7937,717.7655,616.4312,720.891,625.771" style="stroke: #A80036; stroke-width: 1.0;"/><!--MD5=[4f5b7d7e2048136d0d129cce83b2bd62]
link #732113 to The deadline has been reached \n and you have not managed to test everything extensively.--><path d="M745.849,453.175 C779.93,461.553 905.307,492.372 996.078,514.684 " fill="none" id="#732113-to-The deadline has been reached \n and you have not managed to test everything extensively." style="stroke: #A80036; stroke-width: 1.0;"/><polygon fill="#A80036" points="1001.188,515.94,993.4038,509.9062,996.3327,514.7458,991.4931,517.6747,1001.188,515.94" style="stroke: #A80036; stroke-width: 1.0;"/><text fill="#000000" font-family="sans-serif" font-size="11" lengthAdjust="spacingAndGlyphs" textLength="28" x="917" y="493.2104">false</text><!--MD5=[f1818ac60b09db38ef7569cbf90f7b31]
link The deadline has been reached \n and you have not managed to test everything extensively. to a4--><path d="M1081.24,564.272 C1075.03,574.768 1067.41,587.656 1059.87,600.418 " fill="none" id="The deadline has been reached \n and you have not managed to test everything extensively.-to-a4" style="stroke: #A80036; stroke-width: 1.0;"/><polygon fill="#A80036" points="1057.31,604.738,1065.337,599.0312,1059.8572,600.4355,1058.453,594.9557,1057.31,604.738" style="stroke: #A80036; stroke-width: 1.0;"/><!--MD5=[7e914e7ce59e95b3ab5867aef29a59e0]
link a1 to ta--><path d="M274.465,702.045 C282.05,704.525 289.61,706.871 297,709 C368.346,729.555 452.031,745.662 508.803,755.435 " fill="none" id="a1-to-ta" style="stroke: #A80036; stroke-width: 1.0;"/><polygon fill="#A80036" points="513.869,756.303,505.6739,750.8404,508.9408,755.4585,504.3227,758.7255,513.869,756.303" style="stroke: #A80036; stroke-width: 1.0;"/><!--MD5=[9af4109769aaa9ac75b62d200e6d86be]
link a2 to ta--><path d="M500.784,709.154 C518.201,722.494 535.921,736.067 549.676,746.603 " fill="none" id="a2-to-ta" style="stroke: #A80036; stroke-width: 1.0;"/><polygon fill="#A80036" points="553.813,749.772,549.0992,741.1244,549.8432,746.7322,544.2355,747.4761,553.813,749.772" style="stroke: #A80036; stroke-width: 1.0;"/><!--MD5=[9504ecf43b0fcc7a32a5b9b20866486e]
link a3 to ta--><path d="M678.167,688.084 C653.374,706.808 622.216,730.34 600.664,746.618 " fill="none" id="a3-to-ta" style="stroke: #A80036; stroke-width: 1.0;"/><polygon fill="#A80036" points="596.486,749.773,606.0783,747.5396,600.4755,746.7591,601.256,741.1563,596.486,749.773" style="stroke: #A80036; stroke-width: 1.0;"/><!--MD5=[afa29921e89968f8b0be0f0c1e498ebb]
link a4 to ta--><path d="M893.46,701.061 C883.526,703.872 873.627,706.552 864,709 C788.345,728.236 700.163,744.798 641.29,755.035 " fill="none" id="a4-to-ta" style="stroke: #A80036; stroke-width: 1.0;"/><polygon fill="#A80036" points="636.041,755.945,645.5922,758.3482,640.9675,755.0906,644.2251,750.4659,636.041,755.945" style="stroke: #A80036; stroke-width: 1.0;"/><!--MD5=[2b94c78d24a24759cfd487900dc3bece]
link ta to There is a company party coming up.--><path d="M575,784.2011 C575,794.6917 575,808.4627 575,819.8176 " fill="none" id="ta-to-There is a company party coming up." style="stroke: #0000FF; stroke-width: 1.0; stroke-dasharray: 1.0,3.0;"/><polygon fill="#0000FF" points="575,824.8442,579,815.8442,575,819.8442,571,815.8442,575,824.8442" style="stroke: #0000FF; stroke-width: 1.0;"/><!--MD5=[80f278971871f1fa8a0232aee5edc713]
@startuml
(*) - -> "After completing your task, you must now write the corresponding tests."
- -> "You only have a few days to write the tests,\n how do you want to proceed?" as wie
if "" then
- -> [You write extensive tests \n until they are ready, \n regardless of the deadline.] "You write extensive tests although the deadline is approaching. \n 'Decision +2'" as d1
if "dice roll + programming + decision >=8" then 
- -> [true] "Due to your good programming skills \n you will still be ready in time"
- -> "Yaggaya is very pleased \n with your approach and your tests.\nYour stats increase: \n+1 programming \n +3 analytics" as a1
else 
- -> [false] "Unfortunately you won't be ready in time, \n but you have very extensive tests."
- -> "Yaggaya is satisfied with your tests \n and your approach, \n even though you did not finish in time.\nYour stats increase: \n+2 programming \n +2 analytics" as a2
endif
else
 - -> [You write tests until the deadline is reached, \n what you don't finish by then is simply not tested.] "You start writing your tests, \n the deadline is getting closer. \nDecision -1" as d2
if "dice roll + programming + decision >= 8 " then 
- -> [true] "Due to very good programming skills \n you have extensive tests despite the short time."
- -> "Yaggaya is very satisfied with your work. \n Your stats increase: \n +2 programming" as a3
else 
- -> [false] "The deadline has been reached \n and you have not managed to test everything extensively."
- -> "Yaggaya is not satisfied with your work, \n you have to revise your tests again \n and exceed the deadline by a few days.\n Your stats increase: \n +1 programming \n -2 analytics" as a4

endif
endif

a1 - -> "Tests completed" as ta
a2 - -> ta
a3 - -> ta
a4 - -> ta
ta -[#blue,dotted]-> "There is a company party coming up."
@enduml

PlantUML version 1.2020.20beta13(Unknown compile time)
(GPL source distribution)
Java Runtime: Java(TM) SE Runtime Environment
JVM: Java HotSpot(TM) 64-Bit Server VM
Default Encoding: UTF-8
Language: en
Country: US
--></g></svg>