<?xml version="1.0" encoding="UTF-8" standalone="no"?><svg xmlns="http://www.w3.org/2000/svg" xmlns:xlink="http://www.w3.org/1999/xlink" contentScriptType="application/ecmascript" contentStyleType="text/css" height="651px" preserveAspectRatio="none" style="width:977px;height:651px;" version="1.1" viewBox="0 0 977 651" width="977px" zoomAndPan="magnify"><defs><filter height="300%" id="fujvem4yqn9u" width="300%" x="-1" y="-1"><feGaussianBlur result="blurOut" stdDeviation="2.0"/><feColorMatrix in="blurOut" result="blurOut2" type="matrix" values="0 0 0 0 0 0 0 0 0 0 0 0 0 0 0 0 0 0 .4 0"/><feOffset dx="4.0" dy="4.0" in="blurOut2" result="blurOut3"/><feBlend in="SourceGraphic" in2="blurOut3" mode="normal"/></filter></defs><g><ellipse cx="396" cy="16" fill="#000000" filter="url(#fujvem4yqn9u)" rx="10" ry="10" style="stroke: none; stroke-width: 1.0;"/><rect fill="#FEFECE" filter="url(#fujvem4yqn9u)" height="33.9688" rx="12.5" ry="12.5" style="stroke: #A80036; stroke-width: 1.5;" width="440" x="176" y="67"/><text fill="#000000" font-family="sans-serif" font-size="12" lengthAdjust="spacingAndGlyphs" textLength="420" x="186" y="88.1387">You are thirsty and want to get something to drink, what do you take?</text><polygon fill="#FEFECE" filter="url(#fujvem4yqn9u)" points="396,142,408,154,396,166,384,154,396,142" style="stroke: #A80036; stroke-width: 1.5;"/><rect fill="#FEFECE" filter="url(#fujvem4yqn9u)" height="33.9688" rx="12.5" ry="12.5" style="stroke: #A80036; stroke-width: 1.5;" width="240" x="7" y="214"/><text fill="#000000" font-family="sans-serif" font-size="12" lengthAdjust="spacingAndGlyphs" textLength="220" x="17" y="235.1387">One beer is enough for the evening.</text><rect fill="#FEFECE" filter="url(#fujvem4yqn9u)" height="47.9375" rx="12.5" ry="12.5" style="stroke: #A80036; stroke-width: 1.5;" width="194" x="135" y="296"/><text fill="#000000" font-family="sans-serif" font-size="12" lengthAdjust="spacingAndGlyphs" textLength="174" x="145" y="317.1387">You got through the evening.</text><text fill="#000000" font-family="sans-serif" font-size="12" lengthAdjust="spacingAndGlyphs" textLength="70" x="199" y="331.1074">+1 partying</text><rect fill="#FEFECE" filter="url(#fujvem4yqn9u)" height="33.9688" rx="12.5" ry="12.5" style="stroke: #A80036; stroke-width: 1.5;" width="257" x="267.5" y="214"/><text fill="#000000" font-family="sans-serif" font-size="12" lengthAdjust="spacingAndGlyphs" textLength="237" x="277.5" y="235.1387">A good old spezi is perfectly sufficient.</text><rect fill="#FEFECE" filter="url(#fujvem4yqn9u)" height="47.9375" rx="12.5" ry="12.5" style="stroke: #A80036; stroke-width: 1.5;" width="334" x="545" y="207"/><text fill="#000000" font-family="sans-serif" font-size="12" lengthAdjust="spacingAndGlyphs" textLength="179" x="620.5" y="228.1387">A few Tequilla shots will do it,</text><text fill="#000000" font-family="sans-serif" font-size="12" lengthAdjust="spacingAndGlyphs" textLength="314" x="555" y="242.1074">after all its for free, you should take advantage of it.</text><rect fill="#FEFECE" filter="url(#fujvem4yqn9u)" height="33.9688" rx="12.5" ry="12.5" style="stroke: #A80036; stroke-width: 1.5;" width="156" x="634" y="303"/><text fill="#000000" font-family="sans-serif" font-size="12" lengthAdjust="spacingAndGlyphs" textLength="136" x="644" y="324.1387">r = partying + random</text><rect fill="#FEFECE" filter="url(#fujvem4yqn9u)" height="61.9063" rx="12.5" ry="12.5" style="stroke: #A80036; stroke-width: 1.5;" width="392" x="263" y="412"/><text fill="#000000" font-family="sans-serif" font-size="12" lengthAdjust="spacingAndGlyphs" textLength="368" x="273" y="433.1387">Due to your excellent party experience you are able to drink</text><text fill="#000000" font-family="sans-serif" font-size="12" lengthAdjust="spacingAndGlyphs" textLength="266" x="326" y="447.1074">and survive the party without creating a stir:</text><text fill="#000000" font-family="sans-serif" font-size="12" lengthAdjust="spacingAndGlyphs" textLength="71" x="425.5" y="461.0762">+3 partying</text><rect fill="#FEFECE" filter="url(#fujvem4yqn9u)" height="89.8438" rx="12.5" ry="12.5" style="stroke: #A80036; stroke-width: 1.5;" width="288" x="675" y="398"/><text fill="#000000" font-family="sans-serif" font-size="12" lengthAdjust="spacingAndGlyphs" textLength="264" x="685" y="419.1387">You bring a good atmosphere to the group,</text><text fill="#000000" font-family="sans-serif" font-size="12" lengthAdjust="spacingAndGlyphs" textLength="224" x="707" y="433.1074">but your mentor and boss notice you</text><text fill="#000000" font-family="sans-serif" font-size="12" lengthAdjust="spacingAndGlyphs" textLength="247" x="697.5" y="447.0762">negatively, because you are quite drunk.</text><text fill="#000000" font-family="sans-serif" font-size="12" lengthAdjust="spacingAndGlyphs" textLength="71" x="783.5" y="461.0449">+3 partying</text><text fill="#000000" font-family="sans-serif" font-size="12" lengthAdjust="spacingAndGlyphs" textLength="107" x="767.5" y="475.0137">-2 communication</text><rect fill="#FEFECE" filter="url(#fujvem4yqn9u)" height="33.9688" rx="12.5" ry="12.5" style="stroke: #A80036; stroke-width: 1.5;" width="236" x="341" y="529"/><text fill="#000000" font-family="sans-serif" font-size="12" lengthAdjust="spacingAndGlyphs" textLength="216" x="351" y="550.1387">The party is over and you go home.</text><rect fill="#FEFECE" filter="url(#fujvem4yqn9u)" height="33.9688" rx="12.5" ry="12.5" style="stroke: #A80036; stroke-width: 1.5;" width="403" x="257.5" y="604"/><text fill="#000000" font-family="sans-serif" font-size="12" lengthAdjust="spacingAndGlyphs" textLength="383" x="267.5" y="625.1387">A voluntary further education is pending, will you take part in it?</text><!--MD5=[f0faba48d7efab99a17b0001edf6edff]
link start to alc--><path d="M396,26.177 C396,35.269 396,49.527 396,61.485 " fill="none" id="start-to-alc" style="stroke: #A80036; stroke-width: 1.0;"/><polygon fill="#A80036" points="396,66.791,400,57.791,396,61.791,392,57.791,396,66.791" style="stroke: #A80036; stroke-width: 1.0;"/><!--MD5=[ccc8ddbe033a9b943776467022ebaaff]
link alc to #354671--><path d="M396,101.115 C396,111.916 396,126.082 396,136.883 " fill="none" id="alc-to-#354671" style="stroke: #A80036; stroke-width: 1.0;"/><polygon fill="#A80036" points="396,141.885,400,132.885,396,136.885,392,132.885,396,141.885" style="stroke: #A80036; stroke-width: 1.0;"/><text fill="#000000" font-family="sans-serif" font-size="11" lengthAdjust="spacingAndGlyphs" textLength="0" x="395.025" y="131.4605"/><!--MD5=[66f090373e781fe93b80299cb17d2faa]
link #354671 to genießen--><path d="M387.355,157.41 C357.468,165.743 256.683,193.843 189.633,212.537 " fill="none" id="#354671-to-genießen" style="stroke: #A80036; stroke-width: 1.0;"/><polygon fill="#A80036" points="184.464,213.979,194.2077,215.4146,189.2803,212.636,192.0589,207.7086,184.464,213.979" style="stroke: #A80036; stroke-width: 1.0;"/><!--MD5=[a711d685fd9918d03fea465cefceeec3]
link genießen to party--><path d="M146.75,248.364 C161.772,260.811 182.751,278.194 200.138,292.6 " fill="none" id="genießen-to-party" style="stroke: #A80036; stroke-width: 1.0;"/><polygon fill="#A80036" points="204.017,295.814,199.6373,286.9926,200.1663,292.6246,194.5342,293.1537,204.017,295.814" style="stroke: #A80036; stroke-width: 1.0;"/><!--MD5=[03ee12b1a29f27a2267a3aebd906c814]
link #354671 to A good old spezi is perfectly sufficient.--><path d="M396,166.067 C396,177.218 396,194.714 396,208.587 " fill="none" id="#354671-to-A good old spezi is perfectly sufficient." style="stroke: #A80036; stroke-width: 1.0;"/><polygon fill="#A80036" points="396,213.896,400,204.896,396,208.896,392,204.896,396,213.896" style="stroke: #A80036; stroke-width: 1.0;"/><!--MD5=[9eca0d2302ad8d35731aaecf4da6f96a]
link A good old spezi is perfectly sufficient. to party--><path d="M365.537,248.16 C341.632,260.842 307.899,278.737 280.318,293.368 " fill="none" id="A good old spezi is perfectly sufficient.-to-party" style="stroke: #A80036; stroke-width: 1.0;"/><polygon fill="#A80036" points="275.597,295.873,285.4219,295.1871,280.0135,293.529,281.6716,288.1206,275.597,295.873" style="stroke: #A80036; stroke-width: 1.0;"/><!--MD5=[1f0c9d3270e8e268407875d13b4edaa9]
link #354671 to saufen--><path d="M405.116,157.164 C435.021,164.261 532.636,187.429 609.839,205.753 " fill="none" id="#354671-to-saufen" style="stroke: #A80036; stroke-width: 1.0;"/><polygon fill="#A80036" points="614.894,206.953,607.0603,200.9836,610.029,205.7989,605.2137,208.7676,614.894,206.953" style="stroke: #A80036; stroke-width: 1.0;"/><!--MD5=[6b48699580f311abbaaa9b638f291db3]
link saufen to r--><path d="M712,255.314 C712,268.439 712,284.713 712,297.525 " fill="none" id="saufen-to-r" style="stroke: #A80036; stroke-width: 1.0;"/><polygon fill="#A80036" points="712,302.784,716,293.784,712,297.784,708,293.784,712,302.784" style="stroke: #A80036; stroke-width: 1.0;"/><!--MD5=[75cde8a732990ac975477a333014d6d4]
link r to alci--><path d="M678.404,337.068 C639.86,355.502 575.67,386.201 526.651,409.645 " fill="none" id="r-to-alci" style="stroke: #A80036; stroke-width: 1.0;"/><polygon fill="#A80036" points="521.956,411.891,531.801,411.6161,526.4666,409.7336,528.3491,404.3991,521.956,411.891" style="stroke: #A80036; stroke-width: 1.0;"/><text fill="#000000" font-family="sans-serif" font-size="11" lengthAdjust="spacingAndGlyphs" textLength="28" x="616" y="375.2104">r &gt; 8</text><!--MD5=[ceae45633184a576474168fe6c247d01]
link r to You bring a good atmosphere to the group, \n but your mentor and boss notice you \n negatively, because you are quite drunk.\n +3 partying \n -2 communication--><path d="M726.43,337.319 C739.265,351.833 758.697,373.806 776.448,393.88 " fill="none" id="r-to-You bring a good atmosphere to the group, \n but your mentor and boss notice you \n negatively, because you are quite drunk.\n +3 partying \n -2 communication" style="stroke: #A80036; stroke-width: 1.0;"/><polygon fill="#A80036" points="779.973,397.867,777.0067,388.4754,776.6605,394.1217,771.0143,393.7754,779.973,397.867" style="stroke: #A80036; stroke-width: 1.0;"/><text fill="#000000" font-family="sans-serif" font-size="11" lengthAdjust="spacingAndGlyphs" textLength="37" x="763" y="375.2104">r &lt;= 8</text><!--MD5=[702ddd4f492a8461d0c4697a6b1ef3f5]
link You bring a good atmosphere to the group, \n but your mentor and boss notice you \n negatively, because you are quite drunk.\n +3 partying \n -2 communication to hause--><path d="M674.738,485.257 C671.462,486.181 668.212,487.097 665,488 C617.286,501.417 563.282,516.351 522.542,527.565 " fill="none" id="You bring a good atmosphere to the group, \n but your mentor and boss notice you \n negatively, because you are quite drunk.\n +3 partying \n -2 communication-to-hause" style="stroke: #A80036; stroke-width: 1.0;"/><polygon fill="#A80036" points="517.641,528.914,527.3798,530.3821,522.4617,527.5871,525.2567,522.6689,517.641,528.914" style="stroke: #A80036; stroke-width: 1.0;"/><!--MD5=[2050a46a25da50db765cf0ba6b96b460]
link party to hause--><path d="M227.616,344.126 C222.321,379.594 218.023,447.55 253,488 C267.461,504.723 313.09,518.228 357.74,527.887 " fill="none" id="party-to-hause" style="stroke: #A80036; stroke-width: 1.0;"/><polygon fill="#A80036" points="362.896,528.986,354.9282,523.1968,358.006,527.9431,353.2596,531.0209,362.896,528.986" style="stroke: #A80036; stroke-width: 1.0;"/><!--MD5=[fc9cb106ae4db612f898e7b4aa45aff5]
link alci to hause--><path d="M459,474.03 C459,490.084 459,509.461 459,523.909 " fill="none" id="alci-to-hause" style="stroke: #A80036; stroke-width: 1.0;"/><polygon fill="#A80036" points="459,528.994,463,519.994,459,523.994,455,519.994,459,528.994" style="stroke: #A80036; stroke-width: 1.0;"/><!--MD5=[c65a8d5f8efc8617bd798cffc70c34c1]
link hause to A voluntary further education is pending, will you take part in it?--><path d="M459,563.2011 C459,573.6917 459,587.4627 459,598.8176 " fill="none" id="hause-to-A voluntary further education is pending, will you take part in it?" style="stroke: #0000FF; stroke-width: 1.0; stroke-dasharray: 1.0,3.0;"/><polygon fill="#0000FF" points="459,603.8442,463,594.8442,459,598.8442,455,594.8442,459,603.8442" style="stroke: #0000FF; stroke-width: 1.0;"/><!--MD5=[40ea6d7ffebfa2dde009e5839555e58e]
@startuml
(*) - -> "You are thirsty and want to get something to drink, what do you take?" as alc
if "" then 
- -> "One beer is enough for the evening." as genießen
genießen - -> "You got through the evening.\n +1 partying" as party
else 
- -> "A good old spezi is perfectly sufficient."
- -> party
else 
- -> "A few Tequilla shots will do it, \nafter all its for free, you should take advantage of it." as saufen

endif

saufen - -> "r = partying + random" as r
r - -> [r > 8] "Due to your excellent party experience you are able to drink \n and survive the party without creating a stir: \n +3 partying" as alci
r - -> [r <= 8] "You bring a good atmosphere to the group, \n but your mentor and boss notice you \n negatively, because you are quite drunk.\n +3 partying \n -2 communication"
- -> "The party is over and you go home." as hause
party - -> hause
alci - -> hause
-[#blue,dotted]-> "A voluntary further education is pending, will you take part in it?"
@enduml

PlantUML version 1.2020.20beta13(Unknown compile time)
(GPL source distribution)
Java Runtime: Java(TM) SE Runtime Environment
JVM: Java HotSpot(TM) 64-Bit Server VM
Default Encoding: UTF-8
Language: en
Country: US
--></g></svg>