<?xml version="1.0" encoding="UTF-8" standalone="no"?><svg xmlns="http://www.w3.org/2000/svg" xmlns:xlink="http://www.w3.org/1999/xlink" contentScriptType="application/ecmascript" contentStyleType="text/css" height="487px" preserveAspectRatio="none" style="width:605px;height:487px;" version="1.1" viewBox="0 0 605 487" width="605px" zoomAndPan="magnify"><defs><filter height="300%" id="fg5agdiok5oha" width="300%" x="-1" y="-1"><feGaussianBlur result="blurOut" stdDeviation="2.0"/><feColorMatrix in="blurOut" result="blurOut2" type="matrix" values="0 0 0 0 0 0 0 0 0 0 0 0 0 0 0 0 0 0 .4 0"/><feOffset dx="4.0" dy="4.0" in="blurOut2" result="blurOut3"/><feBlend in="SourceGraphic" in2="blurOut3" mode="normal"/></filter></defs><g><ellipse cx="298.5" cy="16" fill="#000000" filter="url(#fg5agdiok5oha)" rx="10" ry="10" style="stroke: none; stroke-width: 1.0;"/><rect fill="#FEFECE" filter="url(#fg5agdiok5oha)" height="33.9688" rx="12.5" ry="12.5" style="stroke: #A80036; stroke-width: 1.5;" width="335" x="131" y="67"/><text fill="#000000" font-family="sans-serif" font-size="12" lengthAdjust="spacingAndGlyphs" textLength="315" x="141" y="88.1387">Which character do you want to play the game with?</text><polygon fill="#FEFECE" filter="url(#fg5agdiok5oha)" points="298.5,142,310.5,154,298.5,166,286.5,154,298.5,142" style="stroke: #A80036; stroke-width: 1.5;"/><rect fill="#FEFECE" filter="url(#fg5agdiok5oha)" height="103.8125" rx="12.5" ry="12.5" style="stroke: #A80036; stroke-width: 1.5;" width="131" x="7" y="220"/><text fill="#000000" font-family="sans-serif" font-size="12" lengthAdjust="spacingAndGlyphs" textLength="43" x="49" y="241.1387">Noruso</text><text fill="#000000" font-family="sans-serif" font-size="12" lengthAdjust="spacingAndGlyphs" textLength="34" x="57.5" y="255.1074">Stats:</text><text fill="#000000" font-family="sans-serif" font-size="12" lengthAdjust="spacingAndGlyphs" textLength="94" x="25.5" y="269.0762">Programming: 1</text><text fill="#000000" font-family="sans-serif" font-size="12" lengthAdjust="spacingAndGlyphs" textLength="69" x="40" y="283.0449">Analytics: 4</text><text fill="#000000" font-family="sans-serif" font-size="12" lengthAdjust="spacingAndGlyphs" textLength="103" x="21" y="297.0137">Communication 3</text><text fill="#000000" font-family="sans-serif" font-size="12" lengthAdjust="spacingAndGlyphs" textLength="63" x="43" y="310.9824">Partying: 2</text><rect fill="#FEFECE" filter="url(#fg5agdiok5oha)" height="103.8125" rx="12.5" ry="12.5" style="stroke: #A80036; stroke-width: 1.5;" width="130" x="158.5" y="220"/><text fill="#000000" font-family="sans-serif" font-size="12" lengthAdjust="spacingAndGlyphs" textLength="38" x="202.5" y="241.1387">Lumati</text><text fill="#000000" font-family="sans-serif" font-size="12" lengthAdjust="spacingAndGlyphs" textLength="34" x="208.5" y="255.1074">Stats:</text><text fill="#000000" font-family="sans-serif" font-size="12" lengthAdjust="spacingAndGlyphs" textLength="95" x="176" y="269.0762">Programming: 4</text><text fill="#000000" font-family="sans-serif" font-size="12" lengthAdjust="spacingAndGlyphs" textLength="69" x="191" y="283.0449">Analytics: 3</text><text fill="#000000" font-family="sans-serif" font-size="12" lengthAdjust="spacingAndGlyphs" textLength="102" x="172.5" y="297.0137">Communication 1</text><text fill="#000000" font-family="sans-serif" font-size="12" lengthAdjust="spacingAndGlyphs" textLength="63" x="194" y="310.9824">Partying: 0</text><rect fill="#FEFECE" filter="url(#fg5agdiok5oha)" height="103.8125" rx="12.5" ry="12.5" style="stroke: #A80036; stroke-width: 1.5;" width="131" x="309" y="220"/><text fill="#000000" font-family="sans-serif" font-size="12" lengthAdjust="spacingAndGlyphs" textLength="37" x="354" y="241.1387">Turgal</text><text fill="#000000" font-family="sans-serif" font-size="12" lengthAdjust="spacingAndGlyphs" textLength="34" x="359.5" y="255.1074">Stats:</text><text fill="#000000" font-family="sans-serif" font-size="12" lengthAdjust="spacingAndGlyphs" textLength="95" x="327" y="269.0762">Programming: 2</text><text fill="#000000" font-family="sans-serif" font-size="12" lengthAdjust="spacingAndGlyphs" textLength="69" x="342" y="283.0449">Analytics: 2</text><text fill="#000000" font-family="sans-serif" font-size="12" lengthAdjust="spacingAndGlyphs" textLength="103" x="323" y="297.0137">Communication 2</text><text fill="#000000" font-family="sans-serif" font-size="12" lengthAdjust="spacingAndGlyphs" textLength="63" x="345" y="310.9824">Partying: 2</text><rect fill="#FEFECE" filter="url(#fg5agdiok5oha)" height="103.8125" rx="12.5" ry="12.5" style="stroke: #A80036; stroke-width: 1.5;" width="131" x="460" y="220"/><text fill="#000000" font-family="sans-serif" font-size="12" lengthAdjust="spacingAndGlyphs" textLength="39" x="504" y="241.1387">Kirogh</text><text fill="#000000" font-family="sans-serif" font-size="12" lengthAdjust="spacingAndGlyphs" textLength="34" x="510.5" y="255.1074">Stats:</text><text fill="#000000" font-family="sans-serif" font-size="12" lengthAdjust="spacingAndGlyphs" textLength="94" x="478.5" y="269.0762">Programming: 1</text><text fill="#000000" font-family="sans-serif" font-size="12" lengthAdjust="spacingAndGlyphs" textLength="69" x="493" y="283.0449">Analytics: 0</text><text fill="#000000" font-family="sans-serif" font-size="12" lengthAdjust="spacingAndGlyphs" textLength="103" x="474" y="297.0137">Communication 2</text><text fill="#000000" font-family="sans-serif" font-size="12" lengthAdjust="spacingAndGlyphs" textLength="63" x="496" y="310.9824">Partying: 5</text><rect fill="#FEFECE" filter="url(#fg5agdiok5oha)" height="33.9688" rx="12.5" ry="12.5" style="stroke: #A80036; stroke-width: 1.5;" width="421" x="88" y="365"/><text fill="#000000" font-family="sans-serif" font-size="12" lengthAdjust="spacingAndGlyphs" textLength="401" x="98" y="386.1387">You are still missing an elective subject at the end of your studies.</text><rect fill="#FEFECE" filter="url(#fg5agdiok5oha)" height="33.9688" rx="12.5" ry="12.5" style="stroke: #A80036; stroke-width: 1.5;" width="187" x="205" y="440"/><text fill="#000000" font-family="sans-serif" font-size="12" lengthAdjust="spacingAndGlyphs" textLength="167" x="215" y="461.1387">Which one will you choose?</text><!--MD5=[4dafd4106b2f5b0921d3ba4db6948bbd]
link start to Which character do you want to play the game with?--><path d="M298.5,26.177 C298.5,35.269 298.5,49.527 298.5,61.485 " fill="none" id="start-to-Which character do you want to play the game with?" style="stroke: #A80036; stroke-width: 1.0;"/><polygon fill="#A80036" points="298.5,66.791,302.5,57.791,298.5,61.791,294.5,57.791,298.5,66.791" style="stroke: #A80036; stroke-width: 1.0;"/><!--MD5=[36a3755ce15bb4dcfb46e9d4e8eb5e30]
link Which character do you want to play the game with? to #731882--><path d="M298.5,101.115 C298.5,111.916 298.5,126.082 298.5,136.883 " fill="none" id="Which character do you want to play the game with?-to-#731882" style="stroke: #A80036; stroke-width: 1.0;"/><polygon fill="#A80036" points="298.5,141.885,302.5,132.885,298.5,136.885,294.5,132.885,298.5,141.885" style="stroke: #A80036; stroke-width: 1.0;"/><text fill="#000000" font-family="sans-serif" font-size="11" lengthAdjust="spacingAndGlyphs" textLength="0" x="297.525" y="131.4605"/><!--MD5=[e2158b3713dfd28aadf42c457bf65084]
link #731882 to char1--><path d="M288.686,156.415 C268.516,159.592 221.292,168.43 185.5,186 C168.479,194.355 151.443,205.406 135.95,216.766 " fill="none" id="#731882-to-char1" style="stroke: #A80036; stroke-width: 1.0;"/><polygon fill="#A80036" points="131.622,219.976,141.2336,217.8271,135.6379,216.9973,136.4676,211.4016,131.622,219.976" style="stroke: #A80036; stroke-width: 1.0;"/><text fill="#000000" font-family="sans-serif" font-size="11" lengthAdjust="spacingAndGlyphs" textLength="66" x="186.5" y="197.2104">Character 1</text><!--MD5=[2bac92b853bbe0868e099608cc9eb735]
link #731882 to char2--><path d="M292.239,159.967 C285.309,165.696 274.114,175.661 266.5,186 C259.866,195.007 253.736,205.188 248.307,215.295 " fill="none" id="#731882-to-char2" style="stroke: #A80036; stroke-width: 1.0;"/><polygon fill="#A80036" points="245.862,219.929,253.5988,213.8346,248.1947,215.5065,246.5228,210.1023,245.862,219.929" style="stroke: #A80036; stroke-width: 1.0;"/><text fill="#000000" font-family="sans-serif" font-size="11" lengthAdjust="spacingAndGlyphs" textLength="66" x="267.5" y="197.2104">Character 2</text><!--MD5=[f6bbfb71ac794c6485bf07a686dbc58d]
link #731882 to char3--><path d="M305.295,159.31 C313.377,164.72 326.858,174.674 335.5,186 C342.247,194.843 348.176,205.04 353.242,215.233 " fill="none" id="#731882-to-char3" style="stroke: #A80036; stroke-width: 1.0;"/><polygon fill="#A80036" points="355.508,219.912,355.184,210.0685,353.3281,215.4122,347.9844,213.5563,355.508,219.912" style="stroke: #A80036; stroke-width: 1.0;"/><text fill="#000000" font-family="sans-serif" font-size="11" lengthAdjust="spacingAndGlyphs" textLength="66" x="345.5" y="197.2104">Character 3</text><!--MD5=[830199ba925469c779cfbc967e9f4aae]
link #731882 to char4--><path d="M308.546,156.201 C329.667,159.022 379.829,167.298 417.5,186 C434.105,194.244 450.579,205.313 465.471,216.733 " fill="none" id="#731882-to-char4" style="stroke: #A80036; stroke-width: 1.0;"/><polygon fill="#A80036" points="469.629,219.962,464.9752,211.282,465.6803,216.8948,460.0676,217.5999,469.629,219.962" style="stroke: #A80036; stroke-width: 1.0;"/><text fill="#000000" font-family="sans-serif" font-size="11" lengthAdjust="spacingAndGlyphs" textLength="66" x="441.5" y="197.2104">Character 4</text><!--MD5=[0f745679f4c18c388fa4aeacea51b981]
link char4 to a--><path d="M459.73,318.434 C456.312,320.385 452.89,322.253 449.5,324 C419.246,339.597 383.705,353.226 354.706,363.243 " fill="none" id="char4-to-a" style="stroke: #A80036; stroke-width: 1.0;"/><polygon fill="#A80036" points="349.742,364.945,359.5528,365.8104,354.4718,363.3236,356.9586,358.2427,349.742,364.945" style="stroke: #A80036; stroke-width: 1.0;"/><!--MD5=[42bffe391633f039ea37aa25608141e8]
link char1 to a--><path d="M138.274,318.425 C141.692,320.378 145.112,322.249 148.5,324 C178.562,339.539 213.868,353.166 242.672,363.195 " fill="none" id="char1-to-a" style="stroke: #A80036; stroke-width: 1.0;"/><polygon fill="#A80036" points="247.604,364.9,240.4038,358.1801,242.8782,363.2671,237.7912,365.7415,247.604,364.9" style="stroke: #A80036; stroke-width: 1.0;"/><!--MD5=[89ea97879056f5c9dcce02b5a0be59a9]
link char2 to a--><path d="M259.023,324.154 C267.902,336.939 276.929,349.937 284.105,360.272 " fill="none" id="char2-to-a" style="stroke: #A80036; stroke-width: 1.0;"/><polygon fill="#A80036" points="287.062,364.529,285.2113,354.8556,284.2089,360.4229,278.6416,359.4206,287.062,364.529" style="stroke: #A80036; stroke-width: 1.0;"/><!--MD5=[731b0ed5bd7b9d5e8d9190856d75590a]
link char3 to a--><path d="M338.503,324.154 C329.506,336.939 320.359,349.937 313.087,360.272 " fill="none" id="char3-to-a" style="stroke: #A80036; stroke-width: 1.0;"/><polygon fill="#A80036" points="310.091,364.529,318.5417,359.4707,312.9685,360.44,311.9992,354.8668,310.091,364.529" style="stroke: #A80036; stroke-width: 1.0;"/><!--MD5=[5654fe77365d362ab92491f753c21458]
link a to Which one will you choose?--><path d="M298.5,399.2011 C298.5,409.6917 298.5,423.4627 298.5,434.8176 " fill="none" id="a-to-Which one will you choose?" style="stroke: #0000FF; stroke-width: 1.0; stroke-dasharray: 1.0,3.0;"/><polygon fill="#0000FF" points="298.5,439.8442,302.5,430.8442,298.5,434.8442,294.5,430.8442,298.5,439.8442" style="stroke: #0000FF; stroke-width: 1.0;"/><!--MD5=[2d6d108dd7c8436de130d6362d5c6627]
@startuml
(*) - -> "Which character do you want to play the game with?"
if "" then
- -> [Character 1] "Noruso \n Stats:\n Programming: 1 \n Analytics: 4\n Communication 3 \n Partying: 2" as char1
else
- -> [Character 2] "Lumati \n Stats:\n Programming: 4 \n Analytics: 3\n Communication 1 \n Partying: 0" as char2
else
- -> [Character 3] "Turgal \n Stats:\n Programming: 2 \n Analytics: 2\n Communication 2 \n Partying: 2" as char3
else
- -> [Character 4] "Kirogh \n Stats:\n Programming: 1 \n Analytics: 0\n Communication 2 \n Partying: 5" as char4


- -> "You are still missing an elective subject at the end of your studies." as a
char1 - -> a
char2 - -> a
char3 - -> a

a-[#blue,dotted]-> "Which one will you choose?"
@enduml

PlantUML version 1.2020.20beta13(Unknown compile time)
(GPL source distribution)
Java Runtime: Java(TM) SE Runtime Environment
JVM: Java HotSpot(TM) 64-Bit Server VM
Default Encoding: UTF-8
Language: en
Country: US
--></g></svg>