<?xml version="1.0" encoding="UTF-8" standalone="no"?><svg xmlns="http://www.w3.org/2000/svg" xmlns:xlink="http://www.w3.org/1999/xlink" contentScriptType="application/ecmascript" contentStyleType="text/css" height="396px" preserveAspectRatio="none" style="width:676px;height:396px;" version="1.1" viewBox="0 0 676 396" width="676px" zoomAndPan="magnify"><defs><filter height="300%" id="f10irn0guuv6tv" width="300%" x="-1" y="-1"><feGaussianBlur result="blurOut" stdDeviation="2.0"/><feColorMatrix in="blurOut" result="blurOut2" type="matrix" values="0 0 0 0 0 0 0 0 0 0 0 0 0 0 0 0 0 0 .4 0"/><feOffset dx="4.0" dy="4.0" in="blurOut2" result="blurOut3"/><feBlend in="SourceGraphic" in2="blurOut3" mode="normal"/></filter></defs><g><ellipse cx="410.5" cy="16" fill="#000000" filter="url(#f10irn0guuv6tv)" rx="10" ry="10" style="stroke: none; stroke-width: 1.0;"/><rect fill="#FEFECE" filter="url(#f10irn0guuv6tv)" height="33.9688" rx="12.5" ry="12.5" style="stroke: #A80036; stroke-width: 1.5;" width="291" x="265" y="67"/><text fill="#000000" font-family="sans-serif" font-size="12" lengthAdjust="spacingAndGlyphs" textLength="271" x="275" y="88.1387">You are at the party what do you want to do?</text><polygon fill="#FEFECE" filter="url(#f10irn0guuv6tv)" points="410.5,142,422.5,154,410.5,166,398.5,154,410.5,142" style="stroke: #A80036; stroke-width: 1.5;"/><rect fill="#FEFECE" filter="url(#f10irn0guuv6tv)" height="61.9063" rx="12.5" ry="12.5" style="stroke: #A80036; stroke-width: 1.5;" width="267" x="7" y="246"/><text fill="#000000" font-family="sans-serif" font-size="12" lengthAdjust="spacingAndGlyphs" textLength="239" x="19" y="267.1387">Your colleagues will give you a few tips</text><text fill="#000000" font-family="sans-serif" font-size="12" lengthAdjust="spacingAndGlyphs" textLength="239" x="21" y="281.1074">and you will receive the following stats:</text><text fill="#000000" font-family="sans-serif" font-size="12" lengthAdjust="spacingAndGlyphs" textLength="103" x="91" y="295.0762">+2 programming</text><rect fill="#FEFECE" filter="url(#f10irn0guuv6tv)" height="47.9375" rx="12.5" ry="12.5" style="stroke: #A80036; stroke-width: 1.5;" width="232" x="294.5" y="253"/><text fill="#000000" font-family="sans-serif" font-size="12" lengthAdjust="spacingAndGlyphs" textLength="212" x="304.5" y="274.1387">You enable additional dialog option</text><text fill="#000000" font-family="sans-serif" font-size="12" lengthAdjust="spacingAndGlyphs" textLength="113" x="356" y="288.1074">for later decisions.</text><rect fill="#FEFECE" filter="url(#f10irn0guuv6tv)" height="33.9688" rx="12.5" ry="12.5" style="stroke: #A80036; stroke-width: 1.5;" width="440" x="190.5" y="349"/><text fill="#000000" font-family="sans-serif" font-size="12" lengthAdjust="spacingAndGlyphs" textLength="420" x="200.5" y="370.1387">You are thirsty and want to get something to drink, what do you take?</text><!--MD5=[0fd832148cae7bd702b162ebcee39c7c]
link start to You are at the party what do you want to do?--><path d="M410.5,26.177 C410.5,35.269 410.5,49.527 410.5,61.485 " fill="none" id="start-to-You are at the party what do you want to do?" style="stroke: #A80036; stroke-width: 1.0;"/><polygon fill="#A80036" points="410.5,66.791,414.5,57.791,410.5,61.791,406.5,57.791,410.5,66.791" style="stroke: #A80036; stroke-width: 1.0;"/><!--MD5=[1f29063d47fbdc79a57355ccd9721ac8]
link You are at the party what do you want to do? to #1374--><path d="M410.5,101.115 C410.5,111.916 410.5,126.082 410.5,136.883 " fill="none" id="You are at the party what do you want to do?-to-#1374" style="stroke: #A80036; stroke-width: 1.0;"/><polygon fill="#A80036" points="410.5,141.885,414.5,132.885,410.5,136.885,406.5,132.885,410.5,141.885" style="stroke: #A80036; stroke-width: 1.0;"/><text fill="#000000" font-family="sans-serif" font-size="11" lengthAdjust="spacingAndGlyphs" textLength="0" x="409.525" y="131.4605"/><!--MD5=[6bc9ba8a365dc548c7edd157a26fa63b]
link #1374 to tipps--><path d="M400.436,156.259 C378.235,159.282 323.683,168.067 281.5,186 C246.745,200.775 210.915,223.763 184.071,242.808 " fill="none" id="#1374-to-tipps" style="stroke: #A80036; stroke-width: 1.0;"/><polygon fill="#A80036" points="179.842,245.828,189.4906,243.8518,183.9107,242.9218,184.8406,237.3419,179.842,245.828" style="stroke: #A80036; stroke-width: 1.0;"/><text fill="#000000" font-family="sans-serif" font-size="11" lengthAdjust="spacingAndGlyphs" textLength="45" x="319" y="203.7104">You talk</text><text fill="#000000" font-family="sans-serif" font-size="11" lengthAdjust="spacingAndGlyphs" textLength="118" x="286.5" y="216.5151">with your colleagues</text><!--MD5=[2bbd69a6ded661efc9bf7f68844c40c4]
link #1374 to ent--><path d="M410.5,166.167 C410.5,184.596 410.5,221.922 410.5,247.917 " fill="none" id="#1374-to-ent" style="stroke: #A80036; stroke-width: 1.0;"/><polygon fill="#A80036" points="410.5,252.956,414.5,243.956,410.5,247.956,406.5,243.956,410.5,252.956" style="stroke: #A80036; stroke-width: 1.0;"/><text fill="#000000" font-family="sans-serif" font-size="11" lengthAdjust="spacingAndGlyphs" textLength="45" x="439.5" y="197.2104">You talk</text><text fill="#000000" font-family="sans-serif" font-size="11" lengthAdjust="spacingAndGlyphs" textLength="97" x="415.5" y="210.0151">with your mentor</text><text fill="#000000" font-family="sans-serif" font-size="11" lengthAdjust="spacingAndGlyphs" textLength="80" x="426" y="222.8198">and your boss</text><!--MD5=[a80ce052d3d85f9c8899ab7bd8c87f79]
link #1374 to alc--><path d="M421.906,154.607 C444.531,154.488 495.254,157.619 522.5,186 C560.297,225.372 566.089,262.139 536.5,308 C524.861,326.0406 505.979,338.4326 486.334,346.921 " fill="none" id="#1374-to-alc" style="stroke: #0000FF; stroke-width: 1.0; stroke-dasharray: 1.0,3.0;"/><polygon fill="#0000FF" points="481.328,348.9961,491.1737,349.2457,485.9471,347.0819,488.1109,341.8552,481.328,348.9961" style="stroke: #0000FF; stroke-width: 1.0;"/><text fill="#000000" font-family="sans-serif" font-size="11" lengthAdjust="spacingAndGlyphs" textLength="86" x="569" y="274.7104">You find a seat</text><text fill="#000000" font-family="sans-serif" font-size="11" lengthAdjust="spacingAndGlyphs" textLength="109" x="559.5" y="287.5151">and sit by yourself.</text><!--MD5=[dda8178b6cadf3436a7273801314d56d]
link tipps to alc--><path d="M233.797,308.0623 C274.476,321.1699 320.756,336.0826 355.747,347.3573 " fill="none" id="tipps-to-alc" style="stroke: #0000FF; stroke-width: 1.0; stroke-dasharray: 1.0,3.0;"/><polygon fill="#0000FF" points="360.826,348.9938,353.4858,342.4272,356.0668,347.4609,351.0331,350.0419,360.826,348.9938" style="stroke: #0000FF; stroke-width: 1.0;"/><!--MD5=[644e201eb7e8db4088580c4e053760c8]
link ent to alc--><path d="M410.5,301.3144 C410.5,314.4387 410.5,330.7129 410.5,343.5247 " fill="none" id="ent-to-alc" style="stroke: #0000FF; stroke-width: 1.0; stroke-dasharray: 1.0,3.0;"/><polygon fill="#0000FF" points="410.5,348.7842,414.5,339.7842,410.5,343.7842,406.5,339.7842,410.5,348.7842" style="stroke: #0000FF; stroke-width: 1.0;"/><!--MD5=[a609eed3dfcc6e66e6a34441092a10e3]
@startuml
(*) - -> "You are at the party what do you want to do?"
if "" then 
- -> [You talk \n with your colleagues] "Your colleagues will give you a few tips \n and you will receive the following stats: \n +2 programming" as tipps
else 
- -> [You talk \n with your mentor \n and your boss] "You enable additional dialog option\n for later decisions." as ent

else
-[#blue,dotted]-> [You find a seat\n and sit by yourself.] "You are thirsty and want to get something to drink, what do you take?" as alc
tipps -[#blue,dotted]-> alc
ent -[#blue,dotted]-> alc


endif
@enduml

PlantUML version 1.2020.20beta13(Unknown compile time)
(GPL source distribution)
Java Runtime: Java(TM) SE Runtime Environment
JVM: Java HotSpot(TM) 64-Bit Server VM
Default Encoding: UTF-8
Language: en
Country: US
--></g></svg>