<?xml version="1.0" encoding="UTF-8" standalone="no"?><svg xmlns="http://www.w3.org/2000/svg" xmlns:xlink="http://www.w3.org/1999/xlink" contentScriptType="application/ecmascript" contentStyleType="text/css" height="411px" preserveAspectRatio="none" style="width:985px;height:411px;" version="1.1" viewBox="0 0 985 411" width="985px" zoomAndPan="magnify"><defs><filter height="300%" id="f1vfrzc3n47rnj" width="300%" x="-1" y="-1"><feGaussianBlur result="blurOut" stdDeviation="2.0"/><feColorMatrix in="blurOut" result="blurOut2" type="matrix" values="0 0 0 0 0 0 0 0 0 0 0 0 0 0 0 0 0 0 .4 0"/><feOffset dx="4.0" dy="4.0" in="blurOut2" result="blurOut3"/><feBlend in="SourceGraphic" in2="blurOut3" mode="normal"/></filter></defs><g><ellipse cx="475" cy="16" fill="#000000" filter="url(#f1vfrzc3n47rnj)" rx="10" ry="10" style="stroke: none; stroke-width: 1.0;"/><rect fill="#FEFECE" filter="url(#f1vfrzc3n47rnj)" height="33.9688" rx="12.5" ry="12.5" style="stroke: #A80036; stroke-width: 1.5;" width="114" x="418" y="67"/><text fill="#000000" font-family="sans-serif" font-size="12" lengthAdjust="spacingAndGlyphs" textLength="94" x="428" y="88.1387">Choose subject</text><polygon fill="#FEFECE" filter="url(#f1vfrzc3n47rnj)" points="475,142,487,154,475,166,463,154,475,142" style="stroke: #A80036; stroke-width: 1.5;"/><rect fill="#FEFECE" filter="url(#f1vfrzc3n47rnj)" height="89.8438" rx="12.5" ry="12.5" style="stroke: #A80036; stroke-width: 1.5;" width="226" x="7" y="233"/><text fill="#000000" font-family="sans-serif" font-size="12" lengthAdjust="spacingAndGlyphs" textLength="202" x="17" y="254.1387">You have successfully completed</text><text fill="#000000" font-family="sans-serif" font-size="12" lengthAdjust="spacingAndGlyphs" textLength="130" x="59" y="268.1074">your elective subject.</text><text fill="#000000" font-family="sans-serif" font-size="12" lengthAdjust="spacingAndGlyphs" textLength="112" x="64" y="282.0762">Your stats change:</text><text fill="#000000" font-family="sans-serif" font-size="12" lengthAdjust="spacingAndGlyphs" textLength="103" x="66.5" y="296.0449">+2 programming</text><text fill="#000000" font-family="sans-serif" font-size="12" lengthAdjust="spacingAndGlyphs" textLength="73" x="85.5" y="310.0137">+1 analytics</text><rect fill="#FEFECE" filter="url(#f1vfrzc3n47rnj)" height="89.8438" rx="12.5" ry="12.5" style="stroke: #A80036; stroke-width: 1.5;" width="226" x="253" y="233"/><text fill="#000000" font-family="sans-serif" font-size="12" lengthAdjust="spacingAndGlyphs" textLength="202" x="263" y="254.1387">You have successfully completed</text><text fill="#000000" font-family="sans-serif" font-size="12" lengthAdjust="spacingAndGlyphs" textLength="130" x="303" y="268.1074">your elective subject.</text><text fill="#000000" font-family="sans-serif" font-size="12" lengthAdjust="spacingAndGlyphs" textLength="112" x="310" y="282.0762">Your stats change:</text><text fill="#000000" font-family="sans-serif" font-size="12" lengthAdjust="spacingAndGlyphs" textLength="102" x="313" y="296.0449">+1 programming</text><text fill="#000000" font-family="sans-serif" font-size="12" lengthAdjust="spacingAndGlyphs" textLength="74" x="331" y="310.0137">+2 analytics</text><rect fill="#FEFECE" filter="url(#f1vfrzc3n47rnj)" height="75.875" rx="12.5" ry="12.5" style="stroke: #A80036; stroke-width: 1.5;" width="226" x="499" y="240"/><text fill="#000000" font-family="sans-serif" font-size="12" lengthAdjust="spacingAndGlyphs" textLength="202" x="509" y="261.1387">You have successfully completed</text><text fill="#000000" font-family="sans-serif" font-size="12" lengthAdjust="spacingAndGlyphs" textLength="130" x="549" y="275.1074">your elective subject.</text><text fill="#000000" font-family="sans-serif" font-size="12" lengthAdjust="spacingAndGlyphs" textLength="112" x="556" y="289.0762">Your stats change:</text><text fill="#000000" font-family="sans-serif" font-size="12" lengthAdjust="spacingAndGlyphs" textLength="74" x="575" y="303.0449">+3 analytics</text><rect fill="#FEFECE" filter="url(#f1vfrzc3n47rnj)" height="89.8438" rx="12.5" ry="12.5" style="stroke: #A80036; stroke-width: 1.5;" width="226" x="745" y="233"/><text fill="#000000" font-family="sans-serif" font-size="12" lengthAdjust="spacingAndGlyphs" textLength="202" x="755" y="254.1387">You have successfully completed</text><text fill="#000000" font-family="sans-serif" font-size="12" lengthAdjust="spacingAndGlyphs" textLength="130" x="795" y="268.1074">your elective subject.</text><text fill="#000000" font-family="sans-serif" font-size="12" lengthAdjust="spacingAndGlyphs" textLength="112" x="802" y="282.0762">Your stats change:</text><text fill="#000000" font-family="sans-serif" font-size="12" lengthAdjust="spacingAndGlyphs" textLength="73" x="819.5" y="296.0449">+1 analytics</text><text fill="#000000" font-family="sans-serif" font-size="12" lengthAdjust="spacingAndGlyphs" textLength="112" x="804" y="310.0137">+2 communication</text><rect fill="#FEFECE" filter="url(#f1vfrzc3n47rnj)" height="33.9688" rx="12.5" ry="12.5" style="stroke: #A80036; stroke-width: 1.5;" width="153" x="412.5" y="364"/><text fill="#000000" font-family="sans-serif" font-size="12" lengthAdjust="spacingAndGlyphs" textLength="133" x="422.5" y="385.1387">Extracurricular Activity</text><!--MD5=[f039b3644714cc3951f9c11efef3ef6f]
link start to Choose subject--><path d="M475,26.177 C475,35.269 475,49.527 475,61.485 " fill="none" id="start-to-Choose subject" style="stroke: #A80036; stroke-width: 1.0;"/><polygon fill="#A80036" points="475,66.791,479,57.791,475,61.791,471,57.791,475,66.791" style="stroke: #A80036; stroke-width: 1.0;"/><!--MD5=[ed172867ec3f898c40cf35aa8d106ed1]
link Choose subject to #1020001--><path d="M475,101.115 C475,111.916 475,126.082 475,136.883 " fill="none" id="Choose subject-to-#1020001" style="stroke: #A80036; stroke-width: 1.0;"/><polygon fill="#A80036" points="475,141.885,479,132.885,475,136.885,471,132.885,475,141.885" style="stroke: #A80036; stroke-width: 1.0;"/><text fill="#000000" font-family="sans-serif" font-size="11" lengthAdjust="spacingAndGlyphs" textLength="82" x="378.9063" y="118.7388">Which one will</text><text fill="#000000" font-family="sans-serif" font-size="11" lengthAdjust="spacingAndGlyphs" textLength="72" x="385.9063" y="131.5435">you choose?</text><!--MD5=[8acc6f584283e2a9e7e15129c390f4d6]
link #1020001 to bali--><path d="M464.79,156.005 C438.663,158.772 367.466,167.556 311,186 C275.392,197.631 237.842,214.437 205.549,230.449 " fill="none" id="#1020001-to-bali" style="stroke: #A80036; stroke-width: 1.0;"/><polygon fill="#A80036" points="200.823,232.805,210.6622,232.3691,205.2977,230.5741,207.0927,225.2096,200.823,232.805" style="stroke: #A80036; stroke-width: 1.0;"/><text fill="#000000" font-family="sans-serif" font-size="11" lengthAdjust="spacingAndGlyphs" textLength="106" x="312" y="203.7104">Introduction to Bali</text><!--MD5=[afbfe713e9680f46baa6c4e60500931f]
link #1020001 to re--><path d="M469.743,160.884 C458.718,173.224 432.259,202.838 408.824,229.069 " fill="none" id="#1020001-to-re" style="stroke: #A80036; stroke-width: 1.0;"/><polygon fill="#A80036" points="405.39,232.912,414.3693,228.8658,408.7214,229.1835,408.4037,223.5356,405.39,232.912" style="stroke: #A80036; stroke-width: 1.0;"/><text fill="#000000" font-family="sans-serif" font-size="11" lengthAdjust="spacingAndGlyphs" textLength="80" x="446" y="197.2104">Requirements</text><text fill="#000000" font-family="sans-serif" font-size="11" lengthAdjust="spacingAndGlyphs" textLength="68" x="452" y="210.0151">Engineering</text><!--MD5=[9bfef2cb79c623d8d73fe3492843d1b4]
link #1020001 to esa--><path d="M482.899,158.229 C494.413,163.161 516.156,173.347 532,186 C549.881,200.279 567.011,218.855 580.799,235.496 " fill="none" id="#1020001-to-esa" style="stroke: #A80036; stroke-width: 1.0;"/><polygon fill="#A80036" points="584.231,239.682,581.6189,230.1858,581.0612,235.8151,575.4319,235.2575,584.231,239.682" style="stroke: #A80036; stroke-width: 1.0;"/><text fill="#000000" font-family="sans-serif" font-size="11" lengthAdjust="spacingAndGlyphs" textLength="81" x="583.5" y="197.2104">Introduction to</text><text fill="#000000" font-family="sans-serif" font-size="11" lengthAdjust="spacingAndGlyphs" textLength="130" x="563" y="210.0151">Software Architectures</text><!--MD5=[f96847d635d703688754215d0da73b0f]
link #1020001 to usf--><path d="M486.063,155.058 C519.265,155.54 620.597,159.261 699,186 C730.432,196.72 762.674,213.833 789.837,230.342 " fill="none" id="#1020001-to-usf" style="stroke: #A80036; stroke-width: 1.0;"/><polygon fill="#A80036" points="794.152,232.985,788.5671,224.8728,789.8884,230.3731,784.3881,231.6945,794.152,232.985" style="stroke: #A80036; stroke-width: 1.0;"/><text fill="#000000" font-family="sans-serif" font-size="11" lengthAdjust="spacingAndGlyphs" textLength="65" x="767" y="197.2104">Usability as</text><text fill="#000000" font-family="sans-serif" font-size="11" lengthAdjust="spacingAndGlyphs" textLength="81" x="759" y="210.0151">success factor</text><!--MD5=[2c8d98aa9682725eda1cc1810921da5e]
link usf to nextDecision--><path d="M744.896,320.0162 C741.568,321.0443 738.264,322.0415 735,323 C680.709,338.942 618.632,353.2978 570.42,363.6144 " fill="none" id="usf-to-nextDecision" style="stroke: #0000FF; stroke-width: 1.0; stroke-dasharray: 1.0,3.0;"/><polygon fill="#0000FF" points="565.502,364.663,575.1384,366.6979,570.392,363.6201,573.4698,358.8738,565.502,364.663" style="stroke: #0000FF; stroke-width: 1.0;"/><!--MD5=[b1d61d023987ac0be50c0c66f259f3c3]
link re to nextDecision--><path d="M419.592,323.0063 C435.667,336.2063 452.475,350.0082 465.525,360.7235 " fill="none" id="re-to-nextDecision" style="stroke: #0000FF; stroke-width: 1.0; stroke-dasharray: 1.0,3.0;"/><polygon fill="#0000FF" points="469.449,363.9457,465.0315,355.1431,465.5847,360.7728,459.9549,361.326,469.449,363.9457" style="stroke: #0000FF; stroke-width: 1.0;"/><!--MD5=[b8dd17e6810b9d3183e990bbb9950bc3]
link bali to nextDecision--><path d="M233.104,320.0162 C236.432,321.0443 239.736,322.0415 243,323 C297.291,338.942 359.368,353.2978 407.58,363.6144 " fill="none" id="bali-to-nextDecision" style="stroke: #0000FF; stroke-width: 1.0; stroke-dasharray: 1.0,3.0;"/><polygon fill="#0000FF" points="412.498,364.663,404.5302,358.8738,407.608,363.6201,402.8616,366.6979,412.498,364.663" style="stroke: #0000FF; stroke-width: 1.0;"/><!--MD5=[b5a77f3a135dae0b517a9739f6dd3b32]
link esa to nextDecision--><path d="M566.898,316.0352 C548.598,331.0619 528.208,347.8044 512.881,360.3904 " fill="none" id="esa-to-nextDecision" style="stroke: #0000FF; stroke-width: 1.0; stroke-dasharray: 1.0,3.0;"/><polygon fill="#0000FF" points="508.698,363.8251,518.192,361.2052,512.5622,360.6522,513.1153,355.0224,508.698,363.8251" style="stroke: #0000FF; stroke-width: 1.0;"/><!--MD5=[1021153390766d2f61ab295047c37b6a]
@startuml
(*) - -> "Choose subject"
if "Which one will\n you choose?" then
- -> [Introduction to Bali] "You have successfully completed \n  your elective subject.\n Your stats change: \n+2 programming \n +1 analytics" as bali
else
- -> [Requirements\nEngineering] "You have successfully completed \n your elective subject.\n Your stats change: \n+1 programming \n +2 analytics" as re
else
- -> [Introduction to \n Software Architectures] "You have successfully completed \n your elective subject.\n Your stats change: \n+3 analytics" as esa
else
- -> [Usability as\nsuccess factor] "You have successfully completed \n your elective subject.\n Your stats change: \n+1 analytics \n +2 communication" as usf

usf -[#blue,dotted]-> "Extracurricular Activity" as nextDecision
re -[#blue,dotted]-> nextDecision
bali -[#blue,dotted]-> nextDecision
esa -[#blue,dotted]-> nextDecision
@enduml

PlantUML version 1.2020.20beta13(Unknown compile time)
(GPL source distribution)
Java Runtime: Java(TM) SE Runtime Environment
JVM: Java HotSpot(TM) 64-Bit Server VM
Default Encoding: UTF-8
Language: en
Country: US
--></g></svg>