<?xml version="1.0" encoding="UTF-8" standalone="no"?>
<svg xmlns="http://www.w3.org/2000/svg" xmlns:xlink="http://www.w3.org/1999/xlink" contentScriptType="application/ecmascript" contentStyleType="text/css" height="807px" preserveAspectRatio="none" style="width:887px;height:807px;" version="1.1" viewBox="0 0 887 807" width="887px" zoomAndPan="magnify"><defs><filter height="300%" id="feqcsx3bf118t" width="300%" x="-1" y="-1"><feGaussianBlur result="blurOut" stdDeviation="2.0"/><feColorMatrix in="blurOut" result="blurOut2" type="matrix" values="0 0 0 0 0 0 0 0 0 0 0 0 0 0 0 0 0 0 .4 0"/><feOffset dx="4.0" dy="4.0" in="blurOut2" result="blurOut3"/><feBlend in="SourceGraphic" in2="blurOut3" mode="normal"/></filter></defs><g><ellipse cx="341" cy="16" fill="#000000" filter="url(#feqcsx3bf118t)" rx="10" ry="10" style="stroke: none; stroke-width: 1.0;"/><rect fill="#FEFECE" filter="url(#feqcsx3bf118t)" height="33.9688" rx="12.5" ry="12.5" style="stroke: #A80036; stroke-width: 1.5;" width="325" x="178.5" y="67"/><text fill="#000000" font-family="sans-serif" font-size="12" lengthAdjust="spacingAndGlyphs" textLength="305" x="188.5" y="88.1387">You are thirsty and want to get something to drink.</text><polygon fill="#FEFECE" filter="url(#feqcsx3bf118t)" points="341,142,353,154,341,166,329,154,341,142" style="stroke: #A80036; stroke-width: 1.5;"/><rect fill="#FEFECE" filter="url(#feqcsx3bf118t)" height="61.9063" rx="12.5" ry="12.5" style="stroke: #A80036; stroke-width: 1.5;" width="194" x="7" y="233"/><text fill="#000000" font-family="sans-serif" font-size="12" lengthAdjust="spacingAndGlyphs" textLength="174" x="17" y="254.1387">You got through the evening.</text><text fill="#000000" font-family="sans-serif" font-size="12" lengthAdjust="spacingAndGlyphs" textLength="112" x="50" y="268.1074">Your stats change:</text><text fill="#000000" font-family="sans-serif" font-size="12" lengthAdjust="spacingAndGlyphs" textLength="70" x="71" y="282.0762">+1 partying</text><rect fill="#FEFECE" filter="url(#feqcsx3bf118t)" height="33.9688" rx="12.5" ry="12.5" style="stroke: #A80036; stroke-width: 1.5;" width="142" x="479" y="247"/><text fill="#000000" font-family="sans-serif" font-size="12" lengthAdjust="spacingAndGlyphs" textLength="122" x="489" y="268.1387">You drink two shots.</text><polygon fill="#FEFECE" filter="url(#feqcsx3bf118t)" points="550,336,562,348,550,360,538,348,550,336" style="stroke: #A80036; stroke-width: 1.5;"/><polygon fill="#FEFECE" filter="url(#feqcsx3bf118t)" points="549,414,561,426,549,438,537,426,549,414" style="stroke: #A80036; stroke-width: 1.5;"/><rect fill="#FEFECE" filter="url(#feqcsx3bf118t)" height="103.8125" rx="12.5" ry="12.5" style="stroke: #A80036; stroke-width: 1.5;" width="262" x="135" y="540"/><text fill="#000000" font-family="sans-serif" font-size="12" lengthAdjust="spacingAndGlyphs" textLength="238" x="145" y="561.1387">Due to your excellent party experience</text><text fill="#000000" font-family="sans-serif" font-size="12" lengthAdjust="spacingAndGlyphs" textLength="126" x="203" y="575.1074">you are able to drink</text><text fill="#000000" font-family="sans-serif" font-size="12" lengthAdjust="spacingAndGlyphs" textLength="128" x="202" y="589.0762">and survive the party</text><text fill="#000000" font-family="sans-serif" font-size="12" lengthAdjust="spacingAndGlyphs" textLength="133" x="199.5" y="603.0449">without creating a stir.</text><text fill="#000000" font-family="sans-serif" font-size="12" lengthAdjust="spacingAndGlyphs" textLength="108" x="212" y="617.0137">Your stats change</text><text fill="#000000" font-family="sans-serif" font-size="12" lengthAdjust="spacingAndGlyphs" textLength="71" x="232.5" y="630.9824">+3 partying</text><rect fill="#FEFECE" filter="url(#feqcsx3bf118t)" height="103.8125" rx="12.5" ry="12.5" style="stroke: #A80036; stroke-width: 1.5;" width="283" x="417.5" y="540"/><text fill="#000000" font-family="sans-serif" font-size="12" lengthAdjust="spacingAndGlyphs" textLength="259" x="427.5" y="561.1387">You bring a good atmosphere to the party,</text><text fill="#000000" font-family="sans-serif" font-size="12" lengthAdjust="spacingAndGlyphs" textLength="224" x="447" y="575.1074">but your mentor and boss notice you</text><text fill="#000000" font-family="sans-serif" font-size="12" lengthAdjust="spacingAndGlyphs" textLength="247" x="437.5" y="589.0762">negatively, because you are quite drunk.</text><text fill="#000000" font-family="sans-serif" font-size="12" lengthAdjust="spacingAndGlyphs" textLength="112" x="503" y="603.0449">Your stats change:</text><text fill="#000000" font-family="sans-serif" font-size="12" lengthAdjust="spacingAndGlyphs" textLength="71" x="523.5" y="617.0137">+3 partying</text><text fill="#000000" font-family="sans-serif" font-size="12" lengthAdjust="spacingAndGlyphs" textLength="107" x="507.5" y="630.9824">-2 communication</text><rect fill="#FEFECE" filter="url(#feqcsx3bf118t)" height="61.9063" rx="12.5" ry="12.5" style="stroke: #A80036; stroke-width: 1.5;" width="282" x="591" y="458"/><text fill="#000000" font-family="sans-serif" font-size="12" lengthAdjust="spacingAndGlyphs" textLength="258" x="601" y="479.1387">You bring a good atmosphere to the party.</text><text fill="#000000" font-family="sans-serif" font-size="12" lengthAdjust="spacingAndGlyphs" textLength="112" x="678" y="493.1074">Your stats change:</text><text fill="#000000" font-family="sans-serif" font-size="12" lengthAdjust="spacingAndGlyphs" textLength="71" x="698.5" y="507.0762">+2 partying</text><rect fill="#FEFECE" filter="url(#feqcsx3bf118t)" height="33.9688" rx="12.5" ry="12.5" style="stroke: #A80036; stroke-width: 1.5;" width="236" x="261" y="685"/><text fill="#000000" font-family="sans-serif" font-size="12" lengthAdjust="spacingAndGlyphs" textLength="216" x="271" y="706.1387">The party is over and you go home.</text><rect fill="#FEFECE" filter="url(#feqcsx3bf118t)" height="33.9688" rx="12.5" ry="12.5" style="stroke: #A80036; stroke-width: 1.5;" width="265" x="246.5" y="760"/><text fill="#000000" font-family="sans-serif" font-size="12" lengthAdjust="spacingAndGlyphs" textLength="245" x="256.5" y="781.1387">A voluntary training course is coming up.</text><!--MD5=[37fb5b6f3f3c766445f07e95ea6f36a8]
link start to You are thirsty and want to get something to drink.--><path d="M341,26.177 C341,35.269 341,49.527 341,61.485 " fill="none" id="start-to-You are thirsty and want to get something to drink." style="stroke: #A80036; stroke-width: 1.0;"/><polygon fill="#A80036" points="341,66.791,345,57.791,341,61.791,337,57.791,341,66.791" style="stroke: #A80036; stroke-width: 1.0;"/><!--MD5=[65a524c6446b635f2608df45c3eb52c2]
link You are thirsty and want to get something to drink. to #122932--><path d="M341,101.115 C341,111.916 341,126.082 341,136.883 " fill="none" id="You are thirsty and want to get something to drink.-to-#122932" style="stroke: #A80036; stroke-width: 1.0;"/><polygon fill="#A80036" points="341,141.885,345,132.885,341,136.885,337,132.885,341,141.885" style="stroke: #A80036; stroke-width: 1.0;"/><text fill="#000000" font-family="sans-serif" font-size="11" lengthAdjust="spacingAndGlyphs" textLength="107" x="214.2719" y="133.5639">What do you take?</text><!--MD5=[46db927669279f8ca52afe9816ea5773]
link #122932 to lightParty--><path d="M329.409,154.607 C285.878,153.403 133.108,151.717 103,186 C93.2574,197.094 92.1067,212.946 93.9481,227.386 " fill="none" id="#122932-to-lightParty" style="stroke: #A80036; stroke-width: 1.0;"/><polygon fill="#A80036" points="94.7515,232.631,97.3425,223.1291,93.9944,227.6887,89.4348,224.3405,94.7515,232.631" style="stroke: #A80036; stroke-width: 1.0;"/><text fill="#000000" font-family="sans-serif" font-size="11" lengthAdjust="spacingAndGlyphs" textLength="211" x="104" y="203.7104">One beer is enough for the evening.</text><!--MD5=[46db927669279f8ca52afe9816ea5773]
link #122932 to lightParty--><path d="M339.715,164.813 C337.477,177.822 331.613,200.578 317,213 C299.687,227.716 252.035,239.598 206.182,248.08 " fill="none" id="#122932-to-lightParty-1" style="stroke: #A80036; stroke-width: 1.0;"/><polygon fill="#A80036" points="201.179,248.994,210.7513,251.3114,206.0976,248.0954,209.3136,243.4417,201.179,248.994" style="stroke: #A80036; stroke-width: 1.0;"/><text fill="#000000" font-family="sans-serif" font-size="11" lengthAdjust="spacingAndGlyphs" textLength="182" x="336" y="203.7104">One coke is perfectly sufficient.</text><!--MD5=[6c3b83698c35aecbc602e8cff836ac1b]
link #122932 to You drink two shots.--><path d="M351.686,155.36 C387.062,156.763 499.619,162.986 526,186 C541.874,199.848 547.379,224.01 549.22,241.583 " fill="none" id="#122932-to-You drink two shots." style="stroke: #A80036; stroke-width: 1.0;"/><polygon fill="#A80036" points="549.681,246.807,552.8736,237.49,549.2411,241.8264,544.9046,238.1938,549.681,246.807" style="stroke: #A80036; stroke-width: 1.0;"/><text fill="#000000" font-family="sans-serif" font-size="11" lengthAdjust="spacingAndGlyphs" textLength="170" x="607.5" y="197.2104">A few Tequilla shots will do it,</text><text fill="#000000" font-family="sans-serif" font-size="11" lengthAdjust="spacingAndGlyphs" textLength="303" x="543" y="210.0151">after all it's for free, you should take advantage of it.</text><!--MD5=[e2eb722bc8f9527ddf153fc0e3d7d729]
link You drink two shots. to #122940--><path d="M550,281.201 C550,295.375 550,315.884 550,330.226 " fill="none" id="You drink two shots.-to-#122940" style="stroke: #A80036; stroke-width: 1.0;"/><polygon fill="#A80036" points="550,335.582,554,326.582,550,330.582,546,326.582,550,335.582" style="stroke: #A80036; stroke-width: 1.0;"/><text fill="#000000" font-family="sans-serif" font-size="11" lengthAdjust="spacingAndGlyphs" textLength="87" x="434.6094" y="312.6393">Do you want to</text><text fill="#000000" font-family="sans-serif" font-size="11" lengthAdjust="spacingAndGlyphs" textLength="101" x="431.6094" y="325.444">drink more shots?</text><!--MD5=[d109377d1a9a42c3e9a2041fef02d8b0]
link #122940 to drink--><path d="M549.573,359.615 C549.353,365.6 549.109,373.216 549,380 C548.846,389.574 548.839,400.295 548.874,408.871 " fill="none" id="#122940-to-drink" style="stroke: #A80036; stroke-width: 1.0;"/><polygon fill="#A80036" points="548.9,413.903,552.8511,404.8814,548.8729,408.9031,544.8512,404.9248,548.9,413.903" style="stroke: #A80036; stroke-width: 1.0;"/><text fill="#000000" font-family="sans-serif" font-size="11" lengthAdjust="spacingAndGlyphs" textLength="156" x="550" y="391.2104">You drink a few more shots</text><text fill="#000000" font-family="sans-serif" font-size="11" lengthAdjust="spacingAndGlyphs" textLength="132" x="396.6569" y="406.6945">partying + dice roll &gt; 8</text><!--MD5=[2ee33e5151cd48a3e28d80fc7ff64939]
link drink to goodEnd--><path d="M542.004,431.054 C516.852,445.63 428.789,496.663 358.816,537.213 " fill="none" id="drink-to-goodEnd" style="stroke: #A80036; stroke-width: 1.0;"/><polygon fill="#A80036" points="354.234,539.868,364.0265,538.8157,358.5599,537.3607,360.0149,531.8942,354.234,539.868" style="stroke: #A80036; stroke-width: 1.0;"/><text fill="#000000" font-family="sans-serif" font-size="11" lengthAdjust="spacingAndGlyphs" textLength="23" x="495" y="493.2104">true</text><!--MD5=[4a26c0a2a26ba39fb655c1bbc6cc3fe6]
link drink to badEnd--><path d="M548.914,438.181 C548.852,455.66 549.026,490.512 551,520 C551.323,524.827 551.734,529.831 552.197,534.846 " fill="none" id="drink-to-badEnd" style="stroke: #A80036; stroke-width: 1.0;"/><polygon fill="#A80036" points="552.677,539.859,555.8025,530.5192,552.2013,534.8817,547.8388,531.2804,552.677,539.859" style="stroke: #A80036; stroke-width: 1.0;"/><text fill="#000000" font-family="sans-serif" font-size="11" lengthAdjust="spacingAndGlyphs" textLength="28" x="552" y="493.2104">false</text><!--MD5=[37756dbd4bac6f89069e983b297697a0]
link #122940 to You bring a good atmosphere to the party. \n Your stats change:\n +2 partying--><path d="M560.518,349.599 C592.354,351.629 686.788,359.311 708,380 C727.047,398.578 732.508,428.673 733.509,452.381 " fill="none" id="#122940-to-You bring a good atmosphere to the party. \n Your stats change:\n +2 partying" style="stroke: #A80036; stroke-width: 1.0;"/><polygon fill="#A80036" points="733.664,457.643,737.3974,448.5292,733.5168,452.6452,729.4008,448.7646,733.664,457.643" style="stroke: #A80036; stroke-width: 1.0;"/><text fill="#000000" font-family="sans-serif" font-size="11" lengthAdjust="spacingAndGlyphs" textLength="154" x="719" y="391.2104">No, 2 are enough for today</text><!--MD5=[68e1d1fd5e1455dd8b736e42e433260d]
link You bring a good atmosphere to the party. \n Your stats change:\n +2 partying to home--><path d="M737.389,520.214 C741.693,554.929 742.591,611.3 711,644 C682.372,673.633 584.677,687.913 502.619,694.7646 " fill="none" id="You bring a good atmosphere to the party. \n Your stats change:\n +2 partying-to-home" style="stroke: #A80036; stroke-width: 1.0;"/><polygon fill="#A80036" points="497.238,695.2052,506.5348,698.4564,502.2213,694.7966,505.881,690.4831,497.238,695.2052" style="stroke: #A80036; stroke-width: 1.0;"/><!--MD5=[8d94ca630304b806a4e8c4fe4d90a3a5]
link badEnd to home--><path d="M473.744,644.154 C451.127,657.724 428.108,671.535 410.424,682.145 " fill="none" id="badEnd-to-home" style="stroke: #A80036; stroke-width: 1.0;"/><polygon fill="#A80036" points="406.047,684.772,415.8223,683.5706,410.3342,682.1991,411.7057,676.711,406.047,684.772" style="stroke: #A80036; stroke-width: 1.0;"/><!--MD5=[f4fe7437719df02c534d41fe5fb46e16]
link lightParty to home--><path d="M104,295.375 C104,310.831 104,329.917 104,347 C104,347 104,347 104,593 C104,617.513 106.2588,628.199 125,644 C145.46,661.25 201.349,674.738 255.509,684.254 " fill="none" id="lightParty-to-home" style="stroke: #A80036; stroke-width: 1.0;"/><polygon fill="#A80036" points="260.743,685.162,252.5586,679.6833,255.8165,684.3078,251.192,687.5657,260.743,685.162" style="stroke: #A80036; stroke-width: 1.0;"/><!--MD5=[516670722ccd23130a82a9c66eba9461]
link goodEnd to home--><path d="M319.522,644.154 C333.239,657.264 347.192,670.599 358.132,681.056 " fill="none" id="goodEnd-to-home" style="stroke: #A80036; stroke-width: 1.0;"/><polygon fill="#A80036" points="362.021,684.772,358.2784,675.662,358.4064,681.3174,352.751,681.4454,362.021,684.772" style="stroke: #A80036; stroke-width: 1.0;"/><!--MD5=[0a28c061adde404286524750abc21cd3]
link home to A voluntary training course is coming up.--><path d="M379,719.2011 C379,729.6917 379,743.4627 379,754.8176 " fill="none" id="home-to-A voluntary training course is coming up." style="stroke: #0000FF; stroke-width: 1.0; stroke-dasharray: 1.0,3.0;"/><polygon fill="#0000FF" points="379,759.8442,383,750.8442,379,754.8442,375,750.8442,379,759.8442" style="stroke: #0000FF; stroke-width: 1.0;"/><!--MD5=[61db55f58c4022c8c0c7188b0b1b938b]
@startuml
(*) - -> "You are thirsty and want to get something to drink."
if "What do you take?" then 
- -> [One beer is enough for the evening.] "You got through the evening.\n Your stats change:\n +1 partying" as lightParty
else 
- -> [One coke is perfectly sufficient.] lightParty
else 
- ->[A few Tequilla shots will do it, \nafter all it's for free, you should take advantage of it.] "You drink two shots."
if "Do you want to \n drink more shots?" then 
- -> [You drink a few more shots] if "partying + dice roll > 8" as drink then 
- -> [true] "Due to your excellent party experience \n you are able to drink \n and survive the party \n without creating a stir. \n Your stats change \n +3 partying" as goodEnd
else 
- -> [false] "You bring a good atmosphere to the party, \n but your mentor and boss notice you \n negatively, because you are quite drunk.\n Your stats change: \n +3 partying \n -2 communication" as badEnd
endif
else 
- -> [No, 2 are enough for today] "You bring a good atmosphere to the party. \n Your stats change:\n +2 partying"
endif
- -> "The party is over and you go home." as home
badEnd - -> home
lightParty - -> home
goodEnd - -> home
-[#blue,dotted]-> "A voluntary training course is coming up."
@enduml

PlantUML version 1.2020.20beta13(Unknown compile time)
(GPL source distribution)
Java Runtime: Java(TM) SE Runtime Environment
JVM: Java HotSpot(TM) 64-Bit Server VM
Default Encoding: UTF-8
Language: en
Country: US
--></g></svg>