<?xml version="1.0" encoding="UTF-8" standalone="no"?><svg xmlns="http://www.w3.org/2000/svg" xmlns:xlink="http://www.w3.org/1999/xlink" contentScriptType="application/ecmascript" contentStyleType="text/css" height="369px" preserveAspectRatio="none" style="width:795px;height:369px;" version="1.1" viewBox="0 0 795 369" width="795px" zoomAndPan="magnify"><defs><filter height="300%" id="f1941z91lfjcuw" width="300%" x="-1" y="-1"><feGaussianBlur result="blurOut" stdDeviation="2.0"/><feColorMatrix in="blurOut" result="blurOut2" type="matrix" values="0 0 0 0 0 0 0 0 0 0 0 0 0 0 0 0 0 0 .4 0"/><feOffset dx="4.0" dy="4.0" in="blurOut2" result="blurOut3"/><feBlend in="SourceGraphic" in2="blurOut3" mode="normal"/></filter></defs><g><ellipse cx="381" cy="16" fill="#000000" filter="url(#f1941z91lfjcuw)" rx="10" ry="10" style="stroke: none; stroke-width: 1.0;"/><rect fill="#FEFECE" filter="url(#f1941z91lfjcuw)" height="33.9688" rx="12.5" ry="12.5" style="stroke: #A80036; stroke-width: 1.5;" width="187" x="287.5" y="67"/><text fill="#000000" font-family="sans-serif" font-size="12" lengthAdjust="spacingAndGlyphs" textLength="167" x="297.5" y="88.1387">Which one will you choose?</text><polygon fill="#FEFECE" filter="url(#f1941z91lfjcuw)" points="381,142,393,154,381,166,369,154,381,142" style="stroke: #A80036; stroke-width: 1.5;"/><rect fill="#FEFECE" filter="url(#f1941z91lfjcuw)" height="47.9375" rx="12.5" ry="12.5" style="stroke: #A80036; stroke-width: 1.5;" width="127" x="118.5" y="233"/><text fill="#000000" font-family="sans-serif" font-size="12" lengthAdjust="spacingAndGlyphs" textLength="103" x="128.5" y="254.1387">+2 programming</text><text fill="#000000" font-family="sans-serif" font-size="12" lengthAdjust="spacingAndGlyphs" textLength="73" x="147.5" y="268.1074">+1 analytics</text><rect fill="#FEFECE" filter="url(#f1941z91lfjcuw)" height="47.9375" rx="12.5" ry="12.5" style="stroke: #A80036; stroke-width: 1.5;" width="126" x="266" y="233"/><text fill="#000000" font-family="sans-serif" font-size="12" lengthAdjust="spacingAndGlyphs" textLength="102" x="276" y="254.1387">+1 programming</text><text fill="#000000" font-family="sans-serif" font-size="12" lengthAdjust="spacingAndGlyphs" textLength="74" x="294" y="268.1074">+2 analytics</text><rect fill="#FEFECE" filter="url(#f1941z91lfjcuw)" height="33.9688" rx="12.5" ry="12.5" style="stroke: #A80036; stroke-width: 1.5;" width="94" x="412" y="240"/><text fill="#000000" font-family="sans-serif" font-size="12" lengthAdjust="spacingAndGlyphs" textLength="74" x="422" y="261.1387">+3 analytics</text><rect fill="#FEFECE" filter="url(#f1941z91lfjcuw)" height="47.9375" rx="12.5" ry="12.5" style="stroke: #A80036; stroke-width: 1.5;" width="136" x="527" y="233"/><text fill="#000000" font-family="sans-serif" font-size="12" lengthAdjust="spacingAndGlyphs" textLength="73" x="556.5" y="254.1387">+1 analytics</text><text fill="#000000" font-family="sans-serif" font-size="12" lengthAdjust="spacingAndGlyphs" textLength="112" x="541" y="268.1074">+2 communication</text><rect fill="#FEFECE" filter="url(#f1941z91lfjcuw)" height="33.9688" rx="12.5" ry="12.5" style="stroke: #A80036; stroke-width: 1.5;" width="774" x="7" y="322"/><text fill="#000000" font-family="sans-serif" font-size="12" lengthAdjust="spacingAndGlyphs" textLength="754" x="17" y="343.1387">After completing the elective, you can enjoy your free time, or would you rather take part in a voluntary company internship?</text><!--MD5=[30083547d4db0a3d8c2d7db5c42c20bb]
link start to Which one will you choose?--><path d="M381,26.177 C381,35.269 381,49.527 381,61.485 " fill="none" id="start-to-Which one will you choose?" style="stroke: #A80036; stroke-width: 1.0;"/><polygon fill="#A80036" points="381,66.791,385,57.791,381,61.791,377,57.791,381,66.791" style="stroke: #A80036; stroke-width: 1.0;"/><!--MD5=[3d4a9d2d7cc66cfd9aa89bb80b010a16]
link Which one will you choose? to #233751--><path d="M381,101.115 C381,111.916 381,126.082 381,136.883 " fill="none" id="Which one will you choose?-to-#233751" style="stroke: #A80036; stroke-width: 1.0;"/><polygon fill="#A80036" points="381,141.885,385,132.885,381,136.885,377,132.885,381,141.885" style="stroke: #A80036; stroke-width: 1.0;"/><text fill="#000000" font-family="sans-serif" font-size="11" lengthAdjust="spacingAndGlyphs" textLength="0" x="380.025" y="131.4605"/><!--MD5=[105782f67f6a3bcce669ca1bb1ae5881]
link #233751 to bali--><path d="M370.181,155.588 C336.44,157.625 233.912,165.418 209,186 C196.569,196.27 189.846,212.977 186.219,227.494 " fill="none" id="#233751-to-bali" style="stroke: #A80036; stroke-width: 1.0;"/><polygon fill="#A80036" points="185.017,232.727,190.9292,224.8501,186.1357,227.8537,183.132,223.0602,185.017,232.727" style="stroke: #A80036; stroke-width: 1.0;"/><text fill="#000000" font-family="sans-serif" font-size="11" lengthAdjust="spacingAndGlyphs" textLength="106" x="210" y="203.7104">Introduction to Bali</text><!--MD5=[52e1e144d353e52bdefd0f7debffa5a3]
link #233751 to re--><path d="M371.867,157.296 C359.376,160.983 337.441,169.541 328,186 C320.9,198.379 320.523,214.128 322.196,227.551 " fill="none" id="#233751-to-re" style="stroke: #A80036; stroke-width: 1.0;"/><polygon fill="#A80036" points="322.959,232.761,325.6131,223.2765,322.2347,227.8137,317.6974,224.4354,322.959,232.761" style="stroke: #A80036; stroke-width: 1.0;"/><text fill="#000000" font-family="sans-serif" font-size="11" lengthAdjust="spacingAndGlyphs" textLength="80" x="329" y="197.2104">Requirements</text><text fill="#000000" font-family="sans-serif" font-size="11" lengthAdjust="spacingAndGlyphs" textLength="68" x="335" y="210.0151">Engineering</text><!--MD5=[9fad4a9ade4425f6c6ac5e74794c8f22]
link #233751 to esa--><path d="M386.828,160.448 C393.102,166.441 403.229,176.488 411,186 C424.012,201.926 437.102,221.291 446.318,235.613 " fill="none" id="#233751-to-esa" style="stroke: #A80036; stroke-width: 1.0;"/><polygon fill="#A80036" points="449.05,239.887,447.5731,230.1495,446.3571,235.6741,440.8325,234.4581,449.05,239.887" style="stroke: #A80036; stroke-width: 1.0;"/><text fill="#000000" font-family="sans-serif" font-size="11" lengthAdjust="spacingAndGlyphs" textLength="81" x="456.5" y="197.2104">Introduction to</text><text fill="#000000" font-family="sans-serif" font-size="11" lengthAdjust="spacingAndGlyphs" textLength="130" x="436" y="210.0151">Software Architectures</text><!--MD5=[267502f758104df99f057829ce172dce]
link #233751 to usf--><path d="M391.762,155.316 C427.946,156.592 544.482,162.485 572,186 C584.039,196.288 589.813,212.995 592.566,227.508 " fill="none" id="#233751-to-usf" style="stroke: #A80036; stroke-width: 1.0;"/><polygon fill="#A80036" points="593.449,232.739,595.8939,223.1984,592.6161,227.8089,588.0057,224.531,593.449,232.739" style="stroke: #A80036; stroke-width: 1.0;"/><text fill="#000000" font-family="sans-serif" font-size="11" lengthAdjust="spacingAndGlyphs" textLength="65" x="598" y="197.2104">Usability as</text><text fill="#000000" font-family="sans-serif" font-size="11" lengthAdjust="spacingAndGlyphs" textLength="81" x="590" y="210.0151">success factor</text><!--MD5=[c41757c4f113729ad7c8ec06a6765374]
link usf to a--><path d="M537.132,281.032 C505.996,293.4243 468.159,308.4839 439.209,320.0063 " fill="none" id="usf-to-a" style="stroke: #0000FF; stroke-width: 1.0; stroke-dasharray: 1.0,3.0;"/><polygon fill="#0000FF" points="434.277,321.9693,444.1183,322.3557,438.9222,320.1194,441.1585,314.9234,434.277,321.9693" style="stroke: #0000FF; stroke-width: 1.0;"/><!--MD5=[67d9987c118acd42a6d7ba9ce3b092fb]
link re to a--><path d="M347.801,281.1393 C357.151,292.6471 368.353,306.4339 377.384,317.5496 " fill="none" id="re-to-a" style="stroke: #0000FF; stroke-width: 1.0; stroke-dasharray: 1.0,3.0;"/><polygon fill="#0000FF" points="380.606,321.5149,378.0344,312.0077,377.4527,317.6346,371.8259,317.0529,380.606,321.5149" style="stroke: #0000FF; stroke-width: 1.0;"/><!--MD5=[ebd6658304d849f441ece893b36d4fa3]
link bali to a--><path d="M243.035,281.032 C276.01,293.4755 316.112,308.6084 346.695,320.149 " fill="none" id="bali-to-a" style="stroke: #0000FF; stroke-width: 1.0; stroke-dasharray: 1.0,3.0;"/><polygon fill="#0000FF" points="351.519,321.9693,344.5114,315.0488,346.8411,320.2036,341.6863,322.5334,351.519,321.9693" style="stroke: #0000FF; stroke-width: 1.0;"/><!--MD5=[1b9b0d026eb03305a9820a582ebbb1c5]
link esa to a--><path d="M445.846,274.1892 C435.626,286.7676 421.393,304.2851 410.425,317.7844 " fill="none" id="esa-to-a" style="stroke: #0000FF; stroke-width: 1.0; stroke-dasharray: 1.0,3.0;"/><polygon fill="#0000FF" points="407.134,321.8349,415.9141,317.3729,410.2873,317.9546,409.7056,312.3277,407.134,321.8349" style="stroke: #0000FF; stroke-width: 1.0;"/><!--MD5=[4c0a5567e4f69e8b27a9ca22490cb7df]
@startuml
(*) - -> "Which one will you choose?"
if "" then
- -> [Introduction to Bali] "+2 programming \n +1 analytics" as bali
else
- -> [Requirements\nEngineering] "+1 programming \n +2 analytics" as re
else
- -> [Introduction to \n Software Architectures] "+3 analytics" as esa
else
- -> [Usability as\nsuccess factor] "+1 analytics \n +2 communication" as usf


usf -[#blue,dotted]-> "After completing the elective, you can enjoy your free time, or would you rather take part in a voluntary company internship?" as a
re -[#blue,dotted]-> a
bali -[#blue,dotted]-> a
esa -[#blue,dotted]-> a

/'
Wir stehen 1 Jahr vor Ende des Studiums
Du musst Dich für ein Wahlpflichtfach entscheiden.


'/
@enduml

@startuml
(*) - -> "Which one will you choose?"
if "" then
- -> [Introduction to Bali] "+2 programming \n +1 analytics" as bali
else
- -> [Requirements\nEngineering] "+1 programming \n +2 analytics" as re
else
- -> [Introduction to \n Software Architectures] "+3 analytics" as esa
else
- -> [Usability as\nsuccess factor] "+1 analytics \n +2 communication" as usf


usf -[#blue,dotted]-> "After completing the elective, you can enjoy your free time, or would you rather take part in a voluntary company internship?" as a
re -[#blue,dotted]-> a
bali -[#blue,dotted]-> a
esa -[#blue,dotted]-> a

@enduml

PlantUML version 1.2020.20beta13(Unknown compile time)
(GPL source distribution)
Java Runtime: Java(TM) SE Runtime Environment
JVM: Java HotSpot(TM) 64-Bit Server VM
Default Encoding: UTF-8
Language: en
Country: US
--></g></svg>