<?xml version="1.0" encoding="UTF-8" standalone="no"?><svg xmlns="http://www.w3.org/2000/svg" xmlns:xlink="http://www.w3.org/1999/xlink" contentScriptType="application/ecmascript" contentStyleType="text/css" height="458px" preserveAspectRatio="none" style="width:539px;height:458px;" version="1.1" viewBox="0 0 539 458" width="539px" zoomAndPan="magnify"><defs><filter height="300%" id="f1wdghrurvu35b" width="300%" x="-1" y="-1"><feGaussianBlur result="blurOut" stdDeviation="2.0"/><feColorMatrix in="blurOut" result="blurOut2" type="matrix" values="0 0 0 0 0 0 0 0 0 0 0 0 0 0 0 0 0 0 .4 0"/><feOffset dx="4.0" dy="4.0" in="blurOut2" result="blurOut3"/><feBlend in="SourceGraphic" in2="blurOut3" mode="normal"/></filter></defs><g><ellipse cx="190.5" cy="16" fill="#000000" filter="url(#f1wdghrurvu35b)" rx="10" ry="10" style="stroke: none; stroke-width: 1.0;"/><rect fill="#FEFECE" filter="url(#f1wdghrurvu35b)" height="33.9688" rx="12.5" ry="12.5" style="stroke: #A80036; stroke-width: 1.5;" width="332" x="24.5" y="67"/><text fill="#000000" font-family="sans-serif" font-size="12" lengthAdjust="spacingAndGlyphs" textLength="312" x="34.5" y="88.1387">Do you want to participate in a company internship?</text><polygon fill="#FEFECE" filter="url(#f1wdghrurvu35b)" points="190.5,142,202.5,154,190.5,166,178.5,154,190.5,142" style="stroke: #A80036; stroke-width: 1.5;"/><rect fill="#FEFECE" filter="url(#f1wdghrurvu35b)" height="61.9063" rx="12.5" ry="12.5" style="stroke: #A80036; stroke-width: 1.5;" width="135" x="7" y="233"/><text fill="#000000" font-family="sans-serif" font-size="12" lengthAdjust="spacingAndGlyphs" textLength="102" x="21.5" y="254.1387">+1 programming</text><text fill="#000000" font-family="sans-serif" font-size="12" lengthAdjust="spacingAndGlyphs" textLength="73" x="38" y="268.1074">+1 analytics</text><text fill="#000000" font-family="sans-serif" font-size="12" lengthAdjust="spacingAndGlyphs" textLength="111" x="21" y="282.0762">+1 communication</text><rect fill="#FEFECE" filter="url(#f1wdghrurvu35b)" height="61.9063" rx="12.5" ry="12.5" style="stroke: #A80036; stroke-width: 1.5;" width="239" x="188" y="233"/><text fill="#000000" font-family="sans-serif" font-size="12" lengthAdjust="spacingAndGlyphs" textLength="215" x="198" y="254.1387">Through many parties in your spare</text><text fill="#000000" font-family="sans-serif" font-size="12" lengthAdjust="spacingAndGlyphs" textLength="193" x="213" y="268.1074">time your partying will increase:</text><text fill="#000000" font-family="sans-serif" font-size="12" lengthAdjust="spacingAndGlyphs" textLength="71" x="272" y="282.0762">+3 partying</text><rect fill="#FEFECE" filter="url(#f1wdghrurvu35b)" height="33.9688" rx="12.5" ry="12.5" style="stroke: #A80036; stroke-width: 1.5;" width="304" x="64.5" y="336"/><text fill="#000000" font-family="sans-serif" font-size="12" lengthAdjust="spacingAndGlyphs" textLength="284" x="74.5" y="357.1387">You have successfully completed your studies.</text><rect fill="#FEFECE" filter="url(#f1wdghrurvu35b)" height="33.9688" rx="12.5" ry="12.5" style="stroke: #A80036; stroke-width: 1.5;" width="123" x="155" y="411"/><text fill="#000000" font-family="sans-serif" font-size="12" lengthAdjust="spacingAndGlyphs" textLength="103" x="165" y="432.1387">Graduate studies</text><!--MD5=[ea9ef58e934df9cbc8358c327fadb2a8]
link start to Do you want to participate in a company internship?--><path d="M190.5,26.177 C190.5,35.269 190.5,49.527 190.5,61.485 " fill="none" id="start-to-Do you want to participate in a company internship?" style="stroke: #A80036; stroke-width: 1.0;"/><polygon fill="#A80036" points="190.5,66.791,194.5,57.791,190.5,61.791,186.5,57.791,190.5,66.791" style="stroke: #A80036; stroke-width: 1.0;"/><!--MD5=[948ea93978da4bf3d603a5193d0a0197]
link Do you want to participate in a company internship? to #699--><path d="M190.5,101.115 C190.5,111.916 190.5,126.082 190.5,136.883 " fill="none" id="Do you want to participate in a company internship?-to-#699" style="stroke: #A80036; stroke-width: 1.0;"/><polygon fill="#A80036" points="190.5,141.885,194.5,132.885,190.5,136.885,186.5,132.885,190.5,141.885" style="stroke: #A80036; stroke-width: 1.0;"/><text fill="#000000" font-family="sans-serif" font-size="11" lengthAdjust="spacingAndGlyphs" textLength="0" x="189.525" y="131.4605"/><!--MD5=[6ec2c8cfc7b23e01a5eef430b3bb2d6b]
link #699 to ja--><path d="M180.159,155.877 C152.221,158.48 76.3282,167.186 61.5,186 C52.2261,197.766 53.3812,213.723 57.6896,228.059 " fill="none" id="#699-to-ja" style="stroke: #A80036; stroke-width: 1.0;"/><polygon fill="#A80036" points="59.261,232.85,60.2563,223.0516,57.7025,228.0991,52.6549,225.5452,59.261,232.85" style="stroke: #A80036; stroke-width: 1.0;"/><text fill="#000000" font-family="sans-serif" font-size="11" lengthAdjust="spacingAndGlyphs" textLength="232" x="62.5" y="203.7104">Yes, gaining experience is always good!</text><!--MD5=[6028cbac5a5cef7784aa1b08aa7e95f8]
link #699 to nein--><path d="M202.196,154.627 C224.324,154.617 272.264,158.036 296.5,186 C306.267,197.27 309.654,213.146 310.349,227.557 " fill="none" id="#699-to-nein" style="stroke: #A80036; stroke-width: 1.0;"/><polygon fill="#A80036" points="310.489,232.789,314.2433,223.6838,310.3533,227.7908,306.2462,223.9009,310.489,232.789" style="stroke: #A80036; stroke-width: 1.0;"/><text fill="#000000" font-family="sans-serif" font-size="11" lengthAdjust="spacingAndGlyphs" textLength="219" x="308.5" y="197.2104">No, I have already learned everything</text><text fill="#000000" font-family="sans-serif" font-size="11" lengthAdjust="spacingAndGlyphs" textLength="194" x="325" y="210.0151">I need to know during my studies.</text><!--MD5=[1c052d617c35f0ae0e4837014eb99666]
link ja to a--><path d="M123.766,295.184 C144.295,307.762 167.507,321.983 185.572,333.051 " fill="none" id="ja-to-a" style="stroke: #A80036; stroke-width: 1.0;"/><polygon fill="#A80036" points="190.05,335.795,184.4658,327.6822,185.7867,333.1827,180.2862,334.5036,190.05,335.795" style="stroke: #A80036; stroke-width: 1.0;"/><!--MD5=[5e6adb4b95b31681b83dd5f00b799ab3]
link nein to a--><path d="M275.928,295.184 C263.107,307.442 248.652,321.261 237.209,332.201 " fill="none" id="nein-to-a" style="stroke: #A80036; stroke-width: 1.0;"/><polygon fill="#A80036" points="233.451,335.795,242.7204,332.4665,237.0649,332.3396,237.1918,326.6842,233.451,335.795" style="stroke: #A80036; stroke-width: 1.0;"/><!--MD5=[96cbc3f3d3996096dd2d6a95581339b7]
link a to Graduate studies--><path d="M216.5,370.2011 C216.5,380.6917 216.5,394.4627 216.5,405.8176 " fill="none" id="a-to-Graduate studies" style="stroke: #0000FF; stroke-width: 1.0; stroke-dasharray: 1.0,3.0;"/><polygon fill="#0000FF" points="216.5,410.8442,220.5,401.8442,216.5,405.8442,212.5,401.8442,216.5,410.8442" style="stroke: #0000FF; stroke-width: 1.0;"/><!--MD5=[c035d677690cc9734b05f4d8f3db2b61]
@startuml
(*) - -> "Do you want to participate in a company internship?"
if "" then
- -> [Yes, gaining experience is always good!] "+1 programming \n +1 analytics \n +1 communication" as ja
else
- -> [No, I have already learned everything \n I need to know during my studies.] "Through many parties in your spare \n time your partying will increase:\n +3 partying " as nein

ja - -> "You have successfully completed your studies." as a
nein - -> a





-[#blue,dotted]-> "Graduate studies"
@enduml

PlantUML version 1.2020.20beta13(Unknown compile time)
(GPL source distribution)
Java Runtime: Java(TM) SE Runtime Environment
JVM: Java HotSpot(TM) 64-Bit Server VM
Default Encoding: UTF-8
Language: en
Country: US
--></g></svg>