<?xml version="1.0" encoding="UTF-8" standalone="no"?><svg xmlns="http://www.w3.org/2000/svg" xmlns:xlink="http://www.w3.org/1999/xlink" contentScriptType="application/ecmascript" contentStyleType="text/css" height="817px" preserveAspectRatio="none" style="width:840px;height:817px;" version="1.1" viewBox="0 0 840 817" width="840px" zoomAndPan="magnify"><defs><filter height="300%" id="fw453jz6uhbgo" width="300%" x="-1" y="-1"><feGaussianBlur result="blurOut" stdDeviation="2.0"/><feColorMatrix in="blurOut" result="blurOut2" type="matrix" values="0 0 0 0 0 0 0 0 0 0 0 0 0 0 0 0 0 0 .4 0"/><feOffset dx="4.0" dy="4.0" in="blurOut2" result="blurOut3"/><feBlend in="SourceGraphic" in2="blurOut3" mode="normal"/></filter></defs><g><ellipse cx="278" cy="16" fill="#000000" filter="url(#fw453jz6uhbgo)" rx="10" ry="10" style="stroke: none; stroke-width: 1.0;"/><rect fill="#FEFECE" filter="url(#fw453jz6uhbgo)" height="33.9688" rx="12.5" ry="12.5" style="stroke: #A80036; stroke-width: 1.5;" width="140" x="208" y="67"/><text fill="#000000" font-family="sans-serif" font-size="12" lengthAdjust="spacingAndGlyphs" textLength="120" x="218" y="88.1387">A bug has surfaced.</text><rect fill="#FEFECE" filter="url(#fw453jz6uhbgo)" height="33.9688" rx="12.5" ry="12.5" style="stroke: #A80036; stroke-width: 1.5;" width="386" x="85" y="142"/><text fill="#000000" font-family="sans-serif" font-size="12" lengthAdjust="spacingAndGlyphs" textLength="366" x="95" y="163.1387">So far no one else has found the bug, how do you proceed?</text><polygon fill="#FEFECE" filter="url(#fw453jz6uhbgo)" points="278,217,290,229,278,241,266,229,278,217" style="stroke: #A80036; stroke-width: 1.5;"/><rect fill="#FEFECE" filter="url(#fw453jz6uhbgo)" height="75.875" rx="12.5" ry="12.5" style="stroke: #A80036; stroke-width: 1.5;" width="282" x="7" y="376"/><text fill="#000000" font-family="sans-serif" font-size="12" lengthAdjust="spacingAndGlyphs" textLength="145" x="73.5" y="397.1387">Yaggaya sees the ticket</text><text fill="#000000" font-family="sans-serif" font-size="12" lengthAdjust="spacingAndGlyphs" textLength="254" x="21" y="411.1074">and passes it on to the appropriate place.</text><text fill="#000000" font-family="sans-serif" font-size="12" lengthAdjust="spacingAndGlyphs" textLength="83" x="106.5" y="425.0762">You get stats:</text><text fill="#000000" font-family="sans-serif" font-size="12" lengthAdjust="spacingAndGlyphs" textLength="74" x="113" y="439.0449">+2 analytics</text><rect fill="#FEFECE" filter="url(#fw453jz6uhbgo)" height="47.9375" rx="12.5" ry="12.5" style="stroke: #A80036; stroke-width: 1.5;" width="211" x="298.5" y="308"/><text fill="#000000" font-family="sans-serif" font-size="12" lengthAdjust="spacingAndGlyphs" textLength="187" x="308.5" y="329.1387">You will get the following stats:</text><text fill="#000000" font-family="sans-serif" font-size="12" lengthAdjust="spacingAndGlyphs" textLength="69" x="371.5" y="343.1074">-3 analytics</text><rect fill="#FEFECE" filter="url(#fw453jz6uhbgo)" height="47.9375" rx="12.5" ry="12.5" style="stroke: #A80036; stroke-width: 1.5;" width="156" x="352" y="472"/><text fill="#000000" font-family="sans-serif" font-size="12" lengthAdjust="spacingAndGlyphs" textLength="132" x="362" y="493.1387">You will receive stats:</text><text fill="#000000" font-family="sans-serif" font-size="12" lengthAdjust="spacingAndGlyphs" textLength="69" x="397.5" y="507.1074">-3 analytics</text><polygon fill="#FEFECE" filter="url(#fw453jz6uhbgo)" points="431,561,443,573,431,585,419,573,431,561" style="stroke: #A80036; stroke-width: 1.5;"/><rect fill="#FEFECE" filter="url(#fw453jz6uhbgo)" height="75.875" rx="12.5" ry="12.5" style="stroke: #A80036; stroke-width: 1.5;" width="509" x="176.5" y="639"/><text fill="#000000" font-family="sans-serif" font-size="12" lengthAdjust="spacingAndGlyphs" textLength="198" x="330" y="660.1387">Bug is found and the department</text><text fill="#000000" font-family="sans-serif" font-size="12" lengthAdjust="spacingAndGlyphs" textLength="481" x="190.5" y="674.1074">thinks you should have found the bug since you were the last one to work on it.</text><text fill="#000000" font-family="sans-serif" font-size="12" lengthAdjust="spacingAndGlyphs" textLength="83" x="389.5" y="688.0762">You get stats:</text><text fill="#000000" font-family="sans-serif" font-size="12" lengthAdjust="spacingAndGlyphs" textLength="107" x="379.5" y="702.0449">-3 communication</text><rect fill="#FEFECE" filter="url(#fw453jz6uhbgo)" height="33.9688" rx="12.5" ry="12.5" style="stroke: #A80036; stroke-width: 1.5;" width="121" x="705.5" y="660"/><text fill="#000000" font-family="sans-serif" font-size="12" lengthAdjust="spacingAndGlyphs" textLength="101" x="715.5" y="681.1387">Bug is not found.</text><rect fill="#FEFECE" filter="url(#fw453jz6uhbgo)" height="47.9375" rx="12.5" ry="12.5" style="stroke: #A80036; stroke-width: 1.5;" width="286" x="288" y="756"/><text fill="#000000" font-family="sans-serif" font-size="12" lengthAdjust="spacingAndGlyphs" textLength="227" x="315.5" y="777.1387">The customer contacted us again and</text><text fill="#000000" font-family="sans-serif" font-size="12" lengthAdjust="spacingAndGlyphs" textLength="262" x="302" y="791.1074">spontaneously came up with a new feature.</text><!--MD5=[4d8aace394fa76d11717b17b4965f20f]
link start to A bug has surfaced.--><path d="M278,26.177 C278,35.269 278,49.527 278,61.485 " fill="none" id="start-to-A bug has surfaced." style="stroke: #A80036; stroke-width: 1.0;"/><polygon fill="#A80036" points="278,66.791,282,57.791,278,61.791,274,57.791,278,66.791" style="stroke: #A80036; stroke-width: 1.0;"/><!--MD5=[a43a29b005a16762fa198ef7d5951634]
link A bug has surfaced. to So far no one else has found the bug, how do you proceed?--><path d="M278,101.201 C278,111.692 278,125.463 278,136.818 " fill="none" id="A bug has surfaced.-to-So far no one else has found the bug, how do you proceed?" style="stroke: #A80036; stroke-width: 1.0;"/><polygon fill="#A80036" points="278,141.844,282,132.844,278,136.844,274,132.844,278,141.844" style="stroke: #A80036; stroke-width: 1.0;"/><!--MD5=[7d63e5a05aabfb82cb0a969f3ce1bbde]
link So far no one else has found the bug, how do you proceed? to #1999--><path d="M278,176.115 C278,186.916 278,201.082 278,211.883 " fill="none" id="So far no one else has found the bug, how do you proceed?-to-#1999" style="stroke: #A80036; stroke-width: 1.0;"/><polygon fill="#A80036" points="278,216.885,282,207.885,278,211.885,274,207.885,278,216.885" style="stroke: #A80036; stroke-width: 1.0;"/><text fill="#000000" font-family="sans-serif" font-size="11" lengthAdjust="spacingAndGlyphs" textLength="0" x="277.025" y="206.4605"/><!--MD5=[b9418340585b8f1c1760bb19804d21d2]
link #1999 to y--><path d="M267.703,231.014 C240.621,233.91 168.488,243.18 154,261 C129.409,291.246 131.181,337.145 137.09,370.591 " fill="none" id="#1999-to-y" style="stroke: #A80036; stroke-width: 1.0;"/><polygon fill="#A80036" points="138.07,375.848,140.3515,366.267,137.153,370.9328,132.4872,367.7343,138.07,375.848" style="stroke: #A80036; stroke-width: 1.0;"/><text fill="#000000" font-family="sans-serif" font-size="11" lengthAdjust="spacingAndGlyphs" textLength="127" x="194.5" y="272.2104">You write a bug ticket.</text><text fill="#000000" font-family="sans-serif" font-size="11" lengthAdjust="spacingAndGlyphs" textLength="206" x="159" y="285.0151">Sidekickpet: "Would be appropriate"</text><!--MD5=[a49c2a4a70284e47d67c3fcb8f5677c0]
link #1999 to x--><path d="M288.24,230.807 C306.886,232.785 346.691,239.419 371,261 C383.457,272.059 391.589,288.825 396.662,303.176 " fill="none" id="#1999-to-x" style="stroke: #A80036; stroke-width: 1.0;"/><polygon fill="#A80036" points="398.267,307.939,399.1829,298.1328,396.67,303.2009,391.6019,300.688,398.267,307.939" style="stroke: #A80036; stroke-width: 1.0;"/><text fill="#000000" font-family="sans-serif" font-size="11" lengthAdjust="spacingAndGlyphs" textLength="63" x="410" y="272.2104">Just ignore,</text><text fill="#000000" font-family="sans-serif" font-size="11" lengthAdjust="spacingAndGlyphs" textLength="101" x="395" y="285.0151">no one will notice</text><!--MD5=[e518d122c04267e796bbcd7b1a9d86c3]
link x to You will receive stats: \n -3 analytics--><path d="M407.725,356.211 C412.397,385.323 420.405,435.216 425.439,466.582 " fill="none" id="x-to-You will receive stats: \n -3 analytics" style="stroke: #A80036; stroke-width: 1.0;"/><polygon fill="#A80036" points="426.282,471.832,428.8044,462.3116,425.4892,466.8953,420.9056,463.5801,426.282,471.832" style="stroke: #A80036; stroke-width: 1.0;"/><!--MD5=[c87409303c75fdc55f4823d69b91579c]
link You will receive stats: \n -3 analytics to #2008--><path d="M430.311,520.319 C430.465,531.891 430.648,545.574 430.786,555.954 " fill="none" id="You will receive stats: \n -3 analytics-to-#2008" style="stroke: #A80036; stroke-width: 1.0;"/><polygon fill="#A80036" points="430.854,561.052,434.7328,551.9991,430.7869,556.0525,426.7335,552.1065,430.854,561.052" style="stroke: #A80036; stroke-width: 1.0;"/><text fill="#000000" font-family="sans-serif" font-size="11" lengthAdjust="spacingAndGlyphs" textLength="46" x="372.9917" y="550.2703">Random</text><!--MD5=[b791528088f2bfa0846ff5f6303241b6]
link #2008 to p--><path d="M431,585.306 C431,596.963 431,615.862 431,633.399 " fill="none" id="#2008-to-p" style="stroke: #A80036; stroke-width: 1.0;"/><polygon fill="#A80036" points="431,638.788,435,629.788,431,633.788,427,629.788,431,638.788" style="stroke: #A80036; stroke-width: 1.0;"/><text fill="#000000" font-family="sans-serif" font-size="11" lengthAdjust="spacingAndGlyphs" textLength="70" x="432" y="616.2104">Random &gt; 3</text><!--MD5=[fa161c174406edc74d814e944ade1d98]
link #2008 to Bug is not found.--><path d="M440.887,575.522 C476.317,581.164 599.918,602.462 696,639 C709.158,644.003 722.99,650.925 734.851,657.429 " fill="none" id="#2008-to-Bug is not found." style="stroke: #A80036; stroke-width: 1.0;"/><polygon fill="#A80036" points="739.465,659.991,733.5402,652.1236,735.0942,657.5628,729.655,659.1168,739.465,659.991" style="stroke: #A80036; stroke-width: 1.0;"/><text fill="#000000" font-family="sans-serif" font-size="11" lengthAdjust="spacingAndGlyphs" textLength="79" x="633" y="616.2104">Random &lt;= 3</text><!--MD5=[402acccbf5b67736cd032d4b602602c7]
link Bug is not found. to f--><path d="M739.474,694.033 C726.685,701.233 710.914,709.3589 696,715 C652.521,731.4453 603.399,744.6921 559.363,754.7741 " fill="none" id="Bug is not found.-to-f" style="stroke: #0000FF; stroke-width: 1.0; stroke-dasharray: 1.0,3.0;"/><polygon fill="#0000FF" points="554.295,755.9257,563.9578,757.8308,559.1706,754.8172,562.1842,750.0299,554.295,755.9257" style="stroke: #0000FF; stroke-width: 1.0;"/><!--MD5=[e68a1c678c19bb1ff3b4543454652f37]
link p to f--><path d="M431,715.0352 C431,726.7437 431,739.494 431,750.508 " fill="none" id="p-to-f" style="stroke: #0000FF; stroke-width: 1.0; stroke-dasharray: 1.0,3.0;"/><polygon fill="#0000FF" points="431,755.7632,435,746.7632,431,750.7632,427,746.7632,431,755.7632" style="stroke: #0000FF; stroke-width: 1.0;"/><!--MD5=[9ef6cd0a90fbaf7cd759bc73c80c9ad8]
link y to f--><path d="M146.64,452.188 C145.847,477.044 145,510.478 145,540 C145,540 145,540 145,678 C145,696.908 150.899,703.621 166,715 C199.689,740.3865 242.041,755.8538 282.94,765.2314 " fill="none" id="y-to-f" style="stroke: #0000FF; stroke-width: 1.0; stroke-dasharray: 1.0,3.0;"/><polygon fill="#0000FF" points="287.92,766.3451,280.0102,760.477,283.0406,765.2537,278.2639,768.2841,287.92,766.3451" style="stroke: #0000FF; stroke-width: 1.0;"/><!--MD5=[4ad5723e1bc8b6788449741e02377fba]
@startuml
(*) - -> "A bug has surfaced."
- -> "So far no one else has found the bug, how do you proceed?"
if "" then 
- -> [You write a bug ticket. \n Sidekickpet: "Would be appropriate"] "Yaggaya sees the ticket \n and passes it on to the appropriate place. \n You get stats: \n +2 analytics" as y
else
- -> [Just ignore, \n no one will notice] "You will get the following stats: \n -3 analytics" as x
endif
- -> "You will receive stats: \n -3 analytics"
if "Random" then
- -> [Random > 3] "Bug is found and the department \n thinks you should have found the bug since you were the last one to work on it. \n You get stats: \n -3 communication" as p

else
- -> [Random <= 3] "Bug is not found."
-[#blue,dotted]-> "The customer contacted us again and \n spontaneously came up with a new feature." as f 
endif
p -[#blue,dotted]-> f
y -[#blue,dotted]-> f
@enduml

PlantUML version 1.2020.20beta13(Unknown compile time)
(GPL source distribution)
Java Runtime: Java(TM) SE Runtime Environment
JVM: Java HotSpot(TM) 64-Bit Server VM
Default Encoding: UTF-8
Language: en
Country: US
--></g></svg>