<?xml version="1.0" encoding="UTF-8" standalone="no"?><svg xmlns="http://www.w3.org/2000/svg" xmlns:xlink="http://www.w3.org/1999/xlink" contentScriptType="application/ecmascript" contentStyleType="text/css" height="854px" preserveAspectRatio="none" style="width:955px;height:854px;" version="1.1" viewBox="0 0 955 854" width="955px" zoomAndPan="magnify"><defs><filter height="300%" id="f1f5fa4c8kg2ky" width="300%" x="-1" y="-1"><feGaussianBlur result="blurOut" stdDeviation="2.0"/><feColorMatrix in="blurOut" result="blurOut2" type="matrix" values="0 0 0 0 0 0 0 0 0 0 0 0 0 0 0 0 0 0 .4 0"/><feOffset dx="4.0" dy="4.0" in="blurOut2" result="blurOut3"/><feBlend in="SourceGraphic" in2="blurOut3" mode="normal"/></filter></defs><g><ellipse cx="705.2378" cy="16" fill="#000000" filter="url(#f1f5fa4c8kg2ky)" rx="10" ry="10" style="stroke: none; stroke-width: 1.0;"/><rect fill="#FEFECE" filter="url(#f1f5fa4c8kg2ky)" height="61.9063" rx="12.5" ry="12.5" style="stroke: #A80036; stroke-width: 1.5;" width="320" x="545.2378" y="67"/><text fill="#000000" font-family="sans-serif" font-size="12" lengthAdjust="spacingAndGlyphs" textLength="264" x="573.2378" y="88.1387">Your colleague Trummu is approaching you.</text><text fill="#000000" font-family="sans-serif" font-size="12" lengthAdjust="spacingAndGlyphs" textLength="292" x="559.2378" y="102.1074">Trummu urgently needs your support in his task.</text><text fill="#000000" font-family="sans-serif" font-size="12" lengthAdjust="spacingAndGlyphs" textLength="135" x="639.7378" y="116.0762">How do you proceed?</text><polygon fill="#FEFECE" filter="url(#f1f5fa4c8kg2ky)" points="705.2378,170,717.2378,182,705.2378,194,693.2378,182,705.2378,170" style="stroke: #A80036; stroke-width: 1.5;"/><rect fill="#FEFECE" filter="url(#f1f5fa4c8kg2ky)" height="33.9688" rx="12.5" ry="12.5" style="stroke: #A80036; stroke-width: 1.5;" width="68" x="531.2378" y="248"/><text fill="#000000" font-family="sans-serif" font-size="12" lengthAdjust="spacingAndGlyphs" textLength="48" x="541.2378" y="269.1387">Random</text><polygon fill="#FEFECE" filter="url(#f1f5fa4c8kg2ky)" points="535.2378,384,547.2378,396,535.2378,408,523.2378,396,535.2378,384" style="stroke: #A80036; stroke-width: 1.5;"/><rect fill="#FEFECE" filter="url(#f1f5fa4c8kg2ky)" height="47.9375" rx="12.5" ry="12.5" style="stroke: #A80036; stroke-width: 1.5;" width="186" x="28.2378" y="558"/><text fill="#000000" font-family="sans-serif" font-size="12" lengthAdjust="spacingAndGlyphs" textLength="162" x="38.2378" y="579.1387">Your colleague is satisfied.</text><text fill="#000000" font-family="sans-serif" font-size="12" lengthAdjust="spacingAndGlyphs" textLength="112" x="67.2378" y="593.1074">+2 communication</text><rect fill="#FEFECE" filter="url(#f1f5fa4c8kg2ky)" height="75.875" rx="12.5" ry="12.5" style="stroke: #A80036; stroke-width: 1.5;" width="319" x="375.7378" y="462"/><text fill="#000000" font-family="sans-serif" font-size="12" lengthAdjust="spacingAndGlyphs" textLength="163" x="451.7378" y="483.1387">Your colleague is satisfied,</text><text fill="#000000" font-family="sans-serif" font-size="12" lengthAdjust="spacingAndGlyphs" textLength="151" x="459.7378" y="497.1074">but because of the delay</text><text fill="#000000" font-family="sans-serif" font-size="12" lengthAdjust="spacingAndGlyphs" textLength="290" x="390.2378" y="511.0762">you now have problems meeting your deadline,</text><text fill="#000000" font-family="sans-serif" font-size="12" lengthAdjust="spacingAndGlyphs" textLength="295" x="389.7378" y="525.0449">so you ask your other colleague Sodani for help.</text><polygon fill="#FEFECE" filter="url(#f1f5fa4c8kg2ky)" points="535.2378,626,547.2378,638,535.2378,650,523.2378,638,535.2378,626" style="stroke: #A80036; stroke-width: 1.5;"/><rect fill="#FEFECE" filter="url(#f1f5fa4c8kg2ky)" height="33.9688" rx="12.5" ry="12.5" style="stroke: #A80036; stroke-width: 1.5;" width="326" x="53.2378" y="711"/><text fill="#000000" font-family="sans-serif" font-size="12" lengthAdjust="spacingAndGlyphs" textLength="306" x="63.2378" y="732.1387">Sodani helps you and you can meet your deadline.</text><rect fill="#FEFECE" filter="url(#f1f5fa4c8kg2ky)" height="47.9375" rx="12.5" ry="12.5" style="stroke: #A80036; stroke-width: 1.5;" width="422" x="399.2378" y="704"/><text fill="#000000" font-family="sans-serif" font-size="12" lengthAdjust="spacingAndGlyphs" textLength="398" x="409.2378" y="725.1387">Sodani will not help you and therefore you will miss your deadline</text><text fill="#000000" font-family="sans-serif" font-size="12" lengthAdjust="spacingAndGlyphs" textLength="185" x="519.7378" y="739.1074">and need an additional 5 days.</text><rect fill="#FEFECE" filter="url(#f1f5fa4c8kg2ky)" height="47.9375" rx="12.5" ry="12.5" style="stroke: #A80036; stroke-width: 1.5;" width="231" x="251.7378" y="793"/><text fill="#000000" font-family="sans-serif" font-size="12" lengthAdjust="spacingAndGlyphs" textLength="207" x="261.7378" y="814.1387">The project is nearing completion,</text><text fill="#000000" font-family="sans-serif" font-size="12" lengthAdjust="spacingAndGlyphs" textLength="183" x="277.7378" y="828.1074">only a code review is missing.</text><rect fill="#FEFECE" filter="url(#f1f5fa4c8kg2ky)" height="61.9063" rx="12.5" ry="12.5" style="stroke: #A80036; stroke-width: 1.5;" width="189" x="752.7378" y="302"/><text fill="#000000" font-family="sans-serif" font-size="12" lengthAdjust="spacingAndGlyphs" textLength="165" x="762.7378" y="323.1387">I have enough to do myself</text><text fill="#000000" font-family="sans-serif" font-size="12" lengthAdjust="spacingAndGlyphs" textLength="83" x="805.7378" y="337.1074">and take care</text><text fill="#000000" font-family="sans-serif" font-size="12" lengthAdjust="spacingAndGlyphs" textLength="98" x="800.2378" y="351.0762">of my own stuff!</text><!--MD5=[52b085fb6033d9b98d84f04b4a7d1a93]
link start to Your colleague Trummu is approaching you.\n Trummu urgently needs your support in his task. \n How do you proceed?--><path d="M705.2378,26.177 C705.2378,34.945 705.2378,48.727 705.2378,61.812 " fill="none" id="start-to-Your colleague Trummu is approaching you.\n Trummu urgently needs your support in his task. \n How do you proceed?" style="stroke: #A80036; stroke-width: 1.0;"/><polygon fill="#A80036" points="705.2378,66.973,709.2378,57.973,705.2378,61.973,701.2378,57.973,705.2378,66.973" style="stroke: #A80036; stroke-width: 1.0;"/><!--MD5=[6053bd9f1b101147a6be7852f5c8e0cb]
link Your colleague Trummu is approaching you.\n Trummu urgently needs your support in his task. \n How do you proceed? to #2129--><path d="M705.2378,129.068 C705.2378,141.212 705.2378,154.737 705.2378,164.939 " fill="none" id="Your colleague Trummu is approaching you.\n Trummu urgently needs your support in his task. \n How do you proceed?-to-#2129" style="stroke: #A80036; stroke-width: 1.0;"/><polygon fill="#A80036" points="705.2378,169.946,709.2378,160.946,705.2378,164.946,701.2378,160.946,705.2378,169.946" style="stroke: #A80036; stroke-width: 1.0;"/><text fill="#000000" font-family="sans-serif" font-size="11" lengthAdjust="spacingAndGlyphs" textLength="0" x="704.2628" y="159.5513"/><!--MD5=[6ddd522a6d1f9ed1d9c9981de9988917]
link #2129 to Random--><path d="M698.1028,187.128 C679.8648,197.68 630.6478,226.156 597.5128,245.327 " fill="none" id="#2129-to-Random" style="stroke: #A80036; stroke-width: 1.0;"/><polygon fill="#A80036" points="593.1508,247.85,602.9441,246.8053,597.4787,245.3461,598.9379,239.8807,593.1508,247.85" style="stroke: #A80036; stroke-width: 1.0;"/><text fill="#000000" font-family="sans-serif" font-size="11" lengthAdjust="spacingAndGlyphs" textLength="57" x="649.2378" y="225.2104">I help him</text><!--MD5=[31ae3260cf9615440906afe890bf01ba]
link Random to #2134--><path d="M561.4988,282.077 C555.5698,307.57 544.1108,356.847 538.4968,380.986 " fill="none" id="Random-to-#2134" style="stroke: #A80036; stroke-width: 1.0;"/><polygon fill="#A80036" points="537.3288,386.01,543.2639,378.1503,538.4617,381.14,535.472,376.3378,537.3288,386.01" style="stroke: #A80036; stroke-width: 1.0;"/><text fill="#000000" font-family="sans-serif" font-size="11" lengthAdjust="spacingAndGlyphs" textLength="0" x="537.3914" y="373.5039"/><!--MD5=[2d52e22ba7104b79997c144fcfab00aa]
link #2134 to a--><path d="M526.9758,400.039 C512.0348,405.545 479.5378,417.568 452.2378,428 C413.4578,442.819 403.2588,445.332 365.2378,462 C296.6598,492.064 219.2248,530.645 170.3388,555.593 " fill="none" id="#2134-to-a" style="stroke: #A80036; stroke-width: 1.0;"/><polygon fill="#A80036" points="165.6988,557.964,175.5333,557.4326,170.1516,555.6897,171.8945,550.308,165.6988,557.964" style="stroke: #A80036; stroke-width: 1.0;"/><text fill="#000000" font-family="sans-serif" font-size="11" lengthAdjust="spacingAndGlyphs" textLength="76" x="453.2378" y="439.2104">random &lt;= 3</text><!--MD5=[23dee1fb6bed6492b4654e1b9468b1d5]
link #2134 to b--><path d="M535.2378,408.306 C535.2378,419.963 535.2378,438.862 535.2378,456.399 " fill="none" id="#2134-to-b" style="stroke: #A80036; stroke-width: 1.0;"/><polygon fill="#A80036" points="535.2378,461.788,539.2378,452.788,535.2378,456.788,531.2378,452.788,535.2378,461.788" style="stroke: #A80036; stroke-width: 1.0;"/><text fill="#000000" font-family="sans-serif" font-size="11" lengthAdjust="spacingAndGlyphs" textLength="67" x="536.2378" y="439.2104">random &gt; 3</text><!--MD5=[cea625c3d54d43481c9b2a7609ccc5e5]
link b to #2141--><path d="M535.2378,538.163 C535.2378,565.164 535.2378,600.394 535.2378,620.677 " fill="none" id="b-to-#2141" style="stroke: #A80036; stroke-width: 1.0;"/><polygon fill="#A80036" points="535.2378,625.74,539.2378,616.74,535.2378,620.74,531.2378,616.74,535.2378,625.74" style="stroke: #A80036; stroke-width: 1.0;"/><text fill="#000000" font-family="sans-serif" font-size="11" lengthAdjust="spacingAndGlyphs" textLength="0" x="534.2628" y="615.2448"/><!--MD5=[ab30360b22ec1c0603727a490c36e7eb]
link #2141 to c--><path d="M526.4188,641.285 C506.8978,646.354 458.5728,658.966 418.2378,670 C370.7848,682.981 317.1998,698.124 277.1498,709.538 " fill="none" id="#2141-to-c" style="stroke: #A80036; stroke-width: 1.0;"/><polygon fill="#A80036" points="272.3338,710.911,282.0858,712.2892,277.1421,709.5397,279.8916,704.596,272.3338,710.911" style="stroke: #A80036; stroke-width: 1.0;"/><text fill="#000000" font-family="sans-serif" font-size="11" lengthAdjust="spacingAndGlyphs" textLength="139" x="419.2378" y="681.2104">Communication-Skill &gt; 6</text><!--MD5=[1e7c7f650d73f26341dadda6f04f0582]
link #2141 to Sodani will not help you and therefore you will miss your deadline \n and need an additional 5 days.--><path d="M540.3928,645.049 C549.8078,656.096 570.3238,680.167 586.6968,699.379 " fill="none" id="#2141-to-Sodani will not help you and therefore you will miss your deadline \n and need an additional 5 days." style="stroke: #A80036; stroke-width: 1.0;"/><polygon fill="#A80036" points="590.3348,703.647,587.5384,694.2035,587.0904,699.8426,581.4513,699.3945,590.3348,703.647" style="stroke: #A80036; stroke-width: 1.0;"/><text fill="#000000" font-family="sans-serif" font-size="11" lengthAdjust="spacingAndGlyphs" textLength="144" x="574.2378" y="681.2104">Communication-Skill &lt;=6</text><!--MD5=[a2077e11c21049df8b35141e247eff50]
link Sodani will not help you and therefore you will miss your deadline \n and need an additional 5 days. to ende--><path d="M545.7558,752.086 C512.1188,764.1291 470.9398,778.872 436.6118,791.1623 " fill="none" id="Sodani will not help you and therefore you will miss your deadline \n and need an additional 5 days.-to-ende" style="stroke: #0000FF; stroke-width: 1.0; stroke-dasharray: 1.0,3.0;"/><polygon fill="#0000FF" points="431.5988,792.9572,441.4204,793.6888,436.3061,791.2715,438.7234,786.1572,431.5988,792.9572" style="stroke: #0000FF; stroke-width: 1.0;"/><!--MD5=[6045d90b80918a25ccb712e09327d635]
link #2129 to assi--><path d="M710.6308,188.659 C727.4458,206.302 779.8668,261.308 814.6638,297.82 " fill="none" id="#2129-to-assi" style="stroke: #A80036; stroke-width: 1.0;"/><polygon fill="#A80036" points="818.3948,301.735,815.0832,292.4596,814.946,298.1148,809.2908,297.9776,818.3948,301.735" style="stroke: #A80036; stroke-width: 1.0;"/><text fill="#000000" font-family="sans-serif" font-size="11" lengthAdjust="spacingAndGlyphs" textLength="132" x="748.2378" y="225.2104">I dont want to help him</text><!--MD5=[5f01f0a41c3bbf0f3ad364e24735df76]
link a to ende--><path d="M95.8041,606.095 C60.7716,640.677 6,706.687 43.2378,752 C68.9743,783.3176 165.1218,799.5642 246.0488,807.8342 " fill="none" id="a-to-ende" style="stroke: #0000FF; stroke-width: 1.0; stroke-dasharray: 1.0,3.0;"/><polygon fill="#0000FF" points="251.3568,808.3675,242.8019,803.4876,246.3819,807.8675,242.0019,811.4475,251.3568,808.3675" style="stroke: #0000FF; stroke-width: 1.0;"/><!--MD5=[2c51c0ad682a8603c917a250d4441362]
link c to ende--><path d="M244.2858,745.1601 C266.2968,757.8418 297.3558,775.7368 322.7498,790.3677 " fill="none" id="c-to-ende" style="stroke: #0000FF; stroke-width: 1.0; stroke-dasharray: 1.0,3.0;"/><polygon fill="#0000FF" points="327.0968,792.8726,321.2969,784.9126,322.7649,790.3757,317.3018,791.8437,327.0968,792.8726" style="stroke: #0000FF; stroke-width: 1.0;"/><!--MD5=[a2947ee25b0878b94e9bfb496b3d6d8d]
link assi to ende--><path d="M849.5328,364.175 C850.8478,384.007 852.2378,410.533 852.2378,434 C852.2378,434 852.2378,434 852.2378,729 C852.2378,742.8421 843.4908,745.5596 831.2378,752 C773.3888,782.4073 605.2638,799.8611 488.1458,808.6405 " fill="none" id="assi-to-ende" style="stroke: #0000FF; stroke-width: 1.0; stroke-dasharray: 1.0,3.0;"/><polygon fill="#0000FF" points="482.9568,809.0263,492.2281,812.3493,487.9431,808.6563,491.6361,804.3713,482.9568,809.0263" style="stroke: #0000FF; stroke-width: 1.0;"/><!--MD5=[b6c362d6c11fdc0e23ed2d4357aeca1c]
@startuml
(*) - -> "Your colleague Trummu is approaching you.\n Trummu urgently needs your support in his task. \n How do you proceed?"
if "" then 
- -> [I help him] "Random"
if "" then
- -> [random <= 3] "Your colleague is satisfied. \n +2 communication" as a
else
- -> [random > 3] "Your colleague is satisfied, \n but because of the delay \n you now have problems meeting your deadline, \n so you ask your other colleague Sodani for help." as b
if "" then 
- -> [Communication-Skill > 6] "Sodani helps you and you can meet your deadline." as c
else
- -> [Communication-Skill <=6] "Sodani will not help you and therefore you will miss your deadline \n and need an additional 5 days."
-[#blue,dotted]-> "The project is nearing completion, \n only a code review is missing." as ende
endif
endif
else
- -> [I dont want to help him] "I have enough to do myself \n and take care \n of my own stuff!" as assi
endif
a -[#blue,dotted]-> ende
c -[#blue,dotted]-> ende
assi -[#blue,dotted]-> ende
@enduml

PlantUML version 1.2020.20beta13(Unknown compile time)
(GPL source distribution)
Java Runtime: Java(TM) SE Runtime Environment
JVM: Java HotSpot(TM) 64-Bit Server VM
Default Encoding: UTF-8
Language: en
Country: US
--></g></svg>