<?xml version="1.0" encoding="UTF-8" standalone="no"?><svg xmlns="http://www.w3.org/2000/svg" xmlns:xlink="http://www.w3.org/1999/xlink" contentScriptType="application/ecmascript" contentStyleType="text/css" height="877px" preserveAspectRatio="none" style="width:1282px;height:877px;" version="1.1" viewBox="0 0 1282 877" width="1282px" zoomAndPan="magnify"><defs><filter height="300%" id="f135q0z403bvcr" width="300%" x="-1" y="-1"><feGaussianBlur result="blurOut" stdDeviation="2.0"/><feColorMatrix in="blurOut" result="blurOut2" type="matrix" values="0 0 0 0 0 0 0 0 0 0 0 0 0 0 0 0 0 0 .4 0"/><feOffset dx="4.0" dy="4.0" in="blurOut2" result="blurOut3"/><feBlend in="SourceGraphic" in2="blurOut3" mode="normal"/></filter></defs><g><ellipse cx="663" cy="16" fill="#000000" filter="url(#f135q0z403bvcr)" rx="10" ry="10" style="stroke: none; stroke-width: 1.0;"/><rect fill="#FEFECE" filter="url(#f135q0z403bvcr)" height="33.9688" rx="12.5" ry="12.5" style="stroke: #A80036; stroke-width: 1.5;" width="459" x="433.5" y="67"/><text fill="#000000" font-family="sans-serif" font-size="12" lengthAdjust="spacingAndGlyphs" textLength="439" x="443.5" y="88.1387">After completing your task, you must now write the corresponding tests.</text><rect fill="#FEFECE" filter="url(#f135q0z403bvcr)" height="33.9688" rx="12.5" ry="12.5" style="stroke: #A80036; stroke-width: 1.5;" width="203" x="561.5" y="142"/><text fill="#000000" font-family="sans-serif" font-size="12" lengthAdjust="spacingAndGlyphs" textLength="183" x="571.5" y="163.1387">How do you want to proceed?</text><polygon fill="#FEFECE" filter="url(#f135q0z403bvcr)" points="663,217,675,229,663,241,651,229,663,217" style="stroke: #A80036; stroke-width: 1.5;"/><rect fill="#FEFECE" filter="url(#f135q0z403bvcr)" height="33.9688" rx="12.5" ry="12.5" style="stroke: #A80036; stroke-width: 1.5;" width="94" x="426" y="321"/><text fill="#000000" font-family="sans-serif" font-size="12" lengthAdjust="spacingAndGlyphs" textLength="74" x="436" y="342.1387">Decision +2</text><polygon fill="#FEFECE" filter="url(#f135q0z403bvcr)" points="451,396,463,408,451,420,439,408,451,396" style="stroke: #A80036; stroke-width: 1.5;"/><rect fill="#FEFECE" filter="url(#f135q0z403bvcr)" height="47.9375" rx="12.5" ry="12.5" style="stroke: #A80036; stroke-width: 1.5;" width="250" x="26" y="474"/><text fill="#000000" font-family="sans-serif" font-size="12" lengthAdjust="spacingAndGlyphs" textLength="226" x="36" y="495.1387">Due to your good programming skills</text><text fill="#000000" font-family="sans-serif" font-size="12" lengthAdjust="spacingAndGlyphs" textLength="172" x="67" y="509.1074">you will still be ready in time</text><rect fill="#FEFECE" filter="url(#f135q0z403bvcr)" height="47.9375" rx="12.5" ry="12.5" style="stroke: #A80036; stroke-width: 1.5;" width="234" x="7" y="570"/><text fill="#000000" font-family="sans-serif" font-size="12" lengthAdjust="spacingAndGlyphs" textLength="149" x="47.5" y="591.1387">Yaggaya is very pleased</text><text fill="#000000" font-family="sans-serif" font-size="12" lengthAdjust="spacingAndGlyphs" textLength="210" x="21" y="605.1074">with your approach and your tests.</text><rect fill="#FEFECE" filter="url(#f135q0z403bvcr)" height="47.9375" rx="12.5" ry="12.5" style="stroke: #A80036; stroke-width: 1.5;" width="126" x="267" y="666"/><text fill="#000000" font-family="sans-serif" font-size="12" lengthAdjust="spacingAndGlyphs" textLength="102" x="277" y="687.1387">+1 programming</text><text fill="#000000" font-family="sans-serif" font-size="12" lengthAdjust="spacingAndGlyphs" textLength="74" x="295" y="701.1074">+3 analytics</text><rect fill="#FEFECE" filter="url(#f135q0z403bvcr)" height="47.9375" rx="12.5" ry="12.5" style="stroke: #A80036; stroke-width: 1.5;" width="273" x="314.5" y="474"/><text fill="#000000" font-family="sans-serif" font-size="12" lengthAdjust="spacingAndGlyphs" textLength="249" x="324.5" y="495.1387">Unfortunately you won't be ready in time,</text><text fill="#000000" font-family="sans-serif" font-size="12" lengthAdjust="spacingAndGlyphs" textLength="209" x="348.5" y="509.1074">but you have very extensive tests.</text><rect fill="#FEFECE" filter="url(#f135q0z403bvcr)" height="47.9375" rx="12.5" ry="12.5" style="stroke: #A80036; stroke-width: 1.5;" width="379" x="261.5" y="570"/><text fill="#000000" font-family="sans-serif" font-size="12" lengthAdjust="spacingAndGlyphs" textLength="213" x="342.5" y="591.1387">Yaggaya is satisfied with your tests</text><text fill="#000000" font-family="sans-serif" font-size="12" lengthAdjust="spacingAndGlyphs" textLength="355" x="275.5" y="605.1074">and your approach, \even though you did not finish in time.</text><rect fill="#FEFECE" filter="url(#f135q0z403bvcr)" height="47.9375" rx="12.5" ry="12.5" style="stroke: #A80036; stroke-width: 1.5;" width="127" x="481.5" y="666"/><text fill="#000000" font-family="sans-serif" font-size="12" lengthAdjust="spacingAndGlyphs" textLength="103" x="491.5" y="687.1387">+2 programming</text><text fill="#000000" font-family="sans-serif" font-size="12" lengthAdjust="spacingAndGlyphs" textLength="74" x="510" y="701.1074">+2 analytics</text><rect fill="#FEFECE" filter="url(#f135q0z403bvcr)" height="33.9688" rx="12.5" ry="12.5" style="stroke: #A80036; stroke-width: 1.5;" width="88" x="735" y="321"/><text fill="#000000" font-family="sans-serif" font-size="12" lengthAdjust="spacingAndGlyphs" textLength="68" x="745" y="342.1387">Decision -1</text><polygon fill="#FEFECE" filter="url(#f135q0z403bvcr)" points="794,396,806,408,794,420,782,408,794,396" style="stroke: #A80036; stroke-width: 1.5;"/><rect fill="#FEFECE" filter="url(#f135q0z403bvcr)" height="47.9375" rx="12.5" ry="12.5" style="stroke: #A80036; stroke-width: 1.5;" width="317" x="635.5" y="474"/><text fill="#000000" font-family="sans-serif" font-size="12" lengthAdjust="spacingAndGlyphs" textLength="226" x="679" y="495.1387">Due to very good programming skills</text><text fill="#000000" font-family="sans-serif" font-size="12" lengthAdjust="spacingAndGlyphs" textLength="293" x="649.5" y="509.1074">you have extensive tests despite the short time.</text><rect fill="#FEFECE" filter="url(#f135q0z403bvcr)" height="33.9688" rx="12.5" ry="12.5" style="stroke: #A80036; stroke-width: 1.5;" width="267" x="660.5" y="577"/><text fill="#000000" font-family="sans-serif" font-size="12" lengthAdjust="spacingAndGlyphs" textLength="247" x="670.5" y="598.1387">Yaggaya is very satisfied with your work.</text><rect fill="#FEFECE" filter="url(#f135q0z403bvcr)" height="33.9688" rx="12.5" ry="12.5" style="stroke: #A80036; stroke-width: 1.5;" width="123" x="645.5" y="673"/><text fill="#000000" font-family="sans-serif" font-size="12" lengthAdjust="spacingAndGlyphs" textLength="103" x="655.5" y="694.1387">+2 programming</text><rect fill="#FEFECE" filter="url(#f135q0z403bvcr)" height="47.9375" rx="12.5" ry="12.5" style="stroke: #A80036; stroke-width: 1.5;" width="204" x="976" y="474"/><text fill="#000000" font-family="sans-serif" font-size="12" lengthAdjust="spacingAndGlyphs" textLength="180" x="986" y="495.1387">You may be finished, but your</text><text fill="#000000" font-family="sans-serif" font-size="12" lengthAdjust="spacingAndGlyphs" textLength="138" x="1011" y="509.1074">tests are not sufficient.</text><rect fill="#FEFECE" filter="url(#f135q0z403bvcr)" height="61.9063" rx="12.5" ry="12.5" style="stroke: #A80036; stroke-width: 1.5;" width="267" x="947.5" y="563"/><text fill="#000000" font-family="sans-serif" font-size="12" lengthAdjust="spacingAndGlyphs" textLength="240" x="959" y="584.1387">Yaggaya is not satisfied with your work,</text><text fill="#000000" font-family="sans-serif" font-size="12" lengthAdjust="spacingAndGlyphs" textLength="214" x="974" y="598.1074">you have to revise your tests again</text><text fill="#000000" font-family="sans-serif" font-size="12" lengthAdjust="spacingAndGlyphs" textLength="243" x="961.5" y="612.0762">and exceed the deadline by a few days.</text><rect fill="#FEFECE" filter="url(#f135q0z403bvcr)" height="33.9688" rx="12.5" ry="12.5" style="stroke: #A80036; stroke-width: 1.5;" width="122" x="834" y="673"/><text fill="#000000" font-family="sans-serif" font-size="12" lengthAdjust="spacingAndGlyphs" textLength="102" x="844" y="694.1387">+1 programming</text><rect fill="#FEFECE" filter="url(#f135q0z403bvcr)" height="33.9688" rx="12.5" ry="12.5" style="stroke: #A80036; stroke-width: 1.5;" width="122" x="565" y="755"/><text fill="#000000" font-family="sans-serif" font-size="12" lengthAdjust="spacingAndGlyphs" textLength="102" x="575" y="776.1387">Tests completed</text><rect fill="#FEFECE" filter="url(#f135q0z403bvcr)" height="33.9688" rx="12.5" ry="12.5" style="stroke: #A80036; stroke-width: 1.5;" width="109" x="571.5" y="830"/><text fill="#000000" font-family="sans-serif" font-size="12" lengthAdjust="spacingAndGlyphs" textLength="89" x="581.5" y="851.1387">Company Party</text><!--MD5=[b53442bbaafc68028fc124a41789c76d]
link start to After completing your task, you must now write the corresponding tests.--><path d="M663,26.177 C663,35.269 663,49.527 663,61.485 " fill="none" id="start-to-After completing your task, you must now write the corresponding tests." style="stroke: #A80036; stroke-width: 1.0;"/><polygon fill="#A80036" points="663,66.791,667,57.791,663,61.791,659,57.791,663,66.791" style="stroke: #A80036; stroke-width: 1.0;"/><!--MD5=[0f6f9ecbf4aab57e1aa61ec590eed67a]
link After completing your task, you must now write the corresponding tests. to wie--><path d="M663,101.201 C663,111.692 663,125.463 663,136.818 " fill="none" id="After completing your task, you must now write the corresponding tests.-to-wie" style="stroke: #A80036; stroke-width: 1.0;"/><polygon fill="#A80036" points="663,141.844,667,132.844,663,136.844,659,132.844,663,141.844" style="stroke: #A80036; stroke-width: 1.0;"/><!--MD5=[f3e213dace761d9860cfbdd129b199e1]
link wie to #947--><path d="M663,176.115 C663,186.916 663,201.082 663,211.883 " fill="none" id="wie-to-#947" style="stroke: #A80036; stroke-width: 1.0;"/><polygon fill="#A80036" points="663,216.885,667,207.885,663,211.885,659,207.885,663,216.885" style="stroke: #A80036; stroke-width: 1.0;"/><text fill="#000000" font-family="sans-serif" font-size="11" lengthAdjust="spacingAndGlyphs" textLength="0" x="662.025" y="206.4605"/><!--MD5=[9ccddd900f73d502db7294bc6fdac7c2]
link #947 to d1--><path d="M652.765,231.105 C632.244,233.677 585.118,241.41 551,261 C526.06,275.32 503.22,299.455 488.789,316.685 " fill="none" id="#947-to-d1" style="stroke: #A80036; stroke-width: 1.0;"/><polygon fill="#A80036" points="485.305,320.906,494.1184,316.5101,488.4873,317.0495,487.948,311.4184,485.305,320.906" style="stroke: #A80036; stroke-width: 1.0;"/><text fill="#000000" font-family="sans-serif" font-size="11" lengthAdjust="spacingAndGlyphs" textLength="147" x="556" y="272.2104">You write extensive tests</text><text fill="#000000" font-family="sans-serif" font-size="11" lengthAdjust="spacingAndGlyphs" textLength="117" x="573" y="285.0151">until they are ready,</text><text fill="#000000" font-family="sans-serif" font-size="11" lengthAdjust="spacingAndGlyphs" textLength="155" x="556" y="297.8198">regardless of the deadline.</text><!--MD5=[0ca0d555d1a8678981a8674857bad46d]
link d1 to #952--><path d="M467.786,355.115 C463.986,366.861 458.898,382.587 455.324,393.636 " fill="none" id="d1-to-#952" style="stroke: #A80036; stroke-width: 1.0;"/><polygon fill="#A80036" points="453.702,398.647,460.2775,391.3146,455.2406,393.8896,452.6657,388.8528,453.702,398.647" style="stroke: #A80036; stroke-width: 1.0;"/><text fill="#000000" font-family="sans-serif" font-size="11" lengthAdjust="spacingAndGlyphs" textLength="0" x="454.2373" y="385.4576"/><!--MD5=[f0fe6b551b853140ae7476c0dfacb41a]
link #952 to Due to your good programming skills \n you will still be ready in time--><path d="M440.539,409.574 C400.496,411.893 257.136,421.356 216,440 C200.525,447.014 186.025,458.971 174.665,470.127 " fill="none" id="#952-to-Due to your good programming skills \n you will still be ready in time" style="stroke: #A80036; stroke-width: 1.0;"/><polygon fill="#A80036" points="170.936,473.872,180.1212,470.3179,174.4644,470.3293,174.453,464.6725,170.936,473.872" style="stroke: #A80036; stroke-width: 1.0;"/><text fill="#000000" font-family="sans-serif" font-size="11" lengthAdjust="spacingAndGlyphs" textLength="228" x="217" y="451.2104">random + programming + decision &gt;=8</text><!--MD5=[37490ff72c84743e3ee36390ad47570a]
link Due to your good programming skills \n you will still be ready in time to Yaggaya is very pleased \n with your approach and your tests.--><path d="M144.326,522.236 C140.626,535.116 135.999,551.227 132.094,564.822 " fill="none" id="Due to your good programming skills \n you will still be ready in time-to-Yaggaya is very pleased \n with your approach and your tests." style="stroke: #A80036; stroke-width: 1.0;"/><polygon fill="#A80036" points="130.691,569.706,137.0197,562.1596,132.071,564.9002,129.3304,559.9516,130.691,569.706" style="stroke: #A80036; stroke-width: 1.0;"/><!--MD5=[fd78af04539d9436b7b64b3ecb1278dc]
link Yaggaya is very pleased \n with your approach and your tests. to a1--><path d="M174.657,618.115 C204.963,631.944 243.502,649.53 274.612,663.726 " fill="none" id="Yaggaya is very pleased \n with your approach and your tests.-to-a1" style="stroke: #A80036; stroke-width: 1.0;"/><polygon fill="#A80036" points="279.539,665.974,273.0119,658.5986,274.9903,663.8982,269.6906,665.8766,279.539,665.974" style="stroke: #A80036; stroke-width: 1.0;"/><!--MD5=[9efc8d4cd4378f503c18290018eaecfb]
link #952 to Unfortunately you won't be ready in time, \n but you have very extensive tests.--><path d="M451,420.145 C451,432.3 451,452.227 451,468.744 " fill="none" id="#952-to-Unfortunately you won't be ready in time, \n but you have very extensive tests." style="stroke: #A80036; stroke-width: 1.0;"/><polygon fill="#A80036" points="451,473.748,455,464.748,451,468.748,447,464.748,451,473.748" style="stroke: #A80036; stroke-width: 1.0;"/><text fill="#000000" font-family="sans-serif" font-size="11" lengthAdjust="spacingAndGlyphs" textLength="223" x="452" y="451.2104">random + programming + decision &lt; 8</text><!--MD5=[23f41f0da5032eabf55dfaa42c314bac]
link Unfortunately you won't be ready in time, \n but you have very extensive tests. to Yaggaya is satisfied with your tests \n and your approach, \even though you did not finish in time.--><path d="M451,522.236 C451,535.003 451,550.945 451,564.463 " fill="none" id="Unfortunately you won't be ready in time, \n but you have very extensive tests.-to-Yaggaya is satisfied with your tests \n and your approach, \even though you did not finish in time." style="stroke: #A80036; stroke-width: 1.0;"/><polygon fill="#A80036" points="451,569.706,455,560.706,451,564.706,447,560.706,451,569.706" style="stroke: #A80036; stroke-width: 1.0;"/><!--MD5=[32a4fbaa1e19a7d4940c5c0dbbfc56ab]
link Yaggaya is satisfied with your tests \n and your approach, \even though you did not finish in time. to a2--><path d="M474.236,618.236 C487.455,631.455 504.077,648.077 517.889,661.889 " fill="none" id="Yaggaya is satisfied with your tests \n and your approach, \even though you did not finish in time.-to-a2" style="stroke: #A80036; stroke-width: 1.0;"/><polygon fill="#A80036" points="521.706,665.706,518.1705,656.5136,518.1705,662.1705,512.5136,662.1705,521.706,665.706" style="stroke: #A80036; stroke-width: 1.0;"/><!--MD5=[025532a87ae20d290d0508f966e5768d]
link #947 to d2--><path d="M670.899,233.412 C681.954,238.425 702.331,248.548 717,261 C736.105,277.217 753.733,299.904 765.269,316.263 " fill="none" id="#947-to-d2" style="stroke: #A80036; stroke-width: 1.0;"/><polygon fill="#A80036" points="768.357,320.699,766.4979,311.0272,765.5003,316.5954,759.9321,315.5979,768.357,320.699" style="stroke: #A80036; stroke-width: 1.0;"/><text fill="#000000" font-family="sans-serif" font-size="11" lengthAdjust="spacingAndGlyphs" textLength="102" x="790.5" y="272.2104">You plan the time</text><text fill="#000000" font-family="sans-serif" font-size="11" lengthAdjust="spacingAndGlyphs" textLength="169" x="759" y="285.0151">until the deadline and write it</text><text fill="#000000" font-family="sans-serif" font-size="11" lengthAdjust="spacingAndGlyphs" textLength="168" x="761.5" y="297.8198">until the deadline is reached.</text><!--MD5=[9f60078a66fcacef9cf13efe131d9514]
link d2 to #969--><path d="M782.555,355.115 C785.086,366.591 788.456,381.866 790.882,392.867 " fill="none" id="d2-to-#969" style="stroke: #A80036; stroke-width: 1.0;"/><polygon fill="#A80036" points="791.99,397.889,793.9573,388.2386,790.9129,393.0064,786.1452,389.962,791.99,397.889" style="stroke: #A80036; stroke-width: 1.0;"/><text fill="#000000" font-family="sans-serif" font-size="11" lengthAdjust="spacingAndGlyphs" textLength="0" x="789.2331" y="385.2997"/><!--MD5=[b2e76d6afedc968591a24037cac716fd]
link #969 to Due to very good programming skills \n you have extensive tests despite the short time.--><path d="M794,420.145 C794,432.3 794,452.227 794,468.744 " fill="none" id="#969-to-Due to very good programming skills \n you have extensive tests despite the short time." style="stroke: #A80036; stroke-width: 1.0;"/><polygon fill="#A80036" points="794,473.748,798,464.748,794,468.748,790,464.748,794,473.748" style="stroke: #A80036; stroke-width: 1.0;"/><text fill="#000000" font-family="sans-serif" font-size="11" lengthAdjust="spacingAndGlyphs" textLength="232" x="795" y="451.2104">random + programming + decision &gt;= 8</text><!--MD5=[11971906ca403b11efae95b654c63a1c]
link Due to very good programming skills \n you have extensive tests despite the short time. to Yaggaya is very satisfied with your work.--><path d="M794,522.236 C794,537.343 794,556.896 794,571.619 " fill="none" id="Due to very good programming skills \n you have extensive tests despite the short time.-to-Yaggaya is very satisfied with your work." style="stroke: #A80036; stroke-width: 1.0;"/><polygon fill="#A80036" points="794,576.807,798,567.807,794,571.807,790,567.807,794,576.807" style="stroke: #A80036; stroke-width: 1.0;"/><!--MD5=[37690f0d64da2bbb8684767e6c2a41ba]
link Yaggaya is very satisfied with your work. to a3--><path d="M778.846,611.374 C764,627.414 741.353,651.883 725.464,669.051 " fill="none" id="Yaggaya is very satisfied with your work.-to-a3" style="stroke: #A80036; stroke-width: 1.0;"/><polygon fill="#A80036" points="721.981,672.814,731.0301,668.9263,725.3774,669.1446,725.1591,663.492,721.981,672.814" style="stroke: #A80036; stroke-width: 1.0;"/><!--MD5=[2f50bf6dc471bcd43bb4ea4798d035bf]
link #969 to You may be finished, but your \n tests are not sufficient.--><path d="M804.754,409.33 C845.903,410.752 993.053,417.353 1033,440 C1045.2,446.917 1055.29,458.584 1062.81,469.568 " fill="none" id="#969-to-You may be finished, but your \n tests are not sufficient." style="stroke: #A80036; stroke-width: 1.0;"/><polygon fill="#A80036" points="1065.66,473.893,1064.039,464.1785,1062.905,469.7205,1057.363,468.5865,1065.66,473.893" style="stroke: #A80036; stroke-width: 1.0;"/><text fill="#000000" font-family="sans-serif" font-size="11" lengthAdjust="spacingAndGlyphs" textLength="223" x="1051" y="451.2104">random + programming + decision &lt; 8</text><!--MD5=[fd94a3e0dd7425acc45ff6b68ec421a8]
link You may be finished, but your \n tests are not sufficient. to Yaggaya is not satisfied with your work, \n you have to revise your tests again \n and exceed the deadline by a few days.--><path d="M1078.74,522.236 C1079.08,532.987 1079.5,545.99 1079.88,557.9 " fill="none" id="You may be finished, but your \n tests are not sufficient.-to-Yaggaya is not satisfied with your work, \n you have to revise your tests again \n and exceed the deadline by a few days." style="stroke: #A80036; stroke-width: 1.0;"/><polygon fill="#A80036" points="1080.04,562.929,1083.7501,553.8057,1079.8801,557.9316,1075.7542,554.0615,1080.04,562.929" style="stroke: #A80036; stroke-width: 1.0;"/><!--MD5=[96c8059b6df64c7f3150e88c468b4e04]
link Yaggaya is not satisfied with your work, \n you have to revise your tests again \n and exceed the deadline by a few days. to a4--><path d="M1021.64,625.001 C992.011,639.973 957.122,657.605 931.474,670.567 " fill="none" id="Yaggaya is not satisfied with your work, \n you have to revise your tests again \n and exceed the deadline by a few days.-to-a4" style="stroke: #A80036; stroke-width: 1.0;"/><polygon fill="#A80036" points="926.796,672.931,936.6327,672.4411,931.2584,670.6755,933.0239,665.3012,926.796,672.931" style="stroke: #A80036; stroke-width: 1.0;"/><!--MD5=[7e914e7ce59e95b3ab5867aef29a59e0]
link a1 to ta--><path d="M393.136,708.064 C442.71,721.462 511.47,740.046 561.413,753.544 " fill="none" id="a1-to-ta" style="stroke: #A80036; stroke-width: 1.0;"/><polygon fill="#A80036" points="566.491,754.916,558.8477,748.7048,561.6645,753.6104,556.7588,756.4272,566.491,754.916" style="stroke: #A80036; stroke-width: 1.0;"/><!--MD5=[9af4109769aaa9ac75b62d200e6d86be]
link a2 to ta--><path d="M568.429,714.139 C580.266,725.831 594.486,739.875 605.831,751.08 " fill="none" id="a2-to-ta" style="stroke: #A80036; stroke-width: 1.0;"/><polygon fill="#A80036" points="609.561,754.764,605.9661,745.5947,606.0027,751.2514,600.3459,751.288,609.561,754.764" style="stroke: #A80036; stroke-width: 1.0;"/><!--MD5=[9504ecf43b0fcc7a32a5b9b20866486e]
link a3 to ta--><path d="M690.608,707.189 C677.763,719.876 659.83,737.587 646.116,751.133 " fill="none" id="a3-to-ta" style="stroke: #A80036; stroke-width: 1.0;"/><polygon fill="#A80036" points="642.367,754.835,651.5814,751.3571,645.9246,751.3217,645.96,745.6649,642.367,754.835" style="stroke: #A80036; stroke-width: 1.0;"/><!--MD5=[afa29921e89968f8b0be0f0c1e498ebb]
link a4 to ta--><path d="M840.887,707.093 C795.739,720.52 731.501,739.624 685.033,753.444 " fill="none" id="a4-to-ta" style="stroke: #A80036; stroke-width: 1.0;"/><polygon fill="#A80036" points="680.026,754.933,689.7929,756.2009,684.8185,753.5074,687.512,748.533,680.026,754.933" style="stroke: #A80036; stroke-width: 1.0;"/><!--MD5=[a1970d4275e406c18de9c71566bc788f]
link ta to Company Party--><path d="M626,789.2011 C626,799.6917 626,813.4627 626,824.8176 " fill="none" id="ta-to-Company Party" style="stroke: #0000FF; stroke-width: 1.0; stroke-dasharray: 1.0,3.0;"/><polygon fill="#0000FF" points="626,829.8442,630,820.8442,626,824.8442,622,820.8442,626,829.8442" style="stroke: #0000FF; stroke-width: 1.0;"/><!--MD5=[20b31b4b07a8f34c94ec5bcdcebab66f]
@startuml
(*) - -> "After completing your task, you must now write the corresponding tests."
- -> "How do you want to proceed?" as wie
if "" then
- -> [You write extensive tests \n until they are ready, \n regardless of the deadline.] "Decision +2" as d1
if " " then 
- -> [random + programming + decision >=8] "Due to your good programming skills \n you will still be ready in time"
- -> "Yaggaya is very pleased \n with your approach and your tests."
- -> "+1 programming \n +3 analytics" as a1
else 
- -> [random + programming + decision < 8] "Unfortunately you won't be ready in time, \n but you have very extensive tests."
- -> "Yaggaya is satisfied with your tests \n and your approach, \even though you did not finish in time."
- -> "+2 programming \n +2 analytics" as a2
endif
else
 - -> [You plan the time \n until the deadline and write it \n until the deadline is reached.] "Decision -1" as d2
if " " then 
- -> [random + programming + decision >= 8] "Due to very good programming skills \n you have extensive tests despite the short time."
- -> "Yaggaya is very satisfied with your work."
- -> "+2 programming" as a3
else 
- -> [random + programming + decision < 8] "You may be finished, but your \n tests are not sufficient."
- -> "Yaggaya is not satisfied with your work, \n you have to revise your tests again \n and exceed the deadline by a few days."
- -> "+1 programming" as a4
endif
endif

a1 - -> "Tests completed" as ta
a2 - -> ta
a3 - -> ta
a4 - -> ta
ta -[#blue,dotted]-> "Company Party"
@enduml

PlantUML version 1.2020.20beta13(Unknown compile time)
(GPL source distribution)
Java Runtime: Java(TM) SE Runtime Environment
JVM: Java HotSpot(TM) 64-Bit Server VM
Default Encoding: UTF-8
Language: en
Country: US
--></g></svg>