<?xml version="1.0" encoding="UTF-8" standalone="no"?><svg xmlns="http://www.w3.org/2000/svg" xmlns:xlink="http://www.w3.org/1999/xlink" contentScriptType="application/ecmascript" contentStyleType="text/css" height="997px" preserveAspectRatio="none" style="width:504px;height:997px;" version="1.1" viewBox="0 0 504 997" width="504px" zoomAndPan="magnify"><defs><filter height="300%" id="f1kn6ou1fq34hp" width="300%" x="-1" y="-1"><feGaussianBlur result="blurOut" stdDeviation="2.0"/><feColorMatrix in="blurOut" result="blurOut2" type="matrix" values="0 0 0 0 0 0 0 0 0 0 0 0 0 0 0 0 0 0 .4 0"/><feOffset dx="4.0" dy="4.0" in="blurOut2" result="blurOut3"/><feBlend in="SourceGraphic" in2="blurOut3" mode="normal"/></filter></defs><g><ellipse cx="237.0915" cy="16" fill="#000000" filter="url(#f1kn6ou1fq34hp)" rx="10" ry="10" style="stroke: none; stroke-width: 1.0;"/><rect fill="#FEFECE" filter="url(#f1kn6ou1fq34hp)" height="33.9688" rx="12.5" ry="12.5" style="stroke: #A80036; stroke-width: 1.5;" width="137" x="168.5915" y="67"/><text fill="#000000" font-family="sans-serif" font-size="12" lengthAdjust="spacingAndGlyphs" textLength="117" x="178.5915" y="88.1387">Character selection</text><polygon fill="#FEFECE" filter="url(#f1kn6ou1fq34hp)" points="237.0915,142,249.0915,154,237.0915,166,225.0915,154,237.0915,142" style="stroke: #A80036; stroke-width: 1.5;"/><rect fill="#FEFECE" filter="url(#f1kn6ou1fq34hp)" height="33.9688" rx="12.5" ry="12.5" style="stroke: #A80036; stroke-width: 1.5;" width="113" x="180.5915" y="220"/><text fill="#000000" font-family="sans-serif" font-size="12" lengthAdjust="spacingAndGlyphs" textLength="93" x="190.5915" y="241.1387">Elective course</text><polygon fill="#FEFECE" filter="url(#f1kn6ou1fq34hp)" points="237.0915,295,249.0915,307,237.0915,319,225.0915,307,237.0915,295" style="stroke: #A80036; stroke-width: 1.5;"/><rect fill="#FEFECE" filter="url(#f1kn6ou1fq34hp)" height="33.9688" rx="12.5" ry="12.5" style="stroke: #A80036; stroke-width: 1.5;" width="139" x="167.5915" y="386"/><text fill="#000000" font-family="sans-serif" font-size="12" lengthAdjust="spacingAndGlyphs" textLength="119" x="177.5915" y="407.1387">Company internship</text><polygon fill="#FEFECE" filter="url(#f1kn6ou1fq34hp)" points="237.0915,461,249.0915,473,237.0915,485,225.0915,473,237.0915,461" style="stroke: #A80036; stroke-width: 1.5;"/><rect fill="#FEFECE" filter="url(#f1kn6ou1fq34hp)" height="33.9688" rx="12.5" ry="12.5" style="stroke: #A80036; stroke-width: 1.5;" width="119" x="135.5915" y="505"/><text fill="#000000" font-family="sans-serif" font-size="12" lengthAdjust="spacingAndGlyphs" textLength="99" x="145.5915" y="526.1387">Gain experience</text><rect fill="#FEFECE" filter="url(#f1kn6ou1fq34hp)" height="33.9688" rx="12.5" ry="12.5" style="stroke: #A80036; stroke-width: 1.5;" width="85" x="194.5915" y="559"/><text fill="#000000" font-family="sans-serif" font-size="12" lengthAdjust="spacingAndGlyphs" textLength="65" x="204.5915" y="580.1387">Graduation</text><rect fill="#FEFECE" filter="url(#f1kn6ou1fq34hp)" height="33.9688" rx="12.5" ry="12.5" style="stroke: #A80036; stroke-width: 1.5;" width="93" x="190.5915" y="634"/><text fill="#000000" font-family="sans-serif" font-size="12" lengthAdjust="spacingAndGlyphs" textLength="73" x="200.5915" y="655.1387">First project</text><rect fill="#FEFECE" filter="url(#f1kn6ou1fq34hp)" height="33.9688" rx="12.5" ry="12.5" style="stroke: #A80036; stroke-width: 1.5;" width="75" x="199.5915" y="709"/><text fill="#000000" font-family="sans-serif" font-size="12" lengthAdjust="spacingAndGlyphs" textLength="55" x="209.5915" y="730.1387">First task</text><polygon fill="#FEFECE" filter="url(#f1kn6ou1fq34hp)" points="237.0915,784,249.0915,796,237.0915,808,225.0915,796,237.0915,784" style="stroke: #A80036; stroke-width: 1.5;"/><rect fill="#FEFECE" filter="url(#f1kn6ou1fq34hp)" height="33.9688" rx="12.5" ry="12.5" style="stroke: #A80036; stroke-width: 1.5;" width="86" x="194.0915" y="875"/><text fill="#000000" font-family="sans-serif" font-size="12" lengthAdjust="spacingAndGlyphs" textLength="66" x="204.0915" y="896.1387">Write tests</text><rect fill="#FEFECE" filter="url(#f1kn6ou1fq34hp)" height="33.9688" rx="12.5" ry="12.5" style="stroke: #A80036; stroke-width: 1.5;" width="32" x="221.0915" y="950"/><text fill="#000000" font-family="sans-serif" font-size="12" lengthAdjust="spacingAndGlyphs" textLength="0" x="243.0915" y="971.1387"/><!--MD5=[c7036ab0e77ba59aba395186f0d6db7b]
link start to Character selection--><path d="M237.0915,26.177 C237.0915,35.269 237.0915,49.527 237.0915,61.485 " fill="none" id="start-to-Character selection" style="stroke: #A80036; stroke-width: 1.0;"/><polygon fill="#A80036" points="237.0915,66.791,241.0915,57.791,237.0915,61.791,233.0915,57.791,237.0915,66.791" style="stroke: #A80036; stroke-width: 1.0;"/><!--MD5=[85597c0cd2cd3244cebdff32743dabb8]
link Character selection to #225922--><path d="M237.0915,101.115 C237.0915,111.916 237.0915,126.082 237.0915,136.883 " fill="none" id="Character selection-to-#225922" style="stroke: #A80036; stroke-width: 1.0;"/><polygon fill="#A80036" points="237.0915,141.885,241.0915,132.885,237.0915,136.885,233.0915,132.885,237.0915,141.885" style="stroke: #A80036; stroke-width: 1.0;"/><text fill="#000000" font-family="sans-serif" font-size="11" lengthAdjust="spacingAndGlyphs" textLength="0" x="236.1165" y="131.4605"/><!--MD5=[b96703d6265d4d721694a0de3d26fe94]
link #225922 to wpf--><path d="M225.7445,154.693 C183.8295,153.825 38.6641,153.26 10.0913,186 C6,190.688 6.0508,195.268 10.0913,200 C30.9362,224.411 115.2445,232.358 175.0105,234.893 " fill="none" id="#225922-to-wpf" style="stroke: #A80036; stroke-width: 1.0;"/><polygon fill="#A80036" points="180.3525,235.108,171.521,230.7487,175.3566,234.9066,171.1987,238.7422,180.3525,235.108" style="stroke: #A80036; stroke-width: 1.0;"/><text fill="#000000" font-family="sans-serif" font-size="11" lengthAdjust="spacingAndGlyphs" textLength="64" x="11.0913" y="197.2104">character 1</text><!--MD5=[b96703d6265d4d721694a0de3d26fe94]
link #225922 to wpf--><path d="M226.6175,155.751 C197.5325,158.074 116.8725,166.217 101.0913,186 C77.4035,215.695 128.9745,227.755 175.2655,232.652 " fill="none" id="#225922-to-wpf-1" style="stroke: #A80036; stroke-width: 1.0;"/><polygon fill="#A80036" points="180.3005,233.16,171.7471,228.2775,175.3257,232.6585,170.9447,236.2372,180.3005,233.16" style="stroke: #A80036; stroke-width: 1.0;"/><text fill="#000000" font-family="sans-serif" font-size="11" lengthAdjust="spacingAndGlyphs" textLength="64" x="102.0913" y="197.2104">character 2</text><!--MD5=[b96703d6265d4d721694a0de3d26fe94]
link #225922 to wpf--><path d="M228.9295,157.86 C218.2145,162.11 199.8575,171.219 192.0915,186 C186.1405,197.325 193.5225,208.114 203.9165,216.751 " fill="none" id="#225922-to-wpf-2" style="stroke: #A80036; stroke-width: 1.0;"/><polygon fill="#A80036" points="207.8635,219.833,203.231,211.1416,203.9224,216.7561,198.3079,217.4475,207.8635,219.833" style="stroke: #A80036; stroke-width: 1.0;"/><text fill="#000000" font-family="sans-serif" font-size="11" lengthAdjust="spacingAndGlyphs" textLength="64" x="193.0915" y="197.2104">character 3</text><!--MD5=[b96703d6265d4d721694a0de3d26fe94]
link #225922 to wpf--><path d="M242.6995,160.564 C248.0925,166.345 255.8845,175.94 259.0915,186 C262.2025,195.759 258.7725,206.182 253.7675,214.973 " fill="none" id="#225922-to-wpf-3" style="stroke: #A80036; stroke-width: 1.0;"/><polygon fill="#A80036" points="250.8565,219.674,258.9966,214.1297,253.4897,215.4235,252.1958,209.9166,250.8565,219.674" style="stroke: #A80036; stroke-width: 1.0;"/><text fill="#000000" font-family="sans-serif" font-size="11" lengthAdjust="spacingAndGlyphs" textLength="64" x="261.0915" y="197.2104">character 4</text><!--MD5=[b96703d6265d4d721694a0de3d26fe94]
link #225922 to wpf--><path d="M248.4745,154.837 C268.9985,155.238 311.8575,159.405 331.0915,186 C344.1915,204.114 323.9355,216.272 298.9165,224.059 " fill="none" id="#225922-to-wpf-4" style="stroke: #A80036; stroke-width: 1.0;"/><polygon fill="#A80036" points="293.8575,225.559,303.6233,226.8357,298.6513,224.1377,301.3492,219.1657,293.8575,225.559" style="stroke: #A80036; stroke-width: 1.0;"/><text fill="#000000" font-family="sans-serif" font-size="11" lengthAdjust="spacingAndGlyphs" textLength="64" x="336.0915" y="197.2104">character 5</text><!--MD5=[b96703d6265d4d721694a0de3d26fe94]
link #225922 to wpf--><path d="M248.0725,155.264 C282.2645,156.34 385.7545,161.594 406.0915,186 C438.2875,224.64 359.4585,234.273 298.9095,236.219 " fill="none" id="#225922-to-wpf-5" style="stroke: #A80036; stroke-width: 1.0;"/><polygon fill="#A80036" points="293.8495,236.365,302.9612,240.1037,298.8474,236.2207,302.7304,232.107,293.8495,236.365" style="stroke: #A80036; stroke-width: 1.0;"/><text fill="#000000" font-family="sans-serif" font-size="11" lengthAdjust="spacingAndGlyphs" textLength="64" x="414.0915" y="197.2104">character 6</text><!--MD5=[4355483a601afb1bf7bfe9c9f38b786b]
link wpf to #225932--><path d="M237.0915,254.115 C237.0915,264.916 237.0915,279.082 237.0915,289.883 " fill="none" id="wpf-to-#225932" style="stroke: #A80036; stroke-width: 1.0;"/><polygon fill="#A80036" points="237.0915,294.885,241.0915,285.885,237.0915,289.885,233.0915,285.885,237.0915,294.885" style="stroke: #A80036; stroke-width: 1.0;"/><text fill="#000000" font-family="sans-serif" font-size="11" lengthAdjust="spacingAndGlyphs" textLength="0" x="236.1165" y="284.4605"/><!--MD5=[cbf6358ae4bbb8b5aa79843a9eee9de2]
link #225932 to fpr--><path d="M226.3025,308.595 C195.4905,310.542 108.2165,317.857 91.0913,339 C66.2795,369.633 114.5745,385.694 162.1385,393.908 " fill="none" id="#225932-to-fpr" style="stroke: #A80036; stroke-width: 1.0;"/><polygon fill="#A80036" points="167.3305,394.775,159.1131,389.346,162.3989,393.9507,157.7942,397.2365,167.3305,394.775" style="stroke: #A80036; stroke-width: 1.0;"/><text fill="#000000" font-family="sans-serif" font-size="11" lengthAdjust="spacingAndGlyphs" textLength="66" x="92.0913" y="350.2104">Introduction</text><text fill="#000000" font-family="sans-serif" font-size="11" lengthAdjust="spacingAndGlyphs" textLength="36" x="107.0913" y="363.0151">to Bali</text><!--MD5=[cbf6358ae4bbb8b5aa79843a9eee9de2]
link #225932 to fpr--><path d="M227.9585,310.296 C215.4675,313.983 193.5325,322.541 184.0915,339 C178.1205,349.409 178.4745,355.395 184.0915,366 C187.5595,372.549 192.8125,378.128 198.6865,382.797 " fill="none" id="#225932-to-fpr-1" style="stroke: #A80036; stroke-width: 1.0;"/><polygon fill="#A80036" points="202.8375,385.886,198.0041,377.3047,198.8259,382.9016,193.229,383.7233,202.8375,385.886" style="stroke: #A80036; stroke-width: 1.0;"/><text fill="#000000" font-family="sans-serif" font-size="11" lengthAdjust="spacingAndGlyphs" textLength="80" x="185.0915" y="350.2104">Requirements</text><text fill="#000000" font-family="sans-serif" font-size="11" lengthAdjust="spacingAndGlyphs" textLength="68" x="191.0915" y="363.0151">Engineering</text><!--MD5=[cbf6358ae4bbb8b5aa79843a9eee9de2]
link #225932 to fpr--><path d="M243.8785,312.527 C251.1985,317.862 262.4275,327.475 267.0915,339 C271.5925,350.124 271.1765,354.717 267.0915,366 C265.0145,371.737 261.5795,377.203 257.7605,382.063 " fill="none" id="#225932-to-fpr-2" style="stroke: #A80036; stroke-width: 1.0;"/><polygon fill="#A80036" points="254.4835,385.997,263.3173,381.6421,257.6837,382.1553,257.1706,376.5218,254.4835,385.997" style="stroke: #A80036; stroke-width: 1.0;"/><text fill="#000000" font-family="sans-serif" font-size="11" lengthAdjust="spacingAndGlyphs" textLength="81" x="295.5915" y="350.2104">Introduction to</text><text fill="#000000" font-family="sans-serif" font-size="11" lengthAdjust="spacingAndGlyphs" textLength="130" x="271.0915" y="363.0151">Software Architectures</text><!--MD5=[cbf6358ae4bbb8b5aa79843a9eee9de2]
link #225932 to fpr--><path d="M248.1365,308.253 C282.5295,309.297 386.6255,314.465 407.0915,339 C438.0135,376.071 370.8665,391.335 312.0595,397.616 " fill="none" id="#225932-to-fpr-3" style="stroke: #A80036; stroke-width: 1.0;"/><polygon fill="#A80036" points="306.7605,398.161,316.1224,401.2195,311.7343,397.6496,315.3042,393.2615,306.7605,398.161" style="stroke: #A80036; stroke-width: 1.0;"/><text fill="#000000" font-family="sans-serif" font-size="11" lengthAdjust="spacingAndGlyphs" textLength="65" x="423.0915" y="350.2104">Usability as</text><text fill="#000000" font-family="sans-serif" font-size="11" lengthAdjust="spacingAndGlyphs" textLength="81" x="415.0915" y="363.0151">success factor</text><!--MD5=[47bae250712c1cb22e48b1b01d698377]
link fpr to #225940--><path d="M237.0915,420.115 C237.0915,430.916 237.0915,445.082 237.0915,455.883 " fill="none" id="fpr-to-#225940" style="stroke: #A80036; stroke-width: 1.0;"/><polygon fill="#A80036" points="237.0915,460.885,241.0915,451.885,237.0915,455.885,233.0915,451.885,237.0915,460.885" style="stroke: #A80036; stroke-width: 1.0;"/><text fill="#000000" font-family="sans-serif" font-size="11" lengthAdjust="spacingAndGlyphs" textLength="0" x="236.1165" y="450.4605"/><!--MD5=[99da6e4dce29e6d930a4f6f42d639e24]
link #225940 to n--><path d="M231.6005,480.144 C226.8725,485.435 219.7755,493.377 213.0915,500.857 " fill="none" id="#225940-to-n" style="stroke: #A80036; stroke-width: 1.0;"/><polygon fill="#A80036" points="209.4385,504.944,218.4178,500.8978,212.7699,501.2155,212.4522,495.5676,209.4385,504.944" style="stroke: #A80036; stroke-width: 1.0;"/><text fill="#000000" font-family="sans-serif" font-size="11" lengthAdjust="spacingAndGlyphs" textLength="21" x="198.3285" y="489.9684">yes</text><!--MD5=[0948f46f514ce15eb97904f4be8b288e]
link n to p--><path d="M208.1505,539.168 C212.0635,544.013 216.4075,549.392 220.5155,554.478 " fill="none" id="n-to-p" style="stroke: #A80036; stroke-width: 1.0;"/><polygon fill="#A80036" points="223.8955,558.663,221.3509,549.1486,220.7533,554.7738,215.1281,554.1762,223.8955,558.663" style="stroke: #A80036; stroke-width: 1.0;"/><!--MD5=[a65fb56816ac257794268361e9a33395]
link #225940 to p--><path d="M242.3005,480.157 C246.9475,486.084 253.4175,495.522 256.0915,505 C260.1935,519.544 259.7245,524.332 256.0915,539 C254.8165,544.145 252.6585,549.365 250.2435,554.175 " fill="none" id="#225940-to-p" style="stroke: #A80036; stroke-width: 1.0;"/><polygon fill="#A80036" points="247.7655,558.83,255.5249,552.7644,250.1146,554.4162,248.4628,549.0059,247.7655,558.83" style="stroke: #A80036; stroke-width: 1.0;"/><text fill="#000000" font-family="sans-serif" font-size="11" lengthAdjust="spacingAndGlyphs" textLength="14" x="259.0915" y="526.2104">no</text><!--MD5=[01a8160c81d4d946b8fce333cd5f8bef]
link p to ep--><path d="M237.0915,593.201 C237.0915,603.692 237.0915,617.463 237.0915,628.818 " fill="none" id="p-to-ep" style="stroke: #A80036; stroke-width: 1.0;"/><polygon fill="#A80036" points="237.0915,633.844,241.0915,624.844,237.0915,628.844,233.0915,624.844,237.0915,633.844" style="stroke: #A80036; stroke-width: 1.0;"/><!--MD5=[f3a0f77004eae6ee9c2ffc3e0bafd324]
link ep to ea--><path d="M237.0915,668.201 C237.0915,678.692 237.0915,692.463 237.0915,703.818 " fill="none" id="ep-to-ea" style="stroke: #A80036; stroke-width: 1.0;"/><polygon fill="#A80036" points="237.0915,708.844,241.0915,699.844,237.0915,703.844,233.0915,699.844,237.0915,708.844" style="stroke: #A80036; stroke-width: 1.0;"/><!--MD5=[291bbf8b5fb0a8f0ac45b31e647efc3c]
link ea to #225952--><path d="M237.0915,743.115 C237.0915,753.916 237.0915,768.082 237.0915,778.883 " fill="none" id="ea-to-#225952" style="stroke: #A80036; stroke-width: 1.0;"/><polygon fill="#A80036" points="237.0915,783.885,241.0915,774.885,237.0915,778.885,233.0915,774.885,237.0915,783.885" style="stroke: #A80036; stroke-width: 1.0;"/><text fill="#000000" font-family="sans-serif" font-size="11" lengthAdjust="spacingAndGlyphs" textLength="0" x="236.1165" y="773.4605"/><!--MD5=[8bd944e6c8b0ce9545fd6a6aca835145]
link #225952 to ts--><path d="M227.0445,798.212 C211.4835,800.691 182.0045,807.921 169.0915,828 C162.6005,838.093 162.9015,844.72 169.0915,855 C173.9745,863.111 181.3665,869.49 189.5025,874.475 " fill="none" id="#225952-to-ts" style="stroke: #A80036; stroke-width: 1.0;"/><polygon fill="#A80036" points="194.0885,877.102,188.2679,869.1572,189.7501,874.6164,184.2909,876.0986,194.0885,877.102" style="stroke: #A80036; stroke-width: 1.0;"/><text fill="#000000" font-family="sans-serif" font-size="11" lengthAdjust="spacingAndGlyphs" textLength="20" x="180.5915" y="839.2104">Ask</text><text fill="#000000" font-family="sans-serif" font-size="11" lengthAdjust="spacingAndGlyphs" textLength="41" x="170.0915" y="852.0151">mentor</text><!--MD5=[8bd944e6c8b0ce9545fd6a6aca835145]
link #225952 to ts--><path d="M237.0915,808.152 C237.0915,823.266 237.0915,850.557 237.0915,869.673 " fill="none" id="#225952-to-ts-1" style="stroke: #A80036; stroke-width: 1.0;"/><polygon fill="#A80036" points="237.0915,874.831,241.0915,865.831,237.0915,869.831,233.0915,865.831,237.0915,874.831" style="stroke: #A80036; stroke-width: 1.0;"/><text fill="#000000" font-family="sans-serif" font-size="11" lengthAdjust="spacingAndGlyphs" textLength="112" x="238.0915" y="845.7104">Search the internet</text><!--MD5=[8bd944e6c8b0ce9545fd6a6aca835145]
link #225952 to ts--><path d="M247.0565,798.151 C272.5665,801.323 339.1385,811.093 352.0915,828 C359.3895,837.526 359.1965,845.33 352.0915,855 C336.7675,875.854 309.4015,884.9604 285.2085,888.8025 " fill="none" id="#225952-to-ts-2" style="stroke: #A80036; stroke-width: 1.0;"/><polygon fill="#A80036" points="280.1005,889.5449,289.582,892.2099,285.0486,888.8263,288.4322,884.293,280.1005,889.5449" style="stroke: #A80036; stroke-width: 1.0;"/><text fill="#000000" font-family="sans-serif" font-size="11" lengthAdjust="spacingAndGlyphs" textLength="20" x="370.0915" y="839.2104">Just</text><text fill="#000000" font-family="sans-serif" font-size="11" lengthAdjust="spacingAndGlyphs" textLength="44" x="358.0915" y="852.0151">go for it</text><!--MD5=[338acffef7faf58ac591304a55388c92]
link ts to    --><path d="M237.0915,909.2011 C237.0915,919.6917 237.0915,933.4627 237.0915,944.8176 " fill="none" id="ts-to-   " style="stroke: #0000FF; stroke-width: 1.0; stroke-dasharray: 1.0,3.0;"/><polygon fill="#0000FF" points="237.0915,949.8442,241.0915,940.8442,237.0915,944.8442,233.0915,940.8442,237.0915,949.8442" style="stroke: #0000FF; stroke-width: 1.0;"/><!--MD5=[f74cfe64bddac00740939f7463ccecef]
@startuml
(*) - -> "Character selection"
if "" then
- -> [character 1] "Elective course" as wpf
else
- -> [character 2] wpf
else
- -> [character 3] wpf
else
- -> [character 4] wpf
else
- -> [character 5] wpf
else
- -> [character 6] wpf
if "" then
- -> [Introduction\nto Bali] "Company internship" as fpr
else
- -> [Requirements\nEngineering] fpr
else
- -> [Introduction to\nSoftware Architectures] fpr
else
- -> [Usability as\nsuccess factor] fpr
if "" then
-> [yes] "Gain experience" as n
n -> "Graduation" as p
else
- -> [no] p
p - -> "First project" as ep
ep - -> "First task" as ea
if "" then
- -> [Ask\nmentor] "Write tests" as ts
else
- -> [Search the internet] ts
else
- -> [Just\ngo for it] ts
-[#blue,dotted]-> "   "
@enduml

PlantUML version 1.2020.19beta4(Unknown compile time)
(GPL source distribution)
Java Runtime: Java(TM) SE Runtime Environment
JVM: Java HotSpot(TM) 64-Bit Server VM
Default Encoding: UTF-8
Language: en
Country: US
--></g></svg>