<?xml version="1.0" encoding="UTF-8" standalone="no"?><svg xmlns="http://www.w3.org/2000/svg" xmlns:xlink="http://www.w3.org/1999/xlink" contentScriptType="application/ecmascript" contentStyleType="text/css" height="876px" preserveAspectRatio="none" style="width:857px;height:876px;" version="1.1" viewBox="0 0 857 876" width="857px" zoomAndPan="magnify"><defs><filter height="300%" id="f1eytdlt0mf9n" width="300%" x="-1" y="-1"><feGaussianBlur result="blurOut" stdDeviation="2.0"/><feColorMatrix in="blurOut" result="blurOut2" type="matrix" values="0 0 0 0 0 0 0 0 0 0 0 0 0 0 0 0 0 0 .4 0"/><feOffset dx="4.0" dy="4.0" in="blurOut2" result="blurOut3"/><feBlend in="SourceGraphic" in2="blurOut3" mode="normal"/></filter></defs><g><ellipse cx="261.8287" cy="16" fill="#000000" filter="url(#f1eytdlt0mf9n)" rx="10" ry="10" style="stroke: none; stroke-width: 1.0;"/><rect fill="#FEFECE" filter="url(#f1eytdlt0mf9n)" height="33.9688" rx="12.5" ry="12.5" style="stroke: #A80036; stroke-width: 1.5;" width="346" x="88.8284" y="67"/><text fill="#000000" font-family="sans-serif" font-size="12" lengthAdjust="spacingAndGlyphs" textLength="326" x="98.8284" y="88.1387">WizzBook calls and requests changes to the WizzApp</text><rect fill="#FEFECE" filter="url(#f1eytdlt0mf9n)" height="33.9688" rx="12.5" ry="12.5" style="stroke: #A80036; stroke-width: 1.5;" width="380" x="71.8284" y="142"/><text fill="#000000" font-family="sans-serif" font-size="12" lengthAdjust="spacingAndGlyphs" textLength="360" x="81.8284" y="163.1387">You take the call and listen to WizzBook's change requests.</text><rect fill="#FEFECE" filter="url(#f1eytdlt0mf9n)" height="33.9688" rx="12.5" ry="12.5" style="stroke: #A80036; stroke-width: 1.5;" width="409" x="57.3284" y="217"/><text fill="#000000" font-family="sans-serif" font-size="12" lengthAdjust="spacingAndGlyphs" textLength="385" x="67.3284" y="238.1387">WizzBook tells you to implement the changes. What do you do?</text><polygon fill="#FEFECE" filter="url(#f1eytdlt0mf9n)" points="261.8287,292,273.8287,304,261.8287,316,249.8287,304,261.8287,292" style="stroke: #A80036; stroke-width: 1.5;"/><rect fill="#FEFECE" filter="url(#f1eytdlt0mf9n)" height="61.9063" rx="12.5" ry="12.5" style="stroke: #A80036; stroke-width: 1.5;" width="154" x="20.8284" y="417"/><text fill="#000000" font-family="sans-serif" font-size="12" lengthAdjust="spacingAndGlyphs" textLength="102" x="46.8284" y="438.1387">You just hang up.</text><text fill="#000000" font-family="sans-serif" font-size="12" lengthAdjust="spacingAndGlyphs" textLength="126" x="34.8284" y="452.1074">Your stats decrease:</text><text fill="#000000" font-family="sans-serif" font-size="12" lengthAdjust="spacingAndGlyphs" textLength="107" x="46.3284" y="466.0762">-3 communication</text><rect fill="#FEFECE" filter="url(#f1eytdlt0mf9n)" height="47.9375" rx="12.5" ry="12.5" style="stroke: #A80036; stroke-width: 1.5;" width="127" x="182.3287" y="567"/><text fill="#000000" font-family="sans-serif" font-size="12" lengthAdjust="spacingAndGlyphs" textLength="83" x="202.3287" y="588.1387">You get stats:</text><text fill="#000000" font-family="sans-serif" font-size="12" lengthAdjust="spacingAndGlyphs" textLength="103" x="196.3287" y="602.1074">+2 programming</text><polygon fill="#FEFECE" filter="url(#f1eytdlt0mf9n)" points="411.8287,371.5,423.8287,383.5,411.8287,395.5,399.8287,383.5,411.8287,371.5" style="stroke: #A80036; stroke-width: 1.5;"/><rect fill="#FEFECE" filter="url(#f1eytdlt0mf9n)" height="47.9375" rx="12.5" ry="12.5" style="stroke: #A80036; stroke-width: 1.5;" width="244" x="292.8287" y="499"/><text fill="#000000" font-family="sans-serif" font-size="12" lengthAdjust="spacingAndGlyphs" textLength="220" x="302.8287" y="520.1387">The change cannot be implemented.</text><text fill="#000000" font-family="sans-serif" font-size="12" lengthAdjust="spacingAndGlyphs" textLength="183" x="325.3287" y="534.1074">How do you want to proceed?</text><polygon fill="#FEFECE" filter="url(#f1eytdlt0mf9n)" points="414.8287,635,426.8287,647,414.8287,659,402.8287,647,414.8287,635" style="stroke: #A80036; stroke-width: 1.5;"/><rect fill="#FEFECE" filter="url(#f1eytdlt0mf9n)" height="61.9063" rx="12.5" ry="12.5" style="stroke: #A80036; stroke-width: 1.5;" width="307" x="219.3287" y="726"/><text fill="#000000" font-family="sans-serif" font-size="12" lengthAdjust="spacingAndGlyphs" textLength="283" x="229.3287" y="747.1387">You call the customer and explain the situation.</text><text fill="#000000" font-family="sans-serif" font-size="12" lengthAdjust="spacingAndGlyphs" textLength="109" x="318.3287" y="761.1074">You receive stats:</text><text fill="#000000" font-family="sans-serif" font-size="12" lengthAdjust="spacingAndGlyphs" textLength="111" x="319.3287" y="775.0762">+1 communication</text><rect fill="#FEFECE" filter="url(#f1eytdlt0mf9n)" height="61.9063" rx="12.5" ry="12.5" style="stroke: #A80036; stroke-width: 1.5;" width="282" x="546.8287" y="726"/><text fill="#000000" font-family="sans-serif" font-size="12" lengthAdjust="spacingAndGlyphs" textLength="262" x="556.8287" y="747.1387">You have no desire to inform the customer.</text><text fill="#000000" font-family="sans-serif" font-size="12" lengthAdjust="spacingAndGlyphs" textLength="132" x="621.8287" y="761.1074">You will receive stats:</text><text fill="#000000" font-family="sans-serif" font-size="12" lengthAdjust="spacingAndGlyphs" textLength="107" x="636.3287" y="775.0762">-2 communication</text><rect fill="#FEFECE" filter="url(#f1eytdlt0mf9n)" height="33.9688" rx="12.5" ry="12.5" style="stroke: #A80036; stroke-width: 1.5;" width="140" x="170.8287" y="829"/><text fill="#000000" font-family="sans-serif" font-size="12" lengthAdjust="spacingAndGlyphs" textLength="120" x="180.8287" y="850.1387">A bug has surfaced.</text><!--MD5=[96fa72c7f2e3e8a865b2ecf97e2be98c]
link start to app--><path d="M261.8287,26.177 C261.8287,35.269 261.8287,49.527 261.8287,61.485 " fill="none" id="start-to-app" style="stroke: #A80036; stroke-width: 1.0;"/><polygon fill="#A80036" points="261.8287,66.791,265.8287,57.791,261.8287,61.791,257.8287,57.791,261.8287,66.791" style="stroke: #A80036; stroke-width: 1.0;"/><!--MD5=[dbf523b02023aac23acde51cb9ee8c36]
link app to You take the call and listen to WizzBook's change requests.--><path d="M261.8287,101.201 C261.8287,111.692 261.8287,125.463 261.8287,136.818 " fill="none" id="app-to-You take the call and listen to WizzBook's change requests." style="stroke: #A80036; stroke-width: 1.0;"/><polygon fill="#A80036" points="261.8287,141.844,265.8287,132.844,261.8287,136.844,257.8287,132.844,261.8287,141.844" style="stroke: #A80036; stroke-width: 1.0;"/><!--MD5=[26aadbb1c5ce6cb7f10b39ad128a6d67]
link You take the call and listen to WizzBook's change requests. to WizzBook tells you to implement the changes. What do you do? --><path d="M261.8287,176.201 C261.8287,186.692 261.8287,200.463 261.8287,211.818 " fill="none" id="You take the call and listen to WizzBook's change requests.-to-WizzBook tells you to implement the changes. What do you do? " style="stroke: #A80036; stroke-width: 1.0;"/><polygon fill="#A80036" points="261.8287,216.844,265.8287,207.844,261.8287,211.844,257.8287,207.844,261.8287,216.844" style="stroke: #A80036; stroke-width: 1.0;"/><!--MD5=[57f65459d8f11e95afb60ccbf55ed6b7]
link WizzBook tells you to implement the changes. What do you do?  to #1431160--><path d="M261.8287,251.115 C261.8287,261.916 261.8287,276.082 261.8287,286.883 " fill="none" id="WizzBook tells you to implement the changes. What do you do? -to-#1431160" style="stroke: #A80036; stroke-width: 1.0;"/><polygon fill="#A80036" points="261.8287,291.885,265.8287,282.885,261.8287,286.885,257.8287,282.885,261.8287,291.885" style="stroke: #A80036; stroke-width: 1.0;"/><text fill="#000000" font-family="sans-serif" font-size="11" lengthAdjust="spacingAndGlyphs" textLength="0" x="260.8537" y="281.4605"/><!--MD5=[91e045dc7a2bc161b83cbf0d341e35c5]
link #1431160 to a1--><path d="M250.3817,304.632 C207.3947,303.519 56.5351,302.117 26.8284,336 C6,359.756 28.3104,390.187 53.2753,413.176 " fill="none" id="#1431160-to-a1" style="stroke: #A80036; stroke-width: 1.0;"/><polygon fill="#A80036" points="57.2986,416.8,53.2875,407.8049,53.5831,413.4541,47.934,413.7497,57.2986,416.8" style="stroke: #A80036; stroke-width: 1.0;"/><text fill="#000000" font-family="sans-serif" font-size="11" lengthAdjust="spacingAndGlyphs" textLength="217" x="27.8284" y="347.2104">You don't feel like it and just hang up.</text><!--MD5=[9595a5561c63da990899cff32fd05e45]
link #1431160 to a2--><path d="M261.2397,315.481 C258.9907,355.547 250.8887,499.855 247.4217,561.623 " fill="none" id="#1431160-to-a2" style="stroke: #A80036; stroke-width: 1.0;"/><polygon fill="#A80036" points="247.1207,566.985,251.6185,558.2232,247.4007,561.9928,243.6311,557.7751,247.1207,566.985" style="stroke: #A80036; stroke-width: 1.0;"/><text fill="#000000" font-family="sans-serif" font-size="11" lengthAdjust="spacingAndGlyphs" textLength="110" x="259.8287" y="381.2104">You implement the</text><text fill="#000000" font-family="sans-serif" font-size="11" lengthAdjust="spacingAndGlyphs" textLength="89" x="274.3287" y="394.0151">desired change</text><!--MD5=[e01623683ba689d8aff17a61a09d37bf]
link #1431160 to #1431167--><path d="M269.4727,308.95 C293.8537,321.546 369.9057,360.84 399.6907,376.229 " fill="none" id="#1431160-to-#1431167" style="stroke: #A80036; stroke-width: 1.0;"/><polygon fill="#A80036" points="404.3767,378.65,398.2153,370.9664,399.9341,376.3558,394.5447,378.0746,404.3767,378.65" style="stroke: #A80036; stroke-width: 1.0;"/><text fill="#000000" font-family="sans-serif" font-size="11" lengthAdjust="spacingAndGlyphs" textLength="91" x="493.8021" y="359.2795">You realize that</text><text fill="#000000" font-family="sans-serif" font-size="11" lengthAdjust="spacingAndGlyphs" textLength="215" x="435.8021" y="372.0842">the change is technically not feasible</text><!--MD5=[b5419652265686d94ff6f8cbd6ca257b]
link #1431167 to The change cannot be implemented. \n How do you want to proceed?--><path d="M412.0637,395.289 C412.5217,416.296 413.5477,463.291 414.2127,493.768 " fill="none" id="#1431167-to-The change cannot be implemented. \n How do you want to proceed?" style="stroke: #A80036; stroke-width: 1.0;"/><polygon fill="#A80036" points="414.3237,498.884,418.1273,489.7993,414.2151,493.8852,410.1292,489.973,414.3237,498.884" style="stroke: #A80036; stroke-width: 1.0;"/><!--MD5=[26172babcb0fc85dc453092c89980e9b]
link The change cannot be implemented. \n How do you want to proceed? to #1431172--><path d="M414.8287,547.234 C414.8287,571.453 414.8287,608.767 414.8287,629.918 " fill="none" id="The change cannot be implemented. \n How do you want to proceed?-to-#1431172" style="stroke: #A80036; stroke-width: 1.0;"/><polygon fill="#A80036" points="414.8287,634.929,418.8287,625.929,414.8287,629.929,410.8287,625.929,414.8287,634.929" style="stroke: #A80036; stroke-width: 1.0;"/><text fill="#000000" font-family="sans-serif" font-size="11" lengthAdjust="spacingAndGlyphs" textLength="0" x="413.8537" y="624.526"/><!--MD5=[8f9e4eab3ae204d9b26ca1e75ac412e0]
link #1431172 to b1--><path d="M411.6717,656.118 C406.3637,669.765 395.3557,698.073 386.4087,721.079 " fill="none" id="#1431172-to-b1" style="stroke: #A80036; stroke-width: 1.0;"/><polygon fill="#A80036" points="384.5337,725.9,391.5246,718.9626,386.3465,721.2402,384.0689,716.0621,384.5337,725.9" style="stroke: #A80036; stroke-width: 1.0;"/><text fill="#000000" font-family="sans-serif" font-size="11" lengthAdjust="spacingAndGlyphs" textLength="147" x="402.8287" y="696.7104">You inform your customer</text><!--MD5=[59af7e59bf1119b7b34e8c50a14e3a53]
link #1431172 to You have no desire to inform the customer.\n You will receive stats: \n -2 communication--><path d="M425.0587,649.141 C448.7417,652.016 508.9007,660.677 555.8287,679 C585.0267,690.4 615.3897,707.678 639.6227,722.981 " fill="none" id="#1431172-to-You have no desire to inform the customer.\n You will receive stats: \n -2 communication" style="stroke: #A80036; stroke-width: 1.0;"/><polygon fill="#A80036" points="644.0747,725.813,638.6269,717.608,639.8556,723.1298,634.3338,724.3585,644.0747,725.813" style="stroke: #A80036; stroke-width: 1.0;"/><text fill="#000000" font-family="sans-serif" font-size="11" lengthAdjust="spacingAndGlyphs" textLength="237" x="608.8287" y="690.2104">You simply do not implement the change</text><text fill="#000000" font-family="sans-serif" font-size="11" lengthAdjust="spacingAndGlyphs" textLength="178" x="642.3287" y="703.0151">without informing the customer</text><!--MD5=[17f4c0f488bbf9994ac59c71fd37a78f]
link You have no desire to inform the customer.\n You will receive stats: \n -2 communication to bug--><path d="M546.7727,786.0515 C543.4257,786.7083 540.1067,787.3586 536.8287,788 C461.7707,802.6828 375.9457,819.1774 316.1077,830.6302 " fill="none" id="You have no desire to inform the customer.\n You will receive stats: \n -2 communication-to-bug" style="stroke: #0000FF; stroke-width: 1.0; stroke-dasharray: 1.0,3.0;"/><polygon fill="#0000FF" points="311.1237,831.584,320.7152,833.8207,316.0346,830.644,319.2113,825.9634,311.1237,831.584" style="stroke: #0000FF; stroke-width: 1.0;"/><!--MD5=[3bd4a0324147b7ba685d1416b54ad439]
link a1 to bug--><path d="M109.4341,479.026 C119.2837,507.233 131.8287,550.844 131.8287,590 C131.8287,590 131.8287,590 131.8287,758 C131.8287,790.5207 161.8337,812.8653 190.3577,826.7597 " fill="none" id="a1-to-bug" style="stroke: #0000FF; stroke-width: 1.0; stroke-dasharray: 1.0,3.0;"/><polygon fill="#0000FF" points="194.9187,828.9174,188.4942,821.4524,190.3991,826.7789,185.0726,828.6837,194.9187,828.9174" style="stroke: #0000FF; stroke-width: 1.0;"/><!--MD5=[38c1e7149734ef60a4e7d35fe88f17fa]
link a2 to bug--><path d="M234.8687,615.162 C218.8747,652.071 192.7077,726.356 208.8287,788 C212.1947,800.8734 219.1907,813.9115 225.7847,824.263 " fill="none" id="a2-to-bug" style="stroke: #0000FF; stroke-width: 1.0; stroke-dasharray: 1.0,3.0;"/><polygon fill="#0000FF" points="228.5737,828.5265,226.9936,818.8052,225.8363,824.3424,220.2991,823.1851,228.5737,828.5265" style="stroke: #0000FF; stroke-width: 1.0;"/><!--MD5=[c684b662bb96e814449419d928355efd]
link b1 to bug--><path d="M327.0317,788.1842 C308.1097,800.6553 286.7367,814.7423 270.0057,825.7694 " fill="none" id="b1-to-bug" style="stroke: #0000FF; stroke-width: 1.0; stroke-dasharray: 1.0,3.0;"/><polygon fill="#0000FF" points="265.4157,828.7945,275.1316,827.1818,269.5906,826.0431,270.7293,820.502,265.4157,828.7945" style="stroke: #0000FF; stroke-width: 1.0;"/><!--MD5=[6032a1ed61f8635eb037b5fbc48017f4]
@startuml
'Note: the project is not final, just a filler at the moment
(*) - -> "WizzBook calls and requests changes to the WizzApp" as app
- -> "You take the call and listen to WizzBook's change requests."
- -> "WizzBook tells you to implement the changes. What do you do? "
if "" then 
- -> [You don't feel like it and just hang up.] "You just hang up.\n Your stats decrease: \n -3 communication" as a1
else 
- -> [You implement the \n desired change] "You get stats: \n +2 programming" as a2
else
if "You realize that \n the change is technically not feasible"
- -> "The change cannot be implemented. \n How do you want to proceed?"
if "" then 
- -> [You inform your customer] "You call the customer and explain the situation. \n You receive stats: \n +1 communication" as b1
else 
- -> [You simply do not implement the change \n without informing the customer] "You have no desire to inform the customer.\n You will receive stats: \n -2 communication"
-[#blue,dotted]-> "A bug has surfaced." as bug 
a1 -[#blue,dotted]-> bug
a2 -[#blue,dotted]-> bug
b1 -[#blue,dotted]-> bug
@enduml

@startuml
(*) - -> "WizzBook calls and requests changes to the WizzApp" as app
- -> "You take the call and listen to WizzBook's change requests."
- -> "WizzBook tells you to implement the changes. What do you do? "
if "" then 
- -> [You don't feel like it and just hang up.] "You just hang up.\n Your stats decrease: \n -3 communication" as a1
else 
- -> [You implement the \n desired change] "You get stats: \n +2 programming" as a2
else
if "You realize that \n the change is technically not feasible"
- -> "The change cannot be implemented. \n How do you want to proceed?"
if "" then 
- -> [You inform your customer] "You call the customer and explain the situation. \n You receive stats: \n +1 communication" as b1
else 
- -> [You simply do not implement the change \n without informing the customer] "You have no desire to inform the customer.\n You will receive stats: \n -2 communication"
-[#blue,dotted]-> "A bug has surfaced." as bug 
a1 -[#blue,dotted]-> bug
a2 -[#blue,dotted]-> bug
b1 -[#blue,dotted]-> bug
@enduml

PlantUML version 1.2020.20beta13(Unknown compile time)
(GPL source distribution)
Java Runtime: Java(TM) SE Runtime Environment
JVM: Java HotSpot(TM) 64-Bit Server VM
Default Encoding: UTF-8
Language: en
Country: US
--></g></svg>