<?xml version="1.0" encoding="UTF-8" standalone="no"?><svg xmlns="http://www.w3.org/2000/svg" xmlns:xlink="http://www.w3.org/1999/xlink" contentScriptType="application/ecmascript" contentStyleType="text/css" height="370px" preserveAspectRatio="none" style="width:783px;height:370px;" version="1.1" viewBox="0 0 783 370" width="783px" zoomAndPan="magnify"><defs><filter height="300%" id="f1afsmyx4po2ah" width="300%" x="-1" y="-1"><feGaussianBlur result="blurOut" stdDeviation="2.0"/><feColorMatrix in="blurOut" result="blurOut2" type="matrix" values="0 0 0 0 0 0 0 0 0 0 0 0 0 0 0 0 0 0 .4 0"/><feOffset dx="4.0" dy="4.0" in="blurOut2" result="blurOut3"/><feBlend in="SourceGraphic" in2="blurOut3" mode="normal"/></filter></defs><g><ellipse cx="397" cy="16" fill="#000000" filter="url(#f1afsmyx4po2ah)" rx="10" ry="10" style="stroke: none; stroke-width: 1.0;"/><rect fill="#FEFECE" filter="url(#f1afsmyx4po2ah)" height="47.9375" rx="12.5" ry="12.5" style="stroke: #A80036; stroke-width: 1.5;" width="425" x="184.5" y="67"/><text fill="#000000" font-family="sans-serif" font-size="12" lengthAdjust="spacingAndGlyphs" textLength="156" x="317" y="88.1387">The project is completed,</text><text fill="#000000" font-family="sans-serif" font-size="12" lengthAdjust="spacingAndGlyphs" textLength="401" x="198.5" y="102.1074">now the best employees are rewarded with a workshop in Hawaii.</text><polygon fill="#FEFECE" filter="url(#f1afsmyx4po2ah)" points="397,156,409,168,397,180,385,168,397,156" style="stroke: #A80036; stroke-width: 1.5;"/><rect fill="#FEFECE" filter="url(#f1afsmyx4po2ah)" height="47.9375" rx="12.5" ry="12.5" style="stroke: #A80036; stroke-width: 1.5;" width="220" x="7" y="234"/><text fill="#000000" font-family="sans-serif" font-size="12" lengthAdjust="spacingAndGlyphs" textLength="97" x="66.5" y="255.1387">Congratulations,</text><text fill="#000000" font-family="sans-serif" font-size="12" lengthAdjust="spacingAndGlyphs" textLength="196" x="21" y="269.1074">you are invited to the workshop.</text><rect fill="#FEFECE" filter="url(#f1afsmyx4po2ah)" height="47.9375" rx="12.5" ry="12.5" style="stroke: #A80036; stroke-width: 1.5;" width="300" x="247" y="234"/><text fill="#000000" font-family="sans-serif" font-size="12" lengthAdjust="spacingAndGlyphs" textLength="276" x="257" y="255.1387">Unfortunately it was not quite enough for you,</text><text fill="#000000" font-family="sans-serif" font-size="12" lengthAdjust="spacingAndGlyphs" textLength="199" x="299.5" y="269.1074">good luck with your next project.</text><rect fill="#FEFECE" filter="url(#f1afsmyx4po2ah)" height="33.9688" rx="12.5" ry="12.5" style="stroke: #A80036; stroke-width: 1.5;" width="202" x="567" y="241"/><text fill="#000000" font-family="sans-serif" font-size="12" lengthAdjust="spacingAndGlyphs" textLength="182" x="577" y="262.1387">Congratulations, you got fired.</text><rect fill="#FEFECE" filter="url(#f1afsmyx4po2ah)" height="33.9688" rx="12.5" ry="12.5" style="stroke: #A80036; stroke-width: 1.5;" width="71" x="361.5" y="323"/><text fill="#000000" font-family="sans-serif" font-size="12" lengthAdjust="spacingAndGlyphs" textLength="51" x="371.5" y="344.1387">THE END</text><!--MD5=[18d316b4bbce2ddd613fa2e156c92beb]
link start to shop--><path d="M397,26.246 C397,35.108 397,48.951 397,61.477 " fill="none" id="start-to-shop" style="stroke: #A80036; stroke-width: 1.0;"/><polygon fill="#A80036" points="397,66.746,401,57.746,397,61.746,393,57.746,397,66.746" style="stroke: #A80036; stroke-width: 1.0;"/><!--MD5=[315c67198fa439f6b52265c090482278]
link shop to #355516--><path d="M397,115.319 C397,126.744 397,140.228 397,150.558 " fill="none" id="shop-to-#355516" style="stroke: #A80036; stroke-width: 1.0;"/><polygon fill="#A80036" points="397,155.645,401,146.645,397,150.645,393,146.645,397,155.645" style="stroke: #A80036; stroke-width: 1.0;"/><text fill="#000000" font-family="sans-serif" font-size="11" lengthAdjust="spacingAndGlyphs" textLength="0" x="396.075" y="145.5523"/><!--MD5=[5fdf383f9a58ac1eafcd968d7fb74597]
link #355516 to a--><path d="M387.42,170.574 C364.662,174.436 305.687,185.155 258,200 C229.402,208.903 198.462,221.108 172.871,231.941 " fill="none" id="#355516-to-a" style="stroke: #A80036; stroke-width: 1.0;"/><polygon fill="#A80036" points="168.157,233.946,178.0046,234.1032,172.7579,231.9885,174.8726,226.7418,168.157,233.946" style="stroke: #A80036; stroke-width: 1.0;"/><text fill="#000000" font-family="sans-serif" font-size="11" lengthAdjust="spacingAndGlyphs" textLength="132" x="259" y="211.2104">Anzahl aller Stats &gt; 15</text><!--MD5=[c7fcd796c8c38485c30538d3c0506a12]
link #355516 to b--><path d="M397,180.145 C397,192.3 397,212.227 397,228.744 " fill="none" id="#355516-to-b" style="stroke: #A80036; stroke-width: 1.0;"/><polygon fill="#A80036" points="397,233.748,401,224.748,397,228.748,393,224.748,397,233.748" style="stroke: #A80036; stroke-width: 1.0;"/><text fill="#000000" font-family="sans-serif" font-size="11" lengthAdjust="spacingAndGlyphs" textLength="187" x="398" y="211.2104">Anzahl aller Stats &lt;= 15 &amp;&amp; &gt; 5</text><!--MD5=[49fe0036cf929825a6a80a4bc6d5a6d0]
link #355516 to Congratulations, you got fired.--><path d="M408.448,168.966 C439.241,169.26 525.911,172.646 591,200 C612.023,208.835 632.615,224.557 647.206,237.254 " fill="none" id="#355516-to-Congratulations, you got fired." style="stroke: #A80036; stroke-width: 1.0;"/><polygon fill="#A80036" points="651.158,240.747,647.0628,231.7899,647.4114,237.436,641.7652,237.7845,651.158,240.747" style="stroke: #A80036; stroke-width: 1.0;"/><text fill="#000000" font-family="sans-serif" font-size="11" lengthAdjust="spacingAndGlyphs" textLength="125" x="617" y="211.2104">Anzahl aller Stats &lt; 5</text><!--MD5=[61d2b4e90016abf7f1a88f56d0972d14]
link Congratulations, you got fired. to ende--><path d="M613.485,275.093 C561.588,290.4131 484.656,313.1237 437.844,326.9429 " fill="none" id="Congratulations, you got fired.-to-ende" style="stroke: #0000FF; stroke-width: 1.0; stroke-dasharray: 1.0,3.0;"/><polygon fill="#0000FF" points="432.849,328.4173,442.6133,329.7053,437.6444,327.0016,440.3481,322.0327,432.849,328.4173" style="stroke: #0000FF; stroke-width: 1.0;"/><!--MD5=[5f01f0a41c3bbf0f3ad364e24735df76]
link a to ende--><path d="M197.612,282.032 C249.62,296.8913 315.049,315.5855 356.464,327.4183 " fill="none" id="a-to-ende" style="stroke: #0000FF; stroke-width: 1.0; stroke-dasharray: 1.0,3.0;"/><polygon fill="#0000FF" points="361.393,328.8266,353.8373,322.5091,356.5852,327.4537,351.6406,330.2016,361.393,328.8266" style="stroke: #0000FF; stroke-width: 1.0;"/><!--MD5=[213d300c695a8e914e0915f419c52792]
link b to ende--><path d="M397,282.1393 C397,293.2433 397,306.4692 397,317.3699 " fill="none" id="b-to-ende" style="stroke: #0000FF; stroke-width: 1.0; stroke-dasharray: 1.0,3.0;"/><polygon fill="#0000FF" points="397,322.5149,401,313.5149,397,317.5149,393,313.5149,397,322.5149" style="stroke: #0000FF; stroke-width: 1.0;"/><!--MD5=[3f63f19acb1f9133e5f6a47bf977bc62]
@startuml
(*) - -> "The project is completed, \n now the best employees are rewarded with a workshop in Hawaii." as shop
if "" then
- -> [Anzahl aller Stats > 15] "Congratulations, \n you are invited to the workshop." as a
else 
- -> [Anzahl aller Stats <= 15 && > 5] "Unfortunately it was not quite enough for you, \n good luck with your next project." as b
else
- -> [Anzahl aller Stats < 5] "Congratulations, you got fired."
-[#blue,dotted]-> "THE END" as ende
a -[#blue,dotted]-> ende
b -[#blue,dotted]-> ende
@enduml

PlantUML version 1.2020.20beta13(Unknown compile time)
(GPL source distribution)
Java Runtime: Java(TM) SE Runtime Environment
JVM: Java HotSpot(TM) 64-Bit Server VM
Default Encoding: UTF-8
Language: en
Country: US
--></g></svg>