<?xml version="1.0" encoding="UTF-8" standalone="no"?><svg xmlns="http://www.w3.org/2000/svg" xmlns:xlink="http://www.w3.org/1999/xlink" contentScriptType="application/ecmascript" contentStyleType="text/css" height="481px" preserveAspectRatio="none" style="width:744px;height:481px;" version="1.1" viewBox="0 0 744 481" width="744px" zoomAndPan="magnify"><defs><filter height="300%" id="f14xklbz2ygfvw" width="300%" x="-1" y="-1"><feGaussianBlur result="blurOut" stdDeviation="2.0"/><feColorMatrix in="blurOut" result="blurOut2" type="matrix" values="0 0 0 0 0 0 0 0 0 0 0 0 0 0 0 0 0 0 .4 0"/><feOffset dx="4.0" dy="4.0" in="blurOut2" result="blurOut3"/><feBlend in="SourceGraphic" in2="blurOut3" mode="normal"/></filter></defs><g><ellipse cx="288.5" cy="16" fill="#000000" filter="url(#f14xklbz2ygfvw)" rx="10" ry="10" style="stroke: none; stroke-width: 1.0;"/><rect fill="#FEFECE" filter="url(#f14xklbz2ygfvw)" height="33.9688" rx="12.5" ry="12.5" style="stroke: #A80036; stroke-width: 1.5;" width="446" x="65.5" y="67"/><text fill="#000000" font-family="sans-serif" font-size="12" lengthAdjust="spacingAndGlyphs" textLength="426" x="75.5" y="88.1387">The aminoa government calls and requests changes to the CoronaApp</text><polygon fill="#FEFECE" filter="url(#f14xklbz2ygfvw)" points="288.5,142,300.5,154,288.5,166,276.5,154,288.5,142" style="stroke: #A80036; stroke-width: 1.5;"/><rect fill="#FEFECE" filter="url(#f14xklbz2ygfvw)" height="47.9375" rx="12.5" ry="12.5" style="stroke: #A80036; stroke-width: 1.5;" width="131" x="7" y="277"/><text fill="#000000" font-family="sans-serif" font-size="12" lengthAdjust="spacingAndGlyphs" textLength="83" x="29" y="298.1387">You get stats:</text><text fill="#000000" font-family="sans-serif" font-size="12" lengthAdjust="spacingAndGlyphs" textLength="107" x="21" y="312.1074">-3 communication</text><rect fill="#FEFECE" filter="url(#f14xklbz2ygfvw)" height="47.9375" rx="12.5" ry="12.5" style="stroke: #A80036; stroke-width: 1.5;" width="127" x="170" y="277"/><text fill="#000000" font-family="sans-serif" font-size="12" lengthAdjust="spacingAndGlyphs" textLength="83" x="190" y="298.1387">You get stats:</text><text fill="#000000" font-family="sans-serif" font-size="12" lengthAdjust="spacingAndGlyphs" textLength="103" x="184" y="312.1074">+2 programming</text><polygon fill="#FEFECE" filter="url(#f14xklbz2ygfvw)" points="420.5,233,432.5,245,420.5,257,408.5,245,420.5,233" style="stroke: #A80036; stroke-width: 1.5;"/><rect fill="#FEFECE" filter="url(#f14xklbz2ygfvw)" height="47.9375" rx="12.5" ry="12.5" style="stroke: #A80036; stroke-width: 1.5;" width="135" x="260" y="345"/><text fill="#000000" font-family="sans-serif" font-size="12" lengthAdjust="spacingAndGlyphs" textLength="109" x="271" y="366.1387">You receive stats:</text><text fill="#000000" font-family="sans-serif" font-size="12" lengthAdjust="spacingAndGlyphs" textLength="111" x="274" y="380.1074">+1 communication</text><rect fill="#FEFECE" filter="url(#f14xklbz2ygfvw)" height="47.9375" rx="12.5" ry="12.5" style="stroke: #A80036; stroke-width: 1.5;" width="156" x="419.5" y="345"/><text fill="#000000" font-family="sans-serif" font-size="12" lengthAdjust="spacingAndGlyphs" textLength="132" x="429.5" y="366.1387">You will receive stats:</text><text fill="#000000" font-family="sans-serif" font-size="12" lengthAdjust="spacingAndGlyphs" textLength="106" x="446.5" y="380.1074">-1 communication</text><rect fill="#FEFECE" filter="url(#f14xklbz2ygfvw)" height="33.9688" rx="12.5" ry="12.5" style="stroke: #A80036; stroke-width: 1.5;" width="140" x="189.5" y="434"/><text fill="#000000" font-family="sans-serif" font-size="12" lengthAdjust="spacingAndGlyphs" textLength="120" x="199.5" y="455.1387">A bug has surfaced.</text><!--MD5=[96fa72c7f2e3e8a865b2ecf97e2be98c]
link start to app--><path d="M288.5,26.177 C288.5,35.269 288.5,49.527 288.5,61.485 " fill="none" id="start-to-app" style="stroke: #A80036; stroke-width: 1.0;"/><polygon fill="#A80036" points="288.5,66.791,292.5,57.791,288.5,61.791,284.5,57.791,288.5,66.791" style="stroke: #A80036; stroke-width: 1.0;"/><!--MD5=[ccfe3c7c81b2b3ec866ec59555af6f64]
link app to #1053303--><path d="M288.5,101.115 C288.5,111.916 288.5,126.082 288.5,136.883 " fill="none" id="app-to-#1053303" style="stroke: #A80036; stroke-width: 1.0;"/><polygon fill="#A80036" points="288.5,141.885,292.5,132.885,288.5,136.885,284.5,132.885,288.5,141.885" style="stroke: #A80036; stroke-width: 1.0;"/><text fill="#000000" font-family="sans-serif" font-size="11" lengthAdjust="spacingAndGlyphs" textLength="0" x="287.525" y="131.4605"/><!--MD5=[337f8549194b2017c5c5c8da4f28b195]
link #1053303 to a1--><path d="M277.822,155.535 C232.702,157.9 59.2696,168.109 43.5,186 C22.4372,209.896 37.8064,246.993 53.0318,272.334 " fill="none" id="#1053303-to-a1" style="stroke: #A80036; stroke-width: 1.0;"/><polygon fill="#A80036" points="55.6657,276.609,54.35,266.8484,53.0429,272.3522,47.5391,271.045,55.6657,276.609" style="stroke: #A80036; stroke-width: 1.0;"/><text fill="#000000" font-family="sans-serif" font-size="11" lengthAdjust="spacingAndGlyphs" textLength="217" x="44.5" y="203.7104">You don't feel like it and just hang up.</text><!--MD5=[7ed57eb99b1fb50633f8719661e01bd2]
link #1053303 to a2--><path d="M285.385,163.211 C277.566,183.825 256.824,238.509 244.059,272.162 " fill="none" id="#1053303-to-a2" style="stroke: #A80036; stroke-width: 1.0;"/><polygon fill="#A80036" points="242.236,276.968,249.1688,269.9726,244.0099,272.2933,241.6893,267.1343,242.236,276.968" style="stroke: #A80036; stroke-width: 1.0;"/><text fill="#000000" font-family="sans-serif" font-size="11" lengthAdjust="spacingAndGlyphs" textLength="110" x="278.5" y="197.2104">You implement the</text><text fill="#000000" font-family="sans-serif" font-size="11" lengthAdjust="spacingAndGlyphs" textLength="89" x="293" y="210.0151">desired change</text><!--MD5=[21bdad3fe2d9748ae51e35cfbf5e6fbd]
link #1053303 to #1053310--><path d="M300.343,154.492 C323.848,154.164 376.612,156.94 405.5,186 C416.407,196.972 419.703,214.776 420.551,227.767 " fill="none" id="#1053303-to-#1053310" style="stroke: #A80036; stroke-width: 1.0;"/><polygon fill="#A80036" points="420.779,233.007,424.3818,223.8408,420.5605,228.0118,416.3894,224.1904,420.779,233.007" style="stroke: #A80036; stroke-width: 1.0;"/><text fill="#000000" font-family="sans-serif" font-size="11" lengthAdjust="spacingAndGlyphs" textLength="153" x="440.4536" y="226.7098">The change is not feasible</text><!--MD5=[24f5e3f77ce31fc1137a27e7ddc620fa]
link #1053310 to b1--><path d="M408.87,245.619 C387.425,245.629 341.975,249.133 321.5,277 C308.364,294.879 311.406,320.449 316.851,339.935 " fill="none" id="#1053310-to-b1" style="stroke: #A80036; stroke-width: 1.0;"/><polygon fill="#A80036" points="318.279,344.749,319.5557,334.9832,316.8577,339.9553,311.8857,337.2573,318.279,344.749" style="stroke: #A80036; stroke-width: 1.0;"/><text fill="#000000" font-family="sans-serif" font-size="11" lengthAdjust="spacingAndGlyphs" textLength="147" x="322.5" y="305.2104">You inform your customer</text><!--MD5=[7c9c09d9b908a98a62d0edf786bc334a]
link #1053310 to You will receive stats: \n -1 communication--><path d="M429.429,248.546 C441.739,252.529 463.733,261.437 475.5,277 C489.119,295.013 494.436,320.278 496.45,339.618 " fill="none" id="#1053310-to-You will receive stats: \n -1 communication" style="stroke: #A80036; stroke-width: 1.0;"/><polygon fill="#A80036" points="496.935,344.904,500.0956,335.576,496.4779,339.9249,492.129,336.3073,496.935,344.904" style="stroke: #A80036; stroke-width: 1.0;"/><text fill="#000000" font-family="sans-serif" font-size="11" lengthAdjust="spacingAndGlyphs" textLength="237" x="495.5" y="298.7104">You simply do not implement the change</text><text fill="#000000" font-family="sans-serif" font-size="11" lengthAdjust="spacingAndGlyphs" textLength="178" x="529" y="311.5151">without informing the customer</text><!--MD5=[588e457aaf45dd46a1730745f5f3755c]
link You will receive stats: \n -1 communication to bug--><path d="M428.98,393.032 C391.808,405.5267 346.569,420.733 312.184,432.2912 " fill="none" id="You will receive stats: \n -1 communication-to-bug" style="stroke: #0000FF; stroke-width: 1.0; stroke-dasharray: 1.0,3.0;"/><polygon fill="#0000FF" points="307.191,433.9693,316.9964,434.8937,311.9305,432.3764,314.4478,427.3105,307.191,433.9693" style="stroke: #0000FF; stroke-width: 1.0;"/><!--MD5=[3bd4a0324147b7ba685d1416b54ad439]
link a1 to bug--><path d="M101.7188,325.125 C138.439,354.187 200.796,403.539 235.092,430.6824 " fill="none" id="a1-to-bug" style="stroke: #0000FF; stroke-width: 1.0; stroke-dasharray: 1.0,3.0;"/><polygon fill="#0000FF" points="239.132,433.8797,234.557,425.1579,235.2113,430.7768,229.5924,431.4311,239.132,433.8797" style="stroke: #0000FF; stroke-width: 1.0;"/><!--MD5=[38c1e7149734ef60a4e7d35fe88f17fa]
link a2 to bug--><path d="M237.562,325.125 C242.543,353.478 250.917,401.1436 255.751,428.6573 " fill="none" id="a2-to-bug" style="stroke: #0000FF; stroke-width: 1.0; stroke-dasharray: 1.0,3.0;"/><polygon fill="#0000FF" points="256.668,433.8797,259.0503,424.3233,255.8028,428.9551,251.171,425.7076,256.668,433.8797" style="stroke: #0000FF; stroke-width: 1.0;"/><!--MD5=[c684b662bb96e814449419d928355efd]
link b1 to bug--><path d="M307.832,393.1393 C298.05,404.6471 286.331,418.4339 276.883,429.5496 " fill="none" id="b1-to-bug" style="stroke: #0000FF; stroke-width: 1.0; stroke-dasharray: 1.0,3.0;"/><polygon fill="#0000FF" points="273.512,433.5149,282.3885,429.2477,276.7501,429.7051,276.2928,424.0668,273.512,433.5149" style="stroke: #0000FF; stroke-width: 1.0;"/><!--MD5=[aeec7071030dc836d12a8743ff37f676]
@startuml
'Note: the project is not final, just a filler at the moment
(*) - -> "The aminoa government calls and requests changes to the CoronaApp" as app
if "" then 
- -> [You don't feel like it and just hang up.] "You get stats: \n -3 communication" as a1
else 
- -> [You implement the \n desired change] "You get stats: \n +2 programming" as a2
else
if "The change is not feasible"
- -> [You inform your customer] "You receive stats: \n +1 communication" as b1
else 
- -> [You simply do not implement the change \n without informing the customer] "You will receive stats: \n -1 communication"
-[#blue,dotted]-> "A bug has surfaced." as bug 
a1 -[#blue,dotted]-> bug
a2 -[#blue,dotted]-> bug
b1 -[#blue,dotted]-> bug
@enduml

@startuml
(*) - -> "The aminoa government calls and requests changes to the CoronaApp" as app
if "" then 
- -> [You don't feel like it and just hang up.] "You get stats: \n -3 communication" as a1
else 
- -> [You implement the \n desired change] "You get stats: \n +2 programming" as a2
else
if "The change is not feasible"
- -> [You inform your customer] "You receive stats: \n +1 communication" as b1
else 
- -> [You simply do not implement the change \n without informing the customer] "You will receive stats: \n -1 communication"
-[#blue,dotted]-> "A bug has surfaced." as bug 
a1 -[#blue,dotted]-> bug
a2 -[#blue,dotted]-> bug
b1 -[#blue,dotted]-> bug
@enduml

PlantUML version 1.2020.20beta13(Unknown compile time)
(GPL source distribution)
Java Runtime: Java(TM) SE Runtime Environment
JVM: Java HotSpot(TM) 64-Bit Server VM
Default Encoding: UTF-8
Language: en
Country: US
--></g></svg>