<?xml version="1.0" encoding="UTF-8" standalone="no"?>
<svg xmlns="http://www.w3.org/2000/svg" xmlns:xlink="http://www.w3.org/1999/xlink" contentScriptType="application/ecmascript" contentStyleType="text/css" height="668px" preserveAspectRatio="none" style="width:659px;height:668px;" version="1.1" viewBox="0 0 659 668" width="659px" zoomAndPan="magnify"><defs><filter height="300%" id="fd1satj09v00h" width="300%" x="-1" y="-1"><feGaussianBlur result="blurOut" stdDeviation="2.0"/><feColorMatrix in="blurOut" result="blurOut2" type="matrix" values="0 0 0 0 0 0 0 0 0 0 0 0 0 0 0 0 0 0 .4 0"/><feOffset dx="4.0" dy="4.0" in="blurOut2" result="blurOut3"/><feBlend in="SourceGraphic" in2="blurOut3" mode="normal"/></filter></defs><g><ellipse cx="241" cy="16" fill="#000000" filter="url(#fd1satj09v00h)" rx="10" ry="10" style="stroke: none; stroke-width: 1.0;"/><rect fill="#FEFECE" filter="url(#fd1satj09v00h)" height="33.9688" rx="12.5" ry="12.5" style="stroke: #A80036; stroke-width: 1.5;" width="140" x="171" y="67"/><text fill="#000000" font-family="sans-serif" font-size="12" lengthAdjust="spacingAndGlyphs" textLength="120" x="181" y="88.1387">A bug has surfaced.</text><rect fill="#FEFECE" filter="url(#fd1satj09v00h)" height="33.9688" rx="12.5" ry="12.5" style="stroke: #A80036; stroke-width: 1.5;" width="248" x="117" y="142"/><text fill="#000000" font-family="sans-serif" font-size="12" lengthAdjust="spacingAndGlyphs" textLength="228" x="127" y="163.1387">So far no one else has found the bug.</text><polygon fill="#FEFECE" filter="url(#fd1satj09v00h)" points="241,217,253,229,241,241,229,229,241,217" style="stroke: #A80036; stroke-width: 1.5;"/><rect fill="#FEFECE" filter="url(#fd1satj09v00h)" height="75.875" rx="12.5" ry="12.5" style="stroke: #A80036; stroke-width: 1.5;" width="282" x="7" y="352"/><text fill="#000000" font-family="sans-serif" font-size="12" lengthAdjust="spacingAndGlyphs" textLength="145" x="73.5" y="373.1387">Yaggaya sees the ticket</text><text fill="#000000" font-family="sans-serif" font-size="12" lengthAdjust="spacingAndGlyphs" textLength="254" x="21" y="387.1074">and passes it on to the appropriate place.</text><text fill="#000000" font-family="sans-serif" font-size="12" lengthAdjust="spacingAndGlyphs" textLength="112" x="92" y="401.0762">Your stats change:</text><text fill="#000000" font-family="sans-serif" font-size="12" lengthAdjust="spacingAndGlyphs" textLength="74" x="113" y="415.0449">+2 analytics</text><polygon fill="#FEFECE" filter="url(#fd1satj09v00h)" points="330,308,342,320,330,332,318,320,330,308" style="stroke: #A80036; stroke-width: 1.5;"/><rect fill="#FEFECE" filter="url(#fd1satj09v00h)" height="117.7813" rx="12.5" ry="12.5" style="stroke: #A80036; stroke-width: 1.5;" width="309" x="175.5" y="448"/><text fill="#000000" font-family="sans-serif" font-size="12" lengthAdjust="spacingAndGlyphs" textLength="196" x="230" y="469.1387">The bug has been found and the</text><text fill="#000000" font-family="sans-serif" font-size="12" lengthAdjust="spacingAndGlyphs" textLength="281" x="189.5" y="483.1074">responsible department thinks that you should</text><text fill="#000000" font-family="sans-serif" font-size="12" lengthAdjust="spacingAndGlyphs" textLength="218" x="221" y="497.0762">have found the bug well in advance,</text><text fill="#000000" font-family="sans-serif" font-size="12" lengthAdjust="spacingAndGlyphs" textLength="217" x="221.5" y="511.0449">since you worked on the code last.:</text><text fill="#000000" font-family="sans-serif" font-size="12" lengthAdjust="spacingAndGlyphs" textLength="112" x="274" y="525.0137">Your stats change:</text><text fill="#000000" font-family="sans-serif" font-size="12" lengthAdjust="spacingAndGlyphs" textLength="107" x="276.5" y="538.9824">-3 communication</text><text fill="#000000" font-family="sans-serif" font-size="12" lengthAdjust="spacingAndGlyphs" textLength="69" x="297.5" y="552.9512">-3 analytics</text><rect fill="#FEFECE" filter="url(#fd1satj09v00h)" height="61.9063" rx="12.5" ry="12.5" style="stroke: #A80036; stroke-width: 1.5;" width="140" x="505" y="476"/><text fill="#000000" font-family="sans-serif" font-size="12" lengthAdjust="spacingAndGlyphs" textLength="101" x="522.5" y="497.1387">Bug is not found.</text><text fill="#000000" font-family="sans-serif" font-size="12" lengthAdjust="spacingAndGlyphs" textLength="112" x="519" y="511.1074">Your stats change:</text><text fill="#000000" font-family="sans-serif" font-size="12" lengthAdjust="spacingAndGlyphs" textLength="69" x="542.5" y="525.0762">-3 analytics</text><rect fill="#FEFECE" filter="url(#fd1satj09v00h)" height="47.9375" rx="12.5" ry="12.5" style="stroke: #A80036; stroke-width: 1.5;" width="414" x="123" y="607"/><text fill="#000000" font-family="sans-serif" font-size="12" lengthAdjust="spacingAndGlyphs" textLength="161" x="247.5" y="628.1387">The project customer calls</text><text fill="#000000" font-family="sans-serif" font-size="12" lengthAdjust="spacingAndGlyphs" textLength="390" x="137" y="642.1074">again and wants to have a completely new feature implemented.</text><!--MD5=[4d8aace394fa76d11717b17b4965f20f]
link start to A bug has surfaced.--><path d="M241,26.177 C241,35.269 241,49.527 241,61.485 " fill="none" id="start-to-A bug has surfaced." style="stroke: #A80036; stroke-width: 1.0;"/><polygon fill="#A80036" points="241,66.791,245,57.791,241,61.791,237,57.791,241,66.791" style="stroke: #A80036; stroke-width: 1.0;"/><!--MD5=[7b77bc043a010d2aacf7a11a2213b8f4]
link A bug has surfaced. to So far no one else has found the bug.--><path d="M241,101.201 C241,111.692 241,125.463 241,136.818 " fill="none" id="A bug has surfaced.-to-So far no one else has found the bug." style="stroke: #A80036; stroke-width: 1.0;"/><polygon fill="#A80036" points="241,141.844,245,132.844,241,136.844,237,132.844,241,141.844" style="stroke: #A80036; stroke-width: 1.0;"/><!--MD5=[2e0ecbca08626af4e6aea81c48b8a61a]
link So far no one else has found the bug. to #787997--><path d="M241,176.115 C241,186.916 241,201.082 241,211.883 " fill="none" id="So far no one else has found the bug.-to-#787997" style="stroke: #A80036; stroke-width: 1.0;"/><polygon fill="#A80036" points="241,216.885,245,207.885,241,211.885,237,207.885,241,216.885" style="stroke: #A80036; stroke-width: 1.0;"/><text fill="#000000" font-family="sans-serif" font-size="11" lengthAdjust="spacingAndGlyphs" textLength="124" x="97.2375" y="209.4495">How do you proceed?</text><!--MD5=[9f8e2f4e2d243e3dff5d48525fe2d540]
link #787997 to y--><path d="M230.233,230.372 C211.632,231.655 173.771,237.219 156,261 C137.869,285.263 136.748,319.883 139.679,347.002 " fill="none" id="#787997-to-y" style="stroke: #A80036; stroke-width: 1.0;"/><polygon fill="#A80036" points="140.27,351.974,143.1802,342.5649,139.6801,347.0089,135.2361,343.5088,140.27,351.974" style="stroke: #A80036; stroke-width: 1.0;"/><text fill="#000000" font-family="sans-serif" font-size="11" lengthAdjust="spacingAndGlyphs" textLength="127" x="157" y="278.7104">You write a bug ticket.</text><!--MD5=[267189ae882b3130acf48bc2f877a6e2]
link #787997 to #788002--><path d="M248.622,233.593 C258.856,238.675 277.226,248.723 290,261 C304.325,274.768 316.576,294.416 323.617,306.938 " fill="none" id="#787997-to-#788002" style="stroke: #A80036; stroke-width: 1.0;"/><polygon fill="#A80036" points="326.138,311.518,325.3014,301.7047,323.7265,307.1379,318.2933,305.5631,326.138,311.518" style="stroke: #A80036; stroke-width: 1.0;"/><text fill="#000000" font-family="sans-serif" font-size="11" lengthAdjust="spacingAndGlyphs" textLength="74" x="352" y="272.2104">Just ignore it,</text><text fill="#000000" font-family="sans-serif" font-size="11" lengthAdjust="spacingAndGlyphs" textLength="152" x="317" y="285.0151">no one will notice anyway.</text><text fill="#000000" font-family="sans-serif" font-size="11" lengthAdjust="spacingAndGlyphs" textLength="69" x="241.3137" y="303.9206">dice roll &gt; 3</text><!--MD5=[f9a62082c560a34a58e7e6bd77dc20ce]
link #788002 to p--><path d="M330,332.019 C330,353.384 330,401.896 330,442.28 " fill="none" id="#788002-to-p" style="stroke: #A80036; stroke-width: 1.0;"/><polygon fill="#A80036" points="330,447.667,334,438.667,330,442.667,326,438.667,330,447.667" style="stroke: #A80036; stroke-width: 1.0;"/><text fill="#000000" font-family="sans-serif" font-size="11" lengthAdjust="spacingAndGlyphs" textLength="23" x="331" y="394.2104">true</text><!--MD5=[024b83123be906e3f15df5153872080c]
link #788002 to Bug is not found. \n Your stats change: \n -3 analytics--><path d="M336.302,325.759 C363.146,346.029 469.37,426.238 530.688,472.54 " fill="none" id="#788002-to-Bug is not found. \n Your stats change: \n -3 analytics" style="stroke: #A80036; stroke-width: 1.0;"/><polygon fill="#A80036" points="535.024,475.814,530.2506,467.1992,531.0333,472.8017,525.4308,473.5844,535.024,475.814" style="stroke: #A80036; stroke-width: 1.0;"/><text fill="#000000" font-family="sans-serif" font-size="11" lengthAdjust="spacingAndGlyphs" textLength="28" x="469" y="394.2104">false</text><!--MD5=[37a1d565b39dd973902ade3bd07680ac]
link Bug is not found. \n Your stats change: \n -3 analytics to f--><path d="M537.144,538.076 C523.951,547.741 508.749,558.0047 494,566 C466.06,581.1458 433.759,594.5468 405.251,605.1215 " fill="none" id="Bug is not found. \n Your stats change: \n -3 analytics-to-f" style="stroke: #0000FF; stroke-width: 1.0; stroke-dasharray: 1.0,3.0;"/><polygon fill="#0000FF" points="400.343,606.9282,410.1707,607.5731,405.0352,605.201,407.4073,600.0655,400.343,606.9282" style="stroke: #0000FF; stroke-width: 1.0;"/><!--MD5=[e68a1c678c19bb1ff3b4543454652f37]
link p to f--><path d="M330,566.1416 C330,578.5885 330,591.1946 330,601.8806 " fill="none" id="p-to-f" style="stroke: #0000FF; stroke-width: 1.0; stroke-dasharray: 1.0,3.0;"/><polygon fill="#0000FF" points="330,606.9631,334,597.9631,330,601.9631,326,597.9631,330,606.9631" style="stroke: #0000FF; stroke-width: 1.0;"/><!--MD5=[9ef6cd0a90fbaf7cd759bc73c80c9ad8]
link y to f--><path d="M141.152,428.164 C136.257,466.617 135.028,526.476 165,566 C177.922,583.0398 196.014,595.5449 215.51,604.7214 " fill="none" id="y-to-f" style="stroke: #0000FF; stroke-width: 1.0; stroke-dasharray: 1.0,3.0;"/><polygon fill="#0000FF" points="220.494,606.9835,213.9508,599.6224,215.9407,604.9177,210.6454,606.9076,220.494,606.9835" style="stroke: #0000FF; stroke-width: 1.0;"/><!--MD5=[0a4d777ef1ec9f842576d101fe091389]
@startuml
(*) - -> "A bug has surfaced."
- -> "So far no one else has found the bug."
if "How do you proceed?" then 
- -> [You write a bug ticket.] "Yaggaya sees the ticket \n and passes it on to the appropriate place. \n Your stats change: \n +2 analytics" as y
else
- -> [Just ignore it, \n no one will notice anyway.] if "dice roll > 3" then
- -> [true] "The bug has been found and the \n responsible department thinks that you should \n have found the bug well in advance, \n since you worked on the code last.: \n Your stats change: \n -3 communication \n -3 analytics" as p

else
- -> [false] "Bug is not found. \n Your stats change: \n -3 analytics"
-[#blue,dotted]-> "The project customer calls \n again and wants to have a completely new feature implemented." as f 
endif
p -[#blue,dotted]-> f
y -[#blue,dotted]-> f
@enduml

PlantUML version 1.2020.20beta13(Unknown compile time)
(GPL source distribution)
Java Runtime: Java(TM) SE Runtime Environment
JVM: Java HotSpot(TM) 64-Bit Server VM
Default Encoding: UTF-8
Language: en
Country: US
--></g></svg>