<?xml version="1.0" encoding="UTF-8" standalone="no"?><svg xmlns="http://www.w3.org/2000/svg" xmlns:xlink="http://www.w3.org/1999/xlink" contentScriptType="application/ecmascript" contentStyleType="text/css" height="678px" preserveAspectRatio="none" style="width:871px;height:678px;" version="1.1" viewBox="0 0 871 678" width="871px" zoomAndPan="magnify"><defs><filter height="300%" id="fgvr1l2tp3b1d" width="300%" x="-1" y="-1"><feGaussianBlur result="blurOut" stdDeviation="2.0"/><feColorMatrix in="blurOut" result="blurOut2" type="matrix" values="0 0 0 0 0 0 0 0 0 0 0 0 0 0 0 0 0 0 .4 0"/><feOffset dx="4.0" dy="4.0" in="blurOut2" result="blurOut3"/><feBlend in="SourceGraphic" in2="blurOut3" mode="normal"/></filter></defs><g><ellipse cx="371" cy="16" fill="#000000" filter="url(#fgvr1l2tp3b1d)" rx="10" ry="10" style="stroke: none; stroke-width: 1.0;"/><rect fill="#FEFECE" filter="url(#fgvr1l2tp3b1d)" height="33.9688" rx="12.5" ry="12.5" style="stroke: #A80036; stroke-width: 1.5;" width="153" x="294.5" y="67"/><text fill="#000000" font-family="sans-serif" font-size="12" lengthAdjust="spacingAndGlyphs" textLength="133" x="304.5" y="88.1387">Extracurricular Activity</text><rect fill="#FEFECE" filter="url(#fgvr1l2tp3b1d)" height="47.9375" rx="12.5" ry="12.5" style="stroke: #A80036; stroke-width: 1.5;" width="433" x="154.5" y="142"/><text fill="#000000" font-family="sans-serif" font-size="12" lengthAdjust="spacingAndGlyphs" textLength="409" x="164.5" y="163.1387">After completing the elective subject, you can enjoy your free time,</text><text fill="#000000" font-family="sans-serif" font-size="12" lengthAdjust="spacingAndGlyphs" textLength="287" x="229.5" y="177.1074">or you can take part in a extracurricular activity.</text><polygon fill="#FEFECE" filter="url(#fgvr1l2tp3b1d)" points="371,231,383,243,371,255,359,243,371,231" style="stroke: #A80036; stroke-width: 1.5;"/><rect fill="#FEFECE" filter="url(#fgvr1l2tp3b1d)" height="75.875" rx="12.5" ry="12.5" style="stroke: #A80036; stroke-width: 1.5;" width="337" x="190.5" y="336"/><text fill="#000000" font-family="sans-serif" font-size="12" lengthAdjust="spacingAndGlyphs" textLength="313" x="200.5" y="357.1387">You get to know the csharp programming language.</text><text fill="#000000" font-family="sans-serif" font-size="12" lengthAdjust="spacingAndGlyphs" textLength="112" x="303" y="371.1074">Your stats change:</text><text fill="#000000" font-family="sans-serif" font-size="12" lengthAdjust="spacingAndGlyphs" textLength="103" x="307.5" y="385.0762">+2 programming</text><text fill="#000000" font-family="sans-serif" font-size="12" lengthAdjust="spacingAndGlyphs" textLength="73" x="324.5" y="399.0449">+1 analytics</text><rect fill="#FEFECE" filter="url(#fgvr1l2tp3b1d)" height="103.8125" rx="12.5" ry="12.5" style="stroke: #A80036; stroke-width: 1.5;" width="284" x="548" y="322"/><text fill="#000000" font-family="sans-serif" font-size="12" lengthAdjust="spacingAndGlyphs" textLength="215" x="580.5" y="343.1387">Through many parties in your spare</text><text fill="#000000" font-family="sans-serif" font-size="12" lengthAdjust="spacingAndGlyphs" textLength="203" x="588.5" y="357.1074">time your partying stat increases,</text><text fill="#000000" font-family="sans-serif" font-size="12" lengthAdjust="spacingAndGlyphs" textLength="260" x="558" y="371.0762">but your programming skills get a bit rusty.</text><text fill="#000000" font-family="sans-serif" font-size="12" lengthAdjust="spacingAndGlyphs" textLength="112" x="634" y="385.0449">Your stats change:</text><text fill="#000000" font-family="sans-serif" font-size="12" lengthAdjust="spacingAndGlyphs" textLength="71" x="654.5" y="399.0137">+4 partying</text><text fill="#000000" font-family="sans-serif" font-size="12" lengthAdjust="spacingAndGlyphs" textLength="97" x="643.5" y="412.9824">-1 programming</text><rect fill="#FEFECE" filter="url(#fgvr1l2tp3b1d)" height="89.8438" rx="12.5" ry="12.5" style="stroke: #A80036; stroke-width: 1.5;" width="248" x="7" y="446"/><text fill="#000000" font-family="sans-serif" font-size="12" lengthAdjust="spacingAndGlyphs" textLength="210" x="24" y="467.1387">You get to know many new people</text><text fill="#000000" font-family="sans-serif" font-size="12" lengthAdjust="spacingAndGlyphs" textLength="224" x="21" y="481.1074">and expand your programming skills.</text><text fill="#000000" font-family="sans-serif" font-size="12" lengthAdjust="spacingAndGlyphs" textLength="112" x="77" y="495.0762">Your stats change:</text><text fill="#000000" font-family="sans-serif" font-size="12" lengthAdjust="spacingAndGlyphs" textLength="103" x="79.5" y="509.0449">+2 programming</text><text fill="#000000" font-family="sans-serif" font-size="12" lengthAdjust="spacingAndGlyphs" textLength="111" x="77.5" y="523.0137">+1 communication</text><rect fill="#FEFECE" filter="url(#fgvr1l2tp3b1d)" height="33.9688" rx="12.5" ry="12.5" style="stroke: #A80036; stroke-width: 1.5;" width="304" x="207" y="556"/><text fill="#000000" font-family="sans-serif" font-size="12" lengthAdjust="spacingAndGlyphs" textLength="284" x="217" y="577.1387">You have successfully completed your studies.</text><rect fill="#FEFECE" filter="url(#fgvr1l2tp3b1d)" height="33.9688" rx="12.5" ry="12.5" style="stroke: #A80036; stroke-width: 1.5;" width="123" x="297.5" y="631"/><text fill="#000000" font-family="sans-serif" font-size="12" lengthAdjust="spacingAndGlyphs" textLength="103" x="307.5" y="652.1387">Graduate studies</text><!--MD5=[11ac60104275e456bf7e360629d71715]
link start to Extracurricular Activity--><path d="M371,26.177 C371,35.269 371,49.527 371,61.485 " fill="none" id="start-to-Extracurricular Activity" style="stroke: #A80036; stroke-width: 1.0;"/><polygon fill="#A80036" points="371,66.791,375,57.791,371,61.791,367,57.791,371,66.791" style="stroke: #A80036; stroke-width: 1.0;"/><!--MD5=[e63fbbe25f1db23406078fd9a4adf430]
link Extracurricular Activity to After completing the elective subject, you can enjoy your free time, \n or you can take part in a extracurricular activity.--><path d="M371,101.189 C371,111.416 371,124.908 371,136.851 " fill="none" id="Extracurricular Activity-to-After completing the elective subject, you can enjoy your free time, \n or you can take part in a extracurricular activity." style="stroke: #A80036; stroke-width: 1.0;"/><polygon fill="#A80036" points="371,141.861,375,132.861,371,136.861,367,132.861,371,141.861" style="stroke: #A80036; stroke-width: 1.0;"/><!--MD5=[ae394c5d60a1b7ee47e9c9b14f40fe56]
link After completing the elective subject, you can enjoy your free time, \n or you can take part in a extracurricular activity. to #115775--><path d="M371,190.319 C371,201.744 371,215.228 371,225.558 " fill="none" id="After completing the elective subject, you can enjoy your free time, \n or you can take part in a extracurricular activity.-to-#115775" style="stroke: #A80036; stroke-width: 1.0;"/><polygon fill="#A80036" points="371,230.645,375,221.645,371,225.645,367,221.645,371,230.645" style="stroke: #A80036; stroke-width: 1.0;"/><text fill="#000000" font-family="sans-serif" font-size="11" lengthAdjust="spacingAndGlyphs" textLength="142" x="209.0313" y="223.8063">What do you want to do?</text><!--MD5=[140070dc6db4864fabab68cf199da313]
link #115775 to newL--><path d="M370.058,254.122 C368.534,270.506 365.443,303.739 362.915,330.912 " fill="none" id="#115775-to-newL" style="stroke: #A80036; stroke-width: 1.0;"/><polygon fill="#A80036" points="362.45,335.91,367.266,327.3189,362.9129,330.9315,359.3003,326.5784,362.45,335.91" style="stroke: #A80036; stroke-width: 1.0;"/><text fill="#000000" font-family="sans-serif" font-size="11" lengthAdjust="spacingAndGlyphs" textLength="141" x="443.5" y="286.2104">You use your spare time</text><text fill="#000000" font-family="sans-serif" font-size="11" lengthAdjust="spacingAndGlyphs" textLength="288" x="374" y="299.0151">to learn a programming language unknown to you.</text><!--MD5=[2b04c2de4236a8071ee9c0684c4eb33e]
link #115775 to no--><path d="M381.633,244.402 C431.894,246.397 644.129,255.908 666,275 C678.034,285.505 684.54,300.961 687.929,316.508 " fill="none" id="#115775-to-no" style="stroke: #A80036; stroke-width: 1.0;"/><polygon fill="#A80036" points="688.962,321.777,691.1537,312.1751,687.999,316.8706,683.3035,313.7159,688.962,321.777" style="stroke: #A80036; stroke-width: 1.0;"/><text fill="#000000" font-family="sans-serif" font-size="11" lengthAdjust="spacingAndGlyphs" textLength="136" x="704" y="286.2104">No, you enjoy your free</text><text fill="#000000" font-family="sans-serif" font-size="11" lengthAdjust="spacingAndGlyphs" textLength="174" x="689" y="299.0151">time and attend some parties.</text><!--MD5=[8f3ca7e48bdd50a9ec284c0b0bbe48fe]
link #115775 to contest--><path d="M359.966,244.235 C306.794,245.481 78.713,252.134 58,275 C15.7415,321.651 54.6026,393.754 89.8276,441.407 " fill="none" id="#115775-to-contest" style="stroke: #A80036; stroke-width: 1.0;"/><polygon fill="#A80036" points="93.0047,445.654,90.8154,436.0516,90.0092,441.6507,84.4101,440.8444,93.0047,445.654" style="stroke: #A80036; stroke-width: 1.0;"/><text fill="#000000" font-family="sans-serif" font-size="11" lengthAdjust="spacingAndGlyphs" textLength="301" x="59" y="292.7104">You take part in a hacking contest at your university.</text><!--MD5=[85ccf5090668cff871fe43897ad87c6e]
link newL to studyComplete--><path d="M359,412.054 C359,452.892 359,517.192 359,550.46 " fill="none" id="newL-to-studyComplete" style="stroke: #A80036; stroke-width: 1.0;"/><polygon fill="#A80036" points="359,555.524,363,546.524,359,550.524,355,546.524,359,555.524" style="stroke: #A80036; stroke-width: 1.0;"/><!--MD5=[bdd7bee87a4d253fa146fd0c2ffacbf4]
link no to studyComplete--><path d="M603.898,426.245 C533.94,467.882 439.177,524.281 390.593,553.197 " fill="none" id="no-to-studyComplete" style="stroke: #A80036; stroke-width: 1.0;"/><polygon fill="#A80036" points="386.038,555.908,395.8177,554.743,390.3348,553.3511,391.7266,547.8681,386.038,555.908" style="stroke: #A80036; stroke-width: 1.0;"/><!--MD5=[bedc87cc89a5585c2cfe0291865bf115]
link contest to studyComplete--><path d="M255.008,535.512 C273.844,542.121 292.313,548.601 308.336,554.223 " fill="none" id="contest-to-studyComplete" style="stroke: #A80036; stroke-width: 1.0;"/><polygon fill="#A80036" points="313.228,555.94,306.0607,549.185,308.5102,554.284,303.4112,556.7335,313.228,555.94" style="stroke: #A80036; stroke-width: 1.0;"/><!--MD5=[fc43c9ff01b3b435d0f290cae1c3c42a]
link studyComplete to Graduate studies--><path d="M359,590.2011 C359,600.6917 359,614.4627 359,625.8176 " fill="none" id="studyComplete-to-Graduate studies" style="stroke: #0000FF; stroke-width: 1.0; stroke-dasharray: 1.0,3.0;"/><polygon fill="#0000FF" points="359,630.8442,363,621.8442,359,625.8442,355,621.8442,359,630.8442" style="stroke: #0000FF; stroke-width: 1.0;"/><!--MD5=[6bda95c76d9f423a4dee08c172d3980b]
@startuml
(*) - -> "Extracurricular Activity"
- -> "After completing the elective subject, you can enjoy your free time, \n or you can take part in a extracurricular activity."
if "What do you want to do?" then
- -> [You use your spare time \n to learn a programming language unknown to you.] "You get to know the csharp programming language. \n Your stats change: \n +2 programming \n +1 analytics" as newL
else
- -> [No, you enjoy your free \n time and attend some parties.] "Through many parties in your spare \n time your partying stat increases, \nbut your programming skills get a bit rusty. \n Your stats change: \n +4 partying \n -1 programming" as no
else 
- -> [You take part in a hacking contest at your university.] "You get to know many new people \n and expand your programming skills.\n Your stats change:\n +2 programming \n +1 communication" as contest

newL - -> "You have successfully completed your studies." as studyComplete 
no - -> studyComplete
contest -> studyComplete

-[#blue,dotted]-> "Graduate studies"
@enduml

PlantUML version 1.2020.20beta13(Unknown compile time)
(GPL source distribution)
Java Runtime: Java(TM) SE Runtime Environment
JVM: Java HotSpot(TM) 64-Bit Server VM
Default Encoding: UTF-8
Language: en
Country: US
--></g></svg>