<?xml version="1.0" encoding="UTF-8" standalone="no"?><svg xmlns="http://www.w3.org/2000/svg" xmlns:xlink="http://www.w3.org/1999/xlink" contentScriptType="application/ecmascript" contentStyleType="text/css" height="369px" preserveAspectRatio="none" style="width:751px;height:369px;" version="1.1" viewBox="0 0 751 369" width="751px" zoomAndPan="magnify"><defs><filter height="300%" id="fsqs89cx3vu36" width="300%" x="-1" y="-1"><feGaussianBlur result="blurOut" stdDeviation="2.0"/><feColorMatrix in="blurOut" result="blurOut2" type="matrix" values="0 0 0 0 0 0 0 0 0 0 0 0 0 0 0 0 0 0 .4 0"/><feOffset dx="4.0" dy="4.0" in="blurOut2" result="blurOut3"/><feBlend in="SourceGraphic" in2="blurOut3" mode="normal"/></filter></defs><g><ellipse cx="359" cy="16" fill="#000000" filter="url(#fsqs89cx3vu36)" rx="10" ry="10" style="stroke: none; stroke-width: 1.0;"/><rect fill="#FEFECE" filter="url(#fsqs89cx3vu36)" height="33.9688" rx="12.5" ry="12.5" style="stroke: #A80036; stroke-width: 1.5;" width="187" x="265.5" y="67"/><text fill="#000000" font-family="sans-serif" font-size="12" lengthAdjust="spacingAndGlyphs" textLength="167" x="275.5" y="88.1387">Which one will you choose?</text><polygon fill="#FEFECE" filter="url(#fsqs89cx3vu36)" points="359,142,371,154,359,166,347,154,359,142" style="stroke: #A80036; stroke-width: 1.5;"/><rect fill="#FEFECE" filter="url(#fsqs89cx3vu36)" height="47.9375" rx="12.5" ry="12.5" style="stroke: #A80036; stroke-width: 1.5;" width="127" x="96.5" y="233"/><text fill="#000000" font-family="sans-serif" font-size="12" lengthAdjust="spacingAndGlyphs" textLength="103" x="106.5" y="254.1387">+2 programming</text><text fill="#000000" font-family="sans-serif" font-size="12" lengthAdjust="spacingAndGlyphs" textLength="73" x="125.5" y="268.1074">+1 analytics</text><rect fill="#FEFECE" filter="url(#fsqs89cx3vu36)" height="47.9375" rx="12.5" ry="12.5" style="stroke: #A80036; stroke-width: 1.5;" width="126" x="244" y="233"/><text fill="#000000" font-family="sans-serif" font-size="12" lengthAdjust="spacingAndGlyphs" textLength="102" x="254" y="254.1387">+1 programming</text><text fill="#000000" font-family="sans-serif" font-size="12" lengthAdjust="spacingAndGlyphs" textLength="74" x="272" y="268.1074">+2 analytics</text><rect fill="#FEFECE" filter="url(#fsqs89cx3vu36)" height="33.9688" rx="12.5" ry="12.5" style="stroke: #A80036; stroke-width: 1.5;" width="94" x="390" y="240"/><text fill="#000000" font-family="sans-serif" font-size="12" lengthAdjust="spacingAndGlyphs" textLength="74" x="400" y="261.1387">+3 analytics</text><rect fill="#FEFECE" filter="url(#fsqs89cx3vu36)" height="47.9375" rx="12.5" ry="12.5" style="stroke: #A80036; stroke-width: 1.5;" width="136" x="505" y="233"/><text fill="#000000" font-family="sans-serif" font-size="12" lengthAdjust="spacingAndGlyphs" textLength="73" x="534.5" y="254.1387">+1 analytics</text><text fill="#000000" font-family="sans-serif" font-size="12" lengthAdjust="spacingAndGlyphs" textLength="112" x="519" y="268.1074">+2 communication</text><rect fill="#FEFECE" filter="url(#fsqs89cx3vu36)" height="33.9688" rx="12.5" ry="12.5" style="stroke: #A80036; stroke-width: 1.5;" width="730" x="7" y="322"/><text fill="#000000" font-family="sans-serif" font-size="12" lengthAdjust="spacingAndGlyphs" textLength="710" x="17" y="343.1387">After completing the elective, you can enjoy your free time, or would you rather take part in a extracurricular activity?</text><!--MD5=[30083547d4db0a3d8c2d7db5c42c20bb]
link start to Which one will you choose?--><path d="M359,26.177 C359,35.269 359,49.527 359,61.485 " fill="none" id="start-to-Which one will you choose?" style="stroke: #A80036; stroke-width: 1.0;"/><polygon fill="#A80036" points="359,66.791,363,57.791,359,61.791,355,57.791,359,66.791" style="stroke: #A80036; stroke-width: 1.0;"/><!--MD5=[13a1cfd199e110461b5bf86686a70b02]
link Which one will you choose? to #726115--><path d="M359,101.115 C359,111.916 359,126.082 359,136.883 " fill="none" id="Which one will you choose?-to-#726115" style="stroke: #A80036; stroke-width: 1.0;"/><polygon fill="#A80036" points="359,141.885,363,132.885,359,136.885,355,132.885,359,141.885" style="stroke: #A80036; stroke-width: 1.0;"/><text fill="#000000" font-family="sans-serif" font-size="11" lengthAdjust="spacingAndGlyphs" textLength="0" x="358.025" y="131.4605"/><!--MD5=[b5d83e8962c61fa5aeaf9fad3f850def]
link #726115 to bali--><path d="M348.181,155.588 C314.44,157.625 211.912,165.418 187,186 C174.569,196.27 167.846,212.977 164.219,227.494 " fill="none" id="#726115-to-bali" style="stroke: #A80036; stroke-width: 1.0;"/><polygon fill="#A80036" points="163.017,232.727,168.9292,224.8501,164.1357,227.8537,161.132,223.0602,163.017,232.727" style="stroke: #A80036; stroke-width: 1.0;"/><text fill="#000000" font-family="sans-serif" font-size="11" lengthAdjust="spacingAndGlyphs" textLength="106" x="188" y="203.7104">Introduction to Bali</text><!--MD5=[155607d930371afc0bb2a1068702261d]
link #726115 to re--><path d="M349.867,157.296 C337.376,160.983 315.441,169.541 306,186 C298.9,198.379 298.523,214.128 300.196,227.551 " fill="none" id="#726115-to-re" style="stroke: #A80036; stroke-width: 1.0;"/><polygon fill="#A80036" points="300.959,232.761,303.6131,223.2765,300.2347,227.8137,295.6974,224.4354,300.959,232.761" style="stroke: #A80036; stroke-width: 1.0;"/><text fill="#000000" font-family="sans-serif" font-size="11" lengthAdjust="spacingAndGlyphs" textLength="80" x="307" y="197.2104">Requirements</text><text fill="#000000" font-family="sans-serif" font-size="11" lengthAdjust="spacingAndGlyphs" textLength="68" x="313" y="210.0151">Engineering</text><!--MD5=[b938e10be9a3bc274902cb8518570ede]
link #726115 to esa--><path d="M364.828,160.448 C371.102,166.441 381.229,176.488 389,186 C402.012,201.926 415.102,221.291 424.318,235.613 " fill="none" id="#726115-to-esa" style="stroke: #A80036; stroke-width: 1.0;"/><polygon fill="#A80036" points="427.05,239.887,425.5731,230.1495,424.3571,235.6741,418.8325,234.4581,427.05,239.887" style="stroke: #A80036; stroke-width: 1.0;"/><text fill="#000000" font-family="sans-serif" font-size="11" lengthAdjust="spacingAndGlyphs" textLength="81" x="434.5" y="197.2104">Introduction to</text><text fill="#000000" font-family="sans-serif" font-size="11" lengthAdjust="spacingAndGlyphs" textLength="130" x="414" y="210.0151">Software Architectures</text><!--MD5=[d1fcafb788ffb2b082ca3d439203a4c1]
link #726115 to usf--><path d="M369.762,155.316 C405.946,156.592 522.482,162.485 550,186 C562.039,196.288 567.813,212.995 570.566,227.508 " fill="none" id="#726115-to-usf" style="stroke: #A80036; stroke-width: 1.0;"/><polygon fill="#A80036" points="571.449,232.739,573.8939,223.1984,570.6161,227.8089,566.0057,224.531,571.449,232.739" style="stroke: #A80036; stroke-width: 1.0;"/><text fill="#000000" font-family="sans-serif" font-size="11" lengthAdjust="spacingAndGlyphs" textLength="65" x="576" y="197.2104">Usability as</text><text fill="#000000" font-family="sans-serif" font-size="11" lengthAdjust="spacingAndGlyphs" textLength="81" x="568" y="210.0151">success factor</text><!--MD5=[c41757c4f113729ad7c8ec06a6765374]
link usf to a--><path d="M515.132,281.032 C483.996,293.4243 446.159,308.4839 417.209,320.0063 " fill="none" id="usf-to-a" style="stroke: #0000FF; stroke-width: 1.0; stroke-dasharray: 1.0,3.0;"/><polygon fill="#0000FF" points="412.277,321.9693,422.1183,322.3557,416.9222,320.1194,419.1585,314.9234,412.277,321.9693" style="stroke: #0000FF; stroke-width: 1.0;"/><!--MD5=[67d9987c118acd42a6d7ba9ce3b092fb]
link re to a--><path d="M325.801,281.1393 C335.151,292.6471 346.353,306.4339 355.384,317.5496 " fill="none" id="re-to-a" style="stroke: #0000FF; stroke-width: 1.0; stroke-dasharray: 1.0,3.0;"/><polygon fill="#0000FF" points="358.606,321.5149,356.0344,312.0077,355.4527,317.6346,349.8259,317.0529,358.606,321.5149" style="stroke: #0000FF; stroke-width: 1.0;"/><!--MD5=[ebd6658304d849f441ece893b36d4fa3]
link bali to a--><path d="M221.035,281.032 C254.01,293.4755 294.112,308.6084 324.695,320.149 " fill="none" id="bali-to-a" style="stroke: #0000FF; stroke-width: 1.0; stroke-dasharray: 1.0,3.0;"/><polygon fill="#0000FF" points="329.519,321.9693,322.5114,315.0488,324.8411,320.2036,319.6863,322.5334,329.519,321.9693" style="stroke: #0000FF; stroke-width: 1.0;"/><!--MD5=[1b9b0d026eb03305a9820a582ebbb1c5]
link esa to a--><path d="M423.846,274.1892 C413.626,286.7676 399.393,304.2851 388.425,317.7844 " fill="none" id="esa-to-a" style="stroke: #0000FF; stroke-width: 1.0; stroke-dasharray: 1.0,3.0;"/><polygon fill="#0000FF" points="385.134,321.8349,393.9141,317.3729,388.2873,317.9546,387.7056,312.3277,385.134,321.8349" style="stroke: #0000FF; stroke-width: 1.0;"/><!--MD5=[6070133e81a4f43d56b1a710238af06d]
@startuml
(*) - -> "Which one will you choose?"
if "" then
- -> [Introduction to Bali] "+2 programming \n +1 analytics" as bali
else
- -> [Requirements\nEngineering] "+1 programming \n +2 analytics" as re
else
- -> [Introduction to \n Software Architectures] "+3 analytics" as esa
else
- -> [Usability as\nsuccess factor] "+1 analytics \n +2 communication" as usf


usf -[#blue,dotted]-> "After completing the elective, you can enjoy your free time, or would you rather take part in a extracurricular activity?" as a
re -[#blue,dotted]-> a
bali -[#blue,dotted]-> a
esa -[#blue,dotted]-> a

/'
Wir stehen 1 Jahr vor Ende des Studiums
Du musst Dich für ein Wahlpflichtfach entscheiden.


'/
@enduml

@startuml
(*) - -> "Which one will you choose?"
if "" then
- -> [Introduction to Bali] "+2 programming \n +1 analytics" as bali
else
- -> [Requirements\nEngineering] "+1 programming \n +2 analytics" as re
else
- -> [Introduction to \n Software Architectures] "+3 analytics" as esa
else
- -> [Usability as\nsuccess factor] "+1 analytics \n +2 communication" as usf


usf -[#blue,dotted]-> "After completing the elective, you can enjoy your free time, or would you rather take part in a extracurricular activity?" as a
re -[#blue,dotted]-> a
bali -[#blue,dotted]-> a
esa -[#blue,dotted]-> a

@enduml

PlantUML version 1.2020.20beta13(Unknown compile time)
(GPL source distribution)
Java Runtime: Java(TM) SE Runtime Environment
JVM: Java HotSpot(TM) 64-Bit Server VM
Default Encoding: UTF-8
Language: en
Country: US
--></g></svg>