<?xml version="1.0" encoding="UTF-8" standalone="no"?>
<svg xmlns="http://www.w3.org/2000/svg" xmlns:xlink="http://www.w3.org/1999/xlink" contentScriptType="application/ecmascript" contentStyleType="text/css" height="664px" preserveAspectRatio="none" style="width:871px;height:664px;" version="1.1" viewBox="0 0 871 664" width="871px" zoomAndPan="magnify"><defs><filter height="300%" id="f1frdw64wb27al" width="300%" x="-1" y="-1"><feGaussianBlur result="blurOut" stdDeviation="2.0"/><feColorMatrix in="blurOut" result="blurOut2" type="matrix" values="0 0 0 0 0 0 0 0 0 0 0 0 0 0 0 0 0 0 .4 0"/><feOffset dx="4.0" dy="4.0" in="blurOut2" result="blurOut3"/><feBlend in="SourceGraphic" in2="blurOut3" mode="normal"/></filter></defs><g><ellipse cx="371" cy="16" fill="#000000" filter="url(#f1frdw64wb27al)" rx="10" ry="10" style="stroke: none; stroke-width: 1.0;"/><rect fill="#FEFECE" filter="url(#f1frdw64wb27al)" height="33.9688" rx="12.5" ry="12.5" style="stroke: #A80036; stroke-width: 1.5;" width="153" x="294.5" y="67"/><text fill="#000000" font-family="sans-serif" font-size="12" lengthAdjust="spacingAndGlyphs" textLength="133" x="304.5" y="88.1387">Extracurricular Activity</text><rect fill="#FEFECE" filter="url(#f1frdw64wb27al)" height="33.9688" rx="12.5" ry="12.5" style="stroke: #A80036; stroke-width: 1.5;" width="672" x="35" y="142"/><text fill="#000000" font-family="sans-serif" font-size="12" lengthAdjust="spacingAndGlyphs" textLength="652" x="45" y="163.1387">After completing the elective, you can enjoy your free time, or you can take part in a extracurricular activity.</text><polygon fill="#FEFECE" filter="url(#f1frdw64wb27al)" points="371,217,383,229,371,241,359,229,371,217" style="stroke: #A80036; stroke-width: 1.5;"/><rect fill="#FEFECE" filter="url(#f1frdw64wb27al)" height="75.875" rx="12.5" ry="12.5" style="stroke: #A80036; stroke-width: 1.5;" width="337" x="190.5" y="322"/><text fill="#000000" font-family="sans-serif" font-size="12" lengthAdjust="spacingAndGlyphs" textLength="313" x="200.5" y="343.1387">You get to know the csharp programming language.</text><text fill="#000000" font-family="sans-serif" font-size="12" lengthAdjust="spacingAndGlyphs" textLength="112" x="303" y="357.1074">Your stats change:</text><text fill="#000000" font-family="sans-serif" font-size="12" lengthAdjust="spacingAndGlyphs" textLength="103" x="307.5" y="371.0762">+2 programming</text><text fill="#000000" font-family="sans-serif" font-size="12" lengthAdjust="spacingAndGlyphs" textLength="73" x="324.5" y="385.0449">+1 analytics</text><rect fill="#FEFECE" filter="url(#f1frdw64wb27al)" height="103.8125" rx="12.5" ry="12.5" style="stroke: #A80036; stroke-width: 1.5;" width="284" x="548" y="308"/><text fill="#000000" font-family="sans-serif" font-size="12" lengthAdjust="spacingAndGlyphs" textLength="215" x="580.5" y="329.1387">Through many parties in your spare</text><text fill="#000000" font-family="sans-serif" font-size="12" lengthAdjust="spacingAndGlyphs" textLength="203" x="588.5" y="343.1074">time your partying stat increases,</text><text fill="#000000" font-family="sans-serif" font-size="12" lengthAdjust="spacingAndGlyphs" textLength="260" x="558" y="357.0762">but your programming skills get a bit rusty.</text><text fill="#000000" font-family="sans-serif" font-size="12" lengthAdjust="spacingAndGlyphs" textLength="112" x="634" y="371.0449">Your stats change:</text><text fill="#000000" font-family="sans-serif" font-size="12" lengthAdjust="spacingAndGlyphs" textLength="71" x="654.5" y="385.0137">+4 partying</text><text fill="#000000" font-family="sans-serif" font-size="12" lengthAdjust="spacingAndGlyphs" textLength="97" x="643.5" y="398.9824">-1 programming</text><rect fill="#FEFECE" filter="url(#f1frdw64wb27al)" height="89.8438" rx="12.5" ry="12.5" style="stroke: #A80036; stroke-width: 1.5;" width="248" x="7" y="432"/><text fill="#000000" font-family="sans-serif" font-size="12" lengthAdjust="spacingAndGlyphs" textLength="210" x="24" y="453.1387">You get to know many new people</text><text fill="#000000" font-family="sans-serif" font-size="12" lengthAdjust="spacingAndGlyphs" textLength="224" x="21" y="467.1074">and expand your programming skills.</text><text fill="#000000" font-family="sans-serif" font-size="12" lengthAdjust="spacingAndGlyphs" textLength="112" x="77" y="481.0762">Your stats change:</text><text fill="#000000" font-family="sans-serif" font-size="12" lengthAdjust="spacingAndGlyphs" textLength="103" x="79.5" y="495.0449">+2 programming</text><text fill="#000000" font-family="sans-serif" font-size="12" lengthAdjust="spacingAndGlyphs" textLength="111" x="77.5" y="509.0137">+1 communication</text><rect fill="#FEFECE" filter="url(#f1frdw64wb27al)" height="33.9688" rx="12.5" ry="12.5" style="stroke: #A80036; stroke-width: 1.5;" width="304" x="207" y="542"/><text fill="#000000" font-family="sans-serif" font-size="12" lengthAdjust="spacingAndGlyphs" textLength="284" x="217" y="563.1387">You have successfully completed your studies.</text><rect fill="#FEFECE" filter="url(#f1frdw64wb27al)" height="33.9688" rx="12.5" ry="12.5" style="stroke: #A80036; stroke-width: 1.5;" width="123" x="297.5" y="617"/><text fill="#000000" font-family="sans-serif" font-size="12" lengthAdjust="spacingAndGlyphs" textLength="103" x="307.5" y="638.1387">Graduate studies</text><!--MD5=[11ac60104275e456bf7e360629d71715]
link start to Extracurricular Activity--><path d="M371,26.177 C371,35.269 371,49.527 371,61.485 " fill="none" id="start-to-Extracurricular Activity" style="stroke: #A80036; stroke-width: 1.0;"/><polygon fill="#A80036" points="371,66.791,375,57.791,371,61.791,367,57.791,371,66.791" style="stroke: #A80036; stroke-width: 1.0;"/><!--MD5=[15e078d4ab36265b5ed1e9d599e178b3]
link Extracurricular Activity to After completing the elective, you can enjoy your free time, or you can take part in a extracurricular activity.--><path d="M371,101.201 C371,111.692 371,125.463 371,136.818 " fill="none" id="Extracurricular Activity-to-After completing the elective, you can enjoy your free time, or you can take part in a extracurricular activity." style="stroke: #A80036; stroke-width: 1.0;"/><polygon fill="#A80036" points="371,141.844,375,132.844,371,136.844,367,132.844,371,141.844" style="stroke: #A80036; stroke-width: 1.0;"/><!--MD5=[600d05d80b0a452af84d023e14671616]
link After completing the elective, you can enjoy your free time, or you can take part in a extracurricular activity. to #995634--><path d="M371,176.115 C371,186.916 371,201.082 371,211.883 " fill="none" id="After completing the elective, you can enjoy your free time, or you can take part in a extracurricular activity.-to-#995634" style="stroke: #A80036; stroke-width: 1.0;"/><polygon fill="#A80036" points="371,216.885,375,207.885,371,211.885,367,207.885,371,216.885" style="stroke: #A80036; stroke-width: 1.0;"/><text fill="#000000" font-family="sans-serif" font-size="11" lengthAdjust="spacingAndGlyphs" textLength="142" x="209.0313" y="210.1138">What do you want to do?</text><!--MD5=[7a245140a588b38840d4cd4e3c984eee]
link #995634 to newL--><path d="M370.058,240.122 C368.534,256.506 365.443,289.739 362.915,316.912 " fill="none" id="#995634-to-newL" style="stroke: #A80036; stroke-width: 1.0;"/><polygon fill="#A80036" points="362.45,321.91,367.266,313.3189,362.9129,316.9315,359.3003,312.5784,362.45,321.91" style="stroke: #A80036; stroke-width: 1.0;"/><text fill="#000000" font-family="sans-serif" font-size="11" lengthAdjust="spacingAndGlyphs" textLength="141" x="443.5" y="272.2104">You use your spare time</text><text fill="#000000" font-family="sans-serif" font-size="11" lengthAdjust="spacingAndGlyphs" textLength="288" x="374" y="285.0151">to learn a programming language unknown to you.</text><!--MD5=[6871d5b03d6473d4c080f83e5af8165a]
link #995634 to no--><path d="M381.633,230.402 C431.894,232.397 644.129,241.908 666,261 C678.034,271.505 684.54,286.961 687.929,302.508 " fill="none" id="#995634-to-no" style="stroke: #A80036; stroke-width: 1.0;"/><polygon fill="#A80036" points="688.962,307.777,691.1537,298.1751,687.999,302.8706,683.3035,299.7159,688.962,307.777" style="stroke: #A80036; stroke-width: 1.0;"/><text fill="#000000" font-family="sans-serif" font-size="11" lengthAdjust="spacingAndGlyphs" textLength="136" x="704" y="272.2104">No, you enjoy your free</text><text fill="#000000" font-family="sans-serif" font-size="11" lengthAdjust="spacingAndGlyphs" textLength="174" x="689" y="285.0151">time and attend some parties.</text><!--MD5=[51f3360382f0f6cf0b658ff9b74015f6]
link #995634 to contest--><path d="M359.966,230.235 C306.794,231.481 78.713,238.134 58,261 C15.7415,307.651 54.6026,379.754 89.8276,427.407 " fill="none" id="#995634-to-contest" style="stroke: #A80036; stroke-width: 1.0;"/><polygon fill="#A80036" points="93.0047,431.654,90.8154,422.0516,90.0092,427.6507,84.4101,426.8444,93.0047,431.654" style="stroke: #A80036; stroke-width: 1.0;"/><text fill="#000000" font-family="sans-serif" font-size="11" lengthAdjust="spacingAndGlyphs" textLength="301" x="59" y="278.7104">You take part in a hacking contest at your university.</text><!--MD5=[85ccf5090668cff871fe43897ad87c6e]
link newL to studyComplete--><path d="M359,398.054 C359,438.892 359,503.192 359,536.46 " fill="none" id="newL-to-studyComplete" style="stroke: #A80036; stroke-width: 1.0;"/><polygon fill="#A80036" points="359,541.524,363,532.524,359,536.524,355,532.524,359,541.524" style="stroke: #A80036; stroke-width: 1.0;"/><!--MD5=[bdd7bee87a4d253fa146fd0c2ffacbf4]
link no to studyComplete--><path d="M603.898,412.245 C533.94,453.882 439.177,510.281 390.593,539.197 " fill="none" id="no-to-studyComplete" style="stroke: #A80036; stroke-width: 1.0;"/><polygon fill="#A80036" points="386.038,541.908,395.8177,540.743,390.3348,539.3511,391.7266,533.8681,386.038,541.908" style="stroke: #A80036; stroke-width: 1.0;"/><!--MD5=[bedc87cc89a5585c2cfe0291865bf115]
link contest to studyComplete--><path d="M255.008,521.512 C273.844,528.121 292.313,534.601 308.336,540.223 " fill="none" id="contest-to-studyComplete" style="stroke: #A80036; stroke-width: 1.0;"/><polygon fill="#A80036" points="313.228,541.94,306.0607,535.185,308.5102,540.284,303.4112,542.7335,313.228,541.94" style="stroke: #A80036; stroke-width: 1.0;"/><!--MD5=[fc43c9ff01b3b435d0f290cae1c3c42a]
link studyComplete to Graduate studies--><path d="M359,576.2011 C359,586.6917 359,600.4627 359,611.8176 " fill="none" id="studyComplete-to-Graduate studies" style="stroke: #0000FF; stroke-width: 1.0; stroke-dasharray: 1.0,3.0;"/><polygon fill="#0000FF" points="359,616.8442,363,607.8442,359,611.8442,355,607.8442,359,616.8442" style="stroke: #0000FF; stroke-width: 1.0;"/><!--MD5=[0462c8e5431bc014edc8afaab8dc37e2]
@startuml
(*) - -> "Extracurricular Activity"
- -> "After completing the elective, you can enjoy your free time, or you can take part in a extracurricular activity."
if "What do you want to do?" then
- -> [You use your spare time \n to learn a programming language unknown to you.] "You get to know the csharp programming language. \n Your stats change: \n +2 programming \n +1 analytics" as newL
else
- -> [No, you enjoy your free \n time and attend some parties.] "Through many parties in your spare \n time your partying stat increases, \nbut your programming skills get a bit rusty. \n Your stats change: \n +4 partying \n -1 programming" as no
else 
- -> [You take part in a hacking contest at your university.] "You get to know many new people \n and expand your programming skills.\n Your stats change:\n +2 programming \n +1 communication" as contest

newL - -> "You have successfully completed your studies." as studyComplete 
no - -> studyComplete
contest -> studyComplete

-[#blue,dotted]-> "Graduate studies"
@enduml

PlantUML version 1.2020.20beta13(Unknown compile time)
(GPL source distribution)
Java Runtime: Java(TM) SE Runtime Environment
JVM: Java HotSpot(TM) 64-Bit Server VM
Default Encoding: UTF-8
Language: en
Country: US
--></g></svg>