<?xml version="1.0" encoding="UTF-8" standalone="no"?><svg xmlns="http://www.w3.org/2000/svg" xmlns:xlink="http://www.w3.org/1999/xlink" contentScriptType="application/ecmascript" contentStyleType="text/css" height="575px" preserveAspectRatio="none" style="width:872px;height:575px;" version="1.1" viewBox="0 0 872 575" width="872px" zoomAndPan="magnify"><defs><filter height="300%" id="f40yjfpzdknob" width="300%" x="-1" y="-1"><feGaussianBlur result="blurOut" stdDeviation="2.0"/><feColorMatrix in="blurOut" result="blurOut2" type="matrix" values="0 0 0 0 0 0 0 0 0 0 0 0 0 0 0 0 0 0 .4 0"/><feOffset dx="4.0" dy="4.0" in="blurOut2" result="blurOut3"/><feBlend in="SourceGraphic" in2="blurOut3" mode="normal"/></filter></defs><g><ellipse cx="372" cy="16" fill="#000000" filter="url(#f40yjfpzdknob)" rx="10" ry="10" style="stroke: none; stroke-width: 1.0;"/><rect fill="#FEFECE" filter="url(#f40yjfpzdknob)" height="33.9688" rx="12.5" ry="12.5" style="stroke: #A80036; stroke-width: 1.5;" width="730" x="7" y="67"/><text fill="#000000" font-family="sans-serif" font-size="12" lengthAdjust="spacingAndGlyphs" textLength="710" x="17" y="88.1387">After completing the elective, you can enjoy your free time, or would you rather take part in a extracurricular activity?</text><polygon fill="#FEFECE" filter="url(#f40yjfpzdknob)" points="372,142,384,154,372,166,360,154,372,142" style="stroke: #A80036; stroke-width: 1.5;"/><rect fill="#FEFECE" filter="url(#f40yjfpzdknob)" height="75.875" rx="12.5" ry="12.5" style="stroke: #A80036; stroke-width: 1.5;" width="337" x="193.5" y="240"/><text fill="#000000" font-family="sans-serif" font-size="12" lengthAdjust="spacingAndGlyphs" textLength="313" x="203.5" y="261.1387">You get to know the csharp programming language.</text><text fill="#000000" font-family="sans-serif" font-size="12" lengthAdjust="spacingAndGlyphs" textLength="120" x="302" y="275.1074">Your stats increase:</text><text fill="#000000" font-family="sans-serif" font-size="12" lengthAdjust="spacingAndGlyphs" textLength="103" x="310.5" y="289.0762">+2 programming</text><text fill="#000000" font-family="sans-serif" font-size="12" lengthAdjust="spacingAndGlyphs" textLength="73" x="327.5" y="303.0449">+1 analytics</text><rect fill="#FEFECE" filter="url(#f40yjfpzdknob)" height="89.8438" rx="12.5" ry="12.5" style="stroke: #A80036; stroke-width: 1.5;" width="281" x="550.5" y="233"/><text fill="#000000" font-family="sans-serif" font-size="12" lengthAdjust="spacingAndGlyphs" textLength="215" x="581.5" y="254.1387">Through many parties in your spare</text><text fill="#000000" font-family="sans-serif" font-size="12" lengthAdjust="spacingAndGlyphs" textLength="203" x="589.5" y="268.1074">time your partying stat increases,</text><text fill="#000000" font-family="sans-serif" font-size="12" lengthAdjust="spacingAndGlyphs" textLength="261" x="560.5" y="282.0762">but your programming skills get a bit rusty:</text><text fill="#000000" font-family="sans-serif" font-size="12" lengthAdjust="spacingAndGlyphs" textLength="71" x="655.5" y="296.0449">+4 partying</text><text fill="#000000" font-family="sans-serif" font-size="12" lengthAdjust="spacingAndGlyphs" textLength="97" x="644.5" y="310.0137">-1 programming</text><rect fill="#FEFECE" filter="url(#f40yjfpzdknob)" height="89.8438" rx="12.5" ry="12.5" style="stroke: #A80036; stroke-width: 1.5;" width="248" x="9" y="343"/><text fill="#000000" font-family="sans-serif" font-size="12" lengthAdjust="spacingAndGlyphs" textLength="210" x="26" y="364.1387">You get to know many new people</text><text fill="#000000" font-family="sans-serif" font-size="12" lengthAdjust="spacingAndGlyphs" textLength="224" x="23" y="378.1074">and expand your programming skills.</text><text fill="#000000" font-family="sans-serif" font-size="12" lengthAdjust="spacingAndGlyphs" textLength="120" x="75" y="392.0762">Your stats increase:</text><text fill="#000000" font-family="sans-serif" font-size="12" lengthAdjust="spacingAndGlyphs" textLength="103" x="81.5" y="406.0449">+2 programming</text><text fill="#000000" font-family="sans-serif" font-size="12" lengthAdjust="spacingAndGlyphs" textLength="111" x="79.5" y="420.0137">+1 communication</text><rect fill="#FEFECE" filter="url(#f40yjfpzdknob)" height="33.9688" rx="12.5" ry="12.5" style="stroke: #A80036; stroke-width: 1.5;" width="304" x="210" y="453"/><text fill="#000000" font-family="sans-serif" font-size="12" lengthAdjust="spacingAndGlyphs" textLength="284" x="220" y="474.1387">You have successfully completed your studies.</text><rect fill="#FEFECE" filter="url(#f40yjfpzdknob)" height="33.9688" rx="12.5" ry="12.5" style="stroke: #A80036; stroke-width: 1.5;" width="123" x="300.5" y="528"/><text fill="#000000" font-family="sans-serif" font-size="12" lengthAdjust="spacingAndGlyphs" textLength="103" x="310.5" y="549.1387">Graduate studies</text><!--MD5=[86e80a209259043b61bb360a07bb1763]
link start to After completing the elective, you can enjoy your free time, or would you rather take part in a extracurricular activity?--><path d="M372,26.177 C372,35.269 372,49.527 372,61.485 " fill="none" id="start-to-After completing the elective, you can enjoy your free time, or would you rather take part in a extracurricular activity?" style="stroke: #A80036; stroke-width: 1.0;"/><polygon fill="#A80036" points="372,66.791,376,57.791,372,61.791,368,57.791,372,66.791" style="stroke: #A80036; stroke-width: 1.0;"/><!--MD5=[07bae7486f0bd487051f2d818c7f0e70]
link After completing the elective, you can enjoy your free time, or would you rather take part in a extracurricular activity? to #547481--><path d="M372,101.115 C372,111.916 372,126.082 372,136.883 " fill="none" id="After completing the elective, you can enjoy your free time, or would you rather take part in a extracurricular activity?-to-#547481" style="stroke: #A80036; stroke-width: 1.0;"/><polygon fill="#A80036" points="372,141.885,376,132.885,372,136.885,368,132.885,372,141.885" style="stroke: #A80036; stroke-width: 1.0;"/><text fill="#000000" font-family="sans-serif" font-size="11" lengthAdjust="spacingAndGlyphs" textLength="0" x="371.025" y="131.4605"/><!--MD5=[55c657d7d07c88f5faeed0da0514f90e]
link #547481 to newL--><path d="M371.147,165.402 C369.9,180.626 367.504,209.855 365.477,234.581 " fill="none" id="#547481-to-newL" style="stroke: #A80036; stroke-width: 1.0;"/><polygon fill="#A80036" points="365.051,239.782,369.7731,231.139,365.4596,234.7987,361.7999,230.4852,365.051,239.782" style="stroke: #A80036; stroke-width: 1.0;"/><text fill="#000000" font-family="sans-serif" font-size="11" lengthAdjust="spacingAndGlyphs" textLength="141" x="444.5" y="197.2104">You use your spare time</text><text fill="#000000" font-family="sans-serif" font-size="11" lengthAdjust="spacingAndGlyphs" textLength="288" x="375" y="210.0151">to learn a programming language unknown to you.</text><!--MD5=[8a3e29431addeba37d27e26e57dfff72]
link #547481 to no--><path d="M382.626,155.411 C432.854,157.444 644.961,167.102 667,186 C679.147,196.415 685.512,212.179 688.742,227.674 " fill="none" id="#547481-to-no" style="stroke: #A80036; stroke-width: 1.0;"/><polygon fill="#A80036" points="689.721,232.911,691.9966,223.3286,688.8009,227.9964,684.1332,224.8007,689.721,232.911" style="stroke: #A80036; stroke-width: 1.0;"/><text fill="#000000" font-family="sans-serif" font-size="11" lengthAdjust="spacingAndGlyphs" textLength="136" x="705" y="197.2104">No, you enjoy your free</text><text fill="#000000" font-family="sans-serif" font-size="11" lengthAdjust="spacingAndGlyphs" textLength="174" x="690" y="210.0151">time and attend some parties.</text><!--MD5=[cb3908f89aac6444ff033946c7cac34c]
link #547481 to contest--><path d="M361.001,155.238 C307.998,156.497 80.6439,163.203 60,186 C21.0535,229.008 56.8654,294.415 90.6733,338.844 " fill="none" id="#547481-to-contest" style="stroke: #A80036; stroke-width: 1.0;"/><polygon fill="#A80036" points="93.7268,342.808,91.4032,333.2372,90.6755,338.847,85.0656,338.1193,93.7268,342.808" style="stroke: #A80036; stroke-width: 1.0;"/><text fill="#000000" font-family="sans-serif" font-size="11" lengthAdjust="spacingAndGlyphs" textLength="301" x="61" y="203.7104">You take part in a hacking contest at your university.</text><!--MD5=[4f5ec332a9af5a49ddb865cde496f6b7]
link newL to a--><path d="M362,316.085 C362,355.287 362,415.766 362,447.646 " fill="none" id="newL-to-a" style="stroke: #A80036; stroke-width: 1.0;"/><polygon fill="#A80036" points="362,452.883,366,443.883,362,447.883,358,443.883,362,452.883" style="stroke: #A80036; stroke-width: 1.0;"/><!--MD5=[7a91887101036c18dbb83273c592db52]
link no to a--><path d="M614.694,323.067 C544.858,363.398 444.914,421.116 394.188,450.411 " fill="none" id="no-to-a" style="stroke: #A80036; stroke-width: 1.0;"/><polygon fill="#A80036" points="389.731,452.985,399.5252,451.949,394.0611,450.4849,395.5251,445.0208,389.731,452.985" style="stroke: #A80036; stroke-width: 1.0;"/><!--MD5=[492c4591fca37d7c9739d0d6934286ae]
link contest to a--><path d="M257.218,432.395 C276.275,439.052 294.971,445.584 311.173,451.244 " fill="none" id="contest-to-a" style="stroke: #A80036; stroke-width: 1.0;"/><polygon fill="#A80036" points="316.119,452.972,308.9425,446.2268,311.3989,451.3225,306.3033,453.7789,316.119,452.972" style="stroke: #A80036; stroke-width: 1.0;"/><!--MD5=[96cbc3f3d3996096dd2d6a95581339b7]
link a to Graduate studies--><path d="M362,487.2011 C362,497.6917 362,511.4627 362,522.8176 " fill="none" id="a-to-Graduate studies" style="stroke: #0000FF; stroke-width: 1.0; stroke-dasharray: 1.0,3.0;"/><polygon fill="#0000FF" points="362,527.8442,366,518.8442,362,522.8442,358,518.8442,362,527.8442" style="stroke: #0000FF; stroke-width: 1.0;"/><!--MD5=[6bd6a1473c22095c21b47d6255b37730]
@startuml
(*) - -> "After completing the elective, you can enjoy your free time, or would you rather take part in a extracurricular activity?"
if "" then
- -> [You use your spare time \n to learn a programming language unknown to you.] "You get to know the csharp programming language. \n Your stats increase: \n +2 programming \n +1 analytics" as newL
else
- -> [No, you enjoy your free \n time and attend some parties.] "Through many parties in your spare \n time your partying stat increases, \nbut your programming skills get a bit rusty:\n +4 partying \n -1 programming" as no
else 
- -> [You take part in a hacking contest at your university.] "You get to know many new people \n and expand your programming skills.\n Your stats increase:\n +2 programming \n +1 communication" as contest

newL - -> "You have successfully completed your studies." as a 
no - -> a
contest -> a





-[#blue,dotted]-> "Graduate studies"
@enduml

PlantUML version 1.2020.20beta13(Unknown compile time)
(GPL source distribution)
Java Runtime: Java(TM) SE Runtime Environment
JVM: Java HotSpot(TM) 64-Bit Server VM
Default Encoding: UTF-8
Language: en
Country: US
--></g></svg>