<?xml version="1.0" encoding="UTF-8" standalone="no"?>
<svg xmlns="http://www.w3.org/2000/svg" xmlns:xlink="http://www.w3.org/1999/xlink" contentScriptType="application/ecmascript" contentStyleType="text/css" height="410px" preserveAspectRatio="none" style="width:581px;height:410px;" version="1.1" viewBox="0 0 581 410" width="581px" zoomAndPan="magnify"><defs><filter height="300%" id="f5vynxn6klo4t" width="300%" x="-1" y="-1"><feGaussianBlur result="blurOut" stdDeviation="2.0"/><feColorMatrix in="blurOut" result="blurOut2" type="matrix" values="0 0 0 0 0 0 0 0 0 0 0 0 0 0 0 0 0 0 .4 0"/><feOffset dx="4.0" dy="4.0" in="blurOut2" result="blurOut3"/><feBlend in="SourceGraphic" in2="blurOut3" mode="normal"/></filter></defs><g><ellipse cx="312.5" cy="16" fill="#000000" filter="url(#f5vynxn6klo4t)" rx="10" ry="10" style="stroke: none; stroke-width: 1.0;"/><rect fill="#FEFECE" filter="url(#f5vynxn6klo4t)" height="33.9688" rx="12.5" ry="12.5" style="stroke: #A80036; stroke-width: 1.5;" width="201" x="212" y="67"/><text fill="#000000" font-family="sans-serif" font-size="12" lengthAdjust="spacingAndGlyphs" textLength="181" x="222" y="88.1387">You are at the company party.</text><polygon fill="#FEFECE" filter="url(#f5vynxn6klo4t)" points="312.5,142,324.5,154,312.5,166,300.5,154,312.5,142" style="stroke: #A80036; stroke-width: 1.5;"/><rect fill="#FEFECE" filter="url(#f5vynxn6klo4t)" height="75.875" rx="12.5" ry="12.5" style="stroke: #A80036; stroke-width: 1.5;" width="169" x="7" y="246"/><text fill="#000000" font-family="sans-serif" font-size="12" lengthAdjust="spacingAndGlyphs" textLength="97" x="41" y="267.1387">Your colleagues</text><text fill="#000000" font-family="sans-serif" font-size="12" lengthAdjust="spacingAndGlyphs" textLength="141" x="21" y="281.1074">will give you a few tips.</text><text fill="#000000" font-family="sans-serif" font-size="12" lengthAdjust="spacingAndGlyphs" textLength="112" x="35.5" y="295.0762">Your stats change:</text><text fill="#000000" font-family="sans-serif" font-size="12" lengthAdjust="spacingAndGlyphs" textLength="103" x="42" y="309.0449">+2 programming</text><rect fill="#FEFECE" filter="url(#f5vynxn6klo4t)" height="47.9375" rx="12.5" ry="12.5" style="stroke: #A80036; stroke-width: 1.5;" width="232" x="196.5" y="260"/><text fill="#000000" font-family="sans-serif" font-size="12" lengthAdjust="spacingAndGlyphs" textLength="212" x="206.5" y="281.1387">You enable additional dialog option</text><text fill="#000000" font-family="sans-serif" font-size="12" lengthAdjust="spacingAndGlyphs" textLength="113" x="258" y="295.1074">for later decisions.</text><rect fill="#FEFECE" filter="url(#f5vynxn6klo4t)" height="33.9688" rx="12.5" ry="12.5" style="stroke: #A80036; stroke-width: 1.5;" width="325" x="150" y="363"/><text fill="#000000" font-family="sans-serif" font-size="12" lengthAdjust="spacingAndGlyphs" textLength="305" x="160" y="384.1387">You are thirsty and want to get something to drink.</text><!--MD5=[0a8eccbd8fbf51546ee8c3faeaa0481f]
link start to You are at the company party.--><path d="M312.5,26.177 C312.5,35.269 312.5,49.527 312.5,61.485 " fill="none" id="start-to-You are at the company party." style="stroke: #A80036; stroke-width: 1.0;"/><polygon fill="#A80036" points="312.5,66.791,316.5,57.791,312.5,61.791,308.5,57.791,312.5,66.791" style="stroke: #A80036; stroke-width: 1.0;"/><!--MD5=[6f7afdb798b546c0dfed4b262b7769dc]
link You are at the company party. to #810015--><path d="M312.5,101.115 C312.5,111.916 312.5,126.082 312.5,136.883 " fill="none" id="You are at the company party.-to-#810015" style="stroke: #A80036; stroke-width: 1.0;"/><polygon fill="#A80036" points="312.5,141.885,316.5,132.885,312.5,136.885,308.5,132.885,312.5,141.885" style="stroke: #A80036; stroke-width: 1.0;"/><text fill="#000000" font-family="sans-serif" font-size="11" lengthAdjust="spacingAndGlyphs" textLength="217" x="75.4953" y="136.8297">What is the first thing you want to do?</text><!--MD5=[c45faa78d5ed65fb4d1ae7fb8aa6fbcb]
link #810015 to tipps--><path d="M301.717,155.54 C278.563,157.119 222.991,163.187 183.5,186 C159.383,199.932 137.661,222.116 121.387,241.755 " fill="none" id="#810015-to-tipps" style="stroke: #A80036; stroke-width: 1.0;"/><polygon fill="#A80036" points="118.206,245.646,126.9987,241.2089,121.3702,241.7746,120.8045,236.1461,118.206,245.646" style="stroke: #A80036; stroke-width: 1.0;"/><text fill="#000000" font-family="sans-serif" font-size="11" lengthAdjust="spacingAndGlyphs" textLength="45" x="221" y="203.7104">You talk</text><text fill="#000000" font-family="sans-serif" font-size="11" lengthAdjust="spacingAndGlyphs" textLength="118" x="188.5" y="216.5151">with your colleagues</text><!--MD5=[9565ecb4c7a5fa2163bff0b07dff89ae]
link #810015 to ent--><path d="M312.5,166.359 C312.5,186.058 312.5,227.105 312.5,254.863 " fill="none" id="#810015-to-ent" style="stroke: #A80036; stroke-width: 1.0;"/><polygon fill="#A80036" points="312.5,259.883,316.5,250.883,312.5,254.883,308.5,250.883,312.5,259.883" style="stroke: #A80036; stroke-width: 1.0;"/><text fill="#000000" font-family="sans-serif" font-size="11" lengthAdjust="spacingAndGlyphs" textLength="45" x="341.5" y="197.2104">You talk</text><text fill="#000000" font-family="sans-serif" font-size="11" lengthAdjust="spacingAndGlyphs" textLength="97" x="317.5" y="210.0151">with your mentor</text><text fill="#000000" font-family="sans-serif" font-size="11" lengthAdjust="spacingAndGlyphs" textLength="80" x="328" y="222.8198">and your boss</text><!--MD5=[86d6f140354dfa9de85e79ea9d0e9194]
link #810015 to alc--><path d="M323.906,154.607 C346.531,154.488 397.254,157.619 424.5,186 C466.581,229.834 471.443,270.941 438.5,322 C426.861,340.0406 407.979,352.4326 388.334,360.921 " fill="none" id="#810015-to-alc" style="stroke: #0000FF; stroke-width: 1.0; stroke-dasharray: 1.0,3.0;"/><polygon fill="#0000FF" points="383.328,362.9961,393.1737,363.2457,387.9471,361.0819,390.1109,355.8552,383.328,362.9961" style="stroke: #0000FF; stroke-width: 1.0;"/><text fill="#000000" font-family="sans-serif" font-size="11" lengthAdjust="spacingAndGlyphs" textLength="86" x="474" y="281.7104">You find a seat</text><text fill="#000000" font-family="sans-serif" font-size="11" lengthAdjust="spacingAndGlyphs" textLength="109" x="464.5" y="294.5151">and sit by yourself.</text><!--MD5=[dda8178b6cadf3436a7273801314d56d]
link tipps to alc--><path d="M176.312,321.074 C208.284,334.6727 243.292,349.5632 269.808,360.8415 " fill="none" id="tipps-to-alc" style="stroke: #0000FF; stroke-width: 1.0; stroke-dasharray: 1.0,3.0;"/><polygon fill="#0000FF" points="274.658,362.9043,267.9418,355.7007,270.0569,360.9472,264.8104,363.0624,274.658,362.9043" style="stroke: #0000FF; stroke-width: 1.0;"/><!--MD5=[644e201eb7e8db4088580c4e053760c8]
link ent to alc--><path d="M312.5,308.236 C312.5,323.3433 312.5,342.8959 312.5,357.6189 " fill="none" id="ent-to-alc" style="stroke: #0000FF; stroke-width: 1.0; stroke-dasharray: 1.0,3.0;"/><polygon fill="#0000FF" points="312.5,362.8074,316.5,353.8074,312.5,357.8074,308.5,353.8074,312.5,362.8074" style="stroke: #0000FF; stroke-width: 1.0;"/><!--MD5=[88ca03b2040655ba82b667ea8b0d22a7]
@startuml
(*) - -> "You are at the company party." 
if "What is the first thing you want to do?" then 
- -> [You talk \n with your colleagues] "Your colleagues \n will give you a few tips. \n Your stats change: \n +2 programming" as tipps
else 
- -> [You talk \n with your mentor \n and your boss] "You enable additional dialog option\n for later decisions." as ent

else
-[#blue,dotted]-> [You find a seat\n and sit by yourself.] "You are thirsty and want to get something to drink." as alc
tipps -[#blue,dotted]-> alc
ent -[#blue,dotted]-> alc

endif
@enduml

PlantUML version 1.2020.20beta13(Unknown compile time)
(GPL source distribution)
Java Runtime: Java(TM) SE Runtime Environment
JVM: Java HotSpot(TM) 64-Bit Server VM
Default Encoding: UTF-8
Language: en
Country: US
--></g></svg>