<?xml version="1.0" encoding="UTF-8" standalone="no"?><svg xmlns="http://www.w3.org/2000/svg" xmlns:xlink="http://www.w3.org/1999/xlink" contentScriptType="application/ecmascript" contentStyleType="text/css" height="651px" preserveAspectRatio="none" style="width:1090px;height:651px;" version="1.1" viewBox="0 0 1090 651" width="1090px" zoomAndPan="magnify"><defs><filter height="300%" id="f1wmuzmtyccwx" width="300%" x="-1" y="-1"><feGaussianBlur result="blurOut" stdDeviation="2.0"/><feColorMatrix in="blurOut" result="blurOut2" type="matrix" values="0 0 0 0 0 0 0 0 0 0 0 0 0 0 0 0 0 0 .4 0"/><feOffset dx="4.0" dy="4.0" in="blurOut2" result="blurOut3"/><feBlend in="SourceGraphic" in2="blurOut3" mode="normal"/></filter></defs><g><ellipse cx="396" cy="16" fill="#000000" filter="url(#f1wmuzmtyccwx)" rx="10" ry="10" style="stroke: none; stroke-width: 1.0;"/><rect fill="#FEFECE" filter="url(#f1wmuzmtyccwx)" height="33.9688" rx="12.5" ry="12.5" style="stroke: #A80036; stroke-width: 1.5;" width="440" x="176" y="67"/><text fill="#000000" font-family="sans-serif" font-size="12" lengthAdjust="spacingAndGlyphs" textLength="420" x="186" y="88.1387">You are thirsty and want to get something to drink, what do you take?</text><polygon fill="#FEFECE" filter="url(#f1wmuzmtyccwx)" points="396,142,408,154,396,166,384,154,396,142" style="stroke: #A80036; stroke-width: 1.5;"/><rect fill="#FEFECE" filter="url(#f1wmuzmtyccwx)" height="33.9688" rx="12.5" ry="12.5" style="stroke: #A80036; stroke-width: 1.5;" width="240" x="7" y="214"/><text fill="#000000" font-family="sans-serif" font-size="12" lengthAdjust="spacingAndGlyphs" textLength="220" x="17" y="235.1387">One beer is enough for the evening.</text><rect fill="#FEFECE" filter="url(#f1wmuzmtyccwx)" height="47.9375" rx="12.5" ry="12.5" style="stroke: #A80036; stroke-width: 1.5;" width="194" x="248" y="296"/><text fill="#000000" font-family="sans-serif" font-size="12" lengthAdjust="spacingAndGlyphs" textLength="174" x="258" y="317.1387">You got through the evening.</text><text fill="#000000" font-family="sans-serif" font-size="12" lengthAdjust="spacingAndGlyphs" textLength="70" x="312" y="331.1074">+1 partying</text><rect fill="#FEFECE" filter="url(#f1wmuzmtyccwx)" height="33.9688" rx="12.5" ry="12.5" style="stroke: #A80036; stroke-width: 1.5;" width="257" x="267.5" y="214"/><text fill="#000000" font-family="sans-serif" font-size="12" lengthAdjust="spacingAndGlyphs" textLength="237" x="277.5" y="235.1387">A good old spezi is perfectly sufficient.</text><rect fill="#FEFECE" filter="url(#f1wmuzmtyccwx)" height="47.9375" rx="12.5" ry="12.5" style="stroke: #A80036; stroke-width: 1.5;" width="334" x="545" y="207"/><text fill="#000000" font-family="sans-serif" font-size="12" lengthAdjust="spacingAndGlyphs" textLength="179" x="620.5" y="228.1387">A few Tequilla shots will do it,</text><text fill="#000000" font-family="sans-serif" font-size="12" lengthAdjust="spacingAndGlyphs" textLength="314" x="555" y="242.1074">after all its for free, you should take advantage of it.</text><polygon fill="#FEFECE" filter="url(#f1wmuzmtyccwx)" points="712,308,724,320,712,332,700,320,712,308" style="stroke: #A80036; stroke-width: 1.5;"/><rect fill="#FEFECE" filter="url(#f1wmuzmtyccwx)" height="61.9063" rx="12.5" ry="12.5" style="stroke: #A80036; stroke-width: 1.5;" width="392" x="376" y="412"/><text fill="#000000" font-family="sans-serif" font-size="12" lengthAdjust="spacingAndGlyphs" textLength="368" x="386" y="433.1387">Due to your excellent party experience you are able to drink</text><text fill="#000000" font-family="sans-serif" font-size="12" lengthAdjust="spacingAndGlyphs" textLength="266" x="439" y="447.1074">and survive the party without creating a stir:</text><text fill="#000000" font-family="sans-serif" font-size="12" lengthAdjust="spacingAndGlyphs" textLength="71" x="538.5" y="461.0762">+3 partying</text><rect fill="#FEFECE" filter="url(#f1wmuzmtyccwx)" height="89.8438" rx="12.5" ry="12.5" style="stroke: #A80036; stroke-width: 1.5;" width="288" x="788" y="398"/><text fill="#000000" font-family="sans-serif" font-size="12" lengthAdjust="spacingAndGlyphs" textLength="264" x="798" y="419.1387">You bring a good atmosphere to the group,</text><text fill="#000000" font-family="sans-serif" font-size="12" lengthAdjust="spacingAndGlyphs" textLength="224" x="820" y="433.1074">but your mentor and boss notice you</text><text fill="#000000" font-family="sans-serif" font-size="12" lengthAdjust="spacingAndGlyphs" textLength="247" x="810.5" y="447.0762">negatively, because you are quite drunk.</text><text fill="#000000" font-family="sans-serif" font-size="12" lengthAdjust="spacingAndGlyphs" textLength="71" x="896.5" y="461.0449">+3 partying</text><text fill="#000000" font-family="sans-serif" font-size="12" lengthAdjust="spacingAndGlyphs" textLength="107" x="880.5" y="475.0137">-2 communication</text><rect fill="#FEFECE" filter="url(#f1wmuzmtyccwx)" height="33.9688" rx="12.5" ry="12.5" style="stroke: #A80036; stroke-width: 1.5;" width="236" x="454" y="529"/><text fill="#000000" font-family="sans-serif" font-size="12" lengthAdjust="spacingAndGlyphs" textLength="216" x="464" y="550.1387">The party is over and you go home.</text><rect fill="#FEFECE" filter="url(#f1wmuzmtyccwx)" height="33.9688" rx="12.5" ry="12.5" style="stroke: #A80036; stroke-width: 1.5;" width="403" x="370.5" y="604"/><text fill="#000000" font-family="sans-serif" font-size="12" lengthAdjust="spacingAndGlyphs" textLength="383" x="380.5" y="625.1387">A voluntary further education is pending, will you take part in it?</text><!--MD5=[f0faba48d7efab99a17b0001edf6edff]
link start to alc--><path d="M396,26.177 C396,35.269 396,49.527 396,61.485 " fill="none" id="start-to-alc" style="stroke: #A80036; stroke-width: 1.0;"/><polygon fill="#A80036" points="396,66.791,400,57.791,396,61.791,392,57.791,396,66.791" style="stroke: #A80036; stroke-width: 1.0;"/><!--MD5=[1e6497885bb0224539ea645cb9c8c3d5]
link alc to #242854--><path d="M396,101.115 C396,111.916 396,126.082 396,136.883 " fill="none" id="alc-to-#242854" style="stroke: #A80036; stroke-width: 1.0;"/><polygon fill="#A80036" points="396,141.885,400,132.885,396,136.885,392,132.885,396,141.885" style="stroke: #A80036; stroke-width: 1.0;"/><text fill="#000000" font-family="sans-serif" font-size="11" lengthAdjust="spacingAndGlyphs" textLength="0" x="395.025" y="131.4605"/><!--MD5=[5c710ee3077485a1ba1486f76b14b528]
link #242854 to genießen--><path d="M387.355,157.41 C357.468,165.743 256.683,193.843 189.633,212.537 " fill="none" id="#242854-to-genießen" style="stroke: #A80036; stroke-width: 1.0;"/><polygon fill="#A80036" points="184.464,213.979,194.2077,215.4146,189.2803,212.636,192.0589,207.7086,184.464,213.979" style="stroke: #A80036; stroke-width: 1.0;"/><!--MD5=[a711d685fd9918d03fea465cefceeec3]
link genießen to party--><path d="M167.239,248.059 C199.5,260.933 245.343,279.229 282.394,294.015 " fill="none" id="genießen-to-party" style="stroke: #A80036; stroke-width: 1.0;"/><polygon fill="#A80036" points="287.33,295.985,280.4548,288.933,282.6864,294.131,277.4884,296.3627,287.33,295.985" style="stroke: #A80036; stroke-width: 1.0;"/><!--MD5=[d888ccaa39aeb4a320045f7094906efd]
link #242854 to A good old spezi is perfectly sufficient.--><path d="M396,166.067 C396,177.218 396,194.714 396,208.587 " fill="none" id="#242854-to-A good old spezi is perfectly sufficient." style="stroke: #A80036; stroke-width: 1.0;"/><polygon fill="#A80036" points="396,213.896,400,204.896,396,208.896,392,204.896,396,213.896" style="stroke: #A80036; stroke-width: 1.0;"/><!--MD5=[9eca0d2302ad8d35731aaecf4da6f96a]
link A good old spezi is perfectly sufficient. to party--><path d="M386.407,248.364 C379.356,260.393 369.603,277.031 361.333,291.137 " fill="none" id="A good old spezi is perfectly sufficient.-to-party" style="stroke: #A80036; stroke-width: 1.0;"/><polygon fill="#A80036" points="358.592,295.814,366.5946,290.0731,361.1209,291.5007,359.6933,286.0269,358.592,295.814" style="stroke: #A80036; stroke-width: 1.0;"/><!--MD5=[84a84f88961c96427951f5a122ef38d9]
link #242854 to saufen--><path d="M405.116,157.164 C435.021,164.261 532.636,187.429 609.839,205.753 " fill="none" id="#242854-to-saufen" style="stroke: #A80036; stroke-width: 1.0;"/><polygon fill="#A80036" points="614.894,206.953,607.0603,200.9836,610.029,205.7989,605.2137,208.7676,614.894,206.953" style="stroke: #A80036; stroke-width: 1.0;"/><!--MD5=[c38d00dc491df9ed7973f920f3ad98d2]
link saufen to #242866--><path d="M712,255.314 C712,270.112 712,288.915 712,302.243 " fill="none" id="saufen-to-#242866" style="stroke: #A80036; stroke-width: 1.0;"/><polygon fill="#A80036" points="712,307.593,716,298.593,712,302.593,708,298.593,712,307.593" style="stroke: #A80036; stroke-width: 1.0;"/><text fill="#000000" font-family="sans-serif" font-size="11" lengthAdjust="spacingAndGlyphs" textLength="0" x="711.075" y="297.4763"/><!--MD5=[c2dc2266d7fcd662da4434ed26a9896e]
link #242866 to alci--><path d="M705.984,326.199 C689.84,340.152 644.517,379.324 611.034,408.264 " fill="none" id="#242866-to-alci" style="stroke: #A80036; stroke-width: 1.0;"/><polygon fill="#A80036" points="607.012,411.74,616.4366,408.8805,610.7946,408.4702,611.2049,402.8282,607.012,411.74" style="stroke: #A80036; stroke-width: 1.0;"/><text fill="#000000" font-family="sans-serif" font-size="11" lengthAdjust="spacingAndGlyphs" textLength="130" x="659" y="375.2104">partying + random &gt; 8</text><!--MD5=[d5716614cd4d07195cfdf6008d9eeef7]
link #242866 to You bring a good atmosphere to the group, \n but your mentor and boss notice you \n negatively, because you are quite drunk.\n +3 partying \n -2 communication--><path d="M719.379,324.7 C733.936,332.024 767.337,348.967 795,364 C813.29,373.939 832.804,384.857 851.201,395.295 " fill="none" id="#242866-to-You bring a good atmosphere to the group, \n but your mentor and boss notice you \n negatively, because you are quite drunk.\n +3 partying \n -2 communication" style="stroke: #A80036; stroke-width: 1.0;"/><polygon fill="#A80036" points="855.852,397.938,850.003,390.0141,851.5047,395.4679,846.0509,396.9697,855.852,397.938" style="stroke: #A80036; stroke-width: 1.0;"/><text fill="#000000" font-family="sans-serif" font-size="11" lengthAdjust="spacingAndGlyphs" textLength="139" x="818" y="375.2104">partying + random &lt;= 8</text><!--MD5=[702ddd4f492a8461d0c4697a6b1ef3f5]
link You bring a good atmosphere to the group, \n but your mentor and boss notice you \n negatively, because you are quite drunk.\n +3 partying \n -2 communication to hause--><path d="M787.738,485.257 C784.462,486.181 781.212,487.097 778,488 C730.286,501.417 676.282,516.351 635.542,527.565 " fill="none" id="You bring a good atmosphere to the group, \n but your mentor and boss notice you \n negatively, because you are quite drunk.\n +3 partying \n -2 communication-to-hause" style="stroke: #A80036; stroke-width: 1.0;"/><polygon fill="#A80036" points="630.641,528.914,640.3798,530.3821,635.4617,527.5871,638.2567,522.6689,630.641,528.914" style="stroke: #A80036; stroke-width: 1.0;"/><!--MD5=[2050a46a25da50db765cf0ba6b96b460]
link party to hause--><path d="M340.616,344.126 C335.321,379.594 331.023,447.55 366,488 C380.461,504.723 426.09,518.228 470.74,527.887 " fill="none" id="party-to-hause" style="stroke: #A80036; stroke-width: 1.0;"/><polygon fill="#A80036" points="475.896,528.986,467.9282,523.1968,471.006,527.9431,466.2596,531.0209,475.896,528.986" style="stroke: #A80036; stroke-width: 1.0;"/><!--MD5=[fc9cb106ae4db612f898e7b4aa45aff5]
link alci to hause--><path d="M572,474.03 C572,490.084 572,509.461 572,523.909 " fill="none" id="alci-to-hause" style="stroke: #A80036; stroke-width: 1.0;"/><polygon fill="#A80036" points="572,528.994,576,519.994,572,523.994,568,519.994,572,528.994" style="stroke: #A80036; stroke-width: 1.0;"/><!--MD5=[c65a8d5f8efc8617bd798cffc70c34c1]
link hause to A voluntary further education is pending, will you take part in it?--><path d="M572,563.2011 C572,573.6917 572,587.4627 572,598.8176 " fill="none" id="hause-to-A voluntary further education is pending, will you take part in it?" style="stroke: #0000FF; stroke-width: 1.0; stroke-dasharray: 1.0,3.0;"/><polygon fill="#0000FF" points="572,603.8442,576,594.8442,572,598.8442,568,594.8442,572,603.8442" style="stroke: #0000FF; stroke-width: 1.0;"/><!--MD5=[d5d781dae68718b3a9c176353a4f8df5]
@startuml
(*) - -> "You are thirsty and want to get something to drink, what do you take?" as alc
if "" then 
- -> "One beer is enough for the evening." as genießen
genießen - -> "You got through the evening.\n +1 partying" as party
else 
- -> "A good old spezi is perfectly sufficient."
- -> party
else 
- -> "A few Tequilla shots will do it, \nafter all its for free, you should take advantage of it." as saufen
if "" then 
- -> [partying + random > 8] "Due to your excellent party experience you are able to drink \n and survive the party without creating a stir: \n +3 partying" as alci
else 
- -> [partying + random <= 8] "You bring a good atmosphere to the group, \n but your mentor and boss notice you \n negatively, because you are quite drunk.\n +3 partying \n -2 communication"
endif
- -> "The party is over and you go home." as hause
party - -> hause
alci - -> hause
-[#blue,dotted]-> "A voluntary further education is pending, will you take part in it?"
@enduml

PlantUML version 1.2020.20beta13(Unknown compile time)
(GPL source distribution)
Java Runtime: Java(TM) SE Runtime Environment
JVM: Java HotSpot(TM) 64-Bit Server VM
Default Encoding: UTF-8
Language: en
Country: US
--></g></svg>