<?xml version="1.0" encoding="UTF-8" standalone="no"?><svg xmlns="http://www.w3.org/2000/svg" xmlns:xlink="http://www.w3.org/1999/xlink" contentScriptType="application/ecmascript" contentStyleType="text/css" height="944px" preserveAspectRatio="none" style="width:797px;height:944px;" version="1.1" viewBox="0 0 797 944" width="797px" zoomAndPan="magnify"><defs><filter height="300%" id="fhb9cuae3pe40" width="300%" x="-1" y="-1"><feGaussianBlur result="blurOut" stdDeviation="2.0"/><feColorMatrix in="blurOut" result="blurOut2" type="matrix" values="0 0 0 0 0 0 0 0 0 0 0 0 0 0 0 0 0 0 .4 0"/><feOffset dx="4.0" dy="4.0" in="blurOut2" result="blurOut3"/><feBlend in="SourceGraphic" in2="blurOut3" mode="normal"/></filter></defs><g><ellipse cx="578" cy="16" fill="#000000" filter="url(#fhb9cuae3pe40)" rx="10" ry="10" style="stroke: none; stroke-width: 1.0;"/><rect fill="#FEFECE" filter="url(#fhb9cuae3pe40)" height="61.9063" rx="12.5" ry="12.5" style="stroke: #A80036; stroke-width: 1.5;" width="320" x="418" y="67"/><text fill="#000000" font-family="sans-serif" font-size="12" lengthAdjust="spacingAndGlyphs" textLength="264" x="446" y="88.1387">Your colleague Trummu is approaching you.</text><text fill="#000000" font-family="sans-serif" font-size="12" lengthAdjust="spacingAndGlyphs" textLength="292" x="432" y="102.1074">Trummu urgently needs your support in his task.</text><text fill="#000000" font-family="sans-serif" font-size="12" lengthAdjust="spacingAndGlyphs" textLength="135" x="512.5" y="116.0762">How do you proceed?</text><polygon fill="#FEFECE" filter="url(#fhb9cuae3pe40)" points="578,170,590,182,578,194,566,182,578,170" style="stroke: #A80036; stroke-width: 1.5;"/><rect fill="#FEFECE" filter="url(#fhb9cuae3pe40)" height="33.9688" rx="12.5" ry="12.5" style="stroke: #A80036; stroke-width: 1.5;" width="366" x="262" y="248"/><text fill="#000000" font-family="sans-serif" font-size="12" lengthAdjust="spacingAndGlyphs" textLength="346" x="272" y="269.1387">You help Trummu, but you might miss your own Deadline.</text><polygon fill="#FEFECE" filter="url(#fhb9cuae3pe40)" points="434,384,446,396,434,408,422,396,434,384" style="stroke: #A80036; stroke-width: 1.5;"/><rect fill="#FEFECE" filter="url(#fhb9cuae3pe40)" height="61.9063" rx="12.5" ry="12.5" style="stroke: #A80036; stroke-width: 1.5;" width="250" x="7" y="586"/><text fill="#000000" font-family="sans-serif" font-size="12" lengthAdjust="spacingAndGlyphs" textLength="226" x="17" y="607.1387">Your colleague is satisfied and luckily</text><text fill="#000000" font-family="sans-serif" font-size="12" lengthAdjust="spacingAndGlyphs" textLength="204" x="30" y="621.1074">you dont miss your own deadline.</text><text fill="#000000" font-family="sans-serif" font-size="12" lengthAdjust="spacingAndGlyphs" textLength="112" x="78" y="635.0762">+2 communication</text><rect fill="#FEFECE" filter="url(#fhb9cuae3pe40)" height="103.8125" rx="12.5" ry="12.5" style="stroke: #A80036; stroke-width: 1.5;" width="323" x="272.5" y="462"/><text fill="#000000" font-family="sans-serif" font-size="12" lengthAdjust="spacingAndGlyphs" textLength="163" x="350.5" y="483.1387">Your colleague is satisfied,</text><text fill="#000000" font-family="sans-serif" font-size="12" lengthAdjust="spacingAndGlyphs" textLength="151" x="358.5" y="497.1074">but because of the delay</text><text fill="#000000" font-family="sans-serif" font-size="12" lengthAdjust="spacingAndGlyphs" textLength="290" x="289" y="511.0762">you now have problems meeting your deadline,</text><text fill="#000000" font-family="sans-serif" font-size="12" lengthAdjust="spacingAndGlyphs" textLength="295" x="286.5" y="525.0449">so you ask your other colleague Sodani for help.</text><text fill="#000000" font-family="sans-serif" font-size="12" lengthAdjust="spacingAndGlyphs" textLength="120" x="374" y="539.0137">Your stats increase:</text><text fill="#000000" font-family="sans-serif" font-size="12" lengthAdjust="spacingAndGlyphs" textLength="112" x="380" y="552.9824">+2 communication</text><polygon fill="#FEFECE" filter="url(#fhb9cuae3pe40)" points="434,668,446,680,434,692,422,680,434,668" style="stroke: #A80036; stroke-width: 1.5;"/><rect fill="#FEFECE" filter="url(#fhb9cuae3pe40)" height="33.9688" rx="12.5" ry="12.5" style="stroke: #A80036; stroke-width: 1.5;" width="326" x="146" y="712"/><text fill="#000000" font-family="sans-serif" font-size="12" lengthAdjust="spacingAndGlyphs" textLength="306" x="156" y="733.1387">Sodani helps you and you can meet your deadline.</text><rect fill="#FEFECE" filter="url(#fhb9cuae3pe40)" height="75.875" rx="12.5" ry="12.5" style="stroke: #A80036; stroke-width: 1.5;" width="422" x="230" y="766"/><text fill="#000000" font-family="sans-serif" font-size="12" lengthAdjust="spacingAndGlyphs" textLength="398" x="240" y="787.1387">Sodani will not help you and therefore you will miss your deadline</text><text fill="#000000" font-family="sans-serif" font-size="12" lengthAdjust="spacingAndGlyphs" textLength="185" x="348.5" y="801.1074">and need an additional 5 days.</text><text fill="#000000" font-family="sans-serif" font-size="12" lengthAdjust="spacingAndGlyphs" textLength="126" x="378" y="815.0762">Your stats decrease:</text><text fill="#000000" font-family="sans-serif" font-size="12" lengthAdjust="spacingAndGlyphs" textLength="69" x="406.5" y="829.0449">-2 analytics</text><rect fill="#FEFECE" filter="url(#fhb9cuae3pe40)" height="47.9375" rx="12.5" ry="12.5" style="stroke: #A80036; stroke-width: 1.5;" width="231" x="150.5" y="883"/><text fill="#000000" font-family="sans-serif" font-size="12" lengthAdjust="spacingAndGlyphs" textLength="207" x="160.5" y="904.1387">The project is nearing completion,</text><text fill="#000000" font-family="sans-serif" font-size="12" lengthAdjust="spacingAndGlyphs" textLength="183" x="176.5" y="918.1074">only a code review is missing.</text><rect fill="#FEFECE" filter="url(#fhb9cuae3pe40)" height="61.9063" rx="12.5" ry="12.5" style="stroke: #A80036; stroke-width: 1.5;" width="195" x="567.5" y="302"/><text fill="#000000" font-family="sans-serif" font-size="12" lengthAdjust="spacingAndGlyphs" textLength="162" x="582" y="323.1387">I have enough to do on my</text><text fill="#000000" font-family="sans-serif" font-size="12" lengthAdjust="spacingAndGlyphs" textLength="167" x="581.5" y="337.1074">own and therefore continue</text><text fill="#000000" font-family="sans-serif" font-size="12" lengthAdjust="spacingAndGlyphs" textLength="161" x="586.5" y="351.0762">to work on my own things!</text><!--MD5=[52b085fb6033d9b98d84f04b4a7d1a93]
link start to Your colleague Trummu is approaching you.\n Trummu urgently needs your support in his task. \n How do you proceed?--><path d="M578,26.177 C578,34.945 578,48.727 578,61.812 " fill="none" id="start-to-Your colleague Trummu is approaching you.\n Trummu urgently needs your support in his task. \n How do you proceed?" style="stroke: #A80036; stroke-width: 1.0;"/><polygon fill="#A80036" points="578,66.973,582,57.973,578,61.973,574,57.973,578,66.973" style="stroke: #A80036; stroke-width: 1.0;"/><!--MD5=[10678d7e16a0d687ddedc327c869b1a1]
link Your colleague Trummu is approaching you.\n Trummu urgently needs your support in his task. \n How do you proceed? to #1431457--><path d="M578,129.068 C578,141.212 578,154.737 578,164.939 " fill="none" id="Your colleague Trummu is approaching you.\n Trummu urgently needs your support in his task. \n How do you proceed?-to-#1431457" style="stroke: #A80036; stroke-width: 1.0;"/><polygon fill="#A80036" points="578,169.946,582,160.946,578,164.946,574,160.946,578,169.946" style="stroke: #A80036; stroke-width: 1.0;"/><text fill="#000000" font-family="sans-serif" font-size="11" lengthAdjust="spacingAndGlyphs" textLength="0" x="577.025" y="159.5513"/><!--MD5=[d22ca190540e707c39dc6349ab996155]
link #1431457 to You help Trummu, but you might miss your own Deadline.--><path d="M570.849,187.355 C553.261,198.066 507.058,226.206 475.804,245.24 " fill="none" id="#1431457-to-You help Trummu, but you might miss your own Deadline." style="stroke: #A80036; stroke-width: 1.0;"/><polygon fill="#A80036" points="471.306,247.979,481.0733,246.7139,475.5764,245.3782,476.912,239.8813,471.306,247.979" style="stroke: #A80036; stroke-width: 1.0;"/><text fill="#000000" font-family="sans-serif" font-size="11" lengthAdjust="spacingAndGlyphs" textLength="84" x="525" y="225.2104">You help them</text><!--MD5=[bc8de7608c4599c8da3e35d5141598af]
link You help Trummu, but you might miss your own Deadline. to #1431462--><path d="M443.629,282.077 C441.498,307.068 437.418,354.915 435.319,379.53 " fill="none" id="You help Trummu, but you might miss your own Deadline.-to-#1431462" style="stroke: #A80036; stroke-width: 1.0;"/><polygon fill="#A80036" points="434.879,384.696,439.6284,376.0679,435.3033,379.714,431.6572,375.389,434.879,384.696" style="stroke: #A80036; stroke-width: 1.0;"/><text fill="#000000" font-family="sans-serif" font-size="11" lengthAdjust="spacingAndGlyphs" textLength="78" x="454.32" y="374.6669">dice roll &lt;= 3</text><!--MD5=[42a3f48558d2b1c482486e2047cdac8e]
link #1431462 to a--><path d="M424.637,398.793 C397.411,404.351 316.734,423.295 262,462 C216.069,494.48 176.554,546.907 153.513,581.414 " fill="none" id="#1431462-to-a" style="stroke: #A80036; stroke-width: 1.0;"/><polygon fill="#A80036" points="150.51,585.95,158.8138,580.654,153.2703,581.781,152.1433,576.2375,150.51,585.95" style="stroke: #A80036; stroke-width: 1.0;"/><text fill="#000000" font-family="sans-serif" font-size="11" lengthAdjust="spacingAndGlyphs" textLength="23" x="327" y="439.2104">true</text><!--MD5=[6383678c3ecd32606105d77cecd69d45]
link #1431462 to b--><path d="M434,408.123 C434,419.526 434,438.15 434,456.564 " fill="none" id="#1431462-to-b" style="stroke: #A80036; stroke-width: 1.0;"/><polygon fill="#A80036" points="434,461.746,438,452.746,434,456.746,430,452.746,434,461.746" style="stroke: #A80036; stroke-width: 1.0;"/><text fill="#000000" font-family="sans-serif" font-size="11" lengthAdjust="spacingAndGlyphs" textLength="28" x="435" y="439.2104">false</text><!--MD5=[b3a3f7438c0f090913361a0653bd9ad2]
link b to #1431469--><path d="M434,566.441 C434,599.521 434,640.345 434,662.611 " fill="none" id="b-to-#1431469" style="stroke: #A80036; stroke-width: 1.0;"/><polygon fill="#A80036" points="434,667.856,438,658.856,434,662.856,430,658.856,434,667.856" style="stroke: #A80036; stroke-width: 1.0;"/><text fill="#000000" font-family="sans-serif" font-size="11" lengthAdjust="spacingAndGlyphs" textLength="110" x="303.7188" y="659.5242">communication &gt; 6</text><!--MD5=[2999775a2a31b94d6cd000c439651980]
link #1431469 to c--><path d="M425.798,684.084 C411.788,689.352 382.25,700.458 356.385,710.183 " fill="none" id="#1431469-to-c" style="stroke: #A80036; stroke-width: 1.0;"/><polygon fill="#A80036" points="351.603,711.981,361.435,712.557,356.283,710.221,358.619,705.069,351.603,711.981" style="stroke: #A80036; stroke-width: 1.0;"/><text fill="#000000" font-family="sans-serif" font-size="11" lengthAdjust="spacingAndGlyphs" textLength="23" x="365.04" y="695.1154">true</text><!--MD5=[fb6053f95f6d7fbc56e7f09d25a1466e]
link #1431469 to Sodani will not help you and therefore you will miss your deadline \n and need an additional 5 days. \n Your stats decrease: \n-2 analytics--><path d="M441.753,684.495 C451.152,689.213 466.535,698.602 473,712 C480.519,727.582 476.758,745.408 469.596,761.129 " fill="none" id="#1431469-to-Sodani will not help you and therefore you will miss your deadline \n and need an additional 5 days. \n Your stats decrease: \n-2 analytics" style="stroke: #A80036; stroke-width: 1.0;"/><polygon fill="#A80036" points="467.273,765.936,474.7918,759.5746,469.4495,761.4346,467.5895,756.0922,467.273,765.936" style="stroke: #A80036; stroke-width: 1.0;"/><text fill="#000000" font-family="sans-serif" font-size="11" lengthAdjust="spacingAndGlyphs" textLength="28" x="479" y="733.2104">false</text><!--MD5=[e19e59a5b34a2e7fcb67187e6a7139ea]
link Sodani will not help you and therefore you will miss your deadline \n and need an additional 5 days. \n Your stats decrease: \n-2 analytics to ende--><path d="M376.83,842.0352 C354.793,854.754 330.625,868.7022 310.498,880.3186 " fill="none" id="Sodani will not help you and therefore you will miss your deadline \n and need an additional 5 days. \n Your stats decrease: \n-2 analytics-to-ende" style="stroke: #0000FF; stroke-width: 1.0; stroke-dasharray: 1.0,3.0;"/><polygon fill="#0000FF" points="306.003,882.9127,315.7975,881.8797,310.3339,880.414,311.7996,874.9503,306.003,882.9127" style="stroke: #0000FF; stroke-width: 1.0;"/><!--MD5=[2aa88eca0ea5158880971e33d6010e80]
link #1431457 to assi--><path d="M584.49,187.564 C592.272,193.223 605.456,203.423 615,214 C627.222,227.545 630.017,231.595 638,248 C645.467,263.345 651.548,281.242 656.036,296.565 " fill="none" id="#1431457-to-assi" style="stroke: #A80036; stroke-width: 1.0;"/><polygon fill="#A80036" points="657.496,301.655,658.86,291.9011,656.1177,296.8487,651.17,294.1064,657.496,301.655" style="stroke: #A80036; stroke-width: 1.0;"/><text fill="#000000" font-family="sans-serif" font-size="11" lengthAdjust="spacingAndGlyphs" textLength="162" x="627" y="225.2104">You don't want to help them</text><!--MD5=[5f01f0a41c3bbf0f3ad364e24735df76]
link a to ende--><path d="M131.305,648.026 C131.562,674.486 134.086,713.732 145,746 C163.154,799.674 207.105,849.749 236.731,879.1205 " fill="none" id="a-to-ende" style="stroke: #0000FF; stroke-width: 1.0; stroke-dasharray: 1.0,3.0;"/><polygon fill="#0000FF" points="240.631,882.9499,237.0111,873.7904,237.0631,879.447,231.4065,879.499,240.631,882.9499" style="stroke: #0000FF; stroke-width: 1.0;"/><!--MD5=[2c51c0ad682a8603c917a250d4441362]
link c to ende--><path d="M242.645,746.168 C233.712,751.113 225.684,757.57 220,766 C201.117,794.007 209.644,809.849 220,842 C224.259,855.2229 232.374,868.0234 240.618,878.657 " fill="none" id="c-to-ende" style="stroke: #0000FF; stroke-width: 1.0; stroke-dasharray: 1.0,3.0;"/><polygon fill="#0000FF" points="243.899,882.773,241.4172,873.242,240.7825,878.8631,235.1614,878.2284,243.899,882.773" style="stroke: #0000FF; stroke-width: 1.0;"/><!--MD5=[a2947ee25b0878b94e9bfb496b3d6d8d]
link assi to ende--><path d="M673.368,364.382 C678.068,384.072 683,410.362 683,434 C683,434 683,434 683,805 C683,823.908 677.526,831.2083 662,842 C618.417,872.2926 486.344,889.2011 386.608,897.9244 " fill="none" id="assi-to-ende" style="stroke: #0000FF; stroke-width: 1.0; stroke-dasharray: 1.0,3.0;"/><polygon fill="#0000FF" points="381.585,898.3592,390.8966,901.5677,386.5664,897.9278,390.2063,893.5976,381.585,898.3592" style="stroke: #0000FF; stroke-width: 1.0;"/><!--MD5=[f0053b67549ea2fb51c51efd2d1dd302]
@startuml
(*) - -> "Your colleague Trummu is approaching you.\n Trummu urgently needs your support in his task. \n How do you proceed?"
if "" then 
- -> [You help them] "You help Trummu, but you might miss your own Deadline."
if "dice roll <= 3" then
- -> [true] "Your colleague is satisfied and luckily \n you dont miss your own deadline. \n +2 communication" as a
else
- -> [false] "Your colleague is satisfied, \n but because of the delay \n you now have problems meeting your deadline, \n so you ask your other colleague Sodani for help. \n Your stats increase: \n +2 communication" as b
if "communication > 6" then 
-right-> [true] "Sodani helps you and you can meet your deadline." as c
else
- -> [false] "Sodani will not help you and therefore you will miss your deadline \n and need an additional 5 days. \n Your stats decrease: \n-2 analytics"
-[#blue,dotted]-> "The project is nearing completion, \n only a code review is missing." as ende
endif
endif
else
- -> [You don't want to help them] "I have enough to do on my \n own and therefore continue \n to work on my own things!" as assi
endif
a -[#blue,dotted]-> ende
c -[#blue,dotted]-> ende
assi -[#blue,dotted]-> ende
@enduml

PlantUML version 1.2020.20beta13(Unknown compile time)
(GPL source distribution)
Java Runtime: Java(TM) SE Runtime Environment
JVM: Java HotSpot(TM) 64-Bit Server VM
Default Encoding: UTF-8
Language: en
Country: US
--></g></svg>