<?xml version="1.0" encoding="UTF-8" standalone="no"?><svg xmlns="http://www.w3.org/2000/svg" xmlns:xlink="http://www.w3.org/1999/xlink" contentScriptType="application/ecmascript" contentStyleType="text/css" height="458px" preserveAspectRatio="none" style="width:795px;height:458px;" version="1.1" viewBox="0 0 795 458" width="795px" zoomAndPan="magnify"><defs><filter height="300%" id="f1iis3ie1cx30k" width="300%" x="-1" y="-1"><feGaussianBlur result="blurOut" stdDeviation="2.0"/><feColorMatrix in="blurOut" result="blurOut2" type="matrix" values="0 0 0 0 0 0 0 0 0 0 0 0 0 0 0 0 0 0 .4 0"/><feOffset dx="4.0" dy="4.0" in="blurOut2" result="blurOut3"/><feBlend in="SourceGraphic" in2="blurOut3" mode="normal"/></filter></defs><g><ellipse cx="394" cy="16" fill="#000000" filter="url(#f1iis3ie1cx30k)" rx="10" ry="10" style="stroke: none; stroke-width: 1.0;"/><rect fill="#FEFECE" filter="url(#f1iis3ie1cx30k)" height="33.9688" rx="12.5" ry="12.5" style="stroke: #A80036; stroke-width: 1.5;" width="774" x="7" y="67"/><text fill="#000000" font-family="sans-serif" font-size="12" lengthAdjust="spacingAndGlyphs" textLength="754" x="17" y="88.1387">After completing the elective, you can enjoy your free time, or would you rather take part in a voluntary company internship?</text><polygon fill="#FEFECE" filter="url(#f1iis3ie1cx30k)" points="394,142,406,154,394,166,382,154,394,142" style="stroke: #A80036; stroke-width: 1.5;"/><rect fill="#FEFECE" filter="url(#f1iis3ie1cx30k)" height="61.9063" rx="12.5" ry="12.5" style="stroke: #A80036; stroke-width: 1.5;" width="135" x="210.5" y="233"/><text fill="#000000" font-family="sans-serif" font-size="12" lengthAdjust="spacingAndGlyphs" textLength="102" x="225" y="254.1387">+1 programming</text><text fill="#000000" font-family="sans-serif" font-size="12" lengthAdjust="spacingAndGlyphs" textLength="73" x="241.5" y="268.1074">+1 analytics</text><text fill="#000000" font-family="sans-serif" font-size="12" lengthAdjust="spacingAndGlyphs" textLength="111" x="224.5" y="282.0762">+1 communication</text><rect fill="#FEFECE" filter="url(#f1iis3ie1cx30k)" height="61.9063" rx="12.5" ry="12.5" style="stroke: #A80036; stroke-width: 1.5;" width="239" x="391.5" y="233"/><text fill="#000000" font-family="sans-serif" font-size="12" lengthAdjust="spacingAndGlyphs" textLength="215" x="401.5" y="254.1387">Through many parties in your spare</text><text fill="#000000" font-family="sans-serif" font-size="12" lengthAdjust="spacingAndGlyphs" textLength="203" x="411.5" y="268.1074">time your partying stat increases:</text><text fill="#000000" font-family="sans-serif" font-size="12" lengthAdjust="spacingAndGlyphs" textLength="71" x="475.5" y="282.0762">+3 partying</text><rect fill="#FEFECE" filter="url(#f1iis3ie1cx30k)" height="33.9688" rx="12.5" ry="12.5" style="stroke: #A80036; stroke-width: 1.5;" width="304" x="268" y="336"/><text fill="#000000" font-family="sans-serif" font-size="12" lengthAdjust="spacingAndGlyphs" textLength="284" x="278" y="357.1387">You have successfully completed your studies.</text><rect fill="#FEFECE" filter="url(#f1iis3ie1cx30k)" height="33.9688" rx="12.5" ry="12.5" style="stroke: #A80036; stroke-width: 1.5;" width="123" x="358.5" y="411"/><text fill="#000000" font-family="sans-serif" font-size="12" lengthAdjust="spacingAndGlyphs" textLength="103" x="368.5" y="432.1387">Graduate studies</text><!--MD5=[0c34e30d2ae6543d297dd165d4318fad]
link start to After completing the elective, you can enjoy your free time, or would you rather take part in a voluntary company internship?--><path d="M394,26.177 C394,35.269 394,49.527 394,61.485 " fill="none" id="start-to-After completing the elective, you can enjoy your free time, or would you rather take part in a voluntary company internship?" style="stroke: #A80036; stroke-width: 1.0;"/><polygon fill="#A80036" points="394,66.791,398,57.791,394,61.791,390,57.791,394,66.791" style="stroke: #A80036; stroke-width: 1.0;"/><!--MD5=[3b886a04202a290697fc12a046df8c8a]
link After completing the elective, you can enjoy your free time, or would you rather take part in a voluntary company internship? to #233898--><path d="M394,101.115 C394,111.916 394,126.082 394,136.883 " fill="none" id="After completing the elective, you can enjoy your free time, or would you rather take part in a voluntary company internship?-to-#233898" style="stroke: #A80036; stroke-width: 1.0;"/><polygon fill="#A80036" points="394,141.885,398,132.885,394,136.885,390,132.885,394,141.885" style="stroke: #A80036; stroke-width: 1.0;"/><text fill="#000000" font-family="sans-serif" font-size="11" lengthAdjust="spacingAndGlyphs" textLength="0" x="393.025" y="131.4605"/><!--MD5=[a2dc6364662933e7b75de5e486014c89]
link #233898 to ja--><path d="M383.659,155.877 C355.721,158.48 279.828,167.186 265,186 C255.726,197.766 256.881,213.723 261.19,228.059 " fill="none" id="#233898-to-ja" style="stroke: #A80036; stroke-width: 1.0;"/><polygon fill="#A80036" points="262.761,232.85,263.7566,223.0516,261.2026,228.0991,256.1551,225.545,262.761,232.85" style="stroke: #A80036; stroke-width: 1.0;"/><text fill="#000000" font-family="sans-serif" font-size="11" lengthAdjust="spacingAndGlyphs" textLength="232" x="266" y="203.7104">Yes, gaining experience is always good!</text><!--MD5=[a0f783f4a57782299415e0dc128c6aae]
link #233898 to nein--><path d="M405.696,154.627 C427.824,154.617 475.764,158.036 500,186 C509.767,197.27 513.154,213.146 513.849,227.557 " fill="none" id="#233898-to-nein" style="stroke: #A80036; stroke-width: 1.0;"/><polygon fill="#A80036" points="513.989,232.789,517.7433,223.6838,513.8533,227.7908,509.7462,223.9009,513.989,232.789" style="stroke: #A80036; stroke-width: 1.0;"/><text fill="#000000" font-family="sans-serif" font-size="11" lengthAdjust="spacingAndGlyphs" textLength="219" x="512" y="197.2104">No, I have already learned everything</text><text fill="#000000" font-family="sans-serif" font-size="11" lengthAdjust="spacingAndGlyphs" textLength="194" x="528.5" y="210.0151">I need to know during my studies.</text><!--MD5=[1c052d617c35f0ae0e4837014eb99666]
link ja to a--><path d="M327.266,295.184 C347.795,307.762 371.007,321.983 389.072,333.051 " fill="none" id="ja-to-a" style="stroke: #A80036; stroke-width: 1.0;"/><polygon fill="#A80036" points="393.55,335.795,387.9658,327.6822,389.2867,333.1827,383.7862,334.5036,393.55,335.795" style="stroke: #A80036; stroke-width: 1.0;"/><!--MD5=[5e6adb4b95b31681b83dd5f00b799ab3]
link nein to a--><path d="M479.428,295.184 C466.607,307.442 452.152,321.261 440.709,332.201 " fill="none" id="nein-to-a" style="stroke: #A80036; stroke-width: 1.0;"/><polygon fill="#A80036" points="436.951,335.795,446.2204,332.4665,440.5649,332.3396,440.6918,326.6842,436.951,335.795" style="stroke: #A80036; stroke-width: 1.0;"/><!--MD5=[96cbc3f3d3996096dd2d6a95581339b7]
link a to Graduate studies--><path d="M420,370.2011 C420,380.6917 420,394.4627 420,405.8176 " fill="none" id="a-to-Graduate studies" style="stroke: #0000FF; stroke-width: 1.0; stroke-dasharray: 1.0,3.0;"/><polygon fill="#0000FF" points="420,410.8442,424,401.8442,420,405.8442,416,401.8442,420,410.8442" style="stroke: #0000FF; stroke-width: 1.0;"/><!--MD5=[6a9b7e56095c8f7e8ecaaecacb47a92a]
@startuml
(*) - -> "After completing the elective, you can enjoy your free time, or would you rather take part in a voluntary company internship?"
if "" then
- -> [Yes, gaining experience is always good!] "+1 programming \n +1 analytics \n +1 communication" as ja
else
- -> [No, I have already learned everything \n I need to know during my studies.] "Through many parties in your spare \n time your partying stat increases:\n +3 partying " as nein

ja - -> "You have successfully completed your studies." as a
nein - -> a





-[#blue,dotted]-> "Graduate studies"
@enduml

PlantUML version 1.2020.20beta13(Unknown compile time)
(GPL source distribution)
Java Runtime: Java(TM) SE Runtime Environment
JVM: Java HotSpot(TM) 64-Bit Server VM
Default Encoding: UTF-8
Language: en
Country: US
--></g></svg>