<?xml version="1.0" encoding="UTF-8" standalone="no"?><svg xmlns="http://www.w3.org/2000/svg" xmlns:xlink="http://www.w3.org/1999/xlink" contentScriptType="application/ecmascript" contentStyleType="text/css" height="1151px" preserveAspectRatio="none" style="width:847px;height:1151px;" version="1.1" viewBox="0 0 847 1151" width="847px" zoomAndPan="magnify"><defs><filter height="300%" id="f153z36fy0ok62" width="300%" x="-1" y="-1"><feGaussianBlur result="blurOut" stdDeviation="2.0"/><feColorMatrix in="blurOut" result="blurOut2" type="matrix" values="0 0 0 0 0 0 0 0 0 0 0 0 0 0 0 0 0 0 .4 0"/><feOffset dx="4.0" dy="4.0" in="blurOut2" result="blurOut3"/><feBlend in="SourceGraphic" in2="blurOut3" mode="normal"/></filter></defs><g><ellipse cx="368" cy="16" fill="#000000" filter="url(#f153z36fy0ok62)" rx="10" ry="10" style="stroke: none; stroke-width: 1.0;"/><rect fill="#FEFECE" filter="url(#f153z36fy0ok62)" height="33.9688" rx="12.5" ry="12.5" style="stroke: #A80036; stroke-width: 1.5;" width="123" x="306.5" y="67"/><text fill="#000000" font-family="sans-serif" font-size="12" lengthAdjust="spacingAndGlyphs" textLength="103" x="316.5" y="88.1387">Graduate studies</text><rect fill="#FEFECE" filter="url(#f153z36fy0ok62)" height="33.9688" rx="12.5" ry="12.5" style="stroke: #A80036; stroke-width: 1.5;" width="157" x="289.5" y="142"/><text fill="#000000" font-family="sans-serif" font-size="12" lengthAdjust="spacingAndGlyphs" textLength="137" x="299.5" y="163.1387">... half a year passes ...</text><rect fill="#FEFECE" filter="url(#f153z36fy0ok62)" height="33.9688" rx="12.5" ry="12.5" style="stroke: #A80036; stroke-width: 1.5;" width="240" x="248" y="217"/><text fill="#000000" font-family="sans-serif" font-size="12" lengthAdjust="spacingAndGlyphs" textLength="220" x="258" y="238.1387">You have accepted a job at NewTec.</text><rect fill="#FEFECE" filter="url(#f153z36fy0ok62)" height="47.9375" rx="12.5" ry="12.5" style="stroke: #A80036; stroke-width: 1.5;" width="408" x="164" y="292"/><text fill="#000000" font-family="sans-serif" font-size="12" lengthAdjust="spacingAndGlyphs" textLength="384" x="174" y="313.1387">Your boss has taken a new order from the federal government,</text><text fill="#000000" font-family="sans-serif" font-size="12" lengthAdjust="spacingAndGlyphs" textLength="178" x="281" y="327.1074">it's about the new CoronaApp</text><rect fill="#FEFECE" filter="url(#f153z36fy0ok62)" height="33.9688" rx="12.5" ry="12.5" style="stroke: #A80036; stroke-width: 1.5;" width="265" x="235.5" y="381"/><text fill="#000000" font-family="sans-serif" font-size="12" lengthAdjust="spacingAndGlyphs" textLength="245" x="245.5" y="402.1387">Your task is to design the user interface.</text><polygon fill="#FEFECE" filter="url(#f153z36fy0ok62)" points="368,456,380,468,368,480,356,468,368,456" style="stroke: #A80036; stroke-width: 1.5;"/><rect fill="#FEFECE" filter="url(#f153z36fy0ok62)" height="33.9688" rx="12.5" ry="12.5" style="stroke: #A80036; stroke-width: 1.5;" width="330" x="7" y="534"/><text fill="#000000" font-family="sans-serif" font-size="12" lengthAdjust="spacingAndGlyphs" textLength="310" x="17" y="555.1387">You get to know your mentor, his name is Yaggaya.</text><rect fill="#FEFECE" filter="url(#f153z36fy0ok62)" height="75.875" rx="12.5" ry="12.5" style="stroke: #A80036; stroke-width: 1.5;" width="183" x="135.5" y="670"/><text fill="#000000" font-family="sans-serif" font-size="12" lengthAdjust="spacingAndGlyphs" textLength="76" x="187" y="691.1387">You improve</text><text fill="#000000" font-family="sans-serif" font-size="12" lengthAdjust="spacingAndGlyphs" textLength="155" x="149.5" y="705.1074">your communication skills</text><text fill="#000000" font-family="sans-serif" font-size="12" lengthAdjust="spacingAndGlyphs" textLength="111" x="171.5" y="719.0762">+1 communication</text><text fill="#000000" font-family="sans-serif" font-size="12" lengthAdjust="spacingAndGlyphs" textLength="78" x="190" y="733.0449">'decision +1'</text><rect fill="#FEFECE" filter="url(#f153z36fy0ok62)" height="61.9063" rx="12.5" ry="12.5" style="stroke: #A80036; stroke-width: 1.5;" width="162" x="287" y="588"/><text fill="#000000" font-family="sans-serif" font-size="12" lengthAdjust="spacingAndGlyphs" textLength="138" x="297" y="609.1387">You waste a lot of time</text><text fill="#000000" font-family="sans-serif" font-size="12" lengthAdjust="spacingAndGlyphs" textLength="134" x="301" y="623.1074">but solve the problem</text><text fill="#000000" font-family="sans-serif" font-size="12" lengthAdjust="spacingAndGlyphs" textLength="69" x="335.5" y="637.0762">'decision 0'</text><rect fill="#FEFECE" filter="url(#f153z36fy0ok62)" height="47.9375" rx="12.5" ry="12.5" style="stroke: #A80036; stroke-width: 1.5;" width="334" x="488" y="595"/><text fill="#000000" font-family="sans-serif" font-size="12" lengthAdjust="spacingAndGlyphs" textLength="310" x="498" y="616.1387">You waste a lot of time without solving the problem</text><text fill="#000000" font-family="sans-serif" font-size="12" lengthAdjust="spacingAndGlyphs" textLength="73" x="620.5" y="630.1074">'-1 decision'</text><rect fill="#FEFECE" filter="url(#f153z36fy0ok62)" height="47.9375" rx="12.5" ry="12.5" style="stroke: #A80036; stroke-width: 1.5;" width="261" x="237.5" y="787"/><text fill="#000000" font-family="sans-serif" font-size="12" lengthAdjust="spacingAndGlyphs" textLength="48" x="342" y="808.1387">Random</text><text fill="#000000" font-family="sans-serif" font-size="12" lengthAdjust="spacingAndGlyphs" textLength="237" x="251.5" y="822.1074">r = programming + random + decision</text><polygon fill="#FEFECE" filter="url(#f153z36fy0ok62)" points="368,876,380,888,368,900,356,888,368,876" style="stroke: #A80036; stroke-width: 1.5;"/><rect fill="#FEFECE" filter="url(#f153z36fy0ok62)" height="33.9688" rx="12.5" ry="12.5" style="stroke: #A80036; stroke-width: 1.5;" width="122" x="256" y="954"/><text fill="#000000" font-family="sans-serif" font-size="12" lengthAdjust="spacingAndGlyphs" textLength="102" x="266" y="975.1387">+1 programming</text><rect fill="#FEFECE" filter="url(#f153z36fy0ok62)" height="33.9688" rx="12.5" ry="12.5" style="stroke: #A80036; stroke-width: 1.5;" width="119" x="398.5" y="954"/><text fill="#000000" font-family="sans-serif" font-size="12" lengthAdjust="spacingAndGlyphs" textLength="99" x="408.5" y="975.1387">no improvement</text><rect fill="#FEFECE" filter="url(#f153z36fy0ok62)" height="33.9688" rx="12.5" ry="12.5" style="stroke: #A80036; stroke-width: 1.5;" width="117" x="342.5" y="1029"/><text fill="#000000" font-family="sans-serif" font-size="12" lengthAdjust="spacingAndGlyphs" textLength="97" x="352.5" y="1050.1387">Task completed</text><rect fill="#FEFECE" filter="url(#f153z36fy0ok62)" height="33.9688" rx="12.5" ry="12.5" style="stroke: #A80036; stroke-width: 1.5;" width="459" x="171.5" y="1104"/><text fill="#000000" font-family="sans-serif" font-size="12" lengthAdjust="spacingAndGlyphs" textLength="439" x="181.5" y="1125.1387">After completing your task, you must now write the corresponding tests.</text><!--MD5=[d2112ef965674a4b56fb599f21a5184a]
link start to as--><path d="M368,26.18 C368,35.27 368,49.53 368,61.49 " fill="none" id="start-to-as" style="stroke: #A80036; stroke-width: 1.0;"/><polygon fill="#A80036" points="368,66.79,372,57.79,368,61.79,364,57.79,368,66.79" style="stroke: #A80036; stroke-width: 1.0;"/><!--MD5=[7e4fdcbda7dfbd87462f5758b98003da]
link as to ... half a year passes ...--><path d="M368,101.2 C368,111.69 368,125.46 368,136.82 " fill="none" id="as-to-... half a year passes ..." style="stroke: #A80036; stroke-width: 1.0;"/><polygon fill="#A80036" points="368,141.844,372,132.844,368,136.844,364,132.844,368,141.844" style="stroke: #A80036; stroke-width: 1.0;"/><!--MD5=[f86453d5a93f143e48aee3edde95f8d2]
link ... half a year passes ... to You have accepted a job at NewTec.--><path d="M368,176.201 C368,186.692 368,200.463 368,211.818 " fill="none" id="... half a year passes ...-to-You have accepted a job at NewTec." style="stroke: #A80036; stroke-width: 1.0;"/><polygon fill="#A80036" points="368,216.844,372,207.844,368,211.844,364,207.844,368,216.844" style="stroke: #A80036; stroke-width: 1.0;"/><!--MD5=[092327839707b8f7da28ccf9ee327049]
link You have accepted a job at NewTec. to a1--><path d="M368,251.189 C368,261.416 368,274.908 368,286.851 " fill="none" id="You have accepted a job at NewTec.-to-a1" style="stroke: #A80036; stroke-width: 1.0;"/><polygon fill="#A80036" points="368,291.861,372,282.861,368,286.861,364,282.861,368,291.861" style="stroke: #A80036; stroke-width: 1.0;"/><!--MD5=[d647d30089733c44b0e460641148a301]
link a1 to Your task is to design the user interface.--><path d="M368,340.139 C368,351.243 368,364.469 368,375.37 " fill="none" id="a1-to-Your task is to design the user interface." style="stroke: #A80036; stroke-width: 1.0;"/><polygon fill="#A80036" points="368,380.515,372,371.515,368,375.515,364,371.515,368,380.515" style="stroke: #A80036; stroke-width: 1.0;"/><!--MD5=[da09c2d6e0474a55aeb9072313cb0a86]
link Your task is to design the user interface. to #353899--><path d="M368,415.115 C368,425.916 368,440.082 368,450.883 " fill="none" id="Your task is to design the user interface.-to-#353899" style="stroke: #A80036; stroke-width: 1.0;"/><polygon fill="#A80036" points="368,455.885,372,446.885,368,450.885,364,446.885,368,455.885" style="stroke: #A80036; stroke-width: 1.0;"/><text fill="#000000" font-family="sans-serif" font-size="11" lengthAdjust="spacingAndGlyphs" textLength="0" x="367.025" y="445.4605"/><!--MD5=[55499e62014efab3c1c93562c5fb3dab]
link #353899 to You get to know your mentor, his name is Yaggaya.--><path d="M357.109,469.287 C331.973,470.366 268.579,475.509 223,500 C209.5,507.254 197.148,519.158 187.982,529.531 " fill="none" id="#353899-to-You get to know your mentor, his name is Yaggaya." style="stroke: #A80036; stroke-width: 1.0;"/><polygon fill="#A80036" points="184.505,533.566,193.41,529.3587,187.7687,529.7781,187.3494,524.1368,184.505,533.566" style="stroke: #A80036; stroke-width: 1.0;"/><text fill="#000000" font-family="sans-serif" font-size="11" lengthAdjust="spacingAndGlyphs" textLength="118" x="224" y="511.2104">You ask your mentor</text><!--MD5=[09a0b072d29b7407f9b076e52a735420]
link You get to know your mentor, his name is Yaggaya. to a--><path d="M177.679,568.004 C185.703,590.617 200.645,632.726 211.988,664.693 " fill="none" id="You get to know your mentor, his name is Yaggaya.-to-a" style="stroke: #A80036; stroke-width: 1.0;"/><polygon fill="#A80036" points="213.776,669.732,214.5376,659.9126,212.1047,665.0196,206.9978,662.5867,213.776,669.732" style="stroke: #A80036; stroke-width: 1.0;"/><!--MD5=[9669449100eaaa81f068904efe2ecb40]
link #353899 to b--><path d="M368,480.199 C368,501.656 368,549.377 368,582.608 " fill="none" id="#353899-to-b" style="stroke: #A80036; stroke-width: 1.0;"/><polygon fill="#A80036" points="368,587.811,372,578.811,368,582.811,364,578.811,368,587.811" style="stroke: #A80036; stroke-width: 1.0;"/><text fill="#000000" font-family="sans-serif" font-size="11" lengthAdjust="spacingAndGlyphs" textLength="293" x="369" y="511.2104">You search for a suitable solution on HeapOverflow</text><!--MD5=[1e6abcc957b596eef225353685bcc654]
link #353899 to c--><path d="M378.773,469.294 C429.684,470.789 644.505,478.357 664,500 C685.747,524.144 677.189,563.493 667.47,590.045 " fill="none" id="#353899-to-c" style="stroke: #A80036; stroke-width: 1.0;"/><polygon fill="#A80036" points="665.648,594.847,672.579,587.8497,667.4207,590.1718,665.0986,585.0135,665.648,594.847" style="stroke: #A80036; stroke-width: 1.0;"/><text fill="#000000" font-family="sans-serif" font-size="11" lengthAdjust="spacingAndGlyphs" textLength="165" x="674" y="511.2104">You just start, it will work out.</text><!--MD5=[04081286b17e6b5c2bb577b515f36bde]
link a to r--><path d="M278.703,746.035 C296.088,758.489 315.119,772.121 331.129,783.589 " fill="none" id="a-to-r" style="stroke: #A80036; stroke-width: 1.0;"/><polygon fill="#A80036" points="335.561,786.763,330.5739,778.2701,331.4963,783.8513,325.9151,784.7737,335.561,786.763" style="stroke: #A80036; stroke-width: 1.0;"/><!--MD5=[0b47ce773a1c84117b0ce7c8a0f38eb6]
link b to r--><path d="M368,650.106 C368,686.309 368,746.598 368,781.888 " fill="none" id="b-to-r" style="stroke: #A80036; stroke-width: 1.0;"/><polygon fill="#A80036" points="368,786.908,372,777.908,368,781.908,364,777.908,368,786.908" style="stroke: #A80036; stroke-width: 1.0;"/><!--MD5=[d9cf395dd1582eae1c364247d823f605]
link c to r--><path d="M620.095,643.108 C566.371,678.674 463.742,746.616 407.417,783.905 " fill="none" id="c-to-r" style="stroke: #A80036; stroke-width: 1.0;"/><polygon fill="#A80036" points="403.11,786.756,412.8225,785.1227,407.279,783.9957,408.406,778.4522,403.11,786.756" style="stroke: #A80036; stroke-width: 1.0;"/><!--MD5=[8389053c80bc8100dc814f20bcb4ec68]
link r to #353914--><path d="M368,835.319 C368,846.744 368,860.228 368,870.558 " fill="none" id="r-to-#353914" style="stroke: #A80036; stroke-width: 1.0;"/><polygon fill="#A80036" points="368,875.645,372,866.645,368,870.645,364,866.645,368,875.645" style="stroke: #A80036; stroke-width: 1.0;"/><text fill="#000000" font-family="sans-serif" font-size="11" lengthAdjust="spacingAndGlyphs" textLength="0" x="367.075" y="865.5523"/><!--MD5=[1972606086272345fde147b2ecadb0da]
link #353914 to p1--><path d="M363.652,895.906 C356.235,907.686 340.867,932.094 329.793,949.681 " fill="none" id="#353914-to-p1" style="stroke: #A80036; stroke-width: 1.0;"/><polygon fill="#A80036" points="327.078,953.994,335.2583,948.5092,329.7421,949.7629,328.4885,944.2467,327.078,953.994" style="stroke: #A80036; stroke-width: 1.0;"/><text fill="#000000" font-family="sans-serif" font-size="11" lengthAdjust="spacingAndGlyphs" textLength="37" x="349" y="931.2104">r &gt;= 5</text><!--MD5=[09dfdf84b3b8b7e2e3b00ab62c835b48]
link #353914 to no improvement--><path d="M373.905,894.315 C386.349,905.514 415.806,932.025 436.323,950.491 " fill="none" id="#353914-to-no improvement" style="stroke: #A80036; stroke-width: 1.0;"/><polygon fill="#A80036" points="440.044,953.84,436.0304,944.8461,436.3276,950.4951,430.6786,950.7923,440.044,953.84" style="stroke: #A80036; stroke-width: 1.0;"/><text fill="#000000" font-family="sans-serif" font-size="11" lengthAdjust="spacingAndGlyphs" textLength="28" x="417" y="931.2104">r &lt; 5</text><!--MD5=[1fd172b52b80071bc42a5bd08bfeed01]
link no improvement to aa--><path d="M445.35,988.201 C436.937,998.975 425.823,1013.209 416.825,1024.733 " fill="none" id="no improvement-to-aa" style="stroke: #A80036; stroke-width: 1.0;"/><polygon fill="#A80036" points="413.615,1028.844,422.3072,1024.213,416.6926,1024.9034,416.0022,1019.2888,413.615,1028.844" style="stroke: #A80036; stroke-width: 1.0;"/><!--MD5=[bb5c5c6e9dcb88ff679544b07086b4ce]
link p1 to aa--><path d="M335.642,988.201 C348.258,999.164 364.995,1013.71 378.374,1025.337 " fill="none" id="p1-to-aa" style="stroke: #A80036; stroke-width: 1.0;"/><polygon fill="#A80036" points="382.41,1028.844,378.2423,1019.9204,378.6366,1025.5635,372.9935,1025.9579,382.41,1028.844" style="stroke: #A80036; stroke-width: 1.0;"/><!--MD5=[ff6b6546a5aed1109e8a7d4a83f6ed9b]
link aa to After completing your task, you must now write the corresponding tests.--><path d="M401,1063.2011 C401,1073.6917 401,1087.4627 401,1098.8176 " fill="none" id="aa-to-After completing your task, you must now write the corresponding tests." style="stroke: #0000FF; stroke-width: 1.0; stroke-dasharray: 1.0,3.0;"/><polygon fill="#0000FF" points="401,1103.8442,405,1094.8442,401,1098.8442,397,1094.8442,401,1103.8442" style="stroke: #0000FF; stroke-width: 1.0;"/><!--MD5=[c62bc9741092390de7777b09ff258953]
@startuml
(*) - -> "Graduate studies" as as
- -> "... half a year passes ..."
- -> "You have accepted a job at NewTec."
- -> "Your boss has taken a new order from the federal government, \n it's about the new CoronaApp" as a1
- -> "Your task is to design the user interface."
if "" then
- -> [You ask your mentor] "You get to know your mentor, his name is Yaggaya."
- -> "You improve \n your communication skills \n +1 communication \n 'decision +1'" as a
else
- -> [You search for a suitable solution on HeapOverflow] "You waste a lot of time \n but solve the problem \n 'decision 0'" as b
else
- -> [You just start, it will work out.] "You waste a lot of time without solving the problem \n '-1 decision'" as c

a - -> "Random \n r = programming + random + decision" as r
b - -> r
c - -> r

if "" then
- -> [r >= 5] "+1 programming" as p1
else
- -> [r < 5] "no improvement"

- -> "Task completed" as aa

p1 - -> aa


-[#blue,dotted]-> "After completing your task, you must now write the corresponding tests."
@enduml

PlantUML version 1.2020.20beta13(Unknown compile time)
(GPL source distribution)
Java Runtime: Java(TM) SE Runtime Environment
JVM: Java HotSpot(TM) 64-Bit Server VM
Default Encoding: UTF-8
Language: en
Country: US
--></g></svg>