<?xml version="1.0" encoding="UTF-8" standalone="no"?><svg xmlns="http://www.w3.org/2000/svg" xmlns:xlink="http://www.w3.org/1999/xlink" contentScriptType="application/ecmascript" contentStyleType="text/css" height="896px" preserveAspectRatio="none" style="width:1017px;height:896px;" version="1.1" viewBox="0 0 1017 896" width="1017px" zoomAndPan="magnify"><defs><filter height="300%" id="f1byq0kj51e1sn" width="300%" x="-1" y="-1"><feGaussianBlur result="blurOut" stdDeviation="2.0"/><feColorMatrix in="blurOut" result="blurOut2" type="matrix" values="0 0 0 0 0 0 0 0 0 0 0 0 0 0 0 0 0 0 .4 0"/><feOffset dx="4.0" dy="4.0" in="blurOut2" result="blurOut3"/><feBlend in="SourceGraphic" in2="blurOut3" mode="normal"/></filter></defs><g><ellipse cx="342" cy="16" fill="#000000" filter="url(#f1byq0kj51e1sn)" rx="10" ry="10" style="stroke:none;stroke-width:1.0;"/><rect fill="#FEFECE" filter="url(#f1byq0kj51e1sn)" height="33.9688" rx="12.5" ry="12.5" style="stroke:#A80036;stroke-width:1.5;" width="325" x="179.5" y="67"/><text fill="#000000" font-family="sans-serif" font-size="12" lengthAdjust="spacing" textLength="305" x="189.5" y="88.1387">You are thirsty and want to get something to drink.</text><polygon fill="#FEFECE" filter="url(#f1byq0kj51e1sn)" points="342,142,354,154,342,166,330,154,342,142" style="stroke:#A80036;stroke-width:1.5;"/><rect fill="#FEFECE" filter="url(#f1byq0kj51e1sn)" height="61.9063" rx="12.5" ry="12.5" style="stroke:#A80036;stroke-width:1.5;" width="194" x="7" y="233"/><text fill="#000000" font-family="sans-serif" font-size="12" lengthAdjust="spacing" textLength="174" x="17" y="254.1387">You got through the evening.</text><text fill="#000000" font-family="sans-serif" font-size="12" lengthAdjust="spacing" textLength="112" x="50" y="268.1074">Your stats change:</text><text fill="#000000" font-family="sans-serif" font-size="12" lengthAdjust="spacing" textLength="70" x="71" y="282.0762">+1 partying</text><rect fill="#FEFECE" filter="url(#f1byq0kj51e1sn)" height="33.9688" rx="12.5" ry="12.5" style="stroke:#A80036;stroke-width:1.5;" width="142" x="532" y="247"/><text fill="#000000" font-family="sans-serif" font-size="12" lengthAdjust="spacing" textLength="122" x="542" y="268.1387">You drink two shots.</text><polygon fill="#FEFECE" filter="url(#f1byq0kj51e1sn)" points="609,336,621,348,609,360,597,348,609,336" style="stroke:#A80036;stroke-width:1.5;"/><polygon fill="#FEFECE" filter="url(#f1byq0kj51e1sn)" points="609,414,621,426,609,438,597,426,609,414" style="stroke:#A80036;stroke-width:1.5;"/><rect fill="#FEFECE" filter="url(#f1byq0kj51e1sn)" height="75.875" rx="12.5" ry="12.5" style="stroke:#A80036;stroke-width:1.5;" width="262" x="126" y="540"/><text fill="#000000" font-family="sans-serif" font-size="12" lengthAdjust="spacing" textLength="238" x="136" y="561.1387">Due to your excellent party experience</text><text fill="#000000" font-family="sans-serif" font-size="12" lengthAdjust="spacing" textLength="126" x="194" y="575.1074">you are able to drink</text><text fill="#000000" font-family="sans-serif" font-size="12" lengthAdjust="spacing" textLength="128" x="193" y="589.0762">and survive the party</text><text fill="#000000" font-family="sans-serif" font-size="12" lengthAdjust="spacing" textLength="133" x="192.5" y="603.0449">without creating a stir.</text><rect fill="#FEFECE" filter="url(#f1byq0kj51e1sn)" height="61.9063" rx="12.5" ry="12.5" style="stroke:#A80036;stroke-width:1.5;" width="308" x="145" y="664"/><text fill="#000000" font-family="sans-serif" font-size="12" lengthAdjust="spacing" textLength="284" x="155" y="685.1387">You'll be remembered positively by your boss.</text><text fill="#000000" font-family="sans-serif" font-size="12" lengthAdjust="spacing" textLength="112" x="243" y="699.1074">Your stats change:</text><text fill="#000000" font-family="sans-serif" font-size="12" lengthAdjust="spacing" textLength="71" x="265.5" y="713.0762">+2 partying</text><rect fill="#FEFECE" filter="url(#f1byq0kj51e1sn)" height="33.9688" rx="12.5" ry="12.5" style="stroke:#A80036;stroke-width:1.5;" width="559" x="408.5" y="561"/><text fill="#000000" font-family="sans-serif" font-size="12" lengthAdjust="spacing" textLength="539" x="418.5" y="582.1387">You create a good mood, but you attract negative attention because you are quite drunk.</text><rect fill="#FEFECE" filter="url(#f1byq0kj51e1sn)" height="75.875" rx="12.5" ry="12.5" style="stroke:#A80036;stroke-width:1.5;" width="312" x="483" y="657"/><text fill="#000000" font-family="sans-serif" font-size="12" lengthAdjust="spacing" textLength="288" x="493" y="678.1387">You'll be remembered negatively by your boss.</text><text fill="#000000" font-family="sans-serif" font-size="12" lengthAdjust="spacing" textLength="112" x="583" y="692.1074">Your stats change:</text><text fill="#000000" font-family="sans-serif" font-size="12" lengthAdjust="spacing" textLength="71" x="603.5" y="706.0762">+3 partying</text><text fill="#000000" font-family="sans-serif" font-size="12" lengthAdjust="spacing" textLength="107" x="587.5" y="720.0449">-2 communication</text><rect fill="#FEFECE" filter="url(#f1byq0kj51e1sn)" height="61.9063" rx="12.5" ry="12.5" style="stroke:#A80036;stroke-width:1.5;" width="282" x="721" y="458"/><text fill="#000000" font-family="sans-serif" font-size="12" lengthAdjust="spacing" textLength="258" x="731" y="479.1387">You bring a good atmosphere to the party.</text><text fill="#000000" font-family="sans-serif" font-size="12" lengthAdjust="spacing" textLength="112" x="808" y="493.1074">Your stats change:</text><text fill="#000000" font-family="sans-serif" font-size="12" lengthAdjust="spacing" textLength="71" x="828.5" y="507.0762">+2 partying</text><rect fill="#FEFECE" filter="url(#f1byq0kj51e1sn)" height="33.9688" rx="12.5" ry="12.5" style="stroke:#A80036;stroke-width:1.5;" width="236" x="312" y="774"/><text fill="#000000" font-family="sans-serif" font-size="12" lengthAdjust="spacing" textLength="216" x="322" y="795.1387">The party is over and you go home.</text><rect fill="#FEFECE" filter="url(#f1byq0kj51e1sn)" height="33.9688" rx="12.5" ry="12.5" style="stroke:#A80036;stroke-width:1.5;" width="265" x="297.5" y="849"/><text fill="#000000" font-family="sans-serif" font-size="12" lengthAdjust="spacing" textLength="245" x="307.5" y="870.1387">A voluntary training course is coming up.</text><!--MD5=[37fb5b6f3f3c766445f07e95ea6f36a8]
link start to You are thirsty and want to get something to drink.--><path d="M342,26.177 C342,35.269 342,49.527 342,61.485 " fill="none" id="start-to-You are thirsty and want to get something to drink." style="stroke:#A80036;stroke-width:1.0;"/><polygon fill="#A80036" points="342,66.791,346,57.791,342,61.791,338,57.791,342,66.791" style="stroke:#A80036;stroke-width:1.0;"/><!--MD5=[ebd45a4936ee4b6751b8b75f6c1d807c]
link You are thirsty and want to get something to drink. to #534275--><path d="M342,101.115 C342,111.916 342,126.082 342,136.883 " fill="none" id="You are thirsty and want to get something to drink.-to-#534275" style="stroke:#A80036;stroke-width:1.0;"/><polygon fill="#A80036" points="342,141.885,346,132.885,342,136.885,338,132.885,342,141.885" style="stroke:#A80036;stroke-width:1.0;"/><text fill="#000000" font-family="sans-serif" font-size="11" lengthAdjust="spacing" textLength="107" x="215.2719" y="133.5639">What do you take?</text><!--MD5=[c919194f8743c08950351575e5ac93bc]
link #534275 to lightParty--><path d="M330.409,154.607 C286.878,153.403 134.108,151.717 104,186 C94.2582,197.093 92.9216,212.945 94.5511,227.385 " fill="none" id="#534275-to-lightParty" style="stroke:#A80036;stroke-width:1.0;"/><polygon fill="#A80036" points="95.2757,232.63,98.0063,223.1672,94.5914,227.677,90.0816,224.2621,95.2757,232.63" style="stroke:#A80036;stroke-width:1.0;"/><text fill="#000000" font-family="sans-serif" font-size="11" lengthAdjust="spacing" textLength="211" x="105" y="203.7104">One beer is enough for the evening.</text><!--MD5=[c919194f8743c08950351575e5ac93bc]
link #534275 to lightParty--><path d="M340.717,164.815 C338.481,177.827 332.62,200.586 318,213 C300.532,227.832 252.339,239.754 206.102,248.231 " fill="none" id="#534275-to-lightParty-1" style="stroke:#A80036;stroke-width:1.0;"/><polygon fill="#A80036" points="201.057,249.144,210.6253,251.4781,205.9771,248.254,209.2012,243.6058,201.057,249.144" style="stroke:#A80036;stroke-width:1.0;"/><text fill="#000000" font-family="sans-serif" font-size="11" lengthAdjust="spacing" textLength="182" x="337" y="203.7104">One coke is perfectly sufficient.</text><!--MD5=[d115fc3b1d2b9be80f196c9d1003fdfe]
link #534275 to You drink two shots.--><path d="M353.455,154.622 C383.425,154.106 465.919,155.738 525,186 C551.073,199.355 573.996,224.495 588.128,242.415 " fill="none" id="#534275-to-You drink two shots." style="stroke:#A80036;stroke-width:1.0;"/><polygon fill="#A80036" points="591.528,246.804,589.1796,237.2392,588.4664,242.8509,582.8547,242.1378,591.528,246.804" style="stroke:#A80036;stroke-width:1.0;"/><text fill="#000000" font-family="sans-serif" font-size="11" lengthAdjust="spacing" textLength="167" x="627" y="197.2104">A few Tequila shots will do it,</text><text fill="#000000" font-family="sans-serif" font-size="11" lengthAdjust="spacing" textLength="303" x="561" y="210.0151">after all it's for free, you should take advantage of it.</text><!--MD5=[ca46239aaefa479f897ee2130b7715a3]
link You drink two shots. to #534283--><path d="M604.185,281.201 C605.247,295.705 606.793,316.841 607.845,331.216 " fill="none" id="You drink two shots.-to-#534283" style="stroke:#A80036;stroke-width:1.0;"/><polygon fill="#A80036" points="608.236,336.552,611.5697,327.2845,607.8717,331.5653,603.591,327.8673,608.236,336.552" style="stroke:#A80036;stroke-width:1.0;"/><text fill="#000000" font-family="sans-serif" font-size="11" lengthAdjust="spacing" textLength="87" x="491.2607" y="313.3395">Do you want to</text><text fill="#000000" font-family="sans-serif" font-size="11" lengthAdjust="spacing" textLength="101" x="488.2607" y="326.1442">drink more shots?</text><!--MD5=[1cdfcbbfaa2cf319d2b8a70c3225f05d]
link #534283 to drink--><path d="M609,360.214 C609,373.085 609,394.298 609,408.924 " fill="none" id="#534283-to-drink" style="stroke:#A80036;stroke-width:1.0;"/><polygon fill="#A80036" points="609,413.987,613,404.987,609,408.987,605,404.987,609,413.987" style="stroke:#A80036;stroke-width:1.0;"/><text fill="#000000" font-family="sans-serif" font-size="11" lengthAdjust="spacing" textLength="156" x="610" y="391.2104">You drink a few more shots</text><text fill="#000000" font-family="sans-serif" font-size="11" lengthAdjust="spacing" textLength="132" x="456.7875" y="406.8042">partying + dice roll &gt; 8</text><!--MD5=[ca8540a64045fbf344ae13093741a384]
link drink to Due to your excellent party experience \n you are able to drink \n and survive the party \n without creating a stir.--><path d="M600.987,430.415 C567.86,444.531 439.12,499.392 348.909,537.834 " fill="none" id="drink-to-Due to your excellent party experience \n you are able to drink \n and survive the party \n without creating a stir." style="stroke:#A80036;stroke-width:1.0;"/><polygon fill="#A80036" points="344.105,539.881,353.9527,540.033,348.7049,537.9211,350.8168,532.6732,344.105,539.881" style="stroke:#A80036;stroke-width:1.0;"/><text fill="#000000" font-family="sans-serif" font-size="11" lengthAdjust="spacing" textLength="23" x="533" y="493.2104">true</text><!--MD5=[2f9491a5683c88476a3fef64fd67f376]
link Due to your excellent party experience \n you are able to drink \n and survive the party \n without creating a stir. to goodEnd--><path d="M270.52,616.02 C275.561,629.821 281.262,645.432 286.233,659.042 " fill="none" id="Due to your excellent party experience \n you are able to drink \n and survive the party \n without creating a stir.-to-goodEnd" style="stroke:#A80036;stroke-width:1.0;"/><polygon fill="#A80036" points="288.028,663.959,288.6973,654.1329,286.3125,659.2625,281.1829,656.8777,288.028,663.959" style="stroke:#A80036;stroke-width:1.0;"/><!--MD5=[50dfd555c2edf89386c93b16be7076d2]
link drink to You create a good mood, but you attract negative attention because you are quite drunk.--><path d="M612.81,434.235 C624.326,456.1 659.074,522.078 677.016,556.144 " fill="none" id="drink-to-You create a good mood, but you attract negative attention because you are quite drunk." style="stroke:#A80036;stroke-width:1.0;"/><polygon fill="#A80036" points="679.536,560.93,678.8815,551.1029,677.2061,556.506,671.8031,554.8307,679.536,560.93" style="stroke:#A80036;stroke-width:1.0;"/><text fill="#000000" font-family="sans-serif" font-size="11" lengthAdjust="spacing" textLength="28" x="658" y="493.2104">false</text><!--MD5=[d002f7f44a52ffb0715d88f259e8a205]
link You create a good mood, but you attract negative attention because you are quite drunk. to badEnd--><path d="M680.979,595.477 C674.734,610.134 665.327,632.212 657,651.755 " fill="none" id="You create a good mood, but you attract negative attention because you are quite drunk.-to-badEnd" style="stroke:#A80036;stroke-width:1.0;"/><polygon fill="#A80036" points="654.909,656.663,662.1168,649.9512,656.8689,652.0631,654.757,646.8153,654.909,656.663" style="stroke:#A80036;stroke-width:1.0;"/><!--MD5=[34d0e9bf3bfde9c175f59d6d28db611c]
link #534283 to You bring a good atmosphere to the party. \n Your stats change:\n +2 partying--><path d="M620.345,348.73 C647.82,348.574 719.316,351.18 769,380 C799.552,397.722 824.947,429.258 841.437,453.694 " fill="none" id="#534283-to-You bring a good atmosphere to the party. \n Your stats change:\n +2 partying" style="stroke:#A80036;stroke-width:1.0;"/><polygon fill="#A80036" points="844.209,457.859,842.5534,448.1503,841.4391,453.6963,835.8931,452.5821,844.209,457.859" style="stroke:#A80036;stroke-width:1.0;"/><text fill="#000000" font-family="sans-serif" font-size="11" lengthAdjust="spacing" textLength="154" x="788" y="391.2104">No, 2 are enough for today</text><!--MD5=[68e1d1fd5e1455dd8b736e42e433260d]
link You bring a good atmosphere to the party. \n Your stats change:\n +2 partying to home--><path d="M958.781,520.077 C966.259,525.635 972.877,532.214 978,540 C996.565,568.218 993.839,586.166 978,616 C934.473,697.984 891.448,699.197 805,733 C724.744,764.382 628.551,778.575 553.685,784.9515 " fill="none" id="You bring a good atmosphere to the party. \n Your stats change:\n +2 partying-to-home" style="stroke:#A80036;stroke-width:1.0;"/><polygon fill="#A80036" points="548.332,785.3973,557.6325,788.6378,553.3148,784.983,556.9696,780.6653,548.332,785.3973" style="stroke:#A80036;stroke-width:1.0;"/><!--MD5=[8d94ca630304b806a4e8c4fe4d90a3a5]
link badEnd to home--><path d="M556.698,733.016 C527.14,746.31 495.099,760.721 470.634,771.724 " fill="none" id="badEnd-to-home" style="stroke:#A80036;stroke-width:1.0;"/><polygon fill="#A80036" points="465.845,773.878,475.6938,773.8334,470.4048,771.8267,472.4116,766.5377,465.845,773.878" style="stroke:#A80036;stroke-width:1.0;"/><!--MD5=[f4fe7437719df02c534d41fe5fb46e16]
link lightParty to home--><path d="M99.0787,295.288 C96.9775,310.722 95,329.814 95,347 C95,347 95,347 95,696 C95,741.547 211.246,766.051 306.784,778.499 " fill="none" id="lightParty-to-home" style="stroke:#A80036;stroke-width:1.0;"/><polygon fill="#A80036" points="311.892,779.156,303.4766,774.0392,306.933,778.5174,302.4548,781.9737,311.892,779.156" style="stroke:#A80036;stroke-width:1.0;"/><!--MD5=[516670722ccd23130a82a9c66eba9461]
link goodEnd to home--><path d="M340.809,726.001 C361.242,740.662 385.229,757.874 403.178,770.754 " fill="none" id="goodEnd-to-home" style="stroke:#A80036;stroke-width:1.0;"/><polygon fill="#A80036" points="407.606,773.931,402.6262,765.4338,403.5438,771.0158,397.9619,771.9333,407.606,773.931" style="stroke:#A80036;stroke-width:1.0;"/><!--MD5=[0a28c061adde404286524750abc21cd3]
link home to A voluntary training course is coming up.--><path d="M430,808.2011 C430,818.6917 430,832.4627 430,843.8176 " fill="none" id="home-to-A voluntary training course is coming up." style="stroke:#0000FF;stroke-width:1.0;stroke-dasharray:1.0,3.0;"/><polygon fill="#0000FF" points="430,848.8442,434,839.8442,430,843.8442,426,839.8442,430,848.8442" style="stroke:#0000FF;stroke-width:1.0;"/><!--MD5=[7ce15ebbb89ee32f6340f854f7f6888d]
@startuml
(*) - -> "You are thirsty and want to get something to drink."
if "What do you take?" then 
- -> [One beer is enough for the evening.] "You got through the evening.\n Your stats change:\n +1 partying" as lightParty
else 
- -> [One coke is perfectly sufficient.] lightParty
else 
- ->[A few Tequila shots will do it, \nafter all it's for free, you should take advantage of it.] "You drink two shots."
if "Do you want to \n drink more shots?" then 
- -> [You drink a few more shots] if "partying + dice roll > 8" as drink then 
- -> [true] "Due to your excellent party experience \n you are able to drink \n and survive the party \n without creating a stir."
- -> "You'll be remembered positively by your boss. \n Your stats change: \n +2 partying" as goodEnd
else 
- -> [false] "You create a good mood, but you attract negative attention because you are quite drunk."
- -> "You'll be remembered negatively by your boss. \n Your stats change: \n +3 partying \n -2 communication" as badEnd
endif
else 
- -> [No, 2 are enough for today] "You bring a good atmosphere to the party. \n Your stats change:\n +2 partying"
endif
- -> "The party is over and you go home." as home
badEnd - -> home
lightParty - -> home
goodEnd - -> home
-[#blue,dotted]-> "A voluntary training course is coming up."
@enduml

PlantUML version 1.2021.6beta4(Unknown compile time)
(GPL source distribution)
Java Runtime: Java(TM) SE Runtime Environment
JVM: Java HotSpot(TM) 64-Bit Server VM
Default Encoding: UTF-8
Language: en
Country: US
--></g></svg>