<?xml version="1.0" encoding="UTF-8" standalone="no"?><svg xmlns="http://www.w3.org/2000/svg" xmlns:xlink="http://www.w3.org/1999/xlink" contentScriptType="application/ecmascript" contentStyleType="text/css" height="678px" preserveAspectRatio="none" style="width:855px;height:678px;" version="1.1" viewBox="0 0 855 678" width="855px" zoomAndPan="magnify"><defs><filter height="300%" id="f8uq2f73cyhkt" width="300%" x="-1" y="-1"><feGaussianBlur result="blurOut" stdDeviation="2.0"/><feColorMatrix in="blurOut" result="blurOut2" type="matrix" values="0 0 0 0 0 0 0 0 0 0 0 0 0 0 0 0 0 0 .4 0"/><feOffset dx="4.0" dy="4.0" in="blurOut2" result="blurOut3"/><feBlend in="SourceGraphic" in2="blurOut3" mode="normal"/></filter></defs><g><ellipse cx="355" cy="16" fill="#000000" filter="url(#f8uq2f73cyhkt)" rx="10" ry="10" style="stroke:none;stroke-width:1.0;"/><rect fill="#FEFECE" filter="url(#f8uq2f73cyhkt)" height="33.9688" rx="12.5" ry="12.5" style="stroke:#A80036;stroke-width:1.5;" width="153" x="278.5" y="67"/><text fill="#000000" font-family="sans-serif" font-size="12" lengthAdjust="spacingAndGlyphs" textLength="133" x="288.5" y="88.1387">Extracurricular Activity</text><rect fill="#FEFECE" filter="url(#f8uq2f73cyhkt)" height="47.9375" rx="12.5" ry="12.5" style="stroke:#A80036;stroke-width:1.5;" width="433" x="138.5" y="142"/><text fill="#000000" font-family="sans-serif" font-size="12" lengthAdjust="spacingAndGlyphs" textLength="409" x="148.5" y="163.1387">After completing the elective subject, you can enjoy your free time,</text><text fill="#000000" font-family="sans-serif" font-size="12" lengthAdjust="spacingAndGlyphs" textLength="287" x="213.5" y="177.1074">or you can take part in a extracurricular activity.</text><polygon fill="#FEFECE" filter="url(#f8uq2f73cyhkt)" points="355,231,367,243,355,255,343,243,355,231" style="stroke:#A80036;stroke-width:1.5;"/><rect fill="#FEFECE" filter="url(#f8uq2f73cyhkt)" height="75.875" rx="12.5" ry="12.5" style="stroke:#A80036;stroke-width:1.5;" width="337" x="174.5" y="336"/><text fill="#000000" font-family="sans-serif" font-size="12" lengthAdjust="spacingAndGlyphs" textLength="313" x="184.5" y="357.1387">You get to know the csharp programming language.</text><text fill="#000000" font-family="sans-serif" font-size="12" lengthAdjust="spacingAndGlyphs" textLength="112" x="287" y="371.1074">Your stats change:</text><text fill="#000000" font-family="sans-serif" font-size="12" lengthAdjust="spacingAndGlyphs" textLength="103" x="291.5" y="385.0762">+2 programming</text><text fill="#000000" font-family="sans-serif" font-size="12" lengthAdjust="spacingAndGlyphs" textLength="73" x="308.5" y="399.0449">+1 analytics</text><rect fill="#FEFECE" filter="url(#f8uq2f73cyhkt)" height="103.8125" rx="12.5" ry="12.5" style="stroke:#A80036;stroke-width:1.5;" width="284" x="532" y="322"/><text fill="#000000" font-family="sans-serif" font-size="12" lengthAdjust="spacingAndGlyphs" textLength="215" x="564.5" y="343.1387">Through many parties in your spare</text><text fill="#000000" font-family="sans-serif" font-size="12" lengthAdjust="spacingAndGlyphs" textLength="203" x="572.5" y="357.1074">time your partying stat increases,</text><text fill="#000000" font-family="sans-serif" font-size="12" lengthAdjust="spacingAndGlyphs" textLength="260" x="542" y="371.0762">but your programming skills get a bit rusty.</text><text fill="#000000" font-family="sans-serif" font-size="12" lengthAdjust="spacingAndGlyphs" textLength="112" x="618" y="385.0449">Your stats change:</text><text fill="#000000" font-family="sans-serif" font-size="12" lengthAdjust="spacingAndGlyphs" textLength="71" x="638.5" y="399.0137">+4 partying</text><text fill="#000000" font-family="sans-serif" font-size="12" lengthAdjust="spacingAndGlyphs" textLength="97" x="627.5" y="412.9824">-1 programming</text><rect fill="#FEFECE" filter="url(#f8uq2f73cyhkt)" height="89.8438" rx="12.5" ry="12.5" style="stroke:#A80036;stroke-width:1.5;" width="248" x="7" y="446"/><text fill="#000000" font-family="sans-serif" font-size="12" lengthAdjust="spacingAndGlyphs" textLength="210" x="24" y="467.1387">You get to know many new people</text><text fill="#000000" font-family="sans-serif" font-size="12" lengthAdjust="spacingAndGlyphs" textLength="224" x="21" y="481.1074">and expand your programming skills.</text><text fill="#000000" font-family="sans-serif" font-size="12" lengthAdjust="spacingAndGlyphs" textLength="112" x="77" y="495.0762">Your stats change:</text><text fill="#000000" font-family="sans-serif" font-size="12" lengthAdjust="spacingAndGlyphs" textLength="103" x="79.5" y="509.0449">+2 programming</text><text fill="#000000" font-family="sans-serif" font-size="12" lengthAdjust="spacingAndGlyphs" textLength="111" x="77.5" y="523.0137">+1 communication</text><rect fill="#FEFECE" filter="url(#f8uq2f73cyhkt)" height="33.9688" rx="12.5" ry="12.5" style="stroke:#A80036;stroke-width:1.5;" width="304" x="191" y="556"/><text fill="#000000" font-family="sans-serif" font-size="12" lengthAdjust="spacingAndGlyphs" textLength="284" x="201" y="577.1387">You have successfully completed your studies.</text><rect fill="#FEFECE" filter="url(#f8uq2f73cyhkt)" height="33.9688" rx="12.5" ry="12.5" style="stroke:#A80036;stroke-width:1.5;" width="123" x="281.5" y="631"/><text fill="#000000" font-family="sans-serif" font-size="12" lengthAdjust="spacingAndGlyphs" textLength="103" x="291.5" y="652.1387">Graduate studies</text><!--MD5=[11ac60104275e456bf7e360629d71715]
link start to Extracurricular Activity--><path d="M355,26.177 C355,35.269 355,49.527 355,61.485 " fill="none" id="start-to-Extracurricular Activity" style="stroke:#A80036;stroke-width:1.0;"/><polygon fill="#A80036" points="355,66.791,359,57.791,355,61.791,351,57.791,355,66.791" style="stroke:#A80036;stroke-width:1.0;"/><!--MD5=[e63fbbe25f1db23406078fd9a4adf430]
link Extracurricular Activity to After completing the elective subject, you can enjoy your free time, \n or you can take part in a extracurricular activity.--><path d="M355,101.189 C355,111.416 355,124.908 355,136.851 " fill="none" id="Extracurricular Activity-to-After completing the elective subject, you can enjoy your free time, \n or you can take part in a extracurricular activity." style="stroke:#A80036;stroke-width:1.0;"/><polygon fill="#A80036" points="355,141.861,359,132.861,355,136.861,351,132.861,355,141.861" style="stroke:#A80036;stroke-width:1.0;"/><!--MD5=[99e496091964389849322c65a9f03ce5]
link After completing the elective subject, you can enjoy your free time, \n or you can take part in a extracurricular activity. to #235422--><path d="M355,190.319 C355,201.744 355,215.228 355,225.558 " fill="none" id="After completing the elective subject, you can enjoy your free time, \n or you can take part in a extracurricular activity.-to-#235422" style="stroke:#A80036;stroke-width:1.0;"/><polygon fill="#A80036" points="355,230.645,359,221.645,355,225.645,351,221.645,355,230.645" style="stroke:#A80036;stroke-width:1.0;"/><text fill="#000000" font-family="sans-serif" font-size="11" lengthAdjust="spacingAndGlyphs" textLength="142" x="193.0313" y="223.8063">What do you want to do?</text><!--MD5=[6345afb05e89c30d6da3bd0a9781e338]
link #235422 to newL--><path d="M354.058,254.122 C352.534,270.506 349.443,303.739 346.915,330.912 " fill="none" id="#235422-to-newL" style="stroke:#A80036;stroke-width:1.0;"/><polygon fill="#A80036" points="346.45,335.91,351.266,327.3189,346.9129,330.9315,343.3003,326.5784,346.45,335.91" style="stroke:#A80036;stroke-width:1.0;"/><text fill="#000000" font-family="sans-serif" font-size="11" lengthAdjust="spacingAndGlyphs" textLength="141" x="427.5" y="286.2104">You use your spare time</text><text fill="#000000" font-family="sans-serif" font-size="11" lengthAdjust="spacingAndGlyphs" textLength="288" x="358" y="299.0151">to learn a programming language unknown to you.</text><!--MD5=[c17f469f014857216245c6feb0f0f79b]
link #235422 to no--><path d="M365.633,244.402 C415.894,246.397 628.129,255.908 650,275 C662.034,285.505 668.54,300.961 671.929,316.508 " fill="none" id="#235422-to-no" style="stroke:#A80036;stroke-width:1.0;"/><polygon fill="#A80036" points="672.962,321.777,675.1537,312.1751,671.999,316.8706,667.3035,313.7159,672.962,321.777" style="stroke:#A80036;stroke-width:1.0;"/><text fill="#000000" font-family="sans-serif" font-size="11" lengthAdjust="spacingAndGlyphs" textLength="136" x="688" y="286.2104">No, you enjoy your free</text><text fill="#000000" font-family="sans-serif" font-size="11" lengthAdjust="spacingAndGlyphs" textLength="174" x="673" y="299.0151">time and attend some parties.</text><!--MD5=[d465d3a6318772144552b59cd44f8dfd]
link #235422 to contest--><path d="M344.08,244.357 C294.411,246.093 91.448,254.413 73,275 C31.6764,321.115 64.7642,393.685 95.3282,441.556 " fill="none" id="#235422-to-contest" style="stroke:#A80036;stroke-width:1.0;"/><polygon fill="#A80036" points="98.0865,445.822,96.5597,436.0922,95.372,441.623,89.8412,440.4354,98.0865,445.822" style="stroke:#A80036;stroke-width:1.0;"/><text fill="#000000" font-family="sans-serif" font-size="11" lengthAdjust="spacingAndGlyphs" textLength="270" x="74" y="292.7104">You take part in a hackathon at your university.</text><!--MD5=[85ccf5090668cff871fe43897ad87c6e]
link newL to studyComplete--><path d="M343,412.054 C343,452.892 343,517.192 343,550.46 " fill="none" id="newL-to-studyComplete" style="stroke:#A80036;stroke-width:1.0;"/><polygon fill="#A80036" points="343,555.524,347,546.524,343,550.524,339,546.524,343,555.524" style="stroke:#A80036;stroke-width:1.0;"/><!--MD5=[bdd7bee87a4d253fa146fd0c2ffacbf4]
link no to studyComplete--><path d="M587.898,426.245 C517.94,467.882 423.177,524.281 374.593,553.197 " fill="none" id="no-to-studyComplete" style="stroke:#A80036;stroke-width:1.0;"/><polygon fill="#A80036" points="370.038,555.908,379.8177,554.743,374.3348,553.3511,375.7266,547.8681,370.038,555.908" style="stroke:#A80036;stroke-width:1.0;"/><!--MD5=[bedc87cc89a5585c2cfe0291865bf115]
link contest to studyComplete--><path d="M247.852,536.095 C264.755,542.474 281.286,548.712 295.702,554.152 " fill="none" id="contest-to-studyComplete" style="stroke:#A80036;stroke-width:1.0;"/><polygon fill="#A80036" points="300.507,555.965,293.4991,549.0448,295.8291,554.1995,290.6743,556.5295,300.507,555.965" style="stroke:#A80036;stroke-width:1.0;"/><!--MD5=[fc43c9ff01b3b435d0f290cae1c3c42a]
link studyComplete to Graduate studies--><path d="M343,590.2011 C343,600.6917 343,614.4627 343,625.8176 " fill="none" id="studyComplete-to-Graduate studies" style="stroke:#0000FF;stroke-width:1.0;stroke-dasharray:1.0,3.0;"/><polygon fill="#0000FF" points="343,630.8442,347,621.8442,343,625.8442,339,621.8442,343,630.8442" style="stroke:#0000FF;stroke-width:1.0;"/><!--MD5=[1ff09572472deb3d557b9c9f8c8983d4]
@startuml
(*) - -> "Extracurricular Activity"
- -> "After completing the elective subject, you can enjoy your free time, \n or you can take part in a extracurricular activity."
if "What do you want to do?" then
- -> [You use your spare time \n to learn a programming language unknown to you.] "You get to know the csharp programming language. \n Your stats change: \n +2 programming \n +1 analytics" as newL
else
- -> [No, you enjoy your free \n time and attend some parties.] "Through many parties in your spare \n time your partying stat increases, \nbut your programming skills get a bit rusty. \n Your stats change: \n +4 partying \n -1 programming" as no
else 
- -> [You take part in a hackathon at your university.] "You get to know many new people \n and expand your programming skills.\n Your stats change:\n +2 programming \n +1 communication" as contest

newL - -> "You have successfully completed your studies." as studyComplete 
no - -> studyComplete
contest -> studyComplete

-[#blue,dotted]-> "Graduate studies"
@enduml

PlantUML version 1.2020.21beta7(Unknown compile time)
(GPL source distribution)
Java Runtime: Java(TM) SE Runtime Environment
JVM: Java HotSpot(TM) 64-Bit Server VM
Default Encoding: UTF-8
Language: en
Country: US
--></g></svg>