<?xml version="1.0" encoding="UTF-8" standalone="no"?><svg xmlns="http://www.w3.org/2000/svg" xmlns:xlink="http://www.w3.org/1999/xlink" contentScriptType="application/ecmascript" contentStyleType="text/css" height="513px" preserveAspectRatio="none" style="width:566px;height:513px;" version="1.1" viewBox="0 0 566 513" width="566px" zoomAndPan="magnify"><defs><filter height="300%" id="f1xcr82ksr2f3w" width="300%" x="-1" y="-1"><feGaussianBlur result="blurOut" stdDeviation="2.0"/><feColorMatrix in="blurOut" result="blurOut2" type="matrix" values="0 0 0 0 0 0 0 0 0 0 0 0 0 0 0 0 0 0 .4 0"/><feOffset dx="4.0" dy="4.0" in="blurOut2" result="blurOut3"/><feBlend in="SourceGraphic" in2="blurOut3" mode="normal"/></filter></defs><g><rect fill="#B0C4DE" height="501.2188" style="stroke: #A80036; stroke-width: 1.0;" width="341" x="16" y="6"/><text fill="#000000" font-family="sans-serif" font-size="13" font-weight="bold" lengthAdjust="spacingAndGlyphs" textLength="175" x="99" y="19.4951">Network protocol relevance</text><rect fill="#FFFFFF" filter="url(#f1xcr82ksr2f3w)" height="289.6484" style="stroke: #A80036; stroke-width: 1.0;" width="10" x="71" y="120.9609"/><rect fill="#FFFFFF" filter="url(#f1xcr82ksr2f3w)" height="289.6484" style="stroke: #A80036; stroke-width: 1.0;" width="10" x="307" y="120.9609"/><rect fill="#FFFFFF" filter="url(#f1xcr82ksr2f3w)" height="35.3516" style="stroke: #A80036; stroke-width: 1.0;" width="10" x="312" y="232.3672"/><rect fill="#FFFFFF" filter="url(#f1xcr82ksr2f3w)" height="35.3516" style="stroke: #A80036; stroke-width: 1.0;" width="10" x="454" y="232.3672"/><rect fill="#FFFFFF" filter="url(#f1xcr82ksr2f3w)" height="244.2969" style="stroke: #000000; stroke-width: 2.0;" width="542" x="10" y="158.3125"/><rect fill="#FFFFFF" filter="url(#f1xcr82ksr2f3w)" height="92.0547" style="stroke: #000000; stroke-width: 2.0;" width="281" x="261" y="183.6641"/><rect fill="#FFFFFF" height="89.5391" style="stroke: none; stroke-width: 1.0;" width="542" x="10" y="313.0703"/><line style="stroke: #A80036; stroke-width: 1.0; stroke-dasharray: 5.0,5.0;" x1="76" x2="76" y1="110.9609" y2="419.6094"/><line style="stroke: #A80036; stroke-width: 1.0; stroke-dasharray: 5.0,5.0;" x1="312" x2="312" y1="110.9609" y2="419.6094"/><line style="stroke: #A80036; stroke-width: 1.0; stroke-dasharray: 5.0,5.0;" x1="459" x2="459" y1="110.9609" y2="419.6094"/><text fill="#000000" font-family="sans-serif" font-size="14" lengthAdjust="spacingAndGlyphs" textLength="106" x="20" y="107.8848">Moderator-Client</text><ellipse cx="76" cy="36.3516" fill="#FEFECE" filter="url(#f1xcr82ksr2f3w)" rx="8" ry="8" style="stroke: #A80036; stroke-width: 2.0;"/><path d="M76,44.3516 L76,71.3516 M63,52.3516 L89,52.3516 M76,71.3516 L63,86.3516 M76,71.3516 L89,86.3516 " fill="none" filter="url(#f1xcr82ksr2f3w)" style="stroke: #A80036; stroke-width: 2.0;"/><text fill="#000000" font-family="sans-serif" font-size="14" lengthAdjust="spacingAndGlyphs" textLength="106" x="20" y="433.1426">Moderator-Client</text><ellipse cx="76" cy="446.2188" fill="#FEFECE" filter="url(#f1xcr82ksr2f3w)" rx="8" ry="8" style="stroke: #A80036; stroke-width: 2.0;"/><path d="M76,454.2188 L76,481.2188 M63,462.2188 L89,462.2188 M76,481.2188 L63,496.2188 M76,481.2188 L89,496.2188 " fill="none" filter="url(#f1xcr82ksr2f3w)" style="stroke: #A80036; stroke-width: 2.0;"/><text fill="#000000" font-family="sans-serif" font-size="14" lengthAdjust="spacingAndGlyphs" textLength="76" x="271" y="107.8848">ServerLogic</text><path d="M294,57.3516 C294,47.3516 312,47.3516 312,47.3516 C312,47.3516 330,47.3516 330,57.3516 L330,83.3516 C330,93.3516 312,93.3516 312,93.3516 C312,93.3516 294,93.3516 294,83.3516 L294,57.3516 " fill="#FEFECE" filter="url(#f1xcr82ksr2f3w)" style="stroke: #000000; stroke-width: 1.5;"/><path d="M294,57.3516 C294,67.3516 312,67.3516 312,67.3516 C312,67.3516 330,67.3516 330,57.3516 " fill="none" style="stroke: #000000; stroke-width: 1.5;"/><text fill="#000000" font-family="sans-serif" font-size="14" lengthAdjust="spacingAndGlyphs" textLength="76" x="271" y="433.1426">ServerLogic</text><path d="M294,446.2188 C294,436.2188 312,436.2188 312,436.2188 C312,436.2188 330,436.2188 330,446.2188 L330,472.2188 C330,482.2188 312,482.2188 312,482.2188 C312,482.2188 294,482.2188 294,472.2188 L294,446.2188 " fill="#FEFECE" filter="url(#f1xcr82ksr2f3w)" style="stroke: #000000; stroke-width: 1.5;"/><path d="M294,446.2188 C294,456.2188 312,456.2188 312,456.2188 C312,456.2188 330,456.2188 330,446.2188 " fill="none" style="stroke: #000000; stroke-width: 1.5;"/><text fill="#000000" font-family="sans-serif" font-size="14" lengthAdjust="spacingAndGlyphs" textLength="140" x="386" y="107.8848">PlayerAudience-Client</text><ellipse cx="459" cy="36.3516" fill="#FEFECE" filter="url(#f1xcr82ksr2f3w)" rx="8" ry="8" style="stroke: #A80036; stroke-width: 2.0;"/><path d="M459,44.3516 L459,71.3516 M446,52.3516 L472,52.3516 M459,71.3516 L446,86.3516 M459,71.3516 L472,86.3516 " fill="none" filter="url(#f1xcr82ksr2f3w)" style="stroke: #A80036; stroke-width: 2.0;"/><text fill="#000000" font-family="sans-serif" font-size="14" lengthAdjust="spacingAndGlyphs" textLength="140" x="386" y="433.1426">PlayerAudience-Client</text><ellipse cx="459" cy="446.2188" fill="#FEFECE" filter="url(#f1xcr82ksr2f3w)" rx="8" ry="8" style="stroke: #A80036; stroke-width: 2.0;"/><path d="M459,454.2188 L459,481.2188 M446,462.2188 L472,462.2188 M459,481.2188 L446,496.2188 M459,481.2188 L472,496.2188 " fill="none" filter="url(#f1xcr82ksr2f3w)" style="stroke: #A80036; stroke-width: 2.0;"/><rect fill="#FFFFFF" filter="url(#f1xcr82ksr2f3w)" height="289.6484" style="stroke: #A80036; stroke-width: 1.0;" width="10" x="71" y="120.9609"/><rect fill="#FFFFFF" filter="url(#f1xcr82ksr2f3w)" height="289.6484" style="stroke: #A80036; stroke-width: 1.0;" width="10" x="307" y="120.9609"/><rect fill="#FFFFFF" filter="url(#f1xcr82ksr2f3w)" height="35.3516" style="stroke: #A80036; stroke-width: 1.0;" width="10" x="312" y="232.3672"/><rect fill="#FFFFFF" filter="url(#f1xcr82ksr2f3w)" height="35.3516" style="stroke: #A80036; stroke-width: 1.0;" width="10" x="454" y="232.3672"/><polygon fill="#A80036" points="295,139.3125,305,143.3125,295,147.3125,299,143.3125" style="stroke: #A80036; stroke-width: 1.0;"/><line style="stroke: #A80036; stroke-width: 1.0;" x1="81" x2="301" y1="143.3125" y2="143.3125"/><text fill="#000000" font-family="sans-serif" font-size="13" lengthAdjust="spacingAndGlyphs" textLength="202" x="88" y="138.4561">RequestPauseGameStatusChange</text><path d="M10,158.3125 L71,158.3125 L71,166.3125 L61,176.3125 L10,176.3125 L10,158.3125 " fill="#EEEEEE" style="stroke: #000000; stroke-width: 1.0;"/><rect fill="none" height="244.2969" style="stroke: #000000; stroke-width: 2.0;" width="542" x="10" y="158.3125"/><text fill="#000000" font-family="sans-serif" font-size="13" font-weight="bold" lengthAdjust="spacingAndGlyphs" textLength="16" x="25" y="172.8076">alt</text><path d="M261,183.6641 L326,183.6641 L326,191.6641 L316,201.6641 L261,201.6641 L261,183.6641 " fill="#EEEEEE" style="stroke: #000000; stroke-width: 1.0;"/><rect fill="none" height="92.0547" style="stroke: #000000; stroke-width: 2.0;" width="281" x="261" y="183.6641"/><text fill="#000000" font-family="sans-serif" font-size="13" font-weight="bold" lengthAdjust="spacingAndGlyphs" textLength="20" x="276" y="198.1592">opt</text><text fill="#000000" font-family="sans-serif" font-size="11" font-weight="bold" lengthAdjust="spacingAndGlyphs" textLength="118" x="341" y="197.083">[during voting phase]</text><line style="stroke: #A80036; stroke-width: 1.0;" x1="317" x2="364" y1="219.3672" y2="219.3672"/><line style="stroke: #A80036; stroke-width: 1.0;" x1="364" x2="364" y1="219.3672" y2="232.3672"/><line style="stroke: #A80036; stroke-width: 1.0;" x1="323" x2="364" y1="232.3672" y2="232.3672"/><polygon fill="#A80036" points="333,228.3672,323,232.3672,333,236.3672,329,232.3672" style="stroke: #A80036; stroke-width: 1.0;"/><text fill="#000000" font-family="sans-serif" font-size="13" lengthAdjust="spacingAndGlyphs" textLength="106" x="329" y="214.5107">Pause votingTimer</text><polygon fill="#A80036" points="447,263.7188,457,267.7188,447,271.7188,451,267.7188" style="stroke: #A80036; stroke-width: 1.0;"/><line style="stroke: #A80036; stroke-width: 1.0;" x1="317" x2="453" y1="267.7188" y2="267.7188"/><text fill="#000000" font-family="sans-serif" font-size="13" lengthAdjust="spacingAndGlyphs" textLength="108" x="324" y="262.8623">Notify about pause</text><polygon fill="#A80036" points="92,301.0703,82,305.0703,92,309.0703,88,305.0703" style="stroke: #A80036; stroke-width: 1.0;"/><line style="stroke: #A80036; stroke-width: 1.0; stroke-dasharray: 2.0,2.0;" x1="86" x2="306" y1="305.0703" y2="305.0703"/><text fill="#000000" font-family="sans-serif" font-size="13" lengthAdjust="spacingAndGlyphs" textLength="110" x="98" y="300.2139">GamePauseStatus</text><line style="stroke: #000000; stroke-width: 1.0; stroke-dasharray: 2.0,2.0;" x1="10" x2="552" y1="314.0703" y2="314.0703"/><text fill="#000000" font-family="sans-serif" font-size="11" font-weight="bold" lengthAdjust="spacingAndGlyphs" textLength="144" x="15" y="325.4893">[error: IllegalPauseAction]</text><polygon fill="#A80036" points="92,347.2578,82,351.2578,92,355.2578,88,351.2578" style="stroke: #A80036; stroke-width: 1.0;"/><line style="stroke: #A80036; stroke-width: 1.0; stroke-dasharray: 2.0,2.0;" x1="86" x2="306" y1="351.2578" y2="351.2578"/><text fill="#000000" font-family="sans-serif" font-size="13" lengthAdjust="spacingAndGlyphs" textLength="155" x="98" y="346.4014">Error &lt;IllegalPauseAction&gt;</text><line style="stroke: #A80036; stroke-width: 1.0;" x1="81" x2="123" y1="381.6094" y2="381.6094"/><line style="stroke: #A80036; stroke-width: 1.0;" x1="123" x2="123" y1="381.6094" y2="394.6094"/><line style="stroke: #A80036; stroke-width: 1.0;" x1="82" x2="123" y1="394.6094" y2="394.6094"/><polygon fill="#A80036" points="92,390.6094,82,394.6094,92,398.6094,88,394.6094" style="stroke: #A80036; stroke-width: 1.0;"/><text fill="#000000" font-family="sans-serif" font-size="13" lengthAdjust="spacingAndGlyphs" textLength="99" x="88" y="376.7529">Notify about error</text><!--MD5=[cd046cda7dec4809c6d004db315b7a4e]
@startuml

box "Network protocol relevance" #LightSteelBlue
actor "Moderator-Client" as m order 1
database "ServerLogic" as s order 2
end box
actor "PlayerAudience-Client" as p order 3



activate m
activate s

m -> s: RequestPauseGameStatusChange

alt 
    opt during voting phase
        s -> s: Pause votingTimer
        activate s
        activate p
        s -> p: Notify about pause
        deactivate s
        deactivate p
    end
    s - -> m: GamePauseStatus
else error: IllegalPauseAction
    s - -> m: Error <IllegalPauseAction>
    m -> m: Notify about error
end


@enduml

PlantUML version 1.2020.18(Wed Sep 30 21:40:44 CEST 2020)
(GPL source distribution)
Java Runtime: OpenJDK Runtime Environment
JVM: OpenJDK 64-Bit Server VM
Default Encoding: Cp1252
Language: de
Country: DE
--></g></svg>