<?xml version="1.0" encoding="UTF-8" standalone="no"?><svg xmlns="http://www.w3.org/2000/svg" xmlns:xlink="http://www.w3.org/1999/xlink" contentScriptType="application/ecmascript" contentStyleType="text/css" height="723px" preserveAspectRatio="none" style="width:556px;height:723px;" version="1.1" viewBox="0 0 556 723" width="556px" zoomAndPan="magnify"><defs><filter height="300%" id="ff69p797xfipt" width="300%" x="-1" y="-1"><feGaussianBlur result="blurOut" stdDeviation="2.0"/><feColorMatrix in="blurOut" result="blurOut2" type="matrix" values="0 0 0 0 0 0 0 0 0 0 0 0 0 0 0 0 0 0 .4 0"/><feOffset dx="4.0" dy="4.0" in="blurOut2" result="blurOut3"/><feBlend in="SourceGraphic" in2="blurOut3" mode="normal"/></filter></defs><g><rect fill="#B0C4DE" height="711.4844" style="stroke: #A80036; stroke-width: 1.0;" width="314" x="16" y="6"/><text fill="#000000" font-family="sans-serif" font-size="13" font-weight="bold" lengthAdjust="spacingAndGlyphs" textLength="175" x="85.5" y="19.4951">Network protocol relevance</text><rect fill="#FFFFFF" filter="url(#ff69p797xfipt)" height="499.9141" style="stroke: #A80036; stroke-width: 1.0;" width="10" x="71" y="120.9609"/><rect fill="#FFFFFF" filter="url(#ff69p797xfipt)" height="499.9141" style="stroke: #A80036; stroke-width: 1.0;" width="10" x="280" y="120.9609"/><rect fill="#FFFFFF" filter="url(#ff69p797xfipt)" height="30.3516" style="stroke: #A80036; stroke-width: 1.0;" width="10" x="285" y="267.3906"/><rect fill="#FFFFFF" filter="url(#ff69p797xfipt)" height="30" style="stroke: #A80036; stroke-width: 1.0;" width="10" x="285" y="395.7969"/><rect fill="#FFFFFF" filter="url(#ff69p797xfipt)" height="30.3516" style="stroke: #A80036; stroke-width: 1.0;" width="10" x="444" y="267.3906"/><rect fill="#FFFFFF" filter="url(#ff69p797xfipt)" height="30" style="stroke: #A80036; stroke-width: 1.0;" width="10" x="444" y="395.7969"/><rect fill="#FFFFFF" filter="url(#ff69p797xfipt)" height="454.5625" style="stroke: #000000; stroke-width: 2.0;" width="532" x="10" y="158.3125"/><rect fill="#FFFFFF" filter="url(#ff69p797xfipt)" height="91.7266" style="stroke: #000000; stroke-width: 2.0;" width="298" x="234" y="214.0156"/><rect fill="#FFFFFF" height="89.5391" style="stroke: none; stroke-width: 1.0;" width="532" x="10" y="433.7969"/><rect fill="#FFFFFF" height="89.5391" style="stroke: none; stroke-width: 1.0;" width="532" x="10" y="523.3359"/><line style="stroke: #A80036; stroke-width: 1.0; stroke-dasharray: 5.0,5.0;" x1="76" x2="76" y1="110.9609" y2="629.875"/><line style="stroke: #A80036; stroke-width: 1.0; stroke-dasharray: 5.0,5.0;" x1="285" x2="285" y1="110.9609" y2="629.875"/><line style="stroke: #A80036; stroke-width: 1.0; stroke-dasharray: 5.0,5.0;" x1="449" x2="449" y1="110.9609" y2="629.875"/><text fill="#000000" font-family="sans-serif" font-size="14" lengthAdjust="spacingAndGlyphs" textLength="106" x="20" y="107.8848">Moderator-Client</text><ellipse cx="76" cy="36.3516" fill="#FEFECE" filter="url(#ff69p797xfipt)" rx="8" ry="8" style="stroke: #A80036; stroke-width: 2.0;"/><path d="M76,44.3516 L76,71.3516 M63,52.3516 L89,52.3516 M76,71.3516 L63,86.3516 M76,71.3516 L89,86.3516 " fill="none" filter="url(#ff69p797xfipt)" style="stroke: #A80036; stroke-width: 2.0;"/><text fill="#000000" font-family="sans-serif" font-size="14" lengthAdjust="spacingAndGlyphs" textLength="106" x="20" y="643.4082">Moderator-Client</text><ellipse cx="76" cy="656.4844" fill="#FEFECE" filter="url(#ff69p797xfipt)" rx="8" ry="8" style="stroke: #A80036; stroke-width: 2.0;"/><path d="M76,664.4844 L76,691.4844 M63,672.4844 L89,672.4844 M76,691.4844 L63,706.4844 M76,691.4844 L89,706.4844 " fill="none" filter="url(#ff69p797xfipt)" style="stroke: #A80036; stroke-width: 2.0;"/><text fill="#000000" font-family="sans-serif" font-size="14" lengthAdjust="spacingAndGlyphs" textLength="76" x="244" y="107.8848">ServerLogic</text><path d="M267,57.3516 C267,47.3516 285,47.3516 285,47.3516 C285,47.3516 303,47.3516 303,57.3516 L303,83.3516 C303,93.3516 285,93.3516 285,93.3516 C285,93.3516 267,93.3516 267,83.3516 L267,57.3516 " fill="#FEFECE" filter="url(#ff69p797xfipt)" style="stroke: #000000; stroke-width: 1.5;"/><path d="M267,57.3516 C267,67.3516 285,67.3516 285,67.3516 C285,67.3516 303,67.3516 303,57.3516 " fill="none" style="stroke: #000000; stroke-width: 1.5;"/><text fill="#000000" font-family="sans-serif" font-size="14" lengthAdjust="spacingAndGlyphs" textLength="76" x="244" y="643.4082">ServerLogic</text><path d="M267,656.4844 C267,646.4844 285,646.4844 285,646.4844 C285,646.4844 303,646.4844 303,656.4844 L303,682.4844 C303,692.4844 285,692.4844 285,692.4844 C285,692.4844 267,692.4844 267,682.4844 L267,656.4844 " fill="#FEFECE" filter="url(#ff69p797xfipt)" style="stroke: #000000; stroke-width: 1.5;"/><path d="M267,656.4844 C267,666.4844 285,666.4844 285,666.4844 C285,666.4844 303,666.4844 303,656.4844 " fill="none" style="stroke: #000000; stroke-width: 1.5;"/><text fill="#000000" font-family="sans-serif" font-size="14" lengthAdjust="spacingAndGlyphs" textLength="140" x="376" y="107.8848">PlayerAudience-Client</text><ellipse cx="449" cy="36.3516" fill="#FEFECE" filter="url(#ff69p797xfipt)" rx="8" ry="8" style="stroke: #A80036; stroke-width: 2.0;"/><path d="M449,44.3516 L449,71.3516 M436,52.3516 L462,52.3516 M449,71.3516 L436,86.3516 M449,71.3516 L462,86.3516 " fill="none" filter="url(#ff69p797xfipt)" style="stroke: #A80036; stroke-width: 2.0;"/><text fill="#000000" font-family="sans-serif" font-size="14" lengthAdjust="spacingAndGlyphs" textLength="140" x="376" y="643.4082">PlayerAudience-Client</text><ellipse cx="449" cy="656.4844" fill="#FEFECE" filter="url(#ff69p797xfipt)" rx="8" ry="8" style="stroke: #A80036; stroke-width: 2.0;"/><path d="M449,664.4844 L449,691.4844 M436,672.4844 L462,672.4844 M449,691.4844 L436,706.4844 M449,691.4844 L462,706.4844 " fill="none" filter="url(#ff69p797xfipt)" style="stroke: #A80036; stroke-width: 2.0;"/><rect fill="#FFFFFF" filter="url(#ff69p797xfipt)" height="499.9141" style="stroke: #A80036; stroke-width: 1.0;" width="10" x="71" y="120.9609"/><rect fill="#FFFFFF" filter="url(#ff69p797xfipt)" height="499.9141" style="stroke: #A80036; stroke-width: 1.0;" width="10" x="280" y="120.9609"/><rect fill="#FFFFFF" filter="url(#ff69p797xfipt)" height="30.3516" style="stroke: #A80036; stroke-width: 1.0;" width="10" x="285" y="267.3906"/><rect fill="#FFFFFF" filter="url(#ff69p797xfipt)" height="30" style="stroke: #A80036; stroke-width: 1.0;" width="10" x="285" y="395.7969"/><rect fill="#FFFFFF" filter="url(#ff69p797xfipt)" height="30.3516" style="stroke: #A80036; stroke-width: 1.0;" width="10" x="444" y="267.3906"/><rect fill="#FFFFFF" filter="url(#ff69p797xfipt)" height="30" style="stroke: #A80036; stroke-width: 1.0;" width="10" x="444" y="395.7969"/><polygon fill="#A80036" points="268,139.3125,278,143.3125,268,147.3125,272,143.3125" style="stroke: #A80036; stroke-width: 1.0;"/><line style="stroke: #A80036; stroke-width: 1.0;" x1="81" x2="274" y1="143.3125" y2="143.3125"/><text fill="#000000" font-family="sans-serif" font-size="13" lengthAdjust="spacingAndGlyphs" textLength="126" x="88" y="138.4561">RequestOpenSession</text><path d="M10,158.3125 L71,158.3125 L71,166.3125 L61,176.3125 L10,176.3125 L10,158.3125 " fill="#EEEEEE" style="stroke: #000000; stroke-width: 1.0;"/><rect fill="none" height="454.5625" style="stroke: #000000; stroke-width: 2.0;" width="532" x="10" y="158.3125"/><text fill="#000000" font-family="sans-serif" font-size="13" font-weight="bold" lengthAdjust="spacingAndGlyphs" textLength="16" x="25" y="172.8076">alt</text><polygon fill="#A80036" points="92,195.0156,82,199.0156,92,203.0156,88,199.0156" style="stroke: #A80036; stroke-width: 1.0;"/><line style="stroke: #A80036; stroke-width: 1.0; stroke-dasharray: 2.0,2.0;" x1="86" x2="279" y1="199.0156" y2="199.0156"/><text fill="#000000" font-family="sans-serif" font-size="13" lengthAdjust="spacingAndGlyphs" textLength="78" x="98" y="194.1592">OpenSession</text><path d="M234,214.0156 L307,214.0156 L307,222.0156 L297,232.0156 L234,232.0156 L234,214.0156 " fill="#EEEEEE" style="stroke: #000000; stroke-width: 1.0;"/><rect fill="none" height="91.7266" style="stroke: #000000; stroke-width: 2.0;" width="298" x="234" y="214.0156"/><text fill="#000000" font-family="sans-serif" font-size="13" font-weight="bold" lengthAdjust="spacingAndGlyphs" textLength="28" x="249" y="228.5107">loop</text><text fill="#000000" font-family="sans-serif" font-size="11" font-weight="bold" lengthAdjust="spacingAndGlyphs" textLength="68" x="322" y="227.4346">[while game</text><text fill="#000000" font-family="sans-serif" font-size="11" font-weight="bold" lengthAdjust="spacingAndGlyphs" textLength="88" x="325" y="241.2705">not started yet.]</text><polygon fill="#A80036" points="306,263.3906,296,267.3906,306,271.3906,302,267.3906" style="stroke: #A80036; stroke-width: 1.0;"/><line style="stroke: #A80036; stroke-width: 1.0;" x1="300" x2="443" y1="267.3906" y2="267.3906"/><text fill="#000000" font-family="sans-serif" font-size="13" lengthAdjust="spacingAndGlyphs" textLength="112" x="312" y="262.5342">Connect to session</text><polygon fill="#A80036" points="437,293.7422,447,297.7422,437,301.7422,441,297.7422" style="stroke: #A80036; stroke-width: 1.0;"/><line style="stroke: #A80036; stroke-width: 1.0; stroke-dasharray: 2.0,2.0;" x1="290" x2="443" y1="297.7422" y2="297.7422"/><text fill="#000000" font-family="sans-serif" font-size="13" lengthAdjust="spacingAndGlyphs" textLength="111" x="297" y="292.8857">Confirm connection</text><polygon fill="#A80036" points="268,331.0938,278,335.0938,268,339.0938,272,335.0938" style="stroke: #A80036; stroke-width: 1.0;"/><line style="stroke: #A80036; stroke-width: 1.0;" x1="81" x2="274" y1="335.0938" y2="335.0938"/><text fill="#000000" font-family="sans-serif" font-size="13" lengthAdjust="spacingAndGlyphs" textLength="111" x="88" y="330.2373">RequestGameStart</text><polygon fill="#A80036" points="92,361.4453,82,365.4453,92,369.4453,88,365.4453" style="stroke: #A80036; stroke-width: 1.0;"/><line style="stroke: #A80036; stroke-width: 1.0; stroke-dasharray: 2.0,2.0;" x1="86" x2="279" y1="365.4453" y2="365.4453"/><text fill="#000000" font-family="sans-serif" font-size="13" lengthAdjust="spacingAndGlyphs" textLength="77" x="98" y="360.5889">GameStarted</text><polygon fill="#A80036" points="432,391.7969,442,395.7969,432,399.7969,436,395.7969" style="stroke: #A80036; stroke-width: 1.0;"/><line style="stroke: #A80036; stroke-width: 1.0;" x1="295" x2="438" y1="395.7969" y2="395.7969"/><text fill="#000000" font-family="sans-serif" font-size="13" lengthAdjust="spacingAndGlyphs" textLength="135" x="302" y="390.9404">Notify about game start</text><line style="stroke: #000000; stroke-width: 1.0; stroke-dasharray: 2.0,2.0;" x1="10" x2="542" y1="434.7969" y2="434.7969"/><text fill="#000000" font-family="sans-serif" font-size="11" font-weight="bold" lengthAdjust="spacingAndGlyphs" textLength="135" x="15" y="446.2158">[error: WrongPassword]</text><polygon fill="#A80036" points="92,467.9844,82,471.9844,92,475.9844,88,471.9844" style="stroke: #A80036; stroke-width: 1.0;"/><line style="stroke: #A80036; stroke-width: 1.0; stroke-dasharray: 2.0,2.0;" x1="86" x2="279" y1="471.9844" y2="471.9844"/><text fill="#000000" font-family="sans-serif" font-size="13" lengthAdjust="spacingAndGlyphs" textLength="143" x="98" y="467.1279">Error &lt;WrongPassword&gt;</text><line style="stroke: #A80036; stroke-width: 1.0;" x1="81" x2="123" y1="502.3359" y2="502.3359"/><line style="stroke: #A80036; stroke-width: 1.0;" x1="123" x2="123" y1="502.3359" y2="515.3359"/><line style="stroke: #A80036; stroke-width: 1.0;" x1="82" x2="123" y1="515.3359" y2="515.3359"/><polygon fill="#A80036" points="92,511.3359,82,515.3359,92,519.3359,88,515.3359" style="stroke: #A80036; stroke-width: 1.0;"/><text fill="#000000" font-family="sans-serif" font-size="13" lengthAdjust="spacingAndGlyphs" textLength="99" x="88" y="497.4795">Notify about error</text><line style="stroke: #000000; stroke-width: 1.0; stroke-dasharray: 2.0,2.0;" x1="10" x2="542" y1="524.3359" y2="524.3359"/><text fill="#000000" font-family="sans-serif" font-size="11" font-weight="bold" lengthAdjust="spacingAndGlyphs" textLength="160" x="15" y="535.7549">[error: SessionDoesNotExist]</text><polygon fill="#A80036" points="92,557.5234,82,561.5234,92,565.5234,88,561.5234" style="stroke: #A80036; stroke-width: 1.0;"/><line style="stroke: #A80036; stroke-width: 1.0; stroke-dasharray: 2.0,2.0;" x1="86" x2="279" y1="561.5234" y2="561.5234"/><text fill="#000000" font-family="sans-serif" font-size="13" lengthAdjust="spacingAndGlyphs" textLength="175" x="98" y="556.667">Error &lt;SessionDoesNotExist&gt;</text><line style="stroke: #A80036; stroke-width: 1.0;" x1="81" x2="123" y1="591.875" y2="591.875"/><line style="stroke: #A80036; stroke-width: 1.0;" x1="123" x2="123" y1="591.875" y2="604.875"/><line style="stroke: #A80036; stroke-width: 1.0;" x1="82" x2="123" y1="604.875" y2="604.875"/><polygon fill="#A80036" points="92,600.875,82,604.875,92,608.875,88,604.875" style="stroke: #A80036; stroke-width: 1.0;"/><text fill="#000000" font-family="sans-serif" font-size="13" lengthAdjust="spacingAndGlyphs" textLength="99" x="88" y="587.0186">Notify about error</text><!--MD5=[fa442f660f0539534a4f196f59ab9921]
@startuml

box "Network protocol relevance" #LightSteelBlue
actor "Moderator-Client" as m order 1
database "ServerLogic" as s order 2
end box
actor "PlayerAudience-Client" as p order 3



activate m
activate s

m -> s: RequestOpenSession

alt 
    s - -> m: OpenSession
        loop while game \n not started yet.
            p -> s: Connect to session
            activate s
            activate p
            s - -> p: Confirm connection
            deactivate s
            deactivate p
        end
    m -> s: RequestGameStart
    s - -> m: GameStarted
    s -> p: Notify about game start
    activate s
    activate p
    deactivate s
    deactivate p
else error: WrongPassword
    s - -> m: Error <WrongPassword>
    m -> m: Notify about error
else error: SessionDoesNotExist
    s - -> m: Error <SessionDoesNotExist>
    m -> m: Notify about error
end


@enduml

PlantUML version 1.2020.18(Wed Sep 30 21:40:44 CEST 2020)
(GPL source distribution)
Java Runtime: OpenJDK Runtime Environment
JVM: OpenJDK 64-Bit Server VM
Default Encoding: Cp1252
Language: de
Country: DE
--></g></svg>