<?xml version="1.0" encoding="UTF-8" standalone="no"?><svg xmlns="http://www.w3.org/2000/svg" xmlns:xlink="http://www.w3.org/1999/xlink" contentScriptType="application/ecmascript" contentStyleType="text/css" height="482px" preserveAspectRatio="none" style="width:429px;height:482px;" version="1.1" viewBox="0 0 429 482" width="429px" zoomAndPan="magnify"><defs><filter height="300%" id="f1fmwu6zbtitbc" width="300%" x="-1" y="-1"><feGaussianBlur result="blurOut" stdDeviation="2.0"/><feColorMatrix in="blurOut" result="blurOut2" type="matrix" values="0 0 0 0 0 0 0 0 0 0 0 0 0 0 0 0 0 0 .4 0"/><feOffset dx="4.0" dy="4.0" in="blurOut2" result="blurOut3"/><feBlend in="SourceGraphic" in2="blurOut3" mode="normal"/></filter></defs><g><rect fill="#B0C4DE" height="470.0313" style="stroke: #A80036; stroke-width: 1.0;" width="252" x="1" y="6"/><text fill="#000000" font-family="sans-serif" font-size="13" font-weight="bold" lengthAdjust="spacingAndGlyphs" textLength="175" x="39.5" y="19.4951">Network protocol relevance</text><rect fill="#FFFFFF" filter="url(#f1fmwu6zbtitbc)" height="258.4609" style="stroke: #A80036; stroke-width: 1.0;" width="10" x="56" y="120.9609"/><rect fill="#FFFFFF" filter="url(#f1fmwu6zbtitbc)" height="258.4609" style="stroke: #A80036; stroke-width: 1.0;" width="10" x="203" y="120.9609"/><rect fill="#FFFFFF" filter="url(#f1fmwu6zbtitbc)" height="30" style="stroke: #A80036; stroke-width: 1.0;" width="10" x="208" y="259.7188"/><rect fill="#FFFFFF" filter="url(#f1fmwu6zbtitbc)" height="30" style="stroke: #A80036; stroke-width: 1.0;" width="10" x="327" y="259.7188"/><rect fill="#FFFFFF" filter="url(#f1fmwu6zbtitbc)" height="78.7031" style="stroke: #000000; stroke-width: 2.0;" width="258" x="157" y="219.0156"/><line style="stroke: #A80036; stroke-width: 1.0; stroke-dasharray: 5.0,5.0;" x1="61" x2="61" y1="110.9609" y2="388.4219"/><line style="stroke: #A80036; stroke-width: 1.0; stroke-dasharray: 5.0,5.0;" x1="208" x2="208" y1="110.9609" y2="388.4219"/><line style="stroke: #A80036; stroke-width: 1.0; stroke-dasharray: 5.0,5.0;" x1="332" x2="332" y1="110.9609" y2="388.4219"/><text fill="#000000" font-family="sans-serif" font-size="14" lengthAdjust="spacingAndGlyphs" textLength="106" x="5" y="107.8848">Moderator-Client</text><ellipse cx="61" cy="36.3516" fill="#FEFECE" filter="url(#f1fmwu6zbtitbc)" rx="8" ry="8" style="stroke: #A80036; stroke-width: 2.0;"/><path d="M61,44.3516 L61,71.3516 M48,52.3516 L74,52.3516 M61,71.3516 L48,86.3516 M61,71.3516 L74,86.3516 " fill="none" filter="url(#f1fmwu6zbtitbc)" style="stroke: #A80036; stroke-width: 2.0;"/><text fill="#000000" font-family="sans-serif" font-size="14" lengthAdjust="spacingAndGlyphs" textLength="106" x="5" y="401.9551">Moderator-Client</text><ellipse cx="61" cy="415.0313" fill="#FEFECE" filter="url(#f1fmwu6zbtitbc)" rx="8" ry="8" style="stroke: #A80036; stroke-width: 2.0;"/><path d="M61,423.0313 L61,450.0313 M48,431.0313 L74,431.0313 M61,450.0313 L48,465.0313 M61,450.0313 L74,465.0313 " fill="none" filter="url(#f1fmwu6zbtitbc)" style="stroke: #A80036; stroke-width: 2.0;"/><text fill="#000000" font-family="sans-serif" font-size="14" lengthAdjust="spacingAndGlyphs" textLength="76" x="167" y="107.8848">ServerLogic</text><path d="M190,57.3516 C190,47.3516 208,47.3516 208,47.3516 C208,47.3516 226,47.3516 226,57.3516 L226,83.3516 C226,93.3516 208,93.3516 208,93.3516 C208,93.3516 190,93.3516 190,83.3516 L190,57.3516 " fill="#FEFECE" filter="url(#f1fmwu6zbtitbc)" style="stroke: #000000; stroke-width: 1.5;"/><path d="M190,57.3516 C190,67.3516 208,67.3516 208,67.3516 C208,67.3516 226,67.3516 226,57.3516 " fill="none" style="stroke: #000000; stroke-width: 1.5;"/><text fill="#000000" font-family="sans-serif" font-size="14" lengthAdjust="spacingAndGlyphs" textLength="76" x="167" y="401.9551">ServerLogic</text><path d="M190,415.0313 C190,405.0313 208,405.0313 208,405.0313 C208,405.0313 226,405.0313 226,415.0313 L226,441.0313 C226,451.0313 208,451.0313 208,451.0313 C208,451.0313 190,451.0313 190,441.0313 L190,415.0313 " fill="#FEFECE" filter="url(#f1fmwu6zbtitbc)" style="stroke: #000000; stroke-width: 1.5;"/><path d="M190,415.0313 C190,425.0313 208,425.0313 208,425.0313 C208,425.0313 226,425.0313 226,415.0313 " fill="none" style="stroke: #000000; stroke-width: 1.5;"/><text fill="#000000" font-family="sans-serif" font-size="14" lengthAdjust="spacingAndGlyphs" textLength="140" x="259" y="107.8848">PlayerAudience-Client</text><ellipse cx="332" cy="36.3516" fill="#FEFECE" filter="url(#f1fmwu6zbtitbc)" rx="8" ry="8" style="stroke: #A80036; stroke-width: 2.0;"/><path d="M332,44.3516 L332,71.3516 M319,52.3516 L345,52.3516 M332,71.3516 L319,86.3516 M332,71.3516 L345,86.3516 " fill="none" filter="url(#f1fmwu6zbtitbc)" style="stroke: #A80036; stroke-width: 2.0;"/><text fill="#000000" font-family="sans-serif" font-size="14" lengthAdjust="spacingAndGlyphs" textLength="140" x="259" y="401.9551">PlayerAudience-Client</text><ellipse cx="332" cy="415.0313" fill="#FEFECE" filter="url(#f1fmwu6zbtitbc)" rx="8" ry="8" style="stroke: #A80036; stroke-width: 2.0;"/><path d="M332,423.0313 L332,450.0313 M319,431.0313 L345,431.0313 M332,450.0313 L319,465.0313 M332,450.0313 L345,465.0313 " fill="none" filter="url(#f1fmwu6zbtitbc)" style="stroke: #A80036; stroke-width: 2.0;"/><rect fill="#FFFFFF" filter="url(#f1fmwu6zbtitbc)" height="258.4609" style="stroke: #A80036; stroke-width: 1.0;" width="10" x="56" y="120.9609"/><rect fill="#FFFFFF" filter="url(#f1fmwu6zbtitbc)" height="258.4609" style="stroke: #A80036; stroke-width: 1.0;" width="10" x="203" y="120.9609"/><rect fill="#FFFFFF" filter="url(#f1fmwu6zbtitbc)" height="30" style="stroke: #A80036; stroke-width: 1.0;" width="10" x="208" y="259.7188"/><rect fill="#FFFFFF" filter="url(#f1fmwu6zbtitbc)" height="30" style="stroke: #A80036; stroke-width: 1.0;" width="10" x="327" y="259.7188"/><polygon fill="#A80036" points="191,139.3125,201,143.3125,191,147.3125,195,143.3125" style="stroke: #A80036; stroke-width: 1.0;"/><line style="stroke: #A80036; stroke-width: 1.0;" x1="66" x2="197" y1="143.3125" y2="143.3125"/><text fill="#000000" font-family="sans-serif" font-size="13" lengthAdjust="spacingAndGlyphs" textLength="113" x="73" y="138.4561">RequestStartVoting</text><polygon fill="#A80036" points="77,169.6641,67,173.6641,77,177.6641,73,173.6641" style="stroke: #A80036; stroke-width: 1.0;"/><line style="stroke: #A80036; stroke-width: 1.0; stroke-dasharray: 2.0,2.0;" x1="71" x2="202" y1="173.6641" y2="173.6641"/><text fill="#000000" font-family="sans-serif" font-size="13" lengthAdjust="spacingAndGlyphs" textLength="79" x="83" y="168.8076">VotingStarted</text><polygon fill="#A80036" points="320,200.0156,330,204.0156,320,208.0156,324,204.0156" style="stroke: #A80036; stroke-width: 1.0;"/><line style="stroke: #A80036; stroke-width: 1.0;" x1="213" x2="326" y1="204.0156" y2="204.0156"/><text fill="#000000" font-family="sans-serif" font-size="13" lengthAdjust="spacingAndGlyphs" textLength="93" x="220" y="199.1592">Notify about poll</text><path d="M157,219.0156 L230,219.0156 L230,227.0156 L220,237.0156 L157,237.0156 L157,219.0156 " fill="#EEEEEE" style="stroke: #000000; stroke-width: 1.0;"/><rect fill="none" height="78.7031" style="stroke: #000000; stroke-width: 2.0;" width="258" x="157" y="219.0156"/><text fill="#000000" font-family="sans-serif" font-size="13" font-weight="bold" lengthAdjust="spacingAndGlyphs" textLength="28" x="172" y="233.5107">loop</text><text fill="#000000" font-family="sans-serif" font-size="11" font-weight="bold" lengthAdjust="spacingAndGlyphs" textLength="132" x="245" y="232.4346">[while Voting-Timer &gt; 0]</text><polygon fill="#A80036" points="229,255.7188,219,259.7188,229,263.7188,225,259.7188" style="stroke: #A80036; stroke-width: 1.0;"/><line style="stroke: #A80036; stroke-width: 1.0;" x1="223" x2="326" y1="259.7188" y2="259.7188"/><text fill="#000000" font-family="sans-serif" font-size="13" lengthAdjust="spacingAndGlyphs" textLength="27" x="235" y="254.8623">Vote</text><polygon fill="#A80036" points="77,323.0703,67,327.0703,77,331.0703,73,327.0703" style="stroke: #A80036; stroke-width: 1.0;"/><line style="stroke: #A80036; stroke-width: 1.0; stroke-dasharray: 2.0,2.0;" x1="71" x2="202" y1="327.0703" y2="327.0703"/><text fill="#000000" font-family="sans-serif" font-size="13" lengthAdjust="spacingAndGlyphs" textLength="74" x="83" y="322.2139">VotingEnded</text><line style="stroke: #A80036; stroke-width: 1.0;" x1="66" x2="108" y1="357.4219" y2="357.4219"/><line style="stroke: #A80036; stroke-width: 1.0;" x1="108" x2="108" y1="357.4219" y2="370.4219"/><line style="stroke: #A80036; stroke-width: 1.0;" x1="67" x2="108" y1="370.4219" y2="370.4219"/><polygon fill="#A80036" points="77,366.4219,67,370.4219,77,374.4219,73,370.4219" style="stroke: #A80036; stroke-width: 1.0;"/><text fill="#000000" font-family="sans-serif" font-size="13" lengthAdjust="spacingAndGlyphs" textLength="76" x="73" y="352.5654">Evaluate vote</text><!--MD5=[01d75dd8886637ef631f3d6cb2dbc4fe]
@startuml

box "Network protocol relevance" #LightSteelBlue
actor "Moderator-Client" as m order 1
database "ServerLogic" as s order 2
end box
actor "PlayerAudience-Client" as p order 3



activate m
activate s

m -> s: RequestStartVoting
s - -> m: VotingStarted
s -> p: Notify about poll
    loop while Voting-Timer > 0
        p -> s: Vote
        activate s
        activate p
        deactivate s
        deactivate p
    end
s - -> m: VotingEnded
m -> m: Evaluate vote


@enduml

PlantUML version 1.2020.18(Wed Sep 30 21:40:44 CEST 2020)
(GPL source distribution)
Java Runtime: OpenJDK Runtime Environment
JVM: OpenJDK 64-Bit Server VM
Default Encoding: Cp1252
Language: de
Country: DE
--></g></svg>